%TF.GenerationSoftware,KiCad,Pcbnew,10.0.2*%
%TF.CreationDate,2026-05-23T16:50:30-05:00*%
%TF.ProjectId,wiring-harness,77697269-6e67-42d6-9861-726e6573732e,rev?*%
%TF.SameCoordinates,Original*%
%TF.FileFunction,Soldermask,Top*%
%TF.FilePolarity,Negative*%
%FSLAX46Y46*%
G04 Gerber Fmt 4.6, Leading zero omitted, Abs format (unit mm)*
G04 Created by KiCad (PCBNEW 10.0.2) date 2026-05-23 16:50:30*
%MOMM*%
%LPD*%
G01*
G04 APERTURE LIST*
G04 Aperture macros list*
%AMRoundRect*
0 Rectangle with rounded corners*
0 $1 Rounding radius*
0 $2 $3 $4 $5 $6 $7 $8 $9 X,Y pos of 4 corners*
0 Add a 4 corners polygon primitive as box body*
4,1,4,$2,$3,$4,$5,$6,$7,$8,$9,$2,$3,0*
0 Add four circle primitives for the rounded corners*
1,1,$1+$1,$2,$3*
1,1,$1+$1,$4,$5*
1,1,$1+$1,$6,$7*
1,1,$1+$1,$8,$9*
0 Add four rect primitives between the rounded corners*
20,1,$1+$1,$2,$3,$4,$5,0*
20,1,$1+$1,$4,$5,$6,$7,0*
20,1,$1+$1,$6,$7,$8,$9,0*
20,1,$1+$1,$8,$9,$2,$3,0*%
%AMOutline5P*
0 Free polygon, 5 corners , with rotation*
0 The origin of the aperture is its center*
0 number of corners: always 5*
0 $1 to $10 corner X, Y*
0 $11 Rotation angle, in degrees counterclockwise*
0 create outline with 5 corners*
4,1,5,$1,$2,$3,$4,$5,$6,$7,$8,$9,$10,$1,$2,$11*%
%AMOutline6P*
0 Free polygon, 6 corners , with rotation*
0 The origin of the aperture is its center*
0 number of corners: always 6*
0 $1 to $12 corner X, Y*
0 $13 Rotation angle, in degrees counterclockwise*
0 create outline with 6 corners*
4,1,6,$1,$2,$3,$4,$5,$6,$7,$8,$9,$10,$11,$12,$1,$2,$13*%
%AMOutline7P*
0 Free polygon, 7 corners , with rotation*
0 The origin of the aperture is its center*
0 number of corners: always 7*
0 $1 to $14 corner X, Y*
0 $15 Rotation angle, in degrees counterclockwise*
0 create outline with 7 corners*
4,1,7,$1,$2,$3,$4,$5,$6,$7,$8,$9,$10,$11,$12,$13,$14,$1,$2,$15*%
%AMOutline8P*
0 Free polygon, 8 corners , with rotation*
0 The origin of the aperture is its center*
0 number of corners: always 8*
0 $1 to $16 corner X, Y*
0 $17 Rotation angle, in degrees counterclockwise*
0 create outline with 8 corners*
4,1,8,$1,$2,$3,$4,$5,$6,$7,$8,$9,$10,$11,$12,$13,$14,$15,$16,$1,$2,$17*%
G04 Aperture macros list end*
%ADD10C,3.250000*%
%ADD11Outline8P,-2.000000X0.800000X-0.800000X2.000000X0.800000X2.000000X2.000000X0.800000X2.000000X-0.800000X0.800000X-2.000000X-0.800000X-2.000000X-2.000000X-0.800000X180.000000*%
%ADD12R,1.700000X1.700000*%
%ADD13C,1.700000*%
%ADD14R,1.500000X1.500000*%
%ADD15C,1.500000*%
%ADD16C,2.600000*%
%ADD17RoundRect,0.357144X1.642856X1.642856X-1.642856X1.642856X-1.642856X-1.642856X1.642856X-1.642856X0*%
%ADD18C,2.300000*%
%TA.AperFunction,Profile*%
%ADD19C,0.200000*%
%TD*%
G04 APERTURE END LIST*
D10*
%TO.C,HOLES1*%
X113267800Y-72070000D03*
%TD*%
D11*
%TO.C,standoff2*%
X94930000Y-87310000D03*
%TD*%
%TO.C,STANDOFF1*%
X33970000Y-87310000D03*
%TD*%
D12*
%TO.C,CBL-TO-MCU-A1*%
X88375800Y-87310000D03*
D13*
X85835800Y-87310000D03*
X83295800Y-87310000D03*
X80755800Y-87310000D03*
X78215800Y-87310000D03*
X75675800Y-87310000D03*
X73135800Y-87310000D03*
X70595800Y-87310000D03*
X68055800Y-87310000D03*
X65515800Y-87310000D03*
%TD*%
D12*
%TO.C,CBL-TO-MCU-B1*%
X62975800Y-87310000D03*
D13*
X60435800Y-87310000D03*
X57895800Y-87310000D03*
X55355800Y-87310000D03*
X52815800Y-87310000D03*
X50275800Y-87310000D03*
X47735800Y-87310000D03*
X45195800Y-87310000D03*
X42655800Y-87310000D03*
X40115800Y-87310000D03*
%TD*%
D14*
%TO.C,RADAR0*%
X33528800Y-78238400D03*
D15*
X34798800Y-80778400D03*
X36068800Y-78238400D03*
X37338800Y-80778400D03*
X38608800Y-78238400D03*
X39878800Y-80778400D03*
X41148800Y-78238400D03*
X42418800Y-80778400D03*
%TD*%
D16*
%TO.C,SH1*%
X28890000Y-67414400D03*
%TD*%
%TO.C,SH4*%
X87016600Y-82411600D03*
%TD*%
%TO.C,SH3*%
X73072000Y-82538600D03*
%TD*%
D14*
%TO.C,DOORLOCK1*%
X103610300Y-78284600D03*
D15*
X104880300Y-80824600D03*
X106150300Y-78284600D03*
X107420300Y-80824600D03*
X108690300Y-78284600D03*
X109960300Y-80824600D03*
X111230300Y-78284600D03*
X112500300Y-80824600D03*
%TD*%
D14*
%TO.C,DOORLOCK0*%
X61568000Y-78266400D03*
D15*
X62838000Y-80806400D03*
X64108000Y-78266400D03*
X65378000Y-80806400D03*
X66648000Y-78266400D03*
X67918000Y-80806400D03*
X69188000Y-78266400D03*
X70458000Y-80806400D03*
%TD*%
D14*
%TO.C,DOORSENSE0*%
X47552400Y-78243500D03*
D15*
X48822400Y-80783500D03*
X50092400Y-78243500D03*
X51362400Y-80783500D03*
X52632400Y-78243500D03*
X53902400Y-80783500D03*
X55172400Y-78243500D03*
X56442400Y-80783500D03*
%TD*%
D14*
%TO.C,RADAR1*%
X75580800Y-78271300D03*
D15*
X76850800Y-80811300D03*
X78120800Y-78271300D03*
X79390800Y-80811300D03*
X80660800Y-78271300D03*
X81930800Y-80811300D03*
X83200800Y-78271300D03*
X84470800Y-80811300D03*
%TD*%
D16*
%TO.C,SH5*%
X116357600Y-67414400D03*
%TD*%
D11*
%TO.C,STANDOFF3*%
X72984400Y-53782000D03*
%TD*%
D17*
%TO.C,J1*%
X31733800Y-92390000D03*
%TD*%
D14*
%TO.C,DOORSENSE1*%
X89595000Y-78266600D03*
D15*
X90865000Y-80806600D03*
X92135000Y-78266600D03*
X93405000Y-80806600D03*
X94675000Y-78266600D03*
X95945000Y-80806600D03*
X97215000Y-78266600D03*
X98485000Y-80806600D03*
%TD*%
D16*
%TO.C,SH2*%
X59102000Y-82538600D03*
%TD*%
D10*
%TO.C,HOLES2*%
X32495800Y-72070000D03*
%TD*%
%TO.C,ENVSENSE1*%
X101182400Y-91195200D03*
X113882399Y-91195201D03*
D14*
X103972400Y-93735200D03*
D15*
X104988401Y-95515201D03*
X106004400Y-93735200D03*
X107020401Y-95515201D03*
X108036401Y-93735200D03*
X109052399Y-95515199D03*
X110068400Y-93735200D03*
X111084402Y-95515200D03*
D18*
X99402398Y-94625200D03*
X115662399Y-94625201D03*
%TD*%
D19*
X24710343Y-81750000D02*
X24710343Y-101811400D01*
X24710343Y-81750000D02*
X24833752Y-81654874D01*
X24710343Y-101811400D02*
X41999428Y-101811400D01*
X24833752Y-81654874D02*
X25035833Y-81621046D01*
X25035833Y-81621046D02*
X25236440Y-81579359D01*
X25236440Y-81579359D02*
X25435268Y-81529877D01*
X25435268Y-81529877D02*
X25632015Y-81472675D01*
X25632015Y-81472675D02*
X25826379Y-81407841D01*
X25826379Y-81407841D02*
X26018067Y-81335473D01*
X26018067Y-81335473D02*
X26206784Y-81255680D01*
X26206784Y-81255680D02*
X26392245Y-81168586D01*
X26392245Y-81168586D02*
X26574166Y-81074322D01*
X26455828Y-61113981D02*
X26455828Y-70950000D01*
X26455828Y-70950000D02*
X27041013Y-71338723D01*
X26574166Y-81074322D02*
X26752271Y-80973032D01*
X26752271Y-80973032D02*
X26926289Y-80864870D01*
X26926289Y-80864870D02*
X27095954Y-80750000D01*
X27095954Y-80750000D02*
X27261008Y-80628599D01*
X27210678Y-71453593D02*
X27041013Y-71338723D01*
X27261008Y-80628599D02*
X27538802Y-80350805D01*
X27535924Y-71702743D02*
X27210678Y-71453593D01*
X27554019Y-80350805D02*
X27538802Y-80350805D01*
X27554019Y-80350805D02*
X27847935Y-79741012D01*
X27691009Y-71836644D02*
X27535924Y-71702743D01*
X27840753Y-71976494D02*
X27691009Y-71836644D01*
X27847935Y-79741012D02*
X27986318Y-79589912D01*
X27984925Y-72122081D02*
X27840753Y-71976494D01*
X27986318Y-79589912D02*
X28118700Y-79433527D01*
X28118700Y-79433527D02*
X28244880Y-79272097D01*
X28123308Y-72273181D02*
X27984925Y-72122081D01*
X28244880Y-79272097D02*
X28364665Y-79105866D01*
X28255690Y-72429566D02*
X28123308Y-72273181D01*
X28364665Y-79105866D02*
X28477873Y-78935088D01*
X28381870Y-72590996D02*
X28255690Y-72429566D01*
X28381870Y-72590996D02*
X28721323Y-73103069D01*
X28477873Y-78935088D02*
X28584333Y-78760024D01*
X28584333Y-78760024D02*
X28683880Y-78580939D01*
X28683880Y-78580939D02*
X28776365Y-78398107D01*
X28776365Y-78398107D02*
X28861646Y-78211805D01*
X28820870Y-73282154D02*
X28721323Y-73103069D01*
X28861646Y-78211805D02*
X28939593Y-78022318D01*
X28913355Y-73464986D02*
X28820870Y-73282154D01*
X28939593Y-74217682D02*
X28939593Y-73644800D01*
X28939593Y-78022318D02*
X29010088Y-77829934D01*
X28942452Y-73640679D02*
X28913355Y-73464986D01*
X28942452Y-73640679D02*
X28939593Y-73644800D01*
X29010088Y-74410066D02*
X28939593Y-74217682D01*
X29010088Y-77829934D02*
X29073023Y-77634946D01*
X29073023Y-74605054D02*
X29010088Y-74410066D01*
X29073023Y-77634946D02*
X29128302Y-77437651D01*
X29128302Y-74802349D02*
X29073023Y-74605054D01*
X29128302Y-77437651D02*
X29175842Y-77238349D01*
X29175842Y-75001651D02*
X29128302Y-74802349D01*
X29175842Y-77238349D02*
X29215570Y-77037345D01*
X29215570Y-75202655D02*
X29175842Y-75001651D01*
X29215570Y-77037345D02*
X29247425Y-76834943D01*
X29247425Y-75405057D02*
X29215570Y-75202655D01*
X29247425Y-76834943D02*
X29271358Y-76631453D01*
X29271358Y-75608547D02*
X29247425Y-75405057D01*
X29271358Y-76631453D02*
X29287334Y-76427183D01*
X29287334Y-75812817D02*
X29271358Y-75608547D01*
X29287334Y-76427183D02*
X29295328Y-76222446D01*
X29295328Y-76017554D02*
X29287334Y-75812817D01*
X29295328Y-76222446D02*
X29295828Y-76120000D01*
X29295828Y-76120000D02*
X29295328Y-76017554D01*
X41999428Y-98098400D02*
X41999428Y-101811400D01*
X41999428Y-98098400D02*
X42001565Y-98065779D01*
X42048958Y-97705677D02*
X42001565Y-98065779D01*
X42061763Y-97584665D02*
X42048958Y-97705677D01*
X42061763Y-97584665D02*
X42063093Y-97574207D01*
X42091000Y-97386503D02*
X42063093Y-97574207D01*
X42091000Y-97386503D02*
X42130770Y-97179442D01*
X42176821Y-96984462D02*
X42130770Y-97179442D01*
X42228395Y-96801867D02*
X42177037Y-96984524D01*
X42229440Y-96797954D02*
X42228395Y-96801867D01*
X42293763Y-96601402D02*
X42229440Y-96797954D01*
X42360544Y-96423771D02*
X42293971Y-96601481D01*
X42360544Y-96423771D02*
X42362876Y-96417694D01*
X42438455Y-96239236D02*
X42362876Y-96417694D01*
X42439967Y-96235531D02*
X42438455Y-96239236D01*
X42524076Y-96058151D02*
X42439967Y-96235531D01*
X42524076Y-96058151D02*
X42526817Y-96052470D01*
X42622161Y-95871520D02*
X42526817Y-96052470D01*
X42723126Y-95698495D02*
X42622351Y-95871632D01*
X42825607Y-95538770D02*
X42723313Y-95698615D01*
X42831504Y-95529972D02*
X42825607Y-95538770D01*
X42940412Y-95374628D02*
X42831504Y-95529972D01*
X42940412Y-95374628D02*
X42944315Y-95369167D01*
X43068452Y-95207094D02*
X42944315Y-95369167D01*
X43190260Y-95061584D02*
X43068623Y-95207237D01*
X43193213Y-95058008D02*
X43190260Y-95061584D01*
X43324857Y-94913240D02*
X43193213Y-95058008D01*
X43329366Y-94908368D02*
X43324857Y-94913240D01*
X43465589Y-94770700D02*
X43329366Y-94908368D01*
X43471331Y-94765063D02*
X43465589Y-94770700D01*
X43612205Y-94634220D02*
X43471331Y-94765063D01*
X43618207Y-94628808D02*
X43612205Y-94634220D01*
X43764443Y-94504043D02*
X43618207Y-94628808D01*
X43770407Y-94499092D02*
X43764443Y-94504043D01*
X43930317Y-94373916D02*
X43770407Y-94499092D01*
X44084698Y-94263508D02*
X43930446Y-94374095D01*
X44084698Y-94263508D02*
X44090785Y-94259257D01*
X44252144Y-94153579D02*
X44090785Y-94259257D01*
X44252144Y-94153579D02*
X44258750Y-94149381D01*
X44424078Y-94050806D02*
X44258750Y-94149381D01*
X44429389Y-94047683D02*
X44424078Y-94050806D01*
X44600189Y-93955373D02*
X44429389Y-94047683D01*
X44605734Y-93952424D02*
X44600189Y-93955373D01*
X44780167Y-93867448D02*
X44605734Y-93952424D01*
X44786966Y-93864241D02*
X44780167Y-93867448D01*
X44973365Y-93782972D02*
X44786966Y-93864241D01*
X45150437Y-93714739D02*
X44973445Y-93783180D01*
X45158603Y-93711736D02*
X45150437Y-93714739D01*
X45350062Y-93646838D02*
X45158603Y-93711736D01*
X45532256Y-93593763D02*
X45350123Y-93647052D01*
X45532256Y-93593763D02*
X45539185Y-93591820D01*
X45726649Y-93545453D02*
X45539185Y-93591820D01*
X45726649Y-93545453D02*
X45730036Y-93544539D01*
X46131103Y-93472180D02*
X45730036Y-93544539D01*
X46529914Y-93434451D02*
X46131103Y-93472180D01*
X46719559Y-93428675D02*
X46529914Y-93434451D01*
X46930403Y-93430898D02*
X46719559Y-93428675D01*
X47119898Y-93440896D02*
X46930403Y-93430898D01*
X47123474Y-93441013D02*
X47119898Y-93440896D01*
X47319325Y-93459651D02*
X47123474Y-93441013D01*
X47319325Y-93459651D02*
X47324826Y-93460186D01*
X47528242Y-93488239D02*
X47324826Y-93460186D01*
X47725280Y-93524161D02*
X47528202Y-93488458D01*
X47920727Y-93568380D02*
X47725229Y-93524378D01*
X48114046Y-93620776D02*
X47920667Y-93568596D01*
X48294922Y-93678099D02*
X48113975Y-93620989D01*
X48294922Y-93678099D02*
X48304949Y-93681499D01*
X48483304Y-93746178D02*
X48304949Y-93681499D01*
X48678460Y-93826159D02*
X48483304Y-93746178D01*
X48860247Y-93910282D02*
X48678361Y-93826374D01*
X49028916Y-93997148D02*
X48860144Y-93910481D01*
X49032616Y-93998995D02*
X49028916Y-93997148D01*
X49212389Y-94101109D02*
X49032616Y-93998995D01*
X49382120Y-94207487D02*
X49212270Y-94101298D01*
X49547205Y-94320919D02*
X49381992Y-94207671D01*
X49707402Y-94441240D02*
X49547072Y-94321098D01*
X49862344Y-94568174D02*
X49707261Y-94441413D01*
X50003918Y-94694513D02*
X49862195Y-94568341D01*
X50006225Y-94696439D02*
X50003918Y-94694513D01*
X50155493Y-94841060D02*
X50006225Y-94696439D01*
X50285951Y-94978902D02*
X50155333Y-94841212D01*
X50293042Y-94986700D02*
X50285951Y-94978902D01*
X50417704Y-95129734D02*
X50293042Y-94986700D01*
X50539941Y-95282184D02*
X50417873Y-95129589D01*
X50549441Y-95294417D02*
X50539941Y-95282184D01*
X50660037Y-95445298D02*
X50549441Y-95294417D01*
X50667704Y-95456138D02*
X50660037Y-95445298D01*
X50772429Y-95612422D02*
X50667704Y-95456138D01*
X50778991Y-95622614D02*
X50772429Y-95612422D01*
X50877892Y-95784580D02*
X50778991Y-95622614D01*
X50883209Y-95793717D02*
X50877892Y-95784580D01*
X50975176Y-95959677D02*
X50883209Y-95793717D01*
X50980113Y-95969048D02*
X50975176Y-95959677D01*
X51065009Y-96138749D02*
X50980113Y-95969048D01*
X51069524Y-96148276D02*
X51065009Y-96138749D01*
X51144409Y-96315205D02*
X51069524Y-96148276D01*
X51151296Y-96331098D02*
X51144409Y-96315205D01*
X51219583Y-96502305D02*
X51151296Y-96331098D01*
X51225308Y-96517263D02*
X51219583Y-96502305D01*
X51285950Y-96690152D02*
X51225308Y-96517263D01*
X51291374Y-96706284D02*
X51285950Y-96690152D01*
X51345151Y-96883144D02*
X51291374Y-96706284D01*
X51349444Y-96898024D02*
X51345151Y-96883144D01*
X51395653Y-97076742D02*
X51349444Y-96898024D01*
X51399366Y-97091985D02*
X51395653Y-97076742D01*
X51438669Y-97275624D02*
X51399366Y-97091985D01*
X51441076Y-97287931D02*
X51438669Y-97275624D01*
X51471851Y-97468649D02*
X51441076Y-97287931D01*
X51474487Y-97485463D02*
X51471851Y-97468649D01*
X51498114Y-97671229D02*
X51474487Y-97485463D01*
X51499533Y-97684140D02*
X51498114Y-97671229D01*
X51515153Y-97868899D02*
X51499533Y-97684140D01*
X51516187Y-97883762D02*
X51515153Y-97868899D01*
X51520403Y-98226240D02*
X51524011Y-98069183D01*
X51520403Y-98226240D02*
X51536471Y-98149878D01*
X51524011Y-98069183D02*
X51516187Y-97883762D01*
X51524907Y-98177483D02*
X51524407Y-98082599D01*
X51524907Y-98177483D02*
X51536471Y-98149878D01*
X51541828Y-98098400D02*
X51524407Y-98082599D01*
X51541828Y-101811400D02*
X51541828Y-98098400D01*
X51541828Y-101811400D02*
X88278228Y-101811400D01*
X68495200Y-61113200D02*
X26455828Y-61113981D01*
X68495200Y-61113200D02*
X69495200Y-50139600D01*
X69495200Y-50139600D02*
X76495200Y-50139600D01*
X76495200Y-50139600D02*
X77411683Y-61113198D01*
X88278228Y-98359000D02*
X88274228Y-98367844D01*
X88278228Y-101811400D02*
X88278228Y-98359000D01*
X88302072Y-97788423D02*
X88274228Y-98367844D01*
X88388841Y-97204796D02*
X88302072Y-97788423D01*
X88620822Y-96438815D02*
X88388841Y-97204796D01*
X88789069Y-96063768D02*
X88620822Y-96438815D01*
X88789069Y-96063768D02*
X89085885Y-95553814D01*
X89085885Y-95553814D02*
X89091753Y-95545057D01*
X89200690Y-95389672D02*
X89091753Y-95545057D01*
X89200690Y-95389672D02*
X89206922Y-95381170D01*
X89322313Y-95230516D02*
X89206922Y-95381170D01*
X89322313Y-95230516D02*
X89328898Y-95222284D01*
X89450538Y-95076628D02*
X89328898Y-95222284D01*
X89450538Y-95076628D02*
X89457464Y-95068682D01*
X89585135Y-94928284D02*
X89457464Y-95068682D01*
X89585135Y-94928284D02*
X89592390Y-94920636D01*
X89725867Y-94785744D02*
X89592390Y-94920636D01*
X89725867Y-94785744D02*
X89733438Y-94778408D01*
X89872483Y-94649264D02*
X89733438Y-94778408D01*
X89872483Y-94649264D02*
X89880356Y-94642255D01*
X90024721Y-94519087D02*
X89880356Y-94642255D01*
X90024721Y-94519087D02*
X90032883Y-94512416D01*
X90182313Y-94395443D02*
X90032883Y-94512416D01*
X90182313Y-94395443D02*
X90190749Y-94389121D01*
X90344976Y-94278552D02*
X90190749Y-94389121D01*
X90344976Y-94278552D02*
X90353670Y-94272593D01*
X90512422Y-94168623D02*
X90353670Y-94272593D01*
X90512422Y-94168623D02*
X90521362Y-94163034D01*
X90684356Y-94065850D02*
X90521362Y-94163034D01*
X90684356Y-94065850D02*
X90693521Y-94060644D01*
X90860467Y-93970417D02*
X90693521Y-94060644D01*
X90860467Y-93970417D02*
X90869844Y-93965601D01*
X91040445Y-93882492D02*
X90869844Y-93965601D01*
X91040445Y-93882492D02*
X91050017Y-93878076D01*
X91223970Y-93802233D02*
X91050017Y-93878076D01*
X91223970Y-93802233D02*
X91233720Y-93798225D01*
X91410715Y-93729783D02*
X91233720Y-93798225D01*
X91410715Y-93729783D02*
X91420625Y-93726189D01*
X91600349Y-93665269D02*
X91420625Y-93726189D01*
X91600349Y-93665269D02*
X91610402Y-93662096D01*
X91792534Y-93608807D02*
X91610402Y-93662096D01*
X91792534Y-93608807D02*
X91802711Y-93606061D01*
X91986927Y-93560497D02*
X91802711Y-93606061D01*
X91986927Y-93560497D02*
X91997212Y-93558182D01*
X91997212Y-93558182D02*
X92183186Y-93520425D01*
X92183186Y-93520425D02*
X92193558Y-93518546D01*
X92380957Y-93488662D02*
X92193558Y-93518546D01*
X92380957Y-93488662D02*
X92391400Y-93487222D01*
X92579894Y-93465265D02*
X92391400Y-93487222D01*
X92579894Y-93465265D02*
X92590388Y-93464266D01*
X92795428Y-93456717D02*
X92590388Y-93464266D01*
X93390689Y-93456717D02*
X92795428Y-93456717D01*
X93579603Y-93474695D02*
X93390689Y-93456717D01*
X93579603Y-93474695D02*
X93590074Y-93475915D01*
X93975200Y-93537329D02*
X93590074Y-93475915D01*
X94180901Y-93583628D02*
X93975200Y-93537329D01*
X94364116Y-93633066D02*
X94180901Y-93583628D01*
X94555200Y-93693143D02*
X94364116Y-93633066D01*
X94565183Y-93696527D02*
X94555200Y-93693143D01*
X94565183Y-93696527D02*
X94753415Y-93765024D01*
X94938591Y-93841396D02*
X94753415Y-93765024D01*
X95289194Y-94012192D02*
X94938591Y-93841396D01*
X95298469Y-94017205D02*
X95289194Y-94012192D01*
X95298469Y-94017205D02*
X95642256Y-94222705D01*
X95798780Y-94329998D02*
X95642256Y-94222705D01*
X95908157Y-94426758D02*
X95798780Y-94329998D01*
X96055087Y-94546855D02*
X95908157Y-94426758D01*
X96156283Y-94660776D02*
X96055087Y-94546855D01*
X96156283Y-94660776D02*
X96362326Y-94886562D01*
X96492930Y-95024237D02*
X96362326Y-94886562D01*
X96650934Y-95234473D02*
X96492930Y-95024237D01*
X96858500Y-95596584D02*
X96650934Y-95234473D01*
X96957398Y-95758545D02*
X96858500Y-95596584D01*
X97054682Y-95933642D02*
X96957398Y-95758545D01*
X97054682Y-95933642D02*
X97059596Y-95942967D01*
X97144499Y-96112682D02*
X97059596Y-95942967D01*
X97149015Y-96122207D02*
X97144499Y-96112682D01*
X97226688Y-96295351D02*
X97149015Y-96122207D01*
X97226688Y-96295351D02*
X97230800Y-96305058D01*
X97301104Y-96481322D02*
X97230800Y-96305058D01*
X97301104Y-96481322D02*
X97304802Y-96491194D01*
X97367613Y-96670265D02*
X97304802Y-96491194D01*
X97370891Y-96680284D02*
X97367613Y-96670265D01*
X97426097Y-96861844D02*
X97370891Y-96680284D01*
X97426097Y-96861844D02*
X97428950Y-96871990D01*
X97476454Y-97055716D02*
X97428950Y-96871990D01*
X97476454Y-97055716D02*
X97478878Y-97065977D01*
X97478878Y-97065977D02*
X97518593Y-97251542D01*
X97518593Y-97251542D02*
X97520581Y-97261893D01*
X97553989Y-97459395D02*
X97520581Y-97261893D01*
X97553989Y-97459395D02*
X97589056Y-97495400D01*
X97589056Y-97495400D02*
X97589056Y-99632861D01*
X97589056Y-101770321D02*
X97589056Y-99632861D01*
X115688828Y-76550000D02*
X115688828Y-78750000D01*
X115688828Y-76550000D02*
X117911756Y-76550000D01*
X117751757Y-78750000D02*
X115688828Y-78750000D01*
X117751757Y-101770321D02*
X97589056Y-101770321D01*
X117751757Y-101770321D02*
X117751757Y-78750000D01*
X117911756Y-76550000D02*
X117915484Y-61113981D01*
X117915484Y-61113981D02*
X77411683Y-61113198D01*
M02*
