%TF.GenerationSoftware,KiCad,Pcbnew,10.0.2*%
%TF.CreationDate,2026-05-23T16:50:30-05:00*%
%TF.ProjectId,wiring-harness,77697269-6e67-42d6-9861-726e6573732e,rev?*%
%TF.SameCoordinates,Original*%
%TF.FileFunction,Legend,Bot*%
%TF.FilePolarity,Positive*%
%FSLAX46Y46*%
G04 Gerber Fmt 4.6, Leading zero omitted, Abs format (unit mm)*
G04 Created by KiCad (PCBNEW 10.0.2) date 2026-05-23 16:50:30*
%MOMM*%
%LPD*%
G01*
G04 APERTURE LIST*
%ADD10C,0.000000*%
%ADD11C,0.200000*%
%ADD12C,0.120000*%
%TA.AperFunction,Profile*%
%ADD13C,0.200000*%
%TD*%
G04 APERTURE END LIST*
D10*
G36*
X47840102Y-76458855D02*
G01*
X47837485Y-76472010D01*
X47818882Y-76490613D01*
X47792572Y-76490613D01*
X47773969Y-76472010D01*
X47771352Y-76458855D01*
X47771352Y-76304951D01*
X47768718Y-76306268D01*
X47767059Y-76306722D01*
X47766501Y-76307280D01*
X47761101Y-76308354D01*
X47755782Y-76309811D01*
X47755034Y-76309561D01*
X47753346Y-76309897D01*
X47648584Y-76309897D01*
X47646896Y-76309561D01*
X47646148Y-76309810D01*
X47640837Y-76308355D01*
X47635429Y-76307280D01*
X47634872Y-76306722D01*
X47633211Y-76306268D01*
X47580830Y-76280078D01*
X47576474Y-76276697D01*
X47571896Y-76273638D01*
X47545706Y-76247447D01*
X47542646Y-76242867D01*
X47539267Y-76238514D01*
X47513076Y-76186133D01*
X47512622Y-76184472D01*
X47512064Y-76183915D01*
X47510989Y-76178510D01*
X47509534Y-76173197D01*
X47509784Y-76172449D01*
X47509447Y-76170760D01*
X47509447Y-76021732D01*
X47578197Y-76021732D01*
X47578197Y-76162644D01*
X47598266Y-76202780D01*
X47616566Y-76221080D01*
X47656699Y-76241147D01*
X47745231Y-76241147D01*
X47771352Y-76228086D01*
X47771352Y-75956290D01*
X47745231Y-75943230D01*
X47656699Y-75943230D01*
X47616567Y-75963296D01*
X47598264Y-75981599D01*
X47578197Y-76021732D01*
X47509447Y-76021732D01*
X47509447Y-76013617D01*
X47509784Y-76011927D01*
X47509534Y-76011180D01*
X47510989Y-76005866D01*
X47512064Y-76000462D01*
X47512622Y-75999904D01*
X47513076Y-75998244D01*
X47539267Y-75945863D01*
X47542646Y-75941509D01*
X47545706Y-75936929D01*
X47571896Y-75910739D01*
X47576477Y-75907678D01*
X47580830Y-75904300D01*
X47633211Y-75878109D01*
X47634872Y-75877654D01*
X47635429Y-75877097D01*
X47640834Y-75876021D01*
X47646147Y-75874567D01*
X47646895Y-75874816D01*
X47648584Y-75874480D01*
X47753346Y-75874480D01*
X47755036Y-75874816D01*
X47755783Y-75874567D01*
X47761097Y-75876021D01*
X47766501Y-75877097D01*
X47767059Y-75877654D01*
X47768719Y-75878109D01*
X47783947Y-75885722D01*
X47792572Y-75877097D01*
X47818882Y-75877097D01*
X47837485Y-75895700D01*
X47840102Y-75908855D01*
X47840102Y-75956290D01*
X47840102Y-76458855D01*
G37*
G36*
X45651045Y-75670771D02*
G01*
X45660520Y-75680265D01*
X46131949Y-76387406D01*
X46137068Y-76399803D01*
X46131909Y-76425601D01*
X46110018Y-76440195D01*
X46084220Y-76435036D01*
X46074745Y-76425542D01*
X45603317Y-75718400D01*
X45598197Y-75706003D01*
X45603356Y-75680205D01*
X45625248Y-75665611D01*
X45651045Y-75670771D01*
G37*
G36*
X46227235Y-75670771D02*
G01*
X46236710Y-75680265D01*
X46708139Y-76387406D01*
X46713258Y-76399803D01*
X46708099Y-76425601D01*
X46686208Y-76440195D01*
X46660410Y-76435036D01*
X46650935Y-76425542D01*
X46179507Y-75718400D01*
X46174387Y-75706003D01*
X46179546Y-75680205D01*
X46201438Y-75665611D01*
X46227235Y-75670771D01*
G37*
G36*
X39190751Y-75874816D02*
G01*
X39191498Y-75874567D01*
X39196812Y-75876021D01*
X39202216Y-75877097D01*
X39202774Y-75877654D01*
X39204434Y-75878109D01*
X39256815Y-75904300D01*
X39262222Y-75908496D01*
X39263964Y-75909077D01*
X39265471Y-75911017D01*
X39267411Y-75912524D01*
X39267992Y-75914266D01*
X39272188Y-75919673D01*
X39298379Y-75972054D01*
X39298834Y-75973714D01*
X39299391Y-75974272D01*
X39300467Y-75979676D01*
X39301921Y-75984990D01*
X39301672Y-75985737D01*
X39302008Y-75987427D01*
X39302008Y-76013617D01*
X39301672Y-76015306D01*
X39301921Y-76016054D01*
X39300467Y-76021367D01*
X39299391Y-76026772D01*
X39298834Y-76027329D01*
X39298379Y-76028990D01*
X39272188Y-76081371D01*
X39267992Y-76086777D01*
X39267411Y-76088520D01*
X39265471Y-76090026D01*
X39263964Y-76091967D01*
X39262222Y-76092547D01*
X39256815Y-76096744D01*
X39204434Y-76122935D01*
X39202774Y-76123389D01*
X39202216Y-76123947D01*
X39196812Y-76125022D01*
X39191498Y-76126477D01*
X39190751Y-76126227D01*
X39189061Y-76126564D01*
X39118605Y-76126564D01*
X39083731Y-76144000D01*
X39066293Y-76178875D01*
X39066293Y-76188835D01*
X39083731Y-76223710D01*
X39118605Y-76241147D01*
X39207137Y-76241147D01*
X39252260Y-76218586D01*
X39265197Y-76215044D01*
X39290155Y-76223363D01*
X39301921Y-76246896D01*
X39293602Y-76271854D01*
X39283006Y-76280078D01*
X39230624Y-76306268D01*
X39228965Y-76306722D01*
X39228407Y-76307280D01*
X39223007Y-76308354D01*
X39217688Y-76309811D01*
X39216940Y-76309561D01*
X39215252Y-76309897D01*
X39110490Y-76309897D01*
X39108802Y-76309561D01*
X39108054Y-76309810D01*
X39102743Y-76308355D01*
X39097335Y-76307280D01*
X39096778Y-76306722D01*
X39095117Y-76306268D01*
X39042736Y-76280078D01*
X39037330Y-76275881D01*
X39035587Y-76275301D01*
X39034081Y-76273360D01*
X39032140Y-76271854D01*
X39031560Y-76270111D01*
X39027363Y-76264705D01*
X39001172Y-76212324D01*
X39000718Y-76210663D01*
X39000160Y-76210106D01*
X38999085Y-76204701D01*
X38997630Y-76199388D01*
X38997880Y-76198640D01*
X38997543Y-76196951D01*
X38997543Y-76170760D01*
X38997880Y-76169070D01*
X38997630Y-76168323D01*
X38999085Y-76163009D01*
X39000160Y-76157605D01*
X39000718Y-76157047D01*
X39001172Y-76155387D01*
X39027363Y-76103006D01*
X39031560Y-76097599D01*
X39032140Y-76095857D01*
X39034081Y-76094350D01*
X39035587Y-76092410D01*
X39037330Y-76091829D01*
X39042736Y-76087633D01*
X39095117Y-76061443D01*
X39096778Y-76060988D01*
X39097335Y-76060431D01*
X39102743Y-76059355D01*
X39108054Y-76057901D01*
X39108802Y-76058149D01*
X39110490Y-76057814D01*
X39180946Y-76057814D01*
X39215821Y-76040376D01*
X39233258Y-76005501D01*
X39233258Y-75995542D01*
X39215821Y-75960667D01*
X39180946Y-75943230D01*
X39118605Y-75943230D01*
X39073482Y-75965792D01*
X39060546Y-75969334D01*
X39035587Y-75961015D01*
X39023821Y-75937483D01*
X39032140Y-75912524D01*
X39042736Y-75904300D01*
X39095117Y-75878109D01*
X39096778Y-75877654D01*
X39097335Y-75877097D01*
X39102740Y-75876021D01*
X39108053Y-75874567D01*
X39108801Y-75874816D01*
X39110490Y-75874480D01*
X39189061Y-75874480D01*
X39190751Y-75874816D01*
G37*
G36*
X39535105Y-75895700D02*
G01*
X39537722Y-75908855D01*
X39537722Y-76208903D01*
X39549900Y-76221080D01*
X39590033Y-76241147D01*
X39652375Y-76241147D01*
X39687250Y-76223710D01*
X39704686Y-76188836D01*
X39704686Y-75908855D01*
X39707303Y-75895700D01*
X39725906Y-75877097D01*
X39752216Y-75877097D01*
X39770819Y-75895700D01*
X39773436Y-75908855D01*
X39773436Y-76196951D01*
X39773101Y-76198639D01*
X39773349Y-76199387D01*
X39771895Y-76204698D01*
X39770819Y-76210106D01*
X39770262Y-76210663D01*
X39769807Y-76212324D01*
X39743617Y-76264705D01*
X39739421Y-76270111D01*
X39738840Y-76271854D01*
X39736900Y-76273360D01*
X39735393Y-76275301D01*
X39733651Y-76275881D01*
X39728244Y-76280078D01*
X39675862Y-76306268D01*
X39674203Y-76306722D01*
X39673645Y-76307280D01*
X39668245Y-76308354D01*
X39662926Y-76309811D01*
X39662178Y-76309561D01*
X39660490Y-76309897D01*
X39581918Y-76309897D01*
X39580230Y-76309561D01*
X39579482Y-76309810D01*
X39574171Y-76308355D01*
X39568763Y-76307280D01*
X39568206Y-76306722D01*
X39566545Y-76306268D01*
X39533858Y-76289924D01*
X39516502Y-76307280D01*
X39490192Y-76307280D01*
X39471589Y-76288677D01*
X39468972Y-76275522D01*
X39468972Y-75908855D01*
X39471589Y-75895700D01*
X39490192Y-75877097D01*
X39516502Y-75877097D01*
X39535105Y-75895700D01*
G37*
G36*
X40532961Y-76196951D02*
G01*
X40532625Y-76198640D01*
X40532874Y-76199388D01*
X40531420Y-76204701D01*
X40530344Y-76210106D01*
X40529787Y-76210663D01*
X40529332Y-76212324D01*
X40503141Y-76264705D01*
X40498945Y-76270111D01*
X40498364Y-76271854D01*
X40496424Y-76273360D01*
X40494917Y-76275301D01*
X40493175Y-76275881D01*
X40487768Y-76280078D01*
X40435386Y-76306268D01*
X40433727Y-76306722D01*
X40433169Y-76307280D01*
X40427769Y-76308354D01*
X40422450Y-76309811D01*
X40421702Y-76309561D01*
X40420014Y-76309897D01*
X40315252Y-76309897D01*
X40313564Y-76309561D01*
X40312816Y-76309810D01*
X40307505Y-76308355D01*
X40302097Y-76307280D01*
X40301540Y-76306722D01*
X40299879Y-76306268D01*
X40247498Y-76280078D01*
X40236902Y-76271854D01*
X40228582Y-76246896D01*
X40240348Y-76223363D01*
X40265307Y-76215043D01*
X40278243Y-76218586D01*
X40323367Y-76241147D01*
X40411899Y-76241147D01*
X40446774Y-76223710D01*
X40464211Y-76188835D01*
X40464211Y-76120369D01*
X40229939Y-76073515D01*
X40225248Y-76071566D01*
X40223526Y-76071566D01*
X40222303Y-76070342D01*
X40217553Y-76068369D01*
X40212002Y-76060041D01*
X40204923Y-76052963D01*
X40203920Y-76047918D01*
X40202960Y-76046479D01*
X40203298Y-76044791D01*
X40202306Y-76039808D01*
X40202306Y-75995541D01*
X40271056Y-75995541D01*
X40271056Y-76011626D01*
X40464211Y-76050258D01*
X40464211Y-75995542D01*
X40446774Y-75960667D01*
X40411899Y-75943230D01*
X40323367Y-75943230D01*
X40288493Y-75960667D01*
X40271056Y-75995541D01*
X40202306Y-75995541D01*
X40202306Y-75987427D01*
X40202642Y-75985739D01*
X40202392Y-75984991D01*
X40203849Y-75979672D01*
X40204923Y-75974272D01*
X40205481Y-75973714D01*
X40205935Y-75972055D01*
X40232125Y-75919673D01*
X40236322Y-75914266D01*
X40236902Y-75912524D01*
X40238843Y-75911017D01*
X40240349Y-75909077D01*
X40242092Y-75908496D01*
X40247498Y-75904300D01*
X40299879Y-75878109D01*
X40301540Y-75877654D01*
X40302097Y-75877097D01*
X40307502Y-75876021D01*
X40312815Y-75874567D01*
X40313563Y-75874816D01*
X40315252Y-75874480D01*
X40420014Y-75874480D01*
X40421704Y-75874816D01*
X40422451Y-75874567D01*
X40427765Y-75876021D01*
X40433169Y-75877097D01*
X40433727Y-75877654D01*
X40435387Y-75878109D01*
X40487768Y-75904300D01*
X40493175Y-75908496D01*
X40494917Y-75909077D01*
X40496424Y-75911017D01*
X40498364Y-75912524D01*
X40498945Y-75914266D01*
X40503141Y-75919673D01*
X40529332Y-75972054D01*
X40529787Y-75973714D01*
X40530344Y-75974272D01*
X40531420Y-75979676D01*
X40532874Y-75984990D01*
X40532625Y-75985737D01*
X40532961Y-75987427D01*
X40532961Y-75995542D01*
X40532961Y-76196951D01*
G37*
G36*
X40866942Y-75874816D02*
G01*
X40867689Y-75874567D01*
X40873003Y-75876021D01*
X40878407Y-75877097D01*
X40878965Y-75877654D01*
X40880625Y-75878109D01*
X40933006Y-75904300D01*
X40938413Y-75908496D01*
X40940155Y-75909077D01*
X40941662Y-75911017D01*
X40943602Y-75912524D01*
X40944183Y-75914266D01*
X40948379Y-75919673D01*
X40974570Y-75972054D01*
X40975025Y-75973714D01*
X40975582Y-75974272D01*
X40976658Y-75979676D01*
X40978112Y-75984990D01*
X40977863Y-75985737D01*
X40978199Y-75987427D01*
X40978199Y-76013617D01*
X40977863Y-76015306D01*
X40978112Y-76016054D01*
X40976658Y-76021367D01*
X40975582Y-76026772D01*
X40975025Y-76027329D01*
X40974570Y-76028990D01*
X40948379Y-76081371D01*
X40944183Y-76086777D01*
X40943602Y-76088520D01*
X40941662Y-76090026D01*
X40940155Y-76091967D01*
X40938413Y-76092547D01*
X40933006Y-76096744D01*
X40880625Y-76122935D01*
X40878965Y-76123389D01*
X40878407Y-76123947D01*
X40873003Y-76125022D01*
X40867689Y-76126477D01*
X40866942Y-76126227D01*
X40865252Y-76126564D01*
X40794796Y-76126564D01*
X40759922Y-76144000D01*
X40742484Y-76178875D01*
X40742484Y-76188835D01*
X40759922Y-76223710D01*
X40794796Y-76241147D01*
X40883328Y-76241147D01*
X40928451Y-76218586D01*
X40941388Y-76215044D01*
X40966346Y-76223363D01*
X40978112Y-76246896D01*
X40969793Y-76271854D01*
X40959197Y-76280078D01*
X40906815Y-76306268D01*
X40905156Y-76306722D01*
X40904598Y-76307280D01*
X40899198Y-76308354D01*
X40893879Y-76309811D01*
X40893131Y-76309561D01*
X40891443Y-76309897D01*
X40786681Y-76309897D01*
X40784993Y-76309561D01*
X40784245Y-76309810D01*
X40778934Y-76308355D01*
X40773526Y-76307280D01*
X40772969Y-76306722D01*
X40771308Y-76306268D01*
X40718927Y-76280078D01*
X40713521Y-76275881D01*
X40711778Y-76275301D01*
X40710272Y-76273360D01*
X40708331Y-76271854D01*
X40707751Y-76270111D01*
X40703554Y-76264705D01*
X40677363Y-76212324D01*
X40676909Y-76210663D01*
X40676351Y-76210106D01*
X40675276Y-76204701D01*
X40673821Y-76199388D01*
X40674071Y-76198640D01*
X40673734Y-76196951D01*
X40673734Y-76170760D01*
X40674071Y-76169070D01*
X40673821Y-76168323D01*
X40675276Y-76163009D01*
X40676351Y-76157605D01*
X40676909Y-76157047D01*
X40677363Y-76155387D01*
X40703554Y-76103006D01*
X40707751Y-76097599D01*
X40708331Y-76095857D01*
X40710272Y-76094350D01*
X40711778Y-76092410D01*
X40713521Y-76091829D01*
X40718927Y-76087633D01*
X40771308Y-76061443D01*
X40772969Y-76060988D01*
X40773526Y-76060431D01*
X40778934Y-76059355D01*
X40784245Y-76057901D01*
X40784993Y-76058149D01*
X40786681Y-76057814D01*
X40857137Y-76057814D01*
X40892012Y-76040376D01*
X40909449Y-76005501D01*
X40909449Y-75995542D01*
X40892012Y-75960667D01*
X40857137Y-75943230D01*
X40794796Y-75943230D01*
X40749673Y-75965792D01*
X40736737Y-75969334D01*
X40711778Y-75961015D01*
X40700012Y-75937483D01*
X40708331Y-75912524D01*
X40718927Y-75904300D01*
X40771308Y-75878109D01*
X40772969Y-75877654D01*
X40773526Y-75877097D01*
X40778931Y-75876021D01*
X40784244Y-75874567D01*
X40784992Y-75874816D01*
X40786681Y-75874480D01*
X40865252Y-75874480D01*
X40866942Y-75874816D01*
G37*
G36*
X41211296Y-75895700D02*
G01*
X41213913Y-75908855D01*
X41213913Y-76208903D01*
X41226091Y-76221080D01*
X41266224Y-76241147D01*
X41328566Y-76241147D01*
X41363441Y-76223710D01*
X41380877Y-76188836D01*
X41380877Y-75908855D01*
X41383494Y-75895700D01*
X41402097Y-75877097D01*
X41428407Y-75877097D01*
X41447010Y-75895700D01*
X41449627Y-75908855D01*
X41449627Y-76196951D01*
X41449292Y-76198639D01*
X41449540Y-76199387D01*
X41448086Y-76204698D01*
X41447010Y-76210106D01*
X41446453Y-76210663D01*
X41445998Y-76212324D01*
X41419808Y-76264705D01*
X41415612Y-76270111D01*
X41415031Y-76271854D01*
X41413091Y-76273360D01*
X41411584Y-76275301D01*
X41409842Y-76275881D01*
X41404435Y-76280078D01*
X41352053Y-76306268D01*
X41350394Y-76306722D01*
X41349836Y-76307280D01*
X41344436Y-76308354D01*
X41339117Y-76309811D01*
X41338369Y-76309561D01*
X41336681Y-76309897D01*
X41258109Y-76309897D01*
X41256421Y-76309561D01*
X41255673Y-76309810D01*
X41250362Y-76308355D01*
X41244954Y-76307280D01*
X41244397Y-76306722D01*
X41242736Y-76306268D01*
X41210049Y-76289924D01*
X41192693Y-76307280D01*
X41166383Y-76307280D01*
X41147780Y-76288677D01*
X41145163Y-76275522D01*
X41145163Y-75908855D01*
X41147780Y-75895700D01*
X41166383Y-75877097D01*
X41192693Y-75877097D01*
X41211296Y-75895700D01*
G37*
G36*
X41973437Y-76170760D02*
G01*
X41973101Y-76172449D01*
X41973350Y-76173197D01*
X41971896Y-76178510D01*
X41970820Y-76183915D01*
X41970263Y-76184472D01*
X41969808Y-76186133D01*
X41943617Y-76238514D01*
X41940239Y-76242867D01*
X41937178Y-76247447D01*
X41910988Y-76273638D01*
X41906411Y-76276697D01*
X41902054Y-76280078D01*
X41849672Y-76306268D01*
X41848013Y-76306722D01*
X41847455Y-76307280D01*
X41842055Y-76308354D01*
X41836736Y-76309811D01*
X41835988Y-76309561D01*
X41834300Y-76309897D01*
X41755728Y-76309897D01*
X41754040Y-76309561D01*
X41753292Y-76309810D01*
X41747981Y-76308355D01*
X41742573Y-76307280D01*
X41742016Y-76306722D01*
X41740355Y-76306268D01*
X41687974Y-76280078D01*
X41683618Y-76276697D01*
X41679040Y-76273638D01*
X41652850Y-76247447D01*
X41649790Y-76242867D01*
X41646411Y-76238514D01*
X41620220Y-76186133D01*
X41619766Y-76184472D01*
X41619208Y-76183915D01*
X41618133Y-76178510D01*
X41616678Y-76173197D01*
X41616928Y-76172449D01*
X41616591Y-76170760D01*
X41616591Y-76021732D01*
X41685341Y-76021732D01*
X41685341Y-76162644D01*
X41705410Y-76202780D01*
X41723710Y-76221080D01*
X41763843Y-76241147D01*
X41826185Y-76241147D01*
X41866320Y-76221080D01*
X41884619Y-76202780D01*
X41904687Y-76162644D01*
X41904687Y-76021732D01*
X41884621Y-75981599D01*
X41866318Y-75963296D01*
X41826185Y-75943230D01*
X41763843Y-75943230D01*
X41723711Y-75963296D01*
X41705408Y-75981599D01*
X41685341Y-76021732D01*
X41616591Y-76021732D01*
X41616591Y-76013617D01*
X41616928Y-76011927D01*
X41616678Y-76011180D01*
X41618133Y-76005866D01*
X41619208Y-76000462D01*
X41619766Y-75999904D01*
X41620220Y-75998244D01*
X41646411Y-75945863D01*
X41649790Y-75941509D01*
X41652850Y-75936929D01*
X41679040Y-75910739D01*
X41683621Y-75907678D01*
X41687974Y-75904300D01*
X41740355Y-75878109D01*
X41742016Y-75877654D01*
X41742573Y-75877097D01*
X41747978Y-75876021D01*
X41753291Y-75874567D01*
X41754039Y-75874816D01*
X41755728Y-75874480D01*
X41834300Y-75874480D01*
X41835990Y-75874816D01*
X41836737Y-75874567D01*
X41842051Y-75876021D01*
X41847455Y-75877097D01*
X41848013Y-75877654D01*
X41849673Y-75878109D01*
X41902054Y-75904300D01*
X41906408Y-75907678D01*
X41910988Y-75910739D01*
X41937178Y-75936929D01*
X41940239Y-75941509D01*
X41943617Y-75945863D01*
X41969808Y-75998244D01*
X41970263Y-75999904D01*
X41970820Y-76000462D01*
X41971896Y-76005866D01*
X41973350Y-76011180D01*
X41973101Y-76011927D01*
X41973437Y-76013617D01*
X41973437Y-76021732D01*
X41973437Y-76170760D01*
G37*
G36*
X42968675Y-76196951D02*
G01*
X42968339Y-76198640D01*
X42968588Y-76199388D01*
X42967134Y-76204701D01*
X42966058Y-76210106D01*
X42965501Y-76210663D01*
X42965046Y-76212324D01*
X42938855Y-76264705D01*
X42934659Y-76270111D01*
X42934078Y-76271854D01*
X42932138Y-76273360D01*
X42930631Y-76275301D01*
X42928889Y-76275881D01*
X42923482Y-76280078D01*
X42871100Y-76306268D01*
X42869441Y-76306722D01*
X42868883Y-76307280D01*
X42863483Y-76308354D01*
X42858164Y-76309811D01*
X42857416Y-76309561D01*
X42855728Y-76309897D01*
X42724776Y-76309897D01*
X42723088Y-76309561D01*
X42722340Y-76309810D01*
X42717029Y-76308355D01*
X42711621Y-76307280D01*
X42711064Y-76306722D01*
X42709403Y-76306268D01*
X42694176Y-76298654D01*
X42685550Y-76307280D01*
X42659240Y-76307280D01*
X42640637Y-76288677D01*
X42638020Y-76275522D01*
X42638020Y-76095427D01*
X42706770Y-76095427D01*
X42706770Y-76228087D01*
X42732891Y-76241147D01*
X42847613Y-76241147D01*
X42882488Y-76223710D01*
X42899925Y-76188835D01*
X42899925Y-76152685D01*
X42882488Y-76117810D01*
X42847613Y-76100373D01*
X42724776Y-76100373D01*
X42723088Y-76100037D01*
X42722340Y-76100286D01*
X42717029Y-76098831D01*
X42711621Y-76097756D01*
X42711064Y-76097198D01*
X42709403Y-76096744D01*
X42706770Y-76095427D01*
X42638020Y-76095427D01*
X42638020Y-75987427D01*
X42638356Y-75985739D01*
X42638106Y-75984991D01*
X42639563Y-75979672D01*
X42640637Y-75974272D01*
X42641195Y-75973714D01*
X42641649Y-75972055D01*
X42667839Y-75919673D01*
X42672036Y-75914266D01*
X42672616Y-75912524D01*
X42674557Y-75911017D01*
X42676063Y-75909077D01*
X42677806Y-75908496D01*
X42683212Y-75904300D01*
X42735593Y-75878109D01*
X42737254Y-75877654D01*
X42737811Y-75877097D01*
X42743216Y-75876021D01*
X42748529Y-75874567D01*
X42749277Y-75874816D01*
X42750966Y-75874480D01*
X42855728Y-75874480D01*
X42857418Y-75874816D01*
X42858165Y-75874567D01*
X42863479Y-75876021D01*
X42868883Y-75877097D01*
X42869441Y-75877654D01*
X42871101Y-75878109D01*
X42923482Y-75904300D01*
X42934078Y-75912524D01*
X42942397Y-75937483D01*
X42930631Y-75961015D01*
X42905672Y-75969334D01*
X42892736Y-75965792D01*
X42847613Y-75943230D01*
X42759081Y-75943230D01*
X42724207Y-75960667D01*
X42706770Y-75995541D01*
X42706770Y-76018563D01*
X42732891Y-76031623D01*
X42855728Y-76031623D01*
X42857418Y-76031959D01*
X42858165Y-76031710D01*
X42863479Y-76033164D01*
X42868883Y-76034240D01*
X42869441Y-76034797D01*
X42871101Y-76035252D01*
X42923482Y-76061443D01*
X42928889Y-76065639D01*
X42930631Y-76066220D01*
X42932138Y-76068160D01*
X42934078Y-76069667D01*
X42934659Y-76071409D01*
X42938855Y-76076816D01*
X42965046Y-76129197D01*
X42965501Y-76130857D01*
X42966058Y-76131415D01*
X42967134Y-76136819D01*
X42968588Y-76142133D01*
X42968339Y-76142880D01*
X42968675Y-76144570D01*
X42968675Y-76152685D01*
X42968675Y-76196951D01*
G37*
G36*
X43728199Y-76170760D02*
G01*
X43727863Y-76172449D01*
X43728112Y-76173197D01*
X43726658Y-76178510D01*
X43725582Y-76183915D01*
X43725025Y-76184472D01*
X43724570Y-76186133D01*
X43698379Y-76238514D01*
X43695001Y-76242867D01*
X43691940Y-76247447D01*
X43665750Y-76273638D01*
X43661173Y-76276697D01*
X43656816Y-76280078D01*
X43604434Y-76306268D01*
X43602775Y-76306722D01*
X43602217Y-76307280D01*
X43596817Y-76308354D01*
X43591498Y-76309811D01*
X43590750Y-76309561D01*
X43589062Y-76309897D01*
X43484300Y-76309897D01*
X43482612Y-76309561D01*
X43481864Y-76309810D01*
X43476553Y-76308355D01*
X43471145Y-76307280D01*
X43470588Y-76306722D01*
X43468927Y-76306268D01*
X43453700Y-76298654D01*
X43445074Y-76307280D01*
X43418764Y-76307280D01*
X43400161Y-76288677D01*
X43397544Y-76275522D01*
X43397544Y-75956290D01*
X43466294Y-75956290D01*
X43466294Y-76228087D01*
X43492415Y-76241147D01*
X43580947Y-76241147D01*
X43621082Y-76221080D01*
X43639381Y-76202780D01*
X43659449Y-76162644D01*
X43659449Y-76021732D01*
X43639383Y-75981599D01*
X43621080Y-75963296D01*
X43580947Y-75943230D01*
X43492415Y-75943230D01*
X43466294Y-75956290D01*
X43397544Y-75956290D01*
X43397544Y-75725522D01*
X43400161Y-75712367D01*
X43418764Y-75693764D01*
X43445074Y-75693764D01*
X43463677Y-75712367D01*
X43466294Y-75725522D01*
X43466294Y-75879425D01*
X43468927Y-75878109D01*
X43470588Y-75877654D01*
X43471145Y-75877097D01*
X43476550Y-75876021D01*
X43481863Y-75874567D01*
X43482611Y-75874816D01*
X43484300Y-75874480D01*
X43589062Y-75874480D01*
X43590752Y-75874816D01*
X43591499Y-75874567D01*
X43596813Y-75876021D01*
X43602217Y-75877097D01*
X43602775Y-75877654D01*
X43604435Y-75878109D01*
X43656816Y-75904300D01*
X43661170Y-75907678D01*
X43665750Y-75910739D01*
X43691940Y-75936929D01*
X43695001Y-75941509D01*
X43698379Y-75945863D01*
X43724570Y-75998244D01*
X43725025Y-75999904D01*
X43725582Y-76000462D01*
X43726658Y-76005866D01*
X43728112Y-76011180D01*
X43727863Y-76011927D01*
X43728199Y-76013617D01*
X43728199Y-76021732D01*
X43728199Y-76170760D01*
G37*
G36*
X44225818Y-76196951D02*
G01*
X44225482Y-76198640D01*
X44225731Y-76199388D01*
X44224277Y-76204701D01*
X44223201Y-76210106D01*
X44222644Y-76210663D01*
X44222189Y-76212324D01*
X44195998Y-76264705D01*
X44191802Y-76270111D01*
X44191221Y-76271854D01*
X44189281Y-76273360D01*
X44187774Y-76275301D01*
X44186032Y-76275881D01*
X44180625Y-76280078D01*
X44128243Y-76306268D01*
X44126584Y-76306722D01*
X44126026Y-76307280D01*
X44120626Y-76308354D01*
X44115307Y-76309811D01*
X44114559Y-76309561D01*
X44112871Y-76309897D01*
X43981919Y-76309897D01*
X43980231Y-76309561D01*
X43979483Y-76309810D01*
X43974172Y-76308355D01*
X43968764Y-76307280D01*
X43968207Y-76306722D01*
X43966546Y-76306268D01*
X43951319Y-76298654D01*
X43942693Y-76307280D01*
X43916383Y-76307280D01*
X43897780Y-76288677D01*
X43895163Y-76275522D01*
X43895163Y-76095427D01*
X43963913Y-76095427D01*
X43963913Y-76228087D01*
X43990034Y-76241147D01*
X44104756Y-76241147D01*
X44139631Y-76223710D01*
X44157068Y-76188835D01*
X44157068Y-76152685D01*
X44139631Y-76117810D01*
X44104756Y-76100373D01*
X43981919Y-76100373D01*
X43980231Y-76100037D01*
X43979483Y-76100286D01*
X43974172Y-76098831D01*
X43968764Y-76097756D01*
X43968207Y-76097198D01*
X43966546Y-76096744D01*
X43963913Y-76095427D01*
X43895163Y-76095427D01*
X43895163Y-75987427D01*
X43895499Y-75985739D01*
X43895249Y-75984991D01*
X43896706Y-75979672D01*
X43897780Y-75974272D01*
X43898338Y-75973714D01*
X43898792Y-75972055D01*
X43924982Y-75919673D01*
X43929179Y-75914266D01*
X43929759Y-75912524D01*
X43931700Y-75911017D01*
X43933206Y-75909077D01*
X43934949Y-75908496D01*
X43940355Y-75904300D01*
X43992736Y-75878109D01*
X43994397Y-75877654D01*
X43994954Y-75877097D01*
X44000359Y-75876021D01*
X44005672Y-75874567D01*
X44006420Y-75874816D01*
X44008109Y-75874480D01*
X44112871Y-75874480D01*
X44114561Y-75874816D01*
X44115308Y-75874567D01*
X44120622Y-75876021D01*
X44126026Y-75877097D01*
X44126584Y-75877654D01*
X44128244Y-75878109D01*
X44180625Y-75904300D01*
X44191221Y-75912524D01*
X44199540Y-75937483D01*
X44187774Y-75961015D01*
X44162815Y-75969334D01*
X44149879Y-75965792D01*
X44104756Y-75943230D01*
X44016224Y-75943230D01*
X43981350Y-75960667D01*
X43963913Y-75995541D01*
X43963913Y-76018563D01*
X43990034Y-76031623D01*
X44112871Y-76031623D01*
X44114561Y-76031959D01*
X44115308Y-76031710D01*
X44120622Y-76033164D01*
X44126026Y-76034240D01*
X44126584Y-76034797D01*
X44128244Y-76035252D01*
X44180625Y-76061443D01*
X44186032Y-76065639D01*
X44187774Y-76066220D01*
X44189281Y-76068160D01*
X44191221Y-76069667D01*
X44191802Y-76071409D01*
X44195998Y-76076816D01*
X44222189Y-76129197D01*
X44222644Y-76130857D01*
X44223201Y-76131415D01*
X44224277Y-76136819D01*
X44225731Y-76142133D01*
X44225482Y-76142880D01*
X44225818Y-76144570D01*
X44225818Y-76152685D01*
X44225818Y-76196951D01*
G37*
G36*
X45509151Y-76196951D02*
G01*
X45508815Y-76198640D01*
X45509064Y-76199388D01*
X45507610Y-76204701D01*
X45506534Y-76210106D01*
X45505977Y-76210663D01*
X45505522Y-76212324D01*
X45479331Y-76264705D01*
X45475135Y-76270111D01*
X45474554Y-76271854D01*
X45472614Y-76273360D01*
X45471107Y-76275301D01*
X45469365Y-76275881D01*
X45463958Y-76280078D01*
X45411576Y-76306268D01*
X45409917Y-76306722D01*
X45409359Y-76307280D01*
X45403959Y-76308354D01*
X45398640Y-76309811D01*
X45397892Y-76309561D01*
X45396204Y-76309897D01*
X45265252Y-76309897D01*
X45263564Y-76309561D01*
X45262816Y-76309810D01*
X45257505Y-76308355D01*
X45252097Y-76307280D01*
X45251540Y-76306722D01*
X45249879Y-76306268D01*
X45234652Y-76298654D01*
X45226026Y-76307280D01*
X45199716Y-76307280D01*
X45181113Y-76288677D01*
X45178496Y-76275522D01*
X45178496Y-76095427D01*
X45247246Y-76095427D01*
X45247246Y-76228087D01*
X45273367Y-76241147D01*
X45388089Y-76241147D01*
X45422964Y-76223710D01*
X45440401Y-76188835D01*
X45440401Y-76152685D01*
X45422964Y-76117810D01*
X45388089Y-76100373D01*
X45265252Y-76100373D01*
X45263564Y-76100037D01*
X45262816Y-76100286D01*
X45257505Y-76098831D01*
X45252097Y-76097756D01*
X45251540Y-76097198D01*
X45249879Y-76096744D01*
X45247246Y-76095427D01*
X45178496Y-76095427D01*
X45178496Y-75987427D01*
X45178832Y-75985739D01*
X45178582Y-75984991D01*
X45180039Y-75979672D01*
X45181113Y-75974272D01*
X45181671Y-75973714D01*
X45182125Y-75972055D01*
X45208315Y-75919673D01*
X45212512Y-75914266D01*
X45213092Y-75912524D01*
X45215033Y-75911017D01*
X45216539Y-75909077D01*
X45218282Y-75908496D01*
X45223688Y-75904300D01*
X45276069Y-75878109D01*
X45277730Y-75877654D01*
X45278287Y-75877097D01*
X45283692Y-75876021D01*
X45289005Y-75874567D01*
X45289753Y-75874816D01*
X45291442Y-75874480D01*
X45396204Y-75874480D01*
X45397894Y-75874816D01*
X45398641Y-75874567D01*
X45403955Y-75876021D01*
X45409359Y-75877097D01*
X45409917Y-75877654D01*
X45411577Y-75878109D01*
X45463958Y-75904300D01*
X45474554Y-75912524D01*
X45482873Y-75937483D01*
X45471107Y-75961015D01*
X45446148Y-75969334D01*
X45433212Y-75965792D01*
X45388089Y-75943230D01*
X45299557Y-75943230D01*
X45264683Y-75960667D01*
X45247246Y-75995541D01*
X45247246Y-76018563D01*
X45273367Y-76031623D01*
X45396204Y-76031623D01*
X45397894Y-76031959D01*
X45398641Y-76031710D01*
X45403955Y-76033164D01*
X45409359Y-76034240D01*
X45409917Y-76034797D01*
X45411577Y-76035252D01*
X45463958Y-76061443D01*
X45469365Y-76065639D01*
X45471107Y-76066220D01*
X45472614Y-76068160D01*
X45474554Y-76069667D01*
X45475135Y-76071409D01*
X45479331Y-76076816D01*
X45505522Y-76129197D01*
X45505977Y-76130857D01*
X45506534Y-76131415D01*
X45507610Y-76136819D01*
X45509064Y-76142133D01*
X45508815Y-76142880D01*
X45509151Y-76144570D01*
X45509151Y-76152685D01*
X45509151Y-76196951D01*
G37*
G36*
X47257417Y-75874816D02*
G01*
X47258164Y-75874567D01*
X47263478Y-75876021D01*
X47268882Y-75877097D01*
X47269440Y-75877654D01*
X47271100Y-75878109D01*
X47323481Y-75904300D01*
X47328888Y-75908496D01*
X47330630Y-75909077D01*
X47332137Y-75911017D01*
X47334077Y-75912524D01*
X47334658Y-75914266D01*
X47338854Y-75919673D01*
X47365045Y-75972054D01*
X47365500Y-75973714D01*
X47366057Y-75974272D01*
X47367133Y-75979676D01*
X47368587Y-75984990D01*
X47368338Y-75985737D01*
X47368674Y-75987427D01*
X47368674Y-76013617D01*
X47368338Y-76015306D01*
X47368587Y-76016054D01*
X47367133Y-76021367D01*
X47366057Y-76026772D01*
X47365500Y-76027329D01*
X47365045Y-76028990D01*
X47338854Y-76081371D01*
X47334658Y-76086777D01*
X47334077Y-76088520D01*
X47332137Y-76090026D01*
X47330630Y-76091967D01*
X47328888Y-76092547D01*
X47323481Y-76096744D01*
X47271100Y-76122935D01*
X47269440Y-76123389D01*
X47268882Y-76123947D01*
X47263478Y-76125022D01*
X47258164Y-76126477D01*
X47257417Y-76126227D01*
X47255727Y-76126564D01*
X47185271Y-76126564D01*
X47150397Y-76144000D01*
X47132959Y-76178875D01*
X47132959Y-76188835D01*
X47150397Y-76223710D01*
X47185271Y-76241147D01*
X47273803Y-76241147D01*
X47318926Y-76218586D01*
X47331863Y-76215044D01*
X47356821Y-76223363D01*
X47368587Y-76246896D01*
X47360268Y-76271854D01*
X47349672Y-76280078D01*
X47297290Y-76306268D01*
X47295631Y-76306722D01*
X47295073Y-76307280D01*
X47289673Y-76308354D01*
X47284354Y-76309811D01*
X47283606Y-76309561D01*
X47281918Y-76309897D01*
X47177156Y-76309897D01*
X47175468Y-76309561D01*
X47174720Y-76309810D01*
X47169409Y-76308355D01*
X47164001Y-76307280D01*
X47163444Y-76306722D01*
X47161783Y-76306268D01*
X47109402Y-76280078D01*
X47103996Y-76275881D01*
X47102253Y-76275301D01*
X47100747Y-76273360D01*
X47098806Y-76271854D01*
X47098226Y-76270111D01*
X47094029Y-76264705D01*
X47067838Y-76212324D01*
X47067384Y-76210663D01*
X47066826Y-76210106D01*
X47065751Y-76204701D01*
X47064296Y-76199388D01*
X47064546Y-76198640D01*
X47064209Y-76196951D01*
X47064209Y-76170760D01*
X47064546Y-76169070D01*
X47064296Y-76168323D01*
X47065751Y-76163009D01*
X47066826Y-76157605D01*
X47067384Y-76157047D01*
X47067838Y-76155387D01*
X47094029Y-76103006D01*
X47098226Y-76097599D01*
X47098806Y-76095857D01*
X47100747Y-76094350D01*
X47102253Y-76092410D01*
X47103996Y-76091829D01*
X47109402Y-76087633D01*
X47161783Y-76061443D01*
X47163444Y-76060988D01*
X47164001Y-76060431D01*
X47169409Y-76059355D01*
X47174720Y-76057901D01*
X47175468Y-76058149D01*
X47177156Y-76057814D01*
X47247612Y-76057814D01*
X47282487Y-76040376D01*
X47299924Y-76005501D01*
X47299924Y-75995542D01*
X47282487Y-75960667D01*
X47247612Y-75943230D01*
X47185271Y-75943230D01*
X47140148Y-75965792D01*
X47127212Y-75969334D01*
X47102253Y-75961015D01*
X47090487Y-75937483D01*
X47098806Y-75912524D01*
X47109402Y-75904300D01*
X47161783Y-75878109D01*
X47163444Y-75877654D01*
X47164001Y-75877097D01*
X47169406Y-75876021D01*
X47174719Y-75874567D01*
X47175467Y-75874816D01*
X47177156Y-75874480D01*
X47255727Y-75874480D01*
X47257417Y-75874816D01*
G37*
G36*
X48151771Y-75712367D02*
G01*
X48154388Y-75725522D01*
X48154388Y-75874480D01*
X48198585Y-75874480D01*
X48211740Y-75877097D01*
X48230343Y-75895700D01*
X48230343Y-75922010D01*
X48211740Y-75940613D01*
X48198585Y-75943230D01*
X48154388Y-75943230D01*
X48154388Y-76196951D01*
X48154053Y-76198639D01*
X48154301Y-76199387D01*
X48152847Y-76204698D01*
X48151771Y-76210106D01*
X48151214Y-76210663D01*
X48150759Y-76212324D01*
X48124569Y-76264705D01*
X48120373Y-76270111D01*
X48119792Y-76271854D01*
X48117852Y-76273360D01*
X48116345Y-76275301D01*
X48114603Y-76275881D01*
X48109196Y-76280078D01*
X48056814Y-76306268D01*
X48055155Y-76306722D01*
X48054597Y-76307280D01*
X48049197Y-76308354D01*
X48043878Y-76309811D01*
X48043130Y-76309561D01*
X48041442Y-76309897D01*
X47989061Y-76309897D01*
X47975906Y-76307280D01*
X47957303Y-76288677D01*
X47957303Y-76262367D01*
X47975906Y-76243764D01*
X47989061Y-76241147D01*
X48033327Y-76241147D01*
X48068202Y-76223710D01*
X48085638Y-76188836D01*
X48085638Y-75943230D01*
X47989061Y-75943230D01*
X47975906Y-75940613D01*
X47957303Y-75922010D01*
X47957303Y-75895700D01*
X47975906Y-75877097D01*
X47989061Y-75874480D01*
X48085638Y-75874480D01*
X48085638Y-75725522D01*
X48088255Y-75712367D01*
X48106858Y-75693764D01*
X48133168Y-75693764D01*
X48151771Y-75712367D01*
G37*
G36*
X48466057Y-75712367D02*
G01*
X48468674Y-75725522D01*
X48468674Y-75874480D01*
X48512871Y-75874480D01*
X48526026Y-75877097D01*
X48544629Y-75895700D01*
X48544629Y-75922010D01*
X48526026Y-75940613D01*
X48512871Y-75943230D01*
X48468674Y-75943230D01*
X48468674Y-76196951D01*
X48468339Y-76198639D01*
X48468587Y-76199387D01*
X48467133Y-76204698D01*
X48466057Y-76210106D01*
X48465500Y-76210663D01*
X48465045Y-76212324D01*
X48438855Y-76264705D01*
X48434659Y-76270111D01*
X48434078Y-76271854D01*
X48432138Y-76273360D01*
X48430631Y-76275301D01*
X48428889Y-76275881D01*
X48423482Y-76280078D01*
X48371100Y-76306268D01*
X48369441Y-76306722D01*
X48368883Y-76307280D01*
X48363483Y-76308354D01*
X48358164Y-76309811D01*
X48357416Y-76309561D01*
X48355728Y-76309897D01*
X48303347Y-76309897D01*
X48290192Y-76307280D01*
X48271589Y-76288677D01*
X48271589Y-76262367D01*
X48290192Y-76243764D01*
X48303347Y-76241147D01*
X48347613Y-76241147D01*
X48382488Y-76223710D01*
X48399924Y-76188836D01*
X48399924Y-75943230D01*
X48303347Y-75943230D01*
X48290192Y-75940613D01*
X48271589Y-75922010D01*
X48271589Y-75895700D01*
X48290192Y-75877097D01*
X48303347Y-75874480D01*
X48399924Y-75874480D01*
X48399924Y-75725522D01*
X48402541Y-75712367D01*
X48421144Y-75693764D01*
X48447454Y-75693764D01*
X48466057Y-75712367D01*
G37*
G36*
X44642248Y-75712367D02*
G01*
X44644865Y-75725522D01*
X44644865Y-76275522D01*
X44642248Y-76288677D01*
X44623645Y-76307280D01*
X44597335Y-76307280D01*
X44578732Y-76288677D01*
X44576115Y-76275522D01*
X44576115Y-76132618D01*
X44561828Y-76118331D01*
X44428466Y-76296147D01*
X44418479Y-76305101D01*
X44392435Y-76308821D01*
X44371387Y-76293035D01*
X44367667Y-76266991D01*
X44373466Y-76254897D01*
X44512721Y-76069223D01*
X44376659Y-75933162D01*
X44369207Y-75922009D01*
X44369207Y-75895700D01*
X44387811Y-75877096D01*
X44414120Y-75877096D01*
X44425273Y-75884548D01*
X44576115Y-76035390D01*
X44576115Y-75725522D01*
X44578732Y-75712367D01*
X44597335Y-75693764D01*
X44623645Y-75693764D01*
X44642248Y-75712367D01*
G37*
G36*
X40025273Y-76198834D02*
G01*
X40051464Y-76225025D01*
X40058913Y-76236174D01*
X40058916Y-76236178D01*
X40058915Y-76262487D01*
X40051463Y-76273639D01*
X40025272Y-76299829D01*
X40014120Y-76307281D01*
X39987811Y-76307280D01*
X39987809Y-76307277D01*
X39976659Y-76299829D01*
X39950469Y-76273639D01*
X39943021Y-76262489D01*
X39943018Y-76262487D01*
X39943017Y-76236178D01*
X39950469Y-76225026D01*
X39976659Y-76198835D01*
X39987808Y-76191385D01*
X39987811Y-76191382D01*
X40014120Y-76191382D01*
X40025273Y-76198834D01*
G37*
G36*
X46887177Y-76198834D02*
G01*
X46913368Y-76225025D01*
X46920817Y-76236174D01*
X46920820Y-76236178D01*
X46920819Y-76262487D01*
X46913367Y-76273639D01*
X46887176Y-76299829D01*
X46876024Y-76307281D01*
X46849715Y-76307280D01*
X46849713Y-76307277D01*
X46838563Y-76299829D01*
X46812373Y-76273639D01*
X46804925Y-76262489D01*
X46804922Y-76262487D01*
X46804921Y-76236178D01*
X46812373Y-76225026D01*
X46838563Y-76198835D01*
X46849712Y-76191385D01*
X46849715Y-76191382D01*
X46876024Y-76191382D01*
X46887177Y-76198834D01*
G37*
G36*
X42442248Y-75712367D02*
G01*
X42444865Y-75725522D01*
X42444865Y-76275522D01*
X42442248Y-76288677D01*
X42423645Y-76307280D01*
X42397335Y-76307280D01*
X42378732Y-76288677D01*
X42376115Y-76275522D01*
X42376115Y-75975475D01*
X42363937Y-75963296D01*
X42323804Y-75943230D01*
X42261462Y-75943230D01*
X42226588Y-75960667D01*
X42209151Y-75995541D01*
X42209151Y-76275522D01*
X42206534Y-76288677D01*
X42187931Y-76307280D01*
X42161621Y-76307280D01*
X42143018Y-76288677D01*
X42140401Y-76275522D01*
X42140401Y-75987427D01*
X42140737Y-75985739D01*
X42140487Y-75984991D01*
X42141944Y-75979672D01*
X42143018Y-75974272D01*
X42143576Y-75973714D01*
X42144030Y-75972055D01*
X42170220Y-75919673D01*
X42174417Y-75914266D01*
X42174997Y-75912524D01*
X42176938Y-75911017D01*
X42178444Y-75909077D01*
X42180187Y-75908496D01*
X42185593Y-75904300D01*
X42237974Y-75878109D01*
X42239635Y-75877654D01*
X42240192Y-75877097D01*
X42245597Y-75876021D01*
X42250910Y-75874567D01*
X42251658Y-75874816D01*
X42253347Y-75874480D01*
X42331919Y-75874480D01*
X42333609Y-75874816D01*
X42334356Y-75874567D01*
X42339670Y-75876021D01*
X42345074Y-75877097D01*
X42345632Y-75877654D01*
X42347292Y-75878109D01*
X42376115Y-75892520D01*
X42376115Y-75725522D01*
X42378732Y-75712367D01*
X42397335Y-75693764D01*
X42423645Y-75693764D01*
X42442248Y-75712367D01*
G37*
G36*
X43201772Y-75895700D02*
G01*
X43204389Y-75908855D01*
X43204389Y-76275522D01*
X43201772Y-76288677D01*
X43183169Y-76307280D01*
X43156859Y-76307280D01*
X43138256Y-76288677D01*
X43135639Y-76275522D01*
X43135639Y-75908855D01*
X43138256Y-75895700D01*
X43156859Y-75877097D01*
X43183169Y-75877097D01*
X43201772Y-75895700D01*
G37*
G36*
X44847894Y-75874816D02*
G01*
X44848641Y-75874567D01*
X44853955Y-75876021D01*
X44859359Y-75877097D01*
X44859917Y-75877654D01*
X44861577Y-75878109D01*
X44913958Y-75904300D01*
X44917024Y-75906679D01*
X44919208Y-75895700D01*
X44937811Y-75877097D01*
X44964121Y-75877097D01*
X44982724Y-75895700D01*
X44985341Y-75908855D01*
X44985341Y-76275522D01*
X44982724Y-76288677D01*
X44964121Y-76307280D01*
X44937811Y-76307280D01*
X44919208Y-76288677D01*
X44916591Y-76275522D01*
X44916591Y-76021731D01*
X44896525Y-75981598D01*
X44878225Y-75963298D01*
X44838089Y-75943230D01*
X44793823Y-75943230D01*
X44780668Y-75940613D01*
X44762065Y-75922010D01*
X44762065Y-75895700D01*
X44780668Y-75877097D01*
X44793823Y-75874480D01*
X44846204Y-75874480D01*
X44847894Y-75874816D01*
G37*
G36*
X48963676Y-75712367D02*
G01*
X48966293Y-75725522D01*
X48966293Y-76275522D01*
X48963676Y-76288677D01*
X48945073Y-76307280D01*
X48918763Y-76307280D01*
X48900160Y-76288677D01*
X48897543Y-76275522D01*
X48897543Y-75975475D01*
X48885365Y-75963296D01*
X48845232Y-75943230D01*
X48782890Y-75943230D01*
X48748016Y-75960667D01*
X48730579Y-75995541D01*
X48730579Y-76275522D01*
X48727962Y-76288677D01*
X48709359Y-76307280D01*
X48683049Y-76307280D01*
X48664446Y-76288677D01*
X48661829Y-76275522D01*
X48661829Y-75987427D01*
X48662165Y-75985739D01*
X48661915Y-75984991D01*
X48663372Y-75979672D01*
X48664446Y-75974272D01*
X48665004Y-75973714D01*
X48665458Y-75972055D01*
X48691648Y-75919673D01*
X48695845Y-75914266D01*
X48696425Y-75912524D01*
X48698366Y-75911017D01*
X48699872Y-75909077D01*
X48701615Y-75908496D01*
X48707021Y-75904300D01*
X48759402Y-75878109D01*
X48761063Y-75877654D01*
X48761620Y-75877097D01*
X48767025Y-75876021D01*
X48772338Y-75874567D01*
X48773086Y-75874816D01*
X48774775Y-75874480D01*
X48853347Y-75874480D01*
X48855037Y-75874816D01*
X48855784Y-75874567D01*
X48861098Y-75876021D01*
X48866502Y-75877097D01*
X48867060Y-75877654D01*
X48868720Y-75878109D01*
X48897543Y-75892520D01*
X48897543Y-75725522D01*
X48900160Y-75712367D01*
X48918763Y-75693764D01*
X48945073Y-75693764D01*
X48963676Y-75712367D01*
G37*
G36*
X46887176Y-75910739D02*
G01*
X46913367Y-75936929D01*
X46920819Y-75948081D01*
X46920820Y-75974390D01*
X46920817Y-75974393D01*
X46913368Y-75985543D01*
X46887177Y-76011734D01*
X46876024Y-76019186D01*
X46849715Y-76019186D01*
X46849712Y-76019182D01*
X46838563Y-76011733D01*
X46812373Y-75985542D01*
X46804921Y-75974390D01*
X46804922Y-75948081D01*
X46804925Y-75948078D01*
X46812373Y-75936929D01*
X46838563Y-75910739D01*
X46849713Y-75903290D01*
X46849715Y-75903288D01*
X46876024Y-75903287D01*
X46887176Y-75910739D01*
G37*
G36*
X43194320Y-75701215D02*
G01*
X43220511Y-75727405D01*
X43227963Y-75738557D01*
X43227964Y-75764866D01*
X43227961Y-75764869D01*
X43220512Y-75776019D01*
X43194321Y-75802210D01*
X43183168Y-75809662D01*
X43156859Y-75809662D01*
X43156856Y-75809658D01*
X43145707Y-75802209D01*
X43119517Y-75776018D01*
X43112065Y-75764866D01*
X43112066Y-75738557D01*
X43112069Y-75738554D01*
X43119517Y-75727405D01*
X43145707Y-75701215D01*
X43156857Y-75693766D01*
X43156859Y-75693764D01*
X43183168Y-75693763D01*
X43194320Y-75701215D01*
G37*
G36*
X41781918Y-72265611D02*
G01*
X41381918Y-72265611D01*
X41381918Y-71865611D01*
X41781918Y-71865611D01*
X41781918Y-72265611D01*
G37*
G36*
X42581918Y-72265611D02*
G01*
X42981918Y-72265611D01*
X42981918Y-72665611D01*
X43381918Y-72665611D01*
X43381918Y-72265611D01*
X43381918Y-71865611D01*
X43781918Y-71865611D01*
X43781918Y-72265611D01*
X44181918Y-72265611D01*
X44181918Y-71865611D01*
X43781918Y-71865611D01*
X43781918Y-71465611D01*
X44581918Y-71465611D01*
X44581918Y-71865611D01*
X45381918Y-71865611D01*
X45381918Y-72265611D01*
X44981918Y-72265611D01*
X44981918Y-72665611D01*
X44581918Y-72665611D01*
X44581918Y-72265611D01*
X44181918Y-72265611D01*
X44181918Y-72665611D01*
X44181918Y-73065611D01*
X43781918Y-73065611D01*
X43781918Y-72665611D01*
X43381918Y-72665611D01*
X43381918Y-73065611D01*
X42581918Y-73065611D01*
X42581918Y-73465611D01*
X42181918Y-73465611D01*
X42181918Y-73865611D01*
X42181918Y-74265611D01*
X41781918Y-74265611D01*
X41781918Y-74665611D01*
X41381918Y-74665611D01*
X41381918Y-74265611D01*
X40581918Y-74265611D01*
X40581918Y-73865611D01*
X40181918Y-73865611D01*
X40181918Y-74265611D01*
X39381918Y-74265611D01*
X39381918Y-74665611D01*
X38981918Y-74665611D01*
X38981918Y-74265611D01*
X38981918Y-73865611D01*
X38981918Y-73465611D01*
X38981918Y-72665611D01*
X39381918Y-72665611D01*
X39381918Y-72265611D01*
X39781918Y-72265611D01*
X39781918Y-72665611D01*
X39781918Y-73465611D01*
X40981918Y-73465611D01*
X40981918Y-73865611D01*
X41781918Y-73865611D01*
X41781918Y-73465611D01*
X41381918Y-73465611D01*
X41381918Y-73065611D01*
X40581918Y-73065611D01*
X40581918Y-72665611D01*
X40581918Y-71465611D01*
X40981918Y-71465611D01*
X40981918Y-72665611D01*
X42181918Y-72665611D01*
X42181918Y-72265611D01*
X42181918Y-71465611D01*
X40981918Y-71465611D01*
X40581918Y-71465611D01*
X40581918Y-71065611D01*
X40981918Y-71065611D01*
X40981918Y-70665611D01*
X41381918Y-70665611D01*
X41381918Y-71065611D01*
X41781918Y-71065611D01*
X41781918Y-70665611D01*
X42581918Y-70665611D01*
X42581918Y-71065611D01*
X42581918Y-71465611D01*
X42581918Y-72265611D01*
G37*
G36*
X40581918Y-74665611D02*
G01*
X40181918Y-74665611D01*
X40181918Y-74265611D01*
X40581918Y-74265611D01*
X40581918Y-74665611D01*
G37*
G36*
X42581918Y-74665611D02*
G01*
X42181918Y-74665611D01*
X42181918Y-74265611D01*
X42581918Y-74265611D01*
X42581918Y-74665611D01*
G37*
G36*
X44181918Y-73865611D02*
G01*
X43381918Y-73865611D01*
X43381918Y-74265611D01*
X44181918Y-74265611D01*
X44181918Y-74665611D01*
X42981918Y-74665611D01*
X42981918Y-74265611D01*
X42981918Y-73865611D01*
X42981918Y-73465611D01*
X44181918Y-73465611D01*
X44181918Y-73865611D01*
G37*
G36*
X45781918Y-74265611D02*
G01*
X45781918Y-74665611D01*
X44981918Y-74665611D01*
X44981918Y-74265611D01*
X44581918Y-74265611D01*
X44581918Y-73865611D01*
X45781918Y-73865611D01*
X45781918Y-74265611D01*
G37*
G36*
X48181918Y-73865611D02*
G01*
X46981918Y-73865611D01*
X46981918Y-72665611D01*
X48181918Y-72665611D01*
X48181918Y-73865611D01*
G37*
G36*
X48981918Y-74265611D02*
G01*
X48981918Y-74665611D01*
X46181918Y-74665611D01*
X46181918Y-74265611D01*
X46181918Y-72265611D01*
X46581918Y-72265611D01*
X46581918Y-74265611D01*
X48581918Y-74265611D01*
X48581918Y-72265611D01*
X46581918Y-72265611D01*
X46181918Y-72265611D01*
X46181918Y-71865611D01*
X48981918Y-71865611D01*
X48981918Y-72265611D01*
X48981918Y-74265611D01*
G37*
G36*
X44981918Y-73465611D02*
G01*
X44581918Y-73465611D01*
X44581918Y-73065611D01*
X44981918Y-73065611D01*
X44981918Y-73465611D01*
G37*
G36*
X45781918Y-73465611D02*
G01*
X45381918Y-73465611D01*
X45381918Y-72665611D01*
X45781918Y-72665611D01*
X45781918Y-73465611D01*
G37*
G36*
X39381918Y-72265611D02*
G01*
X38981918Y-72265611D01*
X38981918Y-71865611D01*
X39381918Y-71865611D01*
X39381918Y-72265611D01*
G37*
G36*
X39781918Y-70265611D02*
G01*
X40581918Y-70265611D01*
X40581918Y-69865611D01*
X40981918Y-69865611D01*
X40981918Y-70265611D01*
X40981918Y-70665611D01*
X40581918Y-70665611D01*
X40581918Y-71065611D01*
X40181918Y-71065611D01*
X40181918Y-71865611D01*
X39381918Y-71865611D01*
X39381918Y-71065611D01*
X39781918Y-71065611D01*
X39781918Y-70665611D01*
X39381918Y-70665611D01*
X39381918Y-71065611D01*
X38981918Y-71065611D01*
X38981918Y-70665611D01*
X38981918Y-70265611D01*
X39381918Y-70265611D01*
X39381918Y-69865611D01*
X39781918Y-69865611D01*
X39781918Y-70265611D01*
G37*
G36*
X43381918Y-71865611D02*
G01*
X42981918Y-71865611D01*
X42981918Y-71465611D01*
X43381918Y-71465611D01*
X43381918Y-71865611D01*
G37*
G36*
X45781918Y-71865611D02*
G01*
X45381918Y-71865611D01*
X45381918Y-71465611D01*
X45781918Y-71465611D01*
X45781918Y-71865611D01*
G37*
G36*
X43781918Y-71465611D02*
G01*
X43381918Y-71465611D01*
X43381918Y-71065611D01*
X43781918Y-71065611D01*
X43781918Y-71465611D01*
G37*
G36*
X44981918Y-71465611D02*
G01*
X44581918Y-71465611D01*
X44581918Y-71065611D01*
X44981918Y-71065611D01*
X44981918Y-71465611D01*
G37*
G36*
X46981918Y-71065611D02*
G01*
X47381918Y-71065611D01*
X47381918Y-71465611D01*
X46181918Y-71465611D01*
X46181918Y-71065611D01*
X46581918Y-71065611D01*
X46581918Y-70665611D01*
X46981918Y-70665611D01*
X46981918Y-71065611D01*
G37*
G36*
X48181918Y-71465611D02*
G01*
X47781918Y-71465611D01*
X47781918Y-71065611D01*
X48181918Y-71065611D01*
X48181918Y-71465611D01*
G37*
G36*
X48981918Y-70265611D02*
G01*
X48981918Y-70665611D01*
X48981918Y-71465611D01*
X48581918Y-71465611D01*
X48581918Y-70665611D01*
X47381918Y-70665611D01*
X47381918Y-70265611D01*
X48581918Y-70265611D01*
X48581918Y-69865611D01*
X48981918Y-69865611D01*
X48981918Y-70265611D01*
G37*
G36*
X43381918Y-68265611D02*
G01*
X43381918Y-68665611D01*
X42981918Y-68665611D01*
X42981918Y-69065611D01*
X42581918Y-69065611D01*
X42581918Y-69465611D01*
X42981918Y-69465611D01*
X42981918Y-69065611D01*
X43381918Y-69065611D01*
X43381918Y-69465611D01*
X43381918Y-70265611D01*
X43381918Y-70665611D01*
X43381918Y-71065611D01*
X42981918Y-71065611D01*
X42981918Y-70665611D01*
X42581918Y-70665611D01*
X42581918Y-70265611D01*
X42181918Y-70265611D01*
X42181918Y-69465611D01*
X41781918Y-69465611D01*
X41781918Y-69065611D01*
X40581918Y-69065611D01*
X40581918Y-69465611D01*
X39381918Y-69465611D01*
X39381918Y-69865611D01*
X38981918Y-69865611D01*
X38981918Y-69465611D01*
X38981918Y-69065611D01*
X38981918Y-68665611D01*
X39381918Y-68665611D01*
X39381918Y-69065611D01*
X40181918Y-69065611D01*
X40181918Y-68665611D01*
X39381918Y-68665611D01*
X39381918Y-68265611D01*
X41381918Y-68265611D01*
X41381918Y-68665611D01*
X41781918Y-68665611D01*
X41781918Y-68265611D01*
X42181918Y-68265611D01*
X42181918Y-68665611D01*
X42581918Y-68665611D01*
X42581918Y-68265611D01*
X42981918Y-68265611D01*
X42981918Y-67865611D01*
X43381918Y-67865611D01*
X43381918Y-68265611D01*
G37*
G36*
X44581918Y-70665611D02*
G01*
X44581918Y-71065611D01*
X44181918Y-71065611D01*
X44181918Y-70665611D01*
X43781918Y-70665611D01*
X43781918Y-70265611D01*
X44581918Y-70265611D01*
X44581918Y-70665611D01*
G37*
G36*
X47781918Y-68265611D02*
G01*
X47381918Y-68265611D01*
X47381918Y-68665611D01*
X47381918Y-69065611D01*
X46181918Y-69065611D01*
X46181918Y-69465611D01*
X46581918Y-69465611D01*
X46581918Y-69865611D01*
X45381918Y-69865611D01*
X45381918Y-70265611D01*
X45781918Y-70265611D01*
X45781918Y-70665611D01*
X45381918Y-70665611D01*
X45381918Y-71065611D01*
X44981918Y-71065611D01*
X44981918Y-70665611D01*
X44981918Y-70265611D01*
X44981918Y-69865611D01*
X44981918Y-69465611D01*
X44581918Y-69465611D01*
X44581918Y-69865611D01*
X43781918Y-69865611D01*
X43781918Y-69465611D01*
X43781918Y-69065611D01*
X44181918Y-69065611D01*
X44181918Y-68665611D01*
X44981918Y-68665611D01*
X44981918Y-69065611D01*
X45381918Y-69065611D01*
X45381918Y-68665611D01*
X45781918Y-68665611D01*
X45781918Y-68265611D01*
X46181918Y-68265611D01*
X46181918Y-68665611D01*
X46581918Y-68665611D01*
X46581918Y-68265611D01*
X46981918Y-68265611D01*
X46981918Y-67865611D01*
X47781918Y-67865611D01*
X47781918Y-68265611D01*
G37*
G36*
X46181918Y-71065611D02*
G01*
X45781918Y-71065611D01*
X45781918Y-70665611D01*
X46181918Y-70665611D01*
X46181918Y-71065611D01*
G37*
G36*
X46581918Y-70665611D02*
G01*
X46181918Y-70665611D01*
X46181918Y-70265611D01*
X46581918Y-70265611D01*
X46581918Y-70665611D01*
G37*
G36*
X47381918Y-70265611D02*
G01*
X46581918Y-70265611D01*
X46581918Y-69865611D01*
X47381918Y-69865611D01*
X47381918Y-70265611D01*
G37*
G36*
X41781918Y-69865611D02*
G01*
X40981918Y-69865611D01*
X40981918Y-69465611D01*
X41781918Y-69465611D01*
X41781918Y-69865611D01*
G37*
G36*
X48581918Y-69065611D02*
G01*
X48581918Y-69465611D01*
X48581918Y-69865611D01*
X48181918Y-69865611D01*
X48181918Y-69465611D01*
X47381918Y-69465611D01*
X47381918Y-69065611D01*
X48181918Y-69065611D01*
X48181918Y-68665611D01*
X48581918Y-68665611D01*
X48581918Y-69065611D01*
G37*
G36*
X44181918Y-68665611D02*
G01*
X43781918Y-68665611D01*
X43781918Y-68265611D01*
X44181918Y-68265611D01*
X44181918Y-68665611D01*
G37*
G36*
X44981918Y-67465611D02*
G01*
X44981918Y-67865611D01*
X45381918Y-67865611D01*
X45381918Y-68265611D01*
X45381918Y-68665611D01*
X44981918Y-68665611D01*
X44981918Y-68265611D01*
X44181918Y-68265611D01*
X44181918Y-67865611D01*
X44181918Y-67465611D01*
X44581918Y-67465611D01*
X44581918Y-66665611D01*
X44981918Y-66665611D01*
X44981918Y-67465611D01*
G37*
G36*
X39381918Y-68265611D02*
G01*
X38981918Y-68265611D01*
X38981918Y-67865611D01*
X39381918Y-67865611D01*
X39381918Y-68265611D01*
G37*
G36*
X41781918Y-68265611D02*
G01*
X41381918Y-68265611D01*
X41381918Y-67865611D01*
X41781918Y-67865611D01*
X41781918Y-68265611D01*
G37*
G36*
X42581918Y-68265611D02*
G01*
X42181918Y-68265611D01*
X42181918Y-67865611D01*
X42581918Y-67865611D01*
X42581918Y-68265611D01*
G37*
G36*
X46581918Y-68265611D02*
G01*
X46181918Y-68265611D01*
X46181918Y-67865611D01*
X46581918Y-67865611D01*
X46581918Y-68265611D01*
G37*
G36*
X48981918Y-68265611D02*
G01*
X48181918Y-68265611D01*
X48181918Y-67865611D01*
X48981918Y-67865611D01*
X48981918Y-68265611D01*
G37*
G36*
X43781918Y-67865611D02*
G01*
X43381918Y-67865611D01*
X43381918Y-67465611D01*
X43781918Y-67465611D01*
X43781918Y-67865611D01*
G37*
G36*
X45781918Y-67865611D02*
G01*
X45381918Y-67865611D01*
X45381918Y-67065611D01*
X45781918Y-67065611D01*
X45781918Y-67865611D01*
G37*
G36*
X40981918Y-66665611D02*
G01*
X39781918Y-66665611D01*
X39781918Y-65465611D01*
X40981918Y-65465611D01*
X40981918Y-66665611D01*
G37*
G36*
X41781918Y-67065611D02*
G01*
X41781918Y-67465611D01*
X38981918Y-67465611D01*
X38981918Y-67065611D01*
X38981918Y-65065611D01*
X39381918Y-65065611D01*
X39381918Y-67065611D01*
X41381918Y-67065611D01*
X41381918Y-65065611D01*
X39381918Y-65065611D01*
X38981918Y-65065611D01*
X38981918Y-64665611D01*
X41781918Y-64665611D01*
X41781918Y-65065611D01*
X41781918Y-67065611D01*
G37*
G36*
X42981918Y-66265611D02*
G01*
X42581918Y-66265611D01*
X42581918Y-67465611D01*
X42181918Y-67465611D01*
X42181918Y-66265611D01*
X42181918Y-65865611D01*
X42981918Y-65865611D01*
X42981918Y-66265611D01*
G37*
G36*
X43381918Y-67465611D02*
G01*
X42981918Y-67465611D01*
X42981918Y-67065611D01*
X43381918Y-67065611D01*
X43381918Y-67465611D01*
G37*
G36*
X44181918Y-67065611D02*
G01*
X44181918Y-67465611D01*
X43781918Y-67465611D01*
X43781918Y-67065611D01*
X43381918Y-67065611D01*
X43381918Y-66665611D01*
X44181918Y-66665611D01*
X44181918Y-67065611D01*
G37*
G36*
X48181918Y-66665611D02*
G01*
X46981918Y-66665611D01*
X46981918Y-65465611D01*
X48181918Y-65465611D01*
X48181918Y-66665611D01*
G37*
G36*
X48981918Y-67065611D02*
G01*
X48981918Y-67465611D01*
X46181918Y-67465611D01*
X46181918Y-67065611D01*
X46181918Y-65065611D01*
X46581918Y-65065611D01*
X46581918Y-67065611D01*
X48581918Y-67065611D01*
X48581918Y-65065611D01*
X46581918Y-65065611D01*
X46181918Y-65065611D01*
X46181918Y-64665611D01*
X48981918Y-64665611D01*
X48981918Y-65065611D01*
X48981918Y-67065611D01*
G37*
G36*
X44581918Y-66665611D02*
G01*
X44181918Y-66665611D01*
X44181918Y-66265611D01*
X44581918Y-66265611D01*
X44581918Y-66665611D01*
G37*
G36*
X45381918Y-66665611D02*
G01*
X44981918Y-66665611D01*
X44981918Y-66265611D01*
X45381918Y-66265611D01*
X45381918Y-66665611D01*
G37*
G36*
X44581918Y-65065611D02*
G01*
X43781918Y-65065611D01*
X43781918Y-65465611D01*
X44181918Y-65465611D01*
X44181918Y-65865611D01*
X44181918Y-66265611D01*
X43381918Y-66265611D01*
X43381918Y-65865611D01*
X42981918Y-65865611D01*
X42981918Y-65465611D01*
X43381918Y-65465611D01*
X43381918Y-65065611D01*
X43381918Y-64665611D01*
X44581918Y-64665611D01*
X44581918Y-65065611D01*
G37*
G36*
X45381918Y-65465611D02*
G01*
X44981918Y-65465611D01*
X44981918Y-65865611D01*
X44581918Y-65865611D01*
X44581918Y-65465611D01*
X44581918Y-65065611D01*
X45381918Y-65065611D01*
X45381918Y-65465611D01*
G37*
G36*
X42581918Y-65465611D02*
G01*
X42181918Y-65465611D01*
X42181918Y-65065611D01*
X42581918Y-65065611D01*
X42581918Y-65465611D01*
G37*
G36*
X45781918Y-65065611D02*
G01*
X45381918Y-65065611D01*
X45381918Y-64665611D01*
X45781918Y-64665611D01*
X45781918Y-65065611D01*
G37*
D11*
X29150000Y-61910000D02*
X116400000Y-61910000D01*
X116400000Y-83160000D01*
X29150000Y-83160000D01*
X29150000Y-61910000D01*
X63781748Y-89148030D02*
X63876986Y-89100411D01*
X63876986Y-89100411D02*
X64019843Y-89100411D01*
X64019843Y-89100411D02*
X64162700Y-89148030D01*
X64162700Y-89148030D02*
X64257938Y-89243268D01*
X64257938Y-89243268D02*
X64305557Y-89338506D01*
X64305557Y-89338506D02*
X64353176Y-89528982D01*
X64353176Y-89528982D02*
X64353176Y-89671839D01*
X64353176Y-89671839D02*
X64305557Y-89862315D01*
X64305557Y-89862315D02*
X64257938Y-89957553D01*
X64257938Y-89957553D02*
X64162700Y-90052792D01*
X64162700Y-90052792D02*
X64019843Y-90100411D01*
X64019843Y-90100411D02*
X63924605Y-90100411D01*
X63924605Y-90100411D02*
X63781748Y-90052792D01*
X63781748Y-90052792D02*
X63734129Y-90005172D01*
X63734129Y-90005172D02*
X63734129Y-89671839D01*
X63734129Y-89671839D02*
X63924605Y-89671839D01*
X63305557Y-90100411D02*
X63305557Y-89100411D01*
X63305557Y-89100411D02*
X62734129Y-90100411D01*
X62734129Y-90100411D02*
X62734129Y-89100411D01*
X62257938Y-90100411D02*
X62257938Y-89100411D01*
X62257938Y-89100411D02*
X62019843Y-89100411D01*
X62019843Y-89100411D02*
X61876986Y-89148030D01*
X61876986Y-89148030D02*
X61781748Y-89243268D01*
X61781748Y-89243268D02*
X61734129Y-89338506D01*
X61734129Y-89338506D02*
X61686510Y-89528982D01*
X61686510Y-89528982D02*
X61686510Y-89671839D01*
X61686510Y-89671839D02*
X61734129Y-89862315D01*
X61734129Y-89862315D02*
X61781748Y-89957553D01*
X61781748Y-89957553D02*
X61876986Y-90052792D01*
X61876986Y-90052792D02*
X62019843Y-90100411D01*
X62019843Y-90100411D02*
X62257938Y-90100411D01*
X78310789Y-89100411D02*
X78786979Y-89100411D01*
X78786979Y-89100411D02*
X78834598Y-89576601D01*
X78834598Y-89576601D02*
X78786979Y-89528982D01*
X78786979Y-89528982D02*
X78691741Y-89481363D01*
X78691741Y-89481363D02*
X78453646Y-89481363D01*
X78453646Y-89481363D02*
X78358408Y-89528982D01*
X78358408Y-89528982D02*
X78310789Y-89576601D01*
X78310789Y-89576601D02*
X78263170Y-89671839D01*
X78263170Y-89671839D02*
X78263170Y-89909934D01*
X78263170Y-89909934D02*
X78310789Y-90005172D01*
X78310789Y-90005172D02*
X78358408Y-90052792D01*
X78358408Y-90052792D02*
X78453646Y-90100411D01*
X78453646Y-90100411D02*
X78691741Y-90100411D01*
X78691741Y-90100411D02*
X78786979Y-90052792D01*
X78786979Y-90052792D02*
X78834598Y-90005172D01*
X77977455Y-89100411D02*
X77644122Y-90100411D01*
X77644122Y-90100411D02*
X77310789Y-89100411D01*
X89443356Y-90012378D02*
X90014784Y-90012378D01*
X89729070Y-90012378D02*
X89729070Y-89012378D01*
X89729070Y-89012378D02*
X89824308Y-89155235D01*
X89824308Y-89155235D02*
X89919546Y-89250473D01*
X89919546Y-89250473D02*
X90014784Y-89298092D01*
X89062403Y-89107616D02*
X89014784Y-89059997D01*
X89014784Y-89059997D02*
X88919546Y-89012378D01*
X88919546Y-89012378D02*
X88681451Y-89012378D01*
X88681451Y-89012378D02*
X88586213Y-89059997D01*
X88586213Y-89059997D02*
X88538594Y-89107616D01*
X88538594Y-89107616D02*
X88490975Y-89202854D01*
X88490975Y-89202854D02*
X88490975Y-89298092D01*
X88490975Y-89298092D02*
X88538594Y-89440949D01*
X88538594Y-89440949D02*
X89110022Y-90012378D01*
X89110022Y-90012378D02*
X88490975Y-90012378D01*
X88205260Y-89012378D02*
X87871927Y-90012378D01*
X87871927Y-90012378D02*
X87538594Y-89012378D01*
%TO.C,RADAR0*%
D12*
X31547600Y-77654200D02*
X32055600Y-78162200D01*
X31547600Y-78670200D02*
X31547600Y-77654200D01*
X32055600Y-78162200D02*
X31547600Y-78670200D01*
%TO.C,SH1*%
X29840000Y-67414400D02*
G75*
G02*
X27940000Y-67414400I-950000J0D01*
G01*
X27940000Y-67414400D02*
G75*
G02*
X29840000Y-67414400I950000J0D01*
G01*
%TO.C,SH4*%
X87966600Y-82411600D02*
G75*
G02*
X86066600Y-82411600I-950000J0D01*
G01*
X86066600Y-82411600D02*
G75*
G02*
X87966600Y-82411600I950000J0D01*
G01*
%TO.C,SH3*%
X74022000Y-82538600D02*
G75*
G02*
X72122000Y-82538600I-950000J0D01*
G01*
X72122000Y-82538600D02*
G75*
G02*
X74022000Y-82538600I950000J0D01*
G01*
%TO.C,DOORLOCK1*%
X101629100Y-77700400D02*
X102137100Y-78208400D01*
X101629100Y-78716400D02*
X101629100Y-77700400D01*
X102137100Y-78208400D02*
X101629100Y-78716400D01*
%TO.C,DOORLOCK0*%
X59586800Y-77682200D02*
X60094800Y-78190200D01*
X59586800Y-78698200D02*
X59586800Y-77682200D01*
X60094800Y-78190200D02*
X59586800Y-78698200D01*
%TO.C,DOORSENSE0*%
X45571200Y-77659300D02*
X46079200Y-78167300D01*
X45571200Y-78675300D02*
X45571200Y-77659300D01*
X46079200Y-78167300D02*
X45571200Y-78675300D01*
%TO.C,RADAR1*%
X73599600Y-77687100D02*
X74107600Y-78195100D01*
X73599600Y-78703100D02*
X73599600Y-77687100D01*
X74107600Y-78195100D02*
X73599600Y-78703100D01*
%TO.C,SH5*%
X117307600Y-67414400D02*
G75*
G02*
X115407600Y-67414400I-950000J0D01*
G01*
X115407600Y-67414400D02*
G75*
G02*
X117307600Y-67414400I950000J0D01*
G01*
%TO.C,DOORSENSE1*%
X87613800Y-77682400D02*
X88121800Y-78190400D01*
X87613800Y-78698400D02*
X87613800Y-77682400D01*
X88121800Y-78190400D02*
X87613800Y-78698400D01*
%TO.C,SH2*%
X60052000Y-82538600D02*
G75*
G02*
X58152000Y-82538600I-950000J0D01*
G01*
X58152000Y-82538600D02*
G75*
G02*
X60052000Y-82538600I950000J0D01*
G01*
%TD*%
D13*
X24710343Y-81750000D02*
X24710343Y-101811400D01*
X24710343Y-81750000D02*
X24833752Y-81654874D01*
X24710343Y-101811400D02*
X41999428Y-101811400D01*
X24833752Y-81654874D02*
X25035833Y-81621046D01*
X25035833Y-81621046D02*
X25236440Y-81579359D01*
X25236440Y-81579359D02*
X25435268Y-81529877D01*
X25435268Y-81529877D02*
X25632015Y-81472675D01*
X25632015Y-81472675D02*
X25826379Y-81407841D01*
X25826379Y-81407841D02*
X26018067Y-81335473D01*
X26018067Y-81335473D02*
X26206784Y-81255680D01*
X26206784Y-81255680D02*
X26392245Y-81168586D01*
X26392245Y-81168586D02*
X26574166Y-81074322D01*
X26455828Y-61113981D02*
X26455828Y-70950000D01*
X26455828Y-70950000D02*
X27041013Y-71338723D01*
X26574166Y-81074322D02*
X26752271Y-80973032D01*
X26752271Y-80973032D02*
X26926289Y-80864870D01*
X26926289Y-80864870D02*
X27095954Y-80750000D01*
X27095954Y-80750000D02*
X27261008Y-80628599D01*
X27210678Y-71453593D02*
X27041013Y-71338723D01*
X27261008Y-80628599D02*
X27538802Y-80350805D01*
X27535924Y-71702743D02*
X27210678Y-71453593D01*
X27554019Y-80350805D02*
X27538802Y-80350805D01*
X27554019Y-80350805D02*
X27847935Y-79741012D01*
X27691009Y-71836644D02*
X27535924Y-71702743D01*
X27840753Y-71976494D02*
X27691009Y-71836644D01*
X27847935Y-79741012D02*
X27986318Y-79589912D01*
X27984925Y-72122081D02*
X27840753Y-71976494D01*
X27986318Y-79589912D02*
X28118700Y-79433527D01*
X28118700Y-79433527D02*
X28244880Y-79272097D01*
X28123308Y-72273181D02*
X27984925Y-72122081D01*
X28244880Y-79272097D02*
X28364665Y-79105866D01*
X28255690Y-72429566D02*
X28123308Y-72273181D01*
X28364665Y-79105866D02*
X28477873Y-78935088D01*
X28381870Y-72590996D02*
X28255690Y-72429566D01*
X28381870Y-72590996D02*
X28721323Y-73103069D01*
X28477873Y-78935088D02*
X28584333Y-78760024D01*
X28584333Y-78760024D02*
X28683880Y-78580939D01*
X28683880Y-78580939D02*
X28776365Y-78398107D01*
X28776365Y-78398107D02*
X28861646Y-78211805D01*
X28820870Y-73282154D02*
X28721323Y-73103069D01*
X28861646Y-78211805D02*
X28939593Y-78022318D01*
X28913355Y-73464986D02*
X28820870Y-73282154D01*
X28939593Y-74217682D02*
X28939593Y-73644800D01*
X28939593Y-78022318D02*
X29010088Y-77829934D01*
X28942452Y-73640679D02*
X28913355Y-73464986D01*
X28942452Y-73640679D02*
X28939593Y-73644800D01*
X29010088Y-74410066D02*
X28939593Y-74217682D01*
X29010088Y-77829934D02*
X29073023Y-77634946D01*
X29073023Y-74605054D02*
X29010088Y-74410066D01*
X29073023Y-77634946D02*
X29128302Y-77437651D01*
X29128302Y-74802349D02*
X29073023Y-74605054D01*
X29128302Y-77437651D02*
X29175842Y-77238349D01*
X29175842Y-75001651D02*
X29128302Y-74802349D01*
X29175842Y-77238349D02*
X29215570Y-77037345D01*
X29215570Y-75202655D02*
X29175842Y-75001651D01*
X29215570Y-77037345D02*
X29247425Y-76834943D01*
X29247425Y-75405057D02*
X29215570Y-75202655D01*
X29247425Y-76834943D02*
X29271358Y-76631453D01*
X29271358Y-75608547D02*
X29247425Y-75405057D01*
X29271358Y-76631453D02*
X29287334Y-76427183D01*
X29287334Y-75812817D02*
X29271358Y-75608547D01*
X29287334Y-76427183D02*
X29295328Y-76222446D01*
X29295328Y-76017554D02*
X29287334Y-75812817D01*
X29295328Y-76222446D02*
X29295828Y-76120000D01*
X29295828Y-76120000D02*
X29295328Y-76017554D01*
X41999428Y-98098400D02*
X41999428Y-101811400D01*
X41999428Y-98098400D02*
X42001565Y-98065779D01*
X42048958Y-97705677D02*
X42001565Y-98065779D01*
X42061763Y-97584665D02*
X42048958Y-97705677D01*
X42061763Y-97584665D02*
X42063093Y-97574207D01*
X42091000Y-97386503D02*
X42063093Y-97574207D01*
X42091000Y-97386503D02*
X42130770Y-97179442D01*
X42176821Y-96984462D02*
X42130770Y-97179442D01*
X42228395Y-96801867D02*
X42177037Y-96984524D01*
X42229440Y-96797954D02*
X42228395Y-96801867D01*
X42293763Y-96601402D02*
X42229440Y-96797954D01*
X42360544Y-96423771D02*
X42293971Y-96601481D01*
X42360544Y-96423771D02*
X42362876Y-96417694D01*
X42438455Y-96239236D02*
X42362876Y-96417694D01*
X42439967Y-96235531D02*
X42438455Y-96239236D01*
X42524076Y-96058151D02*
X42439967Y-96235531D01*
X42524076Y-96058151D02*
X42526817Y-96052470D01*
X42622161Y-95871520D02*
X42526817Y-96052470D01*
X42723126Y-95698495D02*
X42622351Y-95871632D01*
X42825607Y-95538770D02*
X42723313Y-95698615D01*
X42831504Y-95529972D02*
X42825607Y-95538770D01*
X42940412Y-95374628D02*
X42831504Y-95529972D01*
X42940412Y-95374628D02*
X42944315Y-95369167D01*
X43068452Y-95207094D02*
X42944315Y-95369167D01*
X43190260Y-95061584D02*
X43068623Y-95207237D01*
X43193213Y-95058008D02*
X43190260Y-95061584D01*
X43324857Y-94913240D02*
X43193213Y-95058008D01*
X43329366Y-94908368D02*
X43324857Y-94913240D01*
X43465589Y-94770700D02*
X43329366Y-94908368D01*
X43471331Y-94765063D02*
X43465589Y-94770700D01*
X43612205Y-94634220D02*
X43471331Y-94765063D01*
X43618207Y-94628808D02*
X43612205Y-94634220D01*
X43764443Y-94504043D02*
X43618207Y-94628808D01*
X43770407Y-94499092D02*
X43764443Y-94504043D01*
X43930317Y-94373916D02*
X43770407Y-94499092D01*
X44084698Y-94263508D02*
X43930446Y-94374095D01*
X44084698Y-94263508D02*
X44090785Y-94259257D01*
X44252144Y-94153579D02*
X44090785Y-94259257D01*
X44252144Y-94153579D02*
X44258750Y-94149381D01*
X44424078Y-94050806D02*
X44258750Y-94149381D01*
X44429389Y-94047683D02*
X44424078Y-94050806D01*
X44600189Y-93955373D02*
X44429389Y-94047683D01*
X44605734Y-93952424D02*
X44600189Y-93955373D01*
X44780167Y-93867448D02*
X44605734Y-93952424D01*
X44786966Y-93864241D02*
X44780167Y-93867448D01*
X44973365Y-93782972D02*
X44786966Y-93864241D01*
X45150437Y-93714739D02*
X44973445Y-93783180D01*
X45158603Y-93711736D02*
X45150437Y-93714739D01*
X45350062Y-93646838D02*
X45158603Y-93711736D01*
X45532256Y-93593763D02*
X45350123Y-93647052D01*
X45532256Y-93593763D02*
X45539185Y-93591820D01*
X45726649Y-93545453D02*
X45539185Y-93591820D01*
X45726649Y-93545453D02*
X45730036Y-93544539D01*
X46131103Y-93472180D02*
X45730036Y-93544539D01*
X46529914Y-93434451D02*
X46131103Y-93472180D01*
X46719559Y-93428675D02*
X46529914Y-93434451D01*
X46930403Y-93430898D02*
X46719559Y-93428675D01*
X47119898Y-93440896D02*
X46930403Y-93430898D01*
X47123474Y-93441013D02*
X47119898Y-93440896D01*
X47319325Y-93459651D02*
X47123474Y-93441013D01*
X47319325Y-93459651D02*
X47324826Y-93460186D01*
X47528242Y-93488239D02*
X47324826Y-93460186D01*
X47725280Y-93524161D02*
X47528202Y-93488458D01*
X47920727Y-93568380D02*
X47725229Y-93524378D01*
X48114046Y-93620776D02*
X47920667Y-93568596D01*
X48294922Y-93678099D02*
X48113975Y-93620989D01*
X48294922Y-93678099D02*
X48304949Y-93681499D01*
X48483304Y-93746178D02*
X48304949Y-93681499D01*
X48678460Y-93826159D02*
X48483304Y-93746178D01*
X48860247Y-93910282D02*
X48678361Y-93826374D01*
X49028916Y-93997148D02*
X48860144Y-93910481D01*
X49032616Y-93998995D02*
X49028916Y-93997148D01*
X49212389Y-94101109D02*
X49032616Y-93998995D01*
X49382120Y-94207487D02*
X49212270Y-94101298D01*
X49547205Y-94320919D02*
X49381992Y-94207671D01*
X49707402Y-94441240D02*
X49547072Y-94321098D01*
X49862344Y-94568174D02*
X49707261Y-94441413D01*
X50003918Y-94694513D02*
X49862195Y-94568341D01*
X50006225Y-94696439D02*
X50003918Y-94694513D01*
X50155493Y-94841060D02*
X50006225Y-94696439D01*
X50285951Y-94978902D02*
X50155333Y-94841212D01*
X50293042Y-94986700D02*
X50285951Y-94978902D01*
X50417704Y-95129734D02*
X50293042Y-94986700D01*
X50539941Y-95282184D02*
X50417873Y-95129589D01*
X50549441Y-95294417D02*
X50539941Y-95282184D01*
X50660037Y-95445298D02*
X50549441Y-95294417D01*
X50667704Y-95456138D02*
X50660037Y-95445298D01*
X50772429Y-95612422D02*
X50667704Y-95456138D01*
X50778991Y-95622614D02*
X50772429Y-95612422D01*
X50877892Y-95784580D02*
X50778991Y-95622614D01*
X50883209Y-95793717D02*
X50877892Y-95784580D01*
X50975176Y-95959677D02*
X50883209Y-95793717D01*
X50980113Y-95969048D02*
X50975176Y-95959677D01*
X51065009Y-96138749D02*
X50980113Y-95969048D01*
X51069524Y-96148276D02*
X51065009Y-96138749D01*
X51144409Y-96315205D02*
X51069524Y-96148276D01*
X51151296Y-96331098D02*
X51144409Y-96315205D01*
X51219583Y-96502305D02*
X51151296Y-96331098D01*
X51225308Y-96517263D02*
X51219583Y-96502305D01*
X51285950Y-96690152D02*
X51225308Y-96517263D01*
X51291374Y-96706284D02*
X51285950Y-96690152D01*
X51345151Y-96883144D02*
X51291374Y-96706284D01*
X51349444Y-96898024D02*
X51345151Y-96883144D01*
X51395653Y-97076742D02*
X51349444Y-96898024D01*
X51399366Y-97091985D02*
X51395653Y-97076742D01*
X51438669Y-97275624D02*
X51399366Y-97091985D01*
X51441076Y-97287931D02*
X51438669Y-97275624D01*
X51471851Y-97468649D02*
X51441076Y-97287931D01*
X51474487Y-97485463D02*
X51471851Y-97468649D01*
X51498114Y-97671229D02*
X51474487Y-97485463D01*
X51499533Y-97684140D02*
X51498114Y-97671229D01*
X51515153Y-97868899D02*
X51499533Y-97684140D01*
X51516187Y-97883762D02*
X51515153Y-97868899D01*
X51520403Y-98226240D02*
X51524011Y-98069183D01*
X51520403Y-98226240D02*
X51536471Y-98149878D01*
X51524011Y-98069183D02*
X51516187Y-97883762D01*
X51524907Y-98177483D02*
X51524407Y-98082599D01*
X51524907Y-98177483D02*
X51536471Y-98149878D01*
X51541828Y-98098400D02*
X51524407Y-98082599D01*
X51541828Y-101811400D02*
X51541828Y-98098400D01*
X51541828Y-101811400D02*
X88278228Y-101811400D01*
X68495200Y-61113200D02*
X26455828Y-61113981D01*
X68495200Y-61113200D02*
X69495200Y-50139600D01*
X69495200Y-50139600D02*
X76495200Y-50139600D01*
X76495200Y-50139600D02*
X77411683Y-61113198D01*
X88278228Y-98359000D02*
X88274228Y-98367844D01*
X88278228Y-101811400D02*
X88278228Y-98359000D01*
X88302072Y-97788423D02*
X88274228Y-98367844D01*
X88388841Y-97204796D02*
X88302072Y-97788423D01*
X88620822Y-96438815D02*
X88388841Y-97204796D01*
X88789069Y-96063768D02*
X88620822Y-96438815D01*
X88789069Y-96063768D02*
X89085885Y-95553814D01*
X89085885Y-95553814D02*
X89091753Y-95545057D01*
X89200690Y-95389672D02*
X89091753Y-95545057D01*
X89200690Y-95389672D02*
X89206922Y-95381170D01*
X89322313Y-95230516D02*
X89206922Y-95381170D01*
X89322313Y-95230516D02*
X89328898Y-95222284D01*
X89450538Y-95076628D02*
X89328898Y-95222284D01*
X89450538Y-95076628D02*
X89457464Y-95068682D01*
X89585135Y-94928284D02*
X89457464Y-95068682D01*
X89585135Y-94928284D02*
X89592390Y-94920636D01*
X89725867Y-94785744D02*
X89592390Y-94920636D01*
X89725867Y-94785744D02*
X89733438Y-94778408D01*
X89872483Y-94649264D02*
X89733438Y-94778408D01*
X89872483Y-94649264D02*
X89880356Y-94642255D01*
X90024721Y-94519087D02*
X89880356Y-94642255D01*
X90024721Y-94519087D02*
X90032883Y-94512416D01*
X90182313Y-94395443D02*
X90032883Y-94512416D01*
X90182313Y-94395443D02*
X90190749Y-94389121D01*
X90344976Y-94278552D02*
X90190749Y-94389121D01*
X90344976Y-94278552D02*
X90353670Y-94272593D01*
X90512422Y-94168623D02*
X90353670Y-94272593D01*
X90512422Y-94168623D02*
X90521362Y-94163034D01*
X90684356Y-94065850D02*
X90521362Y-94163034D01*
X90684356Y-94065850D02*
X90693521Y-94060644D01*
X90860467Y-93970417D02*
X90693521Y-94060644D01*
X90860467Y-93970417D02*
X90869844Y-93965601D01*
X91040445Y-93882492D02*
X90869844Y-93965601D01*
X91040445Y-93882492D02*
X91050017Y-93878076D01*
X91223970Y-93802233D02*
X91050017Y-93878076D01*
X91223970Y-93802233D02*
X91233720Y-93798225D01*
X91410715Y-93729783D02*
X91233720Y-93798225D01*
X91410715Y-93729783D02*
X91420625Y-93726189D01*
X91600349Y-93665269D02*
X91420625Y-93726189D01*
X91600349Y-93665269D02*
X91610402Y-93662096D01*
X91792534Y-93608807D02*
X91610402Y-93662096D01*
X91792534Y-93608807D02*
X91802711Y-93606061D01*
X91986927Y-93560497D02*
X91802711Y-93606061D01*
X91986927Y-93560497D02*
X91997212Y-93558182D01*
X91997212Y-93558182D02*
X92183186Y-93520425D01*
X92183186Y-93520425D02*
X92193558Y-93518546D01*
X92380957Y-93488662D02*
X92193558Y-93518546D01*
X92380957Y-93488662D02*
X92391400Y-93487222D01*
X92579894Y-93465265D02*
X92391400Y-93487222D01*
X92579894Y-93465265D02*
X92590388Y-93464266D01*
X92795428Y-93456717D02*
X92590388Y-93464266D01*
X93390689Y-93456717D02*
X92795428Y-93456717D01*
X93579603Y-93474695D02*
X93390689Y-93456717D01*
X93579603Y-93474695D02*
X93590074Y-93475915D01*
X93975200Y-93537329D02*
X93590074Y-93475915D01*
X94180901Y-93583628D02*
X93975200Y-93537329D01*
X94364116Y-93633066D02*
X94180901Y-93583628D01*
X94555200Y-93693143D02*
X94364116Y-93633066D01*
X94565183Y-93696527D02*
X94555200Y-93693143D01*
X94565183Y-93696527D02*
X94753415Y-93765024D01*
X94938591Y-93841396D02*
X94753415Y-93765024D01*
X95289194Y-94012192D02*
X94938591Y-93841396D01*
X95298469Y-94017205D02*
X95289194Y-94012192D01*
X95298469Y-94017205D02*
X95642256Y-94222705D01*
X95798780Y-94329998D02*
X95642256Y-94222705D01*
X95908157Y-94426758D02*
X95798780Y-94329998D01*
X96055087Y-94546855D02*
X95908157Y-94426758D01*
X96156283Y-94660776D02*
X96055087Y-94546855D01*
X96156283Y-94660776D02*
X96362326Y-94886562D01*
X96492930Y-95024237D02*
X96362326Y-94886562D01*
X96650934Y-95234473D02*
X96492930Y-95024237D01*
X96858500Y-95596584D02*
X96650934Y-95234473D01*
X96957398Y-95758545D02*
X96858500Y-95596584D01*
X97054682Y-95933642D02*
X96957398Y-95758545D01*
X97054682Y-95933642D02*
X97059596Y-95942967D01*
X97144499Y-96112682D02*
X97059596Y-95942967D01*
X97149015Y-96122207D02*
X97144499Y-96112682D01*
X97226688Y-96295351D02*
X97149015Y-96122207D01*
X97226688Y-96295351D02*
X97230800Y-96305058D01*
X97301104Y-96481322D02*
X97230800Y-96305058D01*
X97301104Y-96481322D02*
X97304802Y-96491194D01*
X97367613Y-96670265D02*
X97304802Y-96491194D01*
X97370891Y-96680284D02*
X97367613Y-96670265D01*
X97426097Y-96861844D02*
X97370891Y-96680284D01*
X97426097Y-96861844D02*
X97428950Y-96871990D01*
X97476454Y-97055716D02*
X97428950Y-96871990D01*
X97476454Y-97055716D02*
X97478878Y-97065977D01*
X97478878Y-97065977D02*
X97518593Y-97251542D01*
X97518593Y-97251542D02*
X97520581Y-97261893D01*
X97553989Y-97459395D02*
X97520581Y-97261893D01*
X97553989Y-97459395D02*
X97589056Y-97495400D01*
X97589056Y-97495400D02*
X97589056Y-99632861D01*
X97589056Y-101770321D02*
X97589056Y-99632861D01*
X115688828Y-76550000D02*
X115688828Y-78750000D01*
X115688828Y-76550000D02*
X117911756Y-76550000D01*
X117751757Y-78750000D02*
X115688828Y-78750000D01*
X117751757Y-101770321D02*
X97589056Y-101770321D01*
X117751757Y-101770321D02*
X117751757Y-78750000D01*
X117911756Y-76550000D02*
X117915484Y-61113981D01*
X117915484Y-61113981D02*
X77411683Y-61113198D01*
M02*
