M48
; DRILL file KiCad 10.0.2 date 2026-05-23T16:50:34
; FORMAT={-:-/ absolute / metric / decimal}
; #@! TF.CreationDate,2026-05-23T16:50:34-05:00
; #@! TF.GenerationSoftware,Kicad,Pcbnew,10.0.2
; #@! TF.FileFunction,Plated,1,2,PTH
FMAT,2
METRIC
; #@! TA.AperFunction,Plated,PTH,ViaDrill
T1C0.300
; #@! TA.AperFunction,Plated,PTH,ComponentDrill
T2C0.890
; #@! TA.AperFunction,Plated,PTH,ComponentDrill
T3C0.900
; #@! TA.AperFunction,Plated,PTH,ComponentDrill
T4C1.000
; #@! TA.AperFunction,Plated,PTH,ComponentDrill
T5C1.570
; #@! TA.AperFunction,Plated,PTH,ComponentDrill
T6C1.600
; #@! TA.AperFunction,Plated,PTH,ComponentDrill
T7C2.500
%
G90
G05
T1
X69.581Y-75.093
X71.183Y-85.446
X71.562Y-71.988
X73.337Y-80.48
X89.324Y-84.674
X104.785Y-85.507
X107.499Y-88.631
T2
X103.972Y-93.735
X104.988Y-95.515
X106.004Y-93.735
X107.02Y-95.515
X108.036Y-93.735
X109.052Y-95.515
X110.068Y-93.735
X111.084Y-95.515
T3
X33.529Y-78.238
X34.799Y-80.778
X36.069Y-78.238
X37.339Y-80.778
X38.609Y-78.238
X39.879Y-80.778
X41.149Y-78.238
X42.419Y-80.778
X47.552Y-78.243
X48.822Y-80.783
X50.092Y-78.243
X51.362Y-80.783
X52.632Y-78.243
X53.902Y-80.783
X55.172Y-78.243
X56.442Y-80.783
X61.568Y-78.266
X62.838Y-80.806
X64.108Y-78.266
X65.378Y-80.806
X66.648Y-78.266
X67.918Y-80.806
X69.188Y-78.266
X70.458Y-80.806
X75.581Y-78.271
X76.851Y-80.811
X78.121Y-78.271
X79.391Y-80.811
X80.661Y-78.271
X81.931Y-80.811
X83.201Y-78.271
X84.471Y-80.811
X89.595Y-78.267
X90.865Y-80.807
X92.135Y-78.267
X93.405Y-80.807
X94.675Y-78.267
X95.945Y-80.807
X97.215Y-78.267
X98.485Y-80.807
X103.61Y-78.285
X104.88Y-80.825
X106.15Y-78.285
X107.42Y-80.825
X108.69Y-78.285
X109.96Y-80.825
X111.23Y-78.285
X112.5Y-80.825
T4
X40.116Y-87.31
X42.656Y-87.31
X45.196Y-87.31
X47.736Y-87.31
X50.276Y-87.31
X52.816Y-87.31
X55.356Y-87.31
X57.896Y-87.31
X60.436Y-87.31
X62.976Y-87.31
X65.516Y-87.31
X68.056Y-87.31
X70.596Y-87.31
X73.136Y-87.31
X75.676Y-87.31
X78.216Y-87.31
X80.756Y-87.31
X83.296Y-87.31
X85.836Y-87.31
X88.376Y-87.31
T5
X99.402Y-94.625
X115.662Y-94.625
T6
X28.89Y-67.414
X59.102Y-82.539
X73.072Y-82.539
X87.017Y-82.412
X116.358Y-67.414
T7
X31.734Y-92.39
M30
