%TF.GenerationSoftware,KiCad,Pcbnew,10.0.2*%
%TF.CreationDate,2026-05-23T17:15:41-05:00*%
%TF.ProjectId,door-lock,646f6f72-2d6c-46f6-936b-2e6b69636164,rev?*%
%TF.SameCoordinates,Original*%
%TF.FileFunction,Legend,Bot*%
%TF.FilePolarity,Positive*%
%FSLAX46Y46*%
G04 Gerber Fmt 4.6, Leading zero omitted, Abs format (unit mm)*
G04 Created by KiCad (PCBNEW 10.0.2) date 2026-05-23 17:15:41*
%MOMM*%
%LPD*%
G01*
G04 APERTURE LIST*
%ADD10C,0.000000*%
%ADD11C,0.200000*%
%ADD12C,0.187500*%
%TA.AperFunction,Profile*%
%ADD13C,0.200000*%
%TD*%
G04 APERTURE END LIST*
D10*
G36*
X95987784Y-36050244D02*
G01*
X95985167Y-36063399D01*
X95966564Y-36082002D01*
X95940254Y-36082002D01*
X95921651Y-36063399D01*
X95919034Y-36050244D01*
X95919034Y-35896340D01*
X95916400Y-35897657D01*
X95914740Y-35898111D01*
X95914183Y-35898669D01*
X95908782Y-35899743D01*
X95903464Y-35901200D01*
X95902715Y-35900950D01*
X95901028Y-35901286D01*
X95796266Y-35901286D01*
X95794577Y-35900950D01*
X95793830Y-35901199D01*
X95788518Y-35899744D01*
X95783111Y-35898669D01*
X95782553Y-35898111D01*
X95780893Y-35897657D01*
X95728512Y-35871467D01*
X95724155Y-35868086D01*
X95719578Y-35865027D01*
X95693388Y-35838836D01*
X95690327Y-35834256D01*
X95686949Y-35829903D01*
X95660758Y-35777522D01*
X95660303Y-35775861D01*
X95659746Y-35775304D01*
X95658670Y-35769899D01*
X95657216Y-35764586D01*
X95657465Y-35763838D01*
X95657129Y-35762149D01*
X95657129Y-35613121D01*
X95725879Y-35613121D01*
X95725879Y-35754033D01*
X95745947Y-35794169D01*
X95764247Y-35812469D01*
X95804381Y-35832536D01*
X95892913Y-35832536D01*
X95919034Y-35819475D01*
X95919034Y-35547679D01*
X95892913Y-35534619D01*
X95804381Y-35534619D01*
X95764248Y-35554685D01*
X95745945Y-35572988D01*
X95725879Y-35613121D01*
X95657129Y-35613121D01*
X95657129Y-35605006D01*
X95657465Y-35603316D01*
X95657216Y-35602569D01*
X95658670Y-35597255D01*
X95659746Y-35591851D01*
X95660303Y-35591293D01*
X95660758Y-35589633D01*
X95686949Y-35537252D01*
X95690327Y-35532898D01*
X95693388Y-35528318D01*
X95719578Y-35502128D01*
X95724158Y-35499067D01*
X95728512Y-35495689D01*
X95780893Y-35469498D01*
X95782553Y-35469043D01*
X95783111Y-35468486D01*
X95788515Y-35467410D01*
X95793829Y-35465956D01*
X95794576Y-35466205D01*
X95796266Y-35465869D01*
X95901028Y-35465869D01*
X95902717Y-35466205D01*
X95903465Y-35465956D01*
X95908778Y-35467410D01*
X95914183Y-35468486D01*
X95914740Y-35469043D01*
X95916401Y-35469498D01*
X95931628Y-35477111D01*
X95940254Y-35468486D01*
X95966564Y-35468486D01*
X95985167Y-35487089D01*
X95987784Y-35500244D01*
X95987784Y-35547679D01*
X95987784Y-36050244D01*
G37*
G36*
X93798727Y-35262160D02*
G01*
X93808202Y-35271654D01*
X94279631Y-35978795D01*
X94284750Y-35991192D01*
X94279591Y-36016990D01*
X94257700Y-36031584D01*
X94231902Y-36026425D01*
X94222427Y-36016931D01*
X93750999Y-35309789D01*
X93745879Y-35297392D01*
X93751038Y-35271594D01*
X93772930Y-35257000D01*
X93798727Y-35262160D01*
G37*
G36*
X94374917Y-35262160D02*
G01*
X94384392Y-35271654D01*
X94855821Y-35978795D01*
X94860940Y-35991192D01*
X94855781Y-36016990D01*
X94833890Y-36031584D01*
X94808092Y-36026425D01*
X94798617Y-36016931D01*
X94327189Y-35309789D01*
X94322069Y-35297392D01*
X94327228Y-35271594D01*
X94349120Y-35257000D01*
X94374917Y-35262160D01*
G37*
G36*
X87338432Y-35466205D02*
G01*
X87339180Y-35465956D01*
X87344493Y-35467410D01*
X87349898Y-35468486D01*
X87350455Y-35469043D01*
X87352116Y-35469498D01*
X87404497Y-35495689D01*
X87409903Y-35499885D01*
X87411646Y-35500466D01*
X87413152Y-35502406D01*
X87415093Y-35503913D01*
X87415673Y-35505655D01*
X87419870Y-35511062D01*
X87446061Y-35563443D01*
X87446515Y-35565103D01*
X87447073Y-35565661D01*
X87448148Y-35571065D01*
X87449603Y-35576379D01*
X87449353Y-35577126D01*
X87449690Y-35578816D01*
X87449690Y-35605006D01*
X87449353Y-35606695D01*
X87449603Y-35607443D01*
X87448148Y-35612756D01*
X87447073Y-35618161D01*
X87446515Y-35618718D01*
X87446061Y-35620379D01*
X87419870Y-35672760D01*
X87415673Y-35678166D01*
X87415093Y-35679909D01*
X87413152Y-35681415D01*
X87411646Y-35683356D01*
X87409903Y-35683936D01*
X87404497Y-35688133D01*
X87352116Y-35714324D01*
X87350455Y-35714778D01*
X87349898Y-35715336D01*
X87344493Y-35716411D01*
X87339180Y-35717866D01*
X87338432Y-35717616D01*
X87336743Y-35717953D01*
X87266287Y-35717953D01*
X87231412Y-35735389D01*
X87213975Y-35770264D01*
X87213975Y-35780224D01*
X87231412Y-35815099D01*
X87266287Y-35832536D01*
X87354819Y-35832536D01*
X87399942Y-35809975D01*
X87412879Y-35806433D01*
X87437837Y-35814752D01*
X87449603Y-35838285D01*
X87441284Y-35863243D01*
X87430688Y-35871467D01*
X87378306Y-35897657D01*
X87376646Y-35898111D01*
X87376089Y-35898669D01*
X87370688Y-35899743D01*
X87365370Y-35901200D01*
X87364621Y-35900950D01*
X87362934Y-35901286D01*
X87258172Y-35901286D01*
X87256483Y-35900950D01*
X87255736Y-35901199D01*
X87250424Y-35899744D01*
X87245017Y-35898669D01*
X87244459Y-35898111D01*
X87242799Y-35897657D01*
X87190418Y-35871467D01*
X87185011Y-35867270D01*
X87183269Y-35866690D01*
X87181762Y-35864749D01*
X87179822Y-35863243D01*
X87179241Y-35861500D01*
X87175045Y-35856094D01*
X87148854Y-35803713D01*
X87148399Y-35802052D01*
X87147842Y-35801495D01*
X87146766Y-35796090D01*
X87145312Y-35790777D01*
X87145561Y-35790029D01*
X87145225Y-35788340D01*
X87145225Y-35762149D01*
X87145561Y-35760459D01*
X87145312Y-35759712D01*
X87146766Y-35754398D01*
X87147842Y-35748994D01*
X87148399Y-35748436D01*
X87148854Y-35746776D01*
X87175045Y-35694395D01*
X87179241Y-35688988D01*
X87179822Y-35687246D01*
X87181762Y-35685739D01*
X87183269Y-35683799D01*
X87185011Y-35683218D01*
X87190418Y-35679022D01*
X87242799Y-35652832D01*
X87244459Y-35652377D01*
X87245017Y-35651820D01*
X87250424Y-35650744D01*
X87255736Y-35649290D01*
X87256483Y-35649538D01*
X87258172Y-35649203D01*
X87328628Y-35649203D01*
X87363502Y-35631765D01*
X87380940Y-35596890D01*
X87380940Y-35586931D01*
X87363502Y-35552056D01*
X87328628Y-35534619D01*
X87266287Y-35534619D01*
X87221164Y-35557181D01*
X87208228Y-35560723D01*
X87183269Y-35552404D01*
X87171503Y-35528872D01*
X87179822Y-35503913D01*
X87190418Y-35495689D01*
X87242799Y-35469498D01*
X87244459Y-35469043D01*
X87245017Y-35468486D01*
X87250421Y-35467410D01*
X87255735Y-35465956D01*
X87256482Y-35466205D01*
X87258172Y-35465869D01*
X87336743Y-35465869D01*
X87338432Y-35466205D01*
G37*
G36*
X87682787Y-35487089D02*
G01*
X87685404Y-35500244D01*
X87685404Y-35800292D01*
X87697581Y-35812469D01*
X87737715Y-35832536D01*
X87800057Y-35832536D01*
X87834931Y-35815099D01*
X87852368Y-35780225D01*
X87852368Y-35500244D01*
X87854985Y-35487089D01*
X87873588Y-35468486D01*
X87899898Y-35468486D01*
X87918501Y-35487089D01*
X87921118Y-35500244D01*
X87921118Y-35788340D01*
X87920782Y-35790028D01*
X87921031Y-35790776D01*
X87919576Y-35796087D01*
X87918501Y-35801495D01*
X87917943Y-35802052D01*
X87917489Y-35803713D01*
X87891299Y-35856094D01*
X87887102Y-35861500D01*
X87886522Y-35863243D01*
X87884581Y-35864749D01*
X87883075Y-35866690D01*
X87881332Y-35867270D01*
X87875926Y-35871467D01*
X87823544Y-35897657D01*
X87821884Y-35898111D01*
X87821327Y-35898669D01*
X87815926Y-35899743D01*
X87810608Y-35901200D01*
X87809859Y-35900950D01*
X87808172Y-35901286D01*
X87729600Y-35901286D01*
X87727911Y-35900950D01*
X87727164Y-35901199D01*
X87721852Y-35899744D01*
X87716445Y-35898669D01*
X87715887Y-35898111D01*
X87714227Y-35897657D01*
X87681539Y-35881313D01*
X87664184Y-35898669D01*
X87637874Y-35898669D01*
X87619271Y-35880066D01*
X87616654Y-35866911D01*
X87616654Y-35500244D01*
X87619271Y-35487089D01*
X87637874Y-35468486D01*
X87664184Y-35468486D01*
X87682787Y-35487089D01*
G37*
G36*
X88680643Y-35788340D02*
G01*
X88680306Y-35790029D01*
X88680556Y-35790777D01*
X88679101Y-35796090D01*
X88678026Y-35801495D01*
X88677468Y-35802052D01*
X88677014Y-35803713D01*
X88650823Y-35856094D01*
X88646626Y-35861500D01*
X88646046Y-35863243D01*
X88644105Y-35864749D01*
X88642599Y-35866690D01*
X88640856Y-35867270D01*
X88635450Y-35871467D01*
X88583068Y-35897657D01*
X88581408Y-35898111D01*
X88580851Y-35898669D01*
X88575450Y-35899743D01*
X88570132Y-35901200D01*
X88569383Y-35900950D01*
X88567696Y-35901286D01*
X88462934Y-35901286D01*
X88461245Y-35900950D01*
X88460498Y-35901199D01*
X88455186Y-35899744D01*
X88449779Y-35898669D01*
X88449221Y-35898111D01*
X88447561Y-35897657D01*
X88395180Y-35871467D01*
X88384584Y-35863243D01*
X88376264Y-35838285D01*
X88388030Y-35814752D01*
X88412989Y-35806432D01*
X88425925Y-35809975D01*
X88471049Y-35832536D01*
X88559581Y-35832536D01*
X88594455Y-35815099D01*
X88611893Y-35780224D01*
X88611893Y-35711758D01*
X88377621Y-35664904D01*
X88372930Y-35662955D01*
X88371208Y-35662955D01*
X88369984Y-35661731D01*
X88365235Y-35659758D01*
X88359683Y-35651430D01*
X88352605Y-35644352D01*
X88351601Y-35639307D01*
X88350642Y-35637868D01*
X88350979Y-35636180D01*
X88349988Y-35631197D01*
X88349988Y-35586930D01*
X88418738Y-35586930D01*
X88418738Y-35603015D01*
X88611893Y-35641647D01*
X88611893Y-35586931D01*
X88594455Y-35552056D01*
X88559581Y-35534619D01*
X88471049Y-35534619D01*
X88436174Y-35552056D01*
X88418738Y-35586930D01*
X88349988Y-35586930D01*
X88349988Y-35578816D01*
X88350323Y-35577128D01*
X88350074Y-35576380D01*
X88351530Y-35571061D01*
X88352605Y-35565661D01*
X88353162Y-35565103D01*
X88353617Y-35563444D01*
X88379807Y-35511062D01*
X88384003Y-35505655D01*
X88384584Y-35503913D01*
X88386524Y-35502406D01*
X88388031Y-35500466D01*
X88389773Y-35499885D01*
X88395180Y-35495689D01*
X88447561Y-35469498D01*
X88449221Y-35469043D01*
X88449779Y-35468486D01*
X88455183Y-35467410D01*
X88460497Y-35465956D01*
X88461244Y-35466205D01*
X88462934Y-35465869D01*
X88567696Y-35465869D01*
X88569385Y-35466205D01*
X88570133Y-35465956D01*
X88575446Y-35467410D01*
X88580851Y-35468486D01*
X88581408Y-35469043D01*
X88583069Y-35469498D01*
X88635450Y-35495689D01*
X88640856Y-35499885D01*
X88642599Y-35500466D01*
X88644105Y-35502406D01*
X88646046Y-35503913D01*
X88646626Y-35505655D01*
X88650823Y-35511062D01*
X88677014Y-35563443D01*
X88677468Y-35565103D01*
X88678026Y-35565661D01*
X88679101Y-35571065D01*
X88680556Y-35576379D01*
X88680306Y-35577126D01*
X88680643Y-35578816D01*
X88680643Y-35586931D01*
X88680643Y-35788340D01*
G37*
G36*
X89014623Y-35466205D02*
G01*
X89015371Y-35465956D01*
X89020684Y-35467410D01*
X89026089Y-35468486D01*
X89026646Y-35469043D01*
X89028307Y-35469498D01*
X89080688Y-35495689D01*
X89086094Y-35499885D01*
X89087837Y-35500466D01*
X89089343Y-35502406D01*
X89091284Y-35503913D01*
X89091864Y-35505655D01*
X89096061Y-35511062D01*
X89122252Y-35563443D01*
X89122706Y-35565103D01*
X89123264Y-35565661D01*
X89124339Y-35571065D01*
X89125794Y-35576379D01*
X89125544Y-35577126D01*
X89125881Y-35578816D01*
X89125881Y-35605006D01*
X89125544Y-35606695D01*
X89125794Y-35607443D01*
X89124339Y-35612756D01*
X89123264Y-35618161D01*
X89122706Y-35618718D01*
X89122252Y-35620379D01*
X89096061Y-35672760D01*
X89091864Y-35678166D01*
X89091284Y-35679909D01*
X89089343Y-35681415D01*
X89087837Y-35683356D01*
X89086094Y-35683936D01*
X89080688Y-35688133D01*
X89028307Y-35714324D01*
X89026646Y-35714778D01*
X89026089Y-35715336D01*
X89020684Y-35716411D01*
X89015371Y-35717866D01*
X89014623Y-35717616D01*
X89012934Y-35717953D01*
X88942478Y-35717953D01*
X88907603Y-35735389D01*
X88890166Y-35770264D01*
X88890166Y-35780224D01*
X88907603Y-35815099D01*
X88942478Y-35832536D01*
X89031010Y-35832536D01*
X89076133Y-35809975D01*
X89089070Y-35806433D01*
X89114028Y-35814752D01*
X89125794Y-35838285D01*
X89117475Y-35863243D01*
X89106879Y-35871467D01*
X89054497Y-35897657D01*
X89052837Y-35898111D01*
X89052280Y-35898669D01*
X89046879Y-35899743D01*
X89041561Y-35901200D01*
X89040812Y-35900950D01*
X89039125Y-35901286D01*
X88934363Y-35901286D01*
X88932674Y-35900950D01*
X88931927Y-35901199D01*
X88926615Y-35899744D01*
X88921208Y-35898669D01*
X88920650Y-35898111D01*
X88918990Y-35897657D01*
X88866609Y-35871467D01*
X88861202Y-35867270D01*
X88859460Y-35866690D01*
X88857953Y-35864749D01*
X88856013Y-35863243D01*
X88855432Y-35861500D01*
X88851236Y-35856094D01*
X88825045Y-35803713D01*
X88824590Y-35802052D01*
X88824033Y-35801495D01*
X88822957Y-35796090D01*
X88821503Y-35790777D01*
X88821752Y-35790029D01*
X88821416Y-35788340D01*
X88821416Y-35762149D01*
X88821752Y-35760459D01*
X88821503Y-35759712D01*
X88822957Y-35754398D01*
X88824033Y-35748994D01*
X88824590Y-35748436D01*
X88825045Y-35746776D01*
X88851236Y-35694395D01*
X88855432Y-35688988D01*
X88856013Y-35687246D01*
X88857953Y-35685739D01*
X88859460Y-35683799D01*
X88861202Y-35683218D01*
X88866609Y-35679022D01*
X88918990Y-35652832D01*
X88920650Y-35652377D01*
X88921208Y-35651820D01*
X88926615Y-35650744D01*
X88931927Y-35649290D01*
X88932674Y-35649538D01*
X88934363Y-35649203D01*
X89004819Y-35649203D01*
X89039693Y-35631765D01*
X89057131Y-35596890D01*
X89057131Y-35586931D01*
X89039693Y-35552056D01*
X89004819Y-35534619D01*
X88942478Y-35534619D01*
X88897355Y-35557181D01*
X88884419Y-35560723D01*
X88859460Y-35552404D01*
X88847694Y-35528872D01*
X88856013Y-35503913D01*
X88866609Y-35495689D01*
X88918990Y-35469498D01*
X88920650Y-35469043D01*
X88921208Y-35468486D01*
X88926612Y-35467410D01*
X88931926Y-35465956D01*
X88932673Y-35466205D01*
X88934363Y-35465869D01*
X89012934Y-35465869D01*
X89014623Y-35466205D01*
G37*
G36*
X89358978Y-35487089D02*
G01*
X89361595Y-35500244D01*
X89361595Y-35800292D01*
X89373772Y-35812469D01*
X89413906Y-35832536D01*
X89476248Y-35832536D01*
X89511122Y-35815099D01*
X89528559Y-35780225D01*
X89528559Y-35500244D01*
X89531176Y-35487089D01*
X89549779Y-35468486D01*
X89576089Y-35468486D01*
X89594692Y-35487089D01*
X89597309Y-35500244D01*
X89597309Y-35788340D01*
X89596973Y-35790028D01*
X89597222Y-35790776D01*
X89595767Y-35796087D01*
X89594692Y-35801495D01*
X89594134Y-35802052D01*
X89593680Y-35803713D01*
X89567490Y-35856094D01*
X89563293Y-35861500D01*
X89562713Y-35863243D01*
X89560772Y-35864749D01*
X89559266Y-35866690D01*
X89557523Y-35867270D01*
X89552117Y-35871467D01*
X89499735Y-35897657D01*
X89498075Y-35898111D01*
X89497518Y-35898669D01*
X89492117Y-35899743D01*
X89486799Y-35901200D01*
X89486050Y-35900950D01*
X89484363Y-35901286D01*
X89405791Y-35901286D01*
X89404102Y-35900950D01*
X89403355Y-35901199D01*
X89398043Y-35899744D01*
X89392636Y-35898669D01*
X89392078Y-35898111D01*
X89390418Y-35897657D01*
X89357730Y-35881313D01*
X89340375Y-35898669D01*
X89314065Y-35898669D01*
X89295462Y-35880066D01*
X89292845Y-35866911D01*
X89292845Y-35500244D01*
X89295462Y-35487089D01*
X89314065Y-35468486D01*
X89340375Y-35468486D01*
X89358978Y-35487089D01*
G37*
G36*
X90121119Y-35762149D02*
G01*
X90120782Y-35763838D01*
X90121032Y-35764586D01*
X90119577Y-35769899D01*
X90118502Y-35775304D01*
X90117944Y-35775861D01*
X90117490Y-35777522D01*
X90091299Y-35829903D01*
X90087920Y-35834256D01*
X90084860Y-35838836D01*
X90058670Y-35865027D01*
X90054092Y-35868086D01*
X90049736Y-35871467D01*
X89997354Y-35897657D01*
X89995694Y-35898111D01*
X89995137Y-35898669D01*
X89989736Y-35899743D01*
X89984418Y-35901200D01*
X89983669Y-35900950D01*
X89981982Y-35901286D01*
X89903410Y-35901286D01*
X89901721Y-35900950D01*
X89900974Y-35901199D01*
X89895662Y-35899744D01*
X89890255Y-35898669D01*
X89889697Y-35898111D01*
X89888037Y-35897657D01*
X89835656Y-35871467D01*
X89831299Y-35868086D01*
X89826722Y-35865027D01*
X89800532Y-35838836D01*
X89797471Y-35834256D01*
X89794093Y-35829903D01*
X89767902Y-35777522D01*
X89767447Y-35775861D01*
X89766890Y-35775304D01*
X89765814Y-35769899D01*
X89764360Y-35764586D01*
X89764609Y-35763838D01*
X89764273Y-35762149D01*
X89764273Y-35613121D01*
X89833023Y-35613121D01*
X89833023Y-35754033D01*
X89853091Y-35794169D01*
X89871391Y-35812469D01*
X89911525Y-35832536D01*
X89973867Y-35832536D01*
X90014001Y-35812469D01*
X90032300Y-35794169D01*
X90052369Y-35754033D01*
X90052369Y-35613121D01*
X90032302Y-35572988D01*
X90013999Y-35554685D01*
X89973867Y-35534619D01*
X89911525Y-35534619D01*
X89871392Y-35554685D01*
X89853089Y-35572988D01*
X89833023Y-35613121D01*
X89764273Y-35613121D01*
X89764273Y-35605006D01*
X89764609Y-35603316D01*
X89764360Y-35602569D01*
X89765814Y-35597255D01*
X89766890Y-35591851D01*
X89767447Y-35591293D01*
X89767902Y-35589633D01*
X89794093Y-35537252D01*
X89797471Y-35532898D01*
X89800532Y-35528318D01*
X89826722Y-35502128D01*
X89831302Y-35499067D01*
X89835656Y-35495689D01*
X89888037Y-35469498D01*
X89889697Y-35469043D01*
X89890255Y-35468486D01*
X89895659Y-35467410D01*
X89900973Y-35465956D01*
X89901720Y-35466205D01*
X89903410Y-35465869D01*
X89981982Y-35465869D01*
X89983671Y-35466205D01*
X89984419Y-35465956D01*
X89989732Y-35467410D01*
X89995137Y-35468486D01*
X89995694Y-35469043D01*
X89997355Y-35469498D01*
X90049736Y-35495689D01*
X90054089Y-35499067D01*
X90058670Y-35502128D01*
X90084860Y-35528318D01*
X90087920Y-35532898D01*
X90091299Y-35537252D01*
X90117490Y-35589633D01*
X90117944Y-35591293D01*
X90118502Y-35591851D01*
X90119577Y-35597255D01*
X90121032Y-35602569D01*
X90120782Y-35603316D01*
X90121119Y-35605006D01*
X90121119Y-35613121D01*
X90121119Y-35762149D01*
G37*
G36*
X91116357Y-35788340D02*
G01*
X91116020Y-35790029D01*
X91116270Y-35790777D01*
X91114815Y-35796090D01*
X91113740Y-35801495D01*
X91113182Y-35802052D01*
X91112728Y-35803713D01*
X91086537Y-35856094D01*
X91082340Y-35861500D01*
X91081760Y-35863243D01*
X91079819Y-35864749D01*
X91078313Y-35866690D01*
X91076570Y-35867270D01*
X91071164Y-35871467D01*
X91018782Y-35897657D01*
X91017122Y-35898111D01*
X91016565Y-35898669D01*
X91011164Y-35899743D01*
X91005846Y-35901200D01*
X91005097Y-35900950D01*
X91003410Y-35901286D01*
X90872458Y-35901286D01*
X90870769Y-35900950D01*
X90870022Y-35901199D01*
X90864710Y-35899744D01*
X90859303Y-35898669D01*
X90858745Y-35898111D01*
X90857085Y-35897657D01*
X90841857Y-35890043D01*
X90833232Y-35898669D01*
X90806922Y-35898669D01*
X90788319Y-35880066D01*
X90785702Y-35866911D01*
X90785702Y-35686816D01*
X90854452Y-35686816D01*
X90854452Y-35819476D01*
X90880573Y-35832536D01*
X90995295Y-35832536D01*
X91030169Y-35815099D01*
X91047607Y-35780224D01*
X91047607Y-35744074D01*
X91030169Y-35709199D01*
X90995295Y-35691762D01*
X90872458Y-35691762D01*
X90870769Y-35691426D01*
X90870022Y-35691675D01*
X90864710Y-35690220D01*
X90859303Y-35689145D01*
X90858745Y-35688587D01*
X90857085Y-35688133D01*
X90854452Y-35686816D01*
X90785702Y-35686816D01*
X90785702Y-35578816D01*
X90786037Y-35577128D01*
X90785788Y-35576380D01*
X90787244Y-35571061D01*
X90788319Y-35565661D01*
X90788876Y-35565103D01*
X90789331Y-35563444D01*
X90815521Y-35511062D01*
X90819717Y-35505655D01*
X90820298Y-35503913D01*
X90822238Y-35502406D01*
X90823745Y-35500466D01*
X90825487Y-35499885D01*
X90830894Y-35495689D01*
X90883275Y-35469498D01*
X90884935Y-35469043D01*
X90885493Y-35468486D01*
X90890897Y-35467410D01*
X90896211Y-35465956D01*
X90896958Y-35466205D01*
X90898648Y-35465869D01*
X91003410Y-35465869D01*
X91005099Y-35466205D01*
X91005847Y-35465956D01*
X91011160Y-35467410D01*
X91016565Y-35468486D01*
X91017122Y-35469043D01*
X91018783Y-35469498D01*
X91071164Y-35495689D01*
X91081760Y-35503913D01*
X91090079Y-35528872D01*
X91078313Y-35552404D01*
X91053354Y-35560723D01*
X91040418Y-35557181D01*
X90995295Y-35534619D01*
X90906763Y-35534619D01*
X90871888Y-35552056D01*
X90854452Y-35586930D01*
X90854452Y-35609952D01*
X90880573Y-35623012D01*
X91003410Y-35623012D01*
X91005099Y-35623348D01*
X91005847Y-35623099D01*
X91011160Y-35624553D01*
X91016565Y-35625629D01*
X91017122Y-35626186D01*
X91018783Y-35626641D01*
X91071164Y-35652832D01*
X91076570Y-35657028D01*
X91078313Y-35657609D01*
X91079819Y-35659549D01*
X91081760Y-35661056D01*
X91082340Y-35662798D01*
X91086537Y-35668205D01*
X91112728Y-35720586D01*
X91113182Y-35722246D01*
X91113740Y-35722804D01*
X91114815Y-35728208D01*
X91116270Y-35733522D01*
X91116020Y-35734269D01*
X91116357Y-35735959D01*
X91116357Y-35744074D01*
X91116357Y-35788340D01*
G37*
G36*
X91875881Y-35762149D02*
G01*
X91875544Y-35763838D01*
X91875794Y-35764586D01*
X91874339Y-35769899D01*
X91873264Y-35775304D01*
X91872706Y-35775861D01*
X91872252Y-35777522D01*
X91846061Y-35829903D01*
X91842682Y-35834256D01*
X91839622Y-35838836D01*
X91813432Y-35865027D01*
X91808854Y-35868086D01*
X91804498Y-35871467D01*
X91752116Y-35897657D01*
X91750456Y-35898111D01*
X91749899Y-35898669D01*
X91744498Y-35899743D01*
X91739180Y-35901200D01*
X91738431Y-35900950D01*
X91736744Y-35901286D01*
X91631982Y-35901286D01*
X91630293Y-35900950D01*
X91629546Y-35901199D01*
X91624234Y-35899744D01*
X91618827Y-35898669D01*
X91618269Y-35898111D01*
X91616609Y-35897657D01*
X91601381Y-35890043D01*
X91592756Y-35898669D01*
X91566446Y-35898669D01*
X91547843Y-35880066D01*
X91545226Y-35866911D01*
X91545226Y-35547679D01*
X91613976Y-35547679D01*
X91613976Y-35819476D01*
X91640097Y-35832536D01*
X91728629Y-35832536D01*
X91768763Y-35812469D01*
X91787062Y-35794169D01*
X91807131Y-35754033D01*
X91807131Y-35613121D01*
X91787064Y-35572988D01*
X91768761Y-35554685D01*
X91728629Y-35534619D01*
X91640097Y-35534619D01*
X91613976Y-35547679D01*
X91545226Y-35547679D01*
X91545226Y-35316911D01*
X91547843Y-35303756D01*
X91566446Y-35285153D01*
X91592756Y-35285153D01*
X91611359Y-35303756D01*
X91613976Y-35316911D01*
X91613976Y-35470814D01*
X91616609Y-35469498D01*
X91618269Y-35469043D01*
X91618827Y-35468486D01*
X91624231Y-35467410D01*
X91629545Y-35465956D01*
X91630292Y-35466205D01*
X91631982Y-35465869D01*
X91736744Y-35465869D01*
X91738433Y-35466205D01*
X91739181Y-35465956D01*
X91744494Y-35467410D01*
X91749899Y-35468486D01*
X91750456Y-35469043D01*
X91752117Y-35469498D01*
X91804498Y-35495689D01*
X91808851Y-35499067D01*
X91813432Y-35502128D01*
X91839622Y-35528318D01*
X91842682Y-35532898D01*
X91846061Y-35537252D01*
X91872252Y-35589633D01*
X91872706Y-35591293D01*
X91873264Y-35591851D01*
X91874339Y-35597255D01*
X91875794Y-35602569D01*
X91875544Y-35603316D01*
X91875881Y-35605006D01*
X91875881Y-35613121D01*
X91875881Y-35762149D01*
G37*
G36*
X92373500Y-35788340D02*
G01*
X92373163Y-35790029D01*
X92373413Y-35790777D01*
X92371958Y-35796090D01*
X92370883Y-35801495D01*
X92370325Y-35802052D01*
X92369871Y-35803713D01*
X92343680Y-35856094D01*
X92339483Y-35861500D01*
X92338903Y-35863243D01*
X92336962Y-35864749D01*
X92335456Y-35866690D01*
X92333713Y-35867270D01*
X92328307Y-35871467D01*
X92275925Y-35897657D01*
X92274265Y-35898111D01*
X92273708Y-35898669D01*
X92268307Y-35899743D01*
X92262989Y-35901200D01*
X92262240Y-35900950D01*
X92260553Y-35901286D01*
X92129601Y-35901286D01*
X92127912Y-35900950D01*
X92127165Y-35901199D01*
X92121853Y-35899744D01*
X92116446Y-35898669D01*
X92115888Y-35898111D01*
X92114228Y-35897657D01*
X92099000Y-35890043D01*
X92090375Y-35898669D01*
X92064065Y-35898669D01*
X92045462Y-35880066D01*
X92042845Y-35866911D01*
X92042845Y-35686816D01*
X92111595Y-35686816D01*
X92111595Y-35819476D01*
X92137716Y-35832536D01*
X92252438Y-35832536D01*
X92287312Y-35815099D01*
X92304750Y-35780224D01*
X92304750Y-35744074D01*
X92287312Y-35709199D01*
X92252438Y-35691762D01*
X92129601Y-35691762D01*
X92127912Y-35691426D01*
X92127165Y-35691675D01*
X92121853Y-35690220D01*
X92116446Y-35689145D01*
X92115888Y-35688587D01*
X92114228Y-35688133D01*
X92111595Y-35686816D01*
X92042845Y-35686816D01*
X92042845Y-35578816D01*
X92043180Y-35577128D01*
X92042931Y-35576380D01*
X92044387Y-35571061D01*
X92045462Y-35565661D01*
X92046019Y-35565103D01*
X92046474Y-35563444D01*
X92072664Y-35511062D01*
X92076860Y-35505655D01*
X92077441Y-35503913D01*
X92079381Y-35502406D01*
X92080888Y-35500466D01*
X92082630Y-35499885D01*
X92088037Y-35495689D01*
X92140418Y-35469498D01*
X92142078Y-35469043D01*
X92142636Y-35468486D01*
X92148040Y-35467410D01*
X92153354Y-35465956D01*
X92154101Y-35466205D01*
X92155791Y-35465869D01*
X92260553Y-35465869D01*
X92262242Y-35466205D01*
X92262990Y-35465956D01*
X92268303Y-35467410D01*
X92273708Y-35468486D01*
X92274265Y-35469043D01*
X92275926Y-35469498D01*
X92328307Y-35495689D01*
X92338903Y-35503913D01*
X92347222Y-35528872D01*
X92335456Y-35552404D01*
X92310497Y-35560723D01*
X92297561Y-35557181D01*
X92252438Y-35534619D01*
X92163906Y-35534619D01*
X92129031Y-35552056D01*
X92111595Y-35586930D01*
X92111595Y-35609952D01*
X92137716Y-35623012D01*
X92260553Y-35623012D01*
X92262242Y-35623348D01*
X92262990Y-35623099D01*
X92268303Y-35624553D01*
X92273708Y-35625629D01*
X92274265Y-35626186D01*
X92275926Y-35626641D01*
X92328307Y-35652832D01*
X92333713Y-35657028D01*
X92335456Y-35657609D01*
X92336962Y-35659549D01*
X92338903Y-35661056D01*
X92339483Y-35662798D01*
X92343680Y-35668205D01*
X92369871Y-35720586D01*
X92370325Y-35722246D01*
X92370883Y-35722804D01*
X92371958Y-35728208D01*
X92373413Y-35733522D01*
X92373163Y-35734269D01*
X92373500Y-35735959D01*
X92373500Y-35744074D01*
X92373500Y-35788340D01*
G37*
G36*
X93656833Y-35788340D02*
G01*
X93656496Y-35790029D01*
X93656746Y-35790777D01*
X93655291Y-35796090D01*
X93654216Y-35801495D01*
X93653658Y-35802052D01*
X93653204Y-35803713D01*
X93627013Y-35856094D01*
X93622816Y-35861500D01*
X93622236Y-35863243D01*
X93620295Y-35864749D01*
X93618789Y-35866690D01*
X93617046Y-35867270D01*
X93611640Y-35871467D01*
X93559258Y-35897657D01*
X93557598Y-35898111D01*
X93557041Y-35898669D01*
X93551640Y-35899743D01*
X93546322Y-35901200D01*
X93545573Y-35900950D01*
X93543886Y-35901286D01*
X93412934Y-35901286D01*
X93411245Y-35900950D01*
X93410498Y-35901199D01*
X93405186Y-35899744D01*
X93399779Y-35898669D01*
X93399221Y-35898111D01*
X93397561Y-35897657D01*
X93382333Y-35890043D01*
X93373708Y-35898669D01*
X93347398Y-35898669D01*
X93328795Y-35880066D01*
X93326178Y-35866911D01*
X93326178Y-35686816D01*
X93394928Y-35686816D01*
X93394928Y-35819476D01*
X93421049Y-35832536D01*
X93535771Y-35832536D01*
X93570645Y-35815099D01*
X93588083Y-35780224D01*
X93588083Y-35744074D01*
X93570645Y-35709199D01*
X93535771Y-35691762D01*
X93412934Y-35691762D01*
X93411245Y-35691426D01*
X93410498Y-35691675D01*
X93405186Y-35690220D01*
X93399779Y-35689145D01*
X93399221Y-35688587D01*
X93397561Y-35688133D01*
X93394928Y-35686816D01*
X93326178Y-35686816D01*
X93326178Y-35578816D01*
X93326513Y-35577128D01*
X93326264Y-35576380D01*
X93327720Y-35571061D01*
X93328795Y-35565661D01*
X93329352Y-35565103D01*
X93329807Y-35563444D01*
X93355997Y-35511062D01*
X93360193Y-35505655D01*
X93360774Y-35503913D01*
X93362714Y-35502406D01*
X93364221Y-35500466D01*
X93365963Y-35499885D01*
X93371370Y-35495689D01*
X93423751Y-35469498D01*
X93425411Y-35469043D01*
X93425969Y-35468486D01*
X93431373Y-35467410D01*
X93436687Y-35465956D01*
X93437434Y-35466205D01*
X93439124Y-35465869D01*
X93543886Y-35465869D01*
X93545575Y-35466205D01*
X93546323Y-35465956D01*
X93551636Y-35467410D01*
X93557041Y-35468486D01*
X93557598Y-35469043D01*
X93559259Y-35469498D01*
X93611640Y-35495689D01*
X93622236Y-35503913D01*
X93630555Y-35528872D01*
X93618789Y-35552404D01*
X93593830Y-35560723D01*
X93580894Y-35557181D01*
X93535771Y-35534619D01*
X93447239Y-35534619D01*
X93412364Y-35552056D01*
X93394928Y-35586930D01*
X93394928Y-35609952D01*
X93421049Y-35623012D01*
X93543886Y-35623012D01*
X93545575Y-35623348D01*
X93546323Y-35623099D01*
X93551636Y-35624553D01*
X93557041Y-35625629D01*
X93557598Y-35626186D01*
X93559259Y-35626641D01*
X93611640Y-35652832D01*
X93617046Y-35657028D01*
X93618789Y-35657609D01*
X93620295Y-35659549D01*
X93622236Y-35661056D01*
X93622816Y-35662798D01*
X93627013Y-35668205D01*
X93653204Y-35720586D01*
X93653658Y-35722246D01*
X93654216Y-35722804D01*
X93655291Y-35728208D01*
X93656746Y-35733522D01*
X93656496Y-35734269D01*
X93656833Y-35735959D01*
X93656833Y-35744074D01*
X93656833Y-35788340D01*
G37*
G36*
X95405098Y-35466205D02*
G01*
X95405846Y-35465956D01*
X95411159Y-35467410D01*
X95416564Y-35468486D01*
X95417121Y-35469043D01*
X95418782Y-35469498D01*
X95471163Y-35495689D01*
X95476569Y-35499885D01*
X95478312Y-35500466D01*
X95479818Y-35502406D01*
X95481759Y-35503913D01*
X95482339Y-35505655D01*
X95486536Y-35511062D01*
X95512727Y-35563443D01*
X95513181Y-35565103D01*
X95513739Y-35565661D01*
X95514814Y-35571065D01*
X95516269Y-35576379D01*
X95516019Y-35577126D01*
X95516356Y-35578816D01*
X95516356Y-35605006D01*
X95516019Y-35606695D01*
X95516269Y-35607443D01*
X95514814Y-35612756D01*
X95513739Y-35618161D01*
X95513181Y-35618718D01*
X95512727Y-35620379D01*
X95486536Y-35672760D01*
X95482339Y-35678166D01*
X95481759Y-35679909D01*
X95479818Y-35681415D01*
X95478312Y-35683356D01*
X95476569Y-35683936D01*
X95471163Y-35688133D01*
X95418782Y-35714324D01*
X95417121Y-35714778D01*
X95416564Y-35715336D01*
X95411159Y-35716411D01*
X95405846Y-35717866D01*
X95405098Y-35717616D01*
X95403409Y-35717953D01*
X95332953Y-35717953D01*
X95298078Y-35735389D01*
X95280641Y-35770264D01*
X95280641Y-35780224D01*
X95298078Y-35815099D01*
X95332953Y-35832536D01*
X95421485Y-35832536D01*
X95466608Y-35809975D01*
X95479545Y-35806433D01*
X95504503Y-35814752D01*
X95516269Y-35838285D01*
X95507950Y-35863243D01*
X95497354Y-35871467D01*
X95444972Y-35897657D01*
X95443312Y-35898111D01*
X95442755Y-35898669D01*
X95437354Y-35899743D01*
X95432036Y-35901200D01*
X95431287Y-35900950D01*
X95429600Y-35901286D01*
X95324838Y-35901286D01*
X95323149Y-35900950D01*
X95322402Y-35901199D01*
X95317090Y-35899744D01*
X95311683Y-35898669D01*
X95311125Y-35898111D01*
X95309465Y-35897657D01*
X95257084Y-35871467D01*
X95251677Y-35867270D01*
X95249935Y-35866690D01*
X95248428Y-35864749D01*
X95246488Y-35863243D01*
X95245907Y-35861500D01*
X95241711Y-35856094D01*
X95215520Y-35803713D01*
X95215065Y-35802052D01*
X95214508Y-35801495D01*
X95213432Y-35796090D01*
X95211978Y-35790777D01*
X95212227Y-35790029D01*
X95211891Y-35788340D01*
X95211891Y-35762149D01*
X95212227Y-35760459D01*
X95211978Y-35759712D01*
X95213432Y-35754398D01*
X95214508Y-35748994D01*
X95215065Y-35748436D01*
X95215520Y-35746776D01*
X95241711Y-35694395D01*
X95245907Y-35688988D01*
X95246488Y-35687246D01*
X95248428Y-35685739D01*
X95249935Y-35683799D01*
X95251677Y-35683218D01*
X95257084Y-35679022D01*
X95309465Y-35652832D01*
X95311125Y-35652377D01*
X95311683Y-35651820D01*
X95317090Y-35650744D01*
X95322402Y-35649290D01*
X95323149Y-35649538D01*
X95324838Y-35649203D01*
X95395294Y-35649203D01*
X95430168Y-35631765D01*
X95447606Y-35596890D01*
X95447606Y-35586931D01*
X95430168Y-35552056D01*
X95395294Y-35534619D01*
X95332953Y-35534619D01*
X95287830Y-35557181D01*
X95274894Y-35560723D01*
X95249935Y-35552404D01*
X95238169Y-35528872D01*
X95246488Y-35503913D01*
X95257084Y-35495689D01*
X95309465Y-35469498D01*
X95311125Y-35469043D01*
X95311683Y-35468486D01*
X95317087Y-35467410D01*
X95322401Y-35465956D01*
X95323148Y-35466205D01*
X95324838Y-35465869D01*
X95403409Y-35465869D01*
X95405098Y-35466205D01*
G37*
G36*
X96299453Y-35303756D02*
G01*
X96302070Y-35316911D01*
X96302070Y-35465869D01*
X96346267Y-35465869D01*
X96359422Y-35468486D01*
X96378025Y-35487089D01*
X96378025Y-35513399D01*
X96359422Y-35532002D01*
X96346267Y-35534619D01*
X96302070Y-35534619D01*
X96302070Y-35788340D01*
X96301734Y-35790028D01*
X96301983Y-35790776D01*
X96300528Y-35796087D01*
X96299453Y-35801495D01*
X96298895Y-35802052D01*
X96298441Y-35803713D01*
X96272251Y-35856094D01*
X96268054Y-35861500D01*
X96267474Y-35863243D01*
X96265533Y-35864749D01*
X96264027Y-35866690D01*
X96262284Y-35867270D01*
X96256878Y-35871467D01*
X96204496Y-35897657D01*
X96202836Y-35898111D01*
X96202279Y-35898669D01*
X96196878Y-35899743D01*
X96191560Y-35901200D01*
X96190811Y-35900950D01*
X96189124Y-35901286D01*
X96136743Y-35901286D01*
X96123588Y-35898669D01*
X96104985Y-35880066D01*
X96104985Y-35853756D01*
X96123588Y-35835153D01*
X96136743Y-35832536D01*
X96181009Y-35832536D01*
X96215883Y-35815099D01*
X96233320Y-35780225D01*
X96233320Y-35534619D01*
X96136743Y-35534619D01*
X96123588Y-35532002D01*
X96104985Y-35513399D01*
X96104985Y-35487089D01*
X96123588Y-35468486D01*
X96136743Y-35465869D01*
X96233320Y-35465869D01*
X96233320Y-35316911D01*
X96235937Y-35303756D01*
X96254540Y-35285153D01*
X96280850Y-35285153D01*
X96299453Y-35303756D01*
G37*
G36*
X96613739Y-35303756D02*
G01*
X96616356Y-35316911D01*
X96616356Y-35465869D01*
X96660553Y-35465869D01*
X96673708Y-35468486D01*
X96692311Y-35487089D01*
X96692311Y-35513399D01*
X96673708Y-35532002D01*
X96660553Y-35534619D01*
X96616356Y-35534619D01*
X96616356Y-35788340D01*
X96616020Y-35790028D01*
X96616269Y-35790776D01*
X96614814Y-35796087D01*
X96613739Y-35801495D01*
X96613181Y-35802052D01*
X96612727Y-35803713D01*
X96586537Y-35856094D01*
X96582340Y-35861500D01*
X96581760Y-35863243D01*
X96579819Y-35864749D01*
X96578313Y-35866690D01*
X96576570Y-35867270D01*
X96571164Y-35871467D01*
X96518782Y-35897657D01*
X96517122Y-35898111D01*
X96516565Y-35898669D01*
X96511164Y-35899743D01*
X96505846Y-35901200D01*
X96505097Y-35900950D01*
X96503410Y-35901286D01*
X96451029Y-35901286D01*
X96437874Y-35898669D01*
X96419271Y-35880066D01*
X96419271Y-35853756D01*
X96437874Y-35835153D01*
X96451029Y-35832536D01*
X96495295Y-35832536D01*
X96530169Y-35815099D01*
X96547606Y-35780225D01*
X96547606Y-35534619D01*
X96451029Y-35534619D01*
X96437874Y-35532002D01*
X96419271Y-35513399D01*
X96419271Y-35487089D01*
X96437874Y-35468486D01*
X96451029Y-35465869D01*
X96547606Y-35465869D01*
X96547606Y-35316911D01*
X96550223Y-35303756D01*
X96568826Y-35285153D01*
X96595136Y-35285153D01*
X96613739Y-35303756D01*
G37*
G36*
X92789930Y-35303756D02*
G01*
X92792547Y-35316911D01*
X92792547Y-35866911D01*
X92789930Y-35880066D01*
X92771327Y-35898669D01*
X92745017Y-35898669D01*
X92726414Y-35880066D01*
X92723797Y-35866911D01*
X92723797Y-35724007D01*
X92709510Y-35709720D01*
X92576148Y-35887536D01*
X92566161Y-35896490D01*
X92540117Y-35900210D01*
X92519069Y-35884424D01*
X92515349Y-35858380D01*
X92521148Y-35846286D01*
X92660402Y-35660612D01*
X92524341Y-35524551D01*
X92516889Y-35513398D01*
X92516889Y-35487089D01*
X92535493Y-35468485D01*
X92561802Y-35468485D01*
X92572955Y-35475937D01*
X92723797Y-35626779D01*
X92723797Y-35316911D01*
X92726414Y-35303756D01*
X92745017Y-35285153D01*
X92771327Y-35285153D01*
X92789930Y-35303756D01*
G37*
G36*
X88172955Y-35790223D02*
G01*
X88199146Y-35816414D01*
X88206594Y-35827563D01*
X88206598Y-35827567D01*
X88206597Y-35853876D01*
X88199145Y-35865028D01*
X88172954Y-35891218D01*
X88161802Y-35898670D01*
X88135493Y-35898669D01*
X88135490Y-35898666D01*
X88124341Y-35891218D01*
X88098151Y-35865028D01*
X88090702Y-35853878D01*
X88090700Y-35853876D01*
X88090699Y-35827567D01*
X88098151Y-35816415D01*
X88124341Y-35790224D01*
X88135489Y-35782774D01*
X88135493Y-35782771D01*
X88161802Y-35782771D01*
X88172955Y-35790223D01*
G37*
G36*
X95034859Y-35790223D02*
G01*
X95061050Y-35816414D01*
X95068498Y-35827563D01*
X95068502Y-35827567D01*
X95068501Y-35853876D01*
X95061049Y-35865028D01*
X95034858Y-35891218D01*
X95023706Y-35898670D01*
X94997397Y-35898669D01*
X94997394Y-35898666D01*
X94986245Y-35891218D01*
X94960055Y-35865028D01*
X94952606Y-35853878D01*
X94952604Y-35853876D01*
X94952603Y-35827567D01*
X94960055Y-35816415D01*
X94986245Y-35790224D01*
X94997393Y-35782774D01*
X94997397Y-35782771D01*
X95023706Y-35782771D01*
X95034859Y-35790223D01*
G37*
G36*
X90589930Y-35303756D02*
G01*
X90592547Y-35316911D01*
X90592547Y-35866911D01*
X90589930Y-35880066D01*
X90571327Y-35898669D01*
X90545017Y-35898669D01*
X90526414Y-35880066D01*
X90523797Y-35866911D01*
X90523797Y-35566864D01*
X90511618Y-35554685D01*
X90471486Y-35534619D01*
X90409144Y-35534619D01*
X90374269Y-35552056D01*
X90356833Y-35586930D01*
X90356833Y-35866911D01*
X90354216Y-35880066D01*
X90335613Y-35898669D01*
X90309303Y-35898669D01*
X90290700Y-35880066D01*
X90288083Y-35866911D01*
X90288083Y-35578816D01*
X90288418Y-35577128D01*
X90288169Y-35576380D01*
X90289625Y-35571061D01*
X90290700Y-35565661D01*
X90291257Y-35565103D01*
X90291712Y-35563444D01*
X90317902Y-35511062D01*
X90322098Y-35505655D01*
X90322679Y-35503913D01*
X90324619Y-35502406D01*
X90326126Y-35500466D01*
X90327868Y-35499885D01*
X90333275Y-35495689D01*
X90385656Y-35469498D01*
X90387316Y-35469043D01*
X90387874Y-35468486D01*
X90393278Y-35467410D01*
X90398592Y-35465956D01*
X90399339Y-35466205D01*
X90401029Y-35465869D01*
X90479601Y-35465869D01*
X90481290Y-35466205D01*
X90482038Y-35465956D01*
X90487351Y-35467410D01*
X90492756Y-35468486D01*
X90493313Y-35469043D01*
X90494974Y-35469498D01*
X90523797Y-35483909D01*
X90523797Y-35316911D01*
X90526414Y-35303756D01*
X90545017Y-35285153D01*
X90571327Y-35285153D01*
X90589930Y-35303756D01*
G37*
G36*
X91349454Y-35487089D02*
G01*
X91352071Y-35500244D01*
X91352071Y-35866911D01*
X91349454Y-35880066D01*
X91330851Y-35898669D01*
X91304541Y-35898669D01*
X91285938Y-35880066D01*
X91283321Y-35866911D01*
X91283321Y-35500244D01*
X91285938Y-35487089D01*
X91304541Y-35468486D01*
X91330851Y-35468486D01*
X91349454Y-35487089D01*
G37*
G36*
X92995575Y-35466205D02*
G01*
X92996323Y-35465956D01*
X93001636Y-35467410D01*
X93007041Y-35468486D01*
X93007598Y-35469043D01*
X93009259Y-35469498D01*
X93061640Y-35495689D01*
X93064705Y-35498068D01*
X93066890Y-35487089D01*
X93085493Y-35468486D01*
X93111803Y-35468486D01*
X93130406Y-35487089D01*
X93133023Y-35500244D01*
X93133023Y-35866911D01*
X93130406Y-35880066D01*
X93111803Y-35898669D01*
X93085493Y-35898669D01*
X93066890Y-35880066D01*
X93064273Y-35866911D01*
X93064273Y-35613120D01*
X93044206Y-35572987D01*
X93025906Y-35554687D01*
X92985771Y-35534619D01*
X92941505Y-35534619D01*
X92928350Y-35532002D01*
X92909747Y-35513399D01*
X92909747Y-35487089D01*
X92928350Y-35468486D01*
X92941505Y-35465869D01*
X92993886Y-35465869D01*
X92995575Y-35466205D01*
G37*
G36*
X97111358Y-35303756D02*
G01*
X97113975Y-35316911D01*
X97113975Y-35866911D01*
X97111358Y-35880066D01*
X97092755Y-35898669D01*
X97066445Y-35898669D01*
X97047842Y-35880066D01*
X97045225Y-35866911D01*
X97045225Y-35566864D01*
X97033046Y-35554685D01*
X96992914Y-35534619D01*
X96930572Y-35534619D01*
X96895697Y-35552056D01*
X96878261Y-35586930D01*
X96878261Y-35866911D01*
X96875644Y-35880066D01*
X96857041Y-35898669D01*
X96830731Y-35898669D01*
X96812128Y-35880066D01*
X96809511Y-35866911D01*
X96809511Y-35578816D01*
X96809846Y-35577128D01*
X96809597Y-35576380D01*
X96811053Y-35571061D01*
X96812128Y-35565661D01*
X96812685Y-35565103D01*
X96813140Y-35563444D01*
X96839330Y-35511062D01*
X96843526Y-35505655D01*
X96844107Y-35503913D01*
X96846047Y-35502406D01*
X96847554Y-35500466D01*
X96849296Y-35499885D01*
X96854703Y-35495689D01*
X96907084Y-35469498D01*
X96908744Y-35469043D01*
X96909302Y-35468486D01*
X96914706Y-35467410D01*
X96920020Y-35465956D01*
X96920767Y-35466205D01*
X96922457Y-35465869D01*
X97001029Y-35465869D01*
X97002718Y-35466205D01*
X97003466Y-35465956D01*
X97008779Y-35467410D01*
X97014184Y-35468486D01*
X97014741Y-35469043D01*
X97016402Y-35469498D01*
X97045225Y-35483909D01*
X97045225Y-35316911D01*
X97047842Y-35303756D01*
X97066445Y-35285153D01*
X97092755Y-35285153D01*
X97111358Y-35303756D01*
G37*
G36*
X95034858Y-35502128D02*
G01*
X95061049Y-35528318D01*
X95068501Y-35539470D01*
X95068502Y-35565779D01*
X95068498Y-35565782D01*
X95061050Y-35576932D01*
X95034859Y-35603123D01*
X95023706Y-35610575D01*
X94997397Y-35610575D01*
X94997393Y-35610571D01*
X94986245Y-35603122D01*
X94960055Y-35576931D01*
X94952603Y-35565779D01*
X94952604Y-35539470D01*
X94952606Y-35539467D01*
X94960055Y-35528318D01*
X94986245Y-35502128D01*
X94997394Y-35494679D01*
X94997397Y-35494677D01*
X95023706Y-35494676D01*
X95034858Y-35502128D01*
G37*
G36*
X91342002Y-35292604D02*
G01*
X91368193Y-35318794D01*
X91375645Y-35329946D01*
X91375646Y-35356255D01*
X91375642Y-35356258D01*
X91368194Y-35367408D01*
X91342003Y-35393599D01*
X91330850Y-35401051D01*
X91304541Y-35401051D01*
X91304537Y-35401047D01*
X91293389Y-35393598D01*
X91267199Y-35367407D01*
X91259747Y-35356255D01*
X91259748Y-35329946D01*
X91259750Y-35329943D01*
X91267199Y-35318794D01*
X91293389Y-35292604D01*
X91304538Y-35285155D01*
X91304541Y-35285153D01*
X91330850Y-35285152D01*
X91342002Y-35292604D01*
G37*
G36*
X89929600Y-31857000D02*
G01*
X89529600Y-31857000D01*
X89529600Y-31457000D01*
X89929600Y-31457000D01*
X89929600Y-31857000D01*
G37*
G36*
X90729600Y-31857000D02*
G01*
X91129600Y-31857000D01*
X91129600Y-32257000D01*
X91529600Y-32257000D01*
X91529600Y-31857000D01*
X91529600Y-31457000D01*
X91929600Y-31457000D01*
X91929600Y-31857000D01*
X92329600Y-31857000D01*
X92329600Y-31457000D01*
X91929600Y-31457000D01*
X91929600Y-31057000D01*
X92729600Y-31057000D01*
X92729600Y-31457000D01*
X93529600Y-31457000D01*
X93529600Y-31857000D01*
X93129600Y-31857000D01*
X93129600Y-32257000D01*
X92729600Y-32257000D01*
X92729600Y-31857000D01*
X92329600Y-31857000D01*
X92329600Y-32257000D01*
X92329600Y-32657000D01*
X91929600Y-32657000D01*
X91929600Y-32257000D01*
X91529600Y-32257000D01*
X91529600Y-32657000D01*
X90729600Y-32657000D01*
X90729600Y-33057000D01*
X90329600Y-33057000D01*
X90329600Y-33457000D01*
X90329600Y-33857000D01*
X89929600Y-33857000D01*
X89929600Y-34257000D01*
X89529600Y-34257000D01*
X89529600Y-33857000D01*
X88729600Y-33857000D01*
X88729600Y-33457000D01*
X88329600Y-33457000D01*
X88329600Y-33857000D01*
X87529600Y-33857000D01*
X87529600Y-34257000D01*
X87129600Y-34257000D01*
X87129600Y-33857000D01*
X87129600Y-33457000D01*
X87129600Y-33057000D01*
X87129600Y-32257000D01*
X87529600Y-32257000D01*
X87529600Y-31857000D01*
X87929600Y-31857000D01*
X87929600Y-32257000D01*
X87929600Y-33057000D01*
X89129600Y-33057000D01*
X89129600Y-33457000D01*
X89929600Y-33457000D01*
X89929600Y-33057000D01*
X89529600Y-33057000D01*
X89529600Y-32657000D01*
X88729600Y-32657000D01*
X88729600Y-32257000D01*
X88729600Y-31057000D01*
X89129600Y-31057000D01*
X89129600Y-32257000D01*
X90329600Y-32257000D01*
X90329600Y-31857000D01*
X90329600Y-31057000D01*
X89129600Y-31057000D01*
X88729600Y-31057000D01*
X88729600Y-30657000D01*
X89129600Y-30657000D01*
X89129600Y-30257000D01*
X89529600Y-30257000D01*
X89529600Y-30657000D01*
X89929600Y-30657000D01*
X89929600Y-30257000D01*
X90729600Y-30257000D01*
X90729600Y-30657000D01*
X90729600Y-31057000D01*
X90729600Y-31857000D01*
G37*
G36*
X88729600Y-34257000D02*
G01*
X88329600Y-34257000D01*
X88329600Y-33857000D01*
X88729600Y-33857000D01*
X88729600Y-34257000D01*
G37*
G36*
X90729600Y-34257000D02*
G01*
X90329600Y-34257000D01*
X90329600Y-33857000D01*
X90729600Y-33857000D01*
X90729600Y-34257000D01*
G37*
G36*
X92329600Y-33457000D02*
G01*
X91529600Y-33457000D01*
X91529600Y-33857000D01*
X92329600Y-33857000D01*
X92329600Y-34257000D01*
X91129600Y-34257000D01*
X91129600Y-33857000D01*
X91129600Y-33457000D01*
X91129600Y-33057000D01*
X92329600Y-33057000D01*
X92329600Y-33457000D01*
G37*
G36*
X93929600Y-33857000D02*
G01*
X93929600Y-34257000D01*
X93129600Y-34257000D01*
X93129600Y-33857000D01*
X92729600Y-33857000D01*
X92729600Y-33457000D01*
X93929600Y-33457000D01*
X93929600Y-33857000D01*
G37*
G36*
X96329600Y-33457000D02*
G01*
X95129600Y-33457000D01*
X95129600Y-32257000D01*
X96329600Y-32257000D01*
X96329600Y-33457000D01*
G37*
G36*
X97129600Y-33857000D02*
G01*
X97129600Y-34257000D01*
X94329600Y-34257000D01*
X94329600Y-33857000D01*
X94329600Y-31857000D01*
X94729600Y-31857000D01*
X94729600Y-33857000D01*
X96729600Y-33857000D01*
X96729600Y-31857000D01*
X94729600Y-31857000D01*
X94329600Y-31857000D01*
X94329600Y-31457000D01*
X97129600Y-31457000D01*
X97129600Y-31857000D01*
X97129600Y-33857000D01*
G37*
G36*
X93129600Y-33057000D02*
G01*
X92729600Y-33057000D01*
X92729600Y-32657000D01*
X93129600Y-32657000D01*
X93129600Y-33057000D01*
G37*
G36*
X93929600Y-33057000D02*
G01*
X93529600Y-33057000D01*
X93529600Y-32257000D01*
X93929600Y-32257000D01*
X93929600Y-33057000D01*
G37*
G36*
X87529600Y-31857000D02*
G01*
X87129600Y-31857000D01*
X87129600Y-31457000D01*
X87529600Y-31457000D01*
X87529600Y-31857000D01*
G37*
G36*
X87929600Y-29857000D02*
G01*
X88729600Y-29857000D01*
X88729600Y-29457000D01*
X89129600Y-29457000D01*
X89129600Y-29857000D01*
X89129600Y-30257000D01*
X88729600Y-30257000D01*
X88729600Y-30657000D01*
X88329600Y-30657000D01*
X88329600Y-31457000D01*
X87529600Y-31457000D01*
X87529600Y-30657000D01*
X87929600Y-30657000D01*
X87929600Y-30257000D01*
X87529600Y-30257000D01*
X87529600Y-30657000D01*
X87129600Y-30657000D01*
X87129600Y-30257000D01*
X87129600Y-29857000D01*
X87529600Y-29857000D01*
X87529600Y-29457000D01*
X87929600Y-29457000D01*
X87929600Y-29857000D01*
G37*
G36*
X91529600Y-31457000D02*
G01*
X91129600Y-31457000D01*
X91129600Y-31057000D01*
X91529600Y-31057000D01*
X91529600Y-31457000D01*
G37*
G36*
X93929600Y-31457000D02*
G01*
X93529600Y-31457000D01*
X93529600Y-31057000D01*
X93929600Y-31057000D01*
X93929600Y-31457000D01*
G37*
G36*
X91929600Y-31057000D02*
G01*
X91529600Y-31057000D01*
X91529600Y-30657000D01*
X91929600Y-30657000D01*
X91929600Y-31057000D01*
G37*
G36*
X93129600Y-31057000D02*
G01*
X92729600Y-31057000D01*
X92729600Y-30657000D01*
X93129600Y-30657000D01*
X93129600Y-31057000D01*
G37*
G36*
X95129600Y-30657000D02*
G01*
X95529600Y-30657000D01*
X95529600Y-31057000D01*
X94329600Y-31057000D01*
X94329600Y-30657000D01*
X94729600Y-30657000D01*
X94729600Y-30257000D01*
X95129600Y-30257000D01*
X95129600Y-30657000D01*
G37*
G36*
X96329600Y-31057000D02*
G01*
X95929600Y-31057000D01*
X95929600Y-30657000D01*
X96329600Y-30657000D01*
X96329600Y-31057000D01*
G37*
G36*
X97129600Y-29857000D02*
G01*
X97129600Y-30257000D01*
X97129600Y-31057000D01*
X96729600Y-31057000D01*
X96729600Y-30257000D01*
X95529600Y-30257000D01*
X95529600Y-29857000D01*
X96729600Y-29857000D01*
X96729600Y-29457000D01*
X97129600Y-29457000D01*
X97129600Y-29857000D01*
G37*
G36*
X91529600Y-27857000D02*
G01*
X91529600Y-28257000D01*
X91129600Y-28257000D01*
X91129600Y-28657000D01*
X90729600Y-28657000D01*
X90729600Y-29057000D01*
X91129600Y-29057000D01*
X91129600Y-28657000D01*
X91529600Y-28657000D01*
X91529600Y-29057000D01*
X91529600Y-29857000D01*
X91529600Y-30257000D01*
X91529600Y-30657000D01*
X91129600Y-30657000D01*
X91129600Y-30257000D01*
X90729600Y-30257000D01*
X90729600Y-29857000D01*
X90329600Y-29857000D01*
X90329600Y-29057000D01*
X89929600Y-29057000D01*
X89929600Y-28657000D01*
X88729600Y-28657000D01*
X88729600Y-29057000D01*
X87529600Y-29057000D01*
X87529600Y-29457000D01*
X87129600Y-29457000D01*
X87129600Y-29057000D01*
X87129600Y-28657000D01*
X87129600Y-28257000D01*
X87529600Y-28257000D01*
X87529600Y-28657000D01*
X88329600Y-28657000D01*
X88329600Y-28257000D01*
X87529600Y-28257000D01*
X87529600Y-27857000D01*
X89529600Y-27857000D01*
X89529600Y-28257000D01*
X89929600Y-28257000D01*
X89929600Y-27857000D01*
X90329600Y-27857000D01*
X90329600Y-28257000D01*
X90729600Y-28257000D01*
X90729600Y-27857000D01*
X91129600Y-27857000D01*
X91129600Y-27457000D01*
X91529600Y-27457000D01*
X91529600Y-27857000D01*
G37*
G36*
X92729600Y-30257000D02*
G01*
X92729600Y-30657000D01*
X92329600Y-30657000D01*
X92329600Y-30257000D01*
X91929600Y-30257000D01*
X91929600Y-29857000D01*
X92729600Y-29857000D01*
X92729600Y-30257000D01*
G37*
G36*
X95929600Y-27857000D02*
G01*
X95529600Y-27857000D01*
X95529600Y-28257000D01*
X95529600Y-28657000D01*
X94329600Y-28657000D01*
X94329600Y-29057000D01*
X94729600Y-29057000D01*
X94729600Y-29457000D01*
X93529600Y-29457000D01*
X93529600Y-29857000D01*
X93929600Y-29857000D01*
X93929600Y-30257000D01*
X93529600Y-30257000D01*
X93529600Y-30657000D01*
X93129600Y-30657000D01*
X93129600Y-30257000D01*
X93129600Y-29857000D01*
X93129600Y-29457000D01*
X93129600Y-29057000D01*
X92729600Y-29057000D01*
X92729600Y-29457000D01*
X91929600Y-29457000D01*
X91929600Y-29057000D01*
X91929600Y-28657000D01*
X92329600Y-28657000D01*
X92329600Y-28257000D01*
X93129600Y-28257000D01*
X93129600Y-28657000D01*
X93529600Y-28657000D01*
X93529600Y-28257000D01*
X93929600Y-28257000D01*
X93929600Y-27857000D01*
X94329600Y-27857000D01*
X94329600Y-28257000D01*
X94729600Y-28257000D01*
X94729600Y-27857000D01*
X95129600Y-27857000D01*
X95129600Y-27457000D01*
X95929600Y-27457000D01*
X95929600Y-27857000D01*
G37*
G36*
X94329600Y-30657000D02*
G01*
X93929600Y-30657000D01*
X93929600Y-30257000D01*
X94329600Y-30257000D01*
X94329600Y-30657000D01*
G37*
G36*
X94729600Y-30257000D02*
G01*
X94329600Y-30257000D01*
X94329600Y-29857000D01*
X94729600Y-29857000D01*
X94729600Y-30257000D01*
G37*
G36*
X95529600Y-29857000D02*
G01*
X94729600Y-29857000D01*
X94729600Y-29457000D01*
X95529600Y-29457000D01*
X95529600Y-29857000D01*
G37*
G36*
X89929600Y-29457000D02*
G01*
X89129600Y-29457000D01*
X89129600Y-29057000D01*
X89929600Y-29057000D01*
X89929600Y-29457000D01*
G37*
G36*
X96729600Y-28657000D02*
G01*
X96729600Y-29057000D01*
X96729600Y-29457000D01*
X96329600Y-29457000D01*
X96329600Y-29057000D01*
X95529600Y-29057000D01*
X95529600Y-28657000D01*
X96329600Y-28657000D01*
X96329600Y-28257000D01*
X96729600Y-28257000D01*
X96729600Y-28657000D01*
G37*
G36*
X92329600Y-28257000D02*
G01*
X91929600Y-28257000D01*
X91929600Y-27857000D01*
X92329600Y-27857000D01*
X92329600Y-28257000D01*
G37*
G36*
X93129600Y-27057000D02*
G01*
X93129600Y-27457000D01*
X93529600Y-27457000D01*
X93529600Y-27857000D01*
X93529600Y-28257000D01*
X93129600Y-28257000D01*
X93129600Y-27857000D01*
X92329600Y-27857000D01*
X92329600Y-27457000D01*
X92329600Y-27057000D01*
X92729600Y-27057000D01*
X92729600Y-26257000D01*
X93129600Y-26257000D01*
X93129600Y-27057000D01*
G37*
G36*
X87529600Y-27857000D02*
G01*
X87129600Y-27857000D01*
X87129600Y-27457000D01*
X87529600Y-27457000D01*
X87529600Y-27857000D01*
G37*
G36*
X89929600Y-27857000D02*
G01*
X89529600Y-27857000D01*
X89529600Y-27457000D01*
X89929600Y-27457000D01*
X89929600Y-27857000D01*
G37*
G36*
X90729600Y-27857000D02*
G01*
X90329600Y-27857000D01*
X90329600Y-27457000D01*
X90729600Y-27457000D01*
X90729600Y-27857000D01*
G37*
G36*
X94729600Y-27857000D02*
G01*
X94329600Y-27857000D01*
X94329600Y-27457000D01*
X94729600Y-27457000D01*
X94729600Y-27857000D01*
G37*
G36*
X97129600Y-27857000D02*
G01*
X96329600Y-27857000D01*
X96329600Y-27457000D01*
X97129600Y-27457000D01*
X97129600Y-27857000D01*
G37*
G36*
X91929600Y-27457000D02*
G01*
X91529600Y-27457000D01*
X91529600Y-27057000D01*
X91929600Y-27057000D01*
X91929600Y-27457000D01*
G37*
G36*
X93929600Y-27457000D02*
G01*
X93529600Y-27457000D01*
X93529600Y-26657000D01*
X93929600Y-26657000D01*
X93929600Y-27457000D01*
G37*
G36*
X89129600Y-26257000D02*
G01*
X87929600Y-26257000D01*
X87929600Y-25057000D01*
X89129600Y-25057000D01*
X89129600Y-26257000D01*
G37*
G36*
X89929600Y-26657000D02*
G01*
X89929600Y-27057000D01*
X87129600Y-27057000D01*
X87129600Y-26657000D01*
X87129600Y-24657000D01*
X87529600Y-24657000D01*
X87529600Y-26657000D01*
X89529600Y-26657000D01*
X89529600Y-24657000D01*
X87529600Y-24657000D01*
X87129600Y-24657000D01*
X87129600Y-24257000D01*
X89929600Y-24257000D01*
X89929600Y-24657000D01*
X89929600Y-26657000D01*
G37*
G36*
X91129600Y-25857000D02*
G01*
X90729600Y-25857000D01*
X90729600Y-27057000D01*
X90329600Y-27057000D01*
X90329600Y-25857000D01*
X90329600Y-25457000D01*
X91129600Y-25457000D01*
X91129600Y-25857000D01*
G37*
G36*
X91529600Y-27057000D02*
G01*
X91129600Y-27057000D01*
X91129600Y-26657000D01*
X91529600Y-26657000D01*
X91529600Y-27057000D01*
G37*
G36*
X92329600Y-26657000D02*
G01*
X92329600Y-27057000D01*
X91929600Y-27057000D01*
X91929600Y-26657000D01*
X91529600Y-26657000D01*
X91529600Y-26257000D01*
X92329600Y-26257000D01*
X92329600Y-26657000D01*
G37*
G36*
X96329600Y-26257000D02*
G01*
X95129600Y-26257000D01*
X95129600Y-25057000D01*
X96329600Y-25057000D01*
X96329600Y-26257000D01*
G37*
G36*
X97129600Y-26657000D02*
G01*
X97129600Y-27057000D01*
X94329600Y-27057000D01*
X94329600Y-26657000D01*
X94329600Y-24657000D01*
X94729600Y-24657000D01*
X94729600Y-26657000D01*
X96729600Y-26657000D01*
X96729600Y-24657000D01*
X94729600Y-24657000D01*
X94329600Y-24657000D01*
X94329600Y-24257000D01*
X97129600Y-24257000D01*
X97129600Y-24657000D01*
X97129600Y-26657000D01*
G37*
G36*
X92729600Y-26257000D02*
G01*
X92329600Y-26257000D01*
X92329600Y-25857000D01*
X92729600Y-25857000D01*
X92729600Y-26257000D01*
G37*
G36*
X93529600Y-26257000D02*
G01*
X93129600Y-26257000D01*
X93129600Y-25857000D01*
X93529600Y-25857000D01*
X93529600Y-26257000D01*
G37*
G36*
X92729600Y-24657000D02*
G01*
X91929600Y-24657000D01*
X91929600Y-25057000D01*
X92329600Y-25057000D01*
X92329600Y-25457000D01*
X92329600Y-25857000D01*
X91529600Y-25857000D01*
X91529600Y-25457000D01*
X91129600Y-25457000D01*
X91129600Y-25057000D01*
X91529600Y-25057000D01*
X91529600Y-24657000D01*
X91529600Y-24257000D01*
X92729600Y-24257000D01*
X92729600Y-24657000D01*
G37*
G36*
X93529600Y-25057000D02*
G01*
X93129600Y-25057000D01*
X93129600Y-25457000D01*
X92729600Y-25457000D01*
X92729600Y-25057000D01*
X92729600Y-24657000D01*
X93529600Y-24657000D01*
X93529600Y-25057000D01*
G37*
G36*
X90729600Y-25057000D02*
G01*
X90329600Y-25057000D01*
X90329600Y-24657000D01*
X90729600Y-24657000D01*
X90729600Y-25057000D01*
G37*
G36*
X93929600Y-24657000D02*
G01*
X93529600Y-24657000D01*
X93529600Y-24257000D01*
X93929600Y-24257000D01*
X93929600Y-24657000D01*
G37*
D11*
X97092873Y-54818980D02*
X97092873Y-55818980D01*
X97092873Y-55818980D02*
X97426206Y-55104695D01*
X97426206Y-55104695D02*
X97759539Y-55818980D01*
X97759539Y-55818980D02*
X97759539Y-54818980D01*
X98235730Y-55199933D02*
X98997635Y-55199933D01*
X101759540Y-54818980D02*
X101759540Y-55818980D01*
X101759540Y-55818980D02*
X102092873Y-55104695D01*
X102092873Y-55104695D02*
X102426206Y-55818980D01*
X102426206Y-55818980D02*
X102426206Y-54818980D01*
X102902397Y-55199933D02*
X103664302Y-55199933D01*
X103283349Y-54818980D02*
X103283349Y-55580885D01*
X106616683Y-55818980D02*
X106807159Y-55818980D01*
X106807159Y-55818980D02*
X106902397Y-55771361D01*
X106902397Y-55771361D02*
X106997635Y-55676123D01*
X106997635Y-55676123D02*
X107045254Y-55485647D01*
X107045254Y-55485647D02*
X107045254Y-55152314D01*
X107045254Y-55152314D02*
X106997635Y-54961838D01*
X106997635Y-54961838D02*
X106902397Y-54866600D01*
X106902397Y-54866600D02*
X106807159Y-54818980D01*
X106807159Y-54818980D02*
X106616683Y-54818980D01*
X106616683Y-54818980D02*
X106521445Y-54866600D01*
X106521445Y-54866600D02*
X106426207Y-54961838D01*
X106426207Y-54961838D02*
X106378588Y-55152314D01*
X106378588Y-55152314D02*
X106378588Y-55485647D01*
X106378588Y-55485647D02*
X106426207Y-55676123D01*
X106426207Y-55676123D02*
X106521445Y-55771361D01*
X106521445Y-55771361D02*
X106616683Y-55818980D01*
X107473826Y-55818980D02*
X107473826Y-55009457D01*
X107473826Y-55009457D02*
X107521445Y-54914219D01*
X107521445Y-54914219D02*
X107569064Y-54866600D01*
X107569064Y-54866600D02*
X107664302Y-54818980D01*
X107664302Y-54818980D02*
X107854778Y-54818980D01*
X107854778Y-54818980D02*
X107950016Y-54866600D01*
X107950016Y-54866600D02*
X107997635Y-54914219D01*
X107997635Y-54914219D02*
X108045254Y-55009457D01*
X108045254Y-55009457D02*
X108045254Y-55818980D01*
X108378588Y-55818980D02*
X108950016Y-55818980D01*
X108664302Y-54818980D02*
X108664302Y-55818980D01*
X112092874Y-55771361D02*
X111997636Y-55818980D01*
X111997636Y-55818980D02*
X111854779Y-55818980D01*
X111854779Y-55818980D02*
X111711922Y-55771361D01*
X111711922Y-55771361D02*
X111616684Y-55676123D01*
X111616684Y-55676123D02*
X111569065Y-55580885D01*
X111569065Y-55580885D02*
X111521446Y-55390409D01*
X111521446Y-55390409D02*
X111521446Y-55247552D01*
X111521446Y-55247552D02*
X111569065Y-55057076D01*
X111569065Y-55057076D02*
X111616684Y-54961838D01*
X111616684Y-54961838D02*
X111711922Y-54866600D01*
X111711922Y-54866600D02*
X111854779Y-54818980D01*
X111854779Y-54818980D02*
X111950017Y-54818980D01*
X111950017Y-54818980D02*
X112092874Y-54866600D01*
X112092874Y-54866600D02*
X112140493Y-54914219D01*
X112140493Y-54914219D02*
X112140493Y-55247552D01*
X112140493Y-55247552D02*
X111950017Y-55247552D01*
X112569065Y-54818980D02*
X112569065Y-55818980D01*
X112569065Y-55818980D02*
X113140493Y-54818980D01*
X113140493Y-54818980D02*
X113140493Y-55818980D01*
X113616684Y-54818980D02*
X113616684Y-55818980D01*
X113616684Y-55818980D02*
X113854779Y-55818980D01*
X113854779Y-55818980D02*
X113997636Y-55771361D01*
X113997636Y-55771361D02*
X114092874Y-55676123D01*
X114092874Y-55676123D02*
X114140493Y-55580885D01*
X114140493Y-55580885D02*
X114188112Y-55390409D01*
X114188112Y-55390409D02*
X114188112Y-55247552D01*
X114188112Y-55247552D02*
X114140493Y-55057076D01*
X114140493Y-55057076D02*
X114092874Y-54961838D01*
X114092874Y-54961838D02*
X113997636Y-54866600D01*
X113997636Y-54866600D02*
X113854779Y-54818980D01*
X113854779Y-54818980D02*
X113616684Y-54818980D01*
X117378589Y-55818980D02*
X116902399Y-55818980D01*
X116902399Y-55818980D02*
X116854780Y-55342790D01*
X116854780Y-55342790D02*
X116902399Y-55390409D01*
X116902399Y-55390409D02*
X116997637Y-55438028D01*
X116997637Y-55438028D02*
X117235732Y-55438028D01*
X117235732Y-55438028D02*
X117330970Y-55390409D01*
X117330970Y-55390409D02*
X117378589Y-55342790D01*
X117378589Y-55342790D02*
X117426208Y-55247552D01*
X117426208Y-55247552D02*
X117426208Y-55009457D01*
X117426208Y-55009457D02*
X117378589Y-54914219D01*
X117378589Y-54914219D02*
X117330970Y-54866600D01*
X117330970Y-54866600D02*
X117235732Y-54818980D01*
X117235732Y-54818980D02*
X116997637Y-54818980D01*
X116997637Y-54818980D02*
X116902399Y-54866600D01*
X116902399Y-54866600D02*
X116854780Y-54914219D01*
X117711923Y-55818980D02*
X118045256Y-54818980D01*
X118045256Y-54818980D02*
X118378589Y-55818980D01*
D12*
X98196878Y-24359883D02*
X98196878Y-24931312D01*
X99196878Y-24449169D02*
X97911164Y-24609883D01*
X97911164Y-24609883D02*
X97768307Y-24699169D01*
X97768307Y-24699169D02*
X97696878Y-24850955D01*
X97696878Y-24850955D02*
X97696878Y-24993812D01*
X99196878Y-25520598D02*
X99125450Y-25386669D01*
X99125450Y-25386669D02*
X99054021Y-25324169D01*
X99054021Y-25324169D02*
X98911164Y-25270598D01*
X98911164Y-25270598D02*
X98482592Y-25324169D01*
X98482592Y-25324169D02*
X98339735Y-25413455D01*
X98339735Y-25413455D02*
X98268307Y-25493812D01*
X98268307Y-25493812D02*
X98196878Y-25645598D01*
X98196878Y-25645598D02*
X98196878Y-25859883D01*
X98196878Y-25859883D02*
X98268307Y-25993812D01*
X98268307Y-25993812D02*
X98339735Y-26056312D01*
X98339735Y-26056312D02*
X98482592Y-26109883D01*
X98482592Y-26109883D02*
X98911164Y-26056312D01*
X98911164Y-26056312D02*
X99054021Y-25967026D01*
X99054021Y-25967026D02*
X99125450Y-25886669D01*
X99125450Y-25886669D02*
X99196878Y-25734883D01*
X99196878Y-25734883D02*
X99196878Y-25520598D01*
X99196878Y-26663455D02*
X98196878Y-26788455D01*
X98482592Y-26752741D02*
X98339735Y-26842026D01*
X98339735Y-26842026D02*
X98268307Y-26922383D01*
X98268307Y-26922383D02*
X98196878Y-27074169D01*
X98196878Y-27074169D02*
X98196878Y-27217026D01*
X99196878Y-29449169D02*
X99196878Y-28734883D01*
X99196878Y-28734883D02*
X97696878Y-28922383D01*
X99196878Y-29949169D02*
X98196878Y-30074169D01*
X97696878Y-30136669D02*
X97768307Y-30056312D01*
X97768307Y-30056312D02*
X97839735Y-30118812D01*
X97839735Y-30118812D02*
X97768307Y-30199169D01*
X97768307Y-30199169D02*
X97696878Y-30136669D01*
X97696878Y-30136669D02*
X97839735Y-30118812D01*
X98196878Y-30788455D02*
X99196878Y-30663455D01*
X98339735Y-30770598D02*
X98268307Y-30850955D01*
X98268307Y-30850955D02*
X98196878Y-31002741D01*
X98196878Y-31002741D02*
X98196878Y-31217026D01*
X98196878Y-31217026D02*
X98268307Y-31350955D01*
X98268307Y-31350955D02*
X98411164Y-31404526D01*
X98411164Y-31404526D02*
X99196878Y-31306312D01*
X99196878Y-32663455D02*
X97696878Y-32850955D01*
X99125450Y-32672384D02*
X99196878Y-32520598D01*
X99196878Y-32520598D02*
X99196878Y-32234884D01*
X99196878Y-32234884D02*
X99125450Y-32100955D01*
X99125450Y-32100955D02*
X99054021Y-32038455D01*
X99054021Y-32038455D02*
X98911164Y-31984884D01*
X98911164Y-31984884D02*
X98482592Y-32038455D01*
X98482592Y-32038455D02*
X98339735Y-32127741D01*
X98339735Y-32127741D02*
X98268307Y-32208098D01*
X98268307Y-32208098D02*
X98196878Y-32359884D01*
X98196878Y-32359884D02*
X98196878Y-32645598D01*
X98196878Y-32645598D02*
X98268307Y-32779526D01*
X99196878Y-34020598D02*
X98411164Y-34118812D01*
X98411164Y-34118812D02*
X98268307Y-34065241D01*
X98268307Y-34065241D02*
X98196878Y-33931312D01*
X98196878Y-33931312D02*
X98196878Y-33645598D01*
X98196878Y-33645598D02*
X98268307Y-33493812D01*
X99125450Y-34029527D02*
X99196878Y-33877741D01*
X99196878Y-33877741D02*
X99196878Y-33520598D01*
X99196878Y-33520598D02*
X99125450Y-33386669D01*
X99125450Y-33386669D02*
X98982592Y-33333098D01*
X98982592Y-33333098D02*
X98839735Y-33350955D01*
X98839735Y-33350955D02*
X98696878Y-33440241D01*
X98696878Y-33440241D02*
X98625450Y-33592027D01*
X98625450Y-33592027D02*
X98625450Y-33949169D01*
X98625450Y-33949169D02*
X98554021Y-34100955D01*
D13*
X63500000Y-22860000D02*
X128500000Y-22860000D01*
X128500000Y-62860000D01*
X63500000Y-62860000D01*
X63500000Y-22860000D01*
M02*
