%TF.GenerationSoftware,KiCad,Pcbnew,10.0.2*%
%TF.CreationDate,2026-05-23T17:15:41-05:00*%
%TF.ProjectId,door-lock,646f6f72-2d6c-46f6-936b-2e6b69636164,rev?*%
%TF.SameCoordinates,Original*%
%TF.FileFunction,Legend,Top*%
%TF.FilePolarity,Positive*%
%FSLAX46Y46*%
G04 Gerber Fmt 4.6, Leading zero omitted, Abs format (unit mm)*
G04 Created by KiCad (PCBNEW 10.0.2) date 2026-05-23 17:15:41*
%MOMM*%
%LPD*%
G01*
G04 APERTURE LIST*
%ADD10C,0.125000*%
%ADD11C,0.200000*%
%ADD12C,0.300000*%
%ADD13C,0.150000*%
%ADD14C,0.120000*%
%TA.AperFunction,Profile*%
%ADD15C,0.200000*%
%TD*%
G04 APERTURE END LIST*
D10*
X124423319Y-48060306D02*
X124423319Y-47393640D01*
X124423319Y-47393640D02*
X125423319Y-48060306D01*
X125423319Y-48060306D02*
X125423319Y-47393640D01*
X125423319Y-47012687D02*
X124756652Y-47012687D01*
X124423319Y-47012687D02*
X124470938Y-47060306D01*
X124470938Y-47060306D02*
X124518557Y-47012687D01*
X124518557Y-47012687D02*
X124470938Y-46965068D01*
X124470938Y-46965068D02*
X124423319Y-47012687D01*
X124423319Y-47012687D02*
X124518557Y-47012687D01*
X124756652Y-46536497D02*
X125756652Y-46536497D01*
X124804271Y-46536497D02*
X124756652Y-46441259D01*
X124756652Y-46441259D02*
X124756652Y-46250783D01*
X124756652Y-46250783D02*
X124804271Y-46155545D01*
X124804271Y-46155545D02*
X124851890Y-46107926D01*
X124851890Y-46107926D02*
X124947128Y-46060307D01*
X124947128Y-46060307D02*
X125232842Y-46060307D01*
X125232842Y-46060307D02*
X125328080Y-46107926D01*
X125328080Y-46107926D02*
X125375700Y-46155545D01*
X125375700Y-46155545D02*
X125423319Y-46250783D01*
X125423319Y-46250783D02*
X125423319Y-46441259D01*
X125423319Y-46441259D02*
X125375700Y-46536497D01*
X124423319Y-45012687D02*
X124423319Y-44441259D01*
X125423319Y-44726973D02*
X124423319Y-44726973D01*
X125423319Y-44107925D02*
X124756652Y-44107925D01*
X124423319Y-44107925D02*
X124470938Y-44155544D01*
X124470938Y-44155544D02*
X124518557Y-44107925D01*
X124518557Y-44107925D02*
X124470938Y-44060306D01*
X124470938Y-44060306D02*
X124423319Y-44107925D01*
X124423319Y-44107925D02*
X124518557Y-44107925D01*
X125375700Y-43250783D02*
X125423319Y-43346021D01*
X125423319Y-43346021D02*
X125423319Y-43536497D01*
X125423319Y-43536497D02*
X125375700Y-43631735D01*
X125375700Y-43631735D02*
X125280461Y-43679354D01*
X125280461Y-43679354D02*
X124899509Y-43679354D01*
X124899509Y-43679354D02*
X124804271Y-43631735D01*
X124804271Y-43631735D02*
X124756652Y-43536497D01*
X124756652Y-43536497D02*
X124756652Y-43346021D01*
X124756652Y-43346021D02*
X124804271Y-43250783D01*
X124804271Y-43250783D02*
X124899509Y-43203164D01*
X124899509Y-43203164D02*
X124994747Y-43203164D01*
X124994747Y-43203164D02*
X125089985Y-43679354D01*
D11*
X110769402Y-36271199D02*
X110769399Y-23240999D01*
X78769401Y-23241001D01*
X78769402Y-36271201D01*
X110769402Y-36271199D01*
X103407242Y-28177485D02*
X102772243Y-28177483D01*
X102137243Y-29447485D01*
X102137241Y-31352481D01*
X102772244Y-32622485D01*
X103407241Y-32622481D01*
X103407242Y-28177485D01*
X94996000Y-43169200D02*
X126441200Y-43169200D01*
X126441200Y-48169200D01*
X94996000Y-48169200D01*
X94996000Y-43169200D01*
X100514419Y-31895962D02*
X100514419Y-31276915D01*
X100514419Y-31276915D02*
X100895371Y-31610248D01*
X100895371Y-31610248D02*
X100895371Y-31467391D01*
X100895371Y-31467391D02*
X100942990Y-31372153D01*
X100942990Y-31372153D02*
X100990609Y-31324534D01*
X100990609Y-31324534D02*
X101085847Y-31276915D01*
X101085847Y-31276915D02*
X101323942Y-31276915D01*
X101323942Y-31276915D02*
X101419180Y-31324534D01*
X101419180Y-31324534D02*
X101466800Y-31372153D01*
X101466800Y-31372153D02*
X101514419Y-31467391D01*
X101514419Y-31467391D02*
X101514419Y-31753105D01*
X101514419Y-31753105D02*
X101466800Y-31848343D01*
X101466800Y-31848343D02*
X101419180Y-31895962D01*
X101514419Y-30324534D02*
X101514419Y-30895962D01*
X101514419Y-30610248D02*
X100514419Y-30610248D01*
X100514419Y-30610248D02*
X100657276Y-30705486D01*
X100657276Y-30705486D02*
X100752514Y-30800724D01*
X100752514Y-30800724D02*
X100800133Y-30895962D01*
X100847752Y-29467391D02*
X101514419Y-29467391D01*
X100466800Y-29705486D02*
X101181085Y-29943581D01*
X101181085Y-29943581D02*
X101181085Y-29324534D01*
X100847752Y-28515010D02*
X101514419Y-28515010D01*
X100466800Y-28753105D02*
X101181085Y-28991200D01*
X101181085Y-28991200D02*
X101181085Y-28372153D01*
X104556619Y-33240936D02*
X104556619Y-33717126D01*
X104556619Y-33717126D02*
X105032809Y-33764745D01*
X105032809Y-33764745D02*
X104985190Y-33717126D01*
X104985190Y-33717126D02*
X104937571Y-33621888D01*
X104937571Y-33621888D02*
X104937571Y-33383793D01*
X104937571Y-33383793D02*
X104985190Y-33288555D01*
X104985190Y-33288555D02*
X105032809Y-33240936D01*
X105032809Y-33240936D02*
X105128047Y-33193317D01*
X105128047Y-33193317D02*
X105366142Y-33193317D01*
X105366142Y-33193317D02*
X105461380Y-33240936D01*
X105461380Y-33240936D02*
X105509000Y-33288555D01*
X105509000Y-33288555D02*
X105556619Y-33383793D01*
X105556619Y-33383793D02*
X105556619Y-33621888D01*
X105556619Y-33621888D02*
X105509000Y-33717126D01*
X105509000Y-33717126D02*
X105461380Y-33764745D01*
X104556619Y-32907602D02*
X105556619Y-32574269D01*
X105556619Y-32574269D02*
X104556619Y-32240936D01*
X104604238Y-30621888D02*
X104556619Y-30717126D01*
X104556619Y-30717126D02*
X104556619Y-30859983D01*
X104556619Y-30859983D02*
X104604238Y-31002840D01*
X104604238Y-31002840D02*
X104699476Y-31098078D01*
X104699476Y-31098078D02*
X104794714Y-31145697D01*
X104794714Y-31145697D02*
X104985190Y-31193316D01*
X104985190Y-31193316D02*
X105128047Y-31193316D01*
X105128047Y-31193316D02*
X105318523Y-31145697D01*
X105318523Y-31145697D02*
X105413761Y-31098078D01*
X105413761Y-31098078D02*
X105509000Y-31002840D01*
X105509000Y-31002840D02*
X105556619Y-30859983D01*
X105556619Y-30859983D02*
X105556619Y-30764745D01*
X105556619Y-30764745D02*
X105509000Y-30621888D01*
X105509000Y-30621888D02*
X105461380Y-30574269D01*
X105461380Y-30574269D02*
X105128047Y-30574269D01*
X105128047Y-30574269D02*
X105128047Y-30764745D01*
X105556619Y-30145697D02*
X104556619Y-30145697D01*
X104556619Y-30145697D02*
X105556619Y-29574269D01*
X105556619Y-29574269D02*
X104556619Y-29574269D01*
X105556619Y-29098078D02*
X104556619Y-29098078D01*
X104556619Y-29098078D02*
X104556619Y-28859983D01*
X104556619Y-28859983D02*
X104604238Y-28717126D01*
X104604238Y-28717126D02*
X104699476Y-28621888D01*
X104699476Y-28621888D02*
X104794714Y-28574269D01*
X104794714Y-28574269D02*
X104985190Y-28526650D01*
X104985190Y-28526650D02*
X105128047Y-28526650D01*
X105128047Y-28526650D02*
X105318523Y-28574269D01*
X105318523Y-28574269D02*
X105413761Y-28621888D01*
X105413761Y-28621888D02*
X105509000Y-28717126D01*
X105509000Y-28717126D02*
X105556619Y-28859983D01*
X105556619Y-28859983D02*
X105556619Y-29098078D01*
X105556619Y-27336173D02*
X104556619Y-27336173D01*
X104556619Y-27336173D02*
X104556619Y-27098078D01*
X104556619Y-27098078D02*
X104604238Y-26955221D01*
X104604238Y-26955221D02*
X104699476Y-26859983D01*
X104699476Y-26859983D02*
X104794714Y-26812364D01*
X104794714Y-26812364D02*
X104985190Y-26764745D01*
X104985190Y-26764745D02*
X105128047Y-26764745D01*
X105128047Y-26764745D02*
X105318523Y-26812364D01*
X105318523Y-26812364D02*
X105413761Y-26859983D01*
X105413761Y-26859983D02*
X105509000Y-26955221D01*
X105509000Y-26955221D02*
X105556619Y-27098078D01*
X105556619Y-27098078D02*
X105556619Y-27336173D01*
X92746726Y-61010668D02*
X92746726Y-62010668D01*
X92746726Y-62010668D02*
X92365774Y-62010668D01*
X92365774Y-62010668D02*
X92270536Y-61963049D01*
X92270536Y-61963049D02*
X92222917Y-61915430D01*
X92222917Y-61915430D02*
X92175298Y-61820192D01*
X92175298Y-61820192D02*
X92175298Y-61677335D01*
X92175298Y-61677335D02*
X92222917Y-61582097D01*
X92222917Y-61582097D02*
X92270536Y-61534478D01*
X92270536Y-61534478D02*
X92365774Y-61486859D01*
X92365774Y-61486859D02*
X92746726Y-61486859D01*
X91603869Y-61010668D02*
X91699107Y-61058288D01*
X91699107Y-61058288D02*
X91746726Y-61153526D01*
X91746726Y-61153526D02*
X91746726Y-62010668D01*
X90794345Y-61010668D02*
X90794345Y-61534478D01*
X90794345Y-61534478D02*
X90841964Y-61629716D01*
X90841964Y-61629716D02*
X90937202Y-61677335D01*
X90937202Y-61677335D02*
X91127678Y-61677335D01*
X91127678Y-61677335D02*
X91222916Y-61629716D01*
X90794345Y-61058288D02*
X90889583Y-61010668D01*
X90889583Y-61010668D02*
X91127678Y-61010668D01*
X91127678Y-61010668D02*
X91222916Y-61058288D01*
X91222916Y-61058288D02*
X91270535Y-61153526D01*
X91270535Y-61153526D02*
X91270535Y-61248764D01*
X91270535Y-61248764D02*
X91222916Y-61344002D01*
X91222916Y-61344002D02*
X91127678Y-61391621D01*
X91127678Y-61391621D02*
X90889583Y-61391621D01*
X90889583Y-61391621D02*
X90794345Y-61439240D01*
X89889583Y-61058288D02*
X89984821Y-61010668D01*
X89984821Y-61010668D02*
X90175297Y-61010668D01*
X90175297Y-61010668D02*
X90270535Y-61058288D01*
X90270535Y-61058288D02*
X90318154Y-61105907D01*
X90318154Y-61105907D02*
X90365773Y-61201145D01*
X90365773Y-61201145D02*
X90365773Y-61486859D01*
X90365773Y-61486859D02*
X90318154Y-61582097D01*
X90318154Y-61582097D02*
X90270535Y-61629716D01*
X90270535Y-61629716D02*
X90175297Y-61677335D01*
X90175297Y-61677335D02*
X89984821Y-61677335D01*
X89984821Y-61677335D02*
X89889583Y-61629716D01*
X89080059Y-61058288D02*
X89175297Y-61010668D01*
X89175297Y-61010668D02*
X89365773Y-61010668D01*
X89365773Y-61010668D02*
X89461011Y-61058288D01*
X89461011Y-61058288D02*
X89508630Y-61153526D01*
X89508630Y-61153526D02*
X89508630Y-61534478D01*
X89508630Y-61534478D02*
X89461011Y-61629716D01*
X89461011Y-61629716D02*
X89365773Y-61677335D01*
X89365773Y-61677335D02*
X89175297Y-61677335D01*
X89175297Y-61677335D02*
X89080059Y-61629716D01*
X89080059Y-61629716D02*
X89032440Y-61534478D01*
X89032440Y-61534478D02*
X89032440Y-61439240D01*
X89032440Y-61439240D02*
X89508630Y-61344002D01*
X87889582Y-61058288D02*
X87794344Y-61010668D01*
X87794344Y-61010668D02*
X87603868Y-61010668D01*
X87603868Y-61010668D02*
X87508630Y-61058288D01*
X87508630Y-61058288D02*
X87461011Y-61153526D01*
X87461011Y-61153526D02*
X87461011Y-61201145D01*
X87461011Y-61201145D02*
X87508630Y-61296383D01*
X87508630Y-61296383D02*
X87603868Y-61344002D01*
X87603868Y-61344002D02*
X87746725Y-61344002D01*
X87746725Y-61344002D02*
X87841963Y-61391621D01*
X87841963Y-61391621D02*
X87889582Y-61486859D01*
X87889582Y-61486859D02*
X87889582Y-61534478D01*
X87889582Y-61534478D02*
X87841963Y-61629716D01*
X87841963Y-61629716D02*
X87746725Y-61677335D01*
X87746725Y-61677335D02*
X87603868Y-61677335D01*
X87603868Y-61677335D02*
X87508630Y-61629716D01*
X86603868Y-61058288D02*
X86699106Y-61010668D01*
X86699106Y-61010668D02*
X86889582Y-61010668D01*
X86889582Y-61010668D02*
X86984820Y-61058288D01*
X86984820Y-61058288D02*
X87032439Y-61105907D01*
X87032439Y-61105907D02*
X87080058Y-61201145D01*
X87080058Y-61201145D02*
X87080058Y-61486859D01*
X87080058Y-61486859D02*
X87032439Y-61582097D01*
X87032439Y-61582097D02*
X86984820Y-61629716D01*
X86984820Y-61629716D02*
X86889582Y-61677335D01*
X86889582Y-61677335D02*
X86699106Y-61677335D01*
X86699106Y-61677335D02*
X86603868Y-61629716D01*
X86175296Y-61010668D02*
X86175296Y-61677335D01*
X86175296Y-61486859D02*
X86127677Y-61582097D01*
X86127677Y-61582097D02*
X86080058Y-61629716D01*
X86080058Y-61629716D02*
X85984820Y-61677335D01*
X85984820Y-61677335D02*
X85889582Y-61677335D01*
X85175296Y-61058288D02*
X85270534Y-61010668D01*
X85270534Y-61010668D02*
X85461010Y-61010668D01*
X85461010Y-61010668D02*
X85556248Y-61058288D01*
X85556248Y-61058288D02*
X85603867Y-61153526D01*
X85603867Y-61153526D02*
X85603867Y-61534478D01*
X85603867Y-61534478D02*
X85556248Y-61629716D01*
X85556248Y-61629716D02*
X85461010Y-61677335D01*
X85461010Y-61677335D02*
X85270534Y-61677335D01*
X85270534Y-61677335D02*
X85175296Y-61629716D01*
X85175296Y-61629716D02*
X85127677Y-61534478D01*
X85127677Y-61534478D02*
X85127677Y-61439240D01*
X85127677Y-61439240D02*
X85603867Y-61344002D01*
X84794343Y-61677335D02*
X84603867Y-61010668D01*
X84603867Y-61010668D02*
X84413391Y-61486859D01*
X84413391Y-61486859D02*
X84222915Y-61010668D01*
X84222915Y-61010668D02*
X84032439Y-61677335D01*
X92889583Y-60067391D02*
X92508631Y-60067391D01*
X92746726Y-60400724D02*
X92746726Y-59543582D01*
X92746726Y-59543582D02*
X92699107Y-59448344D01*
X92699107Y-59448344D02*
X92603869Y-59400724D01*
X92603869Y-59400724D02*
X92508631Y-59400724D01*
X91794345Y-59448344D02*
X91889583Y-59400724D01*
X91889583Y-59400724D02*
X92080059Y-59400724D01*
X92080059Y-59400724D02*
X92175297Y-59448344D01*
X92175297Y-59448344D02*
X92222916Y-59543582D01*
X92222916Y-59543582D02*
X92222916Y-59924534D01*
X92222916Y-59924534D02*
X92175297Y-60019772D01*
X92175297Y-60019772D02*
X92080059Y-60067391D01*
X92080059Y-60067391D02*
X91889583Y-60067391D01*
X91889583Y-60067391D02*
X91794345Y-60019772D01*
X91794345Y-60019772D02*
X91746726Y-59924534D01*
X91746726Y-59924534D02*
X91746726Y-59829296D01*
X91746726Y-59829296D02*
X92222916Y-59734058D01*
X91318154Y-59400724D02*
X91318154Y-60067391D01*
X91318154Y-59876915D02*
X91270535Y-59972153D01*
X91270535Y-59972153D02*
X91222916Y-60019772D01*
X91222916Y-60019772D02*
X91127678Y-60067391D01*
X91127678Y-60067391D02*
X91032440Y-60067391D01*
X90699106Y-59400724D02*
X90699106Y-60067391D01*
X90699106Y-59972153D02*
X90651487Y-60019772D01*
X90651487Y-60019772D02*
X90556249Y-60067391D01*
X90556249Y-60067391D02*
X90413392Y-60067391D01*
X90413392Y-60067391D02*
X90318154Y-60019772D01*
X90318154Y-60019772D02*
X90270535Y-59924534D01*
X90270535Y-59924534D02*
X90270535Y-59400724D01*
X90270535Y-59924534D02*
X90222916Y-60019772D01*
X90222916Y-60019772D02*
X90127678Y-60067391D01*
X90127678Y-60067391D02*
X89984821Y-60067391D01*
X89984821Y-60067391D02*
X89889582Y-60019772D01*
X89889582Y-60019772D02*
X89841963Y-59924534D01*
X89841963Y-59924534D02*
X89841963Y-59400724D01*
X89365773Y-59400724D02*
X89365773Y-60067391D01*
X89365773Y-60400724D02*
X89413392Y-60353105D01*
X89413392Y-60353105D02*
X89365773Y-60305486D01*
X89365773Y-60305486D02*
X89318154Y-60353105D01*
X89318154Y-60353105D02*
X89365773Y-60400724D01*
X89365773Y-60400724D02*
X89365773Y-60305486D01*
X88889583Y-60067391D02*
X88889583Y-59400724D01*
X88889583Y-59972153D02*
X88841964Y-60019772D01*
X88841964Y-60019772D02*
X88746726Y-60067391D01*
X88746726Y-60067391D02*
X88603869Y-60067391D01*
X88603869Y-60067391D02*
X88508631Y-60019772D01*
X88508631Y-60019772D02*
X88461012Y-59924534D01*
X88461012Y-59924534D02*
X88461012Y-59400724D01*
X87556250Y-59400724D02*
X87556250Y-59924534D01*
X87556250Y-59924534D02*
X87603869Y-60019772D01*
X87603869Y-60019772D02*
X87699107Y-60067391D01*
X87699107Y-60067391D02*
X87889583Y-60067391D01*
X87889583Y-60067391D02*
X87984821Y-60019772D01*
X87556250Y-59448344D02*
X87651488Y-59400724D01*
X87651488Y-59400724D02*
X87889583Y-59400724D01*
X87889583Y-59400724D02*
X87984821Y-59448344D01*
X87984821Y-59448344D02*
X88032440Y-59543582D01*
X88032440Y-59543582D02*
X88032440Y-59638820D01*
X88032440Y-59638820D02*
X87984821Y-59734058D01*
X87984821Y-59734058D02*
X87889583Y-59781677D01*
X87889583Y-59781677D02*
X87651488Y-59781677D01*
X87651488Y-59781677D02*
X87556250Y-59829296D01*
X86937202Y-59400724D02*
X87032440Y-59448344D01*
X87032440Y-59448344D02*
X87080059Y-59543582D01*
X87080059Y-59543582D02*
X87080059Y-60400724D01*
X86603868Y-59448344D02*
X86508630Y-59400724D01*
X86508630Y-59400724D02*
X86318154Y-59400724D01*
X86318154Y-59400724D02*
X86222916Y-59448344D01*
X86222916Y-59448344D02*
X86175297Y-59543582D01*
X86175297Y-59543582D02*
X86175297Y-59591201D01*
X86175297Y-59591201D02*
X86222916Y-59686439D01*
X86222916Y-59686439D02*
X86318154Y-59734058D01*
X86318154Y-59734058D02*
X86461011Y-59734058D01*
X86461011Y-59734058D02*
X86556249Y-59781677D01*
X86556249Y-59781677D02*
X86603868Y-59876915D01*
X86603868Y-59876915D02*
X86603868Y-59924534D01*
X86603868Y-59924534D02*
X86556249Y-60019772D01*
X86556249Y-60019772D02*
X86461011Y-60067391D01*
X86461011Y-60067391D02*
X86318154Y-60067391D01*
X86318154Y-60067391D02*
X86222916Y-60019772D01*
X92603869Y-57790780D02*
X92699107Y-57838400D01*
X92699107Y-57838400D02*
X92746726Y-57886019D01*
X92746726Y-57886019D02*
X92794345Y-57981257D01*
X92794345Y-57981257D02*
X92794345Y-58266971D01*
X92794345Y-58266971D02*
X92746726Y-58362209D01*
X92746726Y-58362209D02*
X92699107Y-58409828D01*
X92699107Y-58409828D02*
X92603869Y-58457447D01*
X92603869Y-58457447D02*
X92461012Y-58457447D01*
X92461012Y-58457447D02*
X92365774Y-58409828D01*
X92365774Y-58409828D02*
X92318155Y-58362209D01*
X92318155Y-58362209D02*
X92270536Y-58266971D01*
X92270536Y-58266971D02*
X92270536Y-57981257D01*
X92270536Y-57981257D02*
X92318155Y-57886019D01*
X92318155Y-57886019D02*
X92365774Y-57838400D01*
X92365774Y-57838400D02*
X92461012Y-57790780D01*
X92461012Y-57790780D02*
X92603869Y-57790780D01*
X91841964Y-58457447D02*
X91841964Y-57457447D01*
X91841964Y-58409828D02*
X91746726Y-58457447D01*
X91746726Y-58457447D02*
X91556250Y-58457447D01*
X91556250Y-58457447D02*
X91461012Y-58409828D01*
X91461012Y-58409828D02*
X91413393Y-58362209D01*
X91413393Y-58362209D02*
X91365774Y-58266971D01*
X91365774Y-58266971D02*
X91365774Y-57981257D01*
X91365774Y-57981257D02*
X91413393Y-57886019D01*
X91413393Y-57886019D02*
X91461012Y-57838400D01*
X91461012Y-57838400D02*
X91556250Y-57790780D01*
X91556250Y-57790780D02*
X91746726Y-57790780D01*
X91746726Y-57790780D02*
X91841964Y-57838400D01*
X90556250Y-57838400D02*
X90651488Y-57790780D01*
X90651488Y-57790780D02*
X90841964Y-57790780D01*
X90841964Y-57790780D02*
X90937202Y-57838400D01*
X90937202Y-57838400D02*
X90984821Y-57933638D01*
X90984821Y-57933638D02*
X90984821Y-58314590D01*
X90984821Y-58314590D02*
X90937202Y-58409828D01*
X90937202Y-58409828D02*
X90841964Y-58457447D01*
X90841964Y-58457447D02*
X90651488Y-58457447D01*
X90651488Y-58457447D02*
X90556250Y-58409828D01*
X90556250Y-58409828D02*
X90508631Y-58314590D01*
X90508631Y-58314590D02*
X90508631Y-58219352D01*
X90508631Y-58219352D02*
X90984821Y-58124114D01*
X90080059Y-58457447D02*
X90080059Y-57790780D01*
X90080059Y-58362209D02*
X90032440Y-58409828D01*
X90032440Y-58409828D02*
X89937202Y-58457447D01*
X89937202Y-58457447D02*
X89794345Y-58457447D01*
X89794345Y-58457447D02*
X89699107Y-58409828D01*
X89699107Y-58409828D02*
X89651488Y-58314590D01*
X89651488Y-58314590D02*
X89651488Y-57790780D01*
X89175297Y-57790780D02*
X89175297Y-58457447D01*
X89175297Y-58790780D02*
X89222916Y-58743161D01*
X89222916Y-58743161D02*
X89175297Y-58695542D01*
X89175297Y-58695542D02*
X89127678Y-58743161D01*
X89127678Y-58743161D02*
X89175297Y-58790780D01*
X89175297Y-58790780D02*
X89175297Y-58695542D01*
X88699107Y-58457447D02*
X88699107Y-57790780D01*
X88699107Y-58362209D02*
X88651488Y-58409828D01*
X88651488Y-58409828D02*
X88556250Y-58457447D01*
X88556250Y-58457447D02*
X88413393Y-58457447D01*
X88413393Y-58457447D02*
X88318155Y-58409828D01*
X88318155Y-58409828D02*
X88270536Y-58314590D01*
X88270536Y-58314590D02*
X88270536Y-57790780D01*
X87365774Y-58457447D02*
X87365774Y-57647923D01*
X87365774Y-57647923D02*
X87413393Y-57552685D01*
X87413393Y-57552685D02*
X87461012Y-57505066D01*
X87461012Y-57505066D02*
X87556250Y-57457447D01*
X87556250Y-57457447D02*
X87699107Y-57457447D01*
X87699107Y-57457447D02*
X87794345Y-57505066D01*
X87365774Y-57838400D02*
X87461012Y-57790780D01*
X87461012Y-57790780D02*
X87651488Y-57790780D01*
X87651488Y-57790780D02*
X87746726Y-57838400D01*
X87746726Y-57838400D02*
X87794345Y-57886019D01*
X87794345Y-57886019D02*
X87841964Y-57981257D01*
X87841964Y-57981257D02*
X87841964Y-58266971D01*
X87841964Y-58266971D02*
X87794345Y-58362209D01*
X87794345Y-58362209D02*
X87746726Y-58409828D01*
X87746726Y-58409828D02*
X87651488Y-58457447D01*
X87651488Y-58457447D02*
X87461012Y-58457447D01*
X87461012Y-58457447D02*
X87365774Y-58409828D01*
X109129727Y-24059580D02*
X109129727Y-25059580D01*
X109129727Y-25059580D02*
X108748775Y-25059580D01*
X108748775Y-25059580D02*
X108653537Y-25011961D01*
X108653537Y-25011961D02*
X108605918Y-24964342D01*
X108605918Y-24964342D02*
X108558299Y-24869104D01*
X108558299Y-24869104D02*
X108558299Y-24726247D01*
X108558299Y-24726247D02*
X108605918Y-24631009D01*
X108605918Y-24631009D02*
X108653537Y-24583390D01*
X108653537Y-24583390D02*
X108748775Y-24535771D01*
X108748775Y-24535771D02*
X109129727Y-24535771D01*
X107986870Y-24059580D02*
X108082108Y-24107200D01*
X108082108Y-24107200D02*
X108129727Y-24202438D01*
X108129727Y-24202438D02*
X108129727Y-25059580D01*
X107177346Y-24059580D02*
X107177346Y-24583390D01*
X107177346Y-24583390D02*
X107224965Y-24678628D01*
X107224965Y-24678628D02*
X107320203Y-24726247D01*
X107320203Y-24726247D02*
X107510679Y-24726247D01*
X107510679Y-24726247D02*
X107605917Y-24678628D01*
X107177346Y-24107200D02*
X107272584Y-24059580D01*
X107272584Y-24059580D02*
X107510679Y-24059580D01*
X107510679Y-24059580D02*
X107605917Y-24107200D01*
X107605917Y-24107200D02*
X107653536Y-24202438D01*
X107653536Y-24202438D02*
X107653536Y-24297676D01*
X107653536Y-24297676D02*
X107605917Y-24392914D01*
X107605917Y-24392914D02*
X107510679Y-24440533D01*
X107510679Y-24440533D02*
X107272584Y-24440533D01*
X107272584Y-24440533D02*
X107177346Y-24488152D01*
X106272584Y-24107200D02*
X106367822Y-24059580D01*
X106367822Y-24059580D02*
X106558298Y-24059580D01*
X106558298Y-24059580D02*
X106653536Y-24107200D01*
X106653536Y-24107200D02*
X106701155Y-24154819D01*
X106701155Y-24154819D02*
X106748774Y-24250057D01*
X106748774Y-24250057D02*
X106748774Y-24535771D01*
X106748774Y-24535771D02*
X106701155Y-24631009D01*
X106701155Y-24631009D02*
X106653536Y-24678628D01*
X106653536Y-24678628D02*
X106558298Y-24726247D01*
X106558298Y-24726247D02*
X106367822Y-24726247D01*
X106367822Y-24726247D02*
X106272584Y-24678628D01*
X105463060Y-24107200D02*
X105558298Y-24059580D01*
X105558298Y-24059580D02*
X105748774Y-24059580D01*
X105748774Y-24059580D02*
X105844012Y-24107200D01*
X105844012Y-24107200D02*
X105891631Y-24202438D01*
X105891631Y-24202438D02*
X105891631Y-24583390D01*
X105891631Y-24583390D02*
X105844012Y-24678628D01*
X105844012Y-24678628D02*
X105748774Y-24726247D01*
X105748774Y-24726247D02*
X105558298Y-24726247D01*
X105558298Y-24726247D02*
X105463060Y-24678628D01*
X105463060Y-24678628D02*
X105415441Y-24583390D01*
X105415441Y-24583390D02*
X105415441Y-24488152D01*
X105415441Y-24488152D02*
X105891631Y-24392914D01*
X104367821Y-24726247D02*
X103986869Y-24726247D01*
X104224964Y-25059580D02*
X104224964Y-24202438D01*
X104224964Y-24202438D02*
X104177345Y-24107200D01*
X104177345Y-24107200D02*
X104082107Y-24059580D01*
X104082107Y-24059580D02*
X103986869Y-24059580D01*
X103653535Y-24059580D02*
X103653535Y-25059580D01*
X103224964Y-24059580D02*
X103224964Y-24583390D01*
X103224964Y-24583390D02*
X103272583Y-24678628D01*
X103272583Y-24678628D02*
X103367821Y-24726247D01*
X103367821Y-24726247D02*
X103510678Y-24726247D01*
X103510678Y-24726247D02*
X103605916Y-24678628D01*
X103605916Y-24678628D02*
X103653535Y-24631009D01*
X102367821Y-24107200D02*
X102463059Y-24059580D01*
X102463059Y-24059580D02*
X102653535Y-24059580D01*
X102653535Y-24059580D02*
X102748773Y-24107200D01*
X102748773Y-24107200D02*
X102796392Y-24202438D01*
X102796392Y-24202438D02*
X102796392Y-24583390D01*
X102796392Y-24583390D02*
X102748773Y-24678628D01*
X102748773Y-24678628D02*
X102653535Y-24726247D01*
X102653535Y-24726247D02*
X102463059Y-24726247D01*
X102463059Y-24726247D02*
X102367821Y-24678628D01*
X102367821Y-24678628D02*
X102320202Y-24583390D01*
X102320202Y-24583390D02*
X102320202Y-24488152D01*
X102320202Y-24488152D02*
X102796392Y-24392914D01*
X101129725Y-24059580D02*
X101129725Y-25059580D01*
X101129725Y-24583390D02*
X100558297Y-24583390D01*
X100558297Y-24059580D02*
X100558297Y-25059580D01*
X99653535Y-24059580D02*
X99653535Y-24583390D01*
X99653535Y-24583390D02*
X99701154Y-24678628D01*
X99701154Y-24678628D02*
X99796392Y-24726247D01*
X99796392Y-24726247D02*
X99986868Y-24726247D01*
X99986868Y-24726247D02*
X100082106Y-24678628D01*
X99653535Y-24107200D02*
X99748773Y-24059580D01*
X99748773Y-24059580D02*
X99986868Y-24059580D01*
X99986868Y-24059580D02*
X100082106Y-24107200D01*
X100082106Y-24107200D02*
X100129725Y-24202438D01*
X100129725Y-24202438D02*
X100129725Y-24297676D01*
X100129725Y-24297676D02*
X100082106Y-24392914D01*
X100082106Y-24392914D02*
X99986868Y-24440533D01*
X99986868Y-24440533D02*
X99748773Y-24440533D01*
X99748773Y-24440533D02*
X99653535Y-24488152D01*
X99034487Y-24059580D02*
X99129725Y-24107200D01*
X99129725Y-24107200D02*
X99177344Y-24202438D01*
X99177344Y-24202438D02*
X99177344Y-25059580D01*
X98510677Y-24059580D02*
X98605915Y-24107200D01*
X98605915Y-24107200D02*
X98653534Y-24202438D01*
X98653534Y-24202438D02*
X98653534Y-25059580D01*
X97367819Y-24059580D02*
X97367819Y-24726247D01*
X97367819Y-24631009D02*
X97320200Y-24678628D01*
X97320200Y-24678628D02*
X97224962Y-24726247D01*
X97224962Y-24726247D02*
X97082105Y-24726247D01*
X97082105Y-24726247D02*
X96986867Y-24678628D01*
X96986867Y-24678628D02*
X96939248Y-24583390D01*
X96939248Y-24583390D02*
X96939248Y-24059580D01*
X96939248Y-24583390D02*
X96891629Y-24678628D01*
X96891629Y-24678628D02*
X96796391Y-24726247D01*
X96796391Y-24726247D02*
X96653534Y-24726247D01*
X96653534Y-24726247D02*
X96558295Y-24678628D01*
X96558295Y-24678628D02*
X96510676Y-24583390D01*
X96510676Y-24583390D02*
X96510676Y-24059580D01*
X95891629Y-24059580D02*
X95986867Y-24107200D01*
X95986867Y-24107200D02*
X96034486Y-24154819D01*
X96034486Y-24154819D02*
X96082105Y-24250057D01*
X96082105Y-24250057D02*
X96082105Y-24535771D01*
X96082105Y-24535771D02*
X96034486Y-24631009D01*
X96034486Y-24631009D02*
X95986867Y-24678628D01*
X95986867Y-24678628D02*
X95891629Y-24726247D01*
X95891629Y-24726247D02*
X95748772Y-24726247D01*
X95748772Y-24726247D02*
X95653534Y-24678628D01*
X95653534Y-24678628D02*
X95605915Y-24631009D01*
X95605915Y-24631009D02*
X95558296Y-24535771D01*
X95558296Y-24535771D02*
X95558296Y-24250057D01*
X95558296Y-24250057D02*
X95605915Y-24154819D01*
X95605915Y-24154819D02*
X95653534Y-24107200D01*
X95653534Y-24107200D02*
X95748772Y-24059580D01*
X95748772Y-24059580D02*
X95891629Y-24059580D01*
X94701153Y-24059580D02*
X94701153Y-25059580D01*
X94701153Y-24107200D02*
X94796391Y-24059580D01*
X94796391Y-24059580D02*
X94986867Y-24059580D01*
X94986867Y-24059580D02*
X95082105Y-24107200D01*
X95082105Y-24107200D02*
X95129724Y-24154819D01*
X95129724Y-24154819D02*
X95177343Y-24250057D01*
X95177343Y-24250057D02*
X95177343Y-24535771D01*
X95177343Y-24535771D02*
X95129724Y-24631009D01*
X95129724Y-24631009D02*
X95082105Y-24678628D01*
X95082105Y-24678628D02*
X94986867Y-24726247D01*
X94986867Y-24726247D02*
X94796391Y-24726247D01*
X94796391Y-24726247D02*
X94701153Y-24678628D01*
X93796391Y-24726247D02*
X93796391Y-24059580D01*
X94224962Y-24726247D02*
X94224962Y-24202438D01*
X94224962Y-24202438D02*
X94177343Y-24107200D01*
X94177343Y-24107200D02*
X94082105Y-24059580D01*
X94082105Y-24059580D02*
X93939248Y-24059580D01*
X93939248Y-24059580D02*
X93844010Y-24107200D01*
X93844010Y-24107200D02*
X93796391Y-24154819D01*
X93177343Y-24059580D02*
X93272581Y-24107200D01*
X93272581Y-24107200D02*
X93320200Y-24202438D01*
X93320200Y-24202438D02*
X93320200Y-25059580D01*
X92415438Y-24107200D02*
X92510676Y-24059580D01*
X92510676Y-24059580D02*
X92701152Y-24059580D01*
X92701152Y-24059580D02*
X92796390Y-24107200D01*
X92796390Y-24107200D02*
X92844009Y-24202438D01*
X92844009Y-24202438D02*
X92844009Y-24583390D01*
X92844009Y-24583390D02*
X92796390Y-24678628D01*
X92796390Y-24678628D02*
X92701152Y-24726247D01*
X92701152Y-24726247D02*
X92510676Y-24726247D01*
X92510676Y-24726247D02*
X92415438Y-24678628D01*
X92415438Y-24678628D02*
X92367819Y-24583390D01*
X92367819Y-24583390D02*
X92367819Y-24488152D01*
X92367819Y-24488152D02*
X92844009Y-24392914D01*
X91320199Y-24726247D02*
X90939247Y-24726247D01*
X91177342Y-25059580D02*
X91177342Y-24202438D01*
X91177342Y-24202438D02*
X91129723Y-24107200D01*
X91129723Y-24107200D02*
X91034485Y-24059580D01*
X91034485Y-24059580D02*
X90939247Y-24059580D01*
X90463056Y-24059580D02*
X90558294Y-24107200D01*
X90558294Y-24107200D02*
X90605913Y-24154819D01*
X90605913Y-24154819D02*
X90653532Y-24250057D01*
X90653532Y-24250057D02*
X90653532Y-24535771D01*
X90653532Y-24535771D02*
X90605913Y-24631009D01*
X90605913Y-24631009D02*
X90558294Y-24678628D01*
X90558294Y-24678628D02*
X90463056Y-24726247D01*
X90463056Y-24726247D02*
X90320199Y-24726247D01*
X90320199Y-24726247D02*
X90224961Y-24678628D01*
X90224961Y-24678628D02*
X90177342Y-24631009D01*
X90177342Y-24631009D02*
X90129723Y-24535771D01*
X90129723Y-24535771D02*
X90129723Y-24250057D01*
X90129723Y-24250057D02*
X90177342Y-24154819D01*
X90177342Y-24154819D02*
X90224961Y-24107200D01*
X90224961Y-24107200D02*
X90320199Y-24059580D01*
X90320199Y-24059580D02*
X90463056Y-24059580D01*
X89701151Y-24726247D02*
X89701151Y-23726247D01*
X89701151Y-24678628D02*
X89605913Y-24726247D01*
X89605913Y-24726247D02*
X89415437Y-24726247D01*
X89415437Y-24726247D02*
X89320199Y-24678628D01*
X89320199Y-24678628D02*
X89272580Y-24631009D01*
X89272580Y-24631009D02*
X89224961Y-24535771D01*
X89224961Y-24535771D02*
X89224961Y-24250057D01*
X89224961Y-24250057D02*
X89272580Y-24154819D01*
X89272580Y-24154819D02*
X89320199Y-24107200D01*
X89320199Y-24107200D02*
X89415437Y-24059580D01*
X89415437Y-24059580D02*
X89605913Y-24059580D01*
X89605913Y-24059580D02*
X89701151Y-24107200D01*
X88844008Y-24107200D02*
X88748770Y-24059580D01*
X88748770Y-24059580D02*
X88558294Y-24059580D01*
X88558294Y-24059580D02*
X88463056Y-24107200D01*
X88463056Y-24107200D02*
X88415437Y-24202438D01*
X88415437Y-24202438D02*
X88415437Y-24250057D01*
X88415437Y-24250057D02*
X88463056Y-24345295D01*
X88463056Y-24345295D02*
X88558294Y-24392914D01*
X88558294Y-24392914D02*
X88701151Y-24392914D01*
X88701151Y-24392914D02*
X88796389Y-24440533D01*
X88796389Y-24440533D02*
X88844008Y-24535771D01*
X88844008Y-24535771D02*
X88844008Y-24583390D01*
X88844008Y-24583390D02*
X88796389Y-24678628D01*
X88796389Y-24678628D02*
X88701151Y-24726247D01*
X88701151Y-24726247D02*
X88558294Y-24726247D01*
X88558294Y-24726247D02*
X88463056Y-24678628D01*
X87986865Y-24059580D02*
X87986865Y-24726247D01*
X87986865Y-25059580D02*
X88034484Y-25011961D01*
X88034484Y-25011961D02*
X87986865Y-24964342D01*
X87986865Y-24964342D02*
X87939246Y-25011961D01*
X87939246Y-25011961D02*
X87986865Y-25059580D01*
X87986865Y-25059580D02*
X87986865Y-24964342D01*
X87082104Y-24059580D02*
X87082104Y-25059580D01*
X87082104Y-24107200D02*
X87177342Y-24059580D01*
X87177342Y-24059580D02*
X87367818Y-24059580D01*
X87367818Y-24059580D02*
X87463056Y-24107200D01*
X87463056Y-24107200D02*
X87510675Y-24154819D01*
X87510675Y-24154819D02*
X87558294Y-24250057D01*
X87558294Y-24250057D02*
X87558294Y-24535771D01*
X87558294Y-24535771D02*
X87510675Y-24631009D01*
X87510675Y-24631009D02*
X87463056Y-24678628D01*
X87463056Y-24678628D02*
X87367818Y-24726247D01*
X87367818Y-24726247D02*
X87177342Y-24726247D01*
X87177342Y-24726247D02*
X87082104Y-24678628D01*
X86224961Y-24107200D02*
X86320199Y-24059580D01*
X86320199Y-24059580D02*
X86510675Y-24059580D01*
X86510675Y-24059580D02*
X86605913Y-24107200D01*
X86605913Y-24107200D02*
X86653532Y-24202438D01*
X86653532Y-24202438D02*
X86653532Y-24583390D01*
X86653532Y-24583390D02*
X86605913Y-24678628D01*
X86605913Y-24678628D02*
X86510675Y-24726247D01*
X86510675Y-24726247D02*
X86320199Y-24726247D01*
X86320199Y-24726247D02*
X86224961Y-24678628D01*
X86224961Y-24678628D02*
X86177342Y-24583390D01*
X86177342Y-24583390D02*
X86177342Y-24488152D01*
X86177342Y-24488152D02*
X86653532Y-24392914D01*
X84558294Y-24059580D02*
X84558294Y-25059580D01*
X84558294Y-24107200D02*
X84653532Y-24059580D01*
X84653532Y-24059580D02*
X84844008Y-24059580D01*
X84844008Y-24059580D02*
X84939246Y-24107200D01*
X84939246Y-24107200D02*
X84986865Y-24154819D01*
X84986865Y-24154819D02*
X85034484Y-24250057D01*
X85034484Y-24250057D02*
X85034484Y-24535771D01*
X85034484Y-24535771D02*
X84986865Y-24631009D01*
X84986865Y-24631009D02*
X84939246Y-24678628D01*
X84939246Y-24678628D02*
X84844008Y-24726247D01*
X84844008Y-24726247D02*
X84653532Y-24726247D01*
X84653532Y-24726247D02*
X84558294Y-24678628D01*
X83939246Y-24059580D02*
X84034484Y-24107200D01*
X84034484Y-24107200D02*
X84082103Y-24154819D01*
X84082103Y-24154819D02*
X84129722Y-24250057D01*
X84129722Y-24250057D02*
X84129722Y-24535771D01*
X84129722Y-24535771D02*
X84082103Y-24631009D01*
X84082103Y-24631009D02*
X84034484Y-24678628D01*
X84034484Y-24678628D02*
X83939246Y-24726247D01*
X83939246Y-24726247D02*
X83796389Y-24726247D01*
X83796389Y-24726247D02*
X83701151Y-24678628D01*
X83701151Y-24678628D02*
X83653532Y-24631009D01*
X83653532Y-24631009D02*
X83605913Y-24535771D01*
X83605913Y-24535771D02*
X83605913Y-24250057D01*
X83605913Y-24250057D02*
X83653532Y-24154819D01*
X83653532Y-24154819D02*
X83701151Y-24107200D01*
X83701151Y-24107200D02*
X83796389Y-24059580D01*
X83796389Y-24059580D02*
X83939246Y-24059580D01*
X83272579Y-24726247D02*
X83082103Y-24059580D01*
X83082103Y-24059580D02*
X82891627Y-24535771D01*
X82891627Y-24535771D02*
X82701151Y-24059580D01*
X82701151Y-24059580D02*
X82510675Y-24726247D01*
X82129722Y-24726247D02*
X82129722Y-24059580D01*
X82129722Y-24631009D02*
X82082103Y-24678628D01*
X82082103Y-24678628D02*
X81986865Y-24726247D01*
X81986865Y-24726247D02*
X81844008Y-24726247D01*
X81844008Y-24726247D02*
X81748770Y-24678628D01*
X81748770Y-24678628D02*
X81701151Y-24583390D01*
X81701151Y-24583390D02*
X81701151Y-24059580D01*
X93833333Y-58662673D02*
X93833333Y-59424578D01*
X93833333Y-59900768D02*
X93833333Y-60662673D01*
X94119047Y-61138863D02*
X93833333Y-61900768D01*
X93833333Y-61900768D02*
X93547619Y-61138863D01*
X78341746Y-33680082D02*
X77865556Y-33680082D01*
X78436984Y-33251511D02*
X78103651Y-34751511D01*
X78103651Y-34751511D02*
X77770318Y-33251511D01*
X77246508Y-34751511D02*
X77151270Y-34751511D01*
X77151270Y-34751511D02*
X77056032Y-34680082D01*
X77056032Y-34680082D02*
X77008413Y-34608654D01*
X77008413Y-34608654D02*
X76960794Y-34465797D01*
X76960794Y-34465797D02*
X76913175Y-34180082D01*
X76913175Y-34180082D02*
X76913175Y-33822940D01*
X76913175Y-33822940D02*
X76960794Y-33537225D01*
X76960794Y-33537225D02*
X77008413Y-33394368D01*
X77008413Y-33394368D02*
X77056032Y-33322940D01*
X77056032Y-33322940D02*
X77151270Y-33251511D01*
X77151270Y-33251511D02*
X77246508Y-33251511D01*
X77246508Y-33251511D02*
X77341746Y-33322940D01*
X77341746Y-33322940D02*
X77389365Y-33394368D01*
X77389365Y-33394368D02*
X77436984Y-33537225D01*
X77436984Y-33537225D02*
X77484603Y-33822940D01*
X77484603Y-33822940D02*
X77484603Y-34180082D01*
X77484603Y-34180082D02*
X77436984Y-34465797D01*
X77436984Y-34465797D02*
X77389365Y-34608654D01*
X77389365Y-34608654D02*
X77341746Y-34680082D01*
X77341746Y-34680082D02*
X77246508Y-34751511D01*
X78294127Y-30836595D02*
X78294127Y-32336595D01*
X78294127Y-32336595D02*
X78056032Y-32336595D01*
X78056032Y-32336595D02*
X77913175Y-32265166D01*
X77913175Y-32265166D02*
X77817937Y-32122309D01*
X77817937Y-32122309D02*
X77770318Y-31979452D01*
X77770318Y-31979452D02*
X77722699Y-31693738D01*
X77722699Y-31693738D02*
X77722699Y-31479452D01*
X77722699Y-31479452D02*
X77770318Y-31193738D01*
X77770318Y-31193738D02*
X77817937Y-31050881D01*
X77817937Y-31050881D02*
X77913175Y-30908024D01*
X77913175Y-30908024D02*
X78056032Y-30836595D01*
X78056032Y-30836595D02*
X78294127Y-30836595D01*
X77103651Y-32336595D02*
X77008413Y-32336595D01*
X77008413Y-32336595D02*
X76913175Y-32265166D01*
X76913175Y-32265166D02*
X76865556Y-32193738D01*
X76865556Y-32193738D02*
X76817937Y-32050881D01*
X76817937Y-32050881D02*
X76770318Y-31765166D01*
X76770318Y-31765166D02*
X76770318Y-31408024D01*
X76770318Y-31408024D02*
X76817937Y-31122309D01*
X76817937Y-31122309D02*
X76865556Y-30979452D01*
X76865556Y-30979452D02*
X76913175Y-30908024D01*
X76913175Y-30908024D02*
X77008413Y-30836595D01*
X77008413Y-30836595D02*
X77103651Y-30836595D01*
X77103651Y-30836595D02*
X77198889Y-30908024D01*
X77198889Y-30908024D02*
X77246508Y-30979452D01*
X77246508Y-30979452D02*
X77294127Y-31122309D01*
X77294127Y-31122309D02*
X77341746Y-31408024D01*
X77341746Y-31408024D02*
X77341746Y-31765166D01*
X77341746Y-31765166D02*
X77294127Y-32050881D01*
X77294127Y-32050881D02*
X77246508Y-32193738D01*
X77246508Y-32193738D02*
X77198889Y-32265166D01*
X77198889Y-32265166D02*
X77103651Y-32336595D01*
X77770318Y-29850250D02*
X77865556Y-29921679D01*
X77865556Y-29921679D02*
X78008413Y-29921679D01*
X78008413Y-29921679D02*
X78151270Y-29850250D01*
X78151270Y-29850250D02*
X78246508Y-29707393D01*
X78246508Y-29707393D02*
X78294127Y-29564536D01*
X78294127Y-29564536D02*
X78341746Y-29278822D01*
X78341746Y-29278822D02*
X78341746Y-29064536D01*
X78341746Y-29064536D02*
X78294127Y-28778822D01*
X78294127Y-28778822D02*
X78246508Y-28635965D01*
X78246508Y-28635965D02*
X78151270Y-28493108D01*
X78151270Y-28493108D02*
X78008413Y-28421679D01*
X78008413Y-28421679D02*
X77913175Y-28421679D01*
X77913175Y-28421679D02*
X77770318Y-28493108D01*
X77770318Y-28493108D02*
X77722699Y-28564536D01*
X77722699Y-28564536D02*
X77722699Y-29064536D01*
X77722699Y-29064536D02*
X77913175Y-29064536D01*
X77294127Y-28421679D02*
X77294127Y-29921679D01*
X77294127Y-29921679D02*
X76722699Y-28421679D01*
X76722699Y-28421679D02*
X76722699Y-29921679D01*
X76246508Y-28421679D02*
X76246508Y-29921679D01*
X76246508Y-29921679D02*
X76008413Y-29921679D01*
X76008413Y-29921679D02*
X75865556Y-29850250D01*
X75865556Y-29850250D02*
X75770318Y-29707393D01*
X75770318Y-29707393D02*
X75722699Y-29564536D01*
X75722699Y-29564536D02*
X75675080Y-29278822D01*
X75675080Y-29278822D02*
X75675080Y-29064536D01*
X75675080Y-29064536D02*
X75722699Y-28778822D01*
X75722699Y-28778822D02*
X75770318Y-28635965D01*
X75770318Y-28635965D02*
X75865556Y-28493108D01*
X75865556Y-28493108D02*
X76008413Y-28421679D01*
X76008413Y-28421679D02*
X76246508Y-28421679D01*
X77817937Y-27506763D02*
X78294127Y-27506763D01*
X78294127Y-27506763D02*
X78341746Y-26792477D01*
X78341746Y-26792477D02*
X78294127Y-26863906D01*
X78294127Y-26863906D02*
X78198889Y-26935334D01*
X78198889Y-26935334D02*
X77960794Y-26935334D01*
X77960794Y-26935334D02*
X77865556Y-26863906D01*
X77865556Y-26863906D02*
X77817937Y-26792477D01*
X77817937Y-26792477D02*
X77770318Y-26649620D01*
X77770318Y-26649620D02*
X77770318Y-26292477D01*
X77770318Y-26292477D02*
X77817937Y-26149620D01*
X77817937Y-26149620D02*
X77865556Y-26078192D01*
X77865556Y-26078192D02*
X77960794Y-26006763D01*
X77960794Y-26006763D02*
X78198889Y-26006763D01*
X78198889Y-26006763D02*
X78294127Y-26078192D01*
X78294127Y-26078192D02*
X78341746Y-26149620D01*
X77484603Y-27506763D02*
X77151270Y-26006763D01*
X77151270Y-26006763D02*
X76817937Y-27506763D01*
D12*
X68728110Y-65044028D02*
X68728110Y-66544028D01*
X68728110Y-65115457D02*
X68870968Y-65044028D01*
X68870968Y-65044028D02*
X69156682Y-65044028D01*
X69156682Y-65044028D02*
X69299539Y-65115457D01*
X69299539Y-65115457D02*
X69370968Y-65186885D01*
X69370968Y-65186885D02*
X69442396Y-65329742D01*
X69442396Y-65329742D02*
X69442396Y-65758314D01*
X69442396Y-65758314D02*
X69370968Y-65901171D01*
X69370968Y-65901171D02*
X69299539Y-65972600D01*
X69299539Y-65972600D02*
X69156682Y-66044028D01*
X69156682Y-66044028D02*
X68870968Y-66044028D01*
X68870968Y-66044028D02*
X68728110Y-65972600D01*
X70656682Y-65972600D02*
X70513825Y-66044028D01*
X70513825Y-66044028D02*
X70228111Y-66044028D01*
X70228111Y-66044028D02*
X70085253Y-65972600D01*
X70085253Y-65972600D02*
X70013825Y-65829742D01*
X70013825Y-65829742D02*
X70013825Y-65258314D01*
X70013825Y-65258314D02*
X70085253Y-65115457D01*
X70085253Y-65115457D02*
X70228111Y-65044028D01*
X70228111Y-65044028D02*
X70513825Y-65044028D01*
X70513825Y-65044028D02*
X70656682Y-65115457D01*
X70656682Y-65115457D02*
X70728111Y-65258314D01*
X70728111Y-65258314D02*
X70728111Y-65401171D01*
X70728111Y-65401171D02*
X70013825Y-65544028D01*
X71370967Y-65044028D02*
X71370967Y-66044028D01*
X71370967Y-65186885D02*
X71442396Y-65115457D01*
X71442396Y-65115457D02*
X71585253Y-65044028D01*
X71585253Y-65044028D02*
X71799539Y-65044028D01*
X71799539Y-65044028D02*
X71942396Y-65115457D01*
X71942396Y-65115457D02*
X72013825Y-65258314D01*
X72013825Y-65258314D02*
X72013825Y-66044028D01*
X73370968Y-66044028D02*
X73370968Y-64544028D01*
X73370968Y-65972600D02*
X73228110Y-66044028D01*
X73228110Y-66044028D02*
X72942396Y-66044028D01*
X72942396Y-66044028D02*
X72799539Y-65972600D01*
X72799539Y-65972600D02*
X72728110Y-65901171D01*
X72728110Y-65901171D02*
X72656682Y-65758314D01*
X72656682Y-65758314D02*
X72656682Y-65329742D01*
X72656682Y-65329742D02*
X72728110Y-65186885D01*
X72728110Y-65186885D02*
X72799539Y-65115457D01*
X72799539Y-65115457D02*
X72942396Y-65044028D01*
X72942396Y-65044028D02*
X73228110Y-65044028D01*
X73228110Y-65044028D02*
X73370968Y-65115457D01*
X74085253Y-66044028D02*
X74085253Y-65044028D01*
X74085253Y-64544028D02*
X74013825Y-64615457D01*
X74013825Y-64615457D02*
X74085253Y-64686885D01*
X74085253Y-64686885D02*
X74156682Y-64615457D01*
X74156682Y-64615457D02*
X74085253Y-64544028D01*
X74085253Y-64544028D02*
X74085253Y-64686885D01*
X74799539Y-65044028D02*
X74799539Y-66044028D01*
X74799539Y-65186885D02*
X74870968Y-65115457D01*
X74870968Y-65115457D02*
X75013825Y-65044028D01*
X75013825Y-65044028D02*
X75228111Y-65044028D01*
X75228111Y-65044028D02*
X75370968Y-65115457D01*
X75370968Y-65115457D02*
X75442397Y-65258314D01*
X75442397Y-65258314D02*
X75442397Y-66044028D01*
X76799540Y-65044028D02*
X76799540Y-66258314D01*
X76799540Y-66258314D02*
X76728111Y-66401171D01*
X76728111Y-66401171D02*
X76656682Y-66472600D01*
X76656682Y-66472600D02*
X76513825Y-66544028D01*
X76513825Y-66544028D02*
X76299540Y-66544028D01*
X76299540Y-66544028D02*
X76156682Y-66472600D01*
X76799540Y-65972600D02*
X76656682Y-66044028D01*
X76656682Y-66044028D02*
X76370968Y-66044028D01*
X76370968Y-66044028D02*
X76228111Y-65972600D01*
X76228111Y-65972600D02*
X76156682Y-65901171D01*
X76156682Y-65901171D02*
X76085254Y-65758314D01*
X76085254Y-65758314D02*
X76085254Y-65329742D01*
X76085254Y-65329742D02*
X76156682Y-65186885D01*
X76156682Y-65186885D02*
X76228111Y-65115457D01*
X76228111Y-65115457D02*
X76370968Y-65044028D01*
X76370968Y-65044028D02*
X76656682Y-65044028D01*
X76656682Y-65044028D02*
X76799540Y-65115457D01*
X77513825Y-65901171D02*
X77585254Y-65972600D01*
X77585254Y-65972600D02*
X77513825Y-66044028D01*
X77513825Y-66044028D02*
X77442397Y-65972600D01*
X77442397Y-65972600D02*
X77513825Y-65901171D01*
X77513825Y-65901171D02*
X77513825Y-66044028D01*
X77513825Y-65115457D02*
X77585254Y-65186885D01*
X77585254Y-65186885D02*
X77513825Y-65258314D01*
X77513825Y-65258314D02*
X77442397Y-65186885D01*
X77442397Y-65186885D02*
X77513825Y-65115457D01*
X77513825Y-65115457D02*
X77513825Y-65258314D01*
X80013826Y-65972600D02*
X79870968Y-66044028D01*
X79870968Y-66044028D02*
X79585254Y-66044028D01*
X79585254Y-66044028D02*
X79442397Y-65972600D01*
X79442397Y-65972600D02*
X79370968Y-65901171D01*
X79370968Y-65901171D02*
X79299540Y-65758314D01*
X79299540Y-65758314D02*
X79299540Y-65329742D01*
X79299540Y-65329742D02*
X79370968Y-65186885D01*
X79370968Y-65186885D02*
X79442397Y-65115457D01*
X79442397Y-65115457D02*
X79585254Y-65044028D01*
X79585254Y-65044028D02*
X79870968Y-65044028D01*
X79870968Y-65044028D02*
X80013826Y-65115457D01*
X80656682Y-66044028D02*
X80656682Y-64544028D01*
X81299540Y-66044028D02*
X81299540Y-65258314D01*
X81299540Y-65258314D02*
X81228111Y-65115457D01*
X81228111Y-65115457D02*
X81085254Y-65044028D01*
X81085254Y-65044028D02*
X80870968Y-65044028D01*
X80870968Y-65044028D02*
X80728111Y-65115457D01*
X80728111Y-65115457D02*
X80656682Y-65186885D01*
X82656683Y-66044028D02*
X82656683Y-65258314D01*
X82656683Y-65258314D02*
X82585254Y-65115457D01*
X82585254Y-65115457D02*
X82442397Y-65044028D01*
X82442397Y-65044028D02*
X82156683Y-65044028D01*
X82156683Y-65044028D02*
X82013825Y-65115457D01*
X82656683Y-65972600D02*
X82513825Y-66044028D01*
X82513825Y-66044028D02*
X82156683Y-66044028D01*
X82156683Y-66044028D02*
X82013825Y-65972600D01*
X82013825Y-65972600D02*
X81942397Y-65829742D01*
X81942397Y-65829742D02*
X81942397Y-65686885D01*
X81942397Y-65686885D02*
X82013825Y-65544028D01*
X82013825Y-65544028D02*
X82156683Y-65472600D01*
X82156683Y-65472600D02*
X82513825Y-65472600D01*
X82513825Y-65472600D02*
X82656683Y-65401171D01*
X83370968Y-65044028D02*
X83370968Y-66044028D01*
X83370968Y-65186885D02*
X83442397Y-65115457D01*
X83442397Y-65115457D02*
X83585254Y-65044028D01*
X83585254Y-65044028D02*
X83799540Y-65044028D01*
X83799540Y-65044028D02*
X83942397Y-65115457D01*
X83942397Y-65115457D02*
X84013826Y-65258314D01*
X84013826Y-65258314D02*
X84013826Y-66044028D01*
X85370969Y-65044028D02*
X85370969Y-66258314D01*
X85370969Y-66258314D02*
X85299540Y-66401171D01*
X85299540Y-66401171D02*
X85228111Y-66472600D01*
X85228111Y-66472600D02*
X85085254Y-66544028D01*
X85085254Y-66544028D02*
X84870969Y-66544028D01*
X84870969Y-66544028D02*
X84728111Y-66472600D01*
X85370969Y-65972600D02*
X85228111Y-66044028D01*
X85228111Y-66044028D02*
X84942397Y-66044028D01*
X84942397Y-66044028D02*
X84799540Y-65972600D01*
X84799540Y-65972600D02*
X84728111Y-65901171D01*
X84728111Y-65901171D02*
X84656683Y-65758314D01*
X84656683Y-65758314D02*
X84656683Y-65329742D01*
X84656683Y-65329742D02*
X84728111Y-65186885D01*
X84728111Y-65186885D02*
X84799540Y-65115457D01*
X84799540Y-65115457D02*
X84942397Y-65044028D01*
X84942397Y-65044028D02*
X85228111Y-65044028D01*
X85228111Y-65044028D02*
X85370969Y-65115457D01*
X86656683Y-65972600D02*
X86513826Y-66044028D01*
X86513826Y-66044028D02*
X86228112Y-66044028D01*
X86228112Y-66044028D02*
X86085254Y-65972600D01*
X86085254Y-65972600D02*
X86013826Y-65829742D01*
X86013826Y-65829742D02*
X86013826Y-65258314D01*
X86013826Y-65258314D02*
X86085254Y-65115457D01*
X86085254Y-65115457D02*
X86228112Y-65044028D01*
X86228112Y-65044028D02*
X86513826Y-65044028D01*
X86513826Y-65044028D02*
X86656683Y-65115457D01*
X86656683Y-65115457D02*
X86728112Y-65258314D01*
X86728112Y-65258314D02*
X86728112Y-65401171D01*
X86728112Y-65401171D02*
X86013826Y-65544028D01*
X88728111Y-66044028D02*
X88585254Y-65972600D01*
X88585254Y-65972600D02*
X88513825Y-65901171D01*
X88513825Y-65901171D02*
X88442397Y-65758314D01*
X88442397Y-65758314D02*
X88442397Y-65329742D01*
X88442397Y-65329742D02*
X88513825Y-65186885D01*
X88513825Y-65186885D02*
X88585254Y-65115457D01*
X88585254Y-65115457D02*
X88728111Y-65044028D01*
X88728111Y-65044028D02*
X88942397Y-65044028D01*
X88942397Y-65044028D02*
X89085254Y-65115457D01*
X89085254Y-65115457D02*
X89156683Y-65186885D01*
X89156683Y-65186885D02*
X89228111Y-65329742D01*
X89228111Y-65329742D02*
X89228111Y-65758314D01*
X89228111Y-65758314D02*
X89156683Y-65901171D01*
X89156683Y-65901171D02*
X89085254Y-65972600D01*
X89085254Y-65972600D02*
X88942397Y-66044028D01*
X88942397Y-66044028D02*
X88728111Y-66044028D01*
X90513826Y-65044028D02*
X90513826Y-66044028D01*
X89870968Y-65044028D02*
X89870968Y-65829742D01*
X89870968Y-65829742D02*
X89942397Y-65972600D01*
X89942397Y-65972600D02*
X90085254Y-66044028D01*
X90085254Y-66044028D02*
X90299540Y-66044028D01*
X90299540Y-66044028D02*
X90442397Y-65972600D01*
X90442397Y-65972600D02*
X90513826Y-65901171D01*
X91013826Y-65044028D02*
X91585254Y-65044028D01*
X91228111Y-64544028D02*
X91228111Y-65829742D01*
X91228111Y-65829742D02*
X91299540Y-65972600D01*
X91299540Y-65972600D02*
X91442397Y-66044028D01*
X91442397Y-66044028D02*
X91585254Y-66044028D01*
X94085254Y-66044028D02*
X93585254Y-65329742D01*
X93228111Y-66044028D02*
X93228111Y-64544028D01*
X93228111Y-64544028D02*
X93799540Y-64544028D01*
X93799540Y-64544028D02*
X93942397Y-64615457D01*
X93942397Y-64615457D02*
X94013826Y-64686885D01*
X94013826Y-64686885D02*
X94085254Y-64829742D01*
X94085254Y-64829742D02*
X94085254Y-65044028D01*
X94085254Y-65044028D02*
X94013826Y-65186885D01*
X94013826Y-65186885D02*
X93942397Y-65258314D01*
X93942397Y-65258314D02*
X93799540Y-65329742D01*
X93799540Y-65329742D02*
X93228111Y-65329742D01*
X95156683Y-64544028D02*
X95156683Y-65615457D01*
X95156683Y-65615457D02*
X95085254Y-65829742D01*
X95085254Y-65829742D02*
X94942397Y-65972600D01*
X94942397Y-65972600D02*
X94728111Y-66044028D01*
X94728111Y-66044028D02*
X94585254Y-66044028D01*
X96513826Y-65044028D02*
X96513826Y-66044028D01*
X96156683Y-64472600D02*
X95799540Y-65544028D01*
X95799540Y-65544028D02*
X96728111Y-65544028D01*
X98013825Y-64544028D02*
X97299539Y-64544028D01*
X97299539Y-64544028D02*
X97228111Y-65258314D01*
X97228111Y-65258314D02*
X97299539Y-65186885D01*
X97299539Y-65186885D02*
X97442397Y-65115457D01*
X97442397Y-65115457D02*
X97799539Y-65115457D01*
X97799539Y-65115457D02*
X97942397Y-65186885D01*
X97942397Y-65186885D02*
X98013825Y-65258314D01*
X98013825Y-65258314D02*
X98085254Y-65401171D01*
X98085254Y-65401171D02*
X98085254Y-65758314D01*
X98085254Y-65758314D02*
X98013825Y-65901171D01*
X98013825Y-65901171D02*
X97942397Y-65972600D01*
X97942397Y-65972600D02*
X97799539Y-66044028D01*
X97799539Y-66044028D02*
X97442397Y-66044028D01*
X97442397Y-66044028D02*
X97299539Y-65972600D01*
X97299539Y-65972600D02*
X97228111Y-65901171D01*
X99656682Y-65044028D02*
X100228110Y-65044028D01*
X99870967Y-66044028D02*
X99870967Y-64758314D01*
X99870967Y-64758314D02*
X99942396Y-64615457D01*
X99942396Y-64615457D02*
X100085253Y-64544028D01*
X100085253Y-64544028D02*
X100228110Y-64544028D01*
X100942396Y-66044028D02*
X100799539Y-65972600D01*
X100799539Y-65972600D02*
X100728110Y-65901171D01*
X100728110Y-65901171D02*
X100656682Y-65758314D01*
X100656682Y-65758314D02*
X100656682Y-65329742D01*
X100656682Y-65329742D02*
X100728110Y-65186885D01*
X100728110Y-65186885D02*
X100799539Y-65115457D01*
X100799539Y-65115457D02*
X100942396Y-65044028D01*
X100942396Y-65044028D02*
X101156682Y-65044028D01*
X101156682Y-65044028D02*
X101299539Y-65115457D01*
X101299539Y-65115457D02*
X101370968Y-65186885D01*
X101370968Y-65186885D02*
X101442396Y-65329742D01*
X101442396Y-65329742D02*
X101442396Y-65758314D01*
X101442396Y-65758314D02*
X101370968Y-65901171D01*
X101370968Y-65901171D02*
X101299539Y-65972600D01*
X101299539Y-65972600D02*
X101156682Y-66044028D01*
X101156682Y-66044028D02*
X100942396Y-66044028D01*
X102299539Y-66044028D02*
X102156682Y-65972600D01*
X102156682Y-65972600D02*
X102085253Y-65901171D01*
X102085253Y-65901171D02*
X102013825Y-65758314D01*
X102013825Y-65758314D02*
X102013825Y-65329742D01*
X102013825Y-65329742D02*
X102085253Y-65186885D01*
X102085253Y-65186885D02*
X102156682Y-65115457D01*
X102156682Y-65115457D02*
X102299539Y-65044028D01*
X102299539Y-65044028D02*
X102513825Y-65044028D01*
X102513825Y-65044028D02*
X102656682Y-65115457D01*
X102656682Y-65115457D02*
X102728111Y-65186885D01*
X102728111Y-65186885D02*
X102799539Y-65329742D01*
X102799539Y-65329742D02*
X102799539Y-65758314D01*
X102799539Y-65758314D02*
X102728111Y-65901171D01*
X102728111Y-65901171D02*
X102656682Y-65972600D01*
X102656682Y-65972600D02*
X102513825Y-66044028D01*
X102513825Y-66044028D02*
X102299539Y-66044028D01*
X103228111Y-65044028D02*
X103799539Y-65044028D01*
X103442396Y-64544028D02*
X103442396Y-65829742D01*
X103442396Y-65829742D02*
X103513825Y-65972600D01*
X103513825Y-65972600D02*
X103656682Y-66044028D01*
X103656682Y-66044028D02*
X103799539Y-66044028D01*
X104299539Y-65044028D02*
X104299539Y-66544028D01*
X104299539Y-65115457D02*
X104442397Y-65044028D01*
X104442397Y-65044028D02*
X104728111Y-65044028D01*
X104728111Y-65044028D02*
X104870968Y-65115457D01*
X104870968Y-65115457D02*
X104942397Y-65186885D01*
X104942397Y-65186885D02*
X105013825Y-65329742D01*
X105013825Y-65329742D02*
X105013825Y-65758314D01*
X105013825Y-65758314D02*
X104942397Y-65901171D01*
X104942397Y-65901171D02*
X104870968Y-65972600D01*
X104870968Y-65972600D02*
X104728111Y-66044028D01*
X104728111Y-66044028D02*
X104442397Y-66044028D01*
X104442397Y-66044028D02*
X104299539Y-65972600D01*
X105656682Y-66044028D02*
X105656682Y-65044028D01*
X105656682Y-65329742D02*
X105728111Y-65186885D01*
X105728111Y-65186885D02*
X105799540Y-65115457D01*
X105799540Y-65115457D02*
X105942397Y-65044028D01*
X105942397Y-65044028D02*
X106085254Y-65044028D01*
X106585253Y-66044028D02*
X106585253Y-65044028D01*
X106585253Y-64544028D02*
X106513825Y-64615457D01*
X106513825Y-64615457D02*
X106585253Y-64686885D01*
X106585253Y-64686885D02*
X106656682Y-64615457D01*
X106656682Y-64615457D02*
X106585253Y-64544028D01*
X106585253Y-64544028D02*
X106585253Y-64686885D01*
X107299539Y-65044028D02*
X107299539Y-66044028D01*
X107299539Y-65186885D02*
X107370968Y-65115457D01*
X107370968Y-65115457D02*
X107513825Y-65044028D01*
X107513825Y-65044028D02*
X107728111Y-65044028D01*
X107728111Y-65044028D02*
X107870968Y-65115457D01*
X107870968Y-65115457D02*
X107942397Y-65258314D01*
X107942397Y-65258314D02*
X107942397Y-66044028D01*
X108442397Y-65044028D02*
X109013825Y-65044028D01*
X108656682Y-64544028D02*
X108656682Y-65829742D01*
X108656682Y-65829742D02*
X108728111Y-65972600D01*
X108728111Y-65972600D02*
X108870968Y-66044028D01*
X108870968Y-66044028D02*
X109013825Y-66044028D01*
X110513825Y-65044028D02*
X110799540Y-66044028D01*
X110799540Y-66044028D02*
X111085254Y-65329742D01*
X111085254Y-65329742D02*
X111370968Y-66044028D01*
X111370968Y-66044028D02*
X111656682Y-65044028D01*
X112228111Y-66044028D02*
X112228111Y-64544028D01*
X112870969Y-66044028D02*
X112870969Y-65258314D01*
X112870969Y-65258314D02*
X112799540Y-65115457D01*
X112799540Y-65115457D02*
X112656683Y-65044028D01*
X112656683Y-65044028D02*
X112442397Y-65044028D01*
X112442397Y-65044028D02*
X112299540Y-65115457D01*
X112299540Y-65115457D02*
X112228111Y-65186885D01*
X114156683Y-65972600D02*
X114013826Y-66044028D01*
X114013826Y-66044028D02*
X113728112Y-66044028D01*
X113728112Y-66044028D02*
X113585254Y-65972600D01*
X113585254Y-65972600D02*
X113513826Y-65829742D01*
X113513826Y-65829742D02*
X113513826Y-65258314D01*
X113513826Y-65258314D02*
X113585254Y-65115457D01*
X113585254Y-65115457D02*
X113728112Y-65044028D01*
X113728112Y-65044028D02*
X114013826Y-65044028D01*
X114013826Y-65044028D02*
X114156683Y-65115457D01*
X114156683Y-65115457D02*
X114228112Y-65258314D01*
X114228112Y-65258314D02*
X114228112Y-65401171D01*
X114228112Y-65401171D02*
X113513826Y-65544028D01*
X114870968Y-65044028D02*
X114870968Y-66044028D01*
X114870968Y-65186885D02*
X114942397Y-65115457D01*
X114942397Y-65115457D02*
X115085254Y-65044028D01*
X115085254Y-65044028D02*
X115299540Y-65044028D01*
X115299540Y-65044028D02*
X115442397Y-65115457D01*
X115442397Y-65115457D02*
X115513826Y-65258314D01*
X115513826Y-65258314D02*
X115513826Y-66044028D01*
X117228111Y-65044028D02*
X117585254Y-66044028D01*
X117585254Y-66044028D02*
X117942397Y-65044028D01*
X119085254Y-65972600D02*
X118942397Y-66044028D01*
X118942397Y-66044028D02*
X118656683Y-66044028D01*
X118656683Y-66044028D02*
X118513825Y-65972600D01*
X118513825Y-65972600D02*
X118442397Y-65829742D01*
X118442397Y-65829742D02*
X118442397Y-65258314D01*
X118442397Y-65258314D02*
X118513825Y-65115457D01*
X118513825Y-65115457D02*
X118656683Y-65044028D01*
X118656683Y-65044028D02*
X118942397Y-65044028D01*
X118942397Y-65044028D02*
X119085254Y-65115457D01*
X119085254Y-65115457D02*
X119156683Y-65258314D01*
X119156683Y-65258314D02*
X119156683Y-65401171D01*
X119156683Y-65401171D02*
X118442397Y-65544028D01*
X119799539Y-66044028D02*
X119799539Y-65044028D01*
X119799539Y-65329742D02*
X119870968Y-65186885D01*
X119870968Y-65186885D02*
X119942397Y-65115457D01*
X119942397Y-65115457D02*
X120085254Y-65044028D01*
X120085254Y-65044028D02*
X120228111Y-65044028D01*
X120728110Y-66044028D02*
X120728110Y-65044028D01*
X120728110Y-64544028D02*
X120656682Y-64615457D01*
X120656682Y-64615457D02*
X120728110Y-64686885D01*
X120728110Y-64686885D02*
X120799539Y-64615457D01*
X120799539Y-64615457D02*
X120728110Y-64544028D01*
X120728110Y-64544028D02*
X120728110Y-64686885D01*
X121228111Y-65044028D02*
X121799539Y-65044028D01*
X121442396Y-66044028D02*
X121442396Y-64758314D01*
X121442396Y-64758314D02*
X121513825Y-64615457D01*
X121513825Y-64615457D02*
X121656682Y-64544028D01*
X121656682Y-64544028D02*
X121799539Y-64544028D01*
X122299539Y-66044028D02*
X122299539Y-65044028D01*
X122299539Y-64544028D02*
X122228111Y-64615457D01*
X122228111Y-64615457D02*
X122299539Y-64686885D01*
X122299539Y-64686885D02*
X122370968Y-64615457D01*
X122370968Y-64615457D02*
X122299539Y-64544028D01*
X122299539Y-64544028D02*
X122299539Y-64686885D01*
X123585254Y-65972600D02*
X123442397Y-66044028D01*
X123442397Y-66044028D02*
X123156683Y-66044028D01*
X123156683Y-66044028D02*
X123013825Y-65972600D01*
X123013825Y-65972600D02*
X122942397Y-65829742D01*
X122942397Y-65829742D02*
X122942397Y-65258314D01*
X122942397Y-65258314D02*
X123013825Y-65115457D01*
X123013825Y-65115457D02*
X123156683Y-65044028D01*
X123156683Y-65044028D02*
X123442397Y-65044028D01*
X123442397Y-65044028D02*
X123585254Y-65115457D01*
X123585254Y-65115457D02*
X123656683Y-65258314D01*
X123656683Y-65258314D02*
X123656683Y-65401171D01*
X123656683Y-65401171D02*
X122942397Y-65544028D01*
X124942397Y-66044028D02*
X124942397Y-64544028D01*
X124942397Y-65972600D02*
X124799539Y-66044028D01*
X124799539Y-66044028D02*
X124513825Y-66044028D01*
X124513825Y-66044028D02*
X124370968Y-65972600D01*
X124370968Y-65972600D02*
X124299539Y-65901171D01*
X124299539Y-65901171D02*
X124228111Y-65758314D01*
X124228111Y-65758314D02*
X124228111Y-65329742D01*
X124228111Y-65329742D02*
X124299539Y-65186885D01*
X124299539Y-65186885D02*
X124370968Y-65115457D01*
X124370968Y-65115457D02*
X124513825Y-65044028D01*
X124513825Y-65044028D02*
X124799539Y-65044028D01*
X124799539Y-65044028D02*
X124942397Y-65115457D01*
X102002110Y-45395514D02*
X102502110Y-45395514D01*
X102716396Y-46181228D02*
X102002110Y-46181228D01*
X102002110Y-46181228D02*
X102002110Y-44681228D01*
X102002110Y-44681228D02*
X102716396Y-44681228D01*
X103144968Y-44681228D02*
X104002111Y-44681228D01*
X103573539Y-46181228D02*
X103573539Y-44681228D01*
X104502110Y-46181228D02*
X104502110Y-44681228D01*
X104502110Y-45395514D02*
X105359253Y-45395514D01*
X105359253Y-46181228D02*
X105359253Y-44681228D01*
X108073539Y-46038371D02*
X108002111Y-46109800D01*
X108002111Y-46109800D02*
X107787825Y-46181228D01*
X107787825Y-46181228D02*
X107644968Y-46181228D01*
X107644968Y-46181228D02*
X107430682Y-46109800D01*
X107430682Y-46109800D02*
X107287825Y-45966942D01*
X107287825Y-45966942D02*
X107216396Y-45824085D01*
X107216396Y-45824085D02*
X107144968Y-45538371D01*
X107144968Y-45538371D02*
X107144968Y-45324085D01*
X107144968Y-45324085D02*
X107216396Y-45038371D01*
X107216396Y-45038371D02*
X107287825Y-44895514D01*
X107287825Y-44895514D02*
X107430682Y-44752657D01*
X107430682Y-44752657D02*
X107644968Y-44681228D01*
X107644968Y-44681228D02*
X107787825Y-44681228D01*
X107787825Y-44681228D02*
X108002111Y-44752657D01*
X108002111Y-44752657D02*
X108073539Y-44824085D01*
X109359254Y-46181228D02*
X109359254Y-45395514D01*
X109359254Y-45395514D02*
X109287825Y-45252657D01*
X109287825Y-45252657D02*
X109144968Y-45181228D01*
X109144968Y-45181228D02*
X108859254Y-45181228D01*
X108859254Y-45181228D02*
X108716396Y-45252657D01*
X109359254Y-46109800D02*
X109216396Y-46181228D01*
X109216396Y-46181228D02*
X108859254Y-46181228D01*
X108859254Y-46181228D02*
X108716396Y-46109800D01*
X108716396Y-46109800D02*
X108644968Y-45966942D01*
X108644968Y-45966942D02*
X108644968Y-45824085D01*
X108644968Y-45824085D02*
X108716396Y-45681228D01*
X108716396Y-45681228D02*
X108859254Y-45609800D01*
X108859254Y-45609800D02*
X109216396Y-45609800D01*
X109216396Y-45609800D02*
X109359254Y-45538371D01*
X110073539Y-46181228D02*
X110073539Y-44681228D01*
X110073539Y-45252657D02*
X110216397Y-45181228D01*
X110216397Y-45181228D02*
X110502111Y-45181228D01*
X110502111Y-45181228D02*
X110644968Y-45252657D01*
X110644968Y-45252657D02*
X110716397Y-45324085D01*
X110716397Y-45324085D02*
X110787825Y-45466942D01*
X110787825Y-45466942D02*
X110787825Y-45895514D01*
X110787825Y-45895514D02*
X110716397Y-46038371D01*
X110716397Y-46038371D02*
X110644968Y-46109800D01*
X110644968Y-46109800D02*
X110502111Y-46181228D01*
X110502111Y-46181228D02*
X110216397Y-46181228D01*
X110216397Y-46181228D02*
X110073539Y-46109800D01*
X111644968Y-46181228D02*
X111502111Y-46109800D01*
X111502111Y-46109800D02*
X111430682Y-45966942D01*
X111430682Y-45966942D02*
X111430682Y-44681228D01*
X112787825Y-46109800D02*
X112644968Y-46181228D01*
X112644968Y-46181228D02*
X112359254Y-46181228D01*
X112359254Y-46181228D02*
X112216396Y-46109800D01*
X112216396Y-46109800D02*
X112144968Y-45966942D01*
X112144968Y-45966942D02*
X112144968Y-45395514D01*
X112144968Y-45395514D02*
X112216396Y-45252657D01*
X112216396Y-45252657D02*
X112359254Y-45181228D01*
X112359254Y-45181228D02*
X112644968Y-45181228D01*
X112644968Y-45181228D02*
X112787825Y-45252657D01*
X112787825Y-45252657D02*
X112859254Y-45395514D01*
X112859254Y-45395514D02*
X112859254Y-45538371D01*
X112859254Y-45538371D02*
X112144968Y-45681228D01*
X111806510Y-30226196D02*
X111806510Y-28726196D01*
X111806510Y-28726196D02*
X112163653Y-28726196D01*
X112163653Y-28726196D02*
X112377939Y-28797625D01*
X112377939Y-28797625D02*
X112520796Y-28940482D01*
X112520796Y-28940482D02*
X112592225Y-29083339D01*
X112592225Y-29083339D02*
X112663653Y-29369053D01*
X112663653Y-29369053D02*
X112663653Y-29583339D01*
X112663653Y-29583339D02*
X112592225Y-29869053D01*
X112592225Y-29869053D02*
X112520796Y-30011910D01*
X112520796Y-30011910D02*
X112377939Y-30154768D01*
X112377939Y-30154768D02*
X112163653Y-30226196D01*
X112163653Y-30226196D02*
X111806510Y-30226196D01*
X113520796Y-30226196D02*
X113377939Y-30154768D01*
X113377939Y-30154768D02*
X113306510Y-30083339D01*
X113306510Y-30083339D02*
X113235082Y-29940482D01*
X113235082Y-29940482D02*
X113235082Y-29511910D01*
X113235082Y-29511910D02*
X113306510Y-29369053D01*
X113306510Y-29369053D02*
X113377939Y-29297625D01*
X113377939Y-29297625D02*
X113520796Y-29226196D01*
X113520796Y-29226196D02*
X113735082Y-29226196D01*
X113735082Y-29226196D02*
X113877939Y-29297625D01*
X113877939Y-29297625D02*
X113949368Y-29369053D01*
X113949368Y-29369053D02*
X114020796Y-29511910D01*
X114020796Y-29511910D02*
X114020796Y-29940482D01*
X114020796Y-29940482D02*
X113949368Y-30083339D01*
X113949368Y-30083339D02*
X113877939Y-30154768D01*
X113877939Y-30154768D02*
X113735082Y-30226196D01*
X113735082Y-30226196D02*
X113520796Y-30226196D01*
X114877939Y-30226196D02*
X114735082Y-30154768D01*
X114735082Y-30154768D02*
X114663653Y-30083339D01*
X114663653Y-30083339D02*
X114592225Y-29940482D01*
X114592225Y-29940482D02*
X114592225Y-29511910D01*
X114592225Y-29511910D02*
X114663653Y-29369053D01*
X114663653Y-29369053D02*
X114735082Y-29297625D01*
X114735082Y-29297625D02*
X114877939Y-29226196D01*
X114877939Y-29226196D02*
X115092225Y-29226196D01*
X115092225Y-29226196D02*
X115235082Y-29297625D01*
X115235082Y-29297625D02*
X115306511Y-29369053D01*
X115306511Y-29369053D02*
X115377939Y-29511910D01*
X115377939Y-29511910D02*
X115377939Y-29940482D01*
X115377939Y-29940482D02*
X115306511Y-30083339D01*
X115306511Y-30083339D02*
X115235082Y-30154768D01*
X115235082Y-30154768D02*
X115092225Y-30226196D01*
X115092225Y-30226196D02*
X114877939Y-30226196D01*
X116020796Y-30226196D02*
X116020796Y-29226196D01*
X116020796Y-29511910D02*
X116092225Y-29369053D01*
X116092225Y-29369053D02*
X116163654Y-29297625D01*
X116163654Y-29297625D02*
X116306511Y-29226196D01*
X116306511Y-29226196D02*
X116449368Y-29226196D01*
X118806510Y-30226196D02*
X118092224Y-30226196D01*
X118092224Y-30226196D02*
X118092224Y-28726196D01*
X119520796Y-30226196D02*
X119377939Y-30154768D01*
X119377939Y-30154768D02*
X119306510Y-30083339D01*
X119306510Y-30083339D02*
X119235082Y-29940482D01*
X119235082Y-29940482D02*
X119235082Y-29511910D01*
X119235082Y-29511910D02*
X119306510Y-29369053D01*
X119306510Y-29369053D02*
X119377939Y-29297625D01*
X119377939Y-29297625D02*
X119520796Y-29226196D01*
X119520796Y-29226196D02*
X119735082Y-29226196D01*
X119735082Y-29226196D02*
X119877939Y-29297625D01*
X119877939Y-29297625D02*
X119949368Y-29369053D01*
X119949368Y-29369053D02*
X120020796Y-29511910D01*
X120020796Y-29511910D02*
X120020796Y-29940482D01*
X120020796Y-29940482D02*
X119949368Y-30083339D01*
X119949368Y-30083339D02*
X119877939Y-30154768D01*
X119877939Y-30154768D02*
X119735082Y-30226196D01*
X119735082Y-30226196D02*
X119520796Y-30226196D01*
X121306511Y-30154768D02*
X121163653Y-30226196D01*
X121163653Y-30226196D02*
X120877939Y-30226196D01*
X120877939Y-30226196D02*
X120735082Y-30154768D01*
X120735082Y-30154768D02*
X120663653Y-30083339D01*
X120663653Y-30083339D02*
X120592225Y-29940482D01*
X120592225Y-29940482D02*
X120592225Y-29511910D01*
X120592225Y-29511910D02*
X120663653Y-29369053D01*
X120663653Y-29369053D02*
X120735082Y-29297625D01*
X120735082Y-29297625D02*
X120877939Y-29226196D01*
X120877939Y-29226196D02*
X121163653Y-29226196D01*
X121163653Y-29226196D02*
X121306511Y-29297625D01*
X121949367Y-30226196D02*
X121949367Y-28726196D01*
X122092225Y-29654768D02*
X122520796Y-30226196D01*
X122520796Y-29226196D02*
X121949367Y-29797625D01*
X111806510Y-32641112D02*
X111806510Y-31141112D01*
X111806510Y-31141112D02*
X112163653Y-31141112D01*
X112163653Y-31141112D02*
X112377939Y-31212541D01*
X112377939Y-31212541D02*
X112520796Y-31355398D01*
X112520796Y-31355398D02*
X112592225Y-31498255D01*
X112592225Y-31498255D02*
X112663653Y-31783969D01*
X112663653Y-31783969D02*
X112663653Y-31998255D01*
X112663653Y-31998255D02*
X112592225Y-32283969D01*
X112592225Y-32283969D02*
X112520796Y-32426826D01*
X112520796Y-32426826D02*
X112377939Y-32569684D01*
X112377939Y-32569684D02*
X112163653Y-32641112D01*
X112163653Y-32641112D02*
X111806510Y-32641112D01*
X113306510Y-32641112D02*
X113306510Y-31641112D01*
X113306510Y-31926826D02*
X113377939Y-31783969D01*
X113377939Y-31783969D02*
X113449368Y-31712541D01*
X113449368Y-31712541D02*
X113592225Y-31641112D01*
X113592225Y-31641112D02*
X113735082Y-31641112D01*
X114235081Y-32641112D02*
X114235081Y-31641112D01*
X114235081Y-31141112D02*
X114163653Y-31212541D01*
X114163653Y-31212541D02*
X114235081Y-31283969D01*
X114235081Y-31283969D02*
X114306510Y-31212541D01*
X114306510Y-31212541D02*
X114235081Y-31141112D01*
X114235081Y-31141112D02*
X114235081Y-31283969D01*
X114806510Y-31641112D02*
X115163653Y-32641112D01*
X115163653Y-32641112D02*
X115520796Y-31641112D01*
X116663653Y-32569684D02*
X116520796Y-32641112D01*
X116520796Y-32641112D02*
X116235082Y-32641112D01*
X116235082Y-32641112D02*
X116092224Y-32569684D01*
X116092224Y-32569684D02*
X116020796Y-32426826D01*
X116020796Y-32426826D02*
X116020796Y-31855398D01*
X116020796Y-31855398D02*
X116092224Y-31712541D01*
X116092224Y-31712541D02*
X116235082Y-31641112D01*
X116235082Y-31641112D02*
X116520796Y-31641112D01*
X116520796Y-31641112D02*
X116663653Y-31712541D01*
X116663653Y-31712541D02*
X116735082Y-31855398D01*
X116735082Y-31855398D02*
X116735082Y-31998255D01*
X116735082Y-31998255D02*
X116020796Y-32141112D01*
X117377938Y-32641112D02*
X117377938Y-31641112D01*
X117377938Y-31926826D02*
X117449367Y-31783969D01*
X117449367Y-31783969D02*
X117520796Y-31712541D01*
X117520796Y-31712541D02*
X117663653Y-31641112D01*
X117663653Y-31641112D02*
X117806510Y-31641112D01*
X111806510Y-35056028D02*
X111806510Y-34056028D01*
X111806510Y-34341742D02*
X111877939Y-34198885D01*
X111877939Y-34198885D02*
X111949368Y-34127457D01*
X111949368Y-34127457D02*
X112092225Y-34056028D01*
X112092225Y-34056028D02*
X112235082Y-34056028D01*
X113306510Y-34984600D02*
X113163653Y-35056028D01*
X113163653Y-35056028D02*
X112877939Y-35056028D01*
X112877939Y-35056028D02*
X112735081Y-34984600D01*
X112735081Y-34984600D02*
X112663653Y-34841742D01*
X112663653Y-34841742D02*
X112663653Y-34270314D01*
X112663653Y-34270314D02*
X112735081Y-34127457D01*
X112735081Y-34127457D02*
X112877939Y-34056028D01*
X112877939Y-34056028D02*
X113163653Y-34056028D01*
X113163653Y-34056028D02*
X113306510Y-34127457D01*
X113306510Y-34127457D02*
X113377939Y-34270314D01*
X113377939Y-34270314D02*
X113377939Y-34413171D01*
X113377939Y-34413171D02*
X112663653Y-34556028D01*
X113877938Y-34056028D02*
X114235081Y-35056028D01*
X114235081Y-35056028D02*
X114592224Y-34056028D01*
X117092224Y-35056028D02*
X116235081Y-35056028D01*
X116663652Y-35056028D02*
X116663652Y-33556028D01*
X116663652Y-33556028D02*
X116520795Y-33770314D01*
X116520795Y-33770314D02*
X116377938Y-33913171D01*
X116377938Y-33913171D02*
X116235081Y-33984600D01*
X117735080Y-34913171D02*
X117806509Y-34984600D01*
X117806509Y-34984600D02*
X117735080Y-35056028D01*
X117735080Y-35056028D02*
X117663652Y-34984600D01*
X117663652Y-34984600D02*
X117735080Y-34913171D01*
X117735080Y-34913171D02*
X117735080Y-35056028D01*
X118520795Y-35056028D02*
X118806509Y-35056028D01*
X118806509Y-35056028D02*
X118949366Y-34984600D01*
X118949366Y-34984600D02*
X119020795Y-34913171D01*
X119020795Y-34913171D02*
X119163652Y-34698885D01*
X119163652Y-34698885D02*
X119235081Y-34413171D01*
X119235081Y-34413171D02*
X119235081Y-33841742D01*
X119235081Y-33841742D02*
X119163652Y-33698885D01*
X119163652Y-33698885D02*
X119092224Y-33627457D01*
X119092224Y-33627457D02*
X118949366Y-33556028D01*
X118949366Y-33556028D02*
X118663652Y-33556028D01*
X118663652Y-33556028D02*
X118520795Y-33627457D01*
X118520795Y-33627457D02*
X118449366Y-33698885D01*
X118449366Y-33698885D02*
X118377938Y-33841742D01*
X118377938Y-33841742D02*
X118377938Y-34198885D01*
X118377938Y-34198885D02*
X118449366Y-34341742D01*
X118449366Y-34341742D02*
X118520795Y-34413171D01*
X118520795Y-34413171D02*
X118663652Y-34484600D01*
X118663652Y-34484600D02*
X118949366Y-34484600D01*
X118949366Y-34484600D02*
X119092224Y-34413171D01*
X119092224Y-34413171D02*
X119163652Y-34341742D01*
X119163652Y-34341742D02*
X119235081Y-34198885D01*
X119806509Y-33698885D02*
X119877937Y-33627457D01*
X119877937Y-33627457D02*
X120020795Y-33556028D01*
X120020795Y-33556028D02*
X120377937Y-33556028D01*
X120377937Y-33556028D02*
X120520795Y-33627457D01*
X120520795Y-33627457D02*
X120592223Y-33698885D01*
X120592223Y-33698885D02*
X120663652Y-33841742D01*
X120663652Y-33841742D02*
X120663652Y-33984600D01*
X120663652Y-33984600D02*
X120592223Y-34198885D01*
X120592223Y-34198885D02*
X119735080Y-35056028D01*
X119735080Y-35056028D02*
X120663652Y-35056028D01*
X95898725Y-39968941D02*
X95836225Y-39897512D01*
X95836225Y-39897512D02*
X95720153Y-39683226D01*
X95720153Y-39683226D02*
X95666582Y-39540369D01*
X95666582Y-39540369D02*
X95621939Y-39326084D01*
X95621939Y-39326084D02*
X95595153Y-38968941D01*
X95595153Y-38968941D02*
X95630868Y-38683226D01*
X95630868Y-38683226D02*
X95746939Y-38326084D01*
X95746939Y-38326084D02*
X95845153Y-38111798D01*
X95845153Y-38111798D02*
X95934439Y-37968941D01*
X95934439Y-37968941D02*
X96104082Y-37754655D01*
X96104082Y-37754655D02*
X96184439Y-37683226D01*
X97416582Y-39254655D02*
X97336225Y-39326084D01*
X97336225Y-39326084D02*
X97113010Y-39397512D01*
X97113010Y-39397512D02*
X96970153Y-39397512D01*
X96970153Y-39397512D02*
X96764796Y-39326084D01*
X96764796Y-39326084D02*
X96639796Y-39183226D01*
X96639796Y-39183226D02*
X96586225Y-39040369D01*
X96586225Y-39040369D02*
X96550510Y-38754655D01*
X96550510Y-38754655D02*
X96577296Y-38540369D01*
X96577296Y-38540369D02*
X96684439Y-38254655D01*
X96684439Y-38254655D02*
X96773725Y-38111798D01*
X96773725Y-38111798D02*
X96934439Y-37968941D01*
X96934439Y-37968941D02*
X97157653Y-37897512D01*
X97157653Y-37897512D02*
X97300510Y-37897512D01*
X97300510Y-37897512D02*
X97505868Y-37968941D01*
X97505868Y-37968941D02*
X97568368Y-38040369D01*
X97827296Y-39968941D02*
X97907653Y-39897512D01*
X97907653Y-39897512D02*
X98077296Y-39683226D01*
X98077296Y-39683226D02*
X98166582Y-39540369D01*
X98166582Y-39540369D02*
X98264796Y-39326084D01*
X98264796Y-39326084D02*
X98380868Y-38968941D01*
X98380868Y-38968941D02*
X98416582Y-38683226D01*
X98416582Y-38683226D02*
X98389796Y-38326084D01*
X98389796Y-38326084D02*
X98345153Y-38111798D01*
X98345153Y-38111798D02*
X98291582Y-37968941D01*
X98291582Y-37968941D02*
X98175510Y-37754655D01*
X98175510Y-37754655D02*
X98113010Y-37683226D01*
X100282653Y-38040369D02*
X100363010Y-37968941D01*
X100363010Y-37968941D02*
X100514796Y-37897512D01*
X100514796Y-37897512D02*
X100871939Y-37897512D01*
X100871939Y-37897512D02*
X101005867Y-37968941D01*
X101005867Y-37968941D02*
X101068367Y-38040369D01*
X101068367Y-38040369D02*
X101121939Y-38183226D01*
X101121939Y-38183226D02*
X101104082Y-38326084D01*
X101104082Y-38326084D02*
X101005867Y-38540369D01*
X101005867Y-38540369D02*
X100041582Y-39397512D01*
X100041582Y-39397512D02*
X100970153Y-39397512D01*
X102086224Y-37897512D02*
X102229081Y-37897512D01*
X102229081Y-37897512D02*
X102363010Y-37968941D01*
X102363010Y-37968941D02*
X102425510Y-38040369D01*
X102425510Y-38040369D02*
X102479081Y-38183226D01*
X102479081Y-38183226D02*
X102514796Y-38468941D01*
X102514796Y-38468941D02*
X102470153Y-38826084D01*
X102470153Y-38826084D02*
X102363010Y-39111798D01*
X102363010Y-39111798D02*
X102273724Y-39254655D01*
X102273724Y-39254655D02*
X102193367Y-39326084D01*
X102193367Y-39326084D02*
X102041581Y-39397512D01*
X102041581Y-39397512D02*
X101898724Y-39397512D01*
X101898724Y-39397512D02*
X101764796Y-39326084D01*
X101764796Y-39326084D02*
X101702296Y-39254655D01*
X101702296Y-39254655D02*
X101648724Y-39111798D01*
X101648724Y-39111798D02*
X101613010Y-38826084D01*
X101613010Y-38826084D02*
X101657653Y-38468941D01*
X101657653Y-38468941D02*
X101764796Y-38183226D01*
X101764796Y-38183226D02*
X101854081Y-38040369D01*
X101854081Y-38040369D02*
X101934438Y-37968941D01*
X101934438Y-37968941D02*
X102086224Y-37897512D01*
X103139795Y-38040369D02*
X103220152Y-37968941D01*
X103220152Y-37968941D02*
X103371938Y-37897512D01*
X103371938Y-37897512D02*
X103729081Y-37897512D01*
X103729081Y-37897512D02*
X103863009Y-37968941D01*
X103863009Y-37968941D02*
X103925509Y-38040369D01*
X103925509Y-38040369D02*
X103979081Y-38183226D01*
X103979081Y-38183226D02*
X103961224Y-38326084D01*
X103961224Y-38326084D02*
X103863009Y-38540369D01*
X103863009Y-38540369D02*
X102898724Y-39397512D01*
X102898724Y-39397512D02*
X103827295Y-39397512D01*
X105300509Y-37897512D02*
X105014795Y-37897512D01*
X105014795Y-37897512D02*
X104863009Y-37968941D01*
X104863009Y-37968941D02*
X104782652Y-38040369D01*
X104782652Y-38040369D02*
X104613009Y-38254655D01*
X104613009Y-38254655D02*
X104505866Y-38540369D01*
X104505866Y-38540369D02*
X104434438Y-39111798D01*
X104434438Y-39111798D02*
X104488009Y-39254655D01*
X104488009Y-39254655D02*
X104550509Y-39326084D01*
X104550509Y-39326084D02*
X104684438Y-39397512D01*
X104684438Y-39397512D02*
X104970152Y-39397512D01*
X104970152Y-39397512D02*
X105121938Y-39326084D01*
X105121938Y-39326084D02*
X105202295Y-39254655D01*
X105202295Y-39254655D02*
X105291580Y-39111798D01*
X105291580Y-39111798D02*
X105336223Y-38754655D01*
X105336223Y-38754655D02*
X105282652Y-38611798D01*
X105282652Y-38611798D02*
X105220152Y-38540369D01*
X105220152Y-38540369D02*
X105086223Y-38468941D01*
X105086223Y-38468941D02*
X104800509Y-38468941D01*
X104800509Y-38468941D02*
X104648723Y-38540369D01*
X104648723Y-38540369D02*
X104568366Y-38611798D01*
X104568366Y-38611798D02*
X104479080Y-38754655D01*
X95523725Y-41383857D02*
X96238010Y-41383857D01*
X95327296Y-41812428D02*
X96014796Y-40312428D01*
X96014796Y-40312428D02*
X96327296Y-41812428D01*
X97684439Y-41812428D02*
X97273724Y-41098142D01*
X96827296Y-41812428D02*
X97014796Y-40312428D01*
X97014796Y-40312428D02*
X97586224Y-40312428D01*
X97586224Y-40312428D02*
X97720153Y-40383857D01*
X97720153Y-40383857D02*
X97782653Y-40455285D01*
X97782653Y-40455285D02*
X97836224Y-40598142D01*
X97836224Y-40598142D02*
X97809439Y-40812428D01*
X97809439Y-40812428D02*
X97720153Y-40955285D01*
X97720153Y-40955285D02*
X97639796Y-41026714D01*
X97639796Y-41026714D02*
X97488010Y-41098142D01*
X97488010Y-41098142D02*
X96916582Y-41098142D01*
X98327296Y-41812428D02*
X98514796Y-40312428D01*
X99184439Y-41812428D02*
X98648724Y-40955285D01*
X99371939Y-40312428D02*
X98407653Y-41169571D01*
X99809439Y-41383857D02*
X100523724Y-41383857D01*
X99613010Y-41812428D02*
X100300510Y-40312428D01*
X100300510Y-40312428D02*
X100613010Y-41812428D01*
X101113010Y-41812428D02*
X101300510Y-40312428D01*
X101300510Y-40312428D02*
X101657653Y-40312428D01*
X101657653Y-40312428D02*
X101863010Y-40383857D01*
X101863010Y-40383857D02*
X101988010Y-40526714D01*
X101988010Y-40526714D02*
X102041581Y-40669571D01*
X102041581Y-40669571D02*
X102077296Y-40955285D01*
X102077296Y-40955285D02*
X102050510Y-41169571D01*
X102050510Y-41169571D02*
X101943367Y-41455285D01*
X101943367Y-41455285D02*
X101854081Y-41598142D01*
X101854081Y-41598142D02*
X101693367Y-41741000D01*
X101693367Y-41741000D02*
X101470153Y-41812428D01*
X101470153Y-41812428D02*
X101113010Y-41812428D01*
X102613010Y-41812428D02*
X102800510Y-40312428D01*
X103309439Y-41383857D02*
X104023724Y-41383857D01*
X103113010Y-41812428D02*
X103800510Y-40312428D01*
X103800510Y-40312428D02*
X104113010Y-41812428D01*
X105755867Y-41812428D02*
X105943367Y-40312428D01*
X105854081Y-41026714D02*
X106711224Y-41026714D01*
X106613010Y-41812428D02*
X106800510Y-40312428D01*
X107800510Y-40312428D02*
X108086224Y-40312428D01*
X108086224Y-40312428D02*
X108220153Y-40383857D01*
X108220153Y-40383857D02*
X108345153Y-40526714D01*
X108345153Y-40526714D02*
X108380867Y-40812428D01*
X108380867Y-40812428D02*
X108318367Y-41312428D01*
X108318367Y-41312428D02*
X108211224Y-41598142D01*
X108211224Y-41598142D02*
X108050510Y-41741000D01*
X108050510Y-41741000D02*
X107898724Y-41812428D01*
X107898724Y-41812428D02*
X107613010Y-41812428D01*
X107613010Y-41812428D02*
X107479082Y-41741000D01*
X107479082Y-41741000D02*
X107354082Y-41598142D01*
X107354082Y-41598142D02*
X107318367Y-41312428D01*
X107318367Y-41312428D02*
X107380867Y-40812428D01*
X107380867Y-40812428D02*
X107488010Y-40526714D01*
X107488010Y-40526714D02*
X107648724Y-40383857D01*
X107648724Y-40383857D02*
X107800510Y-40312428D01*
X109086225Y-40312428D02*
X108934439Y-41526714D01*
X108934439Y-41526714D02*
X108988011Y-41669571D01*
X108988011Y-41669571D02*
X109050511Y-41741000D01*
X109050511Y-41741000D02*
X109184439Y-41812428D01*
X109184439Y-41812428D02*
X109470153Y-41812428D01*
X109470153Y-41812428D02*
X109621939Y-41741000D01*
X109621939Y-41741000D02*
X109702296Y-41669571D01*
X109702296Y-41669571D02*
X109791582Y-41526714D01*
X109791582Y-41526714D02*
X109943368Y-40312428D01*
X110407654Y-41741000D02*
X110613011Y-41812428D01*
X110613011Y-41812428D02*
X110970154Y-41812428D01*
X110970154Y-41812428D02*
X111121940Y-41741000D01*
X111121940Y-41741000D02*
X111202297Y-41669571D01*
X111202297Y-41669571D02*
X111291582Y-41526714D01*
X111291582Y-41526714D02*
X111309440Y-41383857D01*
X111309440Y-41383857D02*
X111255868Y-41241000D01*
X111255868Y-41241000D02*
X111193368Y-41169571D01*
X111193368Y-41169571D02*
X111059440Y-41098142D01*
X111059440Y-41098142D02*
X110782654Y-41026714D01*
X110782654Y-41026714D02*
X110648725Y-40955285D01*
X110648725Y-40955285D02*
X110586225Y-40883857D01*
X110586225Y-40883857D02*
X110532654Y-40741000D01*
X110532654Y-40741000D02*
X110550511Y-40598142D01*
X110550511Y-40598142D02*
X110639797Y-40455285D01*
X110639797Y-40455285D02*
X110720154Y-40383857D01*
X110720154Y-40383857D02*
X110871940Y-40312428D01*
X110871940Y-40312428D02*
X111229082Y-40312428D01*
X111229082Y-40312428D02*
X111434440Y-40383857D01*
X111996939Y-41026714D02*
X112496939Y-41026714D01*
X112613011Y-41812428D02*
X111898725Y-41812428D01*
X111898725Y-41812428D02*
X112086225Y-40312428D01*
X112086225Y-40312428D02*
X112800511Y-40312428D01*
X117054089Y-51049971D02*
X117554089Y-51764257D01*
X117911232Y-51049971D02*
X117911232Y-52549971D01*
X117911232Y-52549971D02*
X117339803Y-52549971D01*
X117339803Y-52549971D02*
X117196946Y-52478542D01*
X117196946Y-52478542D02*
X117125517Y-52407114D01*
X117125517Y-52407114D02*
X117054089Y-52264257D01*
X117054089Y-52264257D02*
X117054089Y-52049971D01*
X117054089Y-52049971D02*
X117125517Y-51907114D01*
X117125517Y-51907114D02*
X117196946Y-51835685D01*
X117196946Y-51835685D02*
X117339803Y-51764257D01*
X117339803Y-51764257D02*
X117911232Y-51764257D01*
X112482661Y-51835685D02*
X112268375Y-51764257D01*
X112268375Y-51764257D02*
X112196946Y-51692828D01*
X112196946Y-51692828D02*
X112125518Y-51549971D01*
X112125518Y-51549971D02*
X112125518Y-51335685D01*
X112125518Y-51335685D02*
X112196946Y-51192828D01*
X112196946Y-51192828D02*
X112268375Y-51121400D01*
X112268375Y-51121400D02*
X112411232Y-51049971D01*
X112411232Y-51049971D02*
X112982661Y-51049971D01*
X112982661Y-51049971D02*
X112982661Y-52549971D01*
X112982661Y-52549971D02*
X112482661Y-52549971D01*
X112482661Y-52549971D02*
X112339804Y-52478542D01*
X112339804Y-52478542D02*
X112268375Y-52407114D01*
X112268375Y-52407114D02*
X112196946Y-52264257D01*
X112196946Y-52264257D02*
X112196946Y-52121400D01*
X112196946Y-52121400D02*
X112268375Y-51978542D01*
X112268375Y-51978542D02*
X112339804Y-51907114D01*
X112339804Y-51907114D02*
X112482661Y-51835685D01*
X112482661Y-51835685D02*
X112982661Y-51835685D01*
X107268375Y-52478542D02*
X107411233Y-52549971D01*
X107411233Y-52549971D02*
X107625518Y-52549971D01*
X107625518Y-52549971D02*
X107839804Y-52478542D01*
X107839804Y-52478542D02*
X107982661Y-52335685D01*
X107982661Y-52335685D02*
X108054090Y-52192828D01*
X108054090Y-52192828D02*
X108125518Y-51907114D01*
X108125518Y-51907114D02*
X108125518Y-51692828D01*
X108125518Y-51692828D02*
X108054090Y-51407114D01*
X108054090Y-51407114D02*
X107982661Y-51264257D01*
X107982661Y-51264257D02*
X107839804Y-51121400D01*
X107839804Y-51121400D02*
X107625518Y-51049971D01*
X107625518Y-51049971D02*
X107482661Y-51049971D01*
X107482661Y-51049971D02*
X107268375Y-51121400D01*
X107268375Y-51121400D02*
X107196947Y-51192828D01*
X107196947Y-51192828D02*
X107196947Y-51692828D01*
X107196947Y-51692828D02*
X107482661Y-51692828D01*
D13*
X93003420Y-46692333D02*
X93717705Y-46692333D01*
X93717705Y-46692333D02*
X93860562Y-46739952D01*
X93860562Y-46739952D02*
X93955801Y-46835190D01*
X93955801Y-46835190D02*
X94003420Y-46978047D01*
X94003420Y-46978047D02*
X94003420Y-47073285D01*
X93098658Y-46263761D02*
X93051039Y-46216142D01*
X93051039Y-46216142D02*
X93003420Y-46120904D01*
X93003420Y-46120904D02*
X93003420Y-45882809D01*
X93003420Y-45882809D02*
X93051039Y-45787571D01*
X93051039Y-45787571D02*
X93098658Y-45739952D01*
X93098658Y-45739952D02*
X93193896Y-45692333D01*
X93193896Y-45692333D02*
X93289134Y-45692333D01*
X93289134Y-45692333D02*
X93431991Y-45739952D01*
X93431991Y-45739952D02*
X94003420Y-46311380D01*
X94003420Y-46311380D02*
X94003420Y-45692333D01*
X67443552Y-38986619D02*
X66967362Y-38986619D01*
X66967362Y-38986619D02*
X66967362Y-37986619D01*
X67729267Y-38081857D02*
X67776886Y-38034238D01*
X67776886Y-38034238D02*
X67872124Y-37986619D01*
X67872124Y-37986619D02*
X68110219Y-37986619D01*
X68110219Y-37986619D02*
X68205457Y-38034238D01*
X68205457Y-38034238D02*
X68253076Y-38081857D01*
X68253076Y-38081857D02*
X68300695Y-38177095D01*
X68300695Y-38177095D02*
X68300695Y-38272333D01*
X68300695Y-38272333D02*
X68253076Y-38415190D01*
X68253076Y-38415190D02*
X67681648Y-38986619D01*
X67681648Y-38986619D02*
X68300695Y-38986619D01*
X68776886Y-38986619D02*
X68967362Y-38986619D01*
X68967362Y-38986619D02*
X69062600Y-38939000D01*
X69062600Y-38939000D02*
X69110219Y-38891380D01*
X69110219Y-38891380D02*
X69205457Y-38748523D01*
X69205457Y-38748523D02*
X69253076Y-38558047D01*
X69253076Y-38558047D02*
X69253076Y-38177095D01*
X69253076Y-38177095D02*
X69205457Y-38081857D01*
X69205457Y-38081857D02*
X69157838Y-38034238D01*
X69157838Y-38034238D02*
X69062600Y-37986619D01*
X69062600Y-37986619D02*
X68872124Y-37986619D01*
X68872124Y-37986619D02*
X68776886Y-38034238D01*
X68776886Y-38034238D02*
X68729267Y-38081857D01*
X68729267Y-38081857D02*
X68681648Y-38177095D01*
X68681648Y-38177095D02*
X68681648Y-38415190D01*
X68681648Y-38415190D02*
X68729267Y-38510428D01*
X68729267Y-38510428D02*
X68776886Y-38558047D01*
X68776886Y-38558047D02*
X68872124Y-38605666D01*
X68872124Y-38605666D02*
X69062600Y-38605666D01*
X69062600Y-38605666D02*
X69157838Y-38558047D01*
X69157838Y-38558047D02*
X69205457Y-38510428D01*
X69205457Y-38510428D02*
X69253076Y-38415190D01*
X69586410Y-37986619D02*
X70205457Y-37986619D01*
X70205457Y-37986619D02*
X69872124Y-38367571D01*
X69872124Y-38367571D02*
X70014981Y-38367571D01*
X70014981Y-38367571D02*
X70110219Y-38415190D01*
X70110219Y-38415190D02*
X70157838Y-38462809D01*
X70157838Y-38462809D02*
X70205457Y-38558047D01*
X70205457Y-38558047D02*
X70205457Y-38796142D01*
X70205457Y-38796142D02*
X70157838Y-38891380D01*
X70157838Y-38891380D02*
X70110219Y-38939000D01*
X70110219Y-38939000D02*
X70014981Y-38986619D01*
X70014981Y-38986619D02*
X69729267Y-38986619D01*
X69729267Y-38986619D02*
X69634029Y-38939000D01*
X69634029Y-38939000D02*
X69586410Y-38891380D01*
X70634029Y-38986619D02*
X70634029Y-37986619D01*
X70634029Y-37986619D02*
X70872124Y-37986619D01*
X70872124Y-37986619D02*
X71014981Y-38034238D01*
X71014981Y-38034238D02*
X71110219Y-38129476D01*
X71110219Y-38129476D02*
X71157838Y-38224714D01*
X71157838Y-38224714D02*
X71205457Y-38415190D01*
X71205457Y-38415190D02*
X71205457Y-38558047D01*
X71205457Y-38558047D02*
X71157838Y-38748523D01*
X71157838Y-38748523D02*
X71110219Y-38843761D01*
X71110219Y-38843761D02*
X71014981Y-38939000D01*
X71014981Y-38939000D02*
X70872124Y-38986619D01*
X70872124Y-38986619D02*
X70634029Y-38986619D01*
X67693061Y-30087203D02*
X68312108Y-30087203D01*
X68312108Y-30087203D02*
X67978775Y-30468155D01*
X67978775Y-30468155D02*
X68121632Y-30468155D01*
X68121632Y-30468155D02*
X68216870Y-30515774D01*
X68216870Y-30515774D02*
X68264489Y-30563393D01*
X68264489Y-30563393D02*
X68312108Y-30658631D01*
X68312108Y-30658631D02*
X68312108Y-30896726D01*
X68312108Y-30896726D02*
X68264489Y-30991964D01*
X68264489Y-30991964D02*
X68216870Y-31039584D01*
X68216870Y-31039584D02*
X68121632Y-31087203D01*
X68121632Y-31087203D02*
X67835918Y-31087203D01*
X67835918Y-31087203D02*
X67740680Y-31039584D01*
X67740680Y-31039584D02*
X67693061Y-30991964D01*
X68645442Y-30087203D02*
X69264489Y-30087203D01*
X69264489Y-30087203D02*
X68931156Y-30468155D01*
X68931156Y-30468155D02*
X69074013Y-30468155D01*
X69074013Y-30468155D02*
X69169251Y-30515774D01*
X69169251Y-30515774D02*
X69216870Y-30563393D01*
X69216870Y-30563393D02*
X69264489Y-30658631D01*
X69264489Y-30658631D02*
X69264489Y-30896726D01*
X69264489Y-30896726D02*
X69216870Y-30991964D01*
X69216870Y-30991964D02*
X69169251Y-31039584D01*
X69169251Y-31039584D02*
X69074013Y-31087203D01*
X69074013Y-31087203D02*
X68788299Y-31087203D01*
X68788299Y-31087203D02*
X68693061Y-31039584D01*
X68693061Y-31039584D02*
X68645442Y-30991964D01*
X70121632Y-30420536D02*
X70121632Y-31087203D01*
X69693061Y-30420536D02*
X69693061Y-30944345D01*
X69693061Y-30944345D02*
X69740680Y-31039584D01*
X69740680Y-31039584D02*
X69835918Y-31087203D01*
X69835918Y-31087203D02*
X69978775Y-31087203D01*
X69978775Y-31087203D02*
X70074013Y-31039584D01*
X70074013Y-31039584D02*
X70121632Y-30991964D01*
X70931156Y-30563393D02*
X70597823Y-30563393D01*
X70597823Y-31087203D02*
X70597823Y-30087203D01*
X70597823Y-30087203D02*
X71074013Y-30087203D01*
X72740680Y-31087203D02*
X72169252Y-31087203D01*
X72454966Y-31087203D02*
X72454966Y-30087203D01*
X72454966Y-30087203D02*
X72359728Y-30230060D01*
X72359728Y-30230060D02*
X72264490Y-30325298D01*
X72264490Y-30325298D02*
X72169252Y-30372917D01*
X73597823Y-30087203D02*
X73407347Y-30087203D01*
X73407347Y-30087203D02*
X73312109Y-30134822D01*
X73312109Y-30134822D02*
X73264490Y-30182441D01*
X73264490Y-30182441D02*
X73169252Y-30325298D01*
X73169252Y-30325298D02*
X73121633Y-30515774D01*
X73121633Y-30515774D02*
X73121633Y-30896726D01*
X73121633Y-30896726D02*
X73169252Y-30991964D01*
X73169252Y-30991964D02*
X73216871Y-31039584D01*
X73216871Y-31039584D02*
X73312109Y-31087203D01*
X73312109Y-31087203D02*
X73502585Y-31087203D01*
X73502585Y-31087203D02*
X73597823Y-31039584D01*
X73597823Y-31039584D02*
X73645442Y-30991964D01*
X73645442Y-30991964D02*
X73693061Y-30896726D01*
X73693061Y-30896726D02*
X73693061Y-30658631D01*
X73693061Y-30658631D02*
X73645442Y-30563393D01*
X73645442Y-30563393D02*
X73597823Y-30515774D01*
X73597823Y-30515774D02*
X73502585Y-30468155D01*
X73502585Y-30468155D02*
X73312109Y-30468155D01*
X73312109Y-30468155D02*
X73216871Y-30515774D01*
X73216871Y-30515774D02*
X73169252Y-30563393D01*
X73169252Y-30563393D02*
X73121633Y-30658631D01*
X73978776Y-30087203D02*
X74312109Y-31087203D01*
X74312109Y-31087203D02*
X74645442Y-30087203D01*
%TO.C,J2*%
D14*
X85248600Y-37299001D02*
X84748600Y-37799000D01*
X84248600Y-37299000D02*
X85248600Y-37299001D01*
X84748600Y-37799000D02*
X84248600Y-37299000D01*
X92158600Y-37994000D02*
X84548601Y-37993999D01*
X76188600Y-37994000D02*
X81748600Y-37994000D01*
X92158600Y-38039000D02*
X92158600Y-54678999D01*
X76188600Y-38039000D02*
X76188600Y-54724000D01*
X92158599Y-54723999D02*
X84548600Y-54724000D01*
X76188600Y-54724000D02*
X81748600Y-54724000D01*
%TO.C,U1*%
X66514200Y-33544200D02*
X66514200Y-53984200D01*
X66514200Y-53984200D02*
X68164200Y-53984200D01*
X70164200Y-53984201D02*
X71814200Y-53984201D01*
X71814200Y-33544199D02*
X66514200Y-33544200D01*
X71814200Y-53984201D02*
X71814200Y-33544199D01*
X68164200Y-53984200D02*
G75*
G02*
X70164200Y-53984201I1000000J0D01*
G01*
%TO.C,HALL_MODULE_PT1*%
X78909399Y-26466801D02*
X78909400Y-25086800D01*
X78909399Y-35466801D02*
X81669400Y-35466800D01*
X78909400Y-25086800D02*
X80289399Y-25086799D01*
X78909400Y-27736800D02*
X78909399Y-35466801D01*
X78909400Y-27736800D02*
X81669400Y-27736800D01*
X81669400Y-27736800D02*
X81669400Y-35466800D01*
%TO.C,HALL_MODULE_PT2*%
X105579400Y-31521400D02*
X105579400Y-26331400D01*
X108339400Y-31521400D02*
X105579400Y-31521400D01*
X108339400Y-31521400D02*
X108339402Y-26331399D01*
X108339400Y-34171400D02*
X106959401Y-34171401D01*
X108339401Y-32791399D02*
X108339400Y-34171400D01*
X108339402Y-26331399D02*
X105579400Y-26331400D01*
%TO.C,C1*%
D11*
X70795300Y-25855350D02*
X71479500Y-25855350D01*
X71137400Y-25506900D02*
X71137400Y-26203800D01*
D14*
X74134500Y-24900100D02*
X74134500Y-26140100D01*
X74134500Y-27820100D02*
X74134500Y-29060100D01*
X74174500Y-24900100D02*
X74174500Y-26140100D01*
X74174500Y-27820100D02*
X74174500Y-29060100D01*
X74214500Y-24902100D02*
X74214500Y-26140100D01*
X74214500Y-27820100D02*
X74214500Y-29058100D01*
X74254500Y-24903100D02*
X74254500Y-26140100D01*
X74254500Y-27820100D02*
X74254500Y-29057100D01*
X74294500Y-24906100D02*
X74294500Y-26140100D01*
X74294500Y-27820100D02*
X74294500Y-29054100D01*
X74334500Y-24909100D02*
X74334500Y-26140100D01*
X74334500Y-27820100D02*
X74334500Y-29051100D01*
X74374500Y-24914100D02*
X74374500Y-26140100D01*
X74374500Y-27820100D02*
X74374500Y-29046100D01*
X74414500Y-24919100D02*
X74414500Y-26140100D01*
X74414500Y-27820100D02*
X74414500Y-29041100D01*
X74454500Y-24924100D02*
X74454500Y-26140100D01*
X74454500Y-27820100D02*
X74454500Y-29036100D01*
X74494500Y-24931100D02*
X74494500Y-26140100D01*
X74494500Y-27820100D02*
X74494500Y-29029100D01*
X74534500Y-24938100D02*
X74534500Y-26140100D01*
X74534500Y-27820100D02*
X74534500Y-29022100D01*
X74574500Y-24946100D02*
X74574500Y-26140100D01*
X74574500Y-27820100D02*
X74574500Y-29014100D01*
X74614500Y-24955100D02*
X74614500Y-26140100D01*
X74614500Y-27820100D02*
X74614500Y-29005100D01*
X74654500Y-24965100D02*
X74654500Y-26140100D01*
X74654500Y-27820100D02*
X74654500Y-28995100D01*
X74694500Y-24975100D02*
X74694500Y-26140100D01*
X74694500Y-27820100D02*
X74694500Y-28985100D01*
X74734500Y-24987100D02*
X74734500Y-26140100D01*
X74734500Y-27820100D02*
X74734500Y-28973100D01*
X74774500Y-24999100D02*
X74774500Y-26140100D01*
X74774500Y-27820100D02*
X74774500Y-28961100D01*
X74814500Y-25012100D02*
X74814500Y-26140100D01*
X74814500Y-27820100D02*
X74814500Y-28948100D01*
X74854500Y-25026100D02*
X74854500Y-26140100D01*
X74854500Y-27820100D02*
X74854500Y-28934100D01*
X74894500Y-25041100D02*
X74894500Y-26140100D01*
X74894500Y-27820100D02*
X74894500Y-28919100D01*
X74934500Y-25057100D02*
X74934500Y-26140100D01*
X74934500Y-27820100D02*
X74934500Y-28903100D01*
X74974500Y-25074100D02*
X74974500Y-26140100D01*
X74974500Y-27820100D02*
X74974500Y-28886100D01*
X75014500Y-25091100D02*
X75014500Y-26140100D01*
X75014500Y-27820100D02*
X75014500Y-28869100D01*
X75054500Y-25110100D02*
X75054500Y-26140100D01*
X75054500Y-27820100D02*
X75054500Y-28850100D01*
X75094500Y-25130100D02*
X75094500Y-26140100D01*
X75094500Y-27820100D02*
X75094500Y-28830100D01*
X75134500Y-25151100D02*
X75134500Y-26140100D01*
X75134500Y-27820100D02*
X75134500Y-28809100D01*
X75174500Y-25173100D02*
X75174500Y-26140100D01*
X75174500Y-27820100D02*
X75174500Y-28787100D01*
X75214500Y-25196100D02*
X75214500Y-26140100D01*
X75214500Y-27820100D02*
X75214500Y-28764100D01*
X75254500Y-25220100D02*
X75254500Y-26140100D01*
X75254500Y-27820100D02*
X75254500Y-28740100D01*
X75294500Y-25246100D02*
X75294500Y-26140100D01*
X75294500Y-27820100D02*
X75294500Y-28714100D01*
X75334500Y-25272100D02*
X75334500Y-26140100D01*
X75334500Y-27820100D02*
X75334500Y-28688100D01*
X75374500Y-25300100D02*
X75374500Y-26140100D01*
X75374500Y-27820100D02*
X75374500Y-28660100D01*
X75414500Y-25330100D02*
X75414500Y-26140100D01*
X75414500Y-27820100D02*
X75414500Y-28630100D01*
X75454500Y-25361100D02*
X75454500Y-26140100D01*
X75454500Y-27820100D02*
X75454500Y-28599100D01*
X75494500Y-25394100D02*
X75494500Y-26140100D01*
X75494500Y-27820100D02*
X75494500Y-28566100D01*
X75534500Y-25428100D02*
X75534500Y-26140100D01*
X75534500Y-27820100D02*
X75534500Y-28532100D01*
X75574500Y-25464100D02*
X75574500Y-26140100D01*
X75574500Y-27820100D02*
X75574500Y-28496100D01*
X75614500Y-25502100D02*
X75614500Y-26140100D01*
X75614500Y-27820100D02*
X75614500Y-28458100D01*
X75654500Y-25542100D02*
X75654500Y-26140100D01*
X75654500Y-27820100D02*
X75654500Y-28418100D01*
X75694500Y-25584100D02*
X75694500Y-26140100D01*
X75694500Y-27820100D02*
X75694500Y-28376100D01*
X75734500Y-25629100D02*
X75734500Y-28331100D01*
X75774500Y-25677100D02*
X75774500Y-28283100D01*
X75814500Y-25727100D02*
X75814500Y-28233100D01*
X75854500Y-25781100D02*
X75854500Y-28179100D01*
X75894500Y-25838100D02*
X75894500Y-28122100D01*
X75934500Y-25900100D02*
X75934500Y-28060100D01*
X75974500Y-25967100D02*
X75974500Y-27993100D01*
X76014500Y-26040100D02*
X76014500Y-27920100D01*
X76054500Y-26121100D02*
X76054500Y-27839100D01*
X76094500Y-26212100D02*
X76094500Y-27748100D01*
X76134500Y-26317100D02*
X76134500Y-27643100D01*
X76174500Y-26443100D02*
X76174500Y-27517100D01*
X76214500Y-26610100D02*
X76214500Y-27350100D01*
X76254500Y-26980100D02*
G75*
G02*
X72014500Y-26980100I-2120000J0D01*
G01*
X72014500Y-26980100D02*
G75*
G02*
X76254500Y-26980100I2120000J0D01*
G01*
%TO.C,EXT_JACK1*%
X94952199Y-54122201D02*
X117632200Y-54122200D01*
X94952199Y-62362200D02*
X94952199Y-54122201D01*
X118232200Y-54122200D02*
X120592200Y-54122200D01*
X120592198Y-60242201D02*
X94952200Y-60242201D01*
X120592200Y-54122200D02*
X120592200Y-62362200D01*
X120592200Y-56242202D02*
X94952200Y-56242199D01*
X120592200Y-62362200D02*
X94952199Y-62362200D01*
X117932200Y-54122200D02*
X117492199Y-53512200D01*
X118372202Y-53512201D01*
X117932200Y-54122200D01*
G36*
X118372202Y-53512201D02*
G01*
X117932200Y-54122200D01*
X117492199Y-53512200D01*
X118372202Y-53512201D01*
G37*
%TD*%
D15*
X63500000Y-22860000D02*
X128500000Y-22860000D01*
X128500000Y-62860000D01*
X63500000Y-62860000D01*
X63500000Y-22860000D01*
M02*
