M48
; DRILL file KiCad 10.0.2 date 2026-05-23T17:15:44
; FORMAT={-:-/ absolute / metric / decimal}
; #@! TF.CreationDate,2026-05-23T17:15:44-05:00
; #@! TF.GenerationSoftware,Kicad,Pcbnew,10.0.2
; #@! TF.FileFunction,Plated,1,2,PTH
FMAT,2
METRIC
; #@! TA.AperFunction,Plated,PTH,ViaDrill
T1C0.300
; #@! TA.AperFunction,Plated,PTH,ComponentDrill
T2C0.600
; #@! TA.AperFunction,Plated,PTH,ComponentDrill
T3C0.800
; #@! TA.AperFunction,Plated,PTH,ComponentDrill
T4C0.890
; #@! TA.AperFunction,Plated,PTH,ComponentDrill
T5C1.000
; #@! TA.AperFunction,Plated,PTH,ComponentDrill
T6C1.300
; #@! TA.AperFunction,Plated,PTH,ComponentDrill
T7C1.570
; #@! TA.AperFunction,Plated,PTH,ComponentDrill
T8C2.500
%
G90
G05
T1
X74.7Y-39.157
X76.422Y-47.101
X77.581Y-46.322
X79.544Y-41.424
X94.519Y-35.681
T2
X73.385Y-26.98
X74.885Y-26.98
T3
X65.354Y-37.414
X65.354Y-39.954
X65.354Y-42.494
X65.354Y-50.114
X65.354Y-34.874
X65.354Y-47.574
X65.354Y-52.654
X65.354Y-45.034
X72.974Y-34.874
X72.974Y-39.954
X72.974Y-42.494
X72.974Y-45.034
X72.974Y-50.114
X72.974Y-52.654
X72.974Y-37.414
X72.974Y-47.574
T4
X82.269Y-43.815
X82.269Y-45.847
X82.269Y-49.911
X82.269Y-47.879
X84.049Y-42.799
X84.049Y-44.831
X84.049Y-46.863
X84.049Y-48.895
T5
X80.289Y-26.467
X80.289Y-29.007
X80.289Y-34.087
X80.289Y-31.547
X106.959Y-27.711
X106.959Y-30.251
X106.959Y-32.791
T6
X97.612Y-58.242
X102.692Y-58.242
X107.772Y-58.242
X112.852Y-58.242
X117.932Y-58.242
T7
X83.159Y-54.489
X83.159Y-38.229
T8
X76.556Y-59.334
M30
