%TF.GenerationSoftware,KiCad,Pcbnew,10.0.2*%
%TF.CreationDate,2026-05-23T17:15:41-05:00*%
%TF.ProjectId,door-lock,646f6f72-2d6c-46f6-936b-2e6b69636164,rev?*%
%TF.SameCoordinates,Original*%
%TF.FileFunction,Soldermask,Bot*%
%TF.FilePolarity,Negative*%
%FSLAX46Y46*%
G04 Gerber Fmt 4.6, Leading zero omitted, Abs format (unit mm)*
G04 Created by KiCad (PCBNEW 10.0.2) date 2026-05-23 17:15:41*
%MOMM*%
%LPD*%
G01*
G04 APERTURE LIST*
G04 Aperture macros list*
%AMRoundRect*
0 Rectangle with rounded corners*
0 $1 Rounding radius*
0 $2 $3 $4 $5 $6 $7 $8 $9 X,Y pos of 4 corners*
0 Add a 4 corners polygon primitive as box body*
4,1,4,$2,$3,$4,$5,$6,$7,$8,$9,$2,$3,0*
0 Add four circle primitives for the rounded corners*
1,1,$1+$1,$2,$3*
1,1,$1+$1,$4,$5*
1,1,$1+$1,$6,$7*
1,1,$1+$1,$8,$9*
0 Add four rect primitives between the rounded corners*
20,1,$1+$1,$2,$3,$4,$5,0*
20,1,$1+$1,$4,$5,$6,$7,0*
20,1,$1+$1,$6,$7,$8,$9,0*
20,1,$1+$1,$8,$9,$2,$3,0*%
G04 Aperture macros list end*
%ADD10C,3.250000*%
%ADD11R,1.500000X1.500000*%
%ADD12C,1.500000*%
%ADD13C,2.300000*%
%ADD14C,4.000000*%
%ADD15RoundRect,0.250000X0.550000X0.550000X-0.550000X0.550000X-0.550000X-0.550000X0.550000X-0.550000X0*%
%ADD16C,1.600000*%
%ADD17R,1.700000X1.700000*%
%ADD18C,1.700000*%
%ADD19C,3.200000*%
%ADD20RoundRect,0.357144X-1.642856X-1.642856X1.642856X-1.642856X1.642856X1.642856X-1.642856X1.642856X0*%
%ADD21RoundRect,0.250000X-0.350000X-0.350000X0.350000X-0.350000X0.350000X0.350000X-0.350000X0.350000X0*%
%ADD22C,1.200000*%
%ADD23RoundRect,0.250000X1.000000X1.000000X-1.000000X1.000000X-1.000000X-1.000000X1.000000X-1.000000X0*%
%ADD24C,2.500000*%
%TA.AperFunction,Profile*%
%ADD25C,0.200000*%
%TD*%
G04 APERTURE END LIST*
D10*
%TO.C,J2*%
X86588600Y-40009000D03*
X86588599Y-52708999D03*
D11*
X84048600Y-42799000D03*
D12*
X82268599Y-43815001D03*
X84048600Y-44831000D03*
X82268599Y-45847001D03*
X84048600Y-46863001D03*
X82268601Y-47878999D03*
X84048600Y-48895000D03*
X82268600Y-49911002D03*
D13*
X83158600Y-38228998D03*
X83158599Y-54488999D03*
%TD*%
D14*
%TO.C,ziptie_hole2*%
X125069600Y-52044600D03*
%TD*%
%TO.C,ziptie_hole1*%
X125069600Y-39344600D03*
%TD*%
D15*
%TO.C,U1*%
X72974200Y-52654200D03*
D16*
X72974200Y-50114200D03*
X72974201Y-47574199D03*
X72974200Y-45034200D03*
X72974200Y-42494200D03*
X72974200Y-39954200D03*
X72974201Y-37414198D03*
X72974199Y-34874200D03*
X65354200Y-34874198D03*
X65354199Y-37414200D03*
X65354199Y-39954199D03*
X65354199Y-42494198D03*
X65354201Y-45034201D03*
X65354200Y-47574200D03*
X65354199Y-50114199D03*
X65354200Y-52654200D03*
%TD*%
D17*
%TO.C,HALL_MODULE_PT1*%
X80289400Y-26466800D03*
D18*
X80289400Y-29006800D03*
X80289401Y-31546800D03*
X80289400Y-34086800D03*
%TD*%
D17*
%TO.C,HALL_MODULE_PT2*%
X106959400Y-32791400D03*
D18*
X106959400Y-30251400D03*
X106959399Y-27711400D03*
%TD*%
D19*
%TO.C,mh3*%
X124993400Y-26390600D03*
%TD*%
D20*
%TO.C,SHIELD1*%
X76555600Y-59334400D03*
%TD*%
D21*
%TO.C,C1*%
X73384500Y-26980100D03*
D22*
X74884500Y-26980100D03*
%TD*%
D19*
%TO.C,mh2*%
X66878200Y-59436000D03*
%TD*%
D23*
%TO.C,EXT_JACK1*%
X117932200Y-58242200D03*
D24*
X112852197Y-58242202D03*
X107772200Y-58242200D03*
X102692198Y-58242200D03*
X97612201Y-58242201D03*
%TD*%
D19*
%TO.C,mh1*%
X66878200Y-26390600D03*
%TD*%
%TO.C,mh4*%
X124993400Y-59436000D03*
%TD*%
D25*
X63500000Y-22860000D02*
X128500000Y-22860000D01*
X128500000Y-62860000D01*
X63500000Y-62860000D01*
X63500000Y-22860000D01*
M02*
