M48
; DRILL file KiCad 10.0.2 date 2026-05-26T14:46:06
; FORMAT={-:-/ absolute / metric / decimal}
; #@! TF.CreationDate,2026-05-26T14:46:06-05:00
; #@! TF.GenerationSoftware,Kicad,Pcbnew,10.0.2
; #@! TF.FileFunction,Plated,1,2,PTH
FMAT,2
METRIC
; #@! TA.AperFunction,Plated,PTH,ViaDrill
T1C0.300
; #@! TA.AperFunction,Plated,PTH,ComponentDrill
T2C1.000
; #@! TA.AperFunction,Plated,PTH,ComponentDrill
T3C1.500
%
G90
G05
T1
X69.061Y-96.12
X72.037Y-96.12
X72.097Y-98.59
X85.024Y-33.23
X93.008Y-92.984
X101.787Y-81.981
X107.737Y-66.238
X111.346Y-77.55
T2
X48.26Y-96.52
X50.8Y-96.52
X53.34Y-96.52
X55.88Y-96.52
X97.47Y-79.69
X97.47Y-94.93
X97.47Y-97.47
X100.01Y-79.69
X100.01Y-94.93
X100.01Y-97.47
X100.7Y-68.514
X100.7Y-71.054
X100.7Y-73.594
X100.7Y-76.134
X102.55Y-79.69
X102.55Y-94.93
X102.55Y-97.47
X105.09Y-79.69
X105.09Y-94.93
X105.09Y-97.47
X107.63Y-79.69
X107.63Y-94.93
X107.63Y-97.47
X110.17Y-79.69
X110.17Y-94.93
X110.17Y-97.47
X112.71Y-79.69
X112.71Y-94.93
X112.71Y-97.47
X115.25Y-79.69
X115.25Y-94.93
X115.25Y-97.47
X117.79Y-79.69
X117.79Y-94.93
X117.79Y-97.47
X120.33Y-79.69
X120.33Y-94.93
X120.33Y-97.47
T3
X36.19Y-37.46
X36.19Y-65.96
X36.19Y-84.46
X42.54Y-34.92
X42.54Y-63.42
X42.54Y-81.92
X60.39Y-37.46
X60.39Y-65.96
X60.39Y-84.46
X66.74Y-34.92
X66.74Y-63.42
X66.74Y-81.92
X84.59Y-37.46
X84.59Y-65.96
X84.59Y-84.46
X90.94Y-34.92
X90.94Y-63.42
X90.94Y-81.92
X108.79Y-37.46
X115.14Y-34.92
M30
