%TF.GenerationSoftware,KiCad,Pcbnew,10.0.2*%
%TF.CreationDate,2026-05-26T14:46:02-05:00*%
%TF.ProjectId,keypad,6b657970-6164-42e6-9b69-6361645f7063,rev?*%
%TF.SameCoordinates,Original*%
%TF.FileFunction,Legend,Top*%
%TF.FilePolarity,Positive*%
%FSLAX46Y46*%
G04 Gerber Fmt 4.6, Leading zero omitted, Abs format (unit mm)*
G04 Created by KiCad (PCBNEW 10.0.2) date 2026-05-26 14:46:02*
%MOMM*%
%LPD*%
G01*
G04 APERTURE LIST*
%ADD10C,0.125000*%
%ADD11C,0.150000*%
%ADD12C,0.120000*%
%TA.AperFunction,Profile*%
%ADD13C,0.200000*%
%TD*%
G04 APERTURE END LIST*
D10*
X96402403Y-67783463D02*
X96307165Y-67708701D01*
X96307165Y-67708701D02*
X96164308Y-67708701D01*
X96164308Y-67708701D02*
X96021451Y-67783463D01*
X96021451Y-67783463D02*
X95926213Y-67932987D01*
X95926213Y-67932987D02*
X95878594Y-68082511D01*
X95878594Y-68082511D02*
X95830975Y-68381559D01*
X95830975Y-68381559D02*
X95830975Y-68605844D01*
X95830975Y-68605844D02*
X95878594Y-68904892D01*
X95878594Y-68904892D02*
X95926213Y-69054416D01*
X95926213Y-69054416D02*
X96021451Y-69203940D01*
X96021451Y-69203940D02*
X96164308Y-69278701D01*
X96164308Y-69278701D02*
X96259546Y-69278701D01*
X96259546Y-69278701D02*
X96402403Y-69203940D01*
X96402403Y-69203940D02*
X96450022Y-69129178D01*
X96450022Y-69129178D02*
X96450022Y-68605844D01*
X96450022Y-68605844D02*
X96259546Y-68605844D01*
X96878594Y-69278701D02*
X96878594Y-67708701D01*
X96878594Y-67708701D02*
X97450022Y-69278701D01*
X97450022Y-69278701D02*
X97450022Y-67708701D01*
X97926213Y-69278701D02*
X97926213Y-67708701D01*
X97926213Y-67708701D02*
X98164308Y-67708701D01*
X98164308Y-67708701D02*
X98307165Y-67783463D01*
X98307165Y-67783463D02*
X98402403Y-67932987D01*
X98402403Y-67932987D02*
X98450022Y-68082511D01*
X98450022Y-68082511D02*
X98497641Y-68381559D01*
X98497641Y-68381559D02*
X98497641Y-68605844D01*
X98497641Y-68605844D02*
X98450022Y-68904892D01*
X98450022Y-68904892D02*
X98402403Y-69054416D01*
X98402403Y-69054416D02*
X98307165Y-69203940D01*
X98307165Y-69203940D02*
X98164308Y-69278701D01*
X98164308Y-69278701D02*
X97926213Y-69278701D01*
X95783356Y-70236313D02*
X96402403Y-70236313D01*
X96402403Y-70236313D02*
X96069070Y-70834409D01*
X96069070Y-70834409D02*
X96211927Y-70834409D01*
X96211927Y-70834409D02*
X96307165Y-70909171D01*
X96307165Y-70909171D02*
X96354784Y-70983932D01*
X96354784Y-70983932D02*
X96402403Y-71133456D01*
X96402403Y-71133456D02*
X96402403Y-71507266D01*
X96402403Y-71507266D02*
X96354784Y-71656790D01*
X96354784Y-71656790D02*
X96307165Y-71731552D01*
X96307165Y-71731552D02*
X96211927Y-71806313D01*
X96211927Y-71806313D02*
X95926213Y-71806313D01*
X95926213Y-71806313D02*
X95830975Y-71731552D01*
X95830975Y-71731552D02*
X95783356Y-71656790D01*
X96735737Y-70759647D02*
X96973832Y-71806313D01*
X96973832Y-71806313D02*
X97211927Y-70759647D01*
X97497642Y-70236313D02*
X98116689Y-70236313D01*
X98116689Y-70236313D02*
X97783356Y-70834409D01*
X97783356Y-70834409D02*
X97926213Y-70834409D01*
X97926213Y-70834409D02*
X98021451Y-70909171D01*
X98021451Y-70909171D02*
X98069070Y-70983932D01*
X98069070Y-70983932D02*
X98116689Y-71133456D01*
X98116689Y-71133456D02*
X98116689Y-71507266D01*
X98116689Y-71507266D02*
X98069070Y-71656790D01*
X98069070Y-71656790D02*
X98021451Y-71731552D01*
X98021451Y-71731552D02*
X97926213Y-71806313D01*
X97926213Y-71806313D02*
X97640499Y-71806313D01*
X97640499Y-71806313D02*
X97545261Y-71731552D01*
X97545261Y-71731552D02*
X97497642Y-71656790D01*
X95830975Y-74259164D02*
X95973832Y-74333925D01*
X95973832Y-74333925D02*
X96211927Y-74333925D01*
X96211927Y-74333925D02*
X96307165Y-74259164D01*
X96307165Y-74259164D02*
X96354784Y-74184402D01*
X96354784Y-74184402D02*
X96402403Y-74034878D01*
X96402403Y-74034878D02*
X96402403Y-73885354D01*
X96402403Y-73885354D02*
X96354784Y-73735830D01*
X96354784Y-73735830D02*
X96307165Y-73661068D01*
X96307165Y-73661068D02*
X96211927Y-73586306D01*
X96211927Y-73586306D02*
X96021451Y-73511544D01*
X96021451Y-73511544D02*
X95926213Y-73436783D01*
X95926213Y-73436783D02*
X95878594Y-73362021D01*
X95878594Y-73362021D02*
X95830975Y-73212497D01*
X95830975Y-73212497D02*
X95830975Y-73062973D01*
X95830975Y-73062973D02*
X95878594Y-72913449D01*
X95878594Y-72913449D02*
X95926213Y-72838687D01*
X95926213Y-72838687D02*
X96021451Y-72763925D01*
X96021451Y-72763925D02*
X96259546Y-72763925D01*
X96259546Y-72763925D02*
X96402403Y-72838687D01*
X97402403Y-74184402D02*
X97354784Y-74259164D01*
X97354784Y-74259164D02*
X97211927Y-74333925D01*
X97211927Y-74333925D02*
X97116689Y-74333925D01*
X97116689Y-74333925D02*
X96973832Y-74259164D01*
X96973832Y-74259164D02*
X96878594Y-74109640D01*
X96878594Y-74109640D02*
X96830975Y-73960116D01*
X96830975Y-73960116D02*
X96783356Y-73661068D01*
X96783356Y-73661068D02*
X96783356Y-73436783D01*
X96783356Y-73436783D02*
X96830975Y-73137735D01*
X96830975Y-73137735D02*
X96878594Y-72988211D01*
X96878594Y-72988211D02*
X96973832Y-72838687D01*
X96973832Y-72838687D02*
X97116689Y-72763925D01*
X97116689Y-72763925D02*
X97211927Y-72763925D01*
X97211927Y-72763925D02*
X97354784Y-72838687D01*
X97354784Y-72838687D02*
X97402403Y-72913449D01*
X98307165Y-74333925D02*
X97830975Y-74333925D01*
X97830975Y-74333925D02*
X97830975Y-72763925D01*
X95830975Y-76786776D02*
X95973832Y-76861537D01*
X95973832Y-76861537D02*
X96211927Y-76861537D01*
X96211927Y-76861537D02*
X96307165Y-76786776D01*
X96307165Y-76786776D02*
X96354784Y-76712014D01*
X96354784Y-76712014D02*
X96402403Y-76562490D01*
X96402403Y-76562490D02*
X96402403Y-76412966D01*
X96402403Y-76412966D02*
X96354784Y-76263442D01*
X96354784Y-76263442D02*
X96307165Y-76188680D01*
X96307165Y-76188680D02*
X96211927Y-76113918D01*
X96211927Y-76113918D02*
X96021451Y-76039156D01*
X96021451Y-76039156D02*
X95926213Y-75964395D01*
X95926213Y-75964395D02*
X95878594Y-75889633D01*
X95878594Y-75889633D02*
X95830975Y-75740109D01*
X95830975Y-75740109D02*
X95830975Y-75590585D01*
X95830975Y-75590585D02*
X95878594Y-75441061D01*
X95878594Y-75441061D02*
X95926213Y-75366299D01*
X95926213Y-75366299D02*
X96021451Y-75291537D01*
X96021451Y-75291537D02*
X96259546Y-75291537D01*
X96259546Y-75291537D02*
X96402403Y-75366299D01*
X96830975Y-76861537D02*
X96830975Y-75291537D01*
X96830975Y-75291537D02*
X97069070Y-75291537D01*
X97069070Y-75291537D02*
X97211927Y-75366299D01*
X97211927Y-75366299D02*
X97307165Y-75515823D01*
X97307165Y-75515823D02*
X97354784Y-75665347D01*
X97354784Y-75665347D02*
X97402403Y-75964395D01*
X97402403Y-75964395D02*
X97402403Y-76188680D01*
X97402403Y-76188680D02*
X97354784Y-76487728D01*
X97354784Y-76487728D02*
X97307165Y-76637252D01*
X97307165Y-76637252D02*
X97211927Y-76786776D01*
X97211927Y-76786776D02*
X97069070Y-76861537D01*
X97069070Y-76861537D02*
X96830975Y-76861537D01*
X97783356Y-76412966D02*
X98259546Y-76412966D01*
X97688118Y-76861537D02*
X98021451Y-75291537D01*
X98021451Y-75291537D02*
X98354784Y-76861537D01*
D11*
X38666667Y-32407200D02*
X38809524Y-32454819D01*
X38809524Y-32454819D02*
X39047619Y-32454819D01*
X39047619Y-32454819D02*
X39142857Y-32407200D01*
X39142857Y-32407200D02*
X39190476Y-32359580D01*
X39190476Y-32359580D02*
X39238095Y-32264342D01*
X39238095Y-32264342D02*
X39238095Y-32169104D01*
X39238095Y-32169104D02*
X39190476Y-32073866D01*
X39190476Y-32073866D02*
X39142857Y-32026247D01*
X39142857Y-32026247D02*
X39047619Y-31978628D01*
X39047619Y-31978628D02*
X38857143Y-31931009D01*
X38857143Y-31931009D02*
X38761905Y-31883390D01*
X38761905Y-31883390D02*
X38714286Y-31835771D01*
X38714286Y-31835771D02*
X38666667Y-31740533D01*
X38666667Y-31740533D02*
X38666667Y-31645295D01*
X38666667Y-31645295D02*
X38714286Y-31550057D01*
X38714286Y-31550057D02*
X38761905Y-31502438D01*
X38761905Y-31502438D02*
X38857143Y-31454819D01*
X38857143Y-31454819D02*
X39095238Y-31454819D01*
X39095238Y-31454819D02*
X39238095Y-31502438D01*
X39571429Y-31454819D02*
X39809524Y-32454819D01*
X39809524Y-32454819D02*
X40000000Y-31740533D01*
X40000000Y-31740533D02*
X40190476Y-32454819D01*
X40190476Y-32454819D02*
X40428572Y-31454819D01*
X41333333Y-32454819D02*
X40761905Y-32454819D01*
X41047619Y-32454819D02*
X41047619Y-31454819D01*
X41047619Y-31454819D02*
X40952381Y-31597676D01*
X40952381Y-31597676D02*
X40857143Y-31692914D01*
X40857143Y-31692914D02*
X40761905Y-31740533D01*
X62866667Y-32407200D02*
X63009524Y-32454819D01*
X63009524Y-32454819D02*
X63247619Y-32454819D01*
X63247619Y-32454819D02*
X63342857Y-32407200D01*
X63342857Y-32407200D02*
X63390476Y-32359580D01*
X63390476Y-32359580D02*
X63438095Y-32264342D01*
X63438095Y-32264342D02*
X63438095Y-32169104D01*
X63438095Y-32169104D02*
X63390476Y-32073866D01*
X63390476Y-32073866D02*
X63342857Y-32026247D01*
X63342857Y-32026247D02*
X63247619Y-31978628D01*
X63247619Y-31978628D02*
X63057143Y-31931009D01*
X63057143Y-31931009D02*
X62961905Y-31883390D01*
X62961905Y-31883390D02*
X62914286Y-31835771D01*
X62914286Y-31835771D02*
X62866667Y-31740533D01*
X62866667Y-31740533D02*
X62866667Y-31645295D01*
X62866667Y-31645295D02*
X62914286Y-31550057D01*
X62914286Y-31550057D02*
X62961905Y-31502438D01*
X62961905Y-31502438D02*
X63057143Y-31454819D01*
X63057143Y-31454819D02*
X63295238Y-31454819D01*
X63295238Y-31454819D02*
X63438095Y-31502438D01*
X63771429Y-31454819D02*
X64009524Y-32454819D01*
X64009524Y-32454819D02*
X64200000Y-31740533D01*
X64200000Y-31740533D02*
X64390476Y-32454819D01*
X64390476Y-32454819D02*
X64628572Y-31454819D01*
X64961905Y-31550057D02*
X65009524Y-31502438D01*
X65009524Y-31502438D02*
X65104762Y-31454819D01*
X65104762Y-31454819D02*
X65342857Y-31454819D01*
X65342857Y-31454819D02*
X65438095Y-31502438D01*
X65438095Y-31502438D02*
X65485714Y-31550057D01*
X65485714Y-31550057D02*
X65533333Y-31645295D01*
X65533333Y-31645295D02*
X65533333Y-31740533D01*
X65533333Y-31740533D02*
X65485714Y-31883390D01*
X65485714Y-31883390D02*
X64914286Y-32454819D01*
X64914286Y-32454819D02*
X65533333Y-32454819D01*
X87066667Y-32407200D02*
X87209524Y-32454819D01*
X87209524Y-32454819D02*
X87447619Y-32454819D01*
X87447619Y-32454819D02*
X87542857Y-32407200D01*
X87542857Y-32407200D02*
X87590476Y-32359580D01*
X87590476Y-32359580D02*
X87638095Y-32264342D01*
X87638095Y-32264342D02*
X87638095Y-32169104D01*
X87638095Y-32169104D02*
X87590476Y-32073866D01*
X87590476Y-32073866D02*
X87542857Y-32026247D01*
X87542857Y-32026247D02*
X87447619Y-31978628D01*
X87447619Y-31978628D02*
X87257143Y-31931009D01*
X87257143Y-31931009D02*
X87161905Y-31883390D01*
X87161905Y-31883390D02*
X87114286Y-31835771D01*
X87114286Y-31835771D02*
X87066667Y-31740533D01*
X87066667Y-31740533D02*
X87066667Y-31645295D01*
X87066667Y-31645295D02*
X87114286Y-31550057D01*
X87114286Y-31550057D02*
X87161905Y-31502438D01*
X87161905Y-31502438D02*
X87257143Y-31454819D01*
X87257143Y-31454819D02*
X87495238Y-31454819D01*
X87495238Y-31454819D02*
X87638095Y-31502438D01*
X87971429Y-31454819D02*
X88209524Y-32454819D01*
X88209524Y-32454819D02*
X88400000Y-31740533D01*
X88400000Y-31740533D02*
X88590476Y-32454819D01*
X88590476Y-32454819D02*
X88828572Y-31454819D01*
X89114286Y-31454819D02*
X89733333Y-31454819D01*
X89733333Y-31454819D02*
X89400000Y-31835771D01*
X89400000Y-31835771D02*
X89542857Y-31835771D01*
X89542857Y-31835771D02*
X89638095Y-31883390D01*
X89638095Y-31883390D02*
X89685714Y-31931009D01*
X89685714Y-31931009D02*
X89733333Y-32026247D01*
X89733333Y-32026247D02*
X89733333Y-32264342D01*
X89733333Y-32264342D02*
X89685714Y-32359580D01*
X89685714Y-32359580D02*
X89638095Y-32407200D01*
X89638095Y-32407200D02*
X89542857Y-32454819D01*
X89542857Y-32454819D02*
X89257143Y-32454819D01*
X89257143Y-32454819D02*
X89161905Y-32407200D01*
X89161905Y-32407200D02*
X89114286Y-32359580D01*
X111266667Y-32407200D02*
X111409524Y-32454819D01*
X111409524Y-32454819D02*
X111647619Y-32454819D01*
X111647619Y-32454819D02*
X111742857Y-32407200D01*
X111742857Y-32407200D02*
X111790476Y-32359580D01*
X111790476Y-32359580D02*
X111838095Y-32264342D01*
X111838095Y-32264342D02*
X111838095Y-32169104D01*
X111838095Y-32169104D02*
X111790476Y-32073866D01*
X111790476Y-32073866D02*
X111742857Y-32026247D01*
X111742857Y-32026247D02*
X111647619Y-31978628D01*
X111647619Y-31978628D02*
X111457143Y-31931009D01*
X111457143Y-31931009D02*
X111361905Y-31883390D01*
X111361905Y-31883390D02*
X111314286Y-31835771D01*
X111314286Y-31835771D02*
X111266667Y-31740533D01*
X111266667Y-31740533D02*
X111266667Y-31645295D01*
X111266667Y-31645295D02*
X111314286Y-31550057D01*
X111314286Y-31550057D02*
X111361905Y-31502438D01*
X111361905Y-31502438D02*
X111457143Y-31454819D01*
X111457143Y-31454819D02*
X111695238Y-31454819D01*
X111695238Y-31454819D02*
X111838095Y-31502438D01*
X112171429Y-31454819D02*
X112409524Y-32454819D01*
X112409524Y-32454819D02*
X112600000Y-31740533D01*
X112600000Y-31740533D02*
X112790476Y-32454819D01*
X112790476Y-32454819D02*
X113028572Y-31454819D01*
X113838095Y-31788152D02*
X113838095Y-32454819D01*
X113600000Y-31407200D02*
X113361905Y-32121485D01*
X113361905Y-32121485D02*
X113980952Y-32121485D01*
X62866667Y-79407200D02*
X63009524Y-79454819D01*
X63009524Y-79454819D02*
X63247619Y-79454819D01*
X63247619Y-79454819D02*
X63342857Y-79407200D01*
X63342857Y-79407200D02*
X63390476Y-79359580D01*
X63390476Y-79359580D02*
X63438095Y-79264342D01*
X63438095Y-79264342D02*
X63438095Y-79169104D01*
X63438095Y-79169104D02*
X63390476Y-79073866D01*
X63390476Y-79073866D02*
X63342857Y-79026247D01*
X63342857Y-79026247D02*
X63247619Y-78978628D01*
X63247619Y-78978628D02*
X63057143Y-78931009D01*
X63057143Y-78931009D02*
X62961905Y-78883390D01*
X62961905Y-78883390D02*
X62914286Y-78835771D01*
X62914286Y-78835771D02*
X62866667Y-78740533D01*
X62866667Y-78740533D02*
X62866667Y-78645295D01*
X62866667Y-78645295D02*
X62914286Y-78550057D01*
X62914286Y-78550057D02*
X62961905Y-78502438D01*
X62961905Y-78502438D02*
X63057143Y-78454819D01*
X63057143Y-78454819D02*
X63295238Y-78454819D01*
X63295238Y-78454819D02*
X63438095Y-78502438D01*
X63771429Y-78454819D02*
X64009524Y-79454819D01*
X64009524Y-79454819D02*
X64200000Y-78740533D01*
X64200000Y-78740533D02*
X64390476Y-79454819D01*
X64390476Y-79454819D02*
X64628572Y-78454819D01*
X65152381Y-78883390D02*
X65057143Y-78835771D01*
X65057143Y-78835771D02*
X65009524Y-78788152D01*
X65009524Y-78788152D02*
X64961905Y-78692914D01*
X64961905Y-78692914D02*
X64961905Y-78645295D01*
X64961905Y-78645295D02*
X65009524Y-78550057D01*
X65009524Y-78550057D02*
X65057143Y-78502438D01*
X65057143Y-78502438D02*
X65152381Y-78454819D01*
X65152381Y-78454819D02*
X65342857Y-78454819D01*
X65342857Y-78454819D02*
X65438095Y-78502438D01*
X65438095Y-78502438D02*
X65485714Y-78550057D01*
X65485714Y-78550057D02*
X65533333Y-78645295D01*
X65533333Y-78645295D02*
X65533333Y-78692914D01*
X65533333Y-78692914D02*
X65485714Y-78788152D01*
X65485714Y-78788152D02*
X65438095Y-78835771D01*
X65438095Y-78835771D02*
X65342857Y-78883390D01*
X65342857Y-78883390D02*
X65152381Y-78883390D01*
X65152381Y-78883390D02*
X65057143Y-78931009D01*
X65057143Y-78931009D02*
X65009524Y-78978628D01*
X65009524Y-78978628D02*
X64961905Y-79073866D01*
X64961905Y-79073866D02*
X64961905Y-79264342D01*
X64961905Y-79264342D02*
X65009524Y-79359580D01*
X65009524Y-79359580D02*
X65057143Y-79407200D01*
X65057143Y-79407200D02*
X65152381Y-79454819D01*
X65152381Y-79454819D02*
X65342857Y-79454819D01*
X65342857Y-79454819D02*
X65438095Y-79407200D01*
X65438095Y-79407200D02*
X65485714Y-79359580D01*
X65485714Y-79359580D02*
X65533333Y-79264342D01*
X65533333Y-79264342D02*
X65533333Y-79073866D01*
X65533333Y-79073866D02*
X65485714Y-78978628D01*
X65485714Y-78978628D02*
X65438095Y-78931009D01*
X65438095Y-78931009D02*
X65342857Y-78883390D01*
X38666667Y-79407200D02*
X38809524Y-79454819D01*
X38809524Y-79454819D02*
X39047619Y-79454819D01*
X39047619Y-79454819D02*
X39142857Y-79407200D01*
X39142857Y-79407200D02*
X39190476Y-79359580D01*
X39190476Y-79359580D02*
X39238095Y-79264342D01*
X39238095Y-79264342D02*
X39238095Y-79169104D01*
X39238095Y-79169104D02*
X39190476Y-79073866D01*
X39190476Y-79073866D02*
X39142857Y-79026247D01*
X39142857Y-79026247D02*
X39047619Y-78978628D01*
X39047619Y-78978628D02*
X38857143Y-78931009D01*
X38857143Y-78931009D02*
X38761905Y-78883390D01*
X38761905Y-78883390D02*
X38714286Y-78835771D01*
X38714286Y-78835771D02*
X38666667Y-78740533D01*
X38666667Y-78740533D02*
X38666667Y-78645295D01*
X38666667Y-78645295D02*
X38714286Y-78550057D01*
X38714286Y-78550057D02*
X38761905Y-78502438D01*
X38761905Y-78502438D02*
X38857143Y-78454819D01*
X38857143Y-78454819D02*
X39095238Y-78454819D01*
X39095238Y-78454819D02*
X39238095Y-78502438D01*
X39571429Y-78454819D02*
X39809524Y-79454819D01*
X39809524Y-79454819D02*
X40000000Y-78740533D01*
X40000000Y-78740533D02*
X40190476Y-79454819D01*
X40190476Y-79454819D02*
X40428572Y-78454819D01*
X41238095Y-78454819D02*
X41047619Y-78454819D01*
X41047619Y-78454819D02*
X40952381Y-78502438D01*
X40952381Y-78502438D02*
X40904762Y-78550057D01*
X40904762Y-78550057D02*
X40809524Y-78692914D01*
X40809524Y-78692914D02*
X40761905Y-78883390D01*
X40761905Y-78883390D02*
X40761905Y-79264342D01*
X40761905Y-79264342D02*
X40809524Y-79359580D01*
X40809524Y-79359580D02*
X40857143Y-79407200D01*
X40857143Y-79407200D02*
X40952381Y-79454819D01*
X40952381Y-79454819D02*
X41142857Y-79454819D01*
X41142857Y-79454819D02*
X41238095Y-79407200D01*
X41238095Y-79407200D02*
X41285714Y-79359580D01*
X41285714Y-79359580D02*
X41333333Y-79264342D01*
X41333333Y-79264342D02*
X41333333Y-79026247D01*
X41333333Y-79026247D02*
X41285714Y-78931009D01*
X41285714Y-78931009D02*
X41238095Y-78883390D01*
X41238095Y-78883390D02*
X41142857Y-78835771D01*
X41142857Y-78835771D02*
X40952381Y-78835771D01*
X40952381Y-78835771D02*
X40857143Y-78883390D01*
X40857143Y-78883390D02*
X40809524Y-78931009D01*
X40809524Y-78931009D02*
X40761905Y-79026247D01*
X86590476Y-79407200D02*
X86733333Y-79454819D01*
X86733333Y-79454819D02*
X86971428Y-79454819D01*
X86971428Y-79454819D02*
X87066666Y-79407200D01*
X87066666Y-79407200D02*
X87114285Y-79359580D01*
X87114285Y-79359580D02*
X87161904Y-79264342D01*
X87161904Y-79264342D02*
X87161904Y-79169104D01*
X87161904Y-79169104D02*
X87114285Y-79073866D01*
X87114285Y-79073866D02*
X87066666Y-79026247D01*
X87066666Y-79026247D02*
X86971428Y-78978628D01*
X86971428Y-78978628D02*
X86780952Y-78931009D01*
X86780952Y-78931009D02*
X86685714Y-78883390D01*
X86685714Y-78883390D02*
X86638095Y-78835771D01*
X86638095Y-78835771D02*
X86590476Y-78740533D01*
X86590476Y-78740533D02*
X86590476Y-78645295D01*
X86590476Y-78645295D02*
X86638095Y-78550057D01*
X86638095Y-78550057D02*
X86685714Y-78502438D01*
X86685714Y-78502438D02*
X86780952Y-78454819D01*
X86780952Y-78454819D02*
X87019047Y-78454819D01*
X87019047Y-78454819D02*
X87161904Y-78502438D01*
X87495238Y-78454819D02*
X87733333Y-79454819D01*
X87733333Y-79454819D02*
X87923809Y-78740533D01*
X87923809Y-78740533D02*
X88114285Y-79454819D01*
X88114285Y-79454819D02*
X88352381Y-78454819D01*
X89257142Y-79454819D02*
X88685714Y-79454819D01*
X88971428Y-79454819D02*
X88971428Y-78454819D01*
X88971428Y-78454819D02*
X88876190Y-78597676D01*
X88876190Y-78597676D02*
X88780952Y-78692914D01*
X88780952Y-78692914D02*
X88685714Y-78740533D01*
X89876190Y-78454819D02*
X89971428Y-78454819D01*
X89971428Y-78454819D02*
X90066666Y-78502438D01*
X90066666Y-78502438D02*
X90114285Y-78550057D01*
X90114285Y-78550057D02*
X90161904Y-78645295D01*
X90161904Y-78645295D02*
X90209523Y-78835771D01*
X90209523Y-78835771D02*
X90209523Y-79073866D01*
X90209523Y-79073866D02*
X90161904Y-79264342D01*
X90161904Y-79264342D02*
X90114285Y-79359580D01*
X90114285Y-79359580D02*
X90066666Y-79407200D01*
X90066666Y-79407200D02*
X89971428Y-79454819D01*
X89971428Y-79454819D02*
X89876190Y-79454819D01*
X89876190Y-79454819D02*
X89780952Y-79407200D01*
X89780952Y-79407200D02*
X89733333Y-79359580D01*
X89733333Y-79359580D02*
X89685714Y-79264342D01*
X89685714Y-79264342D02*
X89638095Y-79073866D01*
X89638095Y-79073866D02*
X89638095Y-78835771D01*
X89638095Y-78835771D02*
X89685714Y-78645295D01*
X89685714Y-78645295D02*
X89733333Y-78550057D01*
X89733333Y-78550057D02*
X89780952Y-78502438D01*
X89780952Y-78502438D02*
X89876190Y-78454819D01*
X62866667Y-60907200D02*
X63009524Y-60954819D01*
X63009524Y-60954819D02*
X63247619Y-60954819D01*
X63247619Y-60954819D02*
X63342857Y-60907200D01*
X63342857Y-60907200D02*
X63390476Y-60859580D01*
X63390476Y-60859580D02*
X63438095Y-60764342D01*
X63438095Y-60764342D02*
X63438095Y-60669104D01*
X63438095Y-60669104D02*
X63390476Y-60573866D01*
X63390476Y-60573866D02*
X63342857Y-60526247D01*
X63342857Y-60526247D02*
X63247619Y-60478628D01*
X63247619Y-60478628D02*
X63057143Y-60431009D01*
X63057143Y-60431009D02*
X62961905Y-60383390D01*
X62961905Y-60383390D02*
X62914286Y-60335771D01*
X62914286Y-60335771D02*
X62866667Y-60240533D01*
X62866667Y-60240533D02*
X62866667Y-60145295D01*
X62866667Y-60145295D02*
X62914286Y-60050057D01*
X62914286Y-60050057D02*
X62961905Y-60002438D01*
X62961905Y-60002438D02*
X63057143Y-59954819D01*
X63057143Y-59954819D02*
X63295238Y-59954819D01*
X63295238Y-59954819D02*
X63438095Y-60002438D01*
X63771429Y-59954819D02*
X64009524Y-60954819D01*
X64009524Y-60954819D02*
X64200000Y-60240533D01*
X64200000Y-60240533D02*
X64390476Y-60954819D01*
X64390476Y-60954819D02*
X64628572Y-59954819D01*
X64914286Y-59954819D02*
X65580952Y-59954819D01*
X65580952Y-59954819D02*
X65152381Y-60954819D01*
X100366666Y-65198819D02*
X100366666Y-65913104D01*
X100366666Y-65913104D02*
X100319047Y-66055961D01*
X100319047Y-66055961D02*
X100223809Y-66151200D01*
X100223809Y-66151200D02*
X100080952Y-66198819D01*
X100080952Y-66198819D02*
X99985714Y-66198819D01*
X101271428Y-65532152D02*
X101271428Y-66198819D01*
X101033333Y-65151200D02*
X100795238Y-65865485D01*
X100795238Y-65865485D02*
X101414285Y-65865485D01*
X103274819Y-73633332D02*
X103274819Y-73061904D01*
X104274819Y-73347618D02*
X103274819Y-73347618D01*
X104274819Y-72585713D02*
X104227200Y-72680951D01*
X104227200Y-72680951D02*
X104179580Y-72728570D01*
X104179580Y-72728570D02*
X104084342Y-72776189D01*
X104084342Y-72776189D02*
X103798628Y-72776189D01*
X103798628Y-72776189D02*
X103703390Y-72728570D01*
X103703390Y-72728570D02*
X103655771Y-72680951D01*
X103655771Y-72680951D02*
X103608152Y-72585713D01*
X103608152Y-72585713D02*
X103608152Y-72442856D01*
X103608152Y-72442856D02*
X103655771Y-72347618D01*
X103655771Y-72347618D02*
X103703390Y-72299999D01*
X103703390Y-72299999D02*
X103798628Y-72252380D01*
X103798628Y-72252380D02*
X104084342Y-72252380D01*
X104084342Y-72252380D02*
X104179580Y-72299999D01*
X104179580Y-72299999D02*
X104227200Y-72347618D01*
X104227200Y-72347618D02*
X104274819Y-72442856D01*
X104274819Y-72442856D02*
X104274819Y-72585713D01*
X104274819Y-71061903D02*
X103274819Y-71061903D01*
X103274819Y-71061903D02*
X103274819Y-70823808D01*
X103274819Y-70823808D02*
X103322438Y-70680951D01*
X103322438Y-70680951D02*
X103417676Y-70585713D01*
X103417676Y-70585713D02*
X103512914Y-70538094D01*
X103512914Y-70538094D02*
X103703390Y-70490475D01*
X103703390Y-70490475D02*
X103846247Y-70490475D01*
X103846247Y-70490475D02*
X104036723Y-70538094D01*
X104036723Y-70538094D02*
X104131961Y-70585713D01*
X104131961Y-70585713D02*
X104227200Y-70680951D01*
X104227200Y-70680951D02*
X104274819Y-70823808D01*
X104274819Y-70823808D02*
X104274819Y-71061903D01*
X104274819Y-70061903D02*
X103274819Y-70061903D01*
X104227200Y-69633332D02*
X104274819Y-69490475D01*
X104274819Y-69490475D02*
X104274819Y-69252380D01*
X104274819Y-69252380D02*
X104227200Y-69157142D01*
X104227200Y-69157142D02*
X104179580Y-69109523D01*
X104179580Y-69109523D02*
X104084342Y-69061904D01*
X104084342Y-69061904D02*
X103989104Y-69061904D01*
X103989104Y-69061904D02*
X103893866Y-69109523D01*
X103893866Y-69109523D02*
X103846247Y-69157142D01*
X103846247Y-69157142D02*
X103798628Y-69252380D01*
X103798628Y-69252380D02*
X103751009Y-69442856D01*
X103751009Y-69442856D02*
X103703390Y-69538094D01*
X103703390Y-69538094D02*
X103655771Y-69585713D01*
X103655771Y-69585713D02*
X103560533Y-69633332D01*
X103560533Y-69633332D02*
X103465295Y-69633332D01*
X103465295Y-69633332D02*
X103370057Y-69585713D01*
X103370057Y-69585713D02*
X103322438Y-69538094D01*
X103322438Y-69538094D02*
X103274819Y-69442856D01*
X103274819Y-69442856D02*
X103274819Y-69204761D01*
X103274819Y-69204761D02*
X103322438Y-69061904D01*
X104274819Y-68633332D02*
X103274819Y-68633332D01*
X103274819Y-68633332D02*
X103274819Y-68252380D01*
X103274819Y-68252380D02*
X103322438Y-68157142D01*
X103322438Y-68157142D02*
X103370057Y-68109523D01*
X103370057Y-68109523D02*
X103465295Y-68061904D01*
X103465295Y-68061904D02*
X103608152Y-68061904D01*
X103608152Y-68061904D02*
X103703390Y-68109523D01*
X103703390Y-68109523D02*
X103751009Y-68157142D01*
X103751009Y-68157142D02*
X103798628Y-68252380D01*
X103798628Y-68252380D02*
X103798628Y-68633332D01*
X87066667Y-60907200D02*
X87209524Y-60954819D01*
X87209524Y-60954819D02*
X87447619Y-60954819D01*
X87447619Y-60954819D02*
X87542857Y-60907200D01*
X87542857Y-60907200D02*
X87590476Y-60859580D01*
X87590476Y-60859580D02*
X87638095Y-60764342D01*
X87638095Y-60764342D02*
X87638095Y-60669104D01*
X87638095Y-60669104D02*
X87590476Y-60573866D01*
X87590476Y-60573866D02*
X87542857Y-60526247D01*
X87542857Y-60526247D02*
X87447619Y-60478628D01*
X87447619Y-60478628D02*
X87257143Y-60431009D01*
X87257143Y-60431009D02*
X87161905Y-60383390D01*
X87161905Y-60383390D02*
X87114286Y-60335771D01*
X87114286Y-60335771D02*
X87066667Y-60240533D01*
X87066667Y-60240533D02*
X87066667Y-60145295D01*
X87066667Y-60145295D02*
X87114286Y-60050057D01*
X87114286Y-60050057D02*
X87161905Y-60002438D01*
X87161905Y-60002438D02*
X87257143Y-59954819D01*
X87257143Y-59954819D02*
X87495238Y-59954819D01*
X87495238Y-59954819D02*
X87638095Y-60002438D01*
X87971429Y-59954819D02*
X88209524Y-60954819D01*
X88209524Y-60954819D02*
X88400000Y-60240533D01*
X88400000Y-60240533D02*
X88590476Y-60954819D01*
X88590476Y-60954819D02*
X88828572Y-59954819D01*
X89257143Y-60954819D02*
X89447619Y-60954819D01*
X89447619Y-60954819D02*
X89542857Y-60907200D01*
X89542857Y-60907200D02*
X89590476Y-60859580D01*
X89590476Y-60859580D02*
X89685714Y-60716723D01*
X89685714Y-60716723D02*
X89733333Y-60526247D01*
X89733333Y-60526247D02*
X89733333Y-60145295D01*
X89733333Y-60145295D02*
X89685714Y-60050057D01*
X89685714Y-60050057D02*
X89638095Y-60002438D01*
X89638095Y-60002438D02*
X89542857Y-59954819D01*
X89542857Y-59954819D02*
X89352381Y-59954819D01*
X89352381Y-59954819D02*
X89257143Y-60002438D01*
X89257143Y-60002438D02*
X89209524Y-60050057D01*
X89209524Y-60050057D02*
X89161905Y-60145295D01*
X89161905Y-60145295D02*
X89161905Y-60383390D01*
X89161905Y-60383390D02*
X89209524Y-60478628D01*
X89209524Y-60478628D02*
X89257143Y-60526247D01*
X89257143Y-60526247D02*
X89352381Y-60573866D01*
X89352381Y-60573866D02*
X89542857Y-60573866D01*
X89542857Y-60573866D02*
X89638095Y-60526247D01*
X89638095Y-60526247D02*
X89685714Y-60478628D01*
X89685714Y-60478628D02*
X89733333Y-60383390D01*
X38666667Y-60907200D02*
X38809524Y-60954819D01*
X38809524Y-60954819D02*
X39047619Y-60954819D01*
X39047619Y-60954819D02*
X39142857Y-60907200D01*
X39142857Y-60907200D02*
X39190476Y-60859580D01*
X39190476Y-60859580D02*
X39238095Y-60764342D01*
X39238095Y-60764342D02*
X39238095Y-60669104D01*
X39238095Y-60669104D02*
X39190476Y-60573866D01*
X39190476Y-60573866D02*
X39142857Y-60526247D01*
X39142857Y-60526247D02*
X39047619Y-60478628D01*
X39047619Y-60478628D02*
X38857143Y-60431009D01*
X38857143Y-60431009D02*
X38761905Y-60383390D01*
X38761905Y-60383390D02*
X38714286Y-60335771D01*
X38714286Y-60335771D02*
X38666667Y-60240533D01*
X38666667Y-60240533D02*
X38666667Y-60145295D01*
X38666667Y-60145295D02*
X38714286Y-60050057D01*
X38714286Y-60050057D02*
X38761905Y-60002438D01*
X38761905Y-60002438D02*
X38857143Y-59954819D01*
X38857143Y-59954819D02*
X39095238Y-59954819D01*
X39095238Y-59954819D02*
X39238095Y-60002438D01*
X39571429Y-59954819D02*
X39809524Y-60954819D01*
X39809524Y-60954819D02*
X40000000Y-60240533D01*
X40000000Y-60240533D02*
X40190476Y-60954819D01*
X40190476Y-60954819D02*
X40428572Y-59954819D01*
X41285714Y-59954819D02*
X40809524Y-59954819D01*
X40809524Y-59954819D02*
X40761905Y-60431009D01*
X40761905Y-60431009D02*
X40809524Y-60383390D01*
X40809524Y-60383390D02*
X40904762Y-60335771D01*
X40904762Y-60335771D02*
X41142857Y-60335771D01*
X41142857Y-60335771D02*
X41238095Y-60383390D01*
X41238095Y-60383390D02*
X41285714Y-60431009D01*
X41285714Y-60431009D02*
X41333333Y-60526247D01*
X41333333Y-60526247D02*
X41333333Y-60764342D01*
X41333333Y-60764342D02*
X41285714Y-60859580D01*
X41285714Y-60859580D02*
X41238095Y-60907200D01*
X41238095Y-60907200D02*
X41142857Y-60954819D01*
X41142857Y-60954819D02*
X40904762Y-60954819D01*
X40904762Y-60954819D02*
X40809524Y-60907200D01*
X40809524Y-60907200D02*
X40761905Y-60859580D01*
%TO.C,SW1*%
D12*
X32900000Y-32900000D02*
X32900000Y-47100000D01*
X32900000Y-47100000D02*
X47100000Y-47100000D01*
X47100000Y-32900000D02*
X32900000Y-32900000D01*
X47100000Y-47100000D02*
X47100000Y-32900000D01*
%TO.C,SW2*%
X57100000Y-32900000D02*
X57100000Y-47100000D01*
X57100000Y-47100000D02*
X71300000Y-47100000D01*
X71300000Y-32900000D02*
X57100000Y-32900000D01*
X71300000Y-47100000D02*
X71300000Y-32900000D01*
%TO.C,SW3*%
X81300000Y-32900000D02*
X81300000Y-47100000D01*
X81300000Y-47100000D02*
X95500000Y-47100000D01*
X95500000Y-32900000D02*
X81300000Y-32900000D01*
X95500000Y-47100000D02*
X95500000Y-32900000D01*
%TO.C,SW4*%
X105500000Y-32900000D02*
X105500000Y-47100000D01*
X105500000Y-47100000D02*
X119700000Y-47100000D01*
X119700000Y-32900000D02*
X105500000Y-32900000D01*
X119700000Y-47100000D02*
X119700000Y-32900000D01*
%TO.C,SW8*%
X57100000Y-79900000D02*
X57100000Y-94100000D01*
X57100000Y-94100000D02*
X71300000Y-94100000D01*
X71300000Y-79900000D02*
X57100000Y-79900000D01*
X71300000Y-94100000D02*
X71300000Y-79900000D01*
%TO.C,SW6*%
X32900000Y-79900000D02*
X32900000Y-94100000D01*
X32900000Y-94100000D02*
X47100000Y-94100000D01*
X47100000Y-79900000D02*
X32900000Y-79900000D01*
X47100000Y-94100000D02*
X47100000Y-79900000D01*
%TO.C,J2*%
X96090000Y-81070000D02*
X96090000Y-79690000D01*
X97470000Y-81070000D02*
X96090000Y-81070000D01*
X98740000Y-78310000D02*
X121710000Y-78310000D01*
X98740000Y-81070000D02*
X98740000Y-78310000D01*
X98740000Y-81070000D02*
X121710000Y-81070000D01*
X121710000Y-81070000D02*
X121710000Y-78310000D01*
%TO.C,SW10*%
X81300000Y-79900000D02*
X81300000Y-94100000D01*
X81300000Y-94100000D02*
X95500000Y-94100000D01*
X95500000Y-79900000D02*
X81300000Y-79900000D01*
X95500000Y-94100000D02*
X95500000Y-79900000D01*
%TO.C,SW7*%
X57100000Y-61400000D02*
X57100000Y-75600000D01*
X57100000Y-75600000D02*
X71300000Y-75600000D01*
X71300000Y-61400000D02*
X57100000Y-61400000D01*
X71300000Y-75600000D02*
X71300000Y-61400000D01*
%TO.C,J4*%
X99370000Y-69784000D02*
X99370000Y-77464000D01*
X99370000Y-69784000D02*
X102030000Y-69784000D01*
X99370000Y-77464000D02*
X102030000Y-77464000D01*
X100700000Y-67184000D02*
X102030000Y-67184000D01*
X102030000Y-67184000D02*
X102030000Y-68514000D01*
X102030000Y-69784000D02*
X102030000Y-77464000D01*
%TO.C,SW9*%
X81300000Y-61400000D02*
X81300000Y-75600000D01*
X81300000Y-75600000D02*
X95500000Y-75600000D01*
X95500000Y-61400000D02*
X81300000Y-61400000D01*
X95500000Y-75600000D02*
X95500000Y-61400000D01*
%TO.C,J1*%
X96090000Y-93550000D02*
X121710000Y-93550000D01*
X96090000Y-96200000D02*
X96090000Y-93550000D01*
X96090000Y-98850000D02*
X96090000Y-97470000D01*
X97470000Y-98850000D02*
X96090000Y-98850000D01*
X98740000Y-96200000D02*
X96090000Y-96200000D01*
X98740000Y-98850000D02*
X98740000Y-96200000D01*
X98740000Y-98850000D02*
X121710000Y-98850000D01*
X121710000Y-98850000D02*
X121710000Y-93550000D01*
%TO.C,SW5*%
X32900000Y-61400000D02*
X32900000Y-75600000D01*
X32900000Y-75600000D02*
X47100000Y-75600000D01*
X47100000Y-61400000D02*
X32900000Y-61400000D01*
X47100000Y-75600000D02*
X47100000Y-61400000D01*
%TD*%
D13*
X29000000Y-26000000D02*
X124000000Y-26000000D01*
X124000000Y-100500000D01*
X29000000Y-100500000D01*
X29000000Y-26000000D01*
M02*
