%TF.GenerationSoftware,KiCad,Pcbnew,10.0.2*%
%TF.CreationDate,2026-05-26T14:46:02-05:00*%
%TF.ProjectId,keypad,6b657970-6164-42e6-9b69-6361645f7063,rev?*%
%TF.SameCoordinates,Original*%
%TF.FileFunction,Legend,Bot*%
%TF.FilePolarity,Positive*%
%FSLAX46Y46*%
G04 Gerber Fmt 4.6, Leading zero omitted, Abs format (unit mm)*
G04 Created by KiCad (PCBNEW 10.0.2) date 2026-05-26 14:46:02*
%MOMM*%
%LPD*%
G01*
G04 APERTURE LIST*
%ADD10C,0.000000*%
%ADD11C,0.200000*%
%ADD12C,0.300000*%
%ADD13C,0.125000*%
%ADD14C,0.187500*%
%ADD15C,0.150000*%
%ADD16C,0.120000*%
%TA.AperFunction,Profile*%
%ADD17C,0.200000*%
%TD*%
G04 APERTURE END LIST*
D10*
G36*
X95638400Y-59963200D02*
G01*
X94438400Y-59963200D01*
X94438400Y-58763200D01*
X95638400Y-58763200D01*
X95638400Y-59963200D01*
G37*
G36*
X96438400Y-60763200D02*
G01*
X96038400Y-60763200D01*
X94038400Y-60763200D01*
X93638400Y-60763200D01*
X93638400Y-60363200D01*
X94038400Y-60363200D01*
X96038400Y-60363200D01*
X96038400Y-58363200D01*
X94038400Y-58363200D01*
X94038400Y-60363200D01*
X93638400Y-60363200D01*
X93638400Y-57963200D01*
X94038400Y-57963200D01*
X96038400Y-57963200D01*
X96438400Y-57963200D01*
X96438400Y-60763200D01*
G37*
G36*
X98038400Y-60363200D02*
G01*
X98438400Y-60363200D01*
X98438400Y-60763200D01*
X98038400Y-60763200D01*
X97638400Y-60763200D01*
X96838400Y-60763200D01*
X96838400Y-60363200D01*
X97638400Y-60363200D01*
X97638400Y-59163200D01*
X98038400Y-59163200D01*
X98038400Y-60363200D01*
G37*
G36*
X100438400Y-60763200D02*
G01*
X100038400Y-60763200D01*
X100038400Y-59963200D01*
X100438400Y-59963200D01*
X100438400Y-60763200D01*
G37*
G36*
X102838400Y-59963200D02*
G01*
X101638400Y-59963200D01*
X101638400Y-58763200D01*
X102838400Y-58763200D01*
X102838400Y-59963200D01*
G37*
G36*
X103638400Y-60763200D02*
G01*
X103238400Y-60763200D01*
X101238400Y-60763200D01*
X100838400Y-60763200D01*
X100838400Y-60363200D01*
X101238400Y-60363200D01*
X103238400Y-60363200D01*
X103238400Y-58363200D01*
X101238400Y-58363200D01*
X101238400Y-60363200D01*
X100838400Y-60363200D01*
X100838400Y-57963200D01*
X101238400Y-57963200D01*
X103238400Y-57963200D01*
X103638400Y-57963200D01*
X103638400Y-60763200D01*
G37*
G36*
X92318270Y-60443445D02*
G01*
X92319019Y-60443196D01*
X92324337Y-60444652D01*
X92329738Y-60445727D01*
X92330295Y-60446284D01*
X92331955Y-60446739D01*
X92384337Y-60472929D01*
X92389743Y-60477125D01*
X92391486Y-60477706D01*
X92392992Y-60479646D01*
X92394933Y-60481153D01*
X92395513Y-60482895D01*
X92399710Y-60488302D01*
X92425901Y-60540683D01*
X92426355Y-60542343D01*
X92426913Y-60542901D01*
X92427988Y-60548305D01*
X92429443Y-60553619D01*
X92429193Y-60554366D01*
X92429530Y-60556056D01*
X92429530Y-60634628D01*
X92429193Y-60636317D01*
X92429443Y-60637065D01*
X92427988Y-60642378D01*
X92426913Y-60647783D01*
X92426355Y-60648340D01*
X92425901Y-60650001D01*
X92411489Y-60678824D01*
X92578488Y-60678824D01*
X92591643Y-60681441D01*
X92610246Y-60700044D01*
X92610246Y-60726354D01*
X92591643Y-60744957D01*
X92578488Y-60747574D01*
X92028489Y-60747574D01*
X92015334Y-60744957D01*
X91996731Y-60726354D01*
X91996731Y-60700044D01*
X92015334Y-60681441D01*
X92028489Y-60678824D01*
X92328535Y-60678824D01*
X92340713Y-60666645D01*
X92360780Y-60626513D01*
X92360780Y-60564171D01*
X92343342Y-60529296D01*
X92308468Y-60511860D01*
X92028489Y-60511860D01*
X92015334Y-60509243D01*
X91996731Y-60490640D01*
X91996731Y-60464330D01*
X92015334Y-60445727D01*
X92028489Y-60443110D01*
X92316583Y-60443110D01*
X92318270Y-60443445D01*
G37*
G36*
X99238400Y-59963200D02*
G01*
X99638400Y-59963200D01*
X99638400Y-60363200D01*
X99238400Y-60363200D01*
X98838400Y-60363200D01*
X98438400Y-60363200D01*
X98438400Y-59963200D01*
X98838400Y-59963200D01*
X98838400Y-59163200D01*
X99238400Y-59163200D01*
X99238400Y-59963200D01*
G37*
G36*
X92060247Y-60071473D02*
G01*
X92062864Y-60084628D01*
X92062864Y-60128894D01*
X92080301Y-60163768D01*
X92115175Y-60181205D01*
X92360780Y-60181205D01*
X92360780Y-60084628D01*
X92363397Y-60071473D01*
X92382000Y-60052870D01*
X92408310Y-60052870D01*
X92426913Y-60071473D01*
X92429530Y-60084628D01*
X92429530Y-60181205D01*
X92578488Y-60181205D01*
X92591643Y-60183822D01*
X92610246Y-60202425D01*
X92610246Y-60228735D01*
X92591643Y-60247338D01*
X92578488Y-60249955D01*
X92429530Y-60249955D01*
X92429530Y-60294152D01*
X92426913Y-60307307D01*
X92408310Y-60325910D01*
X92382000Y-60325910D01*
X92363397Y-60307307D01*
X92360780Y-60294152D01*
X92360780Y-60249955D01*
X92107060Y-60249955D01*
X92105372Y-60249619D01*
X92104624Y-60249868D01*
X92099313Y-60248413D01*
X92093905Y-60247338D01*
X92093348Y-60246780D01*
X92091687Y-60246326D01*
X92039306Y-60220136D01*
X92033900Y-60215939D01*
X92032157Y-60215359D01*
X92030651Y-60213418D01*
X92028710Y-60211912D01*
X92028130Y-60210169D01*
X92023933Y-60204763D01*
X91997743Y-60152381D01*
X91997289Y-60150721D01*
X91996731Y-60150164D01*
X91995657Y-60144763D01*
X91994200Y-60139445D01*
X91994450Y-60138696D01*
X91994114Y-60137009D01*
X91994114Y-60084628D01*
X91996731Y-60071473D01*
X92015334Y-60052870D01*
X92041644Y-60052870D01*
X92060247Y-60071473D01*
G37*
G36*
X92060247Y-59757187D02*
G01*
X92062864Y-59770342D01*
X92062864Y-59814608D01*
X92080301Y-59849482D01*
X92115175Y-59866919D01*
X92360780Y-59866919D01*
X92360780Y-59770342D01*
X92363397Y-59757187D01*
X92382000Y-59738584D01*
X92408310Y-59738584D01*
X92426913Y-59757187D01*
X92429530Y-59770342D01*
X92429530Y-59866919D01*
X92578488Y-59866919D01*
X92591643Y-59869536D01*
X92610246Y-59888139D01*
X92610246Y-59914449D01*
X92591643Y-59933052D01*
X92578488Y-59935669D01*
X92429530Y-59935669D01*
X92429530Y-59979866D01*
X92426913Y-59993021D01*
X92408310Y-60011624D01*
X92382000Y-60011624D01*
X92363397Y-59993021D01*
X92360780Y-59979866D01*
X92360780Y-59935669D01*
X92107060Y-59935669D01*
X92105372Y-59935333D01*
X92104624Y-59935582D01*
X92099313Y-59934127D01*
X92093905Y-59933052D01*
X92093348Y-59932494D01*
X92091687Y-59932040D01*
X92039306Y-59905850D01*
X92033900Y-59901653D01*
X92032157Y-59901073D01*
X92030651Y-59899132D01*
X92028710Y-59897626D01*
X92028130Y-59895883D01*
X92023933Y-59890477D01*
X91997743Y-59838095D01*
X91997289Y-59836435D01*
X91996731Y-59835878D01*
X91995657Y-59830477D01*
X91994200Y-59825159D01*
X91994450Y-59824410D01*
X91994114Y-59822723D01*
X91994114Y-59770342D01*
X91996731Y-59757187D01*
X92015334Y-59738584D01*
X92041644Y-59738584D01*
X92060247Y-59757187D01*
G37*
G36*
X97238400Y-59963200D02*
G01*
X96838400Y-59963200D01*
X96838400Y-59563200D01*
X97238400Y-59563200D01*
X97238400Y-59963200D01*
G37*
G36*
X92292082Y-59291064D02*
G01*
X92292830Y-59290815D01*
X92298143Y-59292269D01*
X92303548Y-59293345D01*
X92304105Y-59293902D01*
X92305766Y-59294357D01*
X92358147Y-59320548D01*
X92362500Y-59323926D01*
X92367081Y-59326987D01*
X92393271Y-59353177D01*
X92396331Y-59357757D01*
X92399710Y-59362111D01*
X92425901Y-59414492D01*
X92426355Y-59416152D01*
X92426913Y-59416710D01*
X92427988Y-59422114D01*
X92429443Y-59427428D01*
X92429193Y-59428175D01*
X92429530Y-59429865D01*
X92429530Y-59534627D01*
X92429193Y-59536316D01*
X92429443Y-59537064D01*
X92427988Y-59542377D01*
X92426913Y-59547782D01*
X92426355Y-59548339D01*
X92425901Y-59550000D01*
X92418287Y-59565227D01*
X92426913Y-59573853D01*
X92426913Y-59600163D01*
X92408310Y-59618766D01*
X92395155Y-59621383D01*
X92347719Y-59621383D01*
X91845156Y-59621383D01*
X91832001Y-59618766D01*
X91813398Y-59600163D01*
X91813398Y-59573853D01*
X91832001Y-59555250D01*
X91845156Y-59552633D01*
X91999060Y-59552633D01*
X91997743Y-59549999D01*
X91997289Y-59548339D01*
X91996731Y-59547782D01*
X91995657Y-59542381D01*
X91994200Y-59537063D01*
X91994450Y-59536314D01*
X91994114Y-59534627D01*
X91994114Y-59437980D01*
X92062864Y-59437980D01*
X92062864Y-59526512D01*
X92075925Y-59552633D01*
X92347719Y-59552633D01*
X92360780Y-59526512D01*
X92360780Y-59437980D01*
X92340713Y-59397847D01*
X92322410Y-59379544D01*
X92282277Y-59359478D01*
X92141367Y-59359478D01*
X92101231Y-59379546D01*
X92082931Y-59397846D01*
X92062864Y-59437980D01*
X91994114Y-59437980D01*
X91994114Y-59429865D01*
X91994450Y-59428176D01*
X91994201Y-59427429D01*
X91995656Y-59422117D01*
X91996731Y-59416710D01*
X91997289Y-59416152D01*
X91997743Y-59414492D01*
X92023933Y-59362111D01*
X92027314Y-59357754D01*
X92030373Y-59353177D01*
X92056564Y-59326987D01*
X92061144Y-59323926D01*
X92065497Y-59320548D01*
X92117878Y-59294357D01*
X92119539Y-59293902D01*
X92120096Y-59293345D01*
X92125501Y-59292269D01*
X92130814Y-59290815D01*
X92131562Y-59291064D01*
X92133251Y-59290728D01*
X92290393Y-59290728D01*
X92292082Y-59291064D01*
G37*
G36*
X99238400Y-55963200D02*
G01*
X99638400Y-55963200D01*
X99638400Y-56763200D01*
X99238400Y-56763200D01*
X99238400Y-57163200D01*
X99638400Y-57163200D01*
X99638400Y-57563200D01*
X100038400Y-57563200D01*
X100038400Y-57963200D01*
X99638400Y-57963200D01*
X99638400Y-58363200D01*
X100038400Y-58363200D01*
X100038400Y-58763200D01*
X100438400Y-58763200D01*
X100438400Y-59563200D01*
X100038400Y-59563200D01*
X100038400Y-59163200D01*
X99638400Y-59163200D01*
X99238400Y-59163200D01*
X99238400Y-57963200D01*
X98838400Y-57963200D01*
X98838400Y-58363200D01*
X98438400Y-58363200D01*
X98438400Y-57163200D01*
X98038400Y-57163200D01*
X98038400Y-57563200D01*
X97638400Y-57563200D01*
X97638400Y-57163200D01*
X97238400Y-57163200D01*
X97238400Y-56763200D01*
X97638400Y-56763200D01*
X98038400Y-56763200D01*
X98438400Y-56763200D01*
X98838400Y-56763200D01*
X98838400Y-56363200D01*
X98438400Y-56363200D01*
X98438400Y-55563200D01*
X98838400Y-55563200D01*
X99238400Y-55563200D01*
X99238400Y-55963200D01*
G37*
G36*
X97238400Y-58363200D02*
G01*
X97638400Y-58363200D01*
X97638400Y-58763200D01*
X97238400Y-58763200D01*
X97238400Y-59163200D01*
X96838400Y-59163200D01*
X96838400Y-57963200D01*
X97238400Y-57963200D01*
X97238400Y-58363200D01*
G37*
G36*
X98438400Y-59163200D02*
G01*
X98038400Y-59163200D01*
X98038400Y-58363200D01*
X98438400Y-58363200D01*
X98438400Y-59163200D01*
G37*
G36*
X92134941Y-58845826D02*
G01*
X92135688Y-58845577D01*
X92141002Y-58847031D01*
X92146406Y-58848107D01*
X92146964Y-58848664D01*
X92148624Y-58849119D01*
X92201005Y-58875310D01*
X92206412Y-58879506D01*
X92208154Y-58880087D01*
X92209661Y-58882027D01*
X92211601Y-58883534D01*
X92212182Y-58885276D01*
X92216378Y-58890683D01*
X92242568Y-58943064D01*
X92243023Y-58944724D01*
X92243580Y-58945282D01*
X92244656Y-58950689D01*
X92246110Y-58956001D01*
X92245862Y-58956748D01*
X92246197Y-58958437D01*
X92246197Y-59028893D01*
X92263635Y-59063767D01*
X92298508Y-59081205D01*
X92308467Y-59081205D01*
X92343342Y-59063767D01*
X92360780Y-59028893D01*
X92360780Y-58966552D01*
X92338218Y-58921429D01*
X92334676Y-58908493D01*
X92342995Y-58883534D01*
X92366527Y-58871768D01*
X92391486Y-58880087D01*
X92399710Y-58890683D01*
X92425901Y-58943064D01*
X92426355Y-58944724D01*
X92426913Y-58945282D01*
X92427988Y-58950686D01*
X92429443Y-58956000D01*
X92429193Y-58956747D01*
X92429530Y-58958437D01*
X92429530Y-59037008D01*
X92429193Y-59038697D01*
X92429443Y-59039445D01*
X92427988Y-59044758D01*
X92426913Y-59050163D01*
X92426355Y-59050720D01*
X92425901Y-59052381D01*
X92399710Y-59104762D01*
X92395513Y-59110168D01*
X92394933Y-59111911D01*
X92392992Y-59113417D01*
X92391486Y-59115358D01*
X92389743Y-59115938D01*
X92384337Y-59120135D01*
X92331956Y-59146326D01*
X92330295Y-59146780D01*
X92329738Y-59147338D01*
X92324333Y-59148413D01*
X92319020Y-59149868D01*
X92318272Y-59149618D01*
X92316583Y-59149955D01*
X92290393Y-59149955D01*
X92288703Y-59149618D01*
X92287956Y-59149868D01*
X92282642Y-59148413D01*
X92277238Y-59147338D01*
X92276681Y-59146780D01*
X92275020Y-59146326D01*
X92222640Y-59120135D01*
X92217234Y-59115938D01*
X92215491Y-59115358D01*
X92213985Y-59113417D01*
X92212044Y-59111911D01*
X92211464Y-59110168D01*
X92207267Y-59104762D01*
X92181076Y-59052381D01*
X92180622Y-59050720D01*
X92180064Y-59050163D01*
X92178989Y-59044758D01*
X92177534Y-59039445D01*
X92177784Y-59038697D01*
X92177447Y-59037008D01*
X92177447Y-58966552D01*
X92160011Y-58931677D01*
X92125136Y-58914240D01*
X92115176Y-58914240D01*
X92080301Y-58931677D01*
X92062864Y-58966552D01*
X92062864Y-59055084D01*
X92085425Y-59100207D01*
X92088967Y-59113144D01*
X92080648Y-59138102D01*
X92057115Y-59149868D01*
X92032157Y-59141549D01*
X92023933Y-59130953D01*
X91997743Y-59078571D01*
X91997289Y-59076911D01*
X91996731Y-59076354D01*
X91995657Y-59070953D01*
X91994200Y-59065635D01*
X91994450Y-59064886D01*
X91994114Y-59063199D01*
X91994114Y-58958437D01*
X91994450Y-58956748D01*
X91994201Y-58956001D01*
X91995656Y-58950689D01*
X91996731Y-58945282D01*
X91997289Y-58944724D01*
X91997743Y-58943064D01*
X92023933Y-58890683D01*
X92028130Y-58885276D01*
X92028710Y-58883534D01*
X92030651Y-58882027D01*
X92032157Y-58880087D01*
X92033900Y-58879506D01*
X92039306Y-58875310D01*
X92091687Y-58849119D01*
X92093348Y-58848664D01*
X92093905Y-58848107D01*
X92099310Y-58847031D01*
X92104623Y-58845577D01*
X92105371Y-58845826D01*
X92107060Y-58845490D01*
X92133251Y-58845490D01*
X92134941Y-58845826D01*
G37*
G36*
X92078985Y-58593654D02*
G01*
X92105176Y-58619844D01*
X92112626Y-58630992D01*
X92112629Y-58630996D01*
X92112629Y-58657305D01*
X92105177Y-58668458D01*
X92078986Y-58694649D01*
X92067837Y-58702097D01*
X92067833Y-58702101D01*
X92041524Y-58702100D01*
X92030372Y-58694648D01*
X92004182Y-58668457D01*
X91996730Y-58657305D01*
X91996731Y-58630996D01*
X91996734Y-58630993D01*
X92004182Y-58619844D01*
X92030372Y-58593654D01*
X92041522Y-58586205D01*
X92041524Y-58586203D01*
X92067833Y-58586202D01*
X92078985Y-58593654D01*
G37*
G36*
X92355929Y-58586203D02*
G01*
X92355931Y-58586205D01*
X92367081Y-58593654D01*
X92393271Y-58619844D01*
X92400719Y-58630993D01*
X92400722Y-58630996D01*
X92400723Y-58657305D01*
X92393271Y-58668457D01*
X92367081Y-58694648D01*
X92355929Y-58702100D01*
X92329620Y-58702101D01*
X92329616Y-58702097D01*
X92318467Y-58694649D01*
X92292276Y-58668458D01*
X92284824Y-58657305D01*
X92284824Y-58630996D01*
X92284827Y-58630992D01*
X92292277Y-58619844D01*
X92318468Y-58593654D01*
X92329620Y-58586202D01*
X92355929Y-58586203D01*
G37*
G36*
X92623806Y-57960827D02*
G01*
X92638400Y-57982719D01*
X92633240Y-58008516D01*
X92623746Y-58017991D01*
X91916605Y-58489420D01*
X91904208Y-58494539D01*
X91878410Y-58489380D01*
X91863816Y-58467489D01*
X91868975Y-58441691D01*
X91878469Y-58432216D01*
X92585611Y-57960788D01*
X92598008Y-57955668D01*
X92623806Y-57960827D01*
G37*
G36*
X98038400Y-58363200D02*
G01*
X97638400Y-58363200D01*
X97638400Y-57963200D01*
X98038400Y-57963200D01*
X98038400Y-58363200D01*
G37*
G36*
X100438400Y-58363200D02*
G01*
X100038400Y-58363200D01*
X100038400Y-57963200D01*
X100438400Y-57963200D01*
X100438400Y-58363200D01*
G37*
G36*
X97638400Y-57963200D02*
G01*
X97238400Y-57963200D01*
X97238400Y-57563200D01*
X97638400Y-57563200D01*
X97638400Y-57963200D01*
G37*
G36*
X92623806Y-57384637D02*
G01*
X92638400Y-57406529D01*
X92633240Y-57432326D01*
X92623746Y-57441801D01*
X91916605Y-57913230D01*
X91904208Y-57918349D01*
X91878410Y-57913190D01*
X91863816Y-57891299D01*
X91868975Y-57865501D01*
X91878469Y-57856026D01*
X92585611Y-57384598D01*
X92598008Y-57379478D01*
X92623806Y-57384637D01*
G37*
G36*
X94438400Y-57563200D02*
G01*
X94038400Y-57563200D01*
X93638400Y-57563200D01*
X93638400Y-56763200D01*
X94038400Y-56763200D01*
X94038400Y-56363200D01*
X94438400Y-56363200D01*
X94438400Y-57563200D01*
G37*
G36*
X95638400Y-57563200D02*
G01*
X94838400Y-57563200D01*
X94838400Y-57163200D01*
X95638400Y-57163200D01*
X95638400Y-57563200D01*
G37*
G36*
X96838400Y-57563200D02*
G01*
X96438400Y-57563200D01*
X96438400Y-57163200D01*
X96838400Y-57163200D01*
X96838400Y-57563200D01*
G37*
G36*
X101238400Y-57563200D02*
G01*
X100438400Y-57563200D01*
X100438400Y-57163200D01*
X101238400Y-57163200D01*
X101238400Y-57563200D01*
G37*
G36*
X103638400Y-57563200D02*
G01*
X103238400Y-57563200D01*
X103238400Y-57163200D01*
X103638400Y-57163200D01*
X103638400Y-57563200D01*
G37*
G36*
X92318270Y-56960112D02*
G01*
X92319019Y-56959863D01*
X92324337Y-56961319D01*
X92329738Y-56962394D01*
X92330295Y-56962951D01*
X92331955Y-56963406D01*
X92384337Y-56989596D01*
X92389743Y-56993792D01*
X92391486Y-56994373D01*
X92392992Y-56996313D01*
X92394933Y-56997820D01*
X92395513Y-56999562D01*
X92399710Y-57004969D01*
X92425901Y-57057350D01*
X92426355Y-57059010D01*
X92426913Y-57059568D01*
X92427988Y-57064972D01*
X92429443Y-57070286D01*
X92429193Y-57071033D01*
X92429530Y-57072723D01*
X92429530Y-57177485D01*
X92429193Y-57179174D01*
X92429443Y-57179922D01*
X92427988Y-57185235D01*
X92426913Y-57190640D01*
X92426355Y-57191197D01*
X92425901Y-57192858D01*
X92399710Y-57245239D01*
X92391486Y-57255835D01*
X92366527Y-57264154D01*
X92342995Y-57252388D01*
X92334676Y-57227429D01*
X92338218Y-57214493D01*
X92360780Y-57169370D01*
X92360780Y-57080838D01*
X92343342Y-57045963D01*
X92308468Y-57028527D01*
X92285447Y-57028527D01*
X92272388Y-57054648D01*
X92272388Y-57177485D01*
X92272052Y-57179174D01*
X92272301Y-57179922D01*
X92270847Y-57185235D01*
X92269771Y-57190640D01*
X92269214Y-57191197D01*
X92268759Y-57192858D01*
X92242568Y-57245239D01*
X92238372Y-57250645D01*
X92237791Y-57252388D01*
X92235851Y-57253894D01*
X92234344Y-57255835D01*
X92232602Y-57256415D01*
X92227195Y-57260612D01*
X92174814Y-57286803D01*
X92173154Y-57287257D01*
X92172596Y-57287815D01*
X92167192Y-57288890D01*
X92161878Y-57290345D01*
X92161131Y-57290095D01*
X92159441Y-57290432D01*
X92151326Y-57290432D01*
X92107060Y-57290432D01*
X92105371Y-57290095D01*
X92104623Y-57290345D01*
X92099310Y-57288890D01*
X92093905Y-57287815D01*
X92093348Y-57287257D01*
X92091687Y-57286803D01*
X92039306Y-57260612D01*
X92033900Y-57256415D01*
X92032157Y-57255835D01*
X92030651Y-57253894D01*
X92028710Y-57252388D01*
X92028130Y-57250645D01*
X92023933Y-57245239D01*
X91997743Y-57192857D01*
X91997289Y-57191197D01*
X91996731Y-57190640D01*
X91995657Y-57185239D01*
X91994200Y-57179921D01*
X91994450Y-57179172D01*
X91994114Y-57177485D01*
X91994114Y-57054648D01*
X92062864Y-57054648D01*
X92062864Y-57169370D01*
X92080301Y-57204244D01*
X92115176Y-57221682D01*
X92151326Y-57221682D01*
X92186201Y-57204244D01*
X92203638Y-57169370D01*
X92203638Y-57046533D01*
X92203974Y-57044844D01*
X92203725Y-57044097D01*
X92205180Y-57038785D01*
X92206255Y-57033378D01*
X92206813Y-57032820D01*
X92207267Y-57031160D01*
X92208584Y-57028527D01*
X92075924Y-57028527D01*
X92062864Y-57054648D01*
X91994114Y-57054648D01*
X91994114Y-57046533D01*
X91994450Y-57044844D01*
X91994201Y-57044097D01*
X91995656Y-57038785D01*
X91996731Y-57033378D01*
X91997289Y-57032820D01*
X91997743Y-57031160D01*
X92005357Y-57015932D01*
X91996731Y-57007307D01*
X91996731Y-56980997D01*
X92015334Y-56962394D01*
X92028489Y-56959777D01*
X92316583Y-56959777D01*
X92318270Y-56960112D01*
G37*
G36*
X96838400Y-56363200D02*
G01*
X96438400Y-56363200D01*
X96438400Y-57163200D01*
X96038400Y-57163200D01*
X96038400Y-56763200D01*
X95638400Y-56763200D01*
X95638400Y-56363200D01*
X96038400Y-56363200D01*
X96038400Y-55963200D01*
X96438400Y-55963200D01*
X96438400Y-55563200D01*
X96838400Y-55563200D01*
X96838400Y-56363200D01*
G37*
G36*
X100838400Y-56363200D02*
G01*
X101638400Y-56363200D01*
X101638400Y-56763200D01*
X100838400Y-56763200D01*
X100438400Y-56763200D01*
X100438400Y-57163200D01*
X100038400Y-57163200D01*
X99638400Y-57163200D01*
X99638400Y-56763200D01*
X100038400Y-56763200D01*
X100038400Y-55963200D01*
X100438400Y-55963200D01*
X100838400Y-55963200D01*
X100838400Y-56363200D01*
G37*
G36*
X102038400Y-57163200D02*
G01*
X101638400Y-57163200D01*
X101638400Y-56763200D01*
X102038400Y-56763200D01*
X102038400Y-57163200D01*
G37*
G36*
X103238400Y-57163200D02*
G01*
X102838400Y-57163200D01*
X102838400Y-56763200D01*
X102438400Y-56763200D01*
X102438400Y-56363200D01*
X102838400Y-56363200D01*
X103238400Y-56363200D01*
X103238400Y-57163200D01*
G37*
G36*
X92426913Y-56561949D02*
G01*
X92429530Y-56575104D01*
X92429530Y-56627485D01*
X92429193Y-56629174D01*
X92429443Y-56629922D01*
X92427988Y-56635235D01*
X92426913Y-56640640D01*
X92426355Y-56641197D01*
X92425901Y-56642858D01*
X92399710Y-56695239D01*
X92397330Y-56698304D01*
X92408310Y-56700489D01*
X92426913Y-56719092D01*
X92426913Y-56745402D01*
X92408310Y-56764005D01*
X92395155Y-56766622D01*
X92028489Y-56766622D01*
X92015334Y-56764005D01*
X91996731Y-56745402D01*
X91996731Y-56719092D01*
X92015334Y-56700489D01*
X92028489Y-56697872D01*
X92282278Y-56697872D01*
X92322411Y-56677805D01*
X92340711Y-56659505D01*
X92360780Y-56619370D01*
X92360780Y-56575104D01*
X92363397Y-56561949D01*
X92382000Y-56543346D01*
X92408310Y-56543346D01*
X92426913Y-56561949D01*
G37*
G36*
X95238400Y-56763200D02*
G01*
X94838400Y-56763200D01*
X94838400Y-56363200D01*
X95238400Y-56363200D01*
X95238400Y-56763200D01*
G37*
G36*
X97238400Y-56763200D02*
G01*
X96838400Y-56763200D01*
X96838400Y-56363200D01*
X97238400Y-56363200D01*
X97238400Y-56763200D01*
G37*
G36*
X92049114Y-56154747D02*
G01*
X92234787Y-56294001D01*
X92370848Y-56157940D01*
X92382001Y-56150489D01*
X92408309Y-56150489D01*
X92426913Y-56169093D01*
X92426913Y-56195401D01*
X92419462Y-56206554D01*
X92268621Y-56357396D01*
X92578488Y-56357396D01*
X92591643Y-56360013D01*
X92610246Y-56378616D01*
X92610246Y-56404926D01*
X92591643Y-56423529D01*
X92578488Y-56426146D01*
X92028489Y-56426146D01*
X92015334Y-56423529D01*
X91996731Y-56404926D01*
X91996731Y-56378616D01*
X92015334Y-56360013D01*
X92028489Y-56357396D01*
X92171393Y-56357396D01*
X92185680Y-56343108D01*
X92007864Y-56209747D01*
X91998910Y-56199760D01*
X91995190Y-56173716D01*
X92010976Y-56152668D01*
X92037020Y-56148948D01*
X92049114Y-56154747D01*
G37*
G36*
X98038400Y-56363200D02*
G01*
X97638400Y-56363200D01*
X97238400Y-56363200D01*
X97238400Y-55963200D01*
X97638400Y-55963200D01*
X97638400Y-55563200D01*
X98038400Y-55563200D01*
X98038400Y-56363200D01*
G37*
G36*
X102038400Y-56363200D02*
G01*
X101638400Y-56363200D01*
X101638400Y-55963200D01*
X102038400Y-55963200D01*
X102038400Y-56363200D01*
G37*
G36*
X102838400Y-55163200D02*
G01*
X103238400Y-55163200D01*
X103638400Y-55163200D01*
X103638400Y-56363200D01*
X103238400Y-56363200D01*
X103238400Y-55563200D01*
X102838400Y-55563200D01*
X102838400Y-55963200D01*
X102438400Y-55963200D01*
X102038400Y-55963200D01*
X102038400Y-55163200D01*
X102438400Y-55163200D01*
X102438400Y-54763200D01*
X102838400Y-54763200D01*
X102838400Y-55163200D01*
G37*
G36*
X92318270Y-55676781D02*
G01*
X92319019Y-55676531D01*
X92324337Y-55677988D01*
X92329738Y-55679062D01*
X92330295Y-55679620D01*
X92331955Y-55680074D01*
X92384337Y-55706264D01*
X92389743Y-55710461D01*
X92391486Y-55711041D01*
X92392992Y-55712982D01*
X92394933Y-55714488D01*
X92395513Y-55716231D01*
X92399710Y-55721637D01*
X92425901Y-55774017D01*
X92426355Y-55775678D01*
X92426913Y-55776235D01*
X92427988Y-55781639D01*
X92429443Y-55786953D01*
X92429193Y-55787700D01*
X92429530Y-55789390D01*
X92429530Y-55894152D01*
X92429193Y-55895841D01*
X92429443Y-55896589D01*
X92427988Y-55901902D01*
X92426913Y-55907307D01*
X92426355Y-55907864D01*
X92425901Y-55909525D01*
X92399710Y-55961906D01*
X92391486Y-55972502D01*
X92366527Y-55980821D01*
X92342995Y-55969055D01*
X92334676Y-55944096D01*
X92338218Y-55931160D01*
X92360780Y-55886037D01*
X92360780Y-55797505D01*
X92343342Y-55762632D01*
X92308468Y-55745195D01*
X92285447Y-55745195D01*
X92272388Y-55771316D01*
X92272388Y-55894152D01*
X92272052Y-55895841D01*
X92272301Y-55896589D01*
X92270847Y-55901902D01*
X92269771Y-55907307D01*
X92269214Y-55907864D01*
X92268759Y-55909525D01*
X92242568Y-55961906D01*
X92238372Y-55967312D01*
X92237791Y-55969055D01*
X92235851Y-55970561D01*
X92234344Y-55972502D01*
X92232602Y-55973082D01*
X92227195Y-55977279D01*
X92174814Y-56003470D01*
X92173154Y-56003924D01*
X92172596Y-56004482D01*
X92167192Y-56005557D01*
X92161878Y-56007012D01*
X92161131Y-56006762D01*
X92159441Y-56007099D01*
X92151326Y-56007099D01*
X92107060Y-56007099D01*
X92105371Y-56006762D01*
X92104623Y-56007012D01*
X92099310Y-56005557D01*
X92093905Y-56004482D01*
X92093348Y-56003924D01*
X92091687Y-56003470D01*
X92039306Y-55977279D01*
X92033900Y-55973082D01*
X92032157Y-55972502D01*
X92030651Y-55970561D01*
X92028710Y-55969055D01*
X92028130Y-55967312D01*
X92023933Y-55961906D01*
X91997743Y-55909524D01*
X91997289Y-55907864D01*
X91996731Y-55907307D01*
X91995657Y-55901906D01*
X91994200Y-55896588D01*
X91994450Y-55895839D01*
X91994114Y-55894152D01*
X91994114Y-55771316D01*
X92062864Y-55771316D01*
X92062864Y-55886037D01*
X92080301Y-55920911D01*
X92115176Y-55938349D01*
X92151326Y-55938349D01*
X92186201Y-55920911D01*
X92203638Y-55886037D01*
X92203638Y-55763201D01*
X92203974Y-55761513D01*
X92203725Y-55760765D01*
X92205180Y-55755454D01*
X92206255Y-55750046D01*
X92206813Y-55749489D01*
X92207267Y-55747828D01*
X92208584Y-55745195D01*
X92075924Y-55745195D01*
X92062864Y-55771316D01*
X91994114Y-55771316D01*
X91994114Y-55763201D01*
X91994450Y-55761513D01*
X91994201Y-55760765D01*
X91995656Y-55755454D01*
X91996731Y-55750046D01*
X91997289Y-55749489D01*
X91997743Y-55747828D01*
X92005357Y-55732601D01*
X91996731Y-55723975D01*
X91996731Y-55697665D01*
X92015334Y-55679062D01*
X92028489Y-55676445D01*
X92316583Y-55676445D01*
X92318270Y-55676781D01*
G37*
G36*
X94838400Y-55963200D02*
G01*
X94438400Y-55963200D01*
X94438400Y-55163200D01*
X94038400Y-55163200D01*
X94038400Y-55963200D01*
X93638400Y-55963200D01*
X93638400Y-54763200D01*
X94038400Y-54763200D01*
X94438400Y-54763200D01*
X94838400Y-54763200D01*
X94838400Y-55963200D01*
G37*
G36*
X96438400Y-55563200D02*
G01*
X96038400Y-55563200D01*
X96038400Y-55963200D01*
X95638400Y-55963200D01*
X95238400Y-55963200D01*
X95238400Y-55563200D01*
X95638400Y-55563200D01*
X95638400Y-55163200D01*
X96038400Y-55163200D01*
X96438400Y-55163200D01*
X96438400Y-55563200D01*
G37*
G36*
X100038400Y-55963200D02*
G01*
X99638400Y-55963200D01*
X99638400Y-55563200D01*
X100038400Y-55563200D01*
X100038400Y-55963200D01*
G37*
G36*
X101638400Y-55963200D02*
G01*
X101238400Y-55963200D01*
X100838400Y-55963200D01*
X100838400Y-55563200D01*
X101238400Y-55563200D01*
X101238400Y-55163200D01*
X101638400Y-55163200D01*
X101638400Y-55963200D01*
G37*
G36*
X97238400Y-55563200D02*
G01*
X96838400Y-55563200D01*
X96838400Y-55163200D01*
X97238400Y-55163200D01*
X97238400Y-55563200D01*
G37*
G36*
X100838400Y-55563200D02*
G01*
X100438400Y-55563200D01*
X100438400Y-55163200D01*
X100838400Y-55163200D01*
X100838400Y-55563200D01*
G37*
G36*
X92591643Y-55181443D02*
G01*
X92610246Y-55200046D01*
X92610246Y-55226356D01*
X92591643Y-55244959D01*
X92578488Y-55247576D01*
X92424584Y-55247576D01*
X92425901Y-55250209D01*
X92426355Y-55251870D01*
X92426913Y-55252427D01*
X92427988Y-55257832D01*
X92429443Y-55263145D01*
X92429193Y-55263893D01*
X92429530Y-55265582D01*
X92429530Y-55370344D01*
X92429193Y-55372034D01*
X92429443Y-55372781D01*
X92427988Y-55378095D01*
X92426913Y-55383499D01*
X92426355Y-55384057D01*
X92425901Y-55385717D01*
X92399710Y-55438098D01*
X92396331Y-55442452D01*
X92393271Y-55447032D01*
X92367081Y-55473222D01*
X92362500Y-55476283D01*
X92358147Y-55479661D01*
X92305766Y-55505852D01*
X92304105Y-55506307D01*
X92303548Y-55506864D01*
X92298143Y-55507940D01*
X92292830Y-55509394D01*
X92292082Y-55509145D01*
X92290393Y-55509481D01*
X92282277Y-55509481D01*
X92133251Y-55509481D01*
X92131562Y-55509145D01*
X92130814Y-55509394D01*
X92125501Y-55507940D01*
X92120096Y-55506864D01*
X92119539Y-55506307D01*
X92117878Y-55505852D01*
X92065497Y-55479661D01*
X92061144Y-55476283D01*
X92056564Y-55473222D01*
X92030373Y-55447032D01*
X92027314Y-55442455D01*
X92023933Y-55438098D01*
X91997743Y-55385716D01*
X91997289Y-55384057D01*
X91996731Y-55383499D01*
X91995657Y-55378099D01*
X91994200Y-55372780D01*
X91994450Y-55372032D01*
X91994114Y-55370344D01*
X91994114Y-55273697D01*
X92062864Y-55273697D01*
X92062864Y-55362229D01*
X92082931Y-55402364D01*
X92101231Y-55420663D01*
X92141367Y-55440731D01*
X92282277Y-55440731D01*
X92322410Y-55420665D01*
X92340713Y-55402362D01*
X92360780Y-55362229D01*
X92360780Y-55273697D01*
X92347719Y-55247576D01*
X92075924Y-55247576D01*
X92062864Y-55273697D01*
X91994114Y-55273697D01*
X91994114Y-55265582D01*
X91994450Y-55263894D01*
X91994201Y-55263146D01*
X91995656Y-55257835D01*
X91996731Y-55252427D01*
X91997289Y-55251870D01*
X91997743Y-55250209D01*
X92005357Y-55234982D01*
X91996731Y-55226356D01*
X91996731Y-55200046D01*
X92015334Y-55181443D01*
X92028489Y-55178826D01*
X92578488Y-55178826D01*
X92591643Y-55181443D01*
G37*
G36*
X96438400Y-53563200D02*
G01*
X96038400Y-53563200D01*
X96038400Y-53163200D01*
X96438400Y-53163200D01*
X96438400Y-53563200D01*
G37*
G36*
X95638400Y-51163200D02*
G01*
X96038400Y-51163200D01*
X96038400Y-51563200D01*
X95638400Y-51563200D01*
X94838400Y-51563200D01*
X94838400Y-52763200D01*
X94438400Y-52763200D01*
X94438400Y-53563200D01*
X94838400Y-53563200D01*
X94838400Y-53163200D01*
X95238400Y-53163200D01*
X95238400Y-52363200D01*
X95638400Y-52363200D01*
X96838400Y-52363200D01*
X97238400Y-52363200D01*
X97238400Y-52763200D01*
X97638400Y-52763200D01*
X97638400Y-53163200D01*
X97238400Y-53163200D01*
X97238400Y-53563200D01*
X97638400Y-53563200D01*
X97638400Y-54363200D01*
X97238400Y-54363200D01*
X96838400Y-54363200D01*
X96038400Y-54363200D01*
X96038400Y-54763200D01*
X95638400Y-54763200D01*
X95638400Y-55163200D01*
X95238400Y-55163200D01*
X95238400Y-54363200D01*
X94838400Y-54363200D01*
X94838400Y-53963200D01*
X95638400Y-53963200D01*
X96038400Y-53963200D01*
X96838400Y-53963200D01*
X96838400Y-52763200D01*
X95638400Y-52763200D01*
X95638400Y-53963200D01*
X94838400Y-53963200D01*
X94438400Y-53963200D01*
X94038400Y-53963200D01*
X94038400Y-53563200D01*
X93638400Y-53563200D01*
X93638400Y-53163200D01*
X94038400Y-53163200D01*
X94038400Y-52363200D01*
X94438400Y-52363200D01*
X94438400Y-51963200D01*
X94038400Y-51963200D01*
X94038400Y-51163200D01*
X93638400Y-51163200D01*
X93638400Y-50763200D01*
X94038400Y-50763200D01*
X94438400Y-50763200D01*
X94838400Y-50763200D01*
X95638400Y-50763200D01*
X95638400Y-51163200D01*
G37*
G36*
X96838400Y-55163200D02*
G01*
X96438400Y-55163200D01*
X96438400Y-54763200D01*
X96838400Y-54763200D01*
X96838400Y-55163200D01*
G37*
G36*
X98038400Y-51163200D02*
G01*
X98438400Y-51163200D01*
X98438400Y-50763200D01*
X98838400Y-50763200D01*
X99238400Y-50763200D01*
X99638400Y-50763200D01*
X99638400Y-51163200D01*
X99238400Y-51163200D01*
X99238400Y-51963200D01*
X99638400Y-51963200D01*
X99638400Y-51163200D01*
X100038400Y-51163200D01*
X100038400Y-53163200D01*
X99638400Y-53163200D01*
X99638400Y-53563200D01*
X100038400Y-53563200D01*
X100038400Y-53963200D01*
X99638400Y-53963200D01*
X99638400Y-54363200D01*
X100038400Y-54363200D01*
X100038400Y-54763200D01*
X100438400Y-54763200D01*
X100438400Y-55163200D01*
X100038400Y-55163200D01*
X99638400Y-55163200D01*
X99638400Y-54763200D01*
X99238400Y-54763200D01*
X99238400Y-55163200D01*
X98838400Y-55163200D01*
X98038400Y-55163200D01*
X97638400Y-55163200D01*
X97238400Y-55163200D01*
X97238400Y-54763200D01*
X97638400Y-54763200D01*
X98838400Y-54763200D01*
X99238400Y-54763200D01*
X99238400Y-54363200D01*
X98838400Y-54363200D01*
X98838400Y-54763200D01*
X97638400Y-54763200D01*
X97638400Y-54363200D01*
X98038400Y-54363200D01*
X98038400Y-53963200D01*
X98838400Y-53963200D01*
X98838400Y-53563200D01*
X99238400Y-53563200D01*
X99238400Y-52363200D01*
X98838400Y-52363200D01*
X98838400Y-51163200D01*
X98438400Y-51163200D01*
X98438400Y-51563200D01*
X98038400Y-51563200D01*
X98038400Y-52363200D01*
X98438400Y-52363200D01*
X98438400Y-52763200D01*
X98038400Y-52763200D01*
X97638400Y-52763200D01*
X97638400Y-52363200D01*
X97238400Y-52363200D01*
X97238400Y-51963200D01*
X96438400Y-51963200D01*
X96438400Y-51163200D01*
X97238400Y-51163200D01*
X97238400Y-51563200D01*
X97638400Y-51563200D01*
X97638400Y-51163200D01*
X97238400Y-51163200D01*
X97238400Y-50763200D01*
X97638400Y-50763200D01*
X98038400Y-50763200D01*
X98038400Y-51163200D01*
G37*
G36*
X101238400Y-55163200D02*
G01*
X100838400Y-55163200D01*
X100838400Y-54763200D01*
X101238400Y-54763200D01*
X101238400Y-55163200D01*
G37*
G36*
X92565453Y-54893348D02*
G01*
X92565455Y-54893351D01*
X92576605Y-54900799D01*
X92602795Y-54926989D01*
X92610243Y-54938139D01*
X92610246Y-54938141D01*
X92610247Y-54964450D01*
X92602795Y-54975602D01*
X92576605Y-55001793D01*
X92565453Y-55009245D01*
X92539144Y-55009246D01*
X92539140Y-55009243D01*
X92527991Y-55001794D01*
X92501800Y-54975603D01*
X92494348Y-54964450D01*
X92494348Y-54938141D01*
X92494351Y-54938138D01*
X92501801Y-54926989D01*
X92527992Y-54900799D01*
X92539144Y-54893347D01*
X92565453Y-54893348D01*
G37*
G36*
X92408310Y-54919538D02*
G01*
X92426913Y-54938141D01*
X92426913Y-54964451D01*
X92408310Y-54983054D01*
X92395155Y-54985671D01*
X92028489Y-54985671D01*
X92015334Y-54983054D01*
X91996731Y-54964451D01*
X91996731Y-54938141D01*
X92015334Y-54919538D01*
X92028489Y-54916921D01*
X92395155Y-54916921D01*
X92408310Y-54919538D01*
G37*
G36*
X102438400Y-54763200D02*
G01*
X102038400Y-54763200D01*
X102038400Y-54363200D01*
X100838400Y-54363200D01*
X100838400Y-53963200D01*
X102038400Y-53963200D01*
X102438400Y-53963200D01*
X102438400Y-54763200D01*
G37*
G36*
X92318270Y-54419638D02*
G01*
X92319019Y-54419388D01*
X92324337Y-54420845D01*
X92329738Y-54421919D01*
X92330295Y-54422477D01*
X92331955Y-54422931D01*
X92384337Y-54449121D01*
X92389743Y-54453318D01*
X92391486Y-54453898D01*
X92392992Y-54455839D01*
X92394933Y-54457345D01*
X92395513Y-54459088D01*
X92399710Y-54464494D01*
X92425901Y-54516875D01*
X92426355Y-54518536D01*
X92426913Y-54519093D01*
X92427988Y-54524498D01*
X92429443Y-54529811D01*
X92429193Y-54530559D01*
X92429530Y-54532248D01*
X92429530Y-54637010D01*
X92429193Y-54638700D01*
X92429443Y-54639447D01*
X92427988Y-54644761D01*
X92426913Y-54650165D01*
X92426355Y-54650723D01*
X92425901Y-54652383D01*
X92399710Y-54704764D01*
X92391486Y-54715360D01*
X92366527Y-54723679D01*
X92342995Y-54711913D01*
X92334676Y-54686954D01*
X92338218Y-54674018D01*
X92360780Y-54628895D01*
X92360780Y-54540363D01*
X92343342Y-54505489D01*
X92308468Y-54488052D01*
X92285447Y-54488052D01*
X92272388Y-54514173D01*
X92272388Y-54637010D01*
X92272052Y-54638700D01*
X92272301Y-54639447D01*
X92270847Y-54644761D01*
X92269771Y-54650165D01*
X92269214Y-54650723D01*
X92268759Y-54652383D01*
X92242568Y-54704764D01*
X92238372Y-54710171D01*
X92237791Y-54711913D01*
X92235851Y-54713420D01*
X92234344Y-54715360D01*
X92232602Y-54715941D01*
X92227195Y-54720137D01*
X92174814Y-54746328D01*
X92173154Y-54746783D01*
X92172596Y-54747340D01*
X92167192Y-54748416D01*
X92161878Y-54749870D01*
X92161131Y-54749621D01*
X92159441Y-54749957D01*
X92151326Y-54749957D01*
X92107060Y-54749957D01*
X92105371Y-54749621D01*
X92104623Y-54749870D01*
X92099310Y-54748416D01*
X92093905Y-54747340D01*
X92093348Y-54746783D01*
X92091687Y-54746328D01*
X92039306Y-54720137D01*
X92033900Y-54715941D01*
X92032157Y-54715360D01*
X92030651Y-54713420D01*
X92028710Y-54711913D01*
X92028130Y-54710171D01*
X92023933Y-54704764D01*
X91997743Y-54652382D01*
X91997289Y-54650723D01*
X91996731Y-54650165D01*
X91995657Y-54644765D01*
X91994200Y-54639446D01*
X91994450Y-54638698D01*
X91994114Y-54637010D01*
X91994114Y-54514173D01*
X92062864Y-54514173D01*
X92062864Y-54628895D01*
X92080301Y-54663770D01*
X92115176Y-54681207D01*
X92151326Y-54681207D01*
X92186201Y-54663770D01*
X92203638Y-54628895D01*
X92203638Y-54506058D01*
X92203974Y-54504370D01*
X92203725Y-54503622D01*
X92205180Y-54498311D01*
X92206255Y-54492903D01*
X92206813Y-54492346D01*
X92207267Y-54490685D01*
X92208584Y-54488052D01*
X92075924Y-54488052D01*
X92062864Y-54514173D01*
X91994114Y-54514173D01*
X91994114Y-54506058D01*
X91994450Y-54504370D01*
X91994201Y-54503622D01*
X91995656Y-54498311D01*
X91996731Y-54492903D01*
X91997289Y-54492346D01*
X91997743Y-54490685D01*
X92005357Y-54475458D01*
X91996731Y-54466832D01*
X91996731Y-54440522D01*
X92015334Y-54421919D01*
X92028489Y-54419302D01*
X92316583Y-54419302D01*
X92318270Y-54419638D01*
G37*
G36*
X94038400Y-54363200D02*
G01*
X93638400Y-54363200D01*
X93638400Y-53963200D01*
X94038400Y-53963200D01*
X94038400Y-54363200D01*
G37*
G36*
X100438400Y-54363200D02*
G01*
X100038400Y-54363200D01*
X100038400Y-53963200D01*
X100438400Y-53963200D01*
X100438400Y-54363200D01*
G37*
G36*
X103238400Y-54363200D02*
G01*
X102838400Y-54363200D01*
X102838400Y-53963200D01*
X103238400Y-53963200D01*
X103238400Y-54363200D01*
G37*
G36*
X92318270Y-53922019D02*
G01*
X92319019Y-53921769D01*
X92324337Y-53923226D01*
X92329738Y-53924300D01*
X92330295Y-53924858D01*
X92331955Y-53925312D01*
X92384337Y-53951502D01*
X92389743Y-53955699D01*
X92391486Y-53956279D01*
X92392992Y-53958220D01*
X92394933Y-53959726D01*
X92395513Y-53961469D01*
X92399710Y-53966875D01*
X92425901Y-54019256D01*
X92426355Y-54020917D01*
X92426913Y-54021474D01*
X92427988Y-54026879D01*
X92429443Y-54032192D01*
X92429193Y-54032940D01*
X92429530Y-54034629D01*
X92429530Y-54113201D01*
X92429193Y-54114891D01*
X92429443Y-54115638D01*
X92427988Y-54120952D01*
X92426913Y-54126356D01*
X92426355Y-54126914D01*
X92425901Y-54128574D01*
X92411489Y-54157397D01*
X92578488Y-54157397D01*
X92591643Y-54160014D01*
X92610246Y-54178617D01*
X92610246Y-54204927D01*
X92591643Y-54223530D01*
X92578488Y-54226147D01*
X92028489Y-54226147D01*
X92015334Y-54223530D01*
X91996731Y-54204927D01*
X91996731Y-54178617D01*
X92015334Y-54160014D01*
X92028489Y-54157397D01*
X92328535Y-54157397D01*
X92340713Y-54145219D01*
X92360780Y-54105086D01*
X92360780Y-54042744D01*
X92343342Y-54007870D01*
X92308468Y-53990433D01*
X92028489Y-53990433D01*
X92015334Y-53987816D01*
X91996731Y-53969213D01*
X91996731Y-53942903D01*
X92015334Y-53924300D01*
X92028489Y-53921683D01*
X92316583Y-53921683D01*
X92318270Y-53922019D01*
G37*
G36*
X92292082Y-53398210D02*
G01*
X92292830Y-53397960D01*
X92298143Y-53399415D01*
X92303548Y-53400490D01*
X92304105Y-53401048D01*
X92305766Y-53401502D01*
X92358147Y-53427693D01*
X92362500Y-53431072D01*
X92367081Y-53434132D01*
X92393271Y-53460322D01*
X92396331Y-53464903D01*
X92399710Y-53469256D01*
X92425901Y-53521637D01*
X92426355Y-53523298D01*
X92426913Y-53523855D01*
X92427988Y-53529260D01*
X92429443Y-53534573D01*
X92429193Y-53535321D01*
X92429530Y-53537010D01*
X92429530Y-53615582D01*
X92429193Y-53617272D01*
X92429443Y-53618019D01*
X92427988Y-53623333D01*
X92426913Y-53628737D01*
X92426355Y-53629295D01*
X92425901Y-53630955D01*
X92399710Y-53683336D01*
X92396331Y-53687690D01*
X92393271Y-53692270D01*
X92367081Y-53718460D01*
X92362500Y-53721521D01*
X92358147Y-53724899D01*
X92305766Y-53751090D01*
X92304105Y-53751545D01*
X92303548Y-53752102D01*
X92298143Y-53753178D01*
X92292830Y-53754632D01*
X92292082Y-53754383D01*
X92290393Y-53754719D01*
X92282277Y-53754719D01*
X92133251Y-53754719D01*
X92131562Y-53754383D01*
X92130814Y-53754632D01*
X92125501Y-53753178D01*
X92120096Y-53752102D01*
X92119539Y-53751545D01*
X92117878Y-53751090D01*
X92065497Y-53724899D01*
X92061144Y-53721521D01*
X92056564Y-53718460D01*
X92030373Y-53692270D01*
X92027314Y-53687693D01*
X92023933Y-53683336D01*
X91997743Y-53630954D01*
X91997289Y-53629295D01*
X91996731Y-53628737D01*
X91995657Y-53623337D01*
X91994200Y-53618018D01*
X91994450Y-53617270D01*
X91994114Y-53615582D01*
X91994114Y-53545125D01*
X92062864Y-53545125D01*
X92062864Y-53607467D01*
X92082931Y-53647602D01*
X92101231Y-53665901D01*
X92141367Y-53685969D01*
X92282277Y-53685969D01*
X92322410Y-53665903D01*
X92340713Y-53647600D01*
X92360780Y-53607467D01*
X92360780Y-53545125D01*
X92340713Y-53504993D01*
X92322410Y-53486690D01*
X92282277Y-53466623D01*
X92141367Y-53466623D01*
X92101231Y-53486692D01*
X92082931Y-53504992D01*
X92062864Y-53545125D01*
X91994114Y-53545125D01*
X91994114Y-53537010D01*
X91994450Y-53535322D01*
X91994201Y-53534574D01*
X91995656Y-53529263D01*
X91996731Y-53523855D01*
X91997289Y-53523298D01*
X91997743Y-53521637D01*
X92023933Y-53469256D01*
X92027314Y-53464900D01*
X92030373Y-53460322D01*
X92056564Y-53434132D01*
X92061144Y-53431072D01*
X92065497Y-53427693D01*
X92117878Y-53401502D01*
X92119539Y-53401048D01*
X92120096Y-53400490D01*
X92125501Y-53399415D01*
X92130814Y-53397960D01*
X92131562Y-53398210D01*
X92133251Y-53397873D01*
X92290393Y-53397873D01*
X92292082Y-53398210D01*
G37*
G36*
X98838400Y-53563200D02*
G01*
X98438400Y-53563200D01*
X98438400Y-52763200D01*
X98838400Y-52763200D01*
X98838400Y-53563200D01*
G37*
G36*
X100438400Y-53563200D02*
G01*
X100038400Y-53563200D01*
X100038400Y-53163200D01*
X100438400Y-53163200D01*
X100438400Y-53563200D01*
G37*
G36*
X102838400Y-52763200D02*
G01*
X101638400Y-52763200D01*
X101638400Y-51563200D01*
X102838400Y-51563200D01*
X102838400Y-52763200D01*
G37*
G36*
X103638400Y-53563200D02*
G01*
X103238400Y-53563200D01*
X101238400Y-53563200D01*
X100838400Y-53563200D01*
X100838400Y-53163200D01*
X101238400Y-53163200D01*
X103238400Y-53163200D01*
X103238400Y-51163200D01*
X101238400Y-51163200D01*
X101238400Y-53163200D01*
X100838400Y-53163200D01*
X100838400Y-50763200D01*
X101238400Y-50763200D01*
X103238400Y-50763200D01*
X103638400Y-50763200D01*
X103638400Y-53563200D01*
G37*
G36*
X92408310Y-52929062D02*
G01*
X92426913Y-52947665D01*
X92426913Y-52973975D01*
X92408310Y-52992578D01*
X92395155Y-52995195D01*
X92095108Y-52995195D01*
X92082931Y-53007373D01*
X92062864Y-53047506D01*
X92062864Y-53109848D01*
X92080301Y-53144723D01*
X92115175Y-53162159D01*
X92395155Y-53162159D01*
X92408310Y-53164776D01*
X92426913Y-53183379D01*
X92426913Y-53209689D01*
X92408310Y-53228292D01*
X92395155Y-53230909D01*
X92107060Y-53230909D01*
X92105372Y-53230574D01*
X92104624Y-53230822D01*
X92099313Y-53229368D01*
X92093905Y-53228292D01*
X92093348Y-53227735D01*
X92091687Y-53227280D01*
X92039306Y-53201090D01*
X92033900Y-53196894D01*
X92032157Y-53196313D01*
X92030651Y-53194373D01*
X92028710Y-53192866D01*
X92028130Y-53191124D01*
X92023933Y-53185717D01*
X91997743Y-53133335D01*
X91997289Y-53131676D01*
X91996731Y-53131118D01*
X91995657Y-53125718D01*
X91994200Y-53120399D01*
X91994450Y-53119651D01*
X91994114Y-53117963D01*
X91994114Y-53039391D01*
X91994450Y-53037703D01*
X91994201Y-53036955D01*
X91995656Y-53031644D01*
X91996731Y-53026236D01*
X91997289Y-53025679D01*
X91997743Y-53024018D01*
X92014087Y-52991331D01*
X91996731Y-52973975D01*
X91996731Y-52947665D01*
X92015334Y-52929062D01*
X92028489Y-52926445D01*
X92395155Y-52926445D01*
X92408310Y-52929062D01*
G37*
G36*
X92134941Y-52455353D02*
G01*
X92135688Y-52455103D01*
X92141002Y-52456558D01*
X92146406Y-52457633D01*
X92146964Y-52458191D01*
X92148624Y-52458645D01*
X92201005Y-52484836D01*
X92206412Y-52489033D01*
X92208154Y-52489613D01*
X92209661Y-52491554D01*
X92211601Y-52493060D01*
X92212182Y-52494803D01*
X92216378Y-52500209D01*
X92242568Y-52552590D01*
X92243023Y-52554251D01*
X92243580Y-52554808D01*
X92244656Y-52560216D01*
X92246110Y-52565527D01*
X92245862Y-52566275D01*
X92246197Y-52567963D01*
X92246197Y-52638419D01*
X92263635Y-52673294D01*
X92298508Y-52690731D01*
X92308467Y-52690731D01*
X92343342Y-52673294D01*
X92360780Y-52638419D01*
X92360780Y-52576078D01*
X92338218Y-52530955D01*
X92334676Y-52518019D01*
X92342995Y-52493060D01*
X92366527Y-52481294D01*
X92391486Y-52489613D01*
X92399710Y-52500209D01*
X92425901Y-52552590D01*
X92426355Y-52554251D01*
X92426913Y-52554808D01*
X92427988Y-52560213D01*
X92429443Y-52565526D01*
X92429193Y-52566274D01*
X92429530Y-52567963D01*
X92429530Y-52646534D01*
X92429193Y-52648224D01*
X92429443Y-52648971D01*
X92427988Y-52654285D01*
X92426913Y-52659689D01*
X92426355Y-52660247D01*
X92425901Y-52661907D01*
X92399710Y-52714288D01*
X92395513Y-52719695D01*
X92394933Y-52721437D01*
X92392992Y-52722944D01*
X92391486Y-52724884D01*
X92389743Y-52725465D01*
X92384337Y-52729661D01*
X92331956Y-52755852D01*
X92330295Y-52756307D01*
X92329738Y-52756864D01*
X92324333Y-52757940D01*
X92319020Y-52759394D01*
X92318272Y-52759145D01*
X92316583Y-52759481D01*
X92290393Y-52759481D01*
X92288703Y-52759145D01*
X92287956Y-52759394D01*
X92282642Y-52757940D01*
X92277238Y-52756864D01*
X92276681Y-52756307D01*
X92275020Y-52755852D01*
X92222640Y-52729661D01*
X92217234Y-52725465D01*
X92215491Y-52724884D01*
X92213985Y-52722944D01*
X92212044Y-52721437D01*
X92211464Y-52719695D01*
X92207267Y-52714288D01*
X92181076Y-52661907D01*
X92180622Y-52660247D01*
X92180064Y-52659689D01*
X92178989Y-52654285D01*
X92177534Y-52648971D01*
X92177784Y-52648224D01*
X92177447Y-52646534D01*
X92177447Y-52576078D01*
X92160011Y-52541204D01*
X92125136Y-52523766D01*
X92115176Y-52523766D01*
X92080301Y-52541204D01*
X92062864Y-52576078D01*
X92062864Y-52664610D01*
X92085425Y-52709733D01*
X92088967Y-52722670D01*
X92080648Y-52747628D01*
X92057115Y-52759394D01*
X92032157Y-52751075D01*
X92023933Y-52740479D01*
X91997743Y-52688097D01*
X91997289Y-52686438D01*
X91996731Y-52685880D01*
X91995657Y-52680480D01*
X91994200Y-52675161D01*
X91994450Y-52674413D01*
X91994114Y-52672725D01*
X91994114Y-52567963D01*
X91994450Y-52566275D01*
X91994201Y-52565527D01*
X91995656Y-52560216D01*
X91996731Y-52554808D01*
X91997289Y-52554251D01*
X91997743Y-52552590D01*
X92023933Y-52500209D01*
X92028130Y-52494803D01*
X92028710Y-52493060D01*
X92030651Y-52491554D01*
X92032157Y-52489613D01*
X92033900Y-52489033D01*
X92039306Y-52484836D01*
X92091687Y-52458645D01*
X92093348Y-52458191D01*
X92093905Y-52457633D01*
X92099310Y-52456558D01*
X92104623Y-52455103D01*
X92105371Y-52455353D01*
X92107060Y-52455016D01*
X92133251Y-52455016D01*
X92134941Y-52455353D01*
G37*
G36*
X94038400Y-52363200D02*
G01*
X93638400Y-52363200D01*
X93638400Y-51963200D01*
X94038400Y-51963200D01*
X94038400Y-52363200D01*
G37*
G36*
X92318270Y-51983924D02*
G01*
X92319019Y-51983674D01*
X92324337Y-51985131D01*
X92329738Y-51986205D01*
X92330295Y-51986763D01*
X92331955Y-51987217D01*
X92384337Y-52013407D01*
X92389743Y-52017604D01*
X92391486Y-52018184D01*
X92392992Y-52020125D01*
X92394933Y-52021631D01*
X92395513Y-52023374D01*
X92399710Y-52028780D01*
X92425901Y-52081161D01*
X92426355Y-52082822D01*
X92426913Y-52083379D01*
X92427988Y-52088784D01*
X92429443Y-52094097D01*
X92429193Y-52094845D01*
X92429530Y-52096534D01*
X92429530Y-52201296D01*
X92429193Y-52202986D01*
X92429443Y-52203733D01*
X92427988Y-52209047D01*
X92426913Y-52214451D01*
X92426355Y-52215009D01*
X92425901Y-52216669D01*
X92399710Y-52269050D01*
X92395513Y-52274457D01*
X92394933Y-52276199D01*
X92392992Y-52277706D01*
X92391486Y-52279646D01*
X92389743Y-52280227D01*
X92384337Y-52284423D01*
X92331956Y-52310614D01*
X92330295Y-52311069D01*
X92329738Y-52311626D01*
X92324333Y-52312702D01*
X92319020Y-52314156D01*
X92318272Y-52313907D01*
X92316583Y-52314243D01*
X92308467Y-52314243D01*
X92107060Y-52314243D01*
X92105371Y-52313907D01*
X92104623Y-52314156D01*
X92099310Y-52312702D01*
X92093905Y-52311626D01*
X92093348Y-52311069D01*
X92091687Y-52310614D01*
X92039306Y-52284423D01*
X92033900Y-52280227D01*
X92032157Y-52279646D01*
X92030651Y-52277706D01*
X92028710Y-52276199D01*
X92028130Y-52274457D01*
X92023933Y-52269050D01*
X91997743Y-52216668D01*
X91997289Y-52215009D01*
X91996731Y-52214451D01*
X91995657Y-52209051D01*
X91994200Y-52203732D01*
X91994450Y-52202984D01*
X91994114Y-52201296D01*
X91994114Y-52096534D01*
X91994450Y-52094846D01*
X91994201Y-52094098D01*
X91995656Y-52088787D01*
X91996731Y-52083379D01*
X91997289Y-52082822D01*
X91997743Y-52081161D01*
X92023933Y-52028780D01*
X92032157Y-52018184D01*
X92057115Y-52009864D01*
X92080648Y-52021630D01*
X92088968Y-52046589D01*
X92085425Y-52059525D01*
X92062864Y-52104649D01*
X92062864Y-52193181D01*
X92080301Y-52228056D01*
X92115176Y-52245493D01*
X92183642Y-52245493D01*
X92253753Y-52245493D01*
X92308467Y-52245493D01*
X92343342Y-52228056D01*
X92360780Y-52193181D01*
X92360780Y-52104649D01*
X92343342Y-52069775D01*
X92308468Y-52052338D01*
X92292384Y-52052338D01*
X92253753Y-52245493D01*
X92183642Y-52245493D01*
X92230496Y-52011221D01*
X92232445Y-52006530D01*
X92232445Y-52004808D01*
X92233669Y-52003585D01*
X92235642Y-51998835D01*
X92243970Y-51993284D01*
X92251048Y-51986205D01*
X92256093Y-51985202D01*
X92257532Y-51984242D01*
X92259220Y-51984580D01*
X92264203Y-51983588D01*
X92316583Y-51983588D01*
X92318270Y-51983924D01*
G37*
G36*
X92078985Y-51731751D02*
G01*
X92105176Y-51757941D01*
X92112626Y-51769090D01*
X92112629Y-51769093D01*
X92112629Y-51795402D01*
X92105177Y-51806555D01*
X92078986Y-51832746D01*
X92067837Y-51840195D01*
X92067833Y-51840198D01*
X92041524Y-51840197D01*
X92030372Y-51832745D01*
X92004182Y-51806554D01*
X91996730Y-51795402D01*
X91996731Y-51769093D01*
X91996734Y-51769091D01*
X92004182Y-51757941D01*
X92030372Y-51731751D01*
X92041522Y-51724303D01*
X92041524Y-51724300D01*
X92067833Y-51724299D01*
X92078985Y-51731751D01*
G37*
G36*
X92408310Y-51252871D02*
G01*
X92426913Y-51271474D01*
X92426913Y-51297784D01*
X92408310Y-51316387D01*
X92395155Y-51319004D01*
X92095108Y-51319004D01*
X92082931Y-51331182D01*
X92062864Y-51371315D01*
X92062864Y-51433657D01*
X92080301Y-51468532D01*
X92115175Y-51485968D01*
X92395155Y-51485968D01*
X92408310Y-51488585D01*
X92426913Y-51507188D01*
X92426913Y-51533498D01*
X92408310Y-51552101D01*
X92395155Y-51554718D01*
X92107060Y-51554718D01*
X92105372Y-51554383D01*
X92104624Y-51554631D01*
X92099313Y-51553177D01*
X92093905Y-51552101D01*
X92093348Y-51551544D01*
X92091687Y-51551089D01*
X92039306Y-51524899D01*
X92033900Y-51520703D01*
X92032157Y-51520122D01*
X92030651Y-51518182D01*
X92028710Y-51516675D01*
X92028130Y-51514933D01*
X92023933Y-51509526D01*
X91997743Y-51457144D01*
X91997289Y-51455485D01*
X91996731Y-51454927D01*
X91995657Y-51449527D01*
X91994200Y-51444208D01*
X91994450Y-51443460D01*
X91994114Y-51441772D01*
X91994114Y-51363200D01*
X91994450Y-51361512D01*
X91994201Y-51360764D01*
X91995656Y-51355453D01*
X91996731Y-51350045D01*
X91997289Y-51349488D01*
X91997743Y-51347827D01*
X92014087Y-51315140D01*
X91996731Y-51297784D01*
X91996731Y-51271474D01*
X92015334Y-51252871D01*
X92028489Y-51250254D01*
X92395155Y-51250254D01*
X92408310Y-51252871D01*
G37*
G36*
X96438400Y-51163200D02*
G01*
X96038400Y-51163200D01*
X96038400Y-50763200D01*
X96438400Y-50763200D01*
X96438400Y-51163200D01*
G37*
G36*
X100438400Y-51163200D02*
G01*
X100038400Y-51163200D01*
X100038400Y-50763200D01*
X100438400Y-50763200D01*
X100438400Y-51163200D01*
G37*
G36*
X92134941Y-50779162D02*
G01*
X92135688Y-50778912D01*
X92141002Y-50780367D01*
X92146406Y-50781442D01*
X92146964Y-50782000D01*
X92148624Y-50782454D01*
X92201005Y-50808645D01*
X92206412Y-50812842D01*
X92208154Y-50813422D01*
X92209661Y-50815363D01*
X92211601Y-50816869D01*
X92212182Y-50818612D01*
X92216378Y-50824018D01*
X92242568Y-50876399D01*
X92243023Y-50878060D01*
X92243580Y-50878617D01*
X92244656Y-50884025D01*
X92246110Y-50889336D01*
X92245862Y-50890084D01*
X92246197Y-50891772D01*
X92246197Y-50962228D01*
X92263635Y-50997103D01*
X92298508Y-51014540D01*
X92308467Y-51014540D01*
X92343342Y-50997103D01*
X92360780Y-50962228D01*
X92360780Y-50899887D01*
X92338218Y-50854764D01*
X92334676Y-50841828D01*
X92342995Y-50816869D01*
X92366527Y-50805103D01*
X92391486Y-50813422D01*
X92399710Y-50824018D01*
X92425901Y-50876399D01*
X92426355Y-50878060D01*
X92426913Y-50878617D01*
X92427988Y-50884022D01*
X92429443Y-50889335D01*
X92429193Y-50890083D01*
X92429530Y-50891772D01*
X92429530Y-50970343D01*
X92429193Y-50972033D01*
X92429443Y-50972780D01*
X92427988Y-50978094D01*
X92426913Y-50983498D01*
X92426355Y-50984056D01*
X92425901Y-50985716D01*
X92399710Y-51038097D01*
X92395513Y-51043504D01*
X92394933Y-51045246D01*
X92392992Y-51046753D01*
X92391486Y-51048693D01*
X92389743Y-51049274D01*
X92384337Y-51053470D01*
X92331956Y-51079661D01*
X92330295Y-51080116D01*
X92329738Y-51080673D01*
X92324333Y-51081749D01*
X92319020Y-51083203D01*
X92318272Y-51082954D01*
X92316583Y-51083290D01*
X92290393Y-51083290D01*
X92288703Y-51082954D01*
X92287956Y-51083203D01*
X92282642Y-51081749D01*
X92277238Y-51080673D01*
X92276681Y-51080116D01*
X92275020Y-51079661D01*
X92222640Y-51053470D01*
X92217234Y-51049274D01*
X92215491Y-51048693D01*
X92213985Y-51046753D01*
X92212044Y-51045246D01*
X92211464Y-51043504D01*
X92207267Y-51038097D01*
X92181076Y-50985716D01*
X92180622Y-50984056D01*
X92180064Y-50983498D01*
X92178989Y-50978094D01*
X92177534Y-50972780D01*
X92177784Y-50972033D01*
X92177447Y-50970343D01*
X92177447Y-50899887D01*
X92160011Y-50865013D01*
X92125136Y-50847575D01*
X92115176Y-50847575D01*
X92080301Y-50865013D01*
X92062864Y-50899887D01*
X92062864Y-50988419D01*
X92085425Y-51033542D01*
X92088967Y-51046479D01*
X92080648Y-51071437D01*
X92057115Y-51083203D01*
X92032157Y-51074884D01*
X92023933Y-51064288D01*
X91997743Y-51011906D01*
X91997289Y-51010247D01*
X91996731Y-51009689D01*
X91995657Y-51004289D01*
X91994200Y-50998970D01*
X91994450Y-50998222D01*
X91994114Y-50996534D01*
X91994114Y-50891772D01*
X91994450Y-50890084D01*
X91994201Y-50889336D01*
X91995656Y-50884025D01*
X91996731Y-50878617D01*
X91997289Y-50878060D01*
X91997743Y-50876399D01*
X92023933Y-50824018D01*
X92028130Y-50818612D01*
X92028710Y-50816869D01*
X92030651Y-50815363D01*
X92032157Y-50813422D01*
X92033900Y-50812842D01*
X92039306Y-50808645D01*
X92091687Y-50782454D01*
X92093348Y-50782000D01*
X92093905Y-50781442D01*
X92099310Y-50780367D01*
X92104623Y-50778912D01*
X92105371Y-50779162D01*
X92107060Y-50778825D01*
X92133251Y-50778825D01*
X92134941Y-50779162D01*
G37*
D11*
X94930000Y-77150000D02*
X122870000Y-77150000D01*
X122870000Y-100010000D01*
X94930000Y-100010000D01*
X94930000Y-77150000D01*
D12*
X69897274Y-50977341D02*
X69959774Y-50905912D01*
X69959774Y-50905912D02*
X70075846Y-50691626D01*
X70075846Y-50691626D02*
X70129417Y-50548769D01*
X70129417Y-50548769D02*
X70174060Y-50334484D01*
X70174060Y-50334484D02*
X70200846Y-49977341D01*
X70200846Y-49977341D02*
X70165132Y-49691626D01*
X70165132Y-49691626D02*
X70049060Y-49334484D01*
X70049060Y-49334484D02*
X69950846Y-49120198D01*
X69950846Y-49120198D02*
X69861560Y-48977341D01*
X69861560Y-48977341D02*
X69691917Y-48763055D01*
X69691917Y-48763055D02*
X69611560Y-48691626D01*
X68379417Y-50263055D02*
X68459774Y-50334484D01*
X68459774Y-50334484D02*
X68682989Y-50405912D01*
X68682989Y-50405912D02*
X68825846Y-50405912D01*
X68825846Y-50405912D02*
X69031203Y-50334484D01*
X69031203Y-50334484D02*
X69156203Y-50191626D01*
X69156203Y-50191626D02*
X69209774Y-50048769D01*
X69209774Y-50048769D02*
X69245489Y-49763055D01*
X69245489Y-49763055D02*
X69218703Y-49548769D01*
X69218703Y-49548769D02*
X69111560Y-49263055D01*
X69111560Y-49263055D02*
X69022274Y-49120198D01*
X69022274Y-49120198D02*
X68861560Y-48977341D01*
X68861560Y-48977341D02*
X68638346Y-48905912D01*
X68638346Y-48905912D02*
X68495489Y-48905912D01*
X68495489Y-48905912D02*
X68290132Y-48977341D01*
X68290132Y-48977341D02*
X68227632Y-49048769D01*
X67968703Y-50977341D02*
X67888346Y-50905912D01*
X67888346Y-50905912D02*
X67718703Y-50691626D01*
X67718703Y-50691626D02*
X67629417Y-50548769D01*
X67629417Y-50548769D02*
X67531203Y-50334484D01*
X67531203Y-50334484D02*
X67415132Y-49977341D01*
X67415132Y-49977341D02*
X67379417Y-49691626D01*
X67379417Y-49691626D02*
X67406203Y-49334484D01*
X67406203Y-49334484D02*
X67450846Y-49120198D01*
X67450846Y-49120198D02*
X67504417Y-48977341D01*
X67504417Y-48977341D02*
X67620489Y-48763055D01*
X67620489Y-48763055D02*
X67682989Y-48691626D01*
X65513346Y-49048769D02*
X65432989Y-48977341D01*
X65432989Y-48977341D02*
X65281203Y-48905912D01*
X65281203Y-48905912D02*
X64924060Y-48905912D01*
X64924060Y-48905912D02*
X64790132Y-48977341D01*
X64790132Y-48977341D02*
X64727632Y-49048769D01*
X64727632Y-49048769D02*
X64674060Y-49191626D01*
X64674060Y-49191626D02*
X64691917Y-49334484D01*
X64691917Y-49334484D02*
X64790132Y-49548769D01*
X64790132Y-49548769D02*
X65754417Y-50405912D01*
X65754417Y-50405912D02*
X64825846Y-50405912D01*
X63709775Y-48905912D02*
X63566918Y-48905912D01*
X63566918Y-48905912D02*
X63432989Y-48977341D01*
X63432989Y-48977341D02*
X63370489Y-49048769D01*
X63370489Y-49048769D02*
X63316918Y-49191626D01*
X63316918Y-49191626D02*
X63281204Y-49477341D01*
X63281204Y-49477341D02*
X63325846Y-49834484D01*
X63325846Y-49834484D02*
X63432989Y-50120198D01*
X63432989Y-50120198D02*
X63522275Y-50263055D01*
X63522275Y-50263055D02*
X63602632Y-50334484D01*
X63602632Y-50334484D02*
X63754418Y-50405912D01*
X63754418Y-50405912D02*
X63897275Y-50405912D01*
X63897275Y-50405912D02*
X64031204Y-50334484D01*
X64031204Y-50334484D02*
X64093704Y-50263055D01*
X64093704Y-50263055D02*
X64147275Y-50120198D01*
X64147275Y-50120198D02*
X64182989Y-49834484D01*
X64182989Y-49834484D02*
X64138346Y-49477341D01*
X64138346Y-49477341D02*
X64031204Y-49191626D01*
X64031204Y-49191626D02*
X63941918Y-49048769D01*
X63941918Y-49048769D02*
X63861561Y-48977341D01*
X63861561Y-48977341D02*
X63709775Y-48905912D01*
X62656204Y-49048769D02*
X62575847Y-48977341D01*
X62575847Y-48977341D02*
X62424061Y-48905912D01*
X62424061Y-48905912D02*
X62066918Y-48905912D01*
X62066918Y-48905912D02*
X61932990Y-48977341D01*
X61932990Y-48977341D02*
X61870490Y-49048769D01*
X61870490Y-49048769D02*
X61816918Y-49191626D01*
X61816918Y-49191626D02*
X61834775Y-49334484D01*
X61834775Y-49334484D02*
X61932990Y-49548769D01*
X61932990Y-49548769D02*
X62897275Y-50405912D01*
X62897275Y-50405912D02*
X61968704Y-50405912D01*
X60495490Y-48905912D02*
X60781204Y-48905912D01*
X60781204Y-48905912D02*
X60932990Y-48977341D01*
X60932990Y-48977341D02*
X61013347Y-49048769D01*
X61013347Y-49048769D02*
X61182990Y-49263055D01*
X61182990Y-49263055D02*
X61290133Y-49548769D01*
X61290133Y-49548769D02*
X61361562Y-50120198D01*
X61361562Y-50120198D02*
X61307990Y-50263055D01*
X61307990Y-50263055D02*
X61245490Y-50334484D01*
X61245490Y-50334484D02*
X61111562Y-50405912D01*
X61111562Y-50405912D02*
X60825847Y-50405912D01*
X60825847Y-50405912D02*
X60674062Y-50334484D01*
X60674062Y-50334484D02*
X60593704Y-50263055D01*
X60593704Y-50263055D02*
X60504419Y-50120198D01*
X60504419Y-50120198D02*
X60459776Y-49763055D01*
X60459776Y-49763055D02*
X60513347Y-49620198D01*
X60513347Y-49620198D02*
X60575847Y-49548769D01*
X60575847Y-49548769D02*
X60709776Y-49477341D01*
X60709776Y-49477341D02*
X60995490Y-49477341D01*
X60995490Y-49477341D02*
X61147276Y-49548769D01*
X61147276Y-49548769D02*
X61227633Y-49620198D01*
X61227633Y-49620198D02*
X61316919Y-49763055D01*
X58772276Y-49977341D02*
X58057991Y-49977341D01*
X58968705Y-50405912D02*
X58281205Y-48905912D01*
X58281205Y-48905912D02*
X57968705Y-50405912D01*
X56611562Y-50405912D02*
X57022277Y-49691626D01*
X57468705Y-50405912D02*
X57281205Y-48905912D01*
X57281205Y-48905912D02*
X56709777Y-48905912D01*
X56709777Y-48905912D02*
X56575848Y-48977341D01*
X56575848Y-48977341D02*
X56513348Y-49048769D01*
X56513348Y-49048769D02*
X56459777Y-49191626D01*
X56459777Y-49191626D02*
X56486562Y-49405912D01*
X56486562Y-49405912D02*
X56575848Y-49548769D01*
X56575848Y-49548769D02*
X56656205Y-49620198D01*
X56656205Y-49620198D02*
X56807991Y-49691626D01*
X56807991Y-49691626D02*
X57379420Y-49691626D01*
X55968705Y-50405912D02*
X55781205Y-48905912D01*
X55111562Y-50405912D02*
X55647277Y-49548769D01*
X54924062Y-48905912D02*
X55888348Y-49763055D01*
X54486562Y-49977341D02*
X53772277Y-49977341D01*
X54682991Y-50405912D02*
X53995491Y-48905912D01*
X53995491Y-48905912D02*
X53682991Y-50405912D01*
X53182991Y-50405912D02*
X52995491Y-48905912D01*
X52995491Y-48905912D02*
X52638348Y-48905912D01*
X52638348Y-48905912D02*
X52432991Y-48977341D01*
X52432991Y-48977341D02*
X52307991Y-49120198D01*
X52307991Y-49120198D02*
X52254420Y-49263055D01*
X52254420Y-49263055D02*
X52218706Y-49548769D01*
X52218706Y-49548769D02*
X52245491Y-49763055D01*
X52245491Y-49763055D02*
X52352634Y-50048769D01*
X52352634Y-50048769D02*
X52441920Y-50191626D01*
X52441920Y-50191626D02*
X52602634Y-50334484D01*
X52602634Y-50334484D02*
X52825848Y-50405912D01*
X52825848Y-50405912D02*
X53182991Y-50405912D01*
X51682991Y-50405912D02*
X51495491Y-48905912D01*
X50986562Y-49977341D02*
X50272277Y-49977341D01*
X51182991Y-50405912D02*
X50495491Y-48905912D01*
X50495491Y-48905912D02*
X50182991Y-50405912D01*
X48540134Y-50405912D02*
X48352634Y-48905912D01*
X48441920Y-49620198D02*
X47584777Y-49620198D01*
X47682991Y-50405912D02*
X47495491Y-48905912D01*
X46495491Y-48905912D02*
X46209777Y-48905912D01*
X46209777Y-48905912D02*
X46075848Y-48977341D01*
X46075848Y-48977341D02*
X45950848Y-49120198D01*
X45950848Y-49120198D02*
X45915134Y-49405912D01*
X45915134Y-49405912D02*
X45977634Y-49905912D01*
X45977634Y-49905912D02*
X46084777Y-50191626D01*
X46084777Y-50191626D02*
X46245491Y-50334484D01*
X46245491Y-50334484D02*
X46397277Y-50405912D01*
X46397277Y-50405912D02*
X46682991Y-50405912D01*
X46682991Y-50405912D02*
X46816920Y-50334484D01*
X46816920Y-50334484D02*
X46941920Y-50191626D01*
X46941920Y-50191626D02*
X46977634Y-49905912D01*
X46977634Y-49905912D02*
X46915134Y-49405912D01*
X46915134Y-49405912D02*
X46807991Y-49120198D01*
X46807991Y-49120198D02*
X46647277Y-48977341D01*
X46647277Y-48977341D02*
X46495491Y-48905912D01*
X45209776Y-48905912D02*
X45361562Y-50120198D01*
X45361562Y-50120198D02*
X45307991Y-50263055D01*
X45307991Y-50263055D02*
X45245491Y-50334484D01*
X45245491Y-50334484D02*
X45111562Y-50405912D01*
X45111562Y-50405912D02*
X44825848Y-50405912D01*
X44825848Y-50405912D02*
X44674062Y-50334484D01*
X44674062Y-50334484D02*
X44593705Y-50263055D01*
X44593705Y-50263055D02*
X44504419Y-50120198D01*
X44504419Y-50120198D02*
X44352633Y-48905912D01*
X43888347Y-50334484D02*
X43682990Y-50405912D01*
X43682990Y-50405912D02*
X43325847Y-50405912D01*
X43325847Y-50405912D02*
X43174062Y-50334484D01*
X43174062Y-50334484D02*
X43093704Y-50263055D01*
X43093704Y-50263055D02*
X43004419Y-50120198D01*
X43004419Y-50120198D02*
X42986562Y-49977341D01*
X42986562Y-49977341D02*
X43040133Y-49834484D01*
X43040133Y-49834484D02*
X43102633Y-49763055D01*
X43102633Y-49763055D02*
X43236562Y-49691626D01*
X43236562Y-49691626D02*
X43513347Y-49620198D01*
X43513347Y-49620198D02*
X43647276Y-49548769D01*
X43647276Y-49548769D02*
X43709776Y-49477341D01*
X43709776Y-49477341D02*
X43763347Y-49334484D01*
X43763347Y-49334484D02*
X43745490Y-49191626D01*
X43745490Y-49191626D02*
X43656204Y-49048769D01*
X43656204Y-49048769D02*
X43575847Y-48977341D01*
X43575847Y-48977341D02*
X43424062Y-48905912D01*
X43424062Y-48905912D02*
X43066919Y-48905912D01*
X43066919Y-48905912D02*
X42861562Y-48977341D01*
X42299062Y-49620198D02*
X41799062Y-49620198D01*
X41682991Y-50405912D02*
X42397276Y-50405912D01*
X42397276Y-50405912D02*
X42209776Y-48905912D01*
X42209776Y-48905912D02*
X41495491Y-48905912D01*
X70254417Y-52820828D02*
X70066917Y-51320828D01*
X69397274Y-52820828D02*
X69932989Y-51963685D01*
X69209774Y-51320828D02*
X70174060Y-52177971D01*
X68174060Y-52749400D02*
X68325846Y-52820828D01*
X68325846Y-52820828D02*
X68611560Y-52820828D01*
X68611560Y-52820828D02*
X68745489Y-52749400D01*
X68745489Y-52749400D02*
X68799060Y-52606542D01*
X68799060Y-52606542D02*
X68727632Y-52035114D01*
X68727632Y-52035114D02*
X68638346Y-51892257D01*
X68638346Y-51892257D02*
X68486560Y-51820828D01*
X68486560Y-51820828D02*
X68200846Y-51820828D01*
X68200846Y-51820828D02*
X68066917Y-51892257D01*
X68066917Y-51892257D02*
X68013346Y-52035114D01*
X68013346Y-52035114D02*
X68031203Y-52177971D01*
X68031203Y-52177971D02*
X68763346Y-52320828D01*
X67486560Y-51820828D02*
X67254418Y-52820828D01*
X66772275Y-51820828D02*
X67254418Y-52820828D01*
X67254418Y-52820828D02*
X67441918Y-53177971D01*
X67441918Y-53177971D02*
X67522275Y-53249400D01*
X67522275Y-53249400D02*
X67674060Y-53320828D01*
X66200846Y-51820828D02*
X66388346Y-53320828D01*
X66209775Y-51892257D02*
X66057989Y-51820828D01*
X66057989Y-51820828D02*
X65772275Y-51820828D01*
X65772275Y-51820828D02*
X65638346Y-51892257D01*
X65638346Y-51892257D02*
X65575846Y-51963685D01*
X65575846Y-51963685D02*
X65522275Y-52106542D01*
X65522275Y-52106542D02*
X65575846Y-52535114D01*
X65575846Y-52535114D02*
X65665132Y-52677971D01*
X65665132Y-52677971D02*
X65745489Y-52749400D01*
X65745489Y-52749400D02*
X65897275Y-52820828D01*
X65897275Y-52820828D02*
X66182989Y-52820828D01*
X66182989Y-52820828D02*
X66316918Y-52749400D01*
X64325846Y-52820828D02*
X64227632Y-52035114D01*
X64227632Y-52035114D02*
X64281203Y-51892257D01*
X64281203Y-51892257D02*
X64415132Y-51820828D01*
X64415132Y-51820828D02*
X64700846Y-51820828D01*
X64700846Y-51820828D02*
X64852632Y-51892257D01*
X64316918Y-52749400D02*
X64468703Y-52820828D01*
X64468703Y-52820828D02*
X64825846Y-52820828D01*
X64825846Y-52820828D02*
X64959775Y-52749400D01*
X64959775Y-52749400D02*
X65013346Y-52606542D01*
X65013346Y-52606542D02*
X64995489Y-52463685D01*
X64995489Y-52463685D02*
X64906203Y-52320828D01*
X64906203Y-52320828D02*
X64754418Y-52249400D01*
X64754418Y-52249400D02*
X64397275Y-52249400D01*
X64397275Y-52249400D02*
X64245489Y-52177971D01*
X62968703Y-52820828D02*
X62781203Y-51320828D01*
X62959775Y-52749400D02*
X63111560Y-52820828D01*
X63111560Y-52820828D02*
X63397275Y-52820828D01*
X63397275Y-52820828D02*
X63531203Y-52749400D01*
X63531203Y-52749400D02*
X63593703Y-52677971D01*
X63593703Y-52677971D02*
X63647275Y-52535114D01*
X63647275Y-52535114D02*
X63593703Y-52106542D01*
X63593703Y-52106542D02*
X63504417Y-51963685D01*
X63504417Y-51963685D02*
X63424060Y-51892257D01*
X63424060Y-51892257D02*
X63272275Y-51820828D01*
X63272275Y-51820828D02*
X62986560Y-51820828D01*
X62986560Y-51820828D02*
X62852632Y-51892257D01*
X61111560Y-52820828D02*
X60924060Y-51320828D01*
X60924060Y-51320828D02*
X60566917Y-51320828D01*
X60566917Y-51320828D02*
X60361560Y-51392257D01*
X60361560Y-51392257D02*
X60236560Y-51535114D01*
X60236560Y-51535114D02*
X60182989Y-51677971D01*
X60182989Y-51677971D02*
X60147275Y-51963685D01*
X60147275Y-51963685D02*
X60174060Y-52177971D01*
X60174060Y-52177971D02*
X60281203Y-52463685D01*
X60281203Y-52463685D02*
X60370489Y-52606542D01*
X60370489Y-52606542D02*
X60531203Y-52749400D01*
X60531203Y-52749400D02*
X60754417Y-52820828D01*
X60754417Y-52820828D02*
X61111560Y-52820828D01*
X59611560Y-52820828D02*
X59486560Y-51820828D01*
X59424060Y-51320828D02*
X59504417Y-51392257D01*
X59504417Y-51392257D02*
X59441917Y-51463685D01*
X59441917Y-51463685D02*
X59361560Y-51392257D01*
X59361560Y-51392257D02*
X59424060Y-51320828D01*
X59424060Y-51320828D02*
X59441917Y-51463685D01*
X58959774Y-52749400D02*
X58825846Y-52820828D01*
X58825846Y-52820828D02*
X58540131Y-52820828D01*
X58540131Y-52820828D02*
X58388346Y-52749400D01*
X58388346Y-52749400D02*
X58299060Y-52606542D01*
X58299060Y-52606542D02*
X58290131Y-52535114D01*
X58290131Y-52535114D02*
X58343703Y-52392257D01*
X58343703Y-52392257D02*
X58477631Y-52320828D01*
X58477631Y-52320828D02*
X58691917Y-52320828D01*
X58691917Y-52320828D02*
X58825846Y-52249400D01*
X58825846Y-52249400D02*
X58879417Y-52106542D01*
X58879417Y-52106542D02*
X58870489Y-52035114D01*
X58870489Y-52035114D02*
X58781203Y-51892257D01*
X58781203Y-51892257D02*
X58629417Y-51820828D01*
X58629417Y-51820828D02*
X58415131Y-51820828D01*
X58415131Y-51820828D02*
X58281203Y-51892257D01*
X57557988Y-51820828D02*
X57745488Y-53320828D01*
X57566917Y-51892257D02*
X57415131Y-51820828D01*
X57415131Y-51820828D02*
X57129417Y-51820828D01*
X57129417Y-51820828D02*
X56995488Y-51892257D01*
X56995488Y-51892257D02*
X56932988Y-51963685D01*
X56932988Y-51963685D02*
X56879417Y-52106542D01*
X56879417Y-52106542D02*
X56932988Y-52535114D01*
X56932988Y-52535114D02*
X57022274Y-52677971D01*
X57022274Y-52677971D02*
X57102631Y-52749400D01*
X57102631Y-52749400D02*
X57254417Y-52820828D01*
X57254417Y-52820828D02*
X57540131Y-52820828D01*
X57540131Y-52820828D02*
X57674060Y-52749400D01*
X56111560Y-52820828D02*
X56245488Y-52749400D01*
X56245488Y-52749400D02*
X56299060Y-52606542D01*
X56299060Y-52606542D02*
X56138345Y-51320828D01*
X54897274Y-52820828D02*
X54799060Y-52035114D01*
X54799060Y-52035114D02*
X54852631Y-51892257D01*
X54852631Y-51892257D02*
X54986560Y-51820828D01*
X54986560Y-51820828D02*
X55272274Y-51820828D01*
X55272274Y-51820828D02*
X55424060Y-51892257D01*
X54888346Y-52749400D02*
X55040131Y-52820828D01*
X55040131Y-52820828D02*
X55397274Y-52820828D01*
X55397274Y-52820828D02*
X55531203Y-52749400D01*
X55531203Y-52749400D02*
X55584774Y-52606542D01*
X55584774Y-52606542D02*
X55566917Y-52463685D01*
X55566917Y-52463685D02*
X55477631Y-52320828D01*
X55477631Y-52320828D02*
X55325846Y-52249400D01*
X55325846Y-52249400D02*
X54968703Y-52249400D01*
X54968703Y-52249400D02*
X54816917Y-52177971D01*
X54200845Y-51820828D02*
X53968703Y-52820828D01*
X53486560Y-51820828D02*
X53968703Y-52820828D01*
X53968703Y-52820828D02*
X54156203Y-53177971D01*
X54156203Y-53177971D02*
X54236560Y-53249400D01*
X54236560Y-53249400D02*
X54388345Y-53320828D01*
X51897274Y-52820828D02*
X51772274Y-51820828D01*
X51807989Y-52106542D02*
X51718703Y-51963685D01*
X51718703Y-51963685D02*
X51638346Y-51892257D01*
X51638346Y-51892257D02*
X51486560Y-51820828D01*
X51486560Y-51820828D02*
X51343703Y-51820828D01*
X50388346Y-52749400D02*
X50540132Y-52820828D01*
X50540132Y-52820828D02*
X50825846Y-52820828D01*
X50825846Y-52820828D02*
X50959775Y-52749400D01*
X50959775Y-52749400D02*
X51013346Y-52606542D01*
X51013346Y-52606542D02*
X50941918Y-52035114D01*
X50941918Y-52035114D02*
X50852632Y-51892257D01*
X50852632Y-51892257D02*
X50700846Y-51820828D01*
X50700846Y-51820828D02*
X50415132Y-51820828D01*
X50415132Y-51820828D02*
X50281203Y-51892257D01*
X50281203Y-51892257D02*
X50227632Y-52035114D01*
X50227632Y-52035114D02*
X50245489Y-52177971D01*
X50245489Y-52177971D02*
X50977632Y-52320828D01*
X49700846Y-51820828D02*
X49468704Y-52820828D01*
X49468704Y-52820828D02*
X48986561Y-51820828D01*
X46924061Y-51320828D02*
X46781204Y-51320828D01*
X46781204Y-51320828D02*
X46647275Y-51392257D01*
X46647275Y-51392257D02*
X46584775Y-51463685D01*
X46584775Y-51463685D02*
X46531204Y-51606542D01*
X46531204Y-51606542D02*
X46495490Y-51892257D01*
X46495490Y-51892257D02*
X46540132Y-52249400D01*
X46540132Y-52249400D02*
X46647275Y-52535114D01*
X46647275Y-52535114D02*
X46736561Y-52677971D01*
X46736561Y-52677971D02*
X46816918Y-52749400D01*
X46816918Y-52749400D02*
X46968704Y-52820828D01*
X46968704Y-52820828D02*
X47111561Y-52820828D01*
X47111561Y-52820828D02*
X47245490Y-52749400D01*
X47245490Y-52749400D02*
X47307990Y-52677971D01*
X47307990Y-52677971D02*
X47361561Y-52535114D01*
X47361561Y-52535114D02*
X47397275Y-52249400D01*
X47397275Y-52249400D02*
X47352632Y-51892257D01*
X47352632Y-51892257D02*
X47245490Y-51606542D01*
X47245490Y-51606542D02*
X47156204Y-51463685D01*
X47156204Y-51463685D02*
X47075847Y-51392257D01*
X47075847Y-51392257D02*
X46924061Y-51320828D01*
X45182990Y-52820828D02*
X46040133Y-52820828D01*
X45611561Y-52820828D02*
X45424061Y-51320828D01*
X45424061Y-51320828D02*
X45593704Y-51535114D01*
X45593704Y-51535114D02*
X45754419Y-51677971D01*
X45754419Y-51677971D02*
X45906204Y-51749400D01*
X44522276Y-52677971D02*
X44459776Y-52749400D01*
X44459776Y-52749400D02*
X44540133Y-52820828D01*
X44540133Y-52820828D02*
X44602633Y-52749400D01*
X44602633Y-52749400D02*
X44522276Y-52677971D01*
X44522276Y-52677971D02*
X44540133Y-52820828D01*
X42924062Y-51320828D02*
X43638347Y-51320828D01*
X43638347Y-51320828D02*
X43799062Y-52035114D01*
X43799062Y-52035114D02*
X43718704Y-51963685D01*
X43718704Y-51963685D02*
X43566919Y-51892257D01*
X43566919Y-51892257D02*
X43209776Y-51892257D01*
X43209776Y-51892257D02*
X43075847Y-51963685D01*
X43075847Y-51963685D02*
X43013347Y-52035114D01*
X43013347Y-52035114D02*
X42959776Y-52177971D01*
X42959776Y-52177971D02*
X43004419Y-52535114D01*
X43004419Y-52535114D02*
X43093704Y-52677971D01*
X43093704Y-52677971D02*
X43174062Y-52749400D01*
X43174062Y-52749400D02*
X43325847Y-52820828D01*
X43325847Y-52820828D02*
X43682990Y-52820828D01*
X43682990Y-52820828D02*
X43816919Y-52749400D01*
X43816919Y-52749400D02*
X43879419Y-52677971D01*
X42379419Y-52677971D02*
X42316919Y-52749400D01*
X42316919Y-52749400D02*
X42397276Y-52820828D01*
X42397276Y-52820828D02*
X42459776Y-52749400D01*
X42459776Y-52749400D02*
X42379419Y-52677971D01*
X42379419Y-52677971D02*
X42397276Y-52820828D01*
X40897276Y-52820828D02*
X41754419Y-52820828D01*
X41325847Y-52820828D02*
X41138347Y-51320828D01*
X41138347Y-51320828D02*
X41307990Y-51535114D01*
X41307990Y-51535114D02*
X41468705Y-51677971D01*
X41468705Y-51677971D02*
X41620490Y-51749400D01*
D13*
X55195339Y-100136389D02*
X55120577Y-99993532D01*
X55120577Y-99993532D02*
X55120577Y-99755437D01*
X55120577Y-99755437D02*
X55195339Y-99660199D01*
X55195339Y-99660199D02*
X55270100Y-99612580D01*
X55270100Y-99612580D02*
X55419624Y-99564961D01*
X55419624Y-99564961D02*
X55569148Y-99564961D01*
X55569148Y-99564961D02*
X55718672Y-99612580D01*
X55718672Y-99612580D02*
X55793434Y-99660199D01*
X55793434Y-99660199D02*
X55868196Y-99755437D01*
X55868196Y-99755437D02*
X55942958Y-99945913D01*
X55942958Y-99945913D02*
X56017719Y-100041151D01*
X56017719Y-100041151D02*
X56092481Y-100088770D01*
X56092481Y-100088770D02*
X56242005Y-100136389D01*
X56242005Y-100136389D02*
X56391529Y-100136389D01*
X56391529Y-100136389D02*
X56541053Y-100088770D01*
X56541053Y-100088770D02*
X56615815Y-100041151D01*
X56615815Y-100041151D02*
X56690577Y-99945913D01*
X56690577Y-99945913D02*
X56690577Y-99707818D01*
X56690577Y-99707818D02*
X56615815Y-99564961D01*
X55270100Y-98564961D02*
X55195339Y-98612580D01*
X55195339Y-98612580D02*
X55120577Y-98755437D01*
X55120577Y-98755437D02*
X55120577Y-98850675D01*
X55120577Y-98850675D02*
X55195339Y-98993532D01*
X55195339Y-98993532D02*
X55344862Y-99088770D01*
X55344862Y-99088770D02*
X55494386Y-99136389D01*
X55494386Y-99136389D02*
X55793434Y-99184008D01*
X55793434Y-99184008D02*
X56017719Y-99184008D01*
X56017719Y-99184008D02*
X56316767Y-99136389D01*
X56316767Y-99136389D02*
X56466291Y-99088770D01*
X56466291Y-99088770D02*
X56615815Y-98993532D01*
X56615815Y-98993532D02*
X56690577Y-98850675D01*
X56690577Y-98850675D02*
X56690577Y-98755437D01*
X56690577Y-98755437D02*
X56615815Y-98612580D01*
X56615815Y-98612580D02*
X56541053Y-98564961D01*
X55120577Y-97660199D02*
X55120577Y-98136389D01*
X55120577Y-98136389D02*
X56690577Y-98136389D01*
X52667727Y-100136389D02*
X52592965Y-99993532D01*
X52592965Y-99993532D02*
X52592965Y-99755437D01*
X52592965Y-99755437D02*
X52667727Y-99660199D01*
X52667727Y-99660199D02*
X52742488Y-99612580D01*
X52742488Y-99612580D02*
X52892012Y-99564961D01*
X52892012Y-99564961D02*
X53041536Y-99564961D01*
X53041536Y-99564961D02*
X53191060Y-99612580D01*
X53191060Y-99612580D02*
X53265822Y-99660199D01*
X53265822Y-99660199D02*
X53340584Y-99755437D01*
X53340584Y-99755437D02*
X53415346Y-99945913D01*
X53415346Y-99945913D02*
X53490107Y-100041151D01*
X53490107Y-100041151D02*
X53564869Y-100088770D01*
X53564869Y-100088770D02*
X53714393Y-100136389D01*
X53714393Y-100136389D02*
X53863917Y-100136389D01*
X53863917Y-100136389D02*
X54013441Y-100088770D01*
X54013441Y-100088770D02*
X54088203Y-100041151D01*
X54088203Y-100041151D02*
X54162965Y-99945913D01*
X54162965Y-99945913D02*
X54162965Y-99707818D01*
X54162965Y-99707818D02*
X54088203Y-99564961D01*
X52592965Y-99136389D02*
X54162965Y-99136389D01*
X54162965Y-99136389D02*
X54162965Y-98898294D01*
X54162965Y-98898294D02*
X54088203Y-98755437D01*
X54088203Y-98755437D02*
X53938679Y-98660199D01*
X53938679Y-98660199D02*
X53789155Y-98612580D01*
X53789155Y-98612580D02*
X53490107Y-98564961D01*
X53490107Y-98564961D02*
X53265822Y-98564961D01*
X53265822Y-98564961D02*
X52966774Y-98612580D01*
X52966774Y-98612580D02*
X52817250Y-98660199D01*
X52817250Y-98660199D02*
X52667727Y-98755437D01*
X52667727Y-98755437D02*
X52592965Y-98898294D01*
X52592965Y-98898294D02*
X52592965Y-99136389D01*
X53041536Y-98184008D02*
X53041536Y-97707818D01*
X52592965Y-98279246D02*
X54162965Y-97945913D01*
X54162965Y-97945913D02*
X52592965Y-97612580D01*
X51635353Y-100184008D02*
X51635353Y-99564961D01*
X51635353Y-99564961D02*
X51037257Y-99898294D01*
X51037257Y-99898294D02*
X51037257Y-99755437D01*
X51037257Y-99755437D02*
X50962495Y-99660199D01*
X50962495Y-99660199D02*
X50887734Y-99612580D01*
X50887734Y-99612580D02*
X50738210Y-99564961D01*
X50738210Y-99564961D02*
X50364400Y-99564961D01*
X50364400Y-99564961D02*
X50214876Y-99612580D01*
X50214876Y-99612580D02*
X50140115Y-99660199D01*
X50140115Y-99660199D02*
X50065353Y-99755437D01*
X50065353Y-99755437D02*
X50065353Y-100041151D01*
X50065353Y-100041151D02*
X50140115Y-100136389D01*
X50140115Y-100136389D02*
X50214876Y-100184008D01*
X51635353Y-99279246D02*
X50065353Y-98945913D01*
X50065353Y-98945913D02*
X51635353Y-98612580D01*
X51635353Y-98374484D02*
X51635353Y-97755437D01*
X51635353Y-97755437D02*
X51037257Y-98088770D01*
X51037257Y-98088770D02*
X51037257Y-97945913D01*
X51037257Y-97945913D02*
X50962495Y-97850675D01*
X50962495Y-97850675D02*
X50887734Y-97803056D01*
X50887734Y-97803056D02*
X50738210Y-97755437D01*
X50738210Y-97755437D02*
X50364400Y-97755437D01*
X50364400Y-97755437D02*
X50214876Y-97803056D01*
X50214876Y-97803056D02*
X50140115Y-97850675D01*
X50140115Y-97850675D02*
X50065353Y-97945913D01*
X50065353Y-97945913D02*
X50065353Y-98231627D01*
X50065353Y-98231627D02*
X50140115Y-98326865D01*
X50140115Y-98326865D02*
X50214876Y-98374484D01*
X49032979Y-99564961D02*
X49107741Y-99660199D01*
X49107741Y-99660199D02*
X49107741Y-99803056D01*
X49107741Y-99803056D02*
X49032979Y-99945913D01*
X49032979Y-99945913D02*
X48883455Y-100041151D01*
X48883455Y-100041151D02*
X48733931Y-100088770D01*
X48733931Y-100088770D02*
X48434883Y-100136389D01*
X48434883Y-100136389D02*
X48210598Y-100136389D01*
X48210598Y-100136389D02*
X47911550Y-100088770D01*
X47911550Y-100088770D02*
X47762026Y-100041151D01*
X47762026Y-100041151D02*
X47612503Y-99945913D01*
X47612503Y-99945913D02*
X47537741Y-99803056D01*
X47537741Y-99803056D02*
X47537741Y-99707818D01*
X47537741Y-99707818D02*
X47612503Y-99564961D01*
X47612503Y-99564961D02*
X47687264Y-99517342D01*
X47687264Y-99517342D02*
X48210598Y-99517342D01*
X48210598Y-99517342D02*
X48210598Y-99707818D01*
X47537741Y-99088770D02*
X49107741Y-99088770D01*
X49107741Y-99088770D02*
X47537741Y-98517342D01*
X47537741Y-98517342D02*
X49107741Y-98517342D01*
X47537741Y-98041151D02*
X49107741Y-98041151D01*
X49107741Y-98041151D02*
X49107741Y-97803056D01*
X49107741Y-97803056D02*
X49032979Y-97660199D01*
X49032979Y-97660199D02*
X48883455Y-97564961D01*
X48883455Y-97564961D02*
X48733931Y-97517342D01*
X48733931Y-97517342D02*
X48434883Y-97469723D01*
X48434883Y-97469723D02*
X48210598Y-97469723D01*
X48210598Y-97469723D02*
X47911550Y-97517342D01*
X47911550Y-97517342D02*
X47762026Y-97564961D01*
X47762026Y-97564961D02*
X47612503Y-97660199D01*
X47612503Y-97660199D02*
X47537741Y-97803056D01*
X47537741Y-97803056D02*
X47537741Y-98041151D01*
D14*
X103437716Y-49286678D02*
X102866287Y-49286678D01*
X103348430Y-50286678D02*
X103187716Y-49000964D01*
X103187716Y-49000964D02*
X103098430Y-48858107D01*
X103098430Y-48858107D02*
X102946645Y-48786678D01*
X102946645Y-48786678D02*
X102803787Y-48786678D01*
X102277002Y-50286678D02*
X102410930Y-50215250D01*
X102410930Y-50215250D02*
X102473430Y-50143821D01*
X102473430Y-50143821D02*
X102527002Y-50000964D01*
X102527002Y-50000964D02*
X102473430Y-49572392D01*
X102473430Y-49572392D02*
X102384144Y-49429535D01*
X102384144Y-49429535D02*
X102303787Y-49358107D01*
X102303787Y-49358107D02*
X102152002Y-49286678D01*
X102152002Y-49286678D02*
X101937716Y-49286678D01*
X101937716Y-49286678D02*
X101803787Y-49358107D01*
X101803787Y-49358107D02*
X101741287Y-49429535D01*
X101741287Y-49429535D02*
X101687716Y-49572392D01*
X101687716Y-49572392D02*
X101741287Y-50000964D01*
X101741287Y-50000964D02*
X101830573Y-50143821D01*
X101830573Y-50143821D02*
X101910930Y-50215250D01*
X101910930Y-50215250D02*
X102062716Y-50286678D01*
X102062716Y-50286678D02*
X102277002Y-50286678D01*
X101134144Y-50286678D02*
X101009144Y-49286678D01*
X101044859Y-49572392D02*
X100955573Y-49429535D01*
X100955573Y-49429535D02*
X100875216Y-49358107D01*
X100875216Y-49358107D02*
X100723430Y-49286678D01*
X100723430Y-49286678D02*
X100580573Y-49286678D01*
X98348431Y-50286678D02*
X99062716Y-50286678D01*
X99062716Y-50286678D02*
X98875216Y-48786678D01*
X97848430Y-50286678D02*
X97723430Y-49286678D01*
X97660930Y-48786678D02*
X97741287Y-48858107D01*
X97741287Y-48858107D02*
X97678787Y-48929535D01*
X97678787Y-48929535D02*
X97598430Y-48858107D01*
X97598430Y-48858107D02*
X97660930Y-48786678D01*
X97660930Y-48786678D02*
X97678787Y-48929535D01*
X97009144Y-49286678D02*
X97134144Y-50286678D01*
X97027001Y-49429535D02*
X96946644Y-49358107D01*
X96946644Y-49358107D02*
X96794859Y-49286678D01*
X96794859Y-49286678D02*
X96580573Y-49286678D01*
X96580573Y-49286678D02*
X96446644Y-49358107D01*
X96446644Y-49358107D02*
X96393073Y-49500964D01*
X96393073Y-49500964D02*
X96491287Y-50286678D01*
X95134144Y-50286678D02*
X94946644Y-48786678D01*
X95125216Y-50215250D02*
X95277001Y-50286678D01*
X95277001Y-50286678D02*
X95562716Y-50286678D01*
X95562716Y-50286678D02*
X95696644Y-50215250D01*
X95696644Y-50215250D02*
X95759144Y-50143821D01*
X95759144Y-50143821D02*
X95812716Y-50000964D01*
X95812716Y-50000964D02*
X95759144Y-49572392D01*
X95759144Y-49572392D02*
X95669858Y-49429535D01*
X95669858Y-49429535D02*
X95589501Y-49358107D01*
X95589501Y-49358107D02*
X95437716Y-49286678D01*
X95437716Y-49286678D02*
X95152001Y-49286678D01*
X95152001Y-49286678D02*
X95018073Y-49358107D01*
X93777001Y-50286678D02*
X93678787Y-49500964D01*
X93678787Y-49500964D02*
X93732358Y-49358107D01*
X93732358Y-49358107D02*
X93866287Y-49286678D01*
X93866287Y-49286678D02*
X94152001Y-49286678D01*
X94152001Y-49286678D02*
X94303787Y-49358107D01*
X93768073Y-50215250D02*
X93919858Y-50286678D01*
X93919858Y-50286678D02*
X94277001Y-50286678D01*
X94277001Y-50286678D02*
X94410930Y-50215250D01*
X94410930Y-50215250D02*
X94464501Y-50072392D01*
X94464501Y-50072392D02*
X94446644Y-49929535D01*
X94446644Y-49929535D02*
X94357358Y-49786678D01*
X94357358Y-49786678D02*
X94205573Y-49715250D01*
X94205573Y-49715250D02*
X93848430Y-49715250D01*
X93848430Y-49715250D02*
X93696644Y-49643821D01*
D13*
X96730944Y-88757474D02*
X98300944Y-89090807D01*
X98300944Y-89090807D02*
X96730944Y-89424140D01*
X96656183Y-90471759D02*
X98674754Y-89614617D01*
X96805706Y-91328902D02*
X96730944Y-91233664D01*
X96730944Y-91233664D02*
X96730944Y-91090807D01*
X96730944Y-91090807D02*
X96805706Y-90947950D01*
X96805706Y-90947950D02*
X96955230Y-90852712D01*
X96955230Y-90852712D02*
X97104754Y-90805093D01*
X97104754Y-90805093D02*
X97403802Y-90757474D01*
X97403802Y-90757474D02*
X97628087Y-90757474D01*
X97628087Y-90757474D02*
X97927135Y-90805093D01*
X97927135Y-90805093D02*
X98076659Y-90852712D01*
X98076659Y-90852712D02*
X98226183Y-90947950D01*
X98226183Y-90947950D02*
X98300944Y-91090807D01*
X98300944Y-91090807D02*
X98300944Y-91186045D01*
X98300944Y-91186045D02*
X98226183Y-91328902D01*
X98226183Y-91328902D02*
X98151421Y-91376521D01*
X98151421Y-91376521D02*
X97628087Y-91376521D01*
X97628087Y-91376521D02*
X97628087Y-91186045D01*
X98300944Y-91805093D02*
X96730944Y-91805093D01*
X96730944Y-91805093D02*
X98300944Y-92376521D01*
X98300944Y-92376521D02*
X96730944Y-92376521D01*
X98300944Y-92852712D02*
X96730944Y-92852712D01*
X96730944Y-92852712D02*
X96730944Y-93090807D01*
X96730944Y-93090807D02*
X96805706Y-93233664D01*
X96805706Y-93233664D02*
X96955230Y-93328902D01*
X96955230Y-93328902D02*
X97104754Y-93376521D01*
X97104754Y-93376521D02*
X97403802Y-93424140D01*
X97403802Y-93424140D02*
X97628087Y-93424140D01*
X97628087Y-93424140D02*
X97927135Y-93376521D01*
X97927135Y-93376521D02*
X98076659Y-93328902D01*
X98076659Y-93328902D02*
X98226183Y-93233664D01*
X98226183Y-93233664D02*
X98300944Y-93090807D01*
X98300944Y-93090807D02*
X98300944Y-92852712D01*
X100828556Y-88900331D02*
X99258556Y-88900331D01*
X99258556Y-89233664D02*
X99258556Y-89805092D01*
X100828556Y-89519378D02*
X99258556Y-89519378D01*
X100006175Y-90471759D02*
X100080937Y-90614616D01*
X100080937Y-90614616D02*
X100155699Y-90662235D01*
X100155699Y-90662235D02*
X100305223Y-90709854D01*
X100305223Y-90709854D02*
X100529509Y-90709854D01*
X100529509Y-90709854D02*
X100679033Y-90662235D01*
X100679033Y-90662235D02*
X100753795Y-90614616D01*
X100753795Y-90614616D02*
X100828556Y-90519378D01*
X100828556Y-90519378D02*
X100828556Y-90138426D01*
X100828556Y-90138426D02*
X99258556Y-90138426D01*
X99258556Y-90138426D02*
X99258556Y-90471759D01*
X99258556Y-90471759D02*
X99333318Y-90566997D01*
X99333318Y-90566997D02*
X99408080Y-90614616D01*
X99408080Y-90614616D02*
X99557604Y-90662235D01*
X99557604Y-90662235D02*
X99707128Y-90662235D01*
X99707128Y-90662235D02*
X99856652Y-90614616D01*
X99856652Y-90614616D02*
X99931414Y-90566997D01*
X99931414Y-90566997D02*
X100006175Y-90471759D01*
X100006175Y-90471759D02*
X100006175Y-90138426D01*
X99183795Y-91852711D02*
X101202366Y-90995569D01*
X100828556Y-92186045D02*
X99258556Y-92186045D01*
X99258556Y-92519378D02*
X99258556Y-93090806D01*
X100828556Y-92805092D02*
X99258556Y-92805092D01*
X100379985Y-93376521D02*
X100379985Y-93852711D01*
X100828556Y-93281283D02*
X99258556Y-93614616D01*
X99258556Y-93614616D02*
X100828556Y-93947949D01*
X102533787Y-89233664D02*
X102608549Y-89376521D01*
X102608549Y-89376521D02*
X102683311Y-89424140D01*
X102683311Y-89424140D02*
X102832835Y-89471759D01*
X102832835Y-89471759D02*
X103057121Y-89471759D01*
X103057121Y-89471759D02*
X103206645Y-89424140D01*
X103206645Y-89424140D02*
X103281407Y-89376521D01*
X103281407Y-89376521D02*
X103356168Y-89281283D01*
X103356168Y-89281283D02*
X103356168Y-88900331D01*
X103356168Y-88900331D02*
X101786168Y-88900331D01*
X101786168Y-88900331D02*
X101786168Y-89233664D01*
X101786168Y-89233664D02*
X101860930Y-89328902D01*
X101860930Y-89328902D02*
X101935692Y-89376521D01*
X101935692Y-89376521D02*
X102085216Y-89424140D01*
X102085216Y-89424140D02*
X102234740Y-89424140D01*
X102234740Y-89424140D02*
X102384264Y-89376521D01*
X102384264Y-89376521D02*
X102459026Y-89328902D01*
X102459026Y-89328902D02*
X102533787Y-89233664D01*
X102533787Y-89233664D02*
X102533787Y-88900331D01*
X101786168Y-90090807D02*
X101786168Y-90186045D01*
X101786168Y-90186045D02*
X101860930Y-90281283D01*
X101860930Y-90281283D02*
X101935692Y-90328902D01*
X101935692Y-90328902D02*
X102085216Y-90376521D01*
X102085216Y-90376521D02*
X102384264Y-90424140D01*
X102384264Y-90424140D02*
X102758073Y-90424140D01*
X102758073Y-90424140D02*
X103057121Y-90376521D01*
X103057121Y-90376521D02*
X103206645Y-90328902D01*
X103206645Y-90328902D02*
X103281407Y-90281283D01*
X103281407Y-90281283D02*
X103356168Y-90186045D01*
X103356168Y-90186045D02*
X103356168Y-90090807D01*
X103356168Y-90090807D02*
X103281407Y-89995569D01*
X103281407Y-89995569D02*
X103206645Y-89947950D01*
X103206645Y-89947950D02*
X103057121Y-89900331D01*
X103057121Y-89900331D02*
X102758073Y-89852712D01*
X102758073Y-89852712D02*
X102384264Y-89852712D01*
X102384264Y-89852712D02*
X102085216Y-89900331D01*
X102085216Y-89900331D02*
X101935692Y-89947950D01*
X101935692Y-89947950D02*
X101860930Y-89995569D01*
X101860930Y-89995569D02*
X101786168Y-90090807D01*
X101711407Y-91566997D02*
X103729978Y-90709855D01*
X102907597Y-91852712D02*
X102907597Y-92328902D01*
X103356168Y-91757474D02*
X101786168Y-92090807D01*
X101786168Y-92090807D02*
X103356168Y-92424140D01*
X101786168Y-92947950D02*
X101786168Y-93043188D01*
X101786168Y-93043188D02*
X101860930Y-93138426D01*
X101860930Y-93138426D02*
X101935692Y-93186045D01*
X101935692Y-93186045D02*
X102085216Y-93233664D01*
X102085216Y-93233664D02*
X102384264Y-93281283D01*
X102384264Y-93281283D02*
X102758073Y-93281283D01*
X102758073Y-93281283D02*
X103057121Y-93233664D01*
X103057121Y-93233664D02*
X103206645Y-93186045D01*
X103206645Y-93186045D02*
X103281407Y-93138426D01*
X103281407Y-93138426D02*
X103356168Y-93043188D01*
X103356168Y-93043188D02*
X103356168Y-92947950D01*
X103356168Y-92947950D02*
X103281407Y-92852712D01*
X103281407Y-92852712D02*
X103206645Y-92805093D01*
X103206645Y-92805093D02*
X103057121Y-92757474D01*
X103057121Y-92757474D02*
X102758073Y-92709855D01*
X102758073Y-92709855D02*
X102384264Y-92709855D01*
X102384264Y-92709855D02*
X102085216Y-92757474D01*
X102085216Y-92757474D02*
X101935692Y-92805093D01*
X101935692Y-92805093D02*
X101860930Y-92852712D01*
X101860930Y-92852712D02*
X101786168Y-92947950D01*
X105061399Y-89233664D02*
X105136161Y-89376521D01*
X105136161Y-89376521D02*
X105210923Y-89424140D01*
X105210923Y-89424140D02*
X105360447Y-89471759D01*
X105360447Y-89471759D02*
X105584733Y-89471759D01*
X105584733Y-89471759D02*
X105734257Y-89424140D01*
X105734257Y-89424140D02*
X105809019Y-89376521D01*
X105809019Y-89376521D02*
X105883780Y-89281283D01*
X105883780Y-89281283D02*
X105883780Y-88900331D01*
X105883780Y-88900331D02*
X104313780Y-88900331D01*
X104313780Y-88900331D02*
X104313780Y-89233664D01*
X104313780Y-89233664D02*
X104388542Y-89328902D01*
X104388542Y-89328902D02*
X104463304Y-89376521D01*
X104463304Y-89376521D02*
X104612828Y-89424140D01*
X104612828Y-89424140D02*
X104762352Y-89424140D01*
X104762352Y-89424140D02*
X104911876Y-89376521D01*
X104911876Y-89376521D02*
X104986638Y-89328902D01*
X104986638Y-89328902D02*
X105061399Y-89233664D01*
X105061399Y-89233664D02*
X105061399Y-88900331D01*
X105883780Y-90424140D02*
X105883780Y-89852712D01*
X105883780Y-90138426D02*
X104313780Y-90138426D01*
X104313780Y-90138426D02*
X104538066Y-90043188D01*
X104538066Y-90043188D02*
X104687590Y-89947950D01*
X104687590Y-89947950D02*
X104762352Y-89852712D01*
X104239019Y-91566997D02*
X106257590Y-90709855D01*
X105435209Y-91852712D02*
X105435209Y-92328902D01*
X105883780Y-91757474D02*
X104313780Y-92090807D01*
X104313780Y-92090807D02*
X105883780Y-92424140D01*
X105883780Y-93281283D02*
X105883780Y-92709855D01*
X105883780Y-92995569D02*
X104313780Y-92995569D01*
X104313780Y-92995569D02*
X104538066Y-92900331D01*
X104538066Y-92900331D02*
X104687590Y-92805093D01*
X104687590Y-92805093D02*
X104762352Y-92709855D01*
X107589011Y-89233664D02*
X107663773Y-89376521D01*
X107663773Y-89376521D02*
X107738535Y-89424140D01*
X107738535Y-89424140D02*
X107888059Y-89471759D01*
X107888059Y-89471759D02*
X108112345Y-89471759D01*
X108112345Y-89471759D02*
X108261869Y-89424140D01*
X108261869Y-89424140D02*
X108336631Y-89376521D01*
X108336631Y-89376521D02*
X108411392Y-89281283D01*
X108411392Y-89281283D02*
X108411392Y-88900331D01*
X108411392Y-88900331D02*
X106841392Y-88900331D01*
X106841392Y-88900331D02*
X106841392Y-89233664D01*
X106841392Y-89233664D02*
X106916154Y-89328902D01*
X106916154Y-89328902D02*
X106990916Y-89376521D01*
X106990916Y-89376521D02*
X107140440Y-89424140D01*
X107140440Y-89424140D02*
X107289964Y-89424140D01*
X107289964Y-89424140D02*
X107439488Y-89376521D01*
X107439488Y-89376521D02*
X107514250Y-89328902D01*
X107514250Y-89328902D02*
X107589011Y-89233664D01*
X107589011Y-89233664D02*
X107589011Y-88900331D01*
X106990916Y-89852712D02*
X106916154Y-89900331D01*
X106916154Y-89900331D02*
X106841392Y-89995569D01*
X106841392Y-89995569D02*
X106841392Y-90233664D01*
X106841392Y-90233664D02*
X106916154Y-90328902D01*
X106916154Y-90328902D02*
X106990916Y-90376521D01*
X106990916Y-90376521D02*
X107140440Y-90424140D01*
X107140440Y-90424140D02*
X107289964Y-90424140D01*
X107289964Y-90424140D02*
X107514250Y-90376521D01*
X107514250Y-90376521D02*
X108411392Y-89805093D01*
X108411392Y-89805093D02*
X108411392Y-90424140D01*
X106766631Y-91566997D02*
X108785202Y-90709855D01*
X107962821Y-91852712D02*
X107962821Y-92328902D01*
X108411392Y-91757474D02*
X106841392Y-92090807D01*
X106841392Y-92090807D02*
X108411392Y-92424140D01*
X106990916Y-92709855D02*
X106916154Y-92757474D01*
X106916154Y-92757474D02*
X106841392Y-92852712D01*
X106841392Y-92852712D02*
X106841392Y-93090807D01*
X106841392Y-93090807D02*
X106916154Y-93186045D01*
X106916154Y-93186045D02*
X106990916Y-93233664D01*
X106990916Y-93233664D02*
X107140440Y-93281283D01*
X107140440Y-93281283D02*
X107289964Y-93281283D01*
X107289964Y-93281283D02*
X107514250Y-93233664D01*
X107514250Y-93233664D02*
X108411392Y-92662236D01*
X108411392Y-92662236D02*
X108411392Y-93281283D01*
X110116623Y-89233664D02*
X110191385Y-89376521D01*
X110191385Y-89376521D02*
X110266147Y-89424140D01*
X110266147Y-89424140D02*
X110415671Y-89471759D01*
X110415671Y-89471759D02*
X110639957Y-89471759D01*
X110639957Y-89471759D02*
X110789481Y-89424140D01*
X110789481Y-89424140D02*
X110864243Y-89376521D01*
X110864243Y-89376521D02*
X110939004Y-89281283D01*
X110939004Y-89281283D02*
X110939004Y-88900331D01*
X110939004Y-88900331D02*
X109369004Y-88900331D01*
X109369004Y-88900331D02*
X109369004Y-89233664D01*
X109369004Y-89233664D02*
X109443766Y-89328902D01*
X109443766Y-89328902D02*
X109518528Y-89376521D01*
X109518528Y-89376521D02*
X109668052Y-89424140D01*
X109668052Y-89424140D02*
X109817576Y-89424140D01*
X109817576Y-89424140D02*
X109967100Y-89376521D01*
X109967100Y-89376521D02*
X110041862Y-89328902D01*
X110041862Y-89328902D02*
X110116623Y-89233664D01*
X110116623Y-89233664D02*
X110116623Y-88900331D01*
X109369004Y-89805093D02*
X109369004Y-90424140D01*
X109369004Y-90424140D02*
X109967100Y-90090807D01*
X109967100Y-90090807D02*
X109967100Y-90233664D01*
X109967100Y-90233664D02*
X110041862Y-90328902D01*
X110041862Y-90328902D02*
X110116623Y-90376521D01*
X110116623Y-90376521D02*
X110266147Y-90424140D01*
X110266147Y-90424140D02*
X110639957Y-90424140D01*
X110639957Y-90424140D02*
X110789481Y-90376521D01*
X110789481Y-90376521D02*
X110864243Y-90328902D01*
X110864243Y-90328902D02*
X110939004Y-90233664D01*
X110939004Y-90233664D02*
X110939004Y-89947950D01*
X110939004Y-89947950D02*
X110864243Y-89852712D01*
X110864243Y-89852712D02*
X110789481Y-89805093D01*
X109294243Y-91566997D02*
X111312814Y-90709855D01*
X110490433Y-91852712D02*
X110490433Y-92328902D01*
X110939004Y-91757474D02*
X109369004Y-92090807D01*
X109369004Y-92090807D02*
X110939004Y-92424140D01*
X109369004Y-92662236D02*
X109369004Y-93281283D01*
X109369004Y-93281283D02*
X109967100Y-92947950D01*
X109967100Y-92947950D02*
X109967100Y-93090807D01*
X109967100Y-93090807D02*
X110041862Y-93186045D01*
X110041862Y-93186045D02*
X110116623Y-93233664D01*
X110116623Y-93233664D02*
X110266147Y-93281283D01*
X110266147Y-93281283D02*
X110639957Y-93281283D01*
X110639957Y-93281283D02*
X110789481Y-93233664D01*
X110789481Y-93233664D02*
X110864243Y-93186045D01*
X110864243Y-93186045D02*
X110939004Y-93090807D01*
X110939004Y-93090807D02*
X110939004Y-92805093D01*
X110939004Y-92805093D02*
X110864243Y-92709855D01*
X110864243Y-92709855D02*
X110789481Y-92662236D01*
X112644235Y-89233664D02*
X112718997Y-89376521D01*
X112718997Y-89376521D02*
X112793759Y-89424140D01*
X112793759Y-89424140D02*
X112943283Y-89471759D01*
X112943283Y-89471759D02*
X113167569Y-89471759D01*
X113167569Y-89471759D02*
X113317093Y-89424140D01*
X113317093Y-89424140D02*
X113391855Y-89376521D01*
X113391855Y-89376521D02*
X113466616Y-89281283D01*
X113466616Y-89281283D02*
X113466616Y-88900331D01*
X113466616Y-88900331D02*
X111896616Y-88900331D01*
X111896616Y-88900331D02*
X111896616Y-89233664D01*
X111896616Y-89233664D02*
X111971378Y-89328902D01*
X111971378Y-89328902D02*
X112046140Y-89376521D01*
X112046140Y-89376521D02*
X112195664Y-89424140D01*
X112195664Y-89424140D02*
X112345188Y-89424140D01*
X112345188Y-89424140D02*
X112494712Y-89376521D01*
X112494712Y-89376521D02*
X112569474Y-89328902D01*
X112569474Y-89328902D02*
X112644235Y-89233664D01*
X112644235Y-89233664D02*
X112644235Y-88900331D01*
X112419950Y-90328902D02*
X113466616Y-90328902D01*
X111821855Y-90090807D02*
X112943283Y-89852712D01*
X112943283Y-89852712D02*
X112943283Y-90471759D01*
X111821855Y-91566997D02*
X113840426Y-90709855D01*
X113018045Y-91852712D02*
X113018045Y-92328902D01*
X113466616Y-91757474D02*
X111896616Y-92090807D01*
X111896616Y-92090807D02*
X113466616Y-92424140D01*
X112419950Y-93186045D02*
X113466616Y-93186045D01*
X111821855Y-92947950D02*
X112943283Y-92709855D01*
X112943283Y-92709855D02*
X112943283Y-93328902D01*
X115171847Y-89233664D02*
X115246609Y-89376521D01*
X115246609Y-89376521D02*
X115321371Y-89424140D01*
X115321371Y-89424140D02*
X115470895Y-89471759D01*
X115470895Y-89471759D02*
X115695181Y-89471759D01*
X115695181Y-89471759D02*
X115844705Y-89424140D01*
X115844705Y-89424140D02*
X115919467Y-89376521D01*
X115919467Y-89376521D02*
X115994228Y-89281283D01*
X115994228Y-89281283D02*
X115994228Y-88900331D01*
X115994228Y-88900331D02*
X114424228Y-88900331D01*
X114424228Y-88900331D02*
X114424228Y-89233664D01*
X114424228Y-89233664D02*
X114498990Y-89328902D01*
X114498990Y-89328902D02*
X114573752Y-89376521D01*
X114573752Y-89376521D02*
X114723276Y-89424140D01*
X114723276Y-89424140D02*
X114872800Y-89424140D01*
X114872800Y-89424140D02*
X115022324Y-89376521D01*
X115022324Y-89376521D02*
X115097086Y-89328902D01*
X115097086Y-89328902D02*
X115171847Y-89233664D01*
X115171847Y-89233664D02*
X115171847Y-88900331D01*
X114424228Y-90376521D02*
X114424228Y-89900331D01*
X114424228Y-89900331D02*
X115171847Y-89852712D01*
X115171847Y-89852712D02*
X115097086Y-89900331D01*
X115097086Y-89900331D02*
X115022324Y-89995569D01*
X115022324Y-89995569D02*
X115022324Y-90233664D01*
X115022324Y-90233664D02*
X115097086Y-90328902D01*
X115097086Y-90328902D02*
X115171847Y-90376521D01*
X115171847Y-90376521D02*
X115321371Y-90424140D01*
X115321371Y-90424140D02*
X115695181Y-90424140D01*
X115695181Y-90424140D02*
X115844705Y-90376521D01*
X115844705Y-90376521D02*
X115919467Y-90328902D01*
X115919467Y-90328902D02*
X115994228Y-90233664D01*
X115994228Y-90233664D02*
X115994228Y-89995569D01*
X115994228Y-89995569D02*
X115919467Y-89900331D01*
X115919467Y-89900331D02*
X115844705Y-89852712D01*
X114349467Y-91566997D02*
X116368038Y-90709855D01*
X115545657Y-91852712D02*
X115545657Y-92328902D01*
X115994228Y-91757474D02*
X114424228Y-92090807D01*
X114424228Y-92090807D02*
X115994228Y-92424140D01*
X114424228Y-93233664D02*
X114424228Y-92757474D01*
X114424228Y-92757474D02*
X115171847Y-92709855D01*
X115171847Y-92709855D02*
X115097086Y-92757474D01*
X115097086Y-92757474D02*
X115022324Y-92852712D01*
X115022324Y-92852712D02*
X115022324Y-93090807D01*
X115022324Y-93090807D02*
X115097086Y-93186045D01*
X115097086Y-93186045D02*
X115171847Y-93233664D01*
X115171847Y-93233664D02*
X115321371Y-93281283D01*
X115321371Y-93281283D02*
X115695181Y-93281283D01*
X115695181Y-93281283D02*
X115844705Y-93233664D01*
X115844705Y-93233664D02*
X115919467Y-93186045D01*
X115919467Y-93186045D02*
X115994228Y-93090807D01*
X115994228Y-93090807D02*
X115994228Y-92852712D01*
X115994228Y-92852712D02*
X115919467Y-92757474D01*
X115919467Y-92757474D02*
X115844705Y-92709855D01*
X117699459Y-89233664D02*
X117774221Y-89376521D01*
X117774221Y-89376521D02*
X117848983Y-89424140D01*
X117848983Y-89424140D02*
X117998507Y-89471759D01*
X117998507Y-89471759D02*
X118222793Y-89471759D01*
X118222793Y-89471759D02*
X118372317Y-89424140D01*
X118372317Y-89424140D02*
X118447079Y-89376521D01*
X118447079Y-89376521D02*
X118521840Y-89281283D01*
X118521840Y-89281283D02*
X118521840Y-88900331D01*
X118521840Y-88900331D02*
X116951840Y-88900331D01*
X116951840Y-88900331D02*
X116951840Y-89233664D01*
X116951840Y-89233664D02*
X117026602Y-89328902D01*
X117026602Y-89328902D02*
X117101364Y-89376521D01*
X117101364Y-89376521D02*
X117250888Y-89424140D01*
X117250888Y-89424140D02*
X117400412Y-89424140D01*
X117400412Y-89424140D02*
X117549936Y-89376521D01*
X117549936Y-89376521D02*
X117624698Y-89328902D01*
X117624698Y-89328902D02*
X117699459Y-89233664D01*
X117699459Y-89233664D02*
X117699459Y-88900331D01*
X116951840Y-90328902D02*
X116951840Y-90138426D01*
X116951840Y-90138426D02*
X117026602Y-90043188D01*
X117026602Y-90043188D02*
X117101364Y-89995569D01*
X117101364Y-89995569D02*
X117325650Y-89900331D01*
X117325650Y-89900331D02*
X117624698Y-89852712D01*
X117624698Y-89852712D02*
X118222793Y-89852712D01*
X118222793Y-89852712D02*
X118372317Y-89900331D01*
X118372317Y-89900331D02*
X118447079Y-89947950D01*
X118447079Y-89947950D02*
X118521840Y-90043188D01*
X118521840Y-90043188D02*
X118521840Y-90233664D01*
X118521840Y-90233664D02*
X118447079Y-90328902D01*
X118447079Y-90328902D02*
X118372317Y-90376521D01*
X118372317Y-90376521D02*
X118222793Y-90424140D01*
X118222793Y-90424140D02*
X117848983Y-90424140D01*
X117848983Y-90424140D02*
X117699459Y-90376521D01*
X117699459Y-90376521D02*
X117624698Y-90328902D01*
X117624698Y-90328902D02*
X117549936Y-90233664D01*
X117549936Y-90233664D02*
X117549936Y-90043188D01*
X117549936Y-90043188D02*
X117624698Y-89947950D01*
X117624698Y-89947950D02*
X117699459Y-89900331D01*
X117699459Y-89900331D02*
X117848983Y-89852712D01*
X116877079Y-91566997D02*
X118895650Y-90709855D01*
X118073269Y-91852712D02*
X118073269Y-92328902D01*
X118521840Y-91757474D02*
X116951840Y-92090807D01*
X116951840Y-92090807D02*
X118521840Y-92424140D01*
X116951840Y-93186045D02*
X116951840Y-92995569D01*
X116951840Y-92995569D02*
X117026602Y-92900331D01*
X117026602Y-92900331D02*
X117101364Y-92852712D01*
X117101364Y-92852712D02*
X117325650Y-92757474D01*
X117325650Y-92757474D02*
X117624698Y-92709855D01*
X117624698Y-92709855D02*
X118222793Y-92709855D01*
X118222793Y-92709855D02*
X118372317Y-92757474D01*
X118372317Y-92757474D02*
X118447079Y-92805093D01*
X118447079Y-92805093D02*
X118521840Y-92900331D01*
X118521840Y-92900331D02*
X118521840Y-93090807D01*
X118521840Y-93090807D02*
X118447079Y-93186045D01*
X118447079Y-93186045D02*
X118372317Y-93233664D01*
X118372317Y-93233664D02*
X118222793Y-93281283D01*
X118222793Y-93281283D02*
X117848983Y-93281283D01*
X117848983Y-93281283D02*
X117699459Y-93233664D01*
X117699459Y-93233664D02*
X117624698Y-93186045D01*
X117624698Y-93186045D02*
X117549936Y-93090807D01*
X117549936Y-93090807D02*
X117549936Y-92900331D01*
X117549936Y-92900331D02*
X117624698Y-92805093D01*
X117624698Y-92805093D02*
X117699459Y-92757474D01*
X117699459Y-92757474D02*
X117848983Y-92709855D01*
X120227071Y-89233664D02*
X120301833Y-89376521D01*
X120301833Y-89376521D02*
X120376595Y-89424140D01*
X120376595Y-89424140D02*
X120526119Y-89471759D01*
X120526119Y-89471759D02*
X120750405Y-89471759D01*
X120750405Y-89471759D02*
X120899929Y-89424140D01*
X120899929Y-89424140D02*
X120974691Y-89376521D01*
X120974691Y-89376521D02*
X121049452Y-89281283D01*
X121049452Y-89281283D02*
X121049452Y-88900331D01*
X121049452Y-88900331D02*
X119479452Y-88900331D01*
X119479452Y-88900331D02*
X119479452Y-89233664D01*
X119479452Y-89233664D02*
X119554214Y-89328902D01*
X119554214Y-89328902D02*
X119628976Y-89376521D01*
X119628976Y-89376521D02*
X119778500Y-89424140D01*
X119778500Y-89424140D02*
X119928024Y-89424140D01*
X119928024Y-89424140D02*
X120077548Y-89376521D01*
X120077548Y-89376521D02*
X120152310Y-89328902D01*
X120152310Y-89328902D02*
X120227071Y-89233664D01*
X120227071Y-89233664D02*
X120227071Y-88900331D01*
X119479452Y-89805093D02*
X119479452Y-90471759D01*
X119479452Y-90471759D02*
X121049452Y-90043188D01*
X119404691Y-91566997D02*
X121423262Y-90709855D01*
X120600881Y-91852712D02*
X120600881Y-92328902D01*
X121049452Y-91757474D02*
X119479452Y-92090807D01*
X119479452Y-92090807D02*
X121049452Y-92424140D01*
X119479452Y-92662236D02*
X119479452Y-93328902D01*
X119479452Y-93328902D02*
X121049452Y-92900331D01*
X98074801Y-75262959D02*
X98074801Y-75739149D01*
X98523372Y-75167721D02*
X96953372Y-75501054D01*
X96953372Y-75501054D02*
X98523372Y-75834387D01*
X97102896Y-76120102D02*
X97028134Y-76167721D01*
X97028134Y-76167721D02*
X96953372Y-76262959D01*
X96953372Y-76262959D02*
X96953372Y-76501054D01*
X96953372Y-76501054D02*
X97028134Y-76596292D01*
X97028134Y-76596292D02*
X97102896Y-76643911D01*
X97102896Y-76643911D02*
X97252420Y-76691530D01*
X97252420Y-76691530D02*
X97401944Y-76691530D01*
X97401944Y-76691530D02*
X97626230Y-76643911D01*
X97626230Y-76643911D02*
X98523372Y-76072483D01*
X98523372Y-76072483D02*
X98523372Y-76691530D01*
X100602413Y-75262959D02*
X100602413Y-75739149D01*
X101050984Y-75167721D02*
X99480984Y-75501054D01*
X99480984Y-75501054D02*
X101050984Y-75834387D01*
X101050984Y-76691530D02*
X101050984Y-76120102D01*
X101050984Y-76405816D02*
X99480984Y-76405816D01*
X99480984Y-76405816D02*
X99705270Y-76310578D01*
X99705270Y-76310578D02*
X99854794Y-76215340D01*
X99854794Y-76215340D02*
X99929556Y-76120102D01*
X103130025Y-75262959D02*
X103130025Y-75739149D01*
X103578596Y-75167721D02*
X102008596Y-75501054D01*
X102008596Y-75501054D02*
X103578596Y-75834387D01*
X102008596Y-76358197D02*
X102008596Y-76453435D01*
X102008596Y-76453435D02*
X102083358Y-76548673D01*
X102083358Y-76548673D02*
X102158120Y-76596292D01*
X102158120Y-76596292D02*
X102307644Y-76643911D01*
X102307644Y-76643911D02*
X102606692Y-76691530D01*
X102606692Y-76691530D02*
X102980501Y-76691530D01*
X102980501Y-76691530D02*
X103279549Y-76643911D01*
X103279549Y-76643911D02*
X103429073Y-76596292D01*
X103429073Y-76596292D02*
X103503835Y-76548673D01*
X103503835Y-76548673D02*
X103578596Y-76453435D01*
X103578596Y-76453435D02*
X103578596Y-76358197D01*
X103578596Y-76358197D02*
X103503835Y-76262959D01*
X103503835Y-76262959D02*
X103429073Y-76215340D01*
X103429073Y-76215340D02*
X103279549Y-76167721D01*
X103279549Y-76167721D02*
X102980501Y-76120102D01*
X102980501Y-76120102D02*
X102606692Y-76120102D01*
X102606692Y-76120102D02*
X102307644Y-76167721D01*
X102307644Y-76167721D02*
X102158120Y-76215340D01*
X102158120Y-76215340D02*
X102083358Y-76262959D01*
X102083358Y-76262959D02*
X102008596Y-76358197D01*
X106106208Y-75882006D02*
X105358589Y-75548673D01*
X106106208Y-75310578D02*
X104536208Y-75310578D01*
X104536208Y-75310578D02*
X104536208Y-75691530D01*
X104536208Y-75691530D02*
X104610970Y-75786768D01*
X104610970Y-75786768D02*
X104685732Y-75834387D01*
X104685732Y-75834387D02*
X104835256Y-75882006D01*
X104835256Y-75882006D02*
X105059542Y-75882006D01*
X105059542Y-75882006D02*
X105209066Y-75834387D01*
X105209066Y-75834387D02*
X105283827Y-75786768D01*
X105283827Y-75786768D02*
X105358589Y-75691530D01*
X105358589Y-75691530D02*
X105358589Y-75310578D01*
X106031447Y-76262959D02*
X106106208Y-76405816D01*
X106106208Y-76405816D02*
X106106208Y-76643911D01*
X106106208Y-76643911D02*
X106031447Y-76739149D01*
X106031447Y-76739149D02*
X105956685Y-76786768D01*
X105956685Y-76786768D02*
X105807161Y-76834387D01*
X105807161Y-76834387D02*
X105657637Y-76834387D01*
X105657637Y-76834387D02*
X105508113Y-76786768D01*
X105508113Y-76786768D02*
X105433351Y-76739149D01*
X105433351Y-76739149D02*
X105358589Y-76643911D01*
X105358589Y-76643911D02*
X105283827Y-76453435D01*
X105283827Y-76453435D02*
X105209066Y-76358197D01*
X105209066Y-76358197D02*
X105134304Y-76310578D01*
X105134304Y-76310578D02*
X104984780Y-76262959D01*
X104984780Y-76262959D02*
X104835256Y-76262959D01*
X104835256Y-76262959D02*
X104685732Y-76310578D01*
X104685732Y-76310578D02*
X104610970Y-76358197D01*
X104610970Y-76358197D02*
X104536208Y-76453435D01*
X104536208Y-76453435D02*
X104536208Y-76691530D01*
X104536208Y-76691530D02*
X104610970Y-76834387D01*
X104536208Y-77120102D02*
X104536208Y-77691530D01*
X106106208Y-77405816D02*
X104536208Y-77405816D01*
X108633820Y-75310578D02*
X107063820Y-75310578D01*
X107063820Y-75310578D02*
X108633820Y-75882006D01*
X108633820Y-75882006D02*
X107063820Y-75882006D01*
X108484297Y-76929625D02*
X108559059Y-76882006D01*
X108559059Y-76882006D02*
X108633820Y-76739149D01*
X108633820Y-76739149D02*
X108633820Y-76643911D01*
X108633820Y-76643911D02*
X108559059Y-76501054D01*
X108559059Y-76501054D02*
X108409535Y-76405816D01*
X108409535Y-76405816D02*
X108260011Y-76358197D01*
X108260011Y-76358197D02*
X107960963Y-76310578D01*
X107960963Y-76310578D02*
X107736678Y-76310578D01*
X107736678Y-76310578D02*
X107437630Y-76358197D01*
X107437630Y-76358197D02*
X107288106Y-76405816D01*
X107288106Y-76405816D02*
X107138582Y-76501054D01*
X107138582Y-76501054D02*
X107063820Y-76643911D01*
X107063820Y-76643911D02*
X107063820Y-76739149D01*
X107063820Y-76739149D02*
X107138582Y-76882006D01*
X107138582Y-76882006D02*
X107213344Y-76929625D01*
X111161432Y-75310578D02*
X109591432Y-75310578D01*
X109591432Y-75310578D02*
X111161432Y-75882006D01*
X111161432Y-75882006D02*
X109591432Y-75882006D01*
X111011909Y-76929625D02*
X111086671Y-76882006D01*
X111086671Y-76882006D02*
X111161432Y-76739149D01*
X111161432Y-76739149D02*
X111161432Y-76643911D01*
X111161432Y-76643911D02*
X111086671Y-76501054D01*
X111086671Y-76501054D02*
X110937147Y-76405816D01*
X110937147Y-76405816D02*
X110787623Y-76358197D01*
X110787623Y-76358197D02*
X110488575Y-76310578D01*
X110488575Y-76310578D02*
X110264290Y-76310578D01*
X110264290Y-76310578D02*
X109965242Y-76358197D01*
X109965242Y-76358197D02*
X109815718Y-76405816D01*
X109815718Y-76405816D02*
X109666194Y-76501054D01*
X109666194Y-76501054D02*
X109591432Y-76643911D01*
X109591432Y-76643911D02*
X109591432Y-76739149D01*
X109591432Y-76739149D02*
X109666194Y-76882006D01*
X109666194Y-76882006D02*
X109740956Y-76929625D01*
X113614283Y-75262959D02*
X113689044Y-75405816D01*
X113689044Y-75405816D02*
X113689044Y-75643911D01*
X113689044Y-75643911D02*
X113614283Y-75739149D01*
X113614283Y-75739149D02*
X113539521Y-75786768D01*
X113539521Y-75786768D02*
X113389997Y-75834387D01*
X113389997Y-75834387D02*
X113240473Y-75834387D01*
X113240473Y-75834387D02*
X113090949Y-75786768D01*
X113090949Y-75786768D02*
X113016187Y-75739149D01*
X113016187Y-75739149D02*
X112941425Y-75643911D01*
X112941425Y-75643911D02*
X112866663Y-75453435D01*
X112866663Y-75453435D02*
X112791902Y-75358197D01*
X112791902Y-75358197D02*
X112717140Y-75310578D01*
X112717140Y-75310578D02*
X112567616Y-75262959D01*
X112567616Y-75262959D02*
X112418092Y-75262959D01*
X112418092Y-75262959D02*
X112268568Y-75310578D01*
X112268568Y-75310578D02*
X112193806Y-75358197D01*
X112193806Y-75358197D02*
X112119044Y-75453435D01*
X112119044Y-75453435D02*
X112119044Y-75691530D01*
X112119044Y-75691530D02*
X112193806Y-75834387D01*
X113689044Y-76262959D02*
X112119044Y-76262959D01*
X112119044Y-76262959D02*
X112119044Y-76501054D01*
X112119044Y-76501054D02*
X112193806Y-76643911D01*
X112193806Y-76643911D02*
X112343330Y-76739149D01*
X112343330Y-76739149D02*
X112492854Y-76786768D01*
X112492854Y-76786768D02*
X112791902Y-76834387D01*
X112791902Y-76834387D02*
X113016187Y-76834387D01*
X113016187Y-76834387D02*
X113315235Y-76786768D01*
X113315235Y-76786768D02*
X113464759Y-76739149D01*
X113464759Y-76739149D02*
X113614283Y-76643911D01*
X113614283Y-76643911D02*
X113689044Y-76501054D01*
X113689044Y-76501054D02*
X113689044Y-76262959D01*
X113240473Y-77215340D02*
X113240473Y-77691530D01*
X113689044Y-77120102D02*
X112119044Y-77453435D01*
X112119044Y-77453435D02*
X113689044Y-77786768D01*
X116141895Y-75262959D02*
X116216656Y-75405816D01*
X116216656Y-75405816D02*
X116216656Y-75643911D01*
X116216656Y-75643911D02*
X116141895Y-75739149D01*
X116141895Y-75739149D02*
X116067133Y-75786768D01*
X116067133Y-75786768D02*
X115917609Y-75834387D01*
X115917609Y-75834387D02*
X115768085Y-75834387D01*
X115768085Y-75834387D02*
X115618561Y-75786768D01*
X115618561Y-75786768D02*
X115543799Y-75739149D01*
X115543799Y-75739149D02*
X115469037Y-75643911D01*
X115469037Y-75643911D02*
X115394275Y-75453435D01*
X115394275Y-75453435D02*
X115319514Y-75358197D01*
X115319514Y-75358197D02*
X115244752Y-75310578D01*
X115244752Y-75310578D02*
X115095228Y-75262959D01*
X115095228Y-75262959D02*
X114945704Y-75262959D01*
X114945704Y-75262959D02*
X114796180Y-75310578D01*
X114796180Y-75310578D02*
X114721418Y-75358197D01*
X114721418Y-75358197D02*
X114646656Y-75453435D01*
X114646656Y-75453435D02*
X114646656Y-75691530D01*
X114646656Y-75691530D02*
X114721418Y-75834387D01*
X116067133Y-76834387D02*
X116141895Y-76786768D01*
X116141895Y-76786768D02*
X116216656Y-76643911D01*
X116216656Y-76643911D02*
X116216656Y-76548673D01*
X116216656Y-76548673D02*
X116141895Y-76405816D01*
X116141895Y-76405816D02*
X115992371Y-76310578D01*
X115992371Y-76310578D02*
X115842847Y-76262959D01*
X115842847Y-76262959D02*
X115543799Y-76215340D01*
X115543799Y-76215340D02*
X115319514Y-76215340D01*
X115319514Y-76215340D02*
X115020466Y-76262959D01*
X115020466Y-76262959D02*
X114870942Y-76310578D01*
X114870942Y-76310578D02*
X114721418Y-76405816D01*
X114721418Y-76405816D02*
X114646656Y-76548673D01*
X114646656Y-76548673D02*
X114646656Y-76643911D01*
X114646656Y-76643911D02*
X114721418Y-76786768D01*
X114721418Y-76786768D02*
X114796180Y-76834387D01*
X116216656Y-77739149D02*
X116216656Y-77262959D01*
X116216656Y-77262959D02*
X114646656Y-77262959D01*
X117249030Y-75834387D02*
X117174268Y-75739149D01*
X117174268Y-75739149D02*
X117174268Y-75596292D01*
X117174268Y-75596292D02*
X117249030Y-75453435D01*
X117249030Y-75453435D02*
X117398554Y-75358197D01*
X117398554Y-75358197D02*
X117548078Y-75310578D01*
X117548078Y-75310578D02*
X117847126Y-75262959D01*
X117847126Y-75262959D02*
X118071411Y-75262959D01*
X118071411Y-75262959D02*
X118370459Y-75310578D01*
X118370459Y-75310578D02*
X118519983Y-75358197D01*
X118519983Y-75358197D02*
X118669507Y-75453435D01*
X118669507Y-75453435D02*
X118744268Y-75596292D01*
X118744268Y-75596292D02*
X118744268Y-75691530D01*
X118744268Y-75691530D02*
X118669507Y-75834387D01*
X118669507Y-75834387D02*
X118594745Y-75882006D01*
X118594745Y-75882006D02*
X118071411Y-75882006D01*
X118071411Y-75882006D02*
X118071411Y-75691530D01*
X118744268Y-76310578D02*
X117174268Y-76310578D01*
X117174268Y-76310578D02*
X118744268Y-76882006D01*
X118744268Y-76882006D02*
X117174268Y-76882006D01*
X118744268Y-77358197D02*
X117174268Y-77358197D01*
X117174268Y-77358197D02*
X117174268Y-77596292D01*
X117174268Y-77596292D02*
X117249030Y-77739149D01*
X117249030Y-77739149D02*
X117398554Y-77834387D01*
X117398554Y-77834387D02*
X117548078Y-77882006D01*
X117548078Y-77882006D02*
X117847126Y-77929625D01*
X117847126Y-77929625D02*
X118071411Y-77929625D01*
X118071411Y-77929625D02*
X118370459Y-77882006D01*
X118370459Y-77882006D02*
X118519983Y-77834387D01*
X118519983Y-77834387D02*
X118669507Y-77739149D01*
X118669507Y-77739149D02*
X118744268Y-77596292D01*
X118744268Y-77596292D02*
X118744268Y-77358197D01*
X119701880Y-75215340D02*
X119701880Y-75834387D01*
X119701880Y-75834387D02*
X120299976Y-75501054D01*
X120299976Y-75501054D02*
X120299976Y-75643911D01*
X120299976Y-75643911D02*
X120374738Y-75739149D01*
X120374738Y-75739149D02*
X120449499Y-75786768D01*
X120449499Y-75786768D02*
X120599023Y-75834387D01*
X120599023Y-75834387D02*
X120972833Y-75834387D01*
X120972833Y-75834387D02*
X121122357Y-75786768D01*
X121122357Y-75786768D02*
X121197119Y-75739149D01*
X121197119Y-75739149D02*
X121271880Y-75643911D01*
X121271880Y-75643911D02*
X121271880Y-75358197D01*
X121271880Y-75358197D02*
X121197119Y-75262959D01*
X121197119Y-75262959D02*
X121122357Y-75215340D01*
X119701880Y-76120102D02*
X121271880Y-76453435D01*
X121271880Y-76453435D02*
X119701880Y-76786768D01*
X119701880Y-77024864D02*
X119701880Y-77643911D01*
X119701880Y-77643911D02*
X120299976Y-77310578D01*
X120299976Y-77310578D02*
X120299976Y-77453435D01*
X120299976Y-77453435D02*
X120374738Y-77548673D01*
X120374738Y-77548673D02*
X120449499Y-77596292D01*
X120449499Y-77596292D02*
X120599023Y-77643911D01*
X120599023Y-77643911D02*
X120972833Y-77643911D01*
X120972833Y-77643911D02*
X121122357Y-77596292D01*
X121122357Y-77596292D02*
X121197119Y-77548673D01*
X121197119Y-77548673D02*
X121271880Y-77453435D01*
X121271880Y-77453435D02*
X121271880Y-77167721D01*
X121271880Y-77167721D02*
X121197119Y-77072483D01*
X121197119Y-77072483D02*
X121122357Y-77024864D01*
D14*
X107397869Y-81321450D02*
X106397869Y-81321450D01*
X106397869Y-81321450D02*
X107112154Y-81654783D01*
X107112154Y-81654783D02*
X106397869Y-81988116D01*
X106397869Y-81988116D02*
X107397869Y-81988116D01*
X107302630Y-83035735D02*
X107350250Y-82988116D01*
X107350250Y-82988116D02*
X107397869Y-82845259D01*
X107397869Y-82845259D02*
X107397869Y-82750021D01*
X107397869Y-82750021D02*
X107350250Y-82607164D01*
X107350250Y-82607164D02*
X107255011Y-82511926D01*
X107255011Y-82511926D02*
X107159773Y-82464307D01*
X107159773Y-82464307D02*
X106969297Y-82416688D01*
X106969297Y-82416688D02*
X106826440Y-82416688D01*
X106826440Y-82416688D02*
X106635964Y-82464307D01*
X106635964Y-82464307D02*
X106540726Y-82511926D01*
X106540726Y-82511926D02*
X106445488Y-82607164D01*
X106445488Y-82607164D02*
X106397869Y-82750021D01*
X106397869Y-82750021D02*
X106397869Y-82845259D01*
X106397869Y-82845259D02*
X106445488Y-82988116D01*
X106445488Y-82988116D02*
X106493107Y-83035735D01*
X107397869Y-83464307D02*
X106397869Y-83464307D01*
X106397869Y-83464307D02*
X106397869Y-83845259D01*
X106397869Y-83845259D02*
X106445488Y-83940497D01*
X106445488Y-83940497D02*
X106493107Y-83988116D01*
X106493107Y-83988116D02*
X106588345Y-84035735D01*
X106588345Y-84035735D02*
X106731202Y-84035735D01*
X106731202Y-84035735D02*
X106826440Y-83988116D01*
X106826440Y-83988116D02*
X106874059Y-83940497D01*
X106874059Y-83940497D02*
X106921678Y-83845259D01*
X106921678Y-83845259D02*
X106921678Y-83464307D01*
X106493107Y-84416688D02*
X106445488Y-84464307D01*
X106445488Y-84464307D02*
X106397869Y-84559545D01*
X106397869Y-84559545D02*
X106397869Y-84797640D01*
X106397869Y-84797640D02*
X106445488Y-84892878D01*
X106445488Y-84892878D02*
X106493107Y-84940497D01*
X106493107Y-84940497D02*
X106588345Y-84988116D01*
X106588345Y-84988116D02*
X106683583Y-84988116D01*
X106683583Y-84988116D02*
X106826440Y-84940497D01*
X106826440Y-84940497D02*
X107397869Y-84369069D01*
X107397869Y-84369069D02*
X107397869Y-84988116D01*
X106397869Y-85321450D02*
X106397869Y-85940497D01*
X106397869Y-85940497D02*
X106778821Y-85607164D01*
X106778821Y-85607164D02*
X106778821Y-85750021D01*
X106778821Y-85750021D02*
X106826440Y-85845259D01*
X106826440Y-85845259D02*
X106874059Y-85892878D01*
X106874059Y-85892878D02*
X106969297Y-85940497D01*
X106969297Y-85940497D02*
X107207392Y-85940497D01*
X107207392Y-85940497D02*
X107302630Y-85892878D01*
X107302630Y-85892878D02*
X107350250Y-85845259D01*
X107350250Y-85845259D02*
X107397869Y-85750021D01*
X107397869Y-85750021D02*
X107397869Y-85464307D01*
X107397869Y-85464307D02*
X107350250Y-85369069D01*
X107350250Y-85369069D02*
X107302630Y-85321450D01*
X106397869Y-86559545D02*
X106397869Y-86654783D01*
X106397869Y-86654783D02*
X106445488Y-86750021D01*
X106445488Y-86750021D02*
X106493107Y-86797640D01*
X106493107Y-86797640D02*
X106588345Y-86845259D01*
X106588345Y-86845259D02*
X106778821Y-86892878D01*
X106778821Y-86892878D02*
X107016916Y-86892878D01*
X107016916Y-86892878D02*
X107207392Y-86845259D01*
X107207392Y-86845259D02*
X107302630Y-86797640D01*
X107302630Y-86797640D02*
X107350250Y-86750021D01*
X107350250Y-86750021D02*
X107397869Y-86654783D01*
X107397869Y-86654783D02*
X107397869Y-86559545D01*
X107397869Y-86559545D02*
X107350250Y-86464307D01*
X107350250Y-86464307D02*
X107302630Y-86416688D01*
X107302630Y-86416688D02*
X107207392Y-86369069D01*
X107207392Y-86369069D02*
X107016916Y-86321450D01*
X107016916Y-86321450D02*
X106778821Y-86321450D01*
X106778821Y-86321450D02*
X106588345Y-86369069D01*
X106588345Y-86369069D02*
X106493107Y-86416688D01*
X106493107Y-86416688D02*
X106445488Y-86464307D01*
X106445488Y-86464307D02*
X106397869Y-86559545D01*
X107397869Y-87845259D02*
X107397869Y-87273831D01*
X107397869Y-87559545D02*
X106397869Y-87559545D01*
X106397869Y-87559545D02*
X106540726Y-87464307D01*
X106540726Y-87464307D02*
X106635964Y-87369069D01*
X106635964Y-87369069D02*
X106683583Y-87273831D01*
X106397869Y-88178593D02*
X106397869Y-88845259D01*
X106397869Y-88845259D02*
X107397869Y-88416688D01*
X109007813Y-81321450D02*
X108341146Y-81321450D01*
X108436384Y-81321450D02*
X108388765Y-81369069D01*
X108388765Y-81369069D02*
X108341146Y-81464307D01*
X108341146Y-81464307D02*
X108341146Y-81607164D01*
X108341146Y-81607164D02*
X108388765Y-81702402D01*
X108388765Y-81702402D02*
X108484003Y-81750021D01*
X108484003Y-81750021D02*
X109007813Y-81750021D01*
X108484003Y-81750021D02*
X108388765Y-81797640D01*
X108388765Y-81797640D02*
X108341146Y-81892878D01*
X108341146Y-81892878D02*
X108341146Y-82035735D01*
X108341146Y-82035735D02*
X108388765Y-82130974D01*
X108388765Y-82130974D02*
X108484003Y-82178593D01*
X108484003Y-82178593D02*
X109007813Y-82178593D01*
X109007813Y-82797640D02*
X108960194Y-82702402D01*
X108960194Y-82702402D02*
X108912574Y-82654783D01*
X108912574Y-82654783D02*
X108817336Y-82607164D01*
X108817336Y-82607164D02*
X108531622Y-82607164D01*
X108531622Y-82607164D02*
X108436384Y-82654783D01*
X108436384Y-82654783D02*
X108388765Y-82702402D01*
X108388765Y-82702402D02*
X108341146Y-82797640D01*
X108341146Y-82797640D02*
X108341146Y-82940497D01*
X108341146Y-82940497D02*
X108388765Y-83035735D01*
X108388765Y-83035735D02*
X108436384Y-83083354D01*
X108436384Y-83083354D02*
X108531622Y-83130973D01*
X108531622Y-83130973D02*
X108817336Y-83130973D01*
X108817336Y-83130973D02*
X108912574Y-83083354D01*
X108912574Y-83083354D02*
X108960194Y-83035735D01*
X108960194Y-83035735D02*
X109007813Y-82940497D01*
X109007813Y-82940497D02*
X109007813Y-82797640D01*
X109007813Y-83988116D02*
X108007813Y-83988116D01*
X108960194Y-83988116D02*
X109007813Y-83892878D01*
X109007813Y-83892878D02*
X109007813Y-83702402D01*
X109007813Y-83702402D02*
X108960194Y-83607164D01*
X108960194Y-83607164D02*
X108912574Y-83559545D01*
X108912574Y-83559545D02*
X108817336Y-83511926D01*
X108817336Y-83511926D02*
X108531622Y-83511926D01*
X108531622Y-83511926D02*
X108436384Y-83559545D01*
X108436384Y-83559545D02*
X108388765Y-83607164D01*
X108388765Y-83607164D02*
X108341146Y-83702402D01*
X108341146Y-83702402D02*
X108341146Y-83892878D01*
X108341146Y-83892878D02*
X108388765Y-83988116D01*
X108341146Y-84892878D02*
X109007813Y-84892878D01*
X108341146Y-84464307D02*
X108864955Y-84464307D01*
X108864955Y-84464307D02*
X108960194Y-84511926D01*
X108960194Y-84511926D02*
X109007813Y-84607164D01*
X109007813Y-84607164D02*
X109007813Y-84750021D01*
X109007813Y-84750021D02*
X108960194Y-84845259D01*
X108960194Y-84845259D02*
X108912574Y-84892878D01*
X109007813Y-85511926D02*
X108960194Y-85416688D01*
X108960194Y-85416688D02*
X108864955Y-85369069D01*
X108864955Y-85369069D02*
X108007813Y-85369069D01*
X108960194Y-86273831D02*
X109007813Y-86178593D01*
X109007813Y-86178593D02*
X109007813Y-85988117D01*
X109007813Y-85988117D02*
X108960194Y-85892879D01*
X108960194Y-85892879D02*
X108864955Y-85845260D01*
X108864955Y-85845260D02*
X108484003Y-85845260D01*
X108484003Y-85845260D02*
X108388765Y-85892879D01*
X108388765Y-85892879D02*
X108341146Y-85988117D01*
X108341146Y-85988117D02*
X108341146Y-86178593D01*
X108341146Y-86178593D02*
X108388765Y-86273831D01*
X108388765Y-86273831D02*
X108484003Y-86321450D01*
X108484003Y-86321450D02*
X108579241Y-86321450D01*
X108579241Y-86321450D02*
X108674479Y-85845260D01*
X109951090Y-81178593D02*
X109951090Y-81559545D01*
X109617757Y-81321450D02*
X110474899Y-81321450D01*
X110474899Y-81321450D02*
X110570138Y-81369069D01*
X110570138Y-81369069D02*
X110617757Y-81464307D01*
X110617757Y-81464307D02*
X110617757Y-81559545D01*
X110617757Y-82035736D02*
X110570138Y-81940498D01*
X110570138Y-81940498D02*
X110522518Y-81892879D01*
X110522518Y-81892879D02*
X110427280Y-81845260D01*
X110427280Y-81845260D02*
X110141566Y-81845260D01*
X110141566Y-81845260D02*
X110046328Y-81892879D01*
X110046328Y-81892879D02*
X109998709Y-81940498D01*
X109998709Y-81940498D02*
X109951090Y-82035736D01*
X109951090Y-82035736D02*
X109951090Y-82178593D01*
X109951090Y-82178593D02*
X109998709Y-82273831D01*
X109998709Y-82273831D02*
X110046328Y-82321450D01*
X110046328Y-82321450D02*
X110141566Y-82369069D01*
X110141566Y-82369069D02*
X110427280Y-82369069D01*
X110427280Y-82369069D02*
X110522518Y-82321450D01*
X110522518Y-82321450D02*
X110570138Y-82273831D01*
X110570138Y-82273831D02*
X110617757Y-82178593D01*
X110617757Y-82178593D02*
X110617757Y-82035736D01*
X109951090Y-82797641D02*
X110951090Y-82797641D01*
X109998709Y-82797641D02*
X109951090Y-82892879D01*
X109951090Y-82892879D02*
X109951090Y-83083355D01*
X109951090Y-83083355D02*
X109998709Y-83178593D01*
X109998709Y-83178593D02*
X110046328Y-83226212D01*
X110046328Y-83226212D02*
X110141566Y-83273831D01*
X110141566Y-83273831D02*
X110427280Y-83273831D01*
X110427280Y-83273831D02*
X110522518Y-83226212D01*
X110522518Y-83226212D02*
X110570138Y-83178593D01*
X110570138Y-83178593D02*
X110617757Y-83083355D01*
X110617757Y-83083355D02*
X110617757Y-82892879D01*
X110617757Y-82892879D02*
X110570138Y-82797641D01*
X110570138Y-83654784D02*
X110617757Y-83750022D01*
X110617757Y-83750022D02*
X110617757Y-83940498D01*
X110617757Y-83940498D02*
X110570138Y-84035736D01*
X110570138Y-84035736D02*
X110474899Y-84083355D01*
X110474899Y-84083355D02*
X110427280Y-84083355D01*
X110427280Y-84083355D02*
X110332042Y-84035736D01*
X110332042Y-84035736D02*
X110284423Y-83940498D01*
X110284423Y-83940498D02*
X110284423Y-83797641D01*
X110284423Y-83797641D02*
X110236804Y-83702403D01*
X110236804Y-83702403D02*
X110141566Y-83654784D01*
X110141566Y-83654784D02*
X110093947Y-83654784D01*
X110093947Y-83654784D02*
X109998709Y-83702403D01*
X109998709Y-83702403D02*
X109951090Y-83797641D01*
X109951090Y-83797641D02*
X109951090Y-83940498D01*
X109951090Y-83940498D02*
X109998709Y-84035736D01*
X110617757Y-84511927D02*
X109951090Y-84511927D01*
X109617757Y-84511927D02*
X109665376Y-84464308D01*
X109665376Y-84464308D02*
X109712995Y-84511927D01*
X109712995Y-84511927D02*
X109665376Y-84559546D01*
X109665376Y-84559546D02*
X109617757Y-84511927D01*
X109617757Y-84511927D02*
X109712995Y-84511927D01*
X110617757Y-85416688D02*
X109617757Y-85416688D01*
X110570138Y-85416688D02*
X110617757Y-85321450D01*
X110617757Y-85321450D02*
X110617757Y-85130974D01*
X110617757Y-85130974D02*
X110570138Y-85035736D01*
X110570138Y-85035736D02*
X110522518Y-84988117D01*
X110522518Y-84988117D02*
X110427280Y-84940498D01*
X110427280Y-84940498D02*
X110141566Y-84940498D01*
X110141566Y-84940498D02*
X110046328Y-84988117D01*
X110046328Y-84988117D02*
X109998709Y-85035736D01*
X109998709Y-85035736D02*
X109951090Y-85130974D01*
X109951090Y-85130974D02*
X109951090Y-85321450D01*
X109951090Y-85321450D02*
X109998709Y-85416688D01*
X110570138Y-86273831D02*
X110617757Y-86178593D01*
X110617757Y-86178593D02*
X110617757Y-85988117D01*
X110617757Y-85988117D02*
X110570138Y-85892879D01*
X110570138Y-85892879D02*
X110474899Y-85845260D01*
X110474899Y-85845260D02*
X110093947Y-85845260D01*
X110093947Y-85845260D02*
X109998709Y-85892879D01*
X109998709Y-85892879D02*
X109951090Y-85988117D01*
X109951090Y-85988117D02*
X109951090Y-86178593D01*
X109951090Y-86178593D02*
X109998709Y-86273831D01*
X109998709Y-86273831D02*
X110093947Y-86321450D01*
X110093947Y-86321450D02*
X110189185Y-86321450D01*
X110189185Y-86321450D02*
X110284423Y-85845260D01*
X112227701Y-81750021D02*
X111227701Y-81750021D01*
X112180082Y-81750021D02*
X112227701Y-81654783D01*
X112227701Y-81654783D02*
X112227701Y-81464307D01*
X112227701Y-81464307D02*
X112180082Y-81369069D01*
X112180082Y-81369069D02*
X112132462Y-81321450D01*
X112132462Y-81321450D02*
X112037224Y-81273831D01*
X112037224Y-81273831D02*
X111751510Y-81273831D01*
X111751510Y-81273831D02*
X111656272Y-81321450D01*
X111656272Y-81321450D02*
X111608653Y-81369069D01*
X111608653Y-81369069D02*
X111561034Y-81464307D01*
X111561034Y-81464307D02*
X111561034Y-81654783D01*
X111561034Y-81654783D02*
X111608653Y-81750021D01*
X112227701Y-82369069D02*
X112180082Y-82273831D01*
X112180082Y-82273831D02*
X112132462Y-82226212D01*
X112132462Y-82226212D02*
X112037224Y-82178593D01*
X112037224Y-82178593D02*
X111751510Y-82178593D01*
X111751510Y-82178593D02*
X111656272Y-82226212D01*
X111656272Y-82226212D02*
X111608653Y-82273831D01*
X111608653Y-82273831D02*
X111561034Y-82369069D01*
X111561034Y-82369069D02*
X111561034Y-82511926D01*
X111561034Y-82511926D02*
X111608653Y-82607164D01*
X111608653Y-82607164D02*
X111656272Y-82654783D01*
X111656272Y-82654783D02*
X111751510Y-82702402D01*
X111751510Y-82702402D02*
X112037224Y-82702402D01*
X112037224Y-82702402D02*
X112132462Y-82654783D01*
X112132462Y-82654783D02*
X112180082Y-82607164D01*
X112180082Y-82607164D02*
X112227701Y-82511926D01*
X112227701Y-82511926D02*
X112227701Y-82369069D01*
X111561034Y-83035736D02*
X112227701Y-83226212D01*
X112227701Y-83226212D02*
X111751510Y-83416688D01*
X111751510Y-83416688D02*
X112227701Y-83607164D01*
X112227701Y-83607164D02*
X111561034Y-83797640D01*
X111561034Y-84178593D02*
X112227701Y-84178593D01*
X111656272Y-84178593D02*
X111608653Y-84226212D01*
X111608653Y-84226212D02*
X111561034Y-84321450D01*
X111561034Y-84321450D02*
X111561034Y-84464307D01*
X111561034Y-84464307D02*
X111608653Y-84559545D01*
X111608653Y-84559545D02*
X111703891Y-84607164D01*
X111703891Y-84607164D02*
X112227701Y-84607164D01*
D15*
X57604819Y-91801666D02*
X58319104Y-91801666D01*
X58319104Y-91801666D02*
X58461961Y-91754047D01*
X58461961Y-91754047D02*
X58557200Y-91658809D01*
X58557200Y-91658809D02*
X58604819Y-91515952D01*
X58604819Y-91515952D02*
X58604819Y-91420714D01*
X57604819Y-92182619D02*
X57604819Y-92801666D01*
X57604819Y-92801666D02*
X57985771Y-92468333D01*
X57985771Y-92468333D02*
X57985771Y-92611190D01*
X57985771Y-92611190D02*
X58033390Y-92706428D01*
X58033390Y-92706428D02*
X58081009Y-92754047D01*
X58081009Y-92754047D02*
X58176247Y-92801666D01*
X58176247Y-92801666D02*
X58414342Y-92801666D01*
X58414342Y-92801666D02*
X58509580Y-92754047D01*
X58509580Y-92754047D02*
X58557200Y-92706428D01*
X58557200Y-92706428D02*
X58604819Y-92611190D01*
X58604819Y-92611190D02*
X58604819Y-92325476D01*
X58604819Y-92325476D02*
X58557200Y-92230238D01*
X58557200Y-92230238D02*
X58509580Y-92182619D01*
X45444819Y-89420714D02*
X45444819Y-89992142D01*
X46444819Y-89706428D02*
X45444819Y-89706428D01*
X46444819Y-90468333D02*
X46397200Y-90373095D01*
X46397200Y-90373095D02*
X46349580Y-90325476D01*
X46349580Y-90325476D02*
X46254342Y-90277857D01*
X46254342Y-90277857D02*
X45968628Y-90277857D01*
X45968628Y-90277857D02*
X45873390Y-90325476D01*
X45873390Y-90325476D02*
X45825771Y-90373095D01*
X45825771Y-90373095D02*
X45778152Y-90468333D01*
X45778152Y-90468333D02*
X45778152Y-90611190D01*
X45778152Y-90611190D02*
X45825771Y-90706428D01*
X45825771Y-90706428D02*
X45873390Y-90754047D01*
X45873390Y-90754047D02*
X45968628Y-90801666D01*
X45968628Y-90801666D02*
X46254342Y-90801666D01*
X46254342Y-90801666D02*
X46349580Y-90754047D01*
X46349580Y-90754047D02*
X46397200Y-90706428D01*
X46397200Y-90706428D02*
X46444819Y-90611190D01*
X46444819Y-90611190D02*
X46444819Y-90468333D01*
X46444819Y-91992143D02*
X45444819Y-91992143D01*
X45444819Y-91992143D02*
X46159104Y-92325476D01*
X46159104Y-92325476D02*
X45444819Y-92658809D01*
X45444819Y-92658809D02*
X46444819Y-92658809D01*
X46349580Y-93706428D02*
X46397200Y-93658809D01*
X46397200Y-93658809D02*
X46444819Y-93515952D01*
X46444819Y-93515952D02*
X46444819Y-93420714D01*
X46444819Y-93420714D02*
X46397200Y-93277857D01*
X46397200Y-93277857D02*
X46301961Y-93182619D01*
X46301961Y-93182619D02*
X46206723Y-93135000D01*
X46206723Y-93135000D02*
X46016247Y-93087381D01*
X46016247Y-93087381D02*
X45873390Y-93087381D01*
X45873390Y-93087381D02*
X45682914Y-93135000D01*
X45682914Y-93135000D02*
X45587676Y-93182619D01*
X45587676Y-93182619D02*
X45492438Y-93277857D01*
X45492438Y-93277857D02*
X45444819Y-93420714D01*
X45444819Y-93420714D02*
X45444819Y-93515952D01*
X45444819Y-93515952D02*
X45492438Y-93658809D01*
X45492438Y-93658809D02*
X45540057Y-93706428D01*
X45444819Y-94135000D02*
X46254342Y-94135000D01*
X46254342Y-94135000D02*
X46349580Y-94182619D01*
X46349580Y-94182619D02*
X46397200Y-94230238D01*
X46397200Y-94230238D02*
X46444819Y-94325476D01*
X46444819Y-94325476D02*
X46444819Y-94515952D01*
X46444819Y-94515952D02*
X46397200Y-94611190D01*
X46397200Y-94611190D02*
X46349580Y-94658809D01*
X46349580Y-94658809D02*
X46254342Y-94706428D01*
X46254342Y-94706428D02*
X45444819Y-94706428D01*
%TO.C,J3*%
D16*
X46880000Y-92370000D02*
X57260000Y-92370000D01*
X46880000Y-95130000D02*
X46880000Y-92370000D01*
X47830000Y-86370000D02*
X47830000Y-92370000D01*
X47830000Y-95442642D02*
X47830000Y-95130000D01*
X48690000Y-86370000D02*
X47830000Y-86370000D01*
X48690000Y-92370000D02*
X48690000Y-86370000D01*
X48690000Y-95442642D02*
X48690000Y-95130000D01*
X49530000Y-95130000D02*
X49530000Y-92370000D01*
X50370000Y-86370000D02*
X50370000Y-92370000D01*
X50370000Y-95442642D02*
X50370000Y-95130000D01*
X51230000Y-86370000D02*
X50370000Y-86370000D01*
X51230000Y-92370000D02*
X51230000Y-86370000D01*
X51230000Y-95442642D02*
X51230000Y-95130000D01*
X52070000Y-95130000D02*
X52070000Y-92370000D01*
X52910000Y-86370000D02*
X52910000Y-92370000D01*
X52910000Y-95442642D02*
X52910000Y-95130000D01*
X53770000Y-86370000D02*
X52910000Y-86370000D01*
X53770000Y-92370000D02*
X53770000Y-86370000D01*
X53770000Y-95442642D02*
X53770000Y-95130000D01*
X54610000Y-95130000D02*
X54610000Y-92370000D01*
X55450000Y-95360000D02*
X55450000Y-95130000D01*
X55880000Y-97790000D02*
X57150000Y-97790000D01*
X56310000Y-95360000D02*
X56310000Y-95130000D01*
X57150000Y-97790000D02*
X57150000Y-96520000D01*
X57260000Y-92370000D02*
X57260000Y-95130000D01*
X57260000Y-95130000D02*
X46880000Y-95130000D01*
X55450000Y-86370000D02*
X56310000Y-86370000D01*
X56310000Y-92370000D01*
X55450000Y-92370000D01*
X55450000Y-86370000D01*
G36*
X55450000Y-86370000D02*
G01*
X56310000Y-86370000D01*
X56310000Y-92370000D01*
X55450000Y-92370000D01*
X55450000Y-86370000D01*
G37*
%TD*%
D17*
X29000000Y-26000000D02*
X124000000Y-26000000D01*
X124000000Y-100500000D01*
X29000000Y-100500000D01*
X29000000Y-26000000D01*
M02*
