%TF.GenerationSoftware,KiCad,Pcbnew,10.0.2*%
%TF.CreationDate,2026-05-26T14:46:01-05:00*%
%TF.ProjectId,keypad,6b657970-6164-42e6-9b69-6361645f7063,rev?*%
%TF.SameCoordinates,Original*%
%TF.FileFunction,Copper,L2,Bot*%
%TF.FilePolarity,Positive*%
%FSLAX46Y46*%
G04 Gerber Fmt 4.6, Leading zero omitted, Abs format (unit mm)*
G04 Created by KiCad (PCBNEW 10.0.2) date 2026-05-26 14:46:01*
%MOMM*%
%LPD*%
G01*
G04 APERTURE LIST*
%TA.AperFunction,ComponentPad*%
%ADD10C,2.500000*%
%TD*%
%TA.AperFunction,ComponentPad*%
%ADD11R,1.700000X1.700000*%
%TD*%
%TA.AperFunction,ComponentPad*%
%ADD12C,1.700000*%
%TD*%
%TA.AperFunction,ViaPad*%
%ADD13C,0.600000*%
%TD*%
%TA.AperFunction,Conductor*%
%ADD14C,0.400000*%
%TD*%
%TA.AperFunction,Profile*%
%ADD15C,0.200000*%
%TD*%
G04 APERTURE END LIST*
D10*
%TO.P,SW1,1,1*%
%TO.N,/COM*%
X36190000Y-37460000D03*
%TO.P,SW1,2,2*%
%TO.N,/N$1*%
X42540000Y-34920000D03*
%TD*%
%TO.P,SW2,1,1*%
%TO.N,/COM*%
X60390000Y-37460000D03*
%TO.P,SW2,2,2*%
%TO.N,/N$2*%
X66740000Y-34920000D03*
%TD*%
%TO.P,SW3,1,1*%
%TO.N,/COM*%
X84590000Y-37460000D03*
%TO.P,SW3,2,2*%
%TO.N,/N$3*%
X90940000Y-34920000D03*
%TD*%
%TO.P,SW4,1,1*%
%TO.N,/COM*%
X108790000Y-37460000D03*
%TO.P,SW4,2,2*%
%TO.N,/N$4*%
X115140000Y-34920000D03*
%TD*%
%TO.P,SW8,1,1*%
%TO.N,/COM*%
X60390000Y-84460000D03*
%TO.P,SW8,2,2*%
%TO.N,/N$8*%
X66740000Y-81920000D03*
%TD*%
%TO.P,SW6,1,1*%
%TO.N,/COM*%
X36190000Y-84460000D03*
%TO.P,SW6,2,2*%
%TO.N,/N$6*%
X42540000Y-81920000D03*
%TD*%
D11*
%TO.P,J2,1,ADR2*%
%TO.N,unconnected-(J2-ADR2-Pad1)*%
X97470000Y-79690000D03*
D12*
%TO.P,J2,2,ADR1*%
%TO.N,unconnected-(J2-ADR1-Pad2)*%
X100010000Y-79690000D03*
%TO.P,J2,3,ADR0*%
%TO.N,/COM*%
X102550000Y-79690000D03*
%TO.P,J2,4,RESET*%
%TO.N,unconnected-(J2-RESET-Pad4)*%
X105090000Y-79690000D03*
%TO.P,J2,5,NC1*%
%TO.N,unconnected-(J2-NC1-Pad5)*%
X107630000Y-79690000D03*
%TO.P,J2,6,NC2*%
%TO.N,unconnected-(J2-NC2-Pad6)*%
X110170000Y-79690000D03*
%TO.P,J2,7,SDA*%
%TO.N,Net-(J2-SDA)*%
X112710000Y-79690000D03*
%TO.P,J2,8,SCL*%
%TO.N,Net-(J2-SCL)*%
X115250000Y-79690000D03*
%TO.P,J2,9,GND*%
%TO.N,/COM*%
X117790000Y-79690000D03*
%TO.P,J2,10,3V3*%
%TO.N,Net-(J2-3V3)*%
X120330000Y-79690000D03*
%TD*%
D10*
%TO.P,SW10,1,1*%
%TO.N,/COM*%
X84590000Y-84460000D03*
%TO.P,SW10,2,2*%
%TO.N,/N$10*%
X90940000Y-81920000D03*
%TD*%
%TO.P,SW7,1,1*%
%TO.N,/COM*%
X60390000Y-65960000D03*
%TO.P,SW7,2,2*%
%TO.N,/N$7*%
X66740000Y-63420000D03*
%TD*%
D11*
%TO.P,J4,1,GND*%
%TO.N,/COM*%
X100700000Y-68514000D03*
D12*
%TO.P,J4,2,3V3*%
%TO.N,Net-(J2-3V3)*%
X100700000Y-71054000D03*
%TO.P,J4,3,SCL*%
%TO.N,Net-(J2-SCL)*%
X100700000Y-73594000D03*
%TO.P,J4,4,SDA*%
%TO.N,Net-(J2-SDA)*%
X100700000Y-76134000D03*
%TD*%
D10*
%TO.P,SW9,1,1*%
%TO.N,/COM*%
X84590000Y-65960000D03*
%TO.P,SW9,2,2*%
%TO.N,/N$9*%
X90940000Y-63420000D03*
%TD*%
D11*
%TO.P,J1,1,GND*%
%TO.N,/COM*%
X97470000Y-97470000D03*
D12*
%TO.P,J1,3,ITA*%
%TO.N,unconnected-(J1-ITA-Pad3)*%
X100010000Y-97470000D03*
%TO.P,J1,5,A0*%
%TO.N,/N$1*%
X102550000Y-97470000D03*
%TO.P,J1,6,B0*%
%TO.N,/N$9*%
X102550000Y-94930000D03*
%TO.P,J1,7,A1*%
%TO.N,/N$2*%
X105090000Y-97470000D03*
%TO.P,J1,8,B1*%
%TO.N,/N$10*%
X105090000Y-94930000D03*
%TO.P,J1,9,A2*%
%TO.N,/N$3*%
X107630000Y-97470000D03*
%TO.P,J1,11,A3*%
%TO.N,/N$4*%
X110170000Y-97470000D03*
%TO.P,J1,13,A4*%
%TO.N,/N$5*%
X112710000Y-97470000D03*
%TO.P,J1,15,A5*%
%TO.N,/N$6*%
X115250000Y-97470000D03*
%TO.P,J1,17,A6*%
%TO.N,/N$7*%
X117790000Y-97470000D03*
%TO.P,J1,19,A7*%
%TO.N,/N$8*%
X120330000Y-97470000D03*
%TD*%
D10*
%TO.P,SW5,1,1*%
%TO.N,/COM*%
X36190000Y-65960000D03*
%TO.P,SW5,2,2*%
%TO.N,/N$5*%
X42540000Y-63420000D03*
%TD*%
D11*
%TO.P,J3,1,MCU1*%
%TO.N,Net-(J2-SCL)*%
X55880000Y-96520000D03*
D12*
%TO.P,J3,2,MCU2*%
%TO.N,Net-(J2-SDA)*%
X53340000Y-96520000D03*
%TO.P,J3,3,MCU6*%
%TO.N,Net-(J2-3V3)*%
X50800000Y-96520000D03*
%TO.P,J3,4,MCU7*%
%TO.N,/COM*%
X48260000Y-96520000D03*
%TD*%
D13*
%TO.N,/N$1*%
X85024000Y-33230200D03*
%TO.N,/N$2*%
X72096700Y-98590500D03*
%TO.N,/COM*%
X101787500Y-81981400D03*
%TO.N,/N$5*%
X107737500Y-66238000D03*
%TO.N,/N$6*%
X111346200Y-77549800D03*
%TO.N,/N$7*%
X72037500Y-96119500D03*
%TO.N,/N$8*%
X69060900Y-96119600D03*
%TO.N,/N$10*%
X93008100Y-92984400D03*
%TD*%
%TO.N,/N$1*%
D14*
X103819800Y-50733800D02*
X103819800Y-96200200D01*
X85024000Y-33230200D02*
X86316200Y-33230200D01*
X86316200Y-33230200D02*
X103819800Y-50733800D01*
X103819800Y-96200200D02*
X102550000Y-97470000D01*
%TO.N,/N$2*%
X66873200Y-56220800D02*
X65035000Y-58059000D01*
X70129300Y-96623100D02*
X72096700Y-98590500D01*
X65035000Y-65584900D02*
X70129200Y-70679100D01*
X66873200Y-35053200D02*
X66873200Y-56220800D01*
X65035000Y-58059000D02*
X65035000Y-65584900D01*
X70129200Y-96623100D02*
X70129300Y-96623100D01*
X66740000Y-34920000D02*
X66873200Y-35053200D01*
X70129200Y-70679100D02*
X70129200Y-96623100D01*
%TO.N,/N$3*%
X107630000Y-97470000D02*
X106378300Y-96218300D01*
X106378300Y-50358300D02*
X90940000Y-34920000D01*
X106378300Y-96218300D02*
X106378300Y-50358300D01*
%TO.N,/N$4*%
X111430500Y-98730500D02*
X110170000Y-97470000D01*
X116518500Y-98010000D02*
X115798000Y-98730500D01*
X115798000Y-98730500D02*
X111430500Y-98730500D01*
X115140000Y-34920000D02*
X116518500Y-36298500D01*
X116518500Y-36298500D02*
X116518500Y-98010000D01*
%TO.N,/COM*%
X48260000Y-96520000D02*
X60320000Y-84460000D01*
X100700000Y-69765700D02*
X101247600Y-69765700D01*
X84590000Y-65960000D02*
X84590000Y-84460000D01*
X100700000Y-68514000D02*
X100700000Y-69765700D01*
X102550000Y-81218900D02*
X101787500Y-81981400D01*
X95102900Y-97470000D02*
X84590000Y-86957100D01*
X60390000Y-84460000D02*
X60390000Y-65960000D01*
X36190000Y-84460000D02*
X36190000Y-65960000D01*
X60390000Y-37460000D02*
X60390000Y-65960000D01*
X102550000Y-79690000D02*
X102550000Y-81218900D01*
X97470000Y-97470000D02*
X95102900Y-97470000D01*
X101247600Y-69765700D02*
X102550000Y-71068100D01*
X84590000Y-86957100D02*
X84590000Y-84460000D01*
X102550000Y-71068100D02*
X102550000Y-79690000D01*
X60320000Y-84460000D02*
X60390000Y-84460000D01*
%TO.N,/N$5*%
X108900000Y-67400500D02*
X108900000Y-89273000D01*
X111440000Y-91813000D02*
X111440000Y-96200000D01*
X111440000Y-96200000D02*
X112710000Y-97470000D01*
X107737500Y-66238000D02*
X108900000Y-67400500D01*
X108900000Y-89273000D02*
X111440000Y-91813000D01*
%TO.N,/N$6*%
X111440000Y-77643600D02*
X111440000Y-88945600D01*
X111346200Y-77549800D02*
X111440000Y-77643600D01*
X113980000Y-91485600D02*
X113980000Y-96200000D01*
X111440000Y-88945600D02*
X113980000Y-91485600D01*
X113980000Y-96200000D02*
X115250000Y-97470000D01*
%TO.N,/N$7*%
X72037500Y-68717500D02*
X66740000Y-63420000D01*
X72037500Y-96119500D02*
X72037500Y-68717500D01*
%TO.N,/N$8*%
X69060900Y-84240900D02*
X66740000Y-81920000D01*
X69060900Y-96119600D02*
X69060900Y-84240900D01*
%TO.N,/N$9*%
X102550000Y-94930000D02*
X102550000Y-93279400D01*
X93369800Y-84099200D02*
X93369800Y-65849800D01*
X102550000Y-93279400D02*
X93369800Y-84099200D01*
X93369800Y-65849800D02*
X90940000Y-63420000D01*
%TO.N,/N$10*%
X92769600Y-84349800D02*
X90940000Y-82520200D01*
X90940000Y-82520200D02*
X90940000Y-81920000D01*
X93008100Y-92984400D02*
X92769600Y-92745900D01*
X92769600Y-92745900D02*
X92769600Y-84349800D01*
X92769600Y-92984400D02*
X93008100Y-92984400D01*
%TD*%
D15*
X29000000Y-26000000D02*
X124000000Y-26000000D01*
X124000000Y-100500000D01*
X29000000Y-100500000D01*
X29000000Y-26000000D01*
M02*
