<svg xmlns="http://www.w3.org/2000/svg" width="166.3065042039427mm" height="94.04020247816914mm" viewBox="0 0 166.3065042039427 94.04020247816914">
<path d="M 166.30650280262998 0.0 L 166.30650420394227 94.04020000000004 L 110.87100420394079 94.04020082605648 L 110.87100280262851 8.260562559314621e-07ZM 130.26279519663862 74.04020040798926 L 147.2627951966386 74.04020040798926 L 147.2627951966386 20.000000398850652 L 130.26279519663862 20.000000398850652Z" fill="#3E5B05" />
<path d="M 166.3065042039427 94.04020000000004 L 166.30650280263043 0.0 L 110.87100280262896 8.260562559314621e-07 L 110.87100420394115 94.04020082605648ZM 147.2627952413437 74.04020040798922 L 130.26279524134372 74.04020040798922 L 130.26279524134372 20.00000039885061 L 147.2627952413437 20.00000039885061Z" fill="#3E5B05" />
<path d="M 166.30650420394227 94.04020000000004 L 166.30650280262998 0.0 L 166.30650280263043 0.0 L 166.3065042039427 94.04020000000004Z" fill="#3E5B05" />
<path d="M 166.30650280262998 0.0 L 110.87100280262851 8.260562559314621e-07 L 110.87100280262896 8.260562559314621e-07 L 166.30650280263043 0.0Z" fill="#3E5B05" />
<path d="M 110.87100280262851 8.260562559314621e-07 L 110.87100420394079 94.04020082605648 L 110.87100420394115 94.04020082605648 L 110.87100280262896 8.260562559314621e-07Z" fill="#3E5B05" />
<path d="M 110.87100420394079 94.04020082605648 L 166.30650420394227 94.04020000000004 L 166.3065042039427 94.04020000000004 L 110.87100420394115 94.04020082605648Z" fill="#3E5B05" />
<path d="M 130.26279524134372 74.04020040798922 L 147.2627952413437 74.04020040798922 L 147.2627951966386 74.04020040798926 L 130.26279519663862 74.04020040798926Z" fill="#3E5B05" />
<path d="M 147.2627952413437 74.04020040798922 L 147.2627952413437 20.00000039885061 L 147.2627951966386 20.000000398850652 L 147.2627951966386 74.04020040798926Z" fill="#3E5B05" />
<path d="M 147.2627952413437 20.00000039885061 L 130.26279524134372 20.00000039885061 L 130.26279519663862 20.000000398850652 L 147.2627951966386 20.000000398850652Z" fill="#3E5B05" />
<path d="M 130.26279524134372 20.00000039885061 L 130.26279524134372 74.04020040798922 L 130.26279519663862 74.04020040798926 L 130.26279519663862 20.000000398850652Z" fill="#3E5B05" />
<path d="M 110.87100280262851 94.04020082605635 L 110.87100140131615 8.260562559314621e-07 L 55.43550140131473 1.6521126021018517e-06 L 55.435502802626914 94.04020165211278ZM 81.75364537183584 6.781062312755241 L 81.58812626655009 6.381463843942213 L 81.53167078213286 5.95264186599513 L 81.53167078213322 3.9526418659952234 L 81.58812626655009 3.5238198880457934 L 81.75364537183638 3.124221419232946 L 82.01694824449845 2.7810784348380544 L 82.36009122889388 2.5177755621750926 L 82.75968969770672 2.3522564568889854 L 83.18851167565506 2.295800972471752 L 83.61733365360324 2.3522564568897075 L 84.01693212241626 2.5177755621747315 L 84.36007510681206 2.781078434837152 L 84.62337797947484 3.1242214192334874 L 84.78889708476022 3.523819888045613 L 84.84535256917782 3.95264186599396 L 84.84535256917746 5.952641865993866 L 84.8124394447806 6.202641865993629 L 84.78889708476022 6.381463843942033 L 84.6233779794743 6.7810623127557825 L 84.36007510681188 7.124205297150855 L 84.0169321224168 7.387508169813095 L 83.61733365360378 7.553027275099743 L 83.18851167565562 7.609482759516254 L 82.75968969770726 7.553027275099021 L 82.36009122889442 7.387508169813455 L 82.01694824449827 7.124205297151576ZM 84.68779258238607 86.96801816923559 L 84.8042173113146 87.35617140396585 L 84.81621351423905 87.76123157511712 L 84.74153776868137 90.35222712153727 L 84.66028412712177 91.1516502189898 L 84.46814305802747 91.50844071873018 L 84.19020486065475 91.8033441089769 L 83.84541056383827 92.01626321103365 L 83.45725732910829 92.13268793996303 L 83.05219715795674 92.1446841428868 L 82.65783423165476 92.05143429840312 L 82.3010437319142 91.85929322930909 L 82.00614034166863 91.58135503193601 L 81.79322123961084 91.2365607351194 L 81.67679651068285 90.8484075003896 L 81.66480030775786 90.44334732923832 L 81.67679651068194 90.34840750038963 L 81.70367671019106 89.53997866849296 L 81.7274798503911 87.44729161166698 L 81.82072969487568 87.05292868536455 L 82.01287076396926 86.69613818562395 L 82.29080896134289 86.40123479537765 L 82.63560325815901 86.18831569332049 L 83.02375649288898 86.0718909643925 L 83.42881666404017 86.05989476146787 L 83.8231795903425 86.15314460595228 L 84.17997009008307 86.34528567504671 L 84.47487348032865 86.62322387241947ZM 94.86377004471402 74.786299515551 L 63.294780844818156 74.786299515551 L 63.294780844818156 22.434980994658268 L 70.22028047117348 22.434980994658268 L 70.22028047117348 14.358282066120585 L 82.47979040749675 14.358282066120585 L 82.47979040749675 22.434980994658268 L 94.86377004471402 22.434980994658268ZM 66.79233055992299 76.99074644115456 L 66.71261050796338 77.24107100227866 L 66.5708180870267 77.46223289309921 L 66.37661621627672 77.63916029624404 L 66.14323943227117 77.75979590157523 L 65.88659197716673 77.81591859194931 L 65.62416395089885 77.80370369876427 L 65.37383938977474 77.72398364680475 L 65.15267749895419 77.58219122586806 L 64.97575009580936 77.387989355118 L 64.85511449047817 77.15461257111245 L 64.79899180010409 76.89796511600805 L 64.81120669328914 76.63553708974013 L 64.89092674524865 76.38521252861607 L 65.03271916618534 76.16405063779557 L 65.22692103693541 75.9871232346507 L 65.46029782094095 75.86648762931945 L 65.71694527604535 75.81036493894541 L 65.97937330231328 75.8225798321304 L 66.22969786343734 75.90229988409001 L 66.45085975425783 76.04409230502671 L 66.62778715740271 76.23829417577669 L 66.74842276273395 76.47167095978223 L 66.80454545310799 76.72831841488667ZM 100.53300840664465 22.910383044333962 L 99.92999260554397 22.660631988072833 L 99.41217119786485 22.2633354315788 L 99.01483285679855 21.745568478612842 L 98.76505553365705 21.14261609136919 L 98.6798611402352 20.495568478612945 L 98.76505553365534 19.84852086585652 L 99.01483285679666 19.24556847861269 L 99.41217119786124 18.727801525645468 L 99.92999260554053 18.33050496915044 L 100.53300840664023 18.08075391288877 L 101.18012407084622 17.995568478610174 L 101.82723973505257 18.080753912887054 L 102.43042103138148 18.33063194474852 L 102.94813402717266 18.727875910276104 L 103.34544139583896 19.245602503470096 L 103.59519291336206 19.848523184762513 L 103.68038700146067 20.49556847860807 L 103.59519291336305 21.14261377245381 L 103.34544139584114 21.745534453746412 L 102.94817388869579 22.263261050990323 L 102.43042103138445 22.660505012469518 L 101.82723973505709 22.91038304433306 L 101.18012407085092 22.99556847861066ZM 70.12363058822298 10.74997674303196 L 69.72633901172479 11.267694220466549 L 69.20862601593343 11.664938185994943 L 68.60544471960588 11.914816217857853 L 67.9583290553998 12.000001652136087 L 67.31121339119355 11.914816217859387 L 66.70819759009304 11.665065161598168 L 66.19037618241373 11.267768605104134 L 65.7930378413479 10.750001652137996 L 65.54326051820567 10.147049264894616 L 65.45806612478445 9.500001652138462 L 65.54326051820422 8.852954039381855 L 65.79303784134564 8.250001652138023 L 66.19037618241049 7.732234699171163 L 66.32728492751824 7.627191971738927 L 66.70819759008951 7.334938142675865 L 67.31121339118894 7.085187086413474 L 67.9583290553952 7.000001652135961 L 68.60544471960146 7.085187086412572 L 69.20862601593036 7.335065118273856 L 69.7263788732417 7.732309079752058 L 70.12364638038794 8.250035676995429 L 70.37340021699399 8.852960374586354 L 70.45859198600955 9.500001652133408 L 70.37340021699579 10.14704292968091ZM 103.55592995504178 70.29022656120532 L 103.80569726473244 70.893156358257 L 103.89089135283123 71.54020165210261 L 103.84458452870903 72.04211888044229 L 103.81430961314769 72.12184876725428 L 103.80569958381739 72.18724292964903 L 103.6109149641814 72.65749459944115 L 103.22593654101581 73.19142376573288 L 102.71588490254422 73.60751998899418 L 102.11551922502811 73.87742699924148 L 101.46575343723912 73.98275107976876 L 100.81086800382633 73.91631456854438 L 100.19549228482741 73.68264500401673 L 99.6615631185357 73.29766658085116 L 99.22533720816931 72.79020165210683 L 98.97555988502708 72.18724926486345 L 98.89036549160551 71.54020165210711 L 98.97555988502636 70.89315403935082 L 99.22533720816669 70.29020165210672 L 99.62267554923163 69.77243469913972 L 100.14049695691092 69.37513814264466 L 100.74351275801062 69.12538708638303 L 101.39062842221661 69.04020165210484 L 102.03774408642288 69.12538708638132 L 102.64098430795248 69.37523109085218 L 103.15863837854377 69.77250908377135ZM 66.1903761824797 85.3079686051012 L 65.79303784141385 84.79020165213505 L 65.54326051827172 84.18724926489168 L 65.45806612485042 83.54020165213552 L 65.543260518271 82.893154039379 L 65.79303784141133 82.2902016521349 L 66.19037618247617 81.77243469916795 L 66.70819759015548 81.37513814267292 L 67.31121339125518 81.12538708641125 L 67.95832905546116 81.04020165213306 L 68.60544471966752 81.12538708640976 L 69.20862601599643 81.37526511827092 L 69.72633901178759 81.77250908379854 L 70.12363058828615 82.29022656123277 L 70.373397897977 82.89315635828495 L 70.45859198607579 83.54020165213056 L 70.37340021706176 84.18724292967796 L 70.12363058828895 84.79017674302906 L 69.72633901179076 85.30789422046361 L 69.20868494119865 85.70517221338359 L 68.60544471967185 85.95501621785496 L 67.95832905546585 86.04020165213342 L 67.3112133912595 85.95501621785644 L 66.708197590159 85.70526516159528Z" fill="#3E5B05" />
<path d="M 110.87100280262797 94.04020082605635 L 110.8710014013158 8.260562559314621e-07 L 110.87100140131615 8.260562559314621e-07 L 110.87100280262851 94.04020082605635Z" fill="#3E5B05" />
<path d="M 110.8710014013158 8.260562559314621e-07 L 55.43550140131428 1.6521126021018517e-06 L 55.43550140131473 1.6521126021018517e-06 L 110.87100140131615 8.260562559314621e-07Z" fill="#3E5B05" />
<path d="M 55.43550140131428 1.6521126021018517e-06 L 55.435502802626466 94.04020165211278 L 55.435502802626914 94.04020165211278 L 55.43550140131473 1.6521126021018517e-06Z" fill="#3E5B05" />
<path d="M 84.17997009008253 86.34528567504671 L 84.47487348032828 86.62322387241947 L 84.47487348032865 86.62322387241947 L 84.17997009008307 86.34528567504671Z" fill="#3E5B05" />
<path d="M 82.63560325815864 86.18831569332049 L 83.02375649288844 86.0718909643925 L 83.02375649288898 86.0718909643925 L 82.63560325815901 86.18831569332049Z" fill="#3E5B05" />
<path d="M 63.29478084481771 74.786299515551 L 63.29478084481771 22.434980994658268 L 63.294780844818156 22.434980994658268 L 63.294780844818156 74.786299515551Z" fill="#3E5B05" />
<path d="M 84.47487348032828 86.62322387241947 L 84.68779258238553 86.96801816923559 L 84.68779258238607 86.96801816923559 L 84.47487348032865 86.62322387241947Z" fill="#3E5B05" />
<path d="M 82.29080896134252 86.40123479537765 L 82.63560325815864 86.18831569332049 L 82.63560325815901 86.18831569332049 L 82.29080896134289 86.40123479537765Z" fill="#3E5B05" />
<path d="M 83.02375649288844 86.0718909643925 L 83.42881666403963 86.05989476146787 L 83.42881666404017 86.05989476146787 L 83.02375649288898 86.0718909643925Z" fill="#3E5B05" />
<path d="M 94.86377004471365 74.786299515551 L 63.29478084481771 74.786299515551 L 63.294780844818156 74.786299515551 L 94.86377004471402 74.786299515551Z" fill="#3E5B05" />
<path d="M 82.0128707639689 86.69613818562395 L 82.29080896134252 86.40123479537765 L 82.29080896134289 86.40123479537765 L 82.01287076396926 86.69613818562395Z" fill="#3E5B05" />
<path d="M 94.86377004471365 22.434980994658268 L 94.86377004471365 74.786299515551 L 94.86377004471402 74.786299515551 L 94.86377004471402 22.434980994658268Z" fill="#3E5B05" />
<path d="M 83.82317959034215 86.15314460595228 L 84.17997009008253 86.34528567504671 L 84.17997009008307 86.34528567504671 L 83.8231795903425 86.15314460595228Z" fill="#3E5B05" />
<path d="M 83.42881666403963 86.05989476146787 L 83.82317959034215 86.15314460595228 L 83.8231795903425 86.15314460595228 L 83.42881666404017 86.05989476146787Z" fill="#3E5B05" />
<path d="M 81.82072969487514 87.05292868536455 L 82.0128707639689 86.69613818562395 L 82.01287076396926 86.69613818562395 L 81.82072969487568 87.05292868536455Z" fill="#3E5B05" />
<path d="M 55.435502802626466 94.04020165211278 L 110.87100280262797 94.04020082605635 L 110.87100280262851 94.04020082605635 L 55.435502802626914 94.04020165211278Z" fill="#3E5B05" />
<path d="M 110.8710014013158 8.260562559314621e-07 L 110.87100280262797 94.04020082605635 L 55.435502802626466 94.04020165211278 L 55.43550140131428 1.6521126021018517e-06ZM 81.58812626654974 6.381463843942213 L 81.7536453718353 6.781062312755241 L 82.0169482444979 7.124205297151576 L 82.36009122889406 7.387508169813455 L 82.7596896977069 7.553027275099021 L 83.18851167565506 7.609482759516254 L 83.61733365360342 7.553027275099743 L 84.01693212241626 7.387508169813095 L 84.36007510681152 7.124205297150855 L 84.62337797947376 6.7810623127557825 L 84.78889708475987 6.381463843942033 L 84.81243944478022 6.202641865993629 L 84.8453525691771 5.952641865993866 L 84.84535256917728 3.95264186599396 L 84.78889708475987 3.523819888045613 L 84.62337797947448 3.1242214192334874 L 84.36007510681152 2.781078434837152 L 84.01693212241591 2.5177755621747315 L 83.61733365360287 2.3522564568897075 L 83.18851167565471 2.295800972471752 L 82.75968969770636 2.3522564568889854 L 82.36009122889352 2.5177755621750926 L 82.0169482444979 2.7810784348380544 L 81.75364537183603 3.124221419232946 L 81.58812626654974 3.5238198880457934 L 81.53167078213268 3.9526418659952234 L 81.53167078213251 5.95264186599513ZM 84.80421731131406 87.35617140396585 L 84.68779258238553 86.96801816923559 L 84.47487348032828 86.62322387241947 L 84.17997009008253 86.34528567504671 L 83.82317959034215 86.15314460595228 L 83.42881666403963 86.05989476146787 L 83.02375649288844 86.0718909643925 L 82.63560325815864 86.18831569332049 L 82.29080896134252 86.40123479537765 L 82.0128707639689 86.69613818562395 L 81.82072969487514 87.05292868536455 L 81.72747985039057 87.44729161166698 L 81.7036767101905 89.53997866849296 L 81.67679651068158 90.34840750038963 L 81.66480030775732 90.44334732923832 L 81.67679651068231 90.8484075003896 L 81.79322123961047 91.2365607351194 L 82.00614034166809 91.58135503193601 L 82.30104373191384 91.85929322930909 L 82.6578342316544 92.05143429840312 L 83.0521971579562 92.1446841428868 L 83.45725732910775 92.13268793996303 L 83.8454105638379 92.01626321103365 L 84.1902048606542 91.8033441089769 L 84.46814305802693 91.50844071873018 L 84.66028412712123 91.1516502189898 L 84.741537768681 90.35222712153727 L 84.81621351423851 87.76123157511712ZM 63.29478084481771 74.786299515551 L 94.86377004471365 74.786299515551 L 94.86377004471365 22.434980994658268 L 82.47979040749657 22.434980994658268 L 82.47979040749657 14.358282066120585 L 70.22028047117325 14.358282066120585 L 70.22028047117325 22.434980994658268 L 63.29478084481771 22.434980994658268ZM 66.71261050796338 77.24107100227866 L 66.79233055992299 76.99074644115456 L 66.80454545310799 76.72831841488667 L 66.74842276273395 76.47167095978223 L 66.62778715740271 76.23829417577669 L 66.45085975425783 76.04409230502671 L 66.22969786343734 75.90229988409001 L 65.97937330231328 75.8225798321304 L 65.71694527604535 75.81036493894541 L 65.46029782094095 75.86648762931945 L 65.22692103693541 75.9871232346507 L 65.03271916618534 76.16405063779557 L 64.89092674524865 76.38521252861607 L 64.81120669328914 76.63553708974013 L 64.79899180010409 76.89796511600805 L 64.85511449047817 77.15461257111245 L 64.97575009580936 77.387989355118 L 65.15267749895419 77.58219122586806 L 65.37383938977474 77.72398364680475 L 65.62416395089885 77.80370369876427 L 65.88659197716673 77.81591859194931 L 66.14323943227117 77.75979590157523 L 66.37661621627672 77.63916029624404 L 66.5708180870267 77.46223289309921ZM 65.79303784141376 84.79020165213505 L 66.19037618247961 85.3079686051012 L 66.7081975901589 85.70526516159522 L 67.31121339125941 85.95501621785644 L 67.95832905546568 86.04020165213342 L 68.60544471967175 85.9550162178549 L 69.20868494119857 85.70517221338355 L 69.72633901179066 85.30789422046361 L 70.12363058828886 84.79017674302906 L 70.37340021706166 84.18724292967796 L 70.4585919860757 83.54020165213056 L 70.3733978979769 82.89315635828491 L 70.12363058828598 82.29022656123277 L 69.7263390117875 81.77250908379854 L 69.20862601599624 81.37526511827092 L 68.60544471966743 81.12538708640972 L 67.95832905546108 81.04020165213302 L 67.31121339125508 81.12538708641125 L 66.7081975901554 81.37513814267292 L 66.19037618247609 81.77243469916795 L 65.79303784141123 82.2902016521349 L 65.54326051827091 82.893154039379 L 65.45806612485033 83.54020165213548 L 65.54326051827164 84.18724926489168ZM 98.9755598850269 72.18724926486345 L 99.22533720816912 72.79020165210683 L 99.66156311853537 73.29766658085116 L 100.1954922848271 73.68264500401673 L 100.81086800382602 73.91631456854438 L 101.4657534372388 73.98275107976876 L 102.1155192250278 73.87742699924148 L 102.7158849025439 73.60751998899418 L 103.2259365410155 73.19142376573288 L 103.61091496418108 72.65749459944115 L 103.8056995838173 72.18724292964897 L 103.81430961314736 72.12184876725428 L 103.84458452870872 72.04211888044229 L 103.89089135283106 71.54020165210261 L 103.80569726473226 70.893156358257 L 103.5559299550416 70.29022656120532 L 103.15863837854367 69.77250908377131 L 102.64098430795231 69.37523109085218 L 102.03774408642279 69.12538708638132 L 101.39062842221644 69.0402016521048 L 100.74351275801044 69.12538708638299 L 100.14049695691075 69.37513814264466 L 99.62267554923154 69.77243469913972 L 99.2253372081666 70.29020165210672 L 98.97555988502617 70.89315403935078 L 98.89036549160542 71.54020165210707ZM 99.92999260554387 22.660631988072833 L 100.53300840664447 22.910383044333962 L 101.18012407085082 22.99556847861066 L 101.82723973505699 22.91038304433306 L 102.43042103138437 22.660505012469518 L 102.94817388869562 22.263261050990323 L 103.34544139584095 21.745534453746412 L 103.59519291336287 21.14261377245381 L 103.68038700146049 20.49556847860807 L 103.59519291336197 19.848523184762513 L 103.34544139583888 19.245602503470096 L 102.94813402717256 18.727875910276104 L 102.43042103138139 18.33063194474852 L 101.8272397350524 18.080753912887054 L 101.18012407084605 17.995568478610174 L 100.53300840664015 18.08075391288877 L 99.92999260554045 18.33050496915044 L 99.41217119786114 18.727801525645468 L 99.01483285679657 19.24556847861269 L 98.76505553365516 19.84852086585652 L 98.67986114023512 20.495568478612945 L 98.76505553365688 21.14261609136919 L 99.01483285679838 21.745568478612842 L 99.41217119786467 22.2633354315788ZM 69.7263390117246 11.267694220466549 L 70.12363058822281 10.74997674303196 L 70.3734002169956 10.14704292968091 L 70.45859198600947 9.500001652133408 L 70.3734002169939 8.852960374586354 L 70.12364638038785 8.250035676995429 L 69.72637887324161 7.732309079752058 L 69.20862601593028 7.335065118273856 L 68.60544471960137 7.085187086412572 L 67.95832905539511 7.000001652135961 L 67.31121339118884 7.085187086413474 L 66.70819759008933 7.334938142675865 L 66.32728492751787 7.627191971738927 L 66.19037618241039 7.732234699171163 L 65.79303784134554 8.250001652138023 L 65.54326051820414 8.852954039381855 L 65.45806612478428 9.500001652138462 L 65.54326051820557 10.147049264894616 L 65.7930378413478 10.750001652137996 L 66.19037618241364 11.267768605104134 L 66.70819759009294 11.665065161598168 L 67.31121339119345 11.914816217859387 L 67.95832905539972 12.000001652136087 L 68.6054447196058 11.914816217857853 L 69.20862601593335 11.664938185994943Z" fill="#3E5B05" />
<path d="M 81.53167078213251 5.95264186599513 L 81.53167078213268 3.9526418659952234 L 81.53167078213322 3.9526418659952234 L 81.53167078213286 5.95264186599513Z" fill="#3E5B05" />
<path d="M 81.53167078213268 3.9526418659952234 L 81.58812626654974 3.5238198880457934 L 81.58812626655009 3.5238198880457934 L 81.53167078213322 3.9526418659952234Z" fill="#3E5B05" />
<path d="M 83.61733365360287 2.3522564568897075 L 84.01693212241591 2.5177755621747315 L 84.01693212241626 2.5177755621747315 L 83.61733365360324 2.3522564568897075Z" fill="#3E5B05" />
<path d="M 82.0169482444979 2.7810784348380544 L 82.36009122889352 2.5177755621750926 L 82.36009122889388 2.5177755621750926 L 82.01694824449845 2.7810784348380544Z" fill="#3E5B05" />
<path d="M 84.36007510681152 2.781078434837152 L 84.62337797947448 3.1242214192334874 L 84.62337797947484 3.1242214192334874 L 84.36007510681206 2.781078434837152Z" fill="#3E5B05" />
<path d="M 84.62337797947448 3.1242214192334874 L 84.78889708475987 3.523819888045613 L 84.78889708476022 3.523819888045613 L 84.62337797947484 3.1242214192334874Z" fill="#3E5B05" />
<path d="M 84.78889708475987 3.523819888045613 L 84.84535256917728 3.95264186599396 L 84.84535256917782 3.95264186599396 L 84.78889708476022 3.523819888045613Z" fill="#3E5B05" />
<path d="M 84.8453525691771 5.952641865993866 L 84.81243944478022 6.202641865993629 L 84.8124394447806 6.202641865993629 L 84.84535256917746 5.952641865993866Z" fill="#3E5B05" />
<path d="M 84.01693212241591 2.5177755621747315 L 84.36007510681152 2.781078434837152 L 84.36007510681206 2.781078434837152 L 84.01693212241626 2.5177755621747315Z" fill="#3E5B05" />
<path d="M 84.81243944478022 6.202641865993629 L 84.78889708475987 6.381463843942033 L 84.78889708476022 6.381463843942033 L 84.8124394447806 6.202641865993629Z" fill="#3E5B05" />
<path d="M 81.58812626654974 6.381463843942213 L 81.53167078213251 5.95264186599513 L 81.53167078213286 5.95264186599513 L 81.58812626655009 6.381463843942213Z" fill="#3E5B05" />
<path d="M 84.84535256917728 3.95264186599396 L 84.8453525691771 5.952641865993866 L 84.84535256917746 5.952641865993866 L 84.84535256917782 3.95264186599396Z" fill="#3E5B05" />
<path d="M 83.18851167565471 2.295800972471752 L 83.61733365360287 2.3522564568897075 L 83.61733365360324 2.3522564568897075 L 83.18851167565506 2.295800972471752Z" fill="#3E5B05" />
<path d="M 81.7536453718353 6.781062312755241 L 81.58812626654974 6.381463843942213 L 81.58812626655009 6.381463843942213 L 81.75364537183584 6.781062312755241Z" fill="#3E5B05" />
<path d="M 81.75364537183603 3.124221419232946 L 82.0169482444979 2.7810784348380544 L 82.01694824449845 2.7810784348380544 L 81.75364537183638 3.124221419232946Z" fill="#3E5B05" />
<path d="M 82.36009122889352 2.5177755621750926 L 82.75968969770636 2.3522564568889854 L 82.75968969770672 2.3522564568889854 L 82.36009122889388 2.5177755621750926Z" fill="#3E5B05" />
<path d="M 81.58812626654974 3.5238198880457934 L 81.75364537183603 3.124221419232946 L 81.75364537183638 3.124221419232946 L 81.58812626655009 3.5238198880457934Z" fill="#3E5B05" />
<path d="M 82.75968969770636 2.3522564568889854 L 83.18851167565471 2.295800972471752 L 83.18851167565506 2.295800972471752 L 82.75968969770672 2.3522564568889854Z" fill="#3E5B05" />
<path d="M 83.61733365360342 7.553027275099743 L 83.18851167565506 7.609482759516254 L 83.18851167565562 7.609482759516254 L 83.61733365360378 7.553027275099743Z" fill="#3E5B05" />
<path d="M 84.78889708475987 6.381463843942033 L 84.62337797947376 6.7810623127557825 L 84.6233779794743 6.7810623127557825 L 84.78889708476022 6.381463843942033Z" fill="#3E5B05" />
<path d="M 84.66028412712123 91.1516502189898 L 84.46814305802693 91.50844071873018 L 84.46814305802747 91.50844071873018 L 84.66028412712177 91.1516502189898Z" fill="#3E5B05" />
<path d="M 83.0521971579562 92.1446841428868 L 82.6578342316544 92.05143429840312 L 82.65783423165476 92.05143429840312 L 83.05219715795674 92.1446841428868Z" fill="#3E5B05" />
<path d="M 81.79322123961047 91.2365607351194 L 81.67679651068231 90.8484075003896 L 81.67679651068285 90.8484075003896 L 81.79322123961084 91.2365607351194Z" fill="#3E5B05" />
<path d="M 81.67679651068231 90.8484075003896 L 81.66480030775732 90.44334732923832 L 81.66480030775786 90.44334732923832 L 81.67679651068285 90.8484075003896Z" fill="#3E5B05" />
<path d="M 82.00614034166809 91.58135503193601 L 81.79322123961047 91.2365607351194 L 81.79322123961084 91.2365607351194 L 82.00614034166863 91.58135503193601Z" fill="#3E5B05" />
<path d="M 84.36007510681152 7.124205297150855 L 84.01693212241626 7.387508169813095 L 84.0169321224168 7.387508169813095 L 84.36007510681188 7.124205297150855Z" fill="#3E5B05" />
<path d="M 84.68779258238553 86.96801816923559 L 84.80421731131406 87.35617140396585 L 84.8042173113146 87.35617140396585 L 84.68779258238607 86.96801816923559Z" fill="#3E5B05" />
<path d="M 84.741537768681 90.35222712153727 L 84.66028412712123 91.1516502189898 L 84.66028412712177 91.1516502189898 L 84.74153776868137 90.35222712153727Z" fill="#3E5B05" />
<path d="M 83.18851167565506 7.609482759516254 L 82.7596896977069 7.553027275099021 L 82.75968969770726 7.553027275099021 L 83.18851167565562 7.609482759516254Z" fill="#3E5B05" />
<path d="M 84.80421731131406 87.35617140396585 L 84.81621351423851 87.76123157511712 L 84.81621351423905 87.76123157511712 L 84.8042173113146 87.35617140396585Z" fill="#3E5B05" />
<path d="M 82.6578342316544 92.05143429840312 L 82.30104373191384 91.85929322930909 L 82.3010437319142 91.85929322930909 L 82.65783423165476 92.05143429840312Z" fill="#3E5B05" />
<path d="M 81.66480030775732 90.44334732923832 L 81.67679651068158 90.34840750038963 L 81.67679651068194 90.34840750038963 L 81.66480030775786 90.44334732923832Z" fill="#3E5B05" />
<path d="M 84.81621351423851 87.76123157511712 L 84.741537768681 90.35222712153727 L 84.74153776868137 90.35222712153727 L 84.81621351423905 87.76123157511712Z" fill="#3E5B05" />
<path d="M 81.67679651068158 90.34840750038963 L 81.7036767101905 89.53997866849296 L 81.70367671019106 89.53997866849296 L 81.67679651068194 90.34840750038963Z" fill="#3E5B05" />
<path d="M 84.62337797947376 6.7810623127557825 L 84.36007510681152 7.124205297150855 L 84.36007510681188 7.124205297150855 L 84.6233779794743 6.7810623127557825Z" fill="#3E5B05" />
<path d="M 81.72747985039057 87.44729161166698 L 81.82072969487514 87.05292868536455 L 81.82072969487568 87.05292868536455 L 81.7274798503911 87.44729161166698Z" fill="#3E5B05" />
<path d="M 83.45725732910775 92.13268793996303 L 83.0521971579562 92.1446841428868 L 83.05219715795674 92.1446841428868 L 83.45725732910829 92.13268793996303Z" fill="#3E5B05" />
<path d="M 84.01693212241626 7.387508169813095 L 83.61733365360342 7.553027275099743 L 83.61733365360378 7.553027275099743 L 84.0169321224168 7.387508169813095Z" fill="#3E5B05" />
<path d="M 84.1902048606542 91.8033441089769 L 83.8454105638379 92.01626321103365 L 83.84541056383827 92.01626321103365 L 84.19020486065475 91.8033441089769Z" fill="#3E5B05" />
<path d="M 82.30104373191384 91.85929322930909 L 82.00614034166809 91.58135503193601 L 82.00614034166863 91.58135503193601 L 82.3010437319142 91.85929322930909Z" fill="#3E5B05" />
<path d="M 82.7596896977069 7.553027275099021 L 82.36009122889406 7.387508169813455 L 82.36009122889442 7.387508169813455 L 82.75968969770726 7.553027275099021Z" fill="#3E5B05" />
<path d="M 83.8454105638379 92.01626321103365 L 83.45725732910775 92.13268793996303 L 83.45725732910829 92.13268793996303 L 83.84541056383827 92.01626321103365Z" fill="#3E5B05" />
<path d="M 84.46814305802693 91.50844071873018 L 84.1902048606542 91.8033441089769 L 84.19020486065475 91.8033441089769 L 84.46814305802747 91.50844071873018Z" fill="#3E5B05" />
<path d="M 81.7036767101905 89.53997866849296 L 81.72747985039057 87.44729161166698 L 81.7274798503911 87.44729161166698 L 81.70367671019106 89.53997866849296Z" fill="#3E5B05" />
<path d="M 82.36009122889406 7.387508169813455 L 82.0169482444979 7.124205297151576 L 82.01694824449827 7.124205297151576 L 82.36009122889442 7.387508169813455Z" fill="#3E5B05" />
<path d="M 82.0169482444979 7.124205297151576 L 81.7536453718353 6.781062312755241 L 81.75364537183584 6.781062312755241 L 82.01694824449827 7.124205297151576Z" fill="#3E5B05" />
<path d="M 63.29478084481771 22.434980994658268 L 70.22028047117325 22.434980994658268 L 70.22028047117348 22.434980994658268 L 63.294780844818156 22.434980994658268Z" fill="#3E5B05" />
<path d="M 94.86377004471402 22.434980994658268 L 82.47979040749675 22.434980994658268 L 82.47979040749657 22.434980994658268 L 94.86377004471365 22.434980994658268Z" fill="#3E5B05" />
<path d="M 70.22028047117325 14.358282066120585 L 82.47979040749657 14.358282066120585 L 82.47979040749675 14.358282066120585 L 70.22028047117348 14.358282066120585Z" fill="#3E5B05" />
<path d="M 82.47979040749657 22.434980994658268 L 82.47979040749675 22.434980994658268 L 82.47979040749675 14.358282066120585 L 82.47979040749657 14.358282066120585Z" fill="#3E5B05" />
<path d="M 70.22028047117348 22.434980994658268 L 70.22028047117325 22.434980994658268 L 70.22028047117325 14.358282066120585 L 70.22028047117348 14.358282066120585Z" fill="#3E5B05" />
<path d="M 66.71261050796338 77.24107100227866 L 66.79233055992299 76.99074644115456 L 66.79233055992299 76.99074644115456 L 66.71261050796338 77.24107100227866Z" fill="#3E5B05" />
<path d="M 66.79233055992299 76.99074644115456 L 66.80454545310799 76.72831841488667 L 66.80454545310799 76.72831841488667 L 66.79233055992299 76.99074644115456Z" fill="#3E5B05" />
<path d="M 66.80454545310799 76.72831841488667 L 66.74842276273395 76.47167095978223 L 66.74842276273395 76.47167095978223 L 66.80454545310799 76.72831841488667Z" fill="#3E5B05" />
<path d="M 66.74842276273395 76.47167095978223 L 66.62778715740271 76.23829417577669 L 66.62778715740271 76.23829417577669 L 66.74842276273395 76.47167095978223Z" fill="#3E5B05" />
<path d="M 66.62778715740271 76.23829417577669 L 66.45085975425783 76.04409230502671 L 66.45085975425783 76.04409230502671 L 66.62778715740271 76.23829417577669Z" fill="#3E5B05" />
<path d="M 66.45085975425783 76.04409230502671 L 66.22969786343734 75.90229988409001 L 66.22969786343734 75.90229988409001 L 66.45085975425783 76.04409230502671Z" fill="#3E5B05" />
<path d="M 66.22969786343734 75.90229988409001 L 65.97937330231328 75.8225798321304 L 65.97937330231328 75.8225798321304 L 66.22969786343734 75.90229988409001Z" fill="#3E5B05" />
<path d="M 65.97937330231328 75.8225798321304 L 65.71694527604535 75.81036493894541 L 65.71694527604535 75.81036493894541 L 65.97937330231328 75.8225798321304Z" fill="#3E5B05" />
<path d="M 65.71694527604535 75.81036493894541 L 65.46029782094095 75.86648762931945 L 65.46029782094095 75.86648762931945 L 65.71694527604535 75.81036493894541Z" fill="#3E5B05" />
<path d="M 65.46029782094095 75.86648762931945 L 65.22692103693541 75.9871232346507 L 65.22692103693541 75.9871232346507 L 65.46029782094095 75.86648762931945Z" fill="#3E5B05" />
<path d="M 65.22692103693541 75.9871232346507 L 65.03271916618534 76.16405063779557 L 65.03271916618534 76.16405063779557 L 65.22692103693541 75.9871232346507Z" fill="#3E5B05" />
<path d="M 65.03271916618534 76.16405063779557 L 64.89092674524865 76.38521252861607 L 64.89092674524865 76.38521252861607 L 65.03271916618534 76.16405063779557Z" fill="#3E5B05" />
<path d="M 64.89092674524865 76.38521252861607 L 64.81120669328914 76.63553708974013 L 64.81120669328914 76.63553708974013 L 64.89092674524865 76.38521252861607Z" fill="#3E5B05" />
<path d="M 64.81120669328914 76.63553708974013 L 64.79899180010409 76.89796511600805 L 64.79899180010409 76.89796511600805 L 64.81120669328914 76.63553708974013Z" fill="#3E5B05" />
<path d="M 64.79899180010409 76.89796511600805 L 64.85511449047817 77.15461257111245 L 64.85511449047817 77.15461257111245 L 64.79899180010409 76.89796511600805Z" fill="#3E5B05" />
<path d="M 64.85511449047817 77.15461257111245 L 64.97575009580936 77.387989355118 L 64.97575009580936 77.387989355118 L 64.85511449047817 77.15461257111245Z" fill="#3E5B05" />
<path d="M 64.97575009580936 77.387989355118 L 65.15267749895419 77.58219122586806 L 65.15267749895419 77.58219122586806 L 64.97575009580936 77.387989355118Z" fill="#3E5B05" />
<path d="M 65.15267749895419 77.58219122586806 L 65.37383938977474 77.72398364680475 L 65.37383938977474 77.72398364680475 L 65.15267749895419 77.58219122586806Z" fill="#3E5B05" />
<path d="M 65.37383938977474 77.72398364680475 L 65.62416395089885 77.80370369876427 L 65.62416395089885 77.80370369876427 L 65.37383938977474 77.72398364680475Z" fill="#3E5B05" />
<path d="M 65.62416395089885 77.80370369876427 L 65.88659197716673 77.81591859194931 L 65.88659197716673 77.81591859194931 L 65.62416395089885 77.80370369876427Z" fill="#3E5B05" />
<path d="M 65.88659197716673 77.81591859194931 L 66.14323943227117 77.75979590157523 L 66.14323943227117 77.75979590157523 L 65.88659197716673 77.81591859194931Z" fill="#3E5B05" />
<path d="M 66.14323943227117 77.75979590157523 L 66.37661621627672 77.63916029624404 L 66.37661621627672 77.63916029624404 L 66.14323943227117 77.75979590157523Z" fill="#3E5B05" />
<path d="M 66.37661621627672 77.63916029624404 L 66.5708180870267 77.46223289309921 L 66.5708180870267 77.46223289309921 L 66.37661621627672 77.63916029624404Z" fill="#3E5B05" />
<path d="M 66.5708180870267 77.46223289309921 L 66.71261050796338 77.24107100227866 L 66.71261050796338 77.24107100227866 L 66.5708180870267 77.46223289309921Z" fill="#3E5B05" />
<path d="M 86.02974970073387 75.81036493894541 L 85.77310224562943 75.86648762931945 L 85.77310224562943 75.86648762931945 L 86.02974970073387 75.81036493894541Z" fill="#3E5B05" />
<path d="M 86.54250228812586 75.90229988409001 L 86.29217772700176 75.8225798321304 L 86.29217772700176 75.8225798321304 L 86.54250228812586 75.90229988409001Z" fill="#3E5B05" />
<path d="M 85.34552359087391 76.16405063779557 L 85.20373116993721 76.38521252861607 L 85.20373116993721 76.38521252861607 L 85.34552359087391 76.16405063779557Z" fill="#3E5B05" />
<path d="M 86.94059158209123 76.23829417577669 L 86.7636641789464 76.04409230502671 L 86.7636641789464 76.04409230502671 L 86.94059158209123 76.23829417577669Z" fill="#3E5B05" />
<path d="M 85.16791891516665 77.15461257111245 L 85.28855452049788 77.387989355118 L 85.28855452049788 77.387989355118 L 85.16791891516665 77.15461257111245Z" fill="#3E5B05" />
<path d="M 85.28855452049788 77.387989355118 L 85.46548192364276 77.58219122586806 L 85.46548192364276 77.58219122586806 L 85.28855452049788 77.387989355118Z" fill="#3E5B05" />
<path d="M 87.02541493265194 77.24107100227866 L 87.10513498461147 76.99074644115456 L 87.10513498461147 76.99074644115456 L 87.02541493265194 77.24107100227866Z" fill="#3E5B05" />
<path d="M 87.1173498777965 76.72831841488667 L 87.06122718742243 76.47167095978223 L 87.06122718742243 76.47167095978223 L 87.1173498777965 76.72831841488667Z" fill="#3E5B05" />
<path d="M 86.7636641789464 76.04409230502671 L 86.54250228812586 75.90229988409001 L 86.54250228812586 75.90229988409001 L 86.7636641789464 76.04409230502671Z" fill="#3E5B05" />
<path d="M 85.20373116993721 76.38521252861607 L 85.1240111179776 76.63553708974013 L 85.1240111179776 76.63553708974013 L 85.20373116993721 76.38521252861607Z" fill="#3E5B05" />
<path d="M 85.1240111179776 76.63553708974013 L 85.11179622479261 76.89796511600805 L 85.11179622479261 76.89796511600805 L 85.1240111179776 76.63553708974013Z" fill="#3E5B05" />
<path d="M 85.11179622479261 76.89796511600805 L 85.16791891516665 77.15461257111245 L 85.16791891516665 77.15461257111245 L 85.11179622479261 76.89796511600805Z" fill="#3E5B05" />
<path d="M 85.53972546162389 75.9871232346507 L 85.34552359087391 76.16405063779557 L 85.34552359087391 76.16405063779557 L 85.53972546162389 75.9871232346507Z" fill="#3E5B05" />
<path d="M 85.46548192364276 77.58219122586806 L 85.68664381446327 77.72398364680475 L 85.68664381446327 77.72398364680475 L 85.46548192364276 77.58219122586806Z" fill="#3E5B05" />
<path d="M 87.10513498461147 76.99074644115456 L 87.1173498777965 76.72831841488667 L 87.1173498777965 76.72831841488667 L 87.10513498461147 76.99074644115456Z" fill="#3E5B05" />
<path d="M 87.06122718742243 76.47167095978223 L 86.94059158209123 76.23829417577669 L 86.94059158209123 76.23829417577669 L 87.06122718742243 76.47167095978223Z" fill="#3E5B05" />
<path d="M 86.29217772700176 75.8225798321304 L 86.02974970073387 75.81036493894541 L 86.02974970073387 75.81036493894541 L 86.29217772700176 75.8225798321304Z" fill="#3E5B05" />
<path d="M 85.77310224562943 75.86648762931945 L 85.53972546162389 75.9871232346507 L 85.53972546162389 75.9871232346507 L 85.77310224562943 75.86648762931945Z" fill="#3E5B05" />
<path d="M 85.93696837558733 77.80370369876427 L 86.19939640185525 77.81591859194931 L 86.19939640185525 77.81591859194931 L 85.93696837558733 77.80370369876427Z" fill="#3E5B05" />
<path d="M 86.19939640185525 77.81591859194931 L 86.45604385695965 77.75979590157523 L 86.45604385695965 77.75979590157523 L 86.19939640185525 77.81591859194931Z" fill="#3E5B05" />
<path d="M 86.88362251171526 77.46223289309921 L 87.02541493265194 77.24107100227866 L 87.02541493265194 77.24107100227866 L 86.88362251171526 77.46223289309921Z" fill="#3E5B05" />
<path d="M 85.68664381446327 77.72398364680475 L 85.93696837558733 77.80370369876427 L 85.93696837558733 77.80370369876427 L 85.68664381446327 77.72398364680475Z" fill="#3E5B05" />
<path d="M 86.68942064096518 77.63916029624404 L 86.88362251171526 77.46223289309921 L 86.88362251171526 77.46223289309921 L 86.68942064096518 77.63916029624404Z" fill="#3E5B05" />
<path d="M 86.45604385695965 77.75979590157523 L 86.68942064096518 77.63916029624404 L 86.68942064096518 77.63916029624404 L 86.45604385695965 77.75979590157523Z" fill="#3E5B05" />
<path d="M 65.71694527604535 16.098208068438794 L 65.46029782094095 16.154330758812872 L 65.46029782094095 16.154330758812872 L 65.71694527604535 16.098208068438794Z" fill="#3E5B05" />
<path d="M 66.22969786343734 16.190143013583395 L 65.97937330231328 16.11042296162383 L 65.97937330231328 16.11042296162383 L 66.22969786343734 16.190143013583395Z" fill="#3E5B05" />
<path d="M 65.03271916618534 16.45189376728894 L 64.89092674524865 16.673055658109487 L 64.89092674524865 16.673055658109487 L 65.03271916618534 16.45189376728894Z" fill="#3E5B05" />
<path d="M 66.62778715740271 16.52613730527011 L 66.45085975425783 16.331935434520084 L 66.45085975425783 16.331935434520084 L 66.62778715740271 16.52613730527011Z" fill="#3E5B05" />
<path d="M 64.85511449047817 17.442455700605873 L 64.97575009580936 17.67583248461141 L 64.97575009580936 17.67583248461141 L 64.85511449047817 17.442455700605873Z" fill="#3E5B05" />
<path d="M 64.97575009580936 17.67583248461141 L 65.15267749895419 17.870034355361437 L 65.15267749895419 17.870034355361437 L 64.97575009580936 17.67583248461141Z" fill="#3E5B05" />
<path d="M 66.71261050796338 17.528914131772034 L 66.79233055992299 17.278589570647974 L 66.79233055992299 17.278589570647974 L 66.71261050796338 17.528914131772034Z" fill="#3E5B05" />
<path d="M 66.80454545310799 17.01616154438009 L 66.74842276273395 16.75951408927565 L 66.74842276273395 16.75951408927565 L 66.80454545310799 17.01616154438009Z" fill="#3E5B05" />
<path d="M 66.45085975425783 16.331935434520084 L 66.22969786343734 16.190143013583395 L 66.22969786343734 16.190143013583395 L 66.45085975425783 16.331935434520084Z" fill="#3E5B05" />
<path d="M 64.89092674524865 16.673055658109487 L 64.81120669328914 16.923380219233547 L 64.81120669328914 16.923380219233547 L 64.89092674524865 16.673055658109487Z" fill="#3E5B05" />
<path d="M 64.81120669328914 16.923380219233547 L 64.79899180010409 17.18580824550143 L 64.79899180010409 17.18580824550143 L 64.81120669328914 16.923380219233547Z" fill="#3E5B05" />
<path d="M 64.79899180010409 17.18580824550143 L 64.85511449047817 17.442455700605873 L 64.85511449047817 17.442455700605873 L 64.79899180010409 17.18580824550143Z" fill="#3E5B05" />
<path d="M 65.22692103693541 16.274966364144063 L 65.03271916618534 16.45189376728894 L 65.03271916618534 16.45189376728894 L 65.22692103693541 16.274966364144063Z" fill="#3E5B05" />
<path d="M 65.15267749895419 17.870034355361437 L 65.37383938977474 18.011826776298125 L 65.37383938977474 18.011826776298125 L 65.15267749895419 17.870034355361437Z" fill="#3E5B05" />
<path d="M 66.79233055992299 17.278589570647974 L 66.80454545310799 17.01616154438009 L 66.80454545310799 17.01616154438009 L 66.79233055992299 17.278589570647974Z" fill="#3E5B05" />
<path d="M 66.74842276273395 16.75951408927565 L 66.62778715740271 16.52613730527011 L 66.62778715740271 16.52613730527011 L 66.74842276273395 16.75951408927565Z" fill="#3E5B05" />
<path d="M 65.97937330231328 16.11042296162383 L 65.71694527604535 16.098208068438794 L 65.71694527604535 16.098208068438794 L 65.97937330231328 16.11042296162383Z" fill="#3E5B05" />
<path d="M 65.46029782094095 16.154330758812872 L 65.22692103693541 16.274966364144063 L 65.22692103693541 16.274966364144063 L 65.46029782094095 16.154330758812872Z" fill="#3E5B05" />
<path d="M 65.62416395089885 18.091546828257695 L 65.88659197716673 18.10376172144273 L 65.88659197716673 18.10376172144273 L 65.62416395089885 18.091546828257695Z" fill="#3E5B05" />
<path d="M 65.88659197716673 18.10376172144273 L 66.14323943227117 18.04763903106865 L 66.14323943227117 18.04763903106865 L 65.88659197716673 18.10376172144273Z" fill="#3E5B05" />
<path d="M 66.5708180870267 17.75007602259258 L 66.71261050796338 17.528914131772034 L 66.71261050796338 17.528914131772034 L 66.5708180870267 17.75007602259258Z" fill="#3E5B05" />
<path d="M 65.37383938977474 18.011826776298125 L 65.62416395089885 18.091546828257695 L 65.62416395089885 18.091546828257695 L 65.37383938977474 18.011826776298125Z" fill="#3E5B05" />
<path d="M 66.37661621627672 17.927003425737457 L 66.5708180870267 17.75007602259258 L 66.5708180870267 17.75007602259258 L 66.37661621627672 17.927003425737457Z" fill="#3E5B05" />
<path d="M 66.14323943227117 18.04763903106865 L 66.37661621627672 17.927003425737457 L 66.37661621627672 17.927003425737457 L 66.14323943227117 18.04763903106865Z" fill="#3E5B05" />
<path d="M 85.68664381446327 18.011826776298125 L 85.93696837558733 18.091546828257695 L 85.93696837558733 18.091546828257695 L 85.68664381446327 18.011826776298125Z" fill="#3E5B05" />
<path d="M 86.68942064096518 17.927003425737457 L 86.88362251171526 17.75007602259258 L 86.88362251171526 17.75007602259258 L 86.68942064096518 17.927003425737457Z" fill="#3E5B05" />
<path d="M 86.45604385695965 18.04763903106865 L 86.68942064096518 17.927003425737457 L 86.68942064096518 17.927003425737457 L 86.45604385695965 18.04763903106865Z" fill="#3E5B05" />
<path d="M 85.77310224562943 16.154330758812872 L 85.53972546162389 16.274966364144063 L 85.53972546162389 16.274966364144063 L 85.77310224562943 16.154330758812872Z" fill="#3E5B05" />
<path d="M 85.16791891516665 17.442455700605873 L 85.28855452049788 17.67583248461141 L 85.28855452049788 17.67583248461141 L 85.16791891516665 17.442455700605873Z" fill="#3E5B05" />
<path d="M 85.11179622479261 17.18580824550143 L 85.16791891516665 17.442455700605873 L 85.16791891516665 17.442455700605873 L 85.11179622479261 17.18580824550143Z" fill="#3E5B05" />
<path d="M 85.46548192364276 17.870034355361437 L 85.68664381446327 18.011826776298125 L 85.68664381446327 18.011826776298125 L 85.46548192364276 17.870034355361437Z" fill="#3E5B05" />
<path d="M 85.34552359087391 16.45189376728894 L 85.20373116993721 16.673055658109487 L 85.20373116993721 16.673055658109487 L 85.34552359087391 16.45189376728894Z" fill="#3E5B05" />
<path d="M 86.19939640185525 18.10376172144273 L 86.45604385695965 18.04763903106865 L 86.45604385695965 18.04763903106865 L 86.19939640185525 18.10376172144273Z" fill="#3E5B05" />
<path d="M 87.06122718742243 16.75951408927565 L 86.94059158209123 16.52613730527011 L 86.94059158209123 16.52613730527011 L 87.06122718742243 16.75951408927565Z" fill="#3E5B05" />
<path d="M 87.1173498777965 17.01616154438009 L 87.06122718742243 16.75951408927565 L 87.06122718742243 16.75951408927565 L 87.1173498777965 17.01616154438009Z" fill="#3E5B05" />
<path d="M 86.7636641789464 16.331935434520084 L 86.54250228812586 16.190143013583395 L 86.54250228812586 16.190143013583395 L 86.7636641789464 16.331935434520084Z" fill="#3E5B05" />
<path d="M 86.02974970073387 16.098208068438794 L 85.77310224562943 16.154330758812872 L 85.77310224562943 16.154330758812872 L 86.02974970073387 16.098208068438794Z" fill="#3E5B05" />
<path d="M 85.1240111179776 16.923380219233547 L 85.11179622479261 17.18580824550143 L 85.11179622479261 17.18580824550143 L 85.1240111179776 16.923380219233547Z" fill="#3E5B05" />
<path d="M 86.29217772700176 16.11042296162383 L 86.02974970073387 16.098208068438794 L 86.02974970073387 16.098208068438794 L 86.29217772700176 16.11042296162383Z" fill="#3E5B05" />
<path d="M 86.54250228812586 16.190143013583395 L 86.29217772700176 16.11042296162383 L 86.29217772700176 16.11042296162383 L 86.54250228812586 16.190143013583395Z" fill="#3E5B05" />
<path d="M 86.94059158209123 16.52613730527011 L 86.7636641789464 16.331935434520084 L 86.7636641789464 16.331935434520084 L 86.94059158209123 16.52613730527011Z" fill="#3E5B05" />
<path d="M 87.02541493265194 17.528914131772034 L 87.10513498461147 17.278589570647974 L 87.10513498461147 17.278589570647974 L 87.02541493265194 17.528914131772034Z" fill="#3E5B05" />
<path d="M 87.10513498461147 17.278589570647974 L 87.1173498777965 17.01616154438009 L 87.1173498777965 17.01616154438009 L 87.10513498461147 17.278589570647974Z" fill="#3E5B05" />
<path d="M 85.28855452049788 17.67583248461141 L 85.46548192364276 17.870034355361437 L 85.46548192364276 17.870034355361437 L 85.28855452049788 17.67583248461141Z" fill="#3E5B05" />
<path d="M 85.53972546162389 16.274966364144063 L 85.34552359087391 16.45189376728894 L 85.34552359087391 16.45189376728894 L 85.53972546162389 16.274966364144063Z" fill="#3E5B05" />
<path d="M 85.93696837558733 18.091546828257695 L 86.19939640185525 18.10376172144273 L 86.19939640185525 18.10376172144273 L 85.93696837558733 18.091546828257695Z" fill="#3E5B05" />
<path d="M 85.20373116993721 16.673055658109487 L 85.1240111179776 16.923380219233547 L 85.1240111179776 16.923380219233547 L 85.20373116993721 16.673055658109487Z" fill="#3E5B05" />
<path d="M 86.88362251171526 17.75007602259258 L 87.02541493265194 17.528914131772034 L 87.02541493265194 17.528914131772034 L 86.88362251171526 17.75007602259258Z" fill="#3E5B05" />
<path d="M 98.67986114023512 20.495568478612945 L 98.76505553365516 19.84852086585652 L 98.76505553365534 19.84852086585652 L 98.6798611402352 20.495568478612945Z" fill="#3E5B05" />
<path d="M 99.41217119786467 22.2633354315788 L 99.01483285679838 21.745568478612842 L 99.01483285679855 21.745568478612842 L 99.41217119786485 22.2633354315788Z" fill="#3E5B05" />
<path d="M 102.43042103138437 22.660505012469518 L 101.82723973505699 22.91038304433306 L 101.82723973505709 22.91038304433306 L 102.43042103138445 22.660505012469518Z" fill="#3E5B05" />
<path d="M 100.53300840664015 18.08075391288877 L 101.18012407084605 17.995568478610174 L 101.18012407084622 17.995568478610174 L 100.53300840664023 18.08075391288877Z" fill="#3E5B05" />
<path d="M 99.01483285679657 19.24556847861269 L 99.41217119786114 18.727801525645468 L 99.41217119786124 18.727801525645468 L 99.01483285679666 19.24556847861269Z" fill="#3E5B05" />
<path d="M 98.76505553365516 19.84852086585652 L 99.01483285679657 19.24556847861269 L 99.01483285679666 19.24556847861269 L 98.76505553365534 19.84852086585652Z" fill="#3E5B05" />
<path d="M 99.01483285679838 21.745568478612842 L 98.76505553365688 21.14261609136919 L 98.76505553365705 21.14261609136919 L 99.01483285679855 21.745568478612842Z" fill="#3E5B05" />
<path d="M 100.53300840664447 22.910383044333962 L 99.92999260554387 22.660631988072833 L 99.92999260554397 22.660631988072833 L 100.53300840664465 22.910383044333962Z" fill="#3E5B05" />
<path d="M 103.34544139584095 21.745534453746412 L 102.94817388869562 22.263261050990323 L 102.94817388869579 22.263261050990323 L 103.34544139584114 21.745534453746412Z" fill="#3E5B05" />
<path d="M 101.82723973505699 22.91038304433306 L 101.18012407085082 22.99556847861066 L 101.18012407085092 22.99556847861066 L 101.82723973505709 22.91038304433306Z" fill="#3E5B05" />
<path d="M 103.59519291336197 19.848523184762513 L 103.68038700146049 20.49556847860807 L 103.68038700146067 20.49556847860807 L 103.59519291336206 19.848523184762513Z" fill="#3E5B05" />
<path d="M 101.8272397350524 18.080753912887054 L 102.43042103138139 18.33063194474852 L 102.43042103138148 18.33063194474852 L 101.82723973505257 18.080753912887054Z" fill="#3E5B05" />
<path d="M 102.94813402717256 18.727875910276104 L 103.34544139583888 19.245602503470096 L 103.34544139583896 19.245602503470096 L 102.94813402717266 18.727875910276104Z" fill="#3E5B05" />
<path d="M 103.68038700146049 20.49556847860807 L 103.59519291336287 21.14261377245381 L 103.59519291336305 21.14261377245381 L 103.68038700146067 20.49556847860807Z" fill="#3E5B05" />
<path d="M 98.76505553365688 21.14261609136919 L 98.67986114023512 20.495568478612945 L 98.6798611402352 20.495568478612945 L 98.76505553365705 21.14261609136919Z" fill="#3E5B05" />
<path d="M 99.92999260554387 22.660631988072833 L 99.41217119786467 22.2633354315788 L 99.41217119786485 22.2633354315788 L 99.92999260554397 22.660631988072833Z" fill="#3E5B05" />
<path d="M 99.41217119786114 18.727801525645468 L 99.92999260554045 18.33050496915044 L 99.92999260554053 18.33050496915044 L 99.41217119786124 18.727801525645468Z" fill="#3E5B05" />
<path d="M 99.92999260554045 18.33050496915044 L 100.53300840664015 18.08075391288877 L 100.53300840664023 18.08075391288877 L 99.92999260554053 18.33050496915044Z" fill="#3E5B05" />
<path d="M 103.59519291336287 21.14261377245381 L 103.34544139584095 21.745534453746412 L 103.34544139584114 21.745534453746412 L 103.59519291336305 21.14261377245381Z" fill="#3E5B05" />
<path d="M 102.94817388869562 22.263261050990323 L 102.43042103138437 22.660505012469518 L 102.43042103138445 22.660505012469518 L 102.94817388869579 22.263261050990323Z" fill="#3E5B05" />
<path d="M 101.18012407085082 22.99556847861066 L 100.53300840664447 22.910383044333962 L 100.53300840664465 22.910383044333962 L 101.18012407085092 22.99556847861066Z" fill="#3E5B05" />
<path d="M 103.34544139583888 19.245602503470096 L 103.59519291336197 19.848523184762513 L 103.59519291336206 19.848523184762513 L 103.34544139583896 19.245602503470096Z" fill="#3E5B05" />
<path d="M 102.43042103138139 18.33063194474852 L 102.94813402717256 18.727875910276104 L 102.94813402717266 18.727875910276104 L 102.43042103138148 18.33063194474852Z" fill="#3E5B05" />
<path d="M 101.18012407084605 17.995568478610174 L 101.8272397350524 18.080753912887054 L 101.82723973505257 18.080753912887054 L 101.18012407084622 17.995568478610174Z" fill="#3E5B05" />
<path d="M 98.97555988502617 70.89315403935078 L 99.2253372081666 70.29020165210672 L 99.22533720816669 70.29020165210672 L 98.97555988502636 70.89315403935082Z" fill="#3E5B05" />
<path d="M 69.20868494119857 85.70517221338355 L 68.60544471967175 85.9550162178549 L 68.60544471967185 85.95501621785496 L 69.20868494119865 85.70517221338359Z" fill="#3E5B05" />
<path d="M 70.3733978979769 82.89315635828491 L 70.4585919860757 83.54020165213056 L 70.45859198607579 83.54020165213056 L 70.373397897977 82.89315635828495Z" fill="#3E5B05" />
<path d="M 67.31121339125941 85.95501621785644 L 66.7081975901589 85.70526516159522 L 66.708197590159 85.70526516159528 L 67.3112133912595 85.95501621785644Z" fill="#3E5B05" />
<path d="M 98.89036549160542 71.54020165210707 L 98.97555988502617 70.89315403935078 L 98.97555988502636 70.89315403935082 L 98.89036549160551 71.54020165210711Z" fill="#3E5B05" />
<path d="M 103.5559299550416 70.29022656120532 L 103.80569726473226 70.893156358257 L 103.80569726473244 70.893156358257 L 103.55592995504178 70.29022656120532Z" fill="#3E5B05" />
<path d="M 70.12363058828886 84.79017674302906 L 69.72633901179066 85.30789422046361 L 69.72633901179076 85.30789422046361 L 70.12363058828895 84.79017674302906Z" fill="#3E5B05" />
<path d="M 103.80569958381739 72.18724292964903 L 103.81430961314769 72.12184876725428 L 103.81430961314736 72.12184876725428 L 103.8056995838173 72.18724292964897Z" fill="#3E5B05" />
<path d="M 68.60544471967175 85.9550162178549 L 67.95832905546568 86.04020165213342 L 67.95832905546585 86.04020165213342 L 68.60544471967185 85.95501621785496Z" fill="#3E5B05" />
<path d="M 98.9755598850269 72.18724926486345 L 98.89036549160542 71.54020165210707 L 98.89036549160551 71.54020165210711 L 98.97555988502708 72.18724926486345Z" fill="#3E5B05" />
<path d="M 101.39062842221644 69.0402016521048 L 102.03774408642279 69.12538708638132 L 102.03774408642288 69.12538708638132 L 101.39062842221661 69.04020165210484Z" fill="#3E5B05" />
<path d="M 103.15863837854367 69.77250908377131 L 103.5559299550416 70.29022656120532 L 103.55592995504178 70.29022656120532 L 103.15863837854377 69.77250908377135Z" fill="#3E5B05" />
<path d="M 66.19037618247961 85.3079686051012 L 65.79303784141376 84.79020165213505 L 65.79303784141385 84.79020165213505 L 66.1903761824797 85.3079686051012Z" fill="#3E5B05" />
<path d="M 70.37340021706166 84.18724292967796 L 70.12363058828886 84.79017674302906 L 70.12363058828895 84.79017674302906 L 70.37340021706176 84.18724292967796Z" fill="#3E5B05" />
<path d="M 67.95832905546568 86.04020165213342 L 67.31121339125941 85.95501621785644 L 67.3112133912595 85.95501621785644 L 67.95832905546585 86.04020165213342Z" fill="#3E5B05" />
<path d="M 65.79303784141376 84.79020165213505 L 65.54326051827164 84.18724926489168 L 65.54326051827172 84.18724926489168 L 65.79303784141385 84.79020165213505Z" fill="#3E5B05" />
<path d="M 65.54326051827164 84.18724926489168 L 65.45806612485033 83.54020165213548 L 65.45806612485042 83.54020165213552 L 65.54326051827172 84.18724926489168Z" fill="#3E5B05" />
<path d="M 100.74351275801044 69.12538708638299 L 101.39062842221644 69.0402016521048 L 101.39062842221661 69.04020165210484 L 100.74351275801062 69.12538708638303Z" fill="#3E5B05" />
<path d="M 66.7081975901589 85.70526516159522 L 66.19037618247961 85.3079686051012 L 66.1903761824797 85.3079686051012 L 66.708197590159 85.70526516159528Z" fill="#3E5B05" />
<path d="M 70.4585919860757 83.54020165213056 L 70.37340021706166 84.18724292967796 L 70.37340021706176 84.18724292967796 L 70.45859198607579 83.54020165213056Z" fill="#3E5B05" />
<path d="M 65.45806612485033 83.54020165213548 L 65.54326051827091 82.893154039379 L 65.543260518271 82.893154039379 L 65.45806612485042 83.54020165213552Z" fill="#3E5B05" />
<path d="M 102.03774408642279 69.12538708638132 L 102.64098430795231 69.37523109085218 L 102.64098430795248 69.37523109085218 L 102.03774408642288 69.12538708638132Z" fill="#3E5B05" />
<path d="M 103.80569726473226 70.893156358257 L 103.89089135283106 71.54020165210261 L 103.89089135283123 71.54020165210261 L 103.80569726473244 70.893156358257Z" fill="#3E5B05" />
<path d="M 69.72633901179066 85.30789422046361 L 69.20868494119857 85.70517221338355 L 69.20868494119865 85.70517221338359 L 69.72633901179076 85.30789422046361Z" fill="#3E5B05" />
<path d="M 68.60544471960137 7.085187086412572 L 69.20862601593028 7.335065118273856 L 69.20862601593036 7.335065118273856 L 68.60544471960146 7.085187086412572Z" fill="#3E5B05" />
<path d="M 65.54326051820557 10.147049264894616 L 65.45806612478428 9.500001652138462 L 65.45806612478445 9.500001652138462 L 65.54326051820567 10.147049264894616Z" fill="#3E5B05" />
<path d="M 99.22533720816912 72.79020165210683 L 98.9755598850269 72.18724926486345 L 98.97555988502708 72.18724926486345 L 99.22533720816931 72.79020165210683Z" fill="#3E5B05" />
<path d="M 69.20862601593028 7.335065118273856 L 69.72637887324161 7.732309079752058 L 69.7263788732417 7.732309079752058 L 69.20862601593036 7.335065118273856Z" fill="#3E5B05" />
<path d="M 102.64098430795231 69.37523109085218 L 103.15863837854367 69.77250908377131 L 103.15863837854377 69.77250908377135 L 102.64098430795248 69.37523109085218Z" fill="#3E5B05" />
<path d="M 99.2253372081666 70.29020165210672 L 99.62267554923154 69.77243469913972 L 99.62267554923163 69.77243469913972 L 99.22533720816669 70.29020165210672Z" fill="#3E5B05" />
<path d="M 65.54326051820414 8.852954039381855 L 65.79303784134554 8.250001652138023 L 65.79303784134564 8.250001652138023 L 65.54326051820422 8.852954039381855Z" fill="#3E5B05" />
<path d="M 70.12363058828598 82.29022656123277 L 70.3733978979769 82.89315635828491 L 70.373397897977 82.89315635828495 L 70.12363058828615 82.29022656123277Z" fill="#3E5B05" />
<path d="M 66.70819759009294 11.665065161598168 L 66.19037618241364 11.267768605104134 L 66.19037618241373 11.267768605104134 L 66.70819759009304 11.665065161598168Z" fill="#3E5B05" />
<path d="M 67.31121339119345 11.914816217859387 L 66.70819759009294 11.665065161598168 L 66.70819759009304 11.665065161598168 L 67.31121339119355 11.914816217859387Z" fill="#3E5B05" />
<path d="M 67.95832905539972 12.000001652136087 L 67.31121339119345 11.914816217859387 L 67.31121339119355 11.914816217859387 L 67.9583290553998 12.000001652136087Z" fill="#3E5B05" />
<path d="M 65.54326051827091 82.893154039379 L 65.79303784141123 82.2902016521349 L 65.79303784141133 82.2902016521349 L 65.543260518271 82.893154039379Z" fill="#3E5B05" />
<path d="M 65.79303784134554 8.250001652138023 L 66.19037618241039 7.732234699171163 L 66.19037618241049 7.732234699171163 L 65.79303784134564 8.250001652138023Z" fill="#3E5B05" />
<path d="M 99.62267554923154 69.77243469913972 L 100.14049695691075 69.37513814264466 L 100.14049695691092 69.37513814264466 L 99.62267554923163 69.77243469913972Z" fill="#3E5B05" />
<path d="M 67.31121339125508 81.12538708641125 L 67.95832905546108 81.04020165213302 L 67.95832905546116 81.04020165213306 L 67.31121339125518 81.12538708641125Z" fill="#3E5B05" />
<path d="M 70.12364638038785 8.250035676995429 L 70.3734002169939 8.852960374586354 L 70.37340021699399 8.852960374586354 L 70.12364638038794 8.250035676995429Z" fill="#3E5B05" />
<path d="M 70.3734002169956 10.14704292968091 L 70.12363058822281 10.74997674303196 L 70.12363058822298 10.74997674303196 L 70.37340021699579 10.14704292968091Z" fill="#3E5B05" />
<path d="M 68.6054447196058 11.914816217857853 L 67.95832905539972 12.000001652136087 L 67.9583290553998 12.000001652136087 L 68.60544471960588 11.914816217857853Z" fill="#3E5B05" />
<path d="M 65.79303784141123 82.2902016521349 L 66.19037618247609 81.77243469916795 L 66.19037618247617 81.77243469916795 L 65.79303784141133 82.2902016521349Z" fill="#3E5B05" />
<path d="M 69.20862601599624 81.37526511827092 L 69.7263390117875 81.77250908379854 L 69.72633901178759 81.77250908379854 L 69.20862601599643 81.37526511827092Z" fill="#3E5B05" />
<path d="M 69.7263390117246 11.267694220466549 L 69.20862601593335 11.664938185994943 L 69.20862601593343 11.664938185994943 L 69.72633901172479 11.267694220466549Z" fill="#3E5B05" />
<path d="M 66.19037618247609 81.77243469916795 L 66.7081975901554 81.37513814267292 L 66.70819759015548 81.37513814267292 L 66.19037618247617 81.77243469916795Z" fill="#3E5B05" />
<path d="M 65.7930378413478 10.750001652137996 L 65.54326051820557 10.147049264894616 L 65.54326051820567 10.147049264894616 L 65.7930378413479 10.750001652137996Z" fill="#3E5B05" />
<path d="M 66.70819759008933 7.334938142675865 L 67.31121339118884 7.085187086413474 L 67.31121339118894 7.085187086413474 L 66.70819759008951 7.334938142675865Z" fill="#3E5B05" />
<path d="M 70.3734002169939 8.852960374586354 L 70.45859198600947 9.500001652133408 L 70.45859198600955 9.500001652133408 L 70.37340021699399 8.852960374586354Z" fill="#3E5B05" />
<path d="M 66.7081975901554 81.37513814267292 L 67.31121339125508 81.12538708641125 L 67.31121339125518 81.12538708641125 L 66.70819759015548 81.37513814267292Z" fill="#3E5B05" />
<path d="M 66.19037618241364 11.267768605104134 L 65.7930378413478 10.750001652137996 L 65.7930378413479 10.750001652137996 L 66.19037618241373 11.267768605104134Z" fill="#3E5B05" />
<path d="M 67.31121339118884 7.085187086413474 L 67.95832905539511 7.000001652135961 L 67.9583290553952 7.000001652135961 L 67.31121339118894 7.085187086413474Z" fill="#3E5B05" />
<path d="M 100.14049695691075 69.37513814264466 L 100.74351275801044 69.12538708638299 L 100.74351275801062 69.12538708638303 L 100.14049695691092 69.37513814264466Z" fill="#3E5B05" />
<path d="M 68.60544471966743 81.12538708640972 L 69.20862601599624 81.37526511827092 L 69.20862601599643 81.37526511827092 L 68.60544471966752 81.12538708640976Z" fill="#3E5B05" />
<path d="M 67.95832905546108 81.04020165213302 L 68.60544471966743 81.12538708640972 L 68.60544471966752 81.12538708640976 L 67.95832905546116 81.04020165213306Z" fill="#3E5B05" />
<path d="M 69.7263390117875 81.77250908379854 L 70.12363058828598 82.29022656123277 L 70.12363058828615 82.29022656123277 L 69.72633901178759 81.77250908379854Z" fill="#3E5B05" />
<path d="M 70.45859198600947 9.500001652133408 L 70.3734002169956 10.14704292968091 L 70.37340021699579 10.14704292968091 L 70.45859198600955 9.500001652133408Z" fill="#3E5B05" />
<path d="M 70.12363058822281 10.74997674303196 L 69.7263390117246 11.267694220466549 L 69.72633901172479 11.267694220466549 L 70.12363058822298 10.74997674303196Z" fill="#3E5B05" />
<path d="M 69.20862601593335 11.664938185994943 L 68.6054447196058 11.914816217857853 L 68.60544471960588 11.914816217857853 L 69.20862601593343 11.664938185994943Z" fill="#3E5B05" />
<path d="M 65.45806612478428 9.500001652138462 L 65.54326051820414 8.852954039381855 L 65.54326051820422 8.852954039381855 L 65.45806612478445 9.500001652138462Z" fill="#3E5B05" />
<path d="M 69.72637887324161 7.732309079752058 L 70.12364638038785 8.250035676995429 L 70.12364638038794 8.250035676995429 L 69.7263788732417 7.732309079752058Z" fill="#3E5B05" />
<path d="M 67.95832905539511 7.000001652135961 L 68.60544471960137 7.085187086412572 L 68.60544471960146 7.085187086412572 L 67.9583290553952 7.000001652135961Z" fill="#3E5B05" />
<path d="M 103.22593654101581 73.19142376573288 L 103.6109149641814 72.65749459944115 L 103.61091496418108 72.65749459944115 L 103.2259365410155 73.19142376573288Z" fill="#3E5B05" />
<path d="M 103.6109149641814 72.65749459944115 L 103.80569958381739 72.18724292964903 L 103.8056995838173 72.18724292964897 L 103.61091496418108 72.65749459944115Z" fill="#3E5B05" />
<path d="M 103.81430961314769 72.12184876725428 L 103.84458452870903 72.04211888044229 L 103.84458452870872 72.04211888044229 L 103.81430961314736 72.12184876725428Z" fill="#3E5B05" />
<path d="M 103.89089135283106 71.54020165210261 L 103.84458452870872 72.04211888044229 L 103.84458452870903 72.04211888044229 L 103.89089135283123 71.54020165210261Z" fill="#3E5B05" />
<path d="M 66.70819759008951 7.334938142675865 L 66.32728492751824 7.627191971738927 L 66.32728492751787 7.627191971738927 L 66.70819759008933 7.334938142675865Z" fill="#3E5B05" />
<path d="M 66.32728492751824 7.627191971738927 L 66.19037618241049 7.732234699171163 L 66.19037618241039 7.732234699171163 L 66.32728492751787 7.627191971738927Z" fill="#3E5B05" />
<path d="M 99.6615631185357 73.29766658085116 L 100.19549228482741 73.68264500401673 L 100.1954922848271 73.68264500401673 L 99.66156311853537 73.29766658085116Z" fill="#3E5B05" />
<path d="M 102.71588490254422 73.60751998899418 L 103.22593654101581 73.19142376573288 L 103.2259365410155 73.19142376573288 L 102.7158849025439 73.60751998899418Z" fill="#3E5B05" />
<path d="M 101.46575343723912 73.98275107976876 L 102.11551922502811 73.87742699924148 L 102.1155192250278 73.87742699924148 L 101.4657534372388 73.98275107976876Z" fill="#3E5B05" />
<path d="M 102.11551922502811 73.87742699924148 L 102.71588490254422 73.60751998899418 L 102.7158849025439 73.60751998899418 L 102.1155192250278 73.87742699924148Z" fill="#3E5B05" />
<path d="M 99.22533720816931 72.79020165210683 L 99.6615631185357 73.29766658085116 L 99.66156311853537 73.29766658085116 L 99.22533720816912 72.79020165210683Z" fill="#3E5B05" />
<path d="M 100.19549228482741 73.68264500401673 L 100.81086800382633 73.91631456854438 L 100.81086800382602 73.91631456854438 L 100.1954922848271 73.68264500401673Z" fill="#3E5B05" />
<path d="M 100.81086800382633 73.91631456854438 L 101.46575343723912 73.98275107976876 L 101.4657534372388 73.98275107976876 L 100.81086800382602 73.91631456854438Z" fill="#3E5B05" />
<path d="M 21.26817680446681 10.468020207993062 L 21.268176710188513 2.1612472181686825e-06 L 21.268176710188964 2.1612472181686825e-06 L 21.26817680446726 10.468020207993062Z" fill="#3E5B05" />
<path d="M 34.30603774856176 1.9669672290945073e-06 L 34.306037842839956 10.468020013713163 L 34.306037842840404 10.468020013713163 L 34.306037748562204 1.9669672290945073e-06Z" fill="#3E5B05" />
<path d="M 0.0 2.4781689482722413e-06 L 1.4013122729750193e-06 94.04020247816914 L 1.4013127016099245e-06 94.04020247816914 L 4.286349053472804e-13 2.4781689482722413e-06Z" fill="#3E5B05" />
<path d="M 39.428268537991954 15.608283630451272 L 39.42826876971659 78.29392881878216 L 39.428268769717036 78.29392881878216 L 39.4282685379924 15.608283630451272Z" fill="#3E5B05" />
<path d="M 34.30603783113326 83.23142884156529 L 34.306037910371884 94.04020196696742 L 34.30603791037233 94.04020196696742 L 34.30603783113371 83.23142884156529Z" fill="#3E5B05" />
<path d="M 21.268176710188513 94.04020216124745 L 21.268176630949892 83.23142903584528 L 21.268176630950343 83.23142903584528 L 21.268176710188964 94.04020216124745Z" fill="#3E5B05" />
<path d="M 34.306037910371884 94.04020196696742 L 55.43550140131383 94.04020165211269 L 55.43550140131428 94.04020165211269 L 34.30603791037233 94.04020196696742Z" fill="#3E5B05" />
<path d="M 7.859279395142624 15.608283517067775 L 39.428268537991954 15.608283630451272 L 39.4282685379924 15.608283630451272 L 7.859279395143052 15.608283517067775Z" fill="#3E5B05" />
<path d="M 55.43550000000147 1.6521126021018517e-06 L 34.30603774856176 1.9669672290945073e-06 L 34.306037748562204 1.9669672290945073e-06 L 55.435500000001916 1.6521126021018517e-06Z" fill="#3E5B05" />
<path d="M 55.43550140131428 94.04020165211269 L 55.435500000001916 1.6521126021018517e-06 L 34.306037748562204 1.9669672290945073e-06 L 34.306037842840404 10.468020013713163 L 21.26817680446726 10.468020207993062 L 21.268176710188964 2.1612472181686825e-06 L 4.286349053472804e-13 2.4781689482722413e-06 L 1.4013127016099245e-06 94.04020247816914 L 21.268176710188964 94.04020216124745 L 21.268176630950343 83.23142903584528 L 34.30603783113371 83.23142884156529 L 34.30603791037233 94.04020196696742ZM 7.859279395143052 15.608283517067775 L 39.4282685379924 15.608283630451272 L 39.428268769717036 78.29392881878216 L 7.859279592844811 78.29392872164222Z" fill="#3E5B05" />
<path d="M 34.306037842839956 10.468020013713163 L 21.26817680446681 10.468020207993062 L 21.26817680446726 10.468020207993062 L 34.306037842840404 10.468020013713163Z" fill="#3E5B05" />
<path d="M 7.859279592844383 78.29392872164222 L 7.859279395142624 15.608283517067775 L 7.859279395143052 15.608283517067775 L 7.859279592844811 78.29392872164222Z" fill="#3E5B05" />
<path d="M 21.268176630949892 83.23142903584528 L 34.30603783113326 83.23142884156529 L 34.30603783113371 83.23142884156529 L 21.268176630950343 83.23142903584528Z" fill="#3E5B05" />
<path d="M 1.4013122729750193e-06 94.04020247816914 L 21.268176710188513 94.04020216124745 L 21.268176710188964 94.04020216124745 L 1.4013127016099245e-06 94.04020247816914Z" fill="#3E5B05" />
<path d="M 39.42826876971659 78.29392881878216 L 7.859279592844383 78.29392872164222 L 7.859279592844811 78.29392872164222 L 39.428268769717036 78.29392881878216Z" fill="#3E5B05" />
<path d="M 21.268176710188513 2.1612472181686825e-06 L 0.0 2.4781689482722413e-06 L 4.286349053472804e-13 2.4781689482722413e-06 L 21.268176710188964 2.1612472181686825e-06Z" fill="#3E5B05" />
<path d="M 55.43550140131383 94.04020165211269 L 55.43550000000147 1.6521126021018517e-06 L 55.435500000001916 1.6521126021018517e-06 L 55.43550140131428 94.04020165211269Z" fill="#3E5B05" />
<path d="M 55.43550000000147 1.6521126021018517e-06 L 55.43550140131383 94.04020165211269 L 34.306037910371884 94.04020196696742 L 34.30603783113326 83.23142884156529 L 21.268176630949892 83.23142903584528 L 21.268176710188513 94.04020216124745 L 1.4013122729750193e-06 94.04020247816914 L 0.0 2.4781689482722413e-06 L 21.268176710188513 2.1612472181686825e-06 L 21.26817680446681 10.468020207993062 L 34.306037842839956 10.468020013713163 L 34.30603774856176 1.9669672290945073e-06ZM 39.428268537991954 15.608283630451272 L 7.859279395142624 15.608283517067775 L 7.859279592844383 78.29392872164222 L 39.42826876971659 78.29392881878216Z" fill="#3E5B05" />
</svg>
