%TF.GenerationSoftware,KiCad,Pcbnew,10.0.2*%
%TF.CreationDate,2026-05-23T16:48:59-05:00*%
%TF.ProjectId,radar,72616461-722e-46b6-9963-61645f706362,rev?*%
%TF.SameCoordinates,Original*%
%TF.FileFunction,Legend,Bot*%
%TF.FilePolarity,Positive*%
%FSLAX46Y46*%
G04 Gerber Fmt 4.6, Leading zero omitted, Abs format (unit mm)*
G04 Created by KiCad (PCBNEW 10.0.2) date 2026-05-23 16:48:59*
%MOMM*%
%LPD*%
G01*
G04 APERTURE LIST*
%ADD10C,0.000000*%
%ADD11C,0.100000*%
%ADD12C,0.125000*%
%ADD13C,0.300000*%
%ADD14C,0.150000*%
%ADD15C,0.120000*%
G04 APERTURE END LIST*
D10*
G36*
X136801600Y-61324600D02*
G01*
X135601600Y-61324600D01*
X135601600Y-60124600D01*
X136801600Y-60124600D01*
X136801600Y-61324600D01*
G37*
G36*
X135201600Y-59324600D02*
G01*
X137201600Y-59324600D01*
X137601600Y-59324600D01*
X137601600Y-62124600D01*
X137201600Y-62124600D01*
X135201600Y-62124600D01*
X134801600Y-62124600D01*
X134801600Y-61724600D01*
X135201600Y-61724600D01*
X137201600Y-61724600D01*
X137201600Y-59724600D01*
X135201600Y-59724600D01*
X135201600Y-61724600D01*
X134801600Y-61724600D01*
X134801600Y-59324600D01*
X135201600Y-59324600D01*
G37*
G36*
X138401600Y-62124600D02*
G01*
X138001600Y-62124600D01*
X138001600Y-61724600D01*
X138401600Y-61724600D01*
X138401600Y-62124600D01*
G37*
G36*
X138801600Y-58124600D02*
G01*
X139201600Y-58124600D01*
X139201600Y-57724600D01*
X139601600Y-57724600D01*
X140401600Y-57724600D01*
X140801600Y-57724600D01*
X141201600Y-57724600D01*
X141201600Y-58124600D01*
X140801600Y-58124600D01*
X140801600Y-58524600D01*
X140401600Y-58524600D01*
X140401600Y-58924600D01*
X139601600Y-58924600D01*
X139601600Y-59324600D01*
X139201600Y-59324600D01*
X139201600Y-60524600D01*
X139601600Y-60524600D01*
X139601600Y-61724600D01*
X140001600Y-61724600D01*
X140001600Y-61324600D01*
X140401600Y-61324600D01*
X140401600Y-60524600D01*
X140001600Y-60524600D01*
X140001600Y-60124600D01*
X140401600Y-60124600D01*
X140801600Y-60124600D01*
X140801600Y-60524600D01*
X141201600Y-60524600D01*
X141201600Y-60924600D01*
X142001600Y-60924600D01*
X142001600Y-61724600D01*
X141201600Y-61724600D01*
X141201600Y-61324600D01*
X140801600Y-61324600D01*
X140801600Y-61724600D01*
X141201600Y-61724600D01*
X141201600Y-62124600D01*
X140801600Y-62124600D01*
X140401600Y-62124600D01*
X140401600Y-61724600D01*
X140001600Y-61724600D01*
X140001600Y-62124600D01*
X139601600Y-62124600D01*
X139201600Y-62124600D01*
X138801600Y-62124600D01*
X138801600Y-61724600D01*
X139201600Y-61724600D01*
X139201600Y-60924600D01*
X138801600Y-60924600D01*
X138801600Y-61724600D01*
X138401600Y-61724600D01*
X138401600Y-59724600D01*
X138801600Y-59724600D01*
X138801600Y-59324600D01*
X138401600Y-59324600D01*
X138401600Y-58924600D01*
X138801600Y-58924600D01*
X138801600Y-58524600D01*
X139201600Y-58524600D01*
X139601600Y-58524600D01*
X139601600Y-58124600D01*
X139201600Y-58124600D01*
X139201600Y-58524600D01*
X138801600Y-58524600D01*
X138401600Y-58524600D01*
X138401600Y-58124600D01*
X138001600Y-58124600D01*
X138001600Y-57724600D01*
X138401600Y-57724600D01*
X138801600Y-57724600D01*
X138801600Y-58124600D01*
G37*
G36*
X142401600Y-62124600D02*
G01*
X142001600Y-62124600D01*
X142001600Y-61724600D01*
X142401600Y-61724600D01*
X142401600Y-62124600D01*
G37*
G36*
X142401600Y-59724600D02*
G01*
X142001600Y-59724600D01*
X142001600Y-59324600D01*
X142401600Y-59324600D01*
X142401600Y-59724600D01*
G37*
G36*
X143201600Y-58524600D02*
G01*
X143601600Y-58524600D01*
X143601600Y-58924600D01*
X144001600Y-58924600D01*
X144401600Y-58924600D01*
X144401600Y-59324600D01*
X144801600Y-59324600D01*
X144801600Y-59724600D01*
X144401600Y-59724600D01*
X144401600Y-60524600D01*
X144001600Y-60524600D01*
X144001600Y-60924600D01*
X144401600Y-60924600D01*
X144401600Y-61724600D01*
X144801600Y-61724600D01*
X144801600Y-62124600D01*
X144401600Y-62124600D01*
X144001600Y-62124600D01*
X143601600Y-62124600D01*
X142801600Y-62124600D01*
X142801600Y-61724600D01*
X142401600Y-61724600D01*
X142401600Y-61324600D01*
X142801600Y-61324600D01*
X143601600Y-61324600D01*
X143601600Y-60124600D01*
X144001600Y-60124600D01*
X144001600Y-59324600D01*
X143601600Y-59324600D01*
X143601600Y-59724600D01*
X143201600Y-59724600D01*
X143201600Y-60524600D01*
X142801600Y-60524600D01*
X141601600Y-60524600D01*
X141201600Y-60524600D01*
X141201600Y-60124600D01*
X141601600Y-60124600D01*
X142801600Y-60124600D01*
X142801600Y-58924600D01*
X142401600Y-58924600D01*
X141601600Y-58924600D01*
X141601600Y-60124600D01*
X141201600Y-60124600D01*
X140801600Y-60124600D01*
X140801600Y-59724600D01*
X141201600Y-59724600D01*
X141201600Y-59324600D01*
X140801600Y-59324600D01*
X140801600Y-58524600D01*
X141201600Y-58524600D01*
X141601600Y-58524600D01*
X142401600Y-58524600D01*
X142401600Y-58124600D01*
X142801600Y-58124600D01*
X142801600Y-57724600D01*
X143201600Y-57724600D01*
X143201600Y-58524600D01*
G37*
G36*
X146151295Y-61804846D02*
G01*
X146152043Y-61804597D01*
X146157356Y-61806051D01*
X146162761Y-61807127D01*
X146163318Y-61807684D01*
X146164979Y-61808139D01*
X146217360Y-61834330D01*
X146222766Y-61838526D01*
X146224509Y-61839107D01*
X146226015Y-61841047D01*
X146227956Y-61842554D01*
X146228536Y-61844296D01*
X146232733Y-61849703D01*
X146258924Y-61902084D01*
X146259378Y-61903744D01*
X146259936Y-61904302D01*
X146261011Y-61909706D01*
X146262466Y-61915020D01*
X146262216Y-61915767D01*
X146262553Y-61917457D01*
X146262553Y-61987913D01*
X146279989Y-62022787D01*
X146314864Y-62040225D01*
X146324824Y-62040225D01*
X146359699Y-62022787D01*
X146377136Y-61987913D01*
X146377136Y-61899381D01*
X146354575Y-61854258D01*
X146351033Y-61841321D01*
X146359352Y-61816363D01*
X146382885Y-61804597D01*
X146407843Y-61812916D01*
X146416067Y-61823512D01*
X146442257Y-61875894D01*
X146442711Y-61877553D01*
X146443269Y-61878111D01*
X146444343Y-61883511D01*
X146445800Y-61888830D01*
X146445550Y-61889578D01*
X146445886Y-61891266D01*
X146445886Y-61996028D01*
X146445550Y-61997716D01*
X146445799Y-61998464D01*
X146444344Y-62003775D01*
X146443269Y-62009183D01*
X146442711Y-62009740D01*
X146442257Y-62011401D01*
X146416067Y-62063782D01*
X146411870Y-62069188D01*
X146411290Y-62070931D01*
X146409349Y-62072437D01*
X146407843Y-62074378D01*
X146406100Y-62074958D01*
X146400694Y-62079155D01*
X146348313Y-62105346D01*
X146346652Y-62105800D01*
X146346095Y-62106358D01*
X146340690Y-62107433D01*
X146335377Y-62108888D01*
X146334629Y-62108638D01*
X146332940Y-62108975D01*
X146306749Y-62108975D01*
X146305059Y-62108638D01*
X146304312Y-62108888D01*
X146298998Y-62107433D01*
X146293594Y-62106358D01*
X146293036Y-62105800D01*
X146291376Y-62105346D01*
X146238995Y-62079155D01*
X146233588Y-62074958D01*
X146231846Y-62074378D01*
X146230339Y-62072437D01*
X146228399Y-62070931D01*
X146227818Y-62069188D01*
X146223622Y-62063782D01*
X146197432Y-62011401D01*
X146196977Y-62009740D01*
X146196420Y-62009183D01*
X146195344Y-62003775D01*
X146193890Y-61998464D01*
X146194138Y-61997716D01*
X146193803Y-61996028D01*
X146193803Y-61925572D01*
X146176365Y-61890697D01*
X146141490Y-61873260D01*
X146131531Y-61873260D01*
X146096656Y-61890697D01*
X146079219Y-61925572D01*
X146079219Y-61987913D01*
X146101781Y-62033036D01*
X146105323Y-62045972D01*
X146097004Y-62070931D01*
X146073472Y-62082697D01*
X146048513Y-62074378D01*
X146040289Y-62063782D01*
X146014098Y-62011401D01*
X146013643Y-62009740D01*
X146013086Y-62009183D01*
X146012010Y-62003778D01*
X146010556Y-61998465D01*
X146010805Y-61997717D01*
X146010469Y-61996028D01*
X146010469Y-61917457D01*
X146010805Y-61915767D01*
X146010556Y-61915020D01*
X146012010Y-61909706D01*
X146013086Y-61904302D01*
X146013643Y-61903744D01*
X146014098Y-61902084D01*
X146040289Y-61849703D01*
X146044485Y-61844296D01*
X146045066Y-61842554D01*
X146047006Y-61841047D01*
X146048513Y-61839107D01*
X146050255Y-61838526D01*
X146055662Y-61834330D01*
X146108043Y-61808139D01*
X146109703Y-61807684D01*
X146110261Y-61807127D01*
X146115665Y-61806051D01*
X146120979Y-61804597D01*
X146121726Y-61804846D01*
X146123416Y-61804510D01*
X146149606Y-61804510D01*
X146151295Y-61804846D01*
G37*
G36*
X146334628Y-61333417D02*
G01*
X146335376Y-61333169D01*
X146340687Y-61334623D01*
X146346095Y-61335699D01*
X146346652Y-61336256D01*
X146348313Y-61336711D01*
X146400694Y-61362901D01*
X146406100Y-61367097D01*
X146407843Y-61367678D01*
X146409349Y-61369618D01*
X146411290Y-61371125D01*
X146411870Y-61372867D01*
X146416067Y-61378274D01*
X146442257Y-61430656D01*
X146442711Y-61432315D01*
X146443269Y-61432873D01*
X146444343Y-61438273D01*
X146445800Y-61443592D01*
X146445550Y-61444340D01*
X146445886Y-61446028D01*
X146445886Y-61524600D01*
X146445550Y-61526288D01*
X146445799Y-61527036D01*
X146444344Y-61532347D01*
X146443269Y-61537755D01*
X146442711Y-61538312D01*
X146442257Y-61539973D01*
X146425913Y-61572660D01*
X146443269Y-61590016D01*
X146443269Y-61616326D01*
X146424666Y-61634929D01*
X146411511Y-61637546D01*
X146044844Y-61637546D01*
X146031689Y-61634929D01*
X146013086Y-61616326D01*
X146013086Y-61590016D01*
X146031689Y-61571413D01*
X146044844Y-61568796D01*
X146344892Y-61568796D01*
X146357069Y-61556618D01*
X146377136Y-61516485D01*
X146377136Y-61454143D01*
X146359699Y-61419268D01*
X146324825Y-61401832D01*
X146044844Y-61401832D01*
X146031689Y-61399215D01*
X146013086Y-61380612D01*
X146013086Y-61354302D01*
X146031689Y-61335699D01*
X146044844Y-61333082D01*
X146332940Y-61333082D01*
X146334628Y-61333417D01*
G37*
G36*
X146398476Y-61047603D02*
G01*
X146409628Y-61055055D01*
X146435818Y-61081246D01*
X146443270Y-61092398D01*
X146443269Y-61118707D01*
X146443266Y-61118709D01*
X146435818Y-61129859D01*
X146409628Y-61156049D01*
X146398478Y-61163497D01*
X146398476Y-61163500D01*
X146372167Y-61163501D01*
X146361015Y-61156049D01*
X146334824Y-61129859D01*
X146327374Y-61118710D01*
X146327371Y-61118707D01*
X146327371Y-61092398D01*
X146334823Y-61081245D01*
X146361014Y-61055054D01*
X146372163Y-61047605D01*
X146372167Y-61047602D01*
X146398476Y-61047603D01*
G37*
G36*
X144801600Y-60924600D02*
G01*
X144401600Y-60924600D01*
X144401600Y-60524600D01*
X144801600Y-60524600D01*
X144801600Y-60924600D01*
G37*
G36*
X146131531Y-60573557D02*
G01*
X146332940Y-60573557D01*
X146334629Y-60573893D01*
X146335377Y-60573644D01*
X146340690Y-60575098D01*
X146346095Y-60576174D01*
X146346652Y-60576731D01*
X146348313Y-60577186D01*
X146400694Y-60603377D01*
X146406100Y-60607573D01*
X146407843Y-60608154D01*
X146409349Y-60610094D01*
X146411290Y-60611601D01*
X146411870Y-60613343D01*
X146416067Y-60618750D01*
X146442257Y-60671132D01*
X146442711Y-60672791D01*
X146443269Y-60673349D01*
X146444343Y-60678749D01*
X146445800Y-60684068D01*
X146445550Y-60684816D01*
X146445886Y-60686504D01*
X146445886Y-60791266D01*
X146445550Y-60792954D01*
X146445799Y-60793702D01*
X146444344Y-60799013D01*
X146443269Y-60804421D01*
X146442711Y-60804978D01*
X146442257Y-60806639D01*
X146416067Y-60859020D01*
X146407843Y-60869616D01*
X146382885Y-60877936D01*
X146359352Y-60866170D01*
X146351032Y-60841211D01*
X146354575Y-60828275D01*
X146377136Y-60783151D01*
X146377136Y-60694619D01*
X146359699Y-60659744D01*
X146324824Y-60642307D01*
X146256358Y-60642307D01*
X146209504Y-60876579D01*
X146207555Y-60881270D01*
X146207555Y-60882992D01*
X146206331Y-60884215D01*
X146204358Y-60888965D01*
X146196030Y-60894516D01*
X146188952Y-60901595D01*
X146183907Y-60902598D01*
X146182468Y-60903558D01*
X146180780Y-60903220D01*
X146175797Y-60904212D01*
X146123416Y-60904212D01*
X146121728Y-60903876D01*
X146120980Y-60904126D01*
X146115661Y-60902669D01*
X146110261Y-60901595D01*
X146109703Y-60901037D01*
X146108044Y-60900583D01*
X146055662Y-60874393D01*
X146050255Y-60870196D01*
X146048513Y-60869616D01*
X146047006Y-60867675D01*
X146045066Y-60866169D01*
X146044485Y-60864426D01*
X146040289Y-60859020D01*
X146014098Y-60806639D01*
X146013643Y-60804978D01*
X146013086Y-60804421D01*
X146012010Y-60799016D01*
X146010556Y-60793703D01*
X146010805Y-60792955D01*
X146010469Y-60791266D01*
X146010469Y-60694619D01*
X146079219Y-60694619D01*
X146079219Y-60783151D01*
X146096656Y-60818025D01*
X146131530Y-60835462D01*
X146147615Y-60835462D01*
X146186247Y-60642307D01*
X146131531Y-60642307D01*
X146096656Y-60659744D01*
X146079219Y-60694619D01*
X146010469Y-60694619D01*
X146010469Y-60686504D01*
X146010805Y-60684814D01*
X146010556Y-60684067D01*
X146012010Y-60678753D01*
X146013086Y-60673349D01*
X146013643Y-60672791D01*
X146014098Y-60671131D01*
X146040289Y-60618750D01*
X146044485Y-60613343D01*
X146045066Y-60611601D01*
X146047006Y-60610094D01*
X146048513Y-60608154D01*
X146050255Y-60607573D01*
X146055662Y-60603377D01*
X146108043Y-60577186D01*
X146109703Y-60576731D01*
X146110261Y-60576174D01*
X146115665Y-60575098D01*
X146120979Y-60573644D01*
X146121726Y-60573893D01*
X146123416Y-60573557D01*
X146131531Y-60573557D01*
G37*
G36*
X146151295Y-60128655D02*
G01*
X146152043Y-60128406D01*
X146157356Y-60129860D01*
X146162761Y-60130936D01*
X146163318Y-60131493D01*
X146164979Y-60131948D01*
X146217360Y-60158139D01*
X146222766Y-60162335D01*
X146224509Y-60162916D01*
X146226015Y-60164856D01*
X146227956Y-60166363D01*
X146228536Y-60168105D01*
X146232733Y-60173512D01*
X146258924Y-60225893D01*
X146259378Y-60227553D01*
X146259936Y-60228111D01*
X146261011Y-60233515D01*
X146262466Y-60238829D01*
X146262216Y-60239576D01*
X146262553Y-60241266D01*
X146262553Y-60311722D01*
X146279989Y-60346596D01*
X146314864Y-60364034D01*
X146324824Y-60364034D01*
X146359699Y-60346596D01*
X146377136Y-60311722D01*
X146377136Y-60223190D01*
X146354575Y-60178067D01*
X146351033Y-60165130D01*
X146359352Y-60140172D01*
X146382885Y-60128406D01*
X146407843Y-60136725D01*
X146416067Y-60147321D01*
X146442257Y-60199703D01*
X146442711Y-60201362D01*
X146443269Y-60201920D01*
X146444343Y-60207320D01*
X146445800Y-60212639D01*
X146445550Y-60213387D01*
X146445886Y-60215075D01*
X146445886Y-60319837D01*
X146445550Y-60321525D01*
X146445799Y-60322273D01*
X146444344Y-60327584D01*
X146443269Y-60332992D01*
X146442711Y-60333549D01*
X146442257Y-60335210D01*
X146416067Y-60387591D01*
X146411870Y-60392997D01*
X146411290Y-60394740D01*
X146409349Y-60396246D01*
X146407843Y-60398187D01*
X146406100Y-60398767D01*
X146400694Y-60402964D01*
X146348313Y-60429155D01*
X146346652Y-60429609D01*
X146346095Y-60430167D01*
X146340690Y-60431242D01*
X146335377Y-60432697D01*
X146334629Y-60432447D01*
X146332940Y-60432784D01*
X146306749Y-60432784D01*
X146305059Y-60432447D01*
X146304312Y-60432697D01*
X146298998Y-60431242D01*
X146293594Y-60430167D01*
X146293036Y-60429609D01*
X146291376Y-60429155D01*
X146238995Y-60402964D01*
X146233588Y-60398767D01*
X146231846Y-60398187D01*
X146230339Y-60396246D01*
X146228399Y-60394740D01*
X146227818Y-60392997D01*
X146223622Y-60387591D01*
X146197432Y-60335210D01*
X146196977Y-60333549D01*
X146196420Y-60332992D01*
X146195344Y-60327584D01*
X146193890Y-60322273D01*
X146194138Y-60321525D01*
X146193803Y-60319837D01*
X146193803Y-60249381D01*
X146176365Y-60214506D01*
X146141490Y-60197069D01*
X146131531Y-60197069D01*
X146096656Y-60214506D01*
X146079219Y-60249381D01*
X146079219Y-60311722D01*
X146101781Y-60356845D01*
X146105323Y-60369781D01*
X146097004Y-60394740D01*
X146073472Y-60406506D01*
X146048513Y-60398187D01*
X146040289Y-60387591D01*
X146014098Y-60335210D01*
X146013643Y-60333549D01*
X146013086Y-60332992D01*
X146012010Y-60327587D01*
X146010556Y-60322274D01*
X146010805Y-60321526D01*
X146010469Y-60319837D01*
X146010469Y-60241266D01*
X146010805Y-60239576D01*
X146010556Y-60238829D01*
X146012010Y-60233515D01*
X146013086Y-60228111D01*
X146013643Y-60227553D01*
X146014098Y-60225893D01*
X146040289Y-60173512D01*
X146044485Y-60168105D01*
X146045066Y-60166363D01*
X146047006Y-60164856D01*
X146048513Y-60162916D01*
X146050255Y-60162335D01*
X146055662Y-60158139D01*
X146108043Y-60131948D01*
X146109703Y-60131493D01*
X146110261Y-60130936D01*
X146115665Y-60129860D01*
X146120979Y-60128406D01*
X146121726Y-60128655D01*
X146123416Y-60128319D01*
X146149606Y-60128319D01*
X146151295Y-60128655D01*
G37*
G36*
X140001600Y-60124600D02*
G01*
X139601600Y-60124600D01*
X139601600Y-59324600D01*
X140001600Y-59324600D01*
X140001600Y-60124600D01*
G37*
G36*
X146334628Y-59657226D02*
G01*
X146335376Y-59656978D01*
X146340687Y-59658432D01*
X146346095Y-59659508D01*
X146346652Y-59660065D01*
X146348313Y-59660520D01*
X146400694Y-59686710D01*
X146406100Y-59690906D01*
X146407843Y-59691487D01*
X146409349Y-59693427D01*
X146411290Y-59694934D01*
X146411870Y-59696676D01*
X146416067Y-59702083D01*
X146442257Y-59754465D01*
X146442711Y-59756124D01*
X146443269Y-59756682D01*
X146444343Y-59762082D01*
X146445800Y-59767401D01*
X146445550Y-59768149D01*
X146445886Y-59769837D01*
X146445886Y-59848409D01*
X146445550Y-59850097D01*
X146445799Y-59850845D01*
X146444344Y-59856156D01*
X146443269Y-59861564D01*
X146442711Y-59862121D01*
X146442257Y-59863782D01*
X146425913Y-59896469D01*
X146443269Y-59913825D01*
X146443269Y-59940135D01*
X146424666Y-59958738D01*
X146411511Y-59961355D01*
X146044844Y-59961355D01*
X146031689Y-59958738D01*
X146013086Y-59940135D01*
X146013086Y-59913825D01*
X146031689Y-59895222D01*
X146044844Y-59892605D01*
X146344892Y-59892605D01*
X146357069Y-59880427D01*
X146377136Y-59840294D01*
X146377136Y-59777952D01*
X146359699Y-59743077D01*
X146324825Y-59725641D01*
X146044844Y-59725641D01*
X146031689Y-59723024D01*
X146013086Y-59704421D01*
X146013086Y-59678111D01*
X146031689Y-59659508D01*
X146044844Y-59656891D01*
X146332940Y-59656891D01*
X146334628Y-59657226D01*
G37*
G36*
X138401600Y-59724600D02*
G01*
X138001600Y-59724600D01*
X138001600Y-59324600D01*
X138401600Y-59324600D01*
X138401600Y-59724600D01*
G37*
G36*
X146157721Y-59133081D02*
G01*
X146306749Y-59133081D01*
X146308438Y-59133417D01*
X146309186Y-59133168D01*
X146314499Y-59134622D01*
X146319904Y-59135698D01*
X146320461Y-59136255D01*
X146322122Y-59136710D01*
X146374503Y-59162901D01*
X146378856Y-59166279D01*
X146383436Y-59169340D01*
X146409627Y-59195530D01*
X146412686Y-59200107D01*
X146416067Y-59204464D01*
X146442257Y-59256846D01*
X146442711Y-59258505D01*
X146443269Y-59259063D01*
X146444343Y-59264463D01*
X146445800Y-59269782D01*
X146445550Y-59270530D01*
X146445886Y-59272218D01*
X146445886Y-59350790D01*
X146445550Y-59352478D01*
X146445799Y-59353226D01*
X146444344Y-59358537D01*
X146443269Y-59363945D01*
X146442711Y-59364502D01*
X146442257Y-59366163D01*
X146416067Y-59418544D01*
X146412686Y-59422900D01*
X146409627Y-59427478D01*
X146383436Y-59453668D01*
X146378856Y-59456728D01*
X146374503Y-59460107D01*
X146322122Y-59486298D01*
X146320461Y-59486752D01*
X146319904Y-59487310D01*
X146314499Y-59488385D01*
X146309186Y-59489840D01*
X146308438Y-59489590D01*
X146306749Y-59489927D01*
X146149606Y-59489927D01*
X146147916Y-59489590D01*
X146147169Y-59489840D01*
X146141855Y-59488385D01*
X146136451Y-59487310D01*
X146135893Y-59486752D01*
X146134233Y-59486298D01*
X146081852Y-59460107D01*
X146077498Y-59456728D01*
X146072918Y-59453668D01*
X146046728Y-59427478D01*
X146043667Y-59422897D01*
X146040289Y-59418544D01*
X146014098Y-59366163D01*
X146013643Y-59364502D01*
X146013086Y-59363945D01*
X146012010Y-59358540D01*
X146010556Y-59353227D01*
X146010805Y-59352479D01*
X146010469Y-59350790D01*
X146010469Y-59280333D01*
X146079219Y-59280333D01*
X146079219Y-59342675D01*
X146099285Y-59382807D01*
X146117588Y-59401110D01*
X146157721Y-59421177D01*
X146298633Y-59421177D01*
X146338769Y-59401108D01*
X146357069Y-59382808D01*
X146377136Y-59342675D01*
X146377136Y-59280333D01*
X146357069Y-59240198D01*
X146338769Y-59221899D01*
X146298633Y-59201831D01*
X146157721Y-59201831D01*
X146117588Y-59221897D01*
X146099285Y-59240200D01*
X146079219Y-59280333D01*
X146010469Y-59280333D01*
X146010469Y-59272218D01*
X146010805Y-59270528D01*
X146010556Y-59269781D01*
X146012010Y-59264467D01*
X146013086Y-59259063D01*
X146013643Y-59258505D01*
X146014098Y-59256845D01*
X146040289Y-59204464D01*
X146043667Y-59200110D01*
X146046728Y-59195530D01*
X146072918Y-59169340D01*
X146077498Y-59166279D01*
X146081852Y-59162901D01*
X146134233Y-59136710D01*
X146135893Y-59136255D01*
X146136451Y-59135698D01*
X146141855Y-59134622D01*
X146147169Y-59133168D01*
X146147916Y-59133417D01*
X146149606Y-59133081D01*
X146157721Y-59133081D01*
G37*
G36*
X146424666Y-58664270D02*
G01*
X146443269Y-58682873D01*
X146443269Y-58709183D01*
X146424666Y-58727786D01*
X146411511Y-58730403D01*
X146111464Y-58730403D01*
X146099285Y-58742581D01*
X146079219Y-58782714D01*
X146079219Y-58845056D01*
X146096656Y-58879930D01*
X146131530Y-58897367D01*
X146411511Y-58897367D01*
X146424666Y-58899984D01*
X146443269Y-58918587D01*
X146443269Y-58944897D01*
X146424666Y-58963500D01*
X146411511Y-58966117D01*
X146123416Y-58966117D01*
X146121728Y-58965781D01*
X146120980Y-58966031D01*
X146115661Y-58964574D01*
X146110261Y-58963500D01*
X146109703Y-58962942D01*
X146108044Y-58962488D01*
X146055662Y-58936298D01*
X146050255Y-58932101D01*
X146048513Y-58931521D01*
X146047006Y-58929580D01*
X146045066Y-58928074D01*
X146044485Y-58926331D01*
X146040289Y-58920925D01*
X146014098Y-58868544D01*
X146013643Y-58866883D01*
X146013086Y-58866326D01*
X146012010Y-58860921D01*
X146010556Y-58855608D01*
X146010805Y-58854860D01*
X146010469Y-58853171D01*
X146010469Y-58774599D01*
X146010805Y-58772909D01*
X146010556Y-58772162D01*
X146012010Y-58766848D01*
X146013086Y-58761444D01*
X146013643Y-58760886D01*
X146014098Y-58759226D01*
X146028509Y-58730403D01*
X145861511Y-58730403D01*
X145848356Y-58727786D01*
X145829753Y-58709183D01*
X145829753Y-58682873D01*
X145848356Y-58664270D01*
X145861511Y-58661653D01*
X146411511Y-58661653D01*
X146424666Y-58664270D01*
G37*
G36*
X135601600Y-58924600D02*
G01*
X135201600Y-58924600D01*
X135201600Y-58524600D01*
X135601600Y-58524600D01*
X135601600Y-58924600D01*
G37*
G36*
X136401600Y-58524600D02*
G01*
X137601600Y-58524600D01*
X137601600Y-58924600D01*
X136401600Y-58924600D01*
X136001600Y-58924600D01*
X136001600Y-58124600D01*
X136401600Y-58124600D01*
X136401600Y-58524600D01*
G37*
G36*
X138401600Y-58924600D02*
G01*
X138001600Y-58924600D01*
X138001600Y-58524600D01*
X138401600Y-58524600D01*
X138401600Y-58924600D01*
G37*
G36*
X144801600Y-58924600D02*
G01*
X144401600Y-58924600D01*
X144401600Y-58524600D01*
X144801600Y-58524600D01*
X144801600Y-58924600D01*
G37*
G36*
X146288674Y-58137843D02*
G01*
X146332940Y-58137843D01*
X146334629Y-58138179D01*
X146335377Y-58137930D01*
X146340690Y-58139384D01*
X146346095Y-58140460D01*
X146346652Y-58141017D01*
X146348313Y-58141472D01*
X146400694Y-58167663D01*
X146406100Y-58171859D01*
X146407843Y-58172440D01*
X146409349Y-58174380D01*
X146411290Y-58175887D01*
X146411870Y-58177629D01*
X146416067Y-58183036D01*
X146442257Y-58235418D01*
X146442711Y-58237077D01*
X146443269Y-58237635D01*
X146444343Y-58243035D01*
X146445800Y-58248354D01*
X146445550Y-58249102D01*
X146445886Y-58250790D01*
X146445886Y-58381742D01*
X146445550Y-58383430D01*
X146445799Y-58384178D01*
X146444344Y-58389489D01*
X146443269Y-58394897D01*
X146442711Y-58395454D01*
X146442257Y-58397115D01*
X146434643Y-58412342D01*
X146443269Y-58420968D01*
X146443269Y-58447278D01*
X146424666Y-58465881D01*
X146411511Y-58468498D01*
X146123416Y-58468498D01*
X146121728Y-58468162D01*
X146120980Y-58468412D01*
X146115661Y-58466955D01*
X146110261Y-58465881D01*
X146109703Y-58465323D01*
X146108044Y-58464869D01*
X146055662Y-58438679D01*
X146050255Y-58434482D01*
X146048513Y-58433902D01*
X146047006Y-58431961D01*
X146045066Y-58430455D01*
X146044485Y-58428712D01*
X146040289Y-58423306D01*
X146014098Y-58370925D01*
X146013643Y-58369264D01*
X146013086Y-58368707D01*
X146012010Y-58363302D01*
X146010556Y-58357989D01*
X146010805Y-58357241D01*
X146010469Y-58355552D01*
X146010469Y-58250790D01*
X146010805Y-58249100D01*
X146010556Y-58248353D01*
X146012010Y-58243039D01*
X146013086Y-58237635D01*
X146013643Y-58237077D01*
X146014098Y-58235417D01*
X146040289Y-58183036D01*
X146048513Y-58172440D01*
X146073472Y-58164121D01*
X146097004Y-58175887D01*
X146105323Y-58200846D01*
X146101781Y-58213782D01*
X146079219Y-58258905D01*
X146079219Y-58347437D01*
X146096656Y-58382311D01*
X146131530Y-58399748D01*
X146154552Y-58399748D01*
X146231416Y-58399748D01*
X146364076Y-58399748D01*
X146377136Y-58373627D01*
X146377136Y-58258905D01*
X146359699Y-58224030D01*
X146324824Y-58206593D01*
X146288674Y-58206593D01*
X146253799Y-58224030D01*
X146236362Y-58258905D01*
X146236362Y-58381742D01*
X146236026Y-58383430D01*
X146236275Y-58384178D01*
X146234820Y-58389489D01*
X146233745Y-58394897D01*
X146233187Y-58395454D01*
X146232733Y-58397115D01*
X146231416Y-58399748D01*
X146154552Y-58399748D01*
X146167612Y-58373627D01*
X146167612Y-58250790D01*
X146167948Y-58249100D01*
X146167699Y-58248353D01*
X146169153Y-58243039D01*
X146170229Y-58237635D01*
X146170786Y-58237077D01*
X146171241Y-58235417D01*
X146197432Y-58183036D01*
X146201628Y-58177629D01*
X146202209Y-58175887D01*
X146204149Y-58174380D01*
X146205656Y-58172440D01*
X146207398Y-58171859D01*
X146212805Y-58167663D01*
X146265186Y-58141472D01*
X146266846Y-58141017D01*
X146267404Y-58140460D01*
X146272808Y-58139384D01*
X146278122Y-58137930D01*
X146278869Y-58138179D01*
X146280559Y-58137843D01*
X146288674Y-58137843D01*
G37*
G36*
X135201600Y-57324600D02*
G01*
X135601600Y-57324600D01*
X135601600Y-56924600D01*
X136001600Y-56924600D01*
X136401600Y-56924600D01*
X136401600Y-57724600D01*
X136001600Y-57724600D01*
X136001600Y-58124600D01*
X135601600Y-58124600D01*
X135601600Y-57724600D01*
X135201600Y-57724600D01*
X134801600Y-57724600D01*
X134801600Y-56524600D01*
X135201600Y-56524600D01*
X135201600Y-57324600D01*
G37*
G36*
X137601600Y-58124600D02*
G01*
X137201600Y-58124600D01*
X137201600Y-57724600D01*
X137601600Y-57724600D01*
X137601600Y-58124600D01*
G37*
G36*
X142001600Y-58124600D02*
G01*
X141601600Y-58124600D01*
X141601600Y-57724600D01*
X142001600Y-57724600D01*
X142001600Y-58124600D01*
G37*
G36*
X144001600Y-57724600D02*
G01*
X144401600Y-57724600D01*
X144401600Y-56924600D01*
X144801600Y-56924600D01*
X144801600Y-58124600D01*
X144401600Y-58124600D01*
X144001600Y-58124600D01*
X143601600Y-58124600D01*
X143601600Y-56924600D01*
X144001600Y-56924600D01*
X144001600Y-57724600D01*
G37*
G36*
X145900858Y-57878557D02*
G01*
X145912008Y-57886006D01*
X145938199Y-57912197D01*
X145945651Y-57923350D01*
X145945651Y-57949659D01*
X145945647Y-57949662D01*
X145938198Y-57960811D01*
X145912007Y-57987001D01*
X145900855Y-57994453D01*
X145874546Y-57994452D01*
X145874543Y-57994449D01*
X145863394Y-57987001D01*
X145837204Y-57960811D01*
X145829755Y-57949661D01*
X145829753Y-57949659D01*
X145829752Y-57923350D01*
X145837204Y-57912198D01*
X145863394Y-57886007D01*
X145874546Y-57878555D01*
X145900855Y-57878554D01*
X145900858Y-57878557D01*
G37*
G36*
X146424666Y-57904746D02*
G01*
X146443269Y-57923349D01*
X146443269Y-57949659D01*
X146424666Y-57968262D01*
X146411511Y-57970879D01*
X146044844Y-57970879D01*
X146031689Y-57968262D01*
X146013086Y-57949659D01*
X146013086Y-57923349D01*
X146031689Y-57904746D01*
X146044844Y-57902129D01*
X146411511Y-57902129D01*
X146424666Y-57904746D01*
G37*
G36*
X137601600Y-57324600D02*
G01*
X137201600Y-57324600D01*
X137201600Y-57724600D01*
X136801600Y-57724600D01*
X136801600Y-56924600D01*
X137201600Y-56924600D01*
X137601600Y-56924600D01*
X137601600Y-57324600D01*
G37*
G36*
X138001600Y-57724600D02*
G01*
X137601600Y-57724600D01*
X137601600Y-57324600D01*
X138001600Y-57324600D01*
X138001600Y-57724600D01*
G37*
G36*
X141601600Y-57724600D02*
G01*
X141201600Y-57724600D01*
X141201600Y-57324600D01*
X141601600Y-57324600D01*
X141601600Y-57724600D01*
G37*
G36*
X143201600Y-57324600D02*
G01*
X142801600Y-57324600D01*
X142801600Y-57724600D01*
X142401600Y-57724600D01*
X142001600Y-57724600D01*
X142001600Y-57324600D01*
X142401600Y-57324600D01*
X142401600Y-56924600D01*
X142801600Y-56924600D01*
X143201600Y-56924600D01*
X143201600Y-57324600D01*
G37*
G36*
X146157721Y-57378319D02*
G01*
X146306749Y-57378319D01*
X146308438Y-57378655D01*
X146309186Y-57378406D01*
X146314499Y-57379860D01*
X146319904Y-57380936D01*
X146320461Y-57381493D01*
X146322122Y-57381948D01*
X146374503Y-57408139D01*
X146378856Y-57411517D01*
X146383436Y-57414578D01*
X146409627Y-57440768D01*
X146412686Y-57445345D01*
X146416067Y-57449702D01*
X146442257Y-57502084D01*
X146442711Y-57503743D01*
X146443269Y-57504301D01*
X146444343Y-57509701D01*
X146445800Y-57515020D01*
X146445550Y-57515768D01*
X146445886Y-57517456D01*
X146445886Y-57622218D01*
X146445550Y-57623906D01*
X146445799Y-57624654D01*
X146444344Y-57629965D01*
X146443269Y-57635373D01*
X146442711Y-57635930D01*
X146442257Y-57637591D01*
X146434643Y-57652818D01*
X146443269Y-57661444D01*
X146443269Y-57687754D01*
X146424666Y-57706357D01*
X146411511Y-57708974D01*
X145861511Y-57708974D01*
X145848356Y-57706357D01*
X145829753Y-57687754D01*
X145829753Y-57661444D01*
X145848356Y-57642841D01*
X145861511Y-57640224D01*
X146015414Y-57640224D01*
X146014098Y-57637591D01*
X146013643Y-57635930D01*
X146013086Y-57635373D01*
X146012010Y-57629968D01*
X146010556Y-57624655D01*
X146010805Y-57623907D01*
X146010469Y-57622218D01*
X146010469Y-57525571D01*
X146079219Y-57525571D01*
X146079219Y-57614103D01*
X146092279Y-57640224D01*
X146364076Y-57640224D01*
X146377136Y-57614103D01*
X146377136Y-57525571D01*
X146357069Y-57485436D01*
X146338769Y-57467137D01*
X146298633Y-57447069D01*
X146157721Y-57447069D01*
X146117588Y-57467135D01*
X146099285Y-57485438D01*
X146079219Y-57525571D01*
X146010469Y-57525571D01*
X146010469Y-57517456D01*
X146010805Y-57515766D01*
X146010556Y-57515019D01*
X146012010Y-57509705D01*
X146013086Y-57504301D01*
X146013643Y-57503743D01*
X146014098Y-57502083D01*
X146040289Y-57449702D01*
X146043667Y-57445348D01*
X146046728Y-57440768D01*
X146072918Y-57414578D01*
X146077498Y-57411517D01*
X146081852Y-57408139D01*
X146134233Y-57381948D01*
X146135893Y-57381493D01*
X146136451Y-57380936D01*
X146141855Y-57379860D01*
X146147169Y-57378406D01*
X146147916Y-57378655D01*
X146149606Y-57378319D01*
X146157721Y-57378319D01*
G37*
G36*
X138801600Y-57324600D02*
G01*
X138401600Y-57324600D01*
X138401600Y-56924600D01*
X138801600Y-56924600D01*
X138801600Y-57324600D01*
G37*
G36*
X138401600Y-53724600D02*
G01*
X138801600Y-53724600D01*
X139201600Y-53724600D01*
X139201600Y-54924600D01*
X139601600Y-54924600D01*
X139601600Y-54524600D01*
X140001600Y-54524600D01*
X140001600Y-55724600D01*
X140401600Y-55724600D01*
X140401600Y-55324600D01*
X140801600Y-55324600D01*
X140801600Y-55724600D01*
X141201600Y-55724600D01*
X141201600Y-56124600D01*
X140801600Y-56124600D01*
X140401600Y-56124600D01*
X140001600Y-56124600D01*
X139601600Y-56124600D01*
X139601600Y-56524600D01*
X140001600Y-56524600D01*
X140001600Y-57324600D01*
X139601600Y-57324600D01*
X139201600Y-57324600D01*
X139201600Y-56924600D01*
X138801600Y-56924600D01*
X138801600Y-56124600D01*
X139201600Y-56124600D01*
X139201600Y-55724600D01*
X138801600Y-55724600D01*
X138801600Y-55324600D01*
X138401600Y-55324600D01*
X138401600Y-54924600D01*
X138801600Y-54924600D01*
X138801600Y-54524600D01*
X138401600Y-54524600D01*
X138401600Y-54124600D01*
X138001600Y-54124600D01*
X138001600Y-53324600D01*
X138401600Y-53324600D01*
X138401600Y-53724600D01*
G37*
G36*
X141201600Y-56924600D02*
G01*
X140801600Y-56924600D01*
X140801600Y-57324600D01*
X140401600Y-57324600D01*
X140401600Y-56524600D01*
X140801600Y-56524600D01*
X141201600Y-56524600D01*
X141201600Y-56924600D01*
G37*
G36*
X142401600Y-56124600D02*
G01*
X142801600Y-56124600D01*
X142801600Y-56524600D01*
X142401600Y-56524600D01*
X142401600Y-56924600D01*
X142001600Y-56924600D01*
X142001600Y-57324600D01*
X141601600Y-57324600D01*
X141601600Y-56524600D01*
X142001600Y-56524600D01*
X142001600Y-55724600D01*
X142401600Y-55724600D01*
X142401600Y-56124600D01*
G37*
G36*
X146288674Y-56880700D02*
G01*
X146332940Y-56880700D01*
X146334629Y-56881036D01*
X146335377Y-56880787D01*
X146340690Y-56882241D01*
X146346095Y-56883317D01*
X146346652Y-56883874D01*
X146348313Y-56884329D01*
X146400694Y-56910520D01*
X146406100Y-56914716D01*
X146407843Y-56915297D01*
X146409349Y-56917237D01*
X146411290Y-56918744D01*
X146411870Y-56920486D01*
X146416067Y-56925893D01*
X146442257Y-56978275D01*
X146442711Y-56979934D01*
X146443269Y-56980492D01*
X146444343Y-56985892D01*
X146445800Y-56991211D01*
X146445550Y-56991959D01*
X146445886Y-56993647D01*
X146445886Y-57124599D01*
X146445550Y-57126287D01*
X146445799Y-57127035D01*
X146444344Y-57132346D01*
X146443269Y-57137754D01*
X146442711Y-57138311D01*
X146442257Y-57139972D01*
X146434643Y-57155199D01*
X146443269Y-57163825D01*
X146443269Y-57190135D01*
X146424666Y-57208738D01*
X146411511Y-57211355D01*
X146123416Y-57211355D01*
X146121728Y-57211019D01*
X146120980Y-57211269D01*
X146115661Y-57209812D01*
X146110261Y-57208738D01*
X146109703Y-57208180D01*
X146108044Y-57207726D01*
X146055662Y-57181536D01*
X146050255Y-57177339D01*
X146048513Y-57176759D01*
X146047006Y-57174818D01*
X146045066Y-57173312D01*
X146044485Y-57171569D01*
X146040289Y-57166163D01*
X146014098Y-57113782D01*
X146013643Y-57112121D01*
X146013086Y-57111564D01*
X146012010Y-57106159D01*
X146010556Y-57100846D01*
X146010805Y-57100098D01*
X146010469Y-57098409D01*
X146010469Y-56993647D01*
X146010805Y-56991957D01*
X146010556Y-56991210D01*
X146012010Y-56985896D01*
X146013086Y-56980492D01*
X146013643Y-56979934D01*
X146014098Y-56978274D01*
X146040289Y-56925893D01*
X146048513Y-56915297D01*
X146073472Y-56906978D01*
X146097004Y-56918744D01*
X146105323Y-56943703D01*
X146101781Y-56956639D01*
X146079219Y-57001762D01*
X146079219Y-57090294D01*
X146096656Y-57125168D01*
X146131530Y-57142605D01*
X146154552Y-57142605D01*
X146231416Y-57142605D01*
X146364076Y-57142605D01*
X146377136Y-57116484D01*
X146377136Y-57001762D01*
X146359699Y-56966887D01*
X146324824Y-56949450D01*
X146288674Y-56949450D01*
X146253799Y-56966887D01*
X146236362Y-57001762D01*
X146236362Y-57124599D01*
X146236026Y-57126287D01*
X146236275Y-57127035D01*
X146234820Y-57132346D01*
X146233745Y-57137754D01*
X146233187Y-57138311D01*
X146232733Y-57139972D01*
X146231416Y-57142605D01*
X146154552Y-57142605D01*
X146167612Y-57116484D01*
X146167612Y-56993647D01*
X146167948Y-56991957D01*
X146167699Y-56991210D01*
X146169153Y-56985896D01*
X146170229Y-56980492D01*
X146170786Y-56979934D01*
X146171241Y-56978274D01*
X146197432Y-56925893D01*
X146201628Y-56920486D01*
X146202209Y-56918744D01*
X146204149Y-56917237D01*
X146205656Y-56915297D01*
X146207398Y-56914716D01*
X146212805Y-56910520D01*
X146265186Y-56884329D01*
X146266846Y-56883874D01*
X146267404Y-56883317D01*
X146272808Y-56882241D01*
X146278122Y-56880787D01*
X146278869Y-56881036D01*
X146280559Y-56880700D01*
X146288674Y-56880700D01*
G37*
G36*
X136801600Y-56924600D02*
G01*
X136401600Y-56924600D01*
X136401600Y-56524600D01*
X136801600Y-56524600D01*
X136801600Y-56924600D01*
G37*
G36*
X138801600Y-56124600D02*
G01*
X138401600Y-56124600D01*
X138401600Y-56924600D01*
X138001600Y-56924600D01*
X137601600Y-56924600D01*
X137601600Y-56524600D01*
X136801600Y-56524600D01*
X136801600Y-56124600D01*
X137601600Y-56124600D01*
X138001600Y-56124600D01*
X138001600Y-55724600D01*
X138401600Y-55724600D01*
X138801600Y-55724600D01*
X138801600Y-56124600D01*
G37*
G36*
X146424666Y-56464270D02*
G01*
X146443269Y-56482873D01*
X146443269Y-56509183D01*
X146424666Y-56527786D01*
X146411511Y-56530403D01*
X146268607Y-56530403D01*
X146254320Y-56544690D01*
X146432136Y-56678052D01*
X146441090Y-56688039D01*
X146444810Y-56714083D01*
X146429024Y-56735131D01*
X146402980Y-56738851D01*
X146390886Y-56733052D01*
X146205212Y-56593797D01*
X146069151Y-56729859D01*
X146057998Y-56737311D01*
X146031689Y-56737311D01*
X146013085Y-56718707D01*
X146013085Y-56692398D01*
X146020537Y-56681245D01*
X146171379Y-56530403D01*
X145861511Y-56530403D01*
X145848356Y-56527786D01*
X145829753Y-56509183D01*
X145829753Y-56482873D01*
X145848356Y-56464270D01*
X145861511Y-56461653D01*
X146411511Y-56461653D01*
X146424666Y-56464270D01*
G37*
G36*
X135601600Y-56124600D02*
G01*
X136001600Y-56124600D01*
X136001600Y-56524600D01*
X135601600Y-56524600D01*
X135201600Y-56524600D01*
X135201600Y-55724600D01*
X135601600Y-55724600D01*
X135601600Y-56124600D01*
G37*
G36*
X141601600Y-56524600D02*
G01*
X141201600Y-56524600D01*
X141201600Y-56124600D01*
X141601600Y-56124600D01*
X141601600Y-56524600D01*
G37*
G36*
X143601600Y-56524600D02*
G01*
X143201600Y-56524600D01*
X143201600Y-56124600D01*
X143601600Y-56124600D01*
X143601600Y-56524600D01*
G37*
G36*
X144801600Y-56124600D02*
G01*
X144401600Y-56124600D01*
X144401600Y-56524600D01*
X144001600Y-56524600D01*
X144001600Y-55324600D01*
X144401600Y-55324600D01*
X144801600Y-55324600D01*
X144801600Y-56124600D01*
G37*
G36*
X146424666Y-56123794D02*
G01*
X146443269Y-56142397D01*
X146443269Y-56168707D01*
X146424666Y-56187310D01*
X146411511Y-56189927D01*
X146157720Y-56189927D01*
X146117587Y-56209993D01*
X146099287Y-56228293D01*
X146079219Y-56268429D01*
X146079219Y-56312695D01*
X146076602Y-56325850D01*
X146057999Y-56344453D01*
X146031689Y-56344453D01*
X146013086Y-56325850D01*
X146010469Y-56312695D01*
X146010469Y-56260314D01*
X146010805Y-56258624D01*
X146010556Y-56257877D01*
X146012010Y-56252563D01*
X146013086Y-56247159D01*
X146013643Y-56246601D01*
X146014098Y-56244941D01*
X146040289Y-56192560D01*
X146042668Y-56189494D01*
X146031689Y-56187310D01*
X146013086Y-56168707D01*
X146013086Y-56142397D01*
X146031689Y-56123794D01*
X146044844Y-56121177D01*
X146411511Y-56121177D01*
X146424666Y-56123794D01*
G37*
G36*
X136801600Y-56124600D02*
G01*
X136401600Y-56124600D01*
X136401600Y-55724600D01*
X136801600Y-55724600D01*
X136801600Y-56124600D01*
G37*
G36*
X146288674Y-55597367D02*
G01*
X146332940Y-55597367D01*
X146334629Y-55597703D01*
X146335377Y-55597454D01*
X146340690Y-55598908D01*
X146346095Y-55599984D01*
X146346652Y-55600541D01*
X146348313Y-55600996D01*
X146400694Y-55627187D01*
X146406100Y-55631383D01*
X146407843Y-55631964D01*
X146409349Y-55633904D01*
X146411290Y-55635411D01*
X146411870Y-55637153D01*
X146416067Y-55642560D01*
X146442257Y-55694942D01*
X146442711Y-55696601D01*
X146443269Y-55697159D01*
X146444343Y-55702559D01*
X146445800Y-55707878D01*
X146445550Y-55708626D01*
X146445886Y-55710314D01*
X146445886Y-55841266D01*
X146445550Y-55842954D01*
X146445799Y-55843702D01*
X146444344Y-55849013D01*
X146443269Y-55854421D01*
X146442711Y-55854978D01*
X146442257Y-55856639D01*
X146434643Y-55871866D01*
X146443269Y-55880492D01*
X146443269Y-55906802D01*
X146424666Y-55925405D01*
X146411511Y-55928022D01*
X146123416Y-55928022D01*
X146121728Y-55927686D01*
X146120980Y-55927936D01*
X146115661Y-55926479D01*
X146110261Y-55925405D01*
X146109703Y-55924847D01*
X146108044Y-55924393D01*
X146055662Y-55898203D01*
X146050255Y-55894006D01*
X146048513Y-55893426D01*
X146047006Y-55891485D01*
X146045066Y-55889979D01*
X146044485Y-55888236D01*
X146040289Y-55882830D01*
X146014098Y-55830449D01*
X146013643Y-55828788D01*
X146013086Y-55828231D01*
X146012010Y-55822826D01*
X146010556Y-55817513D01*
X146010805Y-55816765D01*
X146010469Y-55815076D01*
X146010469Y-55710314D01*
X146010805Y-55708624D01*
X146010556Y-55707877D01*
X146012010Y-55702563D01*
X146013086Y-55697159D01*
X146013643Y-55696601D01*
X146014098Y-55694941D01*
X146040289Y-55642560D01*
X146048513Y-55631964D01*
X146073472Y-55623645D01*
X146097004Y-55635411D01*
X146105323Y-55660370D01*
X146101781Y-55673306D01*
X146079219Y-55718429D01*
X146079219Y-55806961D01*
X146096656Y-55841835D01*
X146131530Y-55859272D01*
X146154552Y-55859272D01*
X146231416Y-55859272D01*
X146364076Y-55859272D01*
X146377136Y-55833151D01*
X146377136Y-55718429D01*
X146359699Y-55683554D01*
X146324824Y-55666117D01*
X146288674Y-55666117D01*
X146253799Y-55683554D01*
X146236362Y-55718429D01*
X146236362Y-55841266D01*
X146236026Y-55842954D01*
X146236275Y-55843702D01*
X146234820Y-55849013D01*
X146233745Y-55854421D01*
X146233187Y-55854978D01*
X146232733Y-55856639D01*
X146231416Y-55859272D01*
X146154552Y-55859272D01*
X146167612Y-55833151D01*
X146167612Y-55710314D01*
X146167948Y-55708624D01*
X146167699Y-55707877D01*
X146169153Y-55702563D01*
X146170229Y-55697159D01*
X146170786Y-55696601D01*
X146171241Y-55694941D01*
X146197432Y-55642560D01*
X146201628Y-55637153D01*
X146202209Y-55635411D01*
X146204149Y-55633904D01*
X146205656Y-55631964D01*
X146207398Y-55631383D01*
X146212805Y-55627187D01*
X146265186Y-55600996D01*
X146266846Y-55600541D01*
X146267404Y-55599984D01*
X146272808Y-55598908D01*
X146278122Y-55597454D01*
X146278869Y-55597703D01*
X146280559Y-55597367D01*
X146288674Y-55597367D01*
G37*
G36*
X135201600Y-55724600D02*
G01*
X134801600Y-55724600D01*
X134801600Y-55324600D01*
X135201600Y-55324600D01*
X135201600Y-55724600D01*
G37*
G36*
X138001600Y-55724600D02*
G01*
X137201600Y-55724600D01*
X137201600Y-55324600D01*
X138001600Y-55324600D01*
X138001600Y-55724600D01*
G37*
G36*
X142001600Y-55724600D02*
G01*
X141601600Y-55724600D01*
X141601600Y-55324600D01*
X142001600Y-55324600D01*
X142001600Y-55724600D01*
G37*
G36*
X143601600Y-55724600D02*
G01*
X142801600Y-55724600D01*
X142801600Y-55324600D01*
X143601600Y-55324600D01*
X143601600Y-55724600D01*
G37*
G36*
X146561590Y-54974609D02*
G01*
X146576184Y-54996500D01*
X146571025Y-55022298D01*
X146561531Y-55031773D01*
X145854389Y-55503201D01*
X145841992Y-55508321D01*
X145816194Y-55503162D01*
X145801600Y-55481270D01*
X145806760Y-55455473D01*
X145816254Y-55445998D01*
X146523395Y-54974569D01*
X146535792Y-54969450D01*
X146561590Y-54974609D01*
G37*
G36*
X141201600Y-55324600D02*
G01*
X140801600Y-55324600D01*
X140801600Y-54924600D01*
X141201600Y-54924600D01*
X141201600Y-55324600D01*
G37*
G36*
X146561590Y-54398419D02*
G01*
X146576184Y-54420310D01*
X146571025Y-54446108D01*
X146561531Y-54455583D01*
X145854389Y-54927011D01*
X145841992Y-54932131D01*
X145816194Y-54926972D01*
X145801600Y-54905080D01*
X145806760Y-54879283D01*
X145816254Y-54869808D01*
X146523395Y-54398379D01*
X146535792Y-54393260D01*
X146561590Y-54398419D01*
G37*
G36*
X136801600Y-54124600D02*
G01*
X135601600Y-54124600D01*
X135601600Y-52924600D01*
X136801600Y-52924600D01*
X136801600Y-54124600D01*
G37*
G36*
X135201600Y-52124600D02*
G01*
X137201600Y-52124600D01*
X137601600Y-52124600D01*
X137601600Y-54924600D01*
X137201600Y-54924600D01*
X135201600Y-54924600D01*
X134801600Y-54924600D01*
X134801600Y-54524600D01*
X135201600Y-54524600D01*
X137201600Y-54524600D01*
X137201600Y-52524600D01*
X135201600Y-52524600D01*
X135201600Y-54524600D01*
X134801600Y-54524600D01*
X134801600Y-52124600D01*
X135201600Y-52124600D01*
G37*
G36*
X138401600Y-54924600D02*
G01*
X138001600Y-54924600D01*
X138001600Y-54524600D01*
X138401600Y-54524600D01*
X138401600Y-54924600D01*
G37*
G36*
X140801600Y-54924600D02*
G01*
X140401600Y-54924600D01*
X140401600Y-54524600D01*
X140801600Y-54524600D01*
X140801600Y-54924600D01*
G37*
G36*
X141601600Y-54924600D02*
G01*
X141201600Y-54924600D01*
X141201600Y-54524600D01*
X140801600Y-54524600D01*
X140801600Y-54124600D01*
X141201600Y-54124600D01*
X141201600Y-53724600D01*
X141601600Y-53724600D01*
X141601600Y-54924600D01*
G37*
G36*
X144001600Y-54124600D02*
G01*
X142801600Y-54124600D01*
X142801600Y-52924600D01*
X144001600Y-52924600D01*
X144001600Y-54124600D01*
G37*
G36*
X142401600Y-52124600D02*
G01*
X144401600Y-52124600D01*
X144801600Y-52124600D01*
X144801600Y-54924600D01*
X144401600Y-54924600D01*
X142401600Y-54924600D01*
X142001600Y-54924600D01*
X142001600Y-54524600D01*
X142401600Y-54524600D01*
X144401600Y-54524600D01*
X144401600Y-52524600D01*
X142401600Y-52524600D01*
X142401600Y-54524600D01*
X142001600Y-54524600D01*
X142001600Y-52124600D01*
X142401600Y-52124600D01*
G37*
G36*
X140401600Y-54524600D02*
G01*
X140001600Y-54524600D01*
X140001600Y-53724600D01*
X140401600Y-53724600D01*
X140401600Y-54524600D01*
G37*
G36*
X146110382Y-54185701D02*
G01*
X146121532Y-54193150D01*
X146147723Y-54219341D01*
X146155175Y-54230494D01*
X146155175Y-54256803D01*
X146155171Y-54256806D01*
X146147722Y-54267955D01*
X146121531Y-54294145D01*
X146110379Y-54301597D01*
X146084070Y-54301596D01*
X146084067Y-54301593D01*
X146072918Y-54294145D01*
X146046728Y-54267955D01*
X146039279Y-54256805D01*
X146039277Y-54256803D01*
X146039276Y-54230494D01*
X146046728Y-54219342D01*
X146072918Y-54193151D01*
X146084070Y-54185699D01*
X146110379Y-54185698D01*
X146110382Y-54185701D01*
G37*
G36*
X146398476Y-54185699D02*
G01*
X146409628Y-54193151D01*
X146435818Y-54219342D01*
X146443270Y-54230494D01*
X146443269Y-54256803D01*
X146443266Y-54256805D01*
X146435818Y-54267955D01*
X146409628Y-54294145D01*
X146398478Y-54301593D01*
X146398476Y-54301596D01*
X146372167Y-54301597D01*
X146361015Y-54294145D01*
X146334824Y-54267955D01*
X146327374Y-54256806D01*
X146327371Y-54256803D01*
X146327371Y-54230494D01*
X146334823Y-54219341D01*
X146361014Y-54193150D01*
X146372163Y-54185701D01*
X146372167Y-54185698D01*
X146398476Y-54185699D01*
G37*
G36*
X146151295Y-53738180D02*
G01*
X146152043Y-53737931D01*
X146157356Y-53739385D01*
X146162761Y-53740461D01*
X146163318Y-53741018D01*
X146164979Y-53741473D01*
X146217360Y-53767664D01*
X146222766Y-53771860D01*
X146224509Y-53772441D01*
X146226015Y-53774381D01*
X146227956Y-53775888D01*
X146228536Y-53777630D01*
X146232733Y-53783037D01*
X146258924Y-53835418D01*
X146259378Y-53837078D01*
X146259936Y-53837636D01*
X146261011Y-53843040D01*
X146262466Y-53848354D01*
X146262216Y-53849101D01*
X146262553Y-53850791D01*
X146262553Y-53921247D01*
X146279989Y-53956121D01*
X146314864Y-53973559D01*
X146324824Y-53973559D01*
X146359699Y-53956121D01*
X146377136Y-53921247D01*
X146377136Y-53832715D01*
X146354575Y-53787592D01*
X146351033Y-53774655D01*
X146359352Y-53749697D01*
X146382885Y-53737931D01*
X146407843Y-53746250D01*
X146416067Y-53756846D01*
X146442257Y-53809228D01*
X146442711Y-53810887D01*
X146443269Y-53811445D01*
X146444343Y-53816845D01*
X146445800Y-53822164D01*
X146445550Y-53822912D01*
X146445886Y-53824600D01*
X146445886Y-53929362D01*
X146445550Y-53931050D01*
X146445799Y-53931798D01*
X146444344Y-53937109D01*
X146443269Y-53942517D01*
X146442711Y-53943074D01*
X146442257Y-53944735D01*
X146416067Y-53997116D01*
X146411870Y-54002522D01*
X146411290Y-54004265D01*
X146409349Y-54005771D01*
X146407843Y-54007712D01*
X146406100Y-54008292D01*
X146400694Y-54012489D01*
X146348313Y-54038680D01*
X146346652Y-54039134D01*
X146346095Y-54039692D01*
X146340690Y-54040767D01*
X146335377Y-54042222D01*
X146334629Y-54041972D01*
X146332940Y-54042309D01*
X146306749Y-54042309D01*
X146305059Y-54041972D01*
X146304312Y-54042222D01*
X146298998Y-54040767D01*
X146293594Y-54039692D01*
X146293036Y-54039134D01*
X146291376Y-54038680D01*
X146238995Y-54012489D01*
X146233588Y-54008292D01*
X146231846Y-54007712D01*
X146230339Y-54005771D01*
X146228399Y-54004265D01*
X146227818Y-54002522D01*
X146223622Y-53997116D01*
X146197432Y-53944735D01*
X146196977Y-53943074D01*
X146196420Y-53942517D01*
X146195344Y-53937109D01*
X146193890Y-53931798D01*
X146194138Y-53931050D01*
X146193803Y-53929362D01*
X146193803Y-53858906D01*
X146176365Y-53824031D01*
X146141490Y-53806594D01*
X146131531Y-53806594D01*
X146096656Y-53824031D01*
X146079219Y-53858906D01*
X146079219Y-53921247D01*
X146101781Y-53966370D01*
X146105323Y-53979306D01*
X146097004Y-54004265D01*
X146073472Y-54016031D01*
X146048513Y-54007712D01*
X146040289Y-53997116D01*
X146014098Y-53944735D01*
X146013643Y-53943074D01*
X146013086Y-53942517D01*
X146012010Y-53937112D01*
X146010556Y-53931799D01*
X146010805Y-53931051D01*
X146010469Y-53929362D01*
X146010469Y-53850791D01*
X146010805Y-53849101D01*
X146010556Y-53848354D01*
X146012010Y-53843040D01*
X146013086Y-53837636D01*
X146013643Y-53837078D01*
X146014098Y-53835418D01*
X146040289Y-53783037D01*
X146044485Y-53777630D01*
X146045066Y-53775888D01*
X146047006Y-53774381D01*
X146048513Y-53772441D01*
X146050255Y-53771860D01*
X146055662Y-53767664D01*
X146108043Y-53741473D01*
X146109703Y-53741018D01*
X146110261Y-53740461D01*
X146115665Y-53739385D01*
X146120979Y-53737931D01*
X146121726Y-53738180D01*
X146123416Y-53737844D01*
X146149606Y-53737844D01*
X146151295Y-53738180D01*
G37*
G36*
X140001600Y-52924600D02*
G01*
X139601600Y-52924600D01*
X139601600Y-53724600D01*
X139201600Y-53724600D01*
X139201600Y-52924600D01*
X138801600Y-52924600D01*
X138801600Y-52524600D01*
X139201600Y-52524600D01*
X139601600Y-52524600D01*
X140001600Y-52524600D01*
X140001600Y-52924600D01*
G37*
G36*
X141601600Y-52524600D02*
G01*
X140801600Y-52524600D01*
X140801600Y-53724600D01*
X140401600Y-53724600D01*
X140401600Y-52524600D01*
X140001600Y-52524600D01*
X140001600Y-52124600D01*
X140401600Y-52124600D01*
X140801600Y-52124600D01*
X141601600Y-52124600D01*
X141601600Y-52524600D01*
G37*
G36*
X146092279Y-53266416D02*
G01*
X146594844Y-53266416D01*
X146607999Y-53269033D01*
X146626602Y-53287636D01*
X146626602Y-53313946D01*
X146607999Y-53332549D01*
X146594844Y-53335166D01*
X146440940Y-53335166D01*
X146442257Y-53337800D01*
X146442711Y-53339459D01*
X146443269Y-53340017D01*
X146444343Y-53345417D01*
X146445800Y-53350736D01*
X146445550Y-53351484D01*
X146445886Y-53353172D01*
X146445886Y-53457934D01*
X146445550Y-53459622D01*
X146445799Y-53460370D01*
X146444344Y-53465681D01*
X146443269Y-53471089D01*
X146442711Y-53471646D01*
X146442257Y-53473307D01*
X146416067Y-53525688D01*
X146412686Y-53530044D01*
X146409627Y-53534622D01*
X146383436Y-53560812D01*
X146378856Y-53563872D01*
X146374503Y-53567251D01*
X146322122Y-53593442D01*
X146320461Y-53593896D01*
X146319904Y-53594454D01*
X146314499Y-53595529D01*
X146309186Y-53596984D01*
X146308438Y-53596734D01*
X146306749Y-53597071D01*
X146149606Y-53597071D01*
X146147916Y-53596734D01*
X146147169Y-53596984D01*
X146141855Y-53595529D01*
X146136451Y-53594454D01*
X146135893Y-53593896D01*
X146134233Y-53593442D01*
X146081852Y-53567251D01*
X146077498Y-53563872D01*
X146072918Y-53560812D01*
X146046728Y-53534622D01*
X146043667Y-53530041D01*
X146040289Y-53525688D01*
X146014098Y-53473307D01*
X146013643Y-53471646D01*
X146013086Y-53471089D01*
X146012010Y-53465684D01*
X146010556Y-53460371D01*
X146010805Y-53459623D01*
X146010469Y-53457934D01*
X146010469Y-53361287D01*
X146079219Y-53361287D01*
X146079219Y-53449819D01*
X146099285Y-53489951D01*
X146117588Y-53508254D01*
X146157721Y-53528321D01*
X146298633Y-53528321D01*
X146338769Y-53508252D01*
X146357069Y-53489952D01*
X146377136Y-53449819D01*
X146377136Y-53361287D01*
X146364075Y-53335166D01*
X146092279Y-53335166D01*
X146079219Y-53361287D01*
X146010469Y-53361287D01*
X146010469Y-53353172D01*
X146010805Y-53351482D01*
X146010556Y-53350735D01*
X146012010Y-53345421D01*
X146013086Y-53340017D01*
X146013643Y-53339459D01*
X146014098Y-53337799D01*
X146021711Y-53322571D01*
X146013086Y-53313946D01*
X146013086Y-53287636D01*
X146031689Y-53269033D01*
X146044844Y-53266416D01*
X146092279Y-53266416D01*
G37*
G36*
X141601600Y-53324600D02*
G01*
X141201600Y-53324600D01*
X141201600Y-52924600D01*
X141601600Y-52924600D01*
X141601600Y-53324600D01*
G37*
G36*
X146076602Y-52894778D02*
G01*
X146079219Y-52907933D01*
X146079219Y-52952130D01*
X146332940Y-52952130D01*
X146334628Y-52952465D01*
X146335376Y-52952217D01*
X146340687Y-52953671D01*
X146346095Y-52954747D01*
X146346652Y-52955304D01*
X146348313Y-52955759D01*
X146400694Y-52981949D01*
X146406100Y-52986145D01*
X146407843Y-52986726D01*
X146409349Y-52988666D01*
X146411290Y-52990173D01*
X146411870Y-52991915D01*
X146416067Y-52997322D01*
X146442257Y-53049704D01*
X146442711Y-53051363D01*
X146443269Y-53051921D01*
X146444343Y-53057321D01*
X146445800Y-53062640D01*
X146445550Y-53063388D01*
X146445886Y-53065076D01*
X146445886Y-53117457D01*
X146443269Y-53130612D01*
X146424666Y-53149215D01*
X146398356Y-53149215D01*
X146379753Y-53130612D01*
X146377136Y-53117457D01*
X146377136Y-53073191D01*
X146359699Y-53038316D01*
X146324825Y-53020880D01*
X146079219Y-53020880D01*
X146079219Y-53117457D01*
X146076602Y-53130612D01*
X146057999Y-53149215D01*
X146031689Y-53149215D01*
X146013086Y-53130612D01*
X146010469Y-53117457D01*
X146010469Y-53020880D01*
X145861511Y-53020880D01*
X145848356Y-53018263D01*
X145829753Y-52999660D01*
X145829753Y-52973350D01*
X145848356Y-52954747D01*
X145861511Y-52952130D01*
X146010469Y-52952130D01*
X146010469Y-52907933D01*
X146013086Y-52894778D01*
X146031689Y-52876175D01*
X146057999Y-52876175D01*
X146076602Y-52894778D01*
G37*
G36*
X138401600Y-52924600D02*
G01*
X138001600Y-52924600D01*
X138001600Y-52124600D01*
X138401600Y-52124600D01*
X138401600Y-52924600D01*
G37*
G36*
X146076602Y-52580492D02*
G01*
X146079219Y-52593647D01*
X146079219Y-52637844D01*
X146332940Y-52637844D01*
X146334628Y-52638179D01*
X146335376Y-52637931D01*
X146340687Y-52639385D01*
X146346095Y-52640461D01*
X146346652Y-52641018D01*
X146348313Y-52641473D01*
X146400694Y-52667663D01*
X146406100Y-52671859D01*
X146407843Y-52672440D01*
X146409349Y-52674380D01*
X146411290Y-52675887D01*
X146411870Y-52677629D01*
X146416067Y-52683036D01*
X146442257Y-52735418D01*
X146442711Y-52737077D01*
X146443269Y-52737635D01*
X146444343Y-52743035D01*
X146445800Y-52748354D01*
X146445550Y-52749102D01*
X146445886Y-52750790D01*
X146445886Y-52803171D01*
X146443269Y-52816326D01*
X146424666Y-52834929D01*
X146398356Y-52834929D01*
X146379753Y-52816326D01*
X146377136Y-52803171D01*
X146377136Y-52758905D01*
X146359699Y-52724030D01*
X146324825Y-52706594D01*
X146079219Y-52706594D01*
X146079219Y-52803171D01*
X146076602Y-52816326D01*
X146057999Y-52834929D01*
X146031689Y-52834929D01*
X146013086Y-52816326D01*
X146010469Y-52803171D01*
X146010469Y-52706594D01*
X145861511Y-52706594D01*
X145848356Y-52703977D01*
X145829753Y-52685374D01*
X145829753Y-52659064D01*
X145848356Y-52640461D01*
X145861511Y-52637844D01*
X146010469Y-52637844D01*
X146010469Y-52593647D01*
X146013086Y-52580492D01*
X146031689Y-52561889D01*
X146057999Y-52561889D01*
X146076602Y-52580492D01*
G37*
G36*
X146424666Y-52142842D02*
G01*
X146443269Y-52161445D01*
X146443269Y-52187755D01*
X146424666Y-52206358D01*
X146411511Y-52208975D01*
X146111464Y-52208975D01*
X146099285Y-52221153D01*
X146079219Y-52261286D01*
X146079219Y-52323628D01*
X146096656Y-52358502D01*
X146131530Y-52375939D01*
X146411511Y-52375939D01*
X146424666Y-52378556D01*
X146443269Y-52397159D01*
X146443269Y-52423469D01*
X146424666Y-52442072D01*
X146411511Y-52444689D01*
X146123416Y-52444689D01*
X146121728Y-52444353D01*
X146120980Y-52444603D01*
X146115661Y-52443146D01*
X146110261Y-52442072D01*
X146109703Y-52441514D01*
X146108044Y-52441060D01*
X146055662Y-52414870D01*
X146050255Y-52410673D01*
X146048513Y-52410093D01*
X146047006Y-52408152D01*
X146045066Y-52406646D01*
X146044485Y-52404903D01*
X146040289Y-52399497D01*
X146014098Y-52347116D01*
X146013643Y-52345455D01*
X146013086Y-52344898D01*
X146012010Y-52339493D01*
X146010556Y-52334180D01*
X146010805Y-52333432D01*
X146010469Y-52331743D01*
X146010469Y-52253171D01*
X146010805Y-52251481D01*
X146010556Y-52250734D01*
X146012010Y-52245420D01*
X146013086Y-52240016D01*
X146013643Y-52239458D01*
X146014098Y-52237798D01*
X146028509Y-52208975D01*
X145861511Y-52208975D01*
X145848356Y-52206358D01*
X145829753Y-52187755D01*
X145829753Y-52161445D01*
X145848356Y-52142842D01*
X145861511Y-52140225D01*
X146411511Y-52140225D01*
X146424666Y-52142842D01*
G37*
D11*
X113133500Y-47625000D02*
X158951300Y-47625000D01*
X158951300Y-52037000D01*
X113133500Y-52037000D01*
X113133500Y-47625000D01*
D12*
X151271119Y-47215093D02*
X151271119Y-47881759D01*
X151271119Y-47881759D02*
X152271119Y-47215093D01*
X152271119Y-47215093D02*
X152271119Y-47881759D01*
X152271119Y-48262712D02*
X151604452Y-48262712D01*
X151271119Y-48262712D02*
X151318738Y-48215093D01*
X151318738Y-48215093D02*
X151366357Y-48262712D01*
X151366357Y-48262712D02*
X151318738Y-48310331D01*
X151318738Y-48310331D02*
X151271119Y-48262712D01*
X151271119Y-48262712D02*
X151366357Y-48262712D01*
X151604452Y-48738902D02*
X152604452Y-48738902D01*
X151652071Y-48738902D02*
X151604452Y-48834140D01*
X151604452Y-48834140D02*
X151604452Y-49024616D01*
X151604452Y-49024616D02*
X151652071Y-49119854D01*
X151652071Y-49119854D02*
X151699690Y-49167473D01*
X151699690Y-49167473D02*
X151794928Y-49215092D01*
X151794928Y-49215092D02*
X152080642Y-49215092D01*
X152080642Y-49215092D02*
X152175880Y-49167473D01*
X152175880Y-49167473D02*
X152223500Y-49119854D01*
X152223500Y-49119854D02*
X152271119Y-49024616D01*
X152271119Y-49024616D02*
X152271119Y-48834140D01*
X152271119Y-48834140D02*
X152223500Y-48738902D01*
X151271119Y-50262712D02*
X151271119Y-50834140D01*
X152271119Y-50548426D02*
X151271119Y-50548426D01*
X152271119Y-51167474D02*
X151604452Y-51167474D01*
X151271119Y-51167474D02*
X151318738Y-51119855D01*
X151318738Y-51119855D02*
X151366357Y-51167474D01*
X151366357Y-51167474D02*
X151318738Y-51215093D01*
X151318738Y-51215093D02*
X151271119Y-51167474D01*
X151271119Y-51167474D02*
X151366357Y-51167474D01*
X152223500Y-52024616D02*
X152271119Y-51929378D01*
X152271119Y-51929378D02*
X152271119Y-51738902D01*
X152271119Y-51738902D02*
X152223500Y-51643664D01*
X152223500Y-51643664D02*
X152128261Y-51596045D01*
X152128261Y-51596045D02*
X151747309Y-51596045D01*
X151747309Y-51596045D02*
X151652071Y-51643664D01*
X151652071Y-51643664D02*
X151604452Y-51738902D01*
X151604452Y-51738902D02*
X151604452Y-51929378D01*
X151604452Y-51929378D02*
X151652071Y-52024616D01*
X151652071Y-52024616D02*
X151747309Y-52072235D01*
X151747309Y-52072235D02*
X151842547Y-52072235D01*
X151842547Y-52072235D02*
X151937785Y-51596045D01*
D13*
X146676203Y-49815114D02*
X146176203Y-49815114D01*
X146060132Y-50600828D02*
X146774417Y-50600828D01*
X146774417Y-50600828D02*
X146586917Y-49100828D01*
X146586917Y-49100828D02*
X145872632Y-49100828D01*
X145444060Y-49100828D02*
X144586917Y-49100828D01*
X145202989Y-50600828D02*
X145015489Y-49100828D01*
X144274417Y-50600828D02*
X144086917Y-49100828D01*
X144176203Y-49815114D02*
X143319060Y-49815114D01*
X143417274Y-50600828D02*
X143229774Y-49100828D01*
X140685131Y-50457971D02*
X140765488Y-50529400D01*
X140765488Y-50529400D02*
X140988703Y-50600828D01*
X140988703Y-50600828D02*
X141131560Y-50600828D01*
X141131560Y-50600828D02*
X141336917Y-50529400D01*
X141336917Y-50529400D02*
X141461917Y-50386542D01*
X141461917Y-50386542D02*
X141515488Y-50243685D01*
X141515488Y-50243685D02*
X141551203Y-49957971D01*
X141551203Y-49957971D02*
X141524417Y-49743685D01*
X141524417Y-49743685D02*
X141417274Y-49457971D01*
X141417274Y-49457971D02*
X141327988Y-49315114D01*
X141327988Y-49315114D02*
X141167274Y-49172257D01*
X141167274Y-49172257D02*
X140944060Y-49100828D01*
X140944060Y-49100828D02*
X140801203Y-49100828D01*
X140801203Y-49100828D02*
X140595846Y-49172257D01*
X140595846Y-49172257D02*
X140533346Y-49243685D01*
X139417274Y-50600828D02*
X139319060Y-49815114D01*
X139319060Y-49815114D02*
X139372631Y-49672257D01*
X139372631Y-49672257D02*
X139506560Y-49600828D01*
X139506560Y-49600828D02*
X139792274Y-49600828D01*
X139792274Y-49600828D02*
X139944060Y-49672257D01*
X139408346Y-50529400D02*
X139560131Y-50600828D01*
X139560131Y-50600828D02*
X139917274Y-50600828D01*
X139917274Y-50600828D02*
X140051203Y-50529400D01*
X140051203Y-50529400D02*
X140104774Y-50386542D01*
X140104774Y-50386542D02*
X140086917Y-50243685D01*
X140086917Y-50243685D02*
X139997631Y-50100828D01*
X139997631Y-50100828D02*
X139845846Y-50029400D01*
X139845846Y-50029400D02*
X139488703Y-50029400D01*
X139488703Y-50029400D02*
X139336917Y-49957971D01*
X138702988Y-50600828D02*
X138515488Y-49100828D01*
X138586917Y-49672257D02*
X138435131Y-49600828D01*
X138435131Y-49600828D02*
X138149417Y-49600828D01*
X138149417Y-49600828D02*
X138015488Y-49672257D01*
X138015488Y-49672257D02*
X137952988Y-49743685D01*
X137952988Y-49743685D02*
X137899417Y-49886542D01*
X137899417Y-49886542D02*
X137952988Y-50315114D01*
X137952988Y-50315114D02*
X138042274Y-50457971D01*
X138042274Y-50457971D02*
X138122631Y-50529400D01*
X138122631Y-50529400D02*
X138274417Y-50600828D01*
X138274417Y-50600828D02*
X138560131Y-50600828D01*
X138560131Y-50600828D02*
X138694060Y-50529400D01*
X137131560Y-50600828D02*
X137265488Y-50529400D01*
X137265488Y-50529400D02*
X137319060Y-50386542D01*
X137319060Y-50386542D02*
X137158345Y-49100828D01*
X135979774Y-50529400D02*
X136131560Y-50600828D01*
X136131560Y-50600828D02*
X136417274Y-50600828D01*
X136417274Y-50600828D02*
X136551203Y-50529400D01*
X136551203Y-50529400D02*
X136604774Y-50386542D01*
X136604774Y-50386542D02*
X136533346Y-49815114D01*
X136533346Y-49815114D02*
X136444060Y-49672257D01*
X136444060Y-49672257D02*
X136292274Y-49600828D01*
X136292274Y-49600828D02*
X136006560Y-49600828D01*
X136006560Y-49600828D02*
X135872631Y-49672257D01*
X135872631Y-49672257D02*
X135819060Y-49815114D01*
X135819060Y-49815114D02*
X135836917Y-49957971D01*
X135836917Y-49957971D02*
X136569060Y-50100828D01*
D14*
X110963219Y-49243466D02*
X111677504Y-49243466D01*
X111677504Y-49243466D02*
X111820361Y-49195847D01*
X111820361Y-49195847D02*
X111915600Y-49100609D01*
X111915600Y-49100609D02*
X111963219Y-48957752D01*
X111963219Y-48957752D02*
X111963219Y-48862514D01*
X111963219Y-50243466D02*
X111963219Y-49672038D01*
X111963219Y-49957752D02*
X110963219Y-49957752D01*
X110963219Y-49957752D02*
X111106076Y-49862514D01*
X111106076Y-49862514D02*
X111201314Y-49767276D01*
X111201314Y-49767276D02*
X111248933Y-49672038D01*
X128436666Y-56504819D02*
X128769999Y-56028628D01*
X129008094Y-56504819D02*
X129008094Y-55504819D01*
X129008094Y-55504819D02*
X128627142Y-55504819D01*
X128627142Y-55504819D02*
X128531904Y-55552438D01*
X128531904Y-55552438D02*
X128484285Y-55600057D01*
X128484285Y-55600057D02*
X128436666Y-55695295D01*
X128436666Y-55695295D02*
X128436666Y-55838152D01*
X128436666Y-55838152D02*
X128484285Y-55933390D01*
X128484285Y-55933390D02*
X128531904Y-55981009D01*
X128531904Y-55981009D02*
X128627142Y-56028628D01*
X128627142Y-56028628D02*
X129008094Y-56028628D01*
X127484285Y-56504819D02*
X128055713Y-56504819D01*
X127769999Y-56504819D02*
X127769999Y-55504819D01*
X127769999Y-55504819D02*
X127865237Y-55647676D01*
X127865237Y-55647676D02*
X127960475Y-55742914D01*
X127960475Y-55742914D02*
X128055713Y-55790533D01*
X129055713Y-60340057D02*
X129008094Y-60292438D01*
X129008094Y-60292438D02*
X128912856Y-60244819D01*
X128912856Y-60244819D02*
X128674761Y-60244819D01*
X128674761Y-60244819D02*
X128579523Y-60292438D01*
X128579523Y-60292438D02*
X128531904Y-60340057D01*
X128531904Y-60340057D02*
X128484285Y-60435295D01*
X128484285Y-60435295D02*
X128484285Y-60530533D01*
X128484285Y-60530533D02*
X128531904Y-60673390D01*
X128531904Y-60673390D02*
X129103332Y-61244819D01*
X129103332Y-61244819D02*
X128484285Y-61244819D01*
X128055713Y-61244819D02*
X128055713Y-60244819D01*
X127484285Y-61244819D02*
X127912856Y-60673390D01*
X127484285Y-60244819D02*
X128055713Y-60816247D01*
%TO.C,J1*%
D15*
X103208401Y-58636800D02*
X102708400Y-58136800D01*
X102208400Y-58636800D02*
X103208401Y-58636800D01*
X102708400Y-58136800D02*
X102208400Y-58636800D01*
X110118400Y-57941800D02*
X102508400Y-57941802D01*
X94148400Y-57941799D02*
X99708399Y-57941801D01*
X110118400Y-57896800D02*
X110118400Y-41256801D01*
X94148400Y-57896800D02*
X94148401Y-41211801D01*
X110118399Y-41211800D02*
X102508400Y-41211800D01*
X94148401Y-41211801D02*
X99708400Y-41211800D01*
%TO.C,R1*%
X125000000Y-57050000D02*
X125000000Y-57380000D01*
X125000000Y-59790000D02*
X125000000Y-59460000D01*
X131540000Y-57050000D02*
X125000000Y-57050000D01*
X131540000Y-57380000D02*
X131540000Y-57050000D01*
X131540000Y-59460000D02*
X131540000Y-59790000D01*
X131540000Y-59790000D02*
X125000000Y-59790000D01*
%TD*%
M02*
