%TF.GenerationSoftware,KiCad,Pcbnew,10.0.2*%
%TF.CreationDate,2026-05-23T16:48:59-05:00*%
%TF.ProjectId,radar,72616461-722e-46b6-9963-61645f706362,rev?*%
%TF.SameCoordinates,Original*%
%TF.FileFunction,Copper,L2,Bot*%
%TF.FilePolarity,Positive*%
%FSLAX46Y46*%
G04 Gerber Fmt 4.6, Leading zero omitted, Abs format (unit mm)*
G04 Created by KiCad (PCBNEW 10.0.2) date 2026-05-23 16:48:59*
%MOMM*%
%LPD*%
G01*
G04 APERTURE LIST*
%TA.AperFunction,ComponentPad*%
%ADD10R,1.500000X1.500000*%
%TD*%
%TA.AperFunction,ComponentPad*%
%ADD11C,1.500000*%
%TD*%
%TA.AperFunction,ComponentPad*%
%ADD12C,2.300000*%
%TD*%
%TA.AperFunction,ComponentPad*%
%ADD13R,1.800000X1.800000*%
%TD*%
%TA.AperFunction,ComponentPad*%
%ADD14C,1.800000*%
%TD*%
%TA.AperFunction,ComponentPad*%
%ADD15R,1.000000X1.000000*%
%TD*%
%TA.AperFunction,ComponentPad*%
%ADD16C,1.000000*%
%TD*%
%TA.AperFunction,ComponentPad*%
%ADD17C,1.600000*%
%TD*%
%TA.AperFunction,ViaPad*%
%ADD18C,0.600000*%
%TD*%
%TA.AperFunction,Conductor*%
%ADD19C,0.400000*%
%TD*%
G04 APERTURE END LIST*
D10*
%TO.P,J1,1*%
%TO.N,/UART_RX*%
X102008400Y-53136800D03*
D11*
%TO.P,J1,2*%
%TO.N,/UART_TX*%
X100228401Y-52120800D03*
%TO.P,J1,3*%
%TO.N,/OUT*%
X102008400Y-51104800D03*
%TO.P,J1,4*%
%TO.N,/VCC 5V*%
X100228401Y-50088800D03*
%TO.P,J1,5*%
X102008400Y-49072799D03*
%TO.P,J1,6*%
%TO.N,unconnected-(J1-Pad6)*%
X100228399Y-48056801D03*
%TO.P,J1,7*%
%TO.N,/GND*%
X102008400Y-47040800D03*
%TO.P,J1,8*%
X100228398Y-46024799D03*
D12*
%TO.P,J1,SH*%
%TO.N,unconnected-(J1-PadSH)*%
X101118400Y-57706800D03*
X101118400Y-41446800D03*
%TD*%
D13*
%TO.P,D1,1,K_1*%
%TO.N,/GND*%
X120650000Y-57150000D03*
D14*
%TO.P,D1,2,A_2*%
%TO.N,Net-(D1-A)*%
X120650000Y-59690000D03*
%TD*%
D15*
%TO.P,J2,1,Pin_1_1*%
%TO.N,/OUT*%
X114020000Y-39370000D03*
D16*
%TO.P,J2,2,Pin_2_2*%
%TO.N,/UART_TX*%
X114020000Y-40640000D03*
%TO.P,J2,3,Pin_3_3*%
%TO.N,/UART_RX*%
X114020000Y-41910000D03*
%TO.P,J2,4,Pin_4_4*%
%TO.N,/GND*%
X114020000Y-43180000D03*
%TO.P,J2,5,Pin_5_5*%
%TO.N,/VCC 5V*%
X114020000Y-44450000D03*
%TD*%
D17*
%TO.P,R1,1*%
%TO.N,/VCC 5V*%
X132080000Y-58420000D03*
%TO.P,R1,2*%
%TO.N,Net-(D1-A)*%
X124460000Y-58420000D03*
%TD*%
D18*
%TO.N,/UART_TX*%
X108966000Y-42011600D03*
%TD*%
%TO.N,/OUT*%
D19*
X113743200Y-39370000D02*
X114020000Y-39370000D01*
X102008400Y-51104800D02*
X113743200Y-39370000D01*
%TO.N,/UART_TX*%
X99065600Y-50958000D02*
X100228400Y-52120800D01*
X102474300Y-44817700D02*
X99722700Y-44817700D01*
X99722700Y-44817700D02*
X99065600Y-45474800D01*
X103168200Y-45511600D02*
X102474300Y-44817700D01*
X105466000Y-45511600D02*
X103168200Y-45511600D01*
X99065600Y-45474800D02*
X99065600Y-50958000D01*
X108966000Y-42011600D02*
X105466000Y-45511600D01*
%TO.N,/UART_RX*%
X102695100Y-53136800D02*
X102008400Y-53136800D01*
X113921900Y-41910000D02*
X102695100Y-53136800D01*
%TO.N,unconnected-(J1-PadSH)*%
X98463900Y-55052300D02*
X101118400Y-57706800D01*
X98463900Y-44101300D02*
X98463900Y-55052300D01*
X101118400Y-41446800D02*
X98463900Y-44101300D01*
%TO.N,/VCC 5V*%
X100992400Y-50088800D02*
X100228400Y-50088800D01*
X102008400Y-49072800D02*
X100992400Y-50088800D01*
%TO.N,/GND*%
X100992400Y-46024800D02*
X102008400Y-47040800D01*
X100228400Y-46024800D02*
X100992400Y-46024800D01*
X120650000Y-49716000D02*
X114114000Y-43180000D01*
X120650000Y-57150000D02*
X120650000Y-49716000D01*
%TD*%
M02*
