999
"DXF R12 Output" (www.mydxf.blogspot.com)
 0 
SECTION
 2 
HEADER
 9 
$ACADVER
 1 
AC1009
 9 
$EXTMIN
 10 
 0 
 20 
 0 
 9 
$EXTMAX
 10 
 8.5 
 20 
 11 
 0 
ENDSEC
 0 
SECTION
 2 
ENTITIES
0
POLYLINE
8
Layer 1
62
7
70
0
10
0.000000
20
0.000000
66
1
0
VERTEX
8
Layer 1
10
52.449600
20
260.219120
70
0
0
VERTEX
8
Layer 1
10
52.449600
20
258.558240
70
0
0
VERTEX
8
Layer 1
10
55.631830
20
258.558240
70
0
0
VERTEX
8
Layer 1
10
55.631830
20
258.557240
70
0
0
VERTEX
8
Layer 1
10
57.807410
20
258.557240
70
0
0
VERTEX
8
Layer 1
10
58.377913
20
258.461122
70
0
0
VERTEX
8
Layer 1
10
58.799600
20
258.172767
70
0
0
VERTEX
8
Layer 1
10
59.060042
20
257.707679
70
0
0
VERTEX
8
Layer 1
10
59.146860
20
257.081361
70
0
0
VERTEX
8
Layer 1
10
59.146860
20
245.323939
70
0
0
VERTEX
8
Layer 1
10
59.060042
20
244.697621
70
0
0
VERTEX
8
Layer 1
10
58.799600
20
244.232533
70
0
0
VERTEX
8
Layer 1
10
58.377912
20
243.944178
70
0
0
VERTEX
8
Layer 1
10
57.807410
20
243.848060
70
0
0
VERTEX
8
Layer 1
10
54.235530
20
243.848060
70
0
0
VERTEX
8
Layer 1
10
54.235530
20
243.850160
70
0
0
VERTEX
8
Layer 1
10
52.449600
20
243.850160
70
0
0
VERTEX
8
Layer 1
10
52.449600
20
242.186179
70
0
0
VERTEX
8
Layer 1
10
53.416980
20
242.186179
70
0
0
VERTEX
8
Layer 1
10
54.235530
20
242.186179
70
0
0
VERTEX
8
Layer 1
10
57.720590
20
242.186179
70
0
0
VERTEX
8
Layer 1
10
58.669373
20
242.279197
70
0
0
VERTEX
8
Layer 1
10
59.456920
20
242.558250
70
0
0
VERTEX
8
Layer 1
10
60.089441
20
243.026438
70
0
0
VERTEX
8
Layer 1
10
60.548330
20
243.662058
70
0
0
VERTEX
8
Layer 1
10
60.836681
20
244.468211
70
0
0
VERTEX
8
Layer 1
10
60.932800
20
245.423191
70
0
0
VERTEX
8
Layer 1
10
60.932800
20
256.982175
70
0
0
VERTEX
8
Layer 1
10
60.725059
20
258.355735
70
0
0
VERTEX
8
Layer 1
10
60.101840
20
259.375828
70
0
0
VERTEX
8
Layer 1
10
59.094152
20
260.008347
70
0
0
VERTEX
8
Layer 1
10
57.732990
20
260.219187
70
0
0
VERTEX
8
Layer 1
10
54.235530
20
260.219187
70
0
0
VERTEX
8
Layer 1
10
53.416980
20
260.219187
70
0
0
VERTEX
8
Layer 1
10
52.449600
20
260.219120
70
0
0
SEQEND
8
Layer 1
0
POLYLINE
8
Layer 1
62
7
70
0
10
0.000000
20
0.000000
66
1
0
VERTEX
8
Layer 1
10
52.449600
20
245.619092
70
0
0
VERTEX
8
Layer 1
10
54.235530
20
245.619092
70
0
0
VERTEX
8
Layer 1
10
54.233530
20
257.669343
70
0
0
VERTEX
8
Layer 1
10
52.447600
20
257.669343
70
0
0
VERTEX
8
Layer 1
10
52.449600
20
245.619092
70
0
0
SEQEND
8
Layer 1
0
POLYLINE
8
Layer 1
62
7
70
0
10
0.000000
20
0.000000
66
1
0
VERTEX
8
Layer 1
10
13.213470
20
259.648880
70
0
0
VERTEX
8
Layer 1
10
12.414550
20
260.201300
70
0
0
SEQEND
8
Layer 1
0
POLYLINE
8
Layer 1
62
7
70
0
10
0.000000
20
0.000000
66
1
0
VERTEX
8
Layer 1
10
12.469850
20
255.985540
70
0
0
VERTEX
8
Layer 1
10
12.457950
20
255.988540
70
0
0
VERTEX
8
Layer 1
10
14.040280
20
248.208650
70
0
0
VERTEX
8
Layer 1
10
10.889050
20
248.212650
70
0
0
VERTEX
8
Layer 1
10
10.551610
20
246.550740
70
0
0
VERTEX
8
Layer 1
10
14.378250
20
246.546740
70
0
0
VERTEX
8
Layer 1
10
15.268630
20
242.168720
70
0
0
VERTEX
8
Layer 1
10
17.253010
20
242.168720
70
0
0
VERTEX
8
Layer 1
10
13.213470
20
259.648880
70
0
0
SEQEND
8
Layer 1
0
POLYLINE
8
Layer 1
62
7
70
0
10
0.000000
20
0.000000
66
1
0
VERTEX
8
Layer 1
10
12.007860
20
258.198840
70
0
0
VERTEX
8
Layer 1
10
11.594450
20
256.162790
70
0
0
VERTEX
8
Layer 1
10
12.007860
20
258.198840
70
0
0
SEQEND
8
Layer 1
0
POLYLINE
8
Layer 1
62
7
70
0
10
0.000000
20
0.000000
66
1
0
VERTEX
8
Layer 1
10
12.414550
20
260.201300
70
0
0
VERTEX
8
Layer 1
10
12.133430
20
261.651340
70
0
0
VERTEX
8
Layer 1
10
7.966240
20
243.618340
70
0
0
VERTEX
8
Layer 1
10
9.950620
20
243.618340
70
0
0
SEQEND
8
Layer 1
0
POLYLINE
8
Layer 1
62
7
70
0
10
0.000000
20
0.000000
66
1
0
VERTEX
8
Layer 1
10
47.109253
20
259.638960
70
0
0
VERTEX
8
Layer 1
10
46.310333
20
260.191380
70
0
0
SEQEND
8
Layer 1
0
POLYLINE
8
Layer 1
62
7
70
0
10
0.000000
20
0.000000
66
1
0
VERTEX
8
Layer 1
10
46.365633
20
255.975620
70
0
0
VERTEX
8
Layer 1
10
46.353733
20
255.978620
70
0
0
VERTEX
8
Layer 1
10
47.936063
20
248.198730
70
0
0
VERTEX
8
Layer 1
10
44.784833
20
248.202730
70
0
0
VERTEX
8
Layer 1
10
44.447393
20
246.540820
70
0
0
VERTEX
8
Layer 1
10
48.274033
20
246.536820
70
0
0
VERTEX
8
Layer 1
10
49.164413
20
242.158800
70
0
0
VERTEX
8
Layer 1
10
51.148793
20
242.158800
70
0
0
VERTEX
8
Layer 1
10
47.109253
20
259.638960
70
0
0
SEQEND
8
Layer 1
0
POLYLINE
8
Layer 1
62
7
70
0
10
0.000000
20
0.000000
66
1
0
VERTEX
8
Layer 1
10
45.903643
20
258.188920
70
0
0
VERTEX
8
Layer 1
10
45.490233
20
256.152870
70
0
0
VERTEX
8
Layer 1
10
45.903643
20
258.188920
70
0
0
SEQEND
8
Layer 1
0
POLYLINE
8
Layer 1
62
7
70
0
10
0.000000
20
0.000000
66
1
0
VERTEX
8
Layer 1
10
46.310333
20
260.191380
70
0
0
VERTEX
8
Layer 1
10
46.029213
20
261.641420
70
0
0
VERTEX
8
Layer 1
10
41.862023
20
243.608420
70
0
0
VERTEX
8
Layer 1
10
43.846403
20
243.608420
70
0
0
SEQEND
8
Layer 1
0
POLYLINE
8
Layer 1
62
7
70
0
10
0.000000
20
0.000000
66
1
0
VERTEX
8
Layer 1
10
73.245690
20
259.649970
70
0
0
VERTEX
8
Layer 1
10
72.446770
20
260.202390
70
0
0
SEQEND
8
Layer 1
0
POLYLINE
8
Layer 1
62
7
70
0
10
0.000000
20
0.000000
66
1
0
VERTEX
8
Layer 1
10
72.502070
20
255.986630
70
0
0
VERTEX
8
Layer 1
10
72.490170
20
255.989630
70
0
0
VERTEX
8
Layer 1
10
74.072500
20
248.209740
70
0
0
VERTEX
8
Layer 1
10
70.921270
20
248.213740
70
0
0
VERTEX
8
Layer 1
10
70.583830
20
246.551830
70
0
0
VERTEX
8
Layer 1
10
74.410470
20
246.547830
70
0
0
VERTEX
8
Layer 1
10
75.300850
20
242.169810
70
0
0
VERTEX
8
Layer 1
10
77.285230
20
242.169810
70
0
0
VERTEX
8
Layer 1
10
73.245690
20
259.649970
70
0
0
SEQEND
8
Layer 1
0
POLYLINE
8
Layer 1
62
7
70
0
10
0.000000
20
0.000000
66
1
0
VERTEX
8
Layer 1
10
72.040080
20
258.199930
70
0
0
VERTEX
8
Layer 1
10
71.626670
20
256.163880
70
0
0
VERTEX
8
Layer 1
10
72.040080
20
258.199930
70
0
0
SEQEND
8
Layer 1
0
POLYLINE
8
Layer 1
62
7
70
0
10
0.000000
20
0.000000
66
1
0
VERTEX
8
Layer 1
10
72.446770
20
260.202390
70
0
0
VERTEX
8
Layer 1
10
72.165650
20
261.652430
70
0
0
VERTEX
8
Layer 1
10
67.998460
20
243.619430
70
0
0
VERTEX
8
Layer 1
10
69.982840
20
243.619430
70
0
0
SEQEND
8
Layer 1
0
POLYLINE
8
Layer 1
62
7
70
0
10
0.000000
20
0.000000
66
1
0
VERTEX
8
Layer 1
10
126.398720
20
260.201330
70
0
0
VERTEX
8
Layer 1
10
126.398720
20
242.168320
70
0
0
VERTEX
8
Layer 1
10
127.626550
20
242.168320
70
0
0
VERTEX
8
Layer 1
10
128.184660
20
242.168320
70
0
0
VERTEX
8
Layer 1
10
134.137780
20
242.168320
70
0
0
VERTEX
8
Layer 1
10
134.137780
20
243.830240
70
0
0
VERTEX
8
Layer 1
10
128.184660
20
243.830240
70
0
0
VERTEX
8
Layer 1
10
128.184660
20
250.291860
70
0
0
VERTEX
8
Layer 1
10
133.517660
20
250.291860
70
0
0
VERTEX
8
Layer 1
10
133.517660
20
251.953770
70
0
0
VERTEX
8
Layer 1
10
128.184660
20
251.953770
70
0
0
VERTEX
8
Layer 1
10
128.184660
20
258.539410
70
0
0
VERTEX
8
Layer 1
10
134.137780
20
258.539410
70
0
0
VERTEX
8
Layer 1
10
134.137780
20
260.201330
70
0
0
VERTEX
8
Layer 1
10
128.184660
20
260.201330
70
0
0
VERTEX
8
Layer 1
10
127.626550
20
260.201330
70
0
0
VERTEX
8
Layer 1
10
126.398720
20
260.201330
70
0
0
SEQEND
8
Layer 1
0
POLYLINE
8
Layer 1
62
7
70
0
10
0.000000
20
0.000000
66
1
0
VERTEX
8
Layer 1
10
119.961780
20
242.168320
70
0
0
VERTEX
8
Layer 1
10
118.619227
20
242.283041
70
0
0
VERTEX
8
Layer 1
10
117.518520
20
242.627210
70
0
0
VERTEX
8
Layer 1
10
116.662761
20
243.216315
70
0
0
VERTEX
8
Layer 1
10
116.055050
20
244.041070
70
0
0
VERTEX
8
Layer 1
10
115.692274
20
245.101474
70
0
0
VERTEX
8
Layer 1
10
115.571350
20
246.397520
70
0
0
VERTEX
8
Layer 1
10
115.571350
20
247.290490
70
0
0
VERTEX
8
Layer 1
10
117.332490
20
247.290490
70
0
0
VERTEX
8
Layer 1
10
117.332490
20
246.397520
70
0
0
VERTEX
8
Layer 1
10
117.496821
20
245.259602
70
0
0
VERTEX
8
Layer 1
10
117.989810
20
244.450350
70
0
0
VERTEX
8
Layer 1
10
118.811466
20
243.966659
70
0
0
VERTEX
8
Layer 1
10
119.961780
20
243.805430
70
0
0
VERTEX
8
Layer 1
10
121.087297
20
243.966659
70
0
0
VERTEX
8
Layer 1
10
121.884150
20
244.450350
70
0
0
VERTEX
8
Layer 1
10
122.367841
20
245.259602
70
0
0
VERTEX
8
Layer 1
10
122.529070
20
246.397520
70
0
0
VERTEX
8
Layer 1
10
122.529070
20
247.464120
70
0
0
VERTEX
8
Layer 1
10
122.420551
20
248.335385
70
0
0
VERTEX
8
Layer 1
10
122.094990
20
249.039220
70
0
0
VERTEX
8
Layer 1
10
121.595791
20
249.612827
70
0
0
VERTEX
8
Layer 1
10
120.966370
20
250.093420
70
0
0
VERTEX
8
Layer 1
10
119.490490
20
250.924370
70
0
0
VERTEX
8
Layer 1
10
118.089030
20
251.643710
70
0
0
VERTEX
8
Layer 1
10
116.836390
20
252.536680
70
0
0
VERTEX
8
Layer 1
10
116.321697
20
253.097885
70
0
0
VERTEX
8
Layer 1
10
115.918620
20
253.764510
70
0
0
VERTEX
8
Layer 1
10
115.667475
20
254.570664
70
0
0
VERTEX
8
Layer 1
10
115.583760
20
255.525640
70
0
0
VERTEX
8
Layer 1
10
115.583760
20
256.406210
70
0
0
VERTEX
8
Layer 1
10
115.651972
20
257.387545
70
0
0
VERTEX
8
Layer 1
10
115.856610
20
258.235556
70
0
0
VERTEX
8
Layer 1
10
116.197672
20
258.950241
70
0
0
VERTEX
8
Layer 1
10
116.675160
20
259.531600
70
0
0
VERTEX
8
Layer 1
10
117.289078
20
259.987386
70
0
0
VERTEX
8
Layer 1
10
118.039420
20
260.312949
70
0
0
VERTEX
8
Layer 1
10
119.949380
20
260.573400
70
0
0
VERTEX
8
Layer 1
10
121.812829
20
260.309850
70
0
0
VERTEX
8
Layer 1
10
122.542242
20
259.980412
70
0
0
VERTEX
8
Layer 1
10
123.136780
20
259.519200
70
0
0
VERTEX
8
Layer 1
10
123.597992
20
258.926212
70
0
0
VERTEX
8
Layer 1
10
123.927430
20
258.201450
70
0
0
VERTEX
8
Layer 1
10
124.190980
20
256.356600
70
0
0
VERTEX
8
Layer 1
10
124.190980
20
255.414020
70
0
0
VERTEX
8
Layer 1
10
122.429850
20
255.414020
70
0
0
VERTEX
8
Layer 1
10
122.429850
20
256.356600
70
0
0
VERTEX
8
Layer 1
10
122.274819
20
257.485216
70
0
0
VERTEX
8
Layer 1
10
121.809730
20
258.291370
70
0
0
VERTEX
8
Layer 1
10
121.040786
20
258.775058
70
0
0
VERTEX
8
Layer 1
10
119.949380
20
258.936290
70
0
0
VERTEX
8
Layer 1
10
118.808367
20
258.781259
70
0
0
VERTEX
8
Layer 1
10
117.989810
20
258.316170
70
0
0
VERTEX
8
Layer 1
10
117.506119
20
257.553427
70
0
0
VERTEX
8
Layer 1
10
117.344890
20
256.480620
70
0
0
VERTEX
8
Layer 1
10
117.344890
20
255.600060
70
0
0
VERTEX
8
Layer 1
10
117.472015
20
254.731894
70
0
0
VERTEX
8
Layer 1
10
117.853390
20
254.037360
70
0
0
VERTEX
8
Layer 1
10
118.433192
20
253.473055
70
0
0
VERTEX
8
Layer 1
10
119.155630
20
252.995570
70
0
0
VERTEX
8
Layer 1
10
120.805140
20
252.152210
70
0
0
VERTEX
8
Layer 1
10
122.082580
20
251.445270
70
0
0
VERTEX
8
Layer 1
10
123.198800
20
250.539900
70
0
0
VERTEX
8
Layer 1
10
123.651482
20
249.966290
70
0
0
VERTEX
8
Layer 1
10
123.992550
20
249.287260
70
0
0
VERTEX
8
Layer 1
10
124.215786
20
248.484212
70
0
0
VERTEX
8
Layer 1
10
124.290200
20
247.538530
70
0
0
VERTEX
8
Layer 1
10
124.290200
20
246.397520
70
0
0
VERTEX
8
Layer 1
10
124.222762
20
245.403781
70
0
0
VERTEX
8
Layer 1
10
124.020449
20
244.543369
70
0
0
VERTEX
8
Layer 1
10
123.683261
20
243.816282
70
0
0
VERTEX
8
Layer 1
10
123.211200
20
243.222520
70
0
0
VERTEX
8
Layer 1
10
122.603482
20
242.761307
70
0
0
VERTEX
8
Layer 1
10
121.859340
20
242.431870
70
0
0
VERTEX
8
Layer 1
10
119.961780
20
242.168320
70
0
0
VERTEX
8
Layer 1
10
119.961780
20
242.168320
70
0
0
SEQEND
8
Layer 1
0
POLYLINE
8
Layer 1
62
7
70
0
10
0.000000
20
0.000000
66
1
0
VERTEX
8
Layer 1
10
109.717450
20
242.168320
70
0
0
VERTEX
8
Layer 1
10
107.919107
20
242.431870
70
0
0
VERTEX
8
Layer 1
10
107.215276
20
242.761307
70
0
0
VERTEX
8
Layer 1
10
106.641670
20
243.222520
70
0
0
VERTEX
8
Layer 1
10
106.196738
20
243.816282
70
0
0
VERTEX
8
Layer 1
10
105.878929
20
244.543369
70
0
0
VERTEX
8
Layer 1
10
105.624680
20
246.397520
70
0
0
VERTEX
8
Layer 1
10
105.624680
20
260.387360
70
0
0
VERTEX
8
Layer 1
10
107.410610
20
260.387360
70
0
0
VERTEX
8
Layer 1
10
107.410610
20
246.310700
70
0
0
VERTEX
8
Layer 1
10
107.553237
20
245.259599
70
0
0
VERTEX
8
Layer 1
10
107.981120
20
244.512360
70
0
0
VERTEX
8
Layer 1
10
108.706657
20
244.065879
70
0
0
VERTEX
8
Layer 1
10
109.717450
20
243.917050
70
0
0
VERTEX
8
Layer 1
10
110.743742
20
244.065879
70
0
0
VERTEX
8
Layer 1
10
111.466180
20
244.512360
70
0
0
VERTEX
8
Layer 1
10
111.903364
20
245.259599
70
0
0
VERTEX
8
Layer 1
10
112.049090
20
246.310700
70
0
0
VERTEX
8
Layer 1
10
112.049090
20
260.387360
70
0
0
VERTEX
8
Layer 1
10
113.835030
20
260.387360
70
0
0
VERTEX
8
Layer 1
10
113.835030
20
246.397520
70
0
0
VERTEX
8
Layer 1
10
113.577681
20
244.543369
70
0
0
VERTEX
8
Layer 1
10
113.255994
20
243.816282
70
0
0
VERTEX
8
Layer 1
10
112.805630
20
243.222520
70
0
0
VERTEX
8
Layer 1
10
112.231248
20
242.761307
70
0
0
VERTEX
8
Layer 1
10
111.525090
20
242.431870
70
0
0
VERTEX
8
Layer 1
10
109.717450
20
242.168320
70
0
0
VERTEX
8
Layer 1
10
109.717450
20
242.168320
70
0
0
SEQEND
8
Layer 1
0
POLYLINE
8
Layer 1
62
7
70
0
10
0.000000
20
0.000000
66
1
0
VERTEX
8
Layer 1
10
85.594930
20
250.217244
70
0
0
VERTEX
8
Layer 1
10
85.594930
20
251.879158
70
0
0
VERTEX
8
Layer 1
10
91.138780
20
251.879158
70
0
0
VERTEX
8
Layer 1
10
91.138780
20
250.217244
70
0
0
VERTEX
8
Layer 1
10
85.594930
20
250.217244
70
0
0
SEQEND
8
Layer 1
0
POLYLINE
8
Layer 1
62
7
70
0
10
0.000000
20
0.000000
66
1
0
VERTEX
8
Layer 1
10
84.019840
20
242.168120
70
0
0
VERTEX
8
Layer 1
10
84.019840
20
260.201131
70
0
0
VERTEX
8
Layer 1
10
85.805770
20
260.201131
70
0
0
VERTEX
8
Layer 1
10
85.805770
20
242.168120
70
0
0
VERTEX
8
Layer 1
10
84.019840
20
242.168120
70
0
0
SEQEND
8
Layer 1
0
POLYLINE
8
Layer 1
62
7
70
0
10
0.000000
20
0.000000
66
1
0
VERTEX
8
Layer 1
10
90.543470
20
242.168120
70
0
0
VERTEX
8
Layer 1
10
90.543470
20
260.201131
70
0
0
VERTEX
8
Layer 1
10
92.329410
20
260.201131
70
0
0
VERTEX
8
Layer 1
10
92.329410
20
242.168120
70
0
0
VERTEX
8
Layer 1
10
90.543470
20
242.168120
70
0
0
SEQEND
8
Layer 1
0
POLYLINE
8
Layer 1
62
7
70
0
10
0.000000
20
0.000000
66
1
0
VERTEX
8
Layer 1
10
65.180628
20
260.201330
70
0
0
VERTEX
8
Layer 1
10
65.180628
20
242.168320
70
0
0
VERTEX
8
Layer 1
10
63.394688
20
242.168320
70
0
0
VERTEX
8
Layer 1
10
63.394688
20
260.201330
70
0
0
VERTEX
8
Layer 1
10
65.180628
20
260.201330
70
0
0
SEQEND
8
Layer 1
0
POLYLINE
8
Layer 1
62
7
70
0
10
0.000000
20
0.000000
66
1
0
VERTEX
8
Layer 1
10
30.342570
20
260.201330
70
0
0
VERTEX
8
Layer 1
10
30.342570
20
242.168320
70
0
0
VERTEX
8
Layer 1
10
32.128500
20
242.168320
70
0
0
VERTEX
8
Layer 1
10
32.128500
20
247.091020
70
0
0
VERTEX
8
Layer 1
10
34.582100
20
251.457160
70
0
0
VERTEX
8
Layer 1
10
37.957610
20
242.168320
70
0
0
VERTEX
8
Layer 1
10
40.066000
20
242.168320
70
0
0
VERTEX
8
Layer 1
10
35.679190
20
253.409500
70
0
0
VERTEX
8
Layer 1
10
39.495490
20
260.201330
70
0
0
VERTEX
8
Layer 1
10
37.498720
20
260.201330
70
0
0
VERTEX
8
Layer 1
10
32.128500
20
250.259820
70
0
0
VERTEX
8
Layer 1
10
32.128500
20
260.201330
70
0
0
VERTEX
8
Layer 1
10
30.342570
20
260.201330
70
0
0
SEQEND
8
Layer 1
0
POLYLINE
8
Layer 1
62
7
70
0
10
0.000000
20
0.000000
66
1
0
VERTEX
8
Layer 1
10
18.857063
20
253.224764
70
0
0
VERTEX
8
Layer 1
10
20.643000
20
253.224764
70
0
0
VERTEX
8
Layer 1
10
20.641500
20
257.633402
70
0
0
VERTEX
8
Layer 1
10
18.855540
20
257.633402
70
0
0
VERTEX
8
Layer 1
10
18.857063
20
253.224764
70
0
0
SEQEND
8
Layer 1
0
POLYLINE
8
Layer 1
62
7
70
0
10
0.000000
20
0.000000
66
1
0
VERTEX
8
Layer 1
10
18.854140
20
260.202835
70
0
0
VERTEX
8
Layer 1
10
18.854140
20
258.543505
70
0
0
VERTEX
8
Layer 1
10
21.486020
20
258.543505
70
0
0
VERTEX
8
Layer 1
10
21.486020
20
258.540905
70
0
0
VERTEX
8
Layer 1
10
23.294179
20
258.540905
70
0
0
VERTEX
8
Layer 1
10
24.373182
20
258.364172
70
0
0
VERTEX
8
Layer 1
10
25.179335
20
257.833972
70
0
0
VERTEX
8
Layer 1
10
25.690932
20
256.993713
70
0
0
VERTEX
8
Layer 1
10
25.861464
20
255.861999
70
0
0
VERTEX
8
Layer 1
10
25.861464
20
254.001648
70
0
0
VERTEX
8
Layer 1
10
25.690932
20
252.922643
70
0
0
VERTEX
8
Layer 1
10
25.179335
20
252.116491
70
0
0
VERTEX
8
Layer 1
10
24.373182
20
251.614196
70
0
0
VERTEX
8
Layer 1
10
23.294179
20
251.446765
70
0
0
VERTEX
8
Layer 1
10
20.640077
20
251.446765
70
0
0
VERTEX
8
Layer 1
10
20.640077
20
251.448865
70
0
0
VERTEX
8
Layer 1
10
18.854140
20
251.448865
70
0
0
VERTEX
8
Layer 1
10
18.854140
20
242.157442
70
0
0
VERTEX
8
Layer 1
10
20.640077
20
242.157442
70
0
0
VERTEX
8
Layer 1
10
20.640077
20
249.784884
70
0
0
VERTEX
8
Layer 1
10
23.170155
20
249.784884
70
0
0
VERTEX
8
Layer 1
10
23.845566
20
249.815374
70
0
0
VERTEX
8
Layer 1
10
26.084706
20
242.157443
70
0
0
VERTEX
8
Layer 1
10
28.155897
20
242.157443
70
0
0
VERTEX
8
Layer 1
10
25.499729
20
250.240671
70
0
0
VERTEX
8
Layer 1
10
25.588609
20
250.280981
70
0
0
VERTEX
8
Layer 1
10
26.472276
20
250.888696
70
0
0
VERTEX
8
Layer 1
10
27.114098
20
251.719653
70
0
0
VERTEX
8
Layer 1
10
27.514073
20
252.761450
70
0
0
VERTEX
8
Layer 1
10
27.647398
20
254.001685
70
0
0
VERTEX
8
Layer 1
10
27.647398
20
256.110083
70
0
0
VERTEX
8
Layer 1
10
27.514073
20
257.316211
70
0
0
VERTEX
8
Layer 1
10
27.114098
20
258.330103
70
0
0
VERTEX
8
Layer 1
10
26.472276
20
259.136255
70
0
0
VERTEX
8
Layer 1
10
25.588609
20
259.719165
70
0
0
VERTEX
8
Layer 1
10
24.487901
20
260.081933
70
0
0
VERTEX
8
Layer 1
10
23.170152
20
260.202856
70
0
0
VERTEX
8
Layer 1
10
20.640074
20
260.202856
70
0
0
VERTEX
8
Layer 1
10
19.957945
20
260.202856
70
0
0
VERTEX
8
Layer 1
10
18.854140
20
260.202835
70
0
0
SEQEND
8
Layer 1
0
POLYLINE
8
Layer 1
62
7
70
0
10
0.000000
20
0.000000
66
1
0
VERTEX
8
Layer 1
10
101.950410
20
259.492810
70
0
0
VERTEX
8
Layer 1
10
101.537000
20
257.456760
70
0
0
VERTEX
8
Layer 1
10
101.950410
20
259.492810
70
0
0
SEQEND
8
Layer 1
0
POLYLINE
8
Layer 1
62
7
70
0
10
0.000000
20
0.000000
66
1
0
VERTEX
8
Layer 1
10
99.326290
20
260.574920
70
0
0
VERTEX
8
Layer 1
10
98.014745
20
260.441594
70
0
0
VERTEX
8
Layer 1
10
96.907830
20
260.041620
70
0
0
VERTEX
8
Layer 1
10
96.021064
20
259.387392
70
0
0
VERTEX
8
Layer 1
10
95.369940
20
258.491320
70
0
0
VERTEX
8
Layer 1
10
94.979267
20
257.375113
70
0
0
VERTEX
8
Layer 1
10
94.849040
20
256.035660
70
0
0
VERTEX
8
Layer 1
10
94.849040
20
247.618600
70
0
0
VERTEX
8
Layer 1
10
94.849040
20
246.709100
70
0
0
VERTEX
8
Layer 1
10
94.979267
20
245.366540
70
0
0
VERTEX
8
Layer 1
10
95.369940
20
244.241030
70
0
0
VERTEX
8
Layer 1
10
95.909134
20
243.471515
70
0
0
VERTEX
8
Layer 1
10
96.618960
20
242.872640
70
0
0
VERTEX
8
Layer 1
10
97.089210
20
244.933490
70
0
0
VERTEX
8
Layer 1
10
96.748515
20
245.688475
70
0
0
VERTEX
8
Layer 1
10
96.634980
20
246.622800
70
0
0
VERTEX
8
Layer 1
10
96.634980
20
247.623770
70
0
0
VERTEX
8
Layer 1
10
96.634980
20
256.122990
70
0
0
VERTEX
8
Layer 1
10
96.811711
20
257.267105
70
0
0
VERTEX
8
Layer 1
10
97.341910
20
258.119770
70
0
0
VERTEX
8
Layer 1
10
98.191472
20
258.649969
70
0
0
VERTEX
8
Layer 1
10
99.326290
20
258.826700
70
0
0
VERTEX
8
Layer 1
10
100.236830
20
258.720250
70
0
0
VERTEX
8
Layer 1
10
100.630600
20
260.444690
70
0
0
VERTEX
8
Layer 1
10
99.326290
20
260.574920
70
0
0
VERTEX
8
Layer 1
10
99.326290
20
260.574920
70
0
0
SEQEND
8
Layer 1
0
POLYLINE
8
Layer 1
62
7
70
0
10
0.000000
20
0.000000
66
1
0
VERTEX
8
Layer 1
10
102.026900
20
259.876250
70
0
0
VERTEX
8
Layer 1
10
101.596430
20
257.766820
70
0
0
VERTEX
8
Layer 1
10
101.599430
20
257.762820
70
0
0
VERTEX
8
Layer 1
10
101.913330
20
257.029224
70
0
0
VERTEX
8
Layer 1
10
102.018010
20
256.123120
70
0
0
VERTEX
8
Layer 1
10
102.018010
20
255.868360
70
0
0
VERTEX
8
Layer 1
10
102.018010
20
255.118020
70
0
0
VERTEX
8
Layer 1
10
102.018010
20
246.622930
70
0
0
VERTEX
8
Layer 1
10
101.841279
20
245.485014
70
0
0
VERTEX
8
Layer 1
10
101.311080
20
244.626150
70
0
0
VERTEX
8
Layer 1
10
100.467720
20
244.095951
70
0
0
VERTEX
8
Layer 1
10
99.326700
20
243.919220
70
0
0
VERTEX
8
Layer 1
10
98.779450
20
243.955420
70
0
0
VERTEX
8
Layer 1
10
98.427530
20
242.229430
70
0
0
VERTEX
8
Layer 1
10
99.326700
20
242.170030
70
0
0
VERTEX
8
Layer 1
10
100.644451
20
242.303356
70
0
0
VERTEX
8
Layer 1
10
101.745160
20
242.703330
70
0
0
VERTEX
8
Layer 1
10
102.628827
20
243.354450
70
0
0
VERTEX
8
Layer 1
10
103.270650
20
244.241220
70
0
0
VERTEX
8
Layer 1
10
103.670620
20
245.366730
70
0
0
VERTEX
8
Layer 1
10
103.803950
20
246.709290
70
0
0
VERTEX
8
Layer 1
10
103.803950
20
255.118080
70
0
0
VERTEX
8
Layer 1
10
103.803950
20
255.868420
70
0
0
VERTEX
8
Layer 1
10
103.803950
20
256.035850
70
0
0
VERTEX
8
Layer 1
10
103.670620
20
257.375302
70
0
0
VERTEX
8
Layer 1
10
103.270650
20
258.491510
70
0
0
VERTEX
8
Layer 1
10
102.737270
20
259.272272
70
0
0
VERTEX
8
Layer 1
10
102.027310
20
259.876440
70
0
0
VERTEX
8
Layer 1
10
102.026900
20
259.876250
70
0
0
SEQEND
8
Layer 1
0
POLYLINE
8
Layer 1
62
7
70
0
10
0.000000
20
0.000000
66
1
0
VERTEX
8
Layer 1
10
6.644422
20
204.735779
70
0
0
VERTEX
8
Layer 1
10
6.644422
20
205.259216
70
0
0
VERTEX
8
Layer 1
10
8.027233
20
205.259216
70
0
0
VERTEX
8
Layer 1
10
8.339733
20
205.380309
70
0
0
VERTEX
8
Layer 1
10
8.449107
20
205.724059
70
0
0
VERTEX
8
Layer 1
10
8.449107
20
209.427179
70
0
0
VERTEX
8
Layer 1
10
8.339733
20
209.770929
70
0
0
VERTEX
8
Layer 1
10
8.027233
20
209.892022
70
0
0
VERTEX
8
Layer 1
10
6.644422
20
209.892022
70
0
0
VERTEX
8
Layer 1
10
6.644422
20
210.415459
70
0
0
VERTEX
8
Layer 1
10
8.003795
20
210.415459
70
0
0
VERTEX
8
Layer 1
10
8.432506
20
210.349053
70
0
0
VERTEX
8
Layer 1
10
8.749888
20
210.149835
70
0
0
VERTEX
8
Layer 1
10
8.946177
20
209.828546
70
0
0
VERTEX
8
Layer 1
10
9.011607
20
209.395929
70
0
0
VERTEX
8
Layer 1
10
9.011607
20
205.755309
70
0
0
VERTEX
8
Layer 1
10
8.890513
20
205.200622
70
0
0
VERTEX
8
Layer 1
10
8.546763
20
204.852966
70
0
0
VERTEX
8
Layer 1
10
7.999889
20
204.735779
70
0
0
VERTEX
8
Layer 1
10
6.644422
20
204.735779
70
0
0
SEQEND
8
Layer 1
0
POLYLINE
8
Layer 1
62
7
70
0
10
0.000000
20
0.000000
66
1
0
VERTEX
8
Layer 1
10
6.339735
20
204.735779
70
0
0
VERTEX
8
Layer 1
10
6.339735
20
210.415459
70
0
0
VERTEX
8
Layer 1
10
6.902234
20
210.415459
70
0
0
VERTEX
8
Layer 1
10
6.902234
20
204.735779
70
0
0
VERTEX
8
Layer 1
10
6.339735
20
204.735779
70
0
0
SEQEND
8
Layer 1
0
POLYLINE
8
Layer 1
62
7
70
0
10
0.000000
20
0.000000
66
1
0
VERTEX
8
Layer 1
10
11.542853
20
206.274839
70
0
0
VERTEX
8
Layer 1
10
12.820196
20
210.415459
70
0
0
VERTEX
8
Layer 1
10
13.370976
20
210.415459
70
0
0
VERTEX
8
Layer 1
10
13.370976
20
204.735779
70
0
0
VERTEX
8
Layer 1
10
12.828008
20
204.735779
70
0
0
VERTEX
8
Layer 1
10
12.828008
20
209.302179
70
0
0
VERTEX
8
Layer 1
10
12.867068
20
209.052180
70
0
0
VERTEX
8
Layer 1
10
11.781131
20
205.524840
70
0
0
VERTEX
8
Layer 1
10
11.304569
20
205.524840
70
0
0
VERTEX
8
Layer 1
10
10.218633
20
208.974055
70
0
0
VERTEX
8
Layer 1
10
10.257693
20
209.302179
70
0
0
VERTEX
8
Layer 1
10
10.257693
20
204.735779
70
0
0
VERTEX
8
Layer 1
10
9.714731
20
204.735779
70
0
0
VERTEX
8
Layer 1
10
9.714731
20
210.415459
70
0
0
VERTEX
8
Layer 1
10
10.265511
20
210.415459
70
0
0
VERTEX
8
Layer 1
10
11.542853
20
206.274839
70
0
0
SEQEND
8
Layer 1
0
POLYLINE
8
Layer 1
62
7
70
0
10
0.000000
20
0.000000
66
1
0
VERTEX
8
Layer 1
10
16.281129
20
204.735779
70
0
0
VERTEX
8
Layer 1
10
15.226442
20
207.231869
70
0
0
VERTEX
8
Layer 1
10
15.105349
20
207.427182
70
0
0
VERTEX
8
Layer 1
10
13.808475
20
210.415459
70
0
0
VERTEX
8
Layer 1
10
14.421756
20
210.415459
70
0
0
VERTEX
8
Layer 1
10
15.370973
20
208.102962
70
0
0
VERTEX
8
Layer 1
10
15.499880
20
207.892025
70
0
0
VERTEX
8
Layer 1
10
16.894409
20
204.735779
70
0
0
VERTEX
8
Layer 1
10
16.281129
20
204.735779
70
0
0
SEQEND
8
Layer 1
0
POLYLINE
8
Layer 1
62
7
70
0
10
0.000000
20
0.000000
66
1
0
VERTEX
8
Layer 1
10
13.761600
20
204.735779
70
0
0
VERTEX
8
Layer 1
10
15.191286
20
207.981868
70
0
0
VERTEX
8
Layer 1
10
16.195191
20
210.415459
70
0
0
VERTEX
8
Layer 1
10
16.808472
20
210.415459
70
0
0
VERTEX
8
Layer 1
10
15.476442
20
207.341244
70
0
0
VERTEX
8
Layer 1
10
14.374881
20
204.735779
70
0
0
VERTEX
8
Layer 1
10
13.761600
20
204.735779
70
0
0
SEQEND
8
Layer 1
0
POLYLINE
8
Layer 1
62
7
70
0
10
0.000000
20
0.000000
66
1
0
VERTEX
8
Layer 1
10
18.519408
20
204.677189
70
0
0
VERTEX
8
Layer 1
10
17.995971
20
204.757267
70
0
0
VERTEX
8
Layer 1
10
17.605346
20
204.997501
70
0
0
VERTEX
8
Layer 1
10
17.365112
20
205.387149
70
0
0
VERTEX
8
Layer 1
10
17.285034
20
205.907656
70
0
0
VERTEX
8
Layer 1
10
17.285034
20
206.145937
70
0
0
VERTEX
8
Layer 1
10
17.847533
20
206.145937
70
0
0
VERTEX
8
Layer 1
10
17.847533
20
205.907656
70
0
0
VERTEX
8
Layer 1
10
18.023314
20
205.392032
70
0
0
VERTEX
8
Layer 1
10
18.519408
20
205.208438
70
0
0
VERTEX
8
Layer 1
10
19.023313
20
205.392032
70
0
0
VERTEX
8
Layer 1
10
19.203001
20
205.911563
70
0
0
VERTEX
8
Layer 1
10
19.203001
20
207.403748
70
0
0
VERTEX
8
Layer 1
10
19.035032
20
207.919373
70
0
0
VERTEX
8
Layer 1
10
18.558470
20
208.102966
70
0
0
VERTEX
8
Layer 1
10
18.074096
20
207.923279
70
0
0
VERTEX
8
Layer 1
10
17.902221
20
207.423279
70
0
0
VERTEX
8
Layer 1
10
17.410034
20
207.423279
70
0
0
VERTEX
8
Layer 1
10
17.410034
20
210.415463
70
0
0
VERTEX
8
Layer 1
10
19.718625
20
210.415463
70
0
0
VERTEX
8
Layer 1
10
19.718625
20
209.892026
70
0
0
VERTEX
8
Layer 1
10
17.972533
20
209.892026
70
0
0
VERTEX
8
Layer 1
10
17.972533
20
208.302185
70
0
0
VERTEX
8
Layer 1
10
18.253783
20
208.548278
70
0
0
VERTEX
8
Layer 1
10
18.640501
20
208.634218
70
0
0
VERTEX
8
Layer 1
10
19.115110
20
208.553163
70
0
0
VERTEX
8
Layer 1
10
19.468625
20
208.310000
70
0
0
VERTEX
8
Layer 1
10
19.691281
20
207.923282
70
0
0
VERTEX
8
Layer 1
10
19.765500
20
207.403751
70
0
0
VERTEX
8
Layer 1
10
19.765500
20
205.911566
70
0
0
VERTEX
8
Layer 1
10
19.683469
20
205.388129
70
0
0
VERTEX
8
Layer 1
10
19.437375
20
204.997504
70
0
0
VERTEX
8
Layer 1
10
19.045774
20
204.757270
70
0
0
VERTEX
8
Layer 1
10
18.519408
20
204.677192
70
0
0
VERTEX
8
Layer 1
10
18.519408
20
204.677189
70
0
0
SEQEND
8
Layer 1
0
POLYLINE
8
Layer 1
62
7
70
0
10
0.000000
20
0.000000
66
1
0
VERTEX
8
Layer 1
10
21.917840
20
210.415463
70
0
0
VERTEX
8
Layer 1
10
21.917840
20
204.735783
70
0
0
VERTEX
8
Layer 1
10
21.355341
20
204.735783
70
0
0
VERTEX
8
Layer 1
10
21.355341
20
209.938901
70
0
0
VERTEX
8
Layer 1
10
20.312373
20
209.286558
70
0
0
VERTEX
8
Layer 1
10
20.312373
20
209.876401
70
0
0
VERTEX
8
Layer 1
10
21.120966
20
210.415463
70
0
0
VERTEX
8
Layer 1
10
21.917840
20
210.415463
70
0
0
SEQEND
8
Layer 1
0
POLYLINE
8
Layer 1
62
7
70
0
10
0.000000
20
0.000000
66
1
0
VERTEX
8
Layer 1
10
22.652214
20
204.735783
70
0
0
VERTEX
8
Layer 1
10
22.652214
20
205.192813
70
0
0
VERTEX
8
Layer 1
10
24.097525
20
207.634217
70
0
0
VERTEX
8
Layer 1
10
24.472524
20
208.431091
70
0
0
VERTEX
8
Layer 1
10
24.605337
20
209.110777
70
0
0
VERTEX
8
Layer 1
10
24.605337
20
209.118577
70
0
0
VERTEX
8
Layer 1
10
24.437368
20
209.731857
70
0
0
VERTEX
8
Layer 1
10
23.956900
20
209.950607
70
0
0
VERTEX
8
Layer 1
10
23.641471
20
209.878341
70
0
0
VERTEX
8
Layer 1
10
23.406119
20
209.661545
70
0
0
VERTEX
8
Layer 1
10
23.210807
20
208.852952
70
0
0
VERTEX
8
Layer 1
10
23.210807
20
208.849052
70
0
0
VERTEX
8
Layer 1
10
22.620964
20
208.849052
70
0
0
VERTEX
8
Layer 1
10
22.620964
20
208.852952
70
0
0
VERTEX
8
Layer 1
10
22.704948
20
209.538498
70
0
0
VERTEX
8
Layer 1
10
22.956901
20
210.048263
70
0
0
VERTEX
8
Layer 1
10
23.365104
20
210.367599
70
0
0
VERTEX
8
Layer 1
10
23.910025
20
210.474044
70
0
0
VERTEX
8
Layer 1
10
24.456899
20
210.385177
70
0
0
VERTEX
8
Layer 1
10
24.863149
20
210.118576
70
0
0
VERTEX
8
Layer 1
10
25.115102
20
209.688888
70
0
0
VERTEX
8
Layer 1
10
25.199086
20
209.110764
70
0
0
VERTEX
8
Layer 1
10
25.199086
20
209.106864
70
0
0
VERTEX
8
Layer 1
10
25.062367
20
208.302178
70
0
0
VERTEX
8
Layer 1
10
24.660024
20
207.411554
70
0
0
VERTEX
8
Layer 1
10
23.351432
20
205.259213
70
0
0
VERTEX
8
Layer 1
10
25.191273
20
205.259213
70
0
0
VERTEX
8
Layer 1
10
25.191273
20
204.735776
70
0
0
VERTEX
8
Layer 1
10
22.652214
20
204.735783
70
0
0
SEQEND
8
Layer 1
0
POLYLINE
8
Layer 1
62
7
70
0
10
0.000000
20
0.000000
66
1
0
VERTEX
8
Layer 1
10
30.441267
20
204.677193
70
0
0
VERTEX
8
Layer 1
10
29.726424
20
204.849068
70
0
0
VERTEX
8
Layer 1
10
29.277206
20
205.345161
70
0
0
VERTEX
8
Layer 1
10
29.120956
20
206.130316
70
0
0
VERTEX
8
Layer 1
10
29.120956
20
209.017031
70
0
0
VERTEX
8
Layer 1
10
29.277206
20
209.806093
70
0
0
VERTEX
8
Layer 1
10
29.726424
20
210.302186
70
0
0
VERTEX
8
Layer 1
10
30.441267
20
210.474061
70
0
0
VERTEX
8
Layer 1
10
31.156110
20
210.302186
70
0
0
VERTEX
8
Layer 1
10
31.605328
20
209.806093
70
0
0
VERTEX
8
Layer 1
10
31.761578
20
209.020938
70
0
0
VERTEX
8
Layer 1
10
31.761578
20
208.813907
70
0
0
VERTEX
8
Layer 1
10
31.199079
20
208.813907
70
0
0
VERTEX
8
Layer 1
10
31.199079
20
209.020930
70
0
0
VERTEX
8
Layer 1
10
31.109239
20
209.513117
70
0
0
VERTEX
8
Layer 1
10
30.851427
20
209.821710
70
0
0
VERTEX
8
Layer 1
10
30.441271
20
209.931085
70
0
0
VERTEX
8
Layer 1
10
29.882678
20
209.692804
70
0
0
VERTEX
8
Layer 1
10
29.683460
20
209.017023
70
0
0
VERTEX
8
Layer 1
10
29.683460
20
206.130308
70
0
0
VERTEX
8
Layer 1
10
29.882678
20
205.458434
70
0
0
VERTEX
8
Layer 1
10
30.441271
20
205.220153
70
0
0
VERTEX
8
Layer 1
10
30.999864
20
205.458434
70
0
0
VERTEX
8
Layer 1
10
31.199083
20
206.130308
70
0
0
VERTEX
8
Layer 1
10
31.199083
20
206.337339
70
0
0
VERTEX
8
Layer 1
10
31.761582
20
206.337339
70
0
0
VERTEX
8
Layer 1
10
31.761582
20
206.130308
70
0
0
VERTEX
8
Layer 1
10
31.605332
20
205.345153
70
0
0
VERTEX
8
Layer 1
10
31.156114
20
204.849060
70
0
0
VERTEX
8
Layer 1
10
30.441271
20
204.677185
70
0
0
VERTEX
8
Layer 1
10
30.441267
20
204.677193
70
0
0
SEQEND
8
Layer 1
0
POLYLINE
8
Layer 1
62
7
70
0
10
0.000000
20
0.000000
66
1
0
VERTEX
8
Layer 1
10
33.718607
20
204.677193
70
0
0
VERTEX
8
Layer 1
10
32.956889
20
204.845162
70
0
0
VERTEX
8
Layer 1
10
32.472515
20
205.329536
70
0
0
VERTEX
8
Layer 1
10
32.308453
20
206.106879
70
0
0
VERTEX
8
Layer 1
10
32.308453
20
209.044375
70
0
0
VERTEX
8
Layer 1
10
32.472515
20
209.817812
70
0
0
VERTEX
8
Layer 1
10
32.956889
20
210.306092
70
0
0
VERTEX
8
Layer 1
10
33.718607
20
210.474061
70
0
0
VERTEX
8
Layer 1
10
34.480325
20
210.306092
70
0
0
VERTEX
8
Layer 1
10
34.960793
20
209.817812
70
0
0
VERTEX
8
Layer 1
10
35.128762
20
209.044375
70
0
0
VERTEX
8
Layer 1
10
35.128762
20
206.106879
70
0
0
VERTEX
8
Layer 1
10
34.960793
20
205.329536
70
0
0
VERTEX
8
Layer 1
10
34.480325
20
204.845162
70
0
0
VERTEX
8
Layer 1
10
33.718607
20
204.677193
70
0
0
VERTEX
8
Layer 1
10
33.718607
20
204.677193
70
0
0
SEQEND
8
Layer 1
0
POLYLINE
8
Layer 1
62
7
70
0
10
0.000000
20
0.000000
66
1
0
VERTEX
8
Layer 1
10
33.718607
20
205.227974
70
0
0
VERTEX
8
Layer 1
10
34.343606
20
205.450630
70
0
0
VERTEX
8
Layer 1
10
34.566262
20
206.079535
70
0
0
VERTEX
8
Layer 1
10
34.566262
20
209.071719
70
0
0
VERTEX
8
Layer 1
10
34.343606
20
209.700624
70
0
0
VERTEX
8
Layer 1
10
33.718607
20
209.923280
70
0
0
VERTEX
8
Layer 1
10
33.093608
20
209.700624
70
0
0
VERTEX
8
Layer 1
10
32.870952
20
209.071719
70
0
0
VERTEX
8
Layer 1
10
32.870952
20
206.079535
70
0
0
VERTEX
8
Layer 1
10
33.093608
20
205.450630
70
0
0
VERTEX
8
Layer 1
10
33.718607
20
205.227974
70
0
0
VERTEX
8
Layer 1
10
33.718607
20
205.227974
70
0
0
SEQEND
8
Layer 1
0
POLYLINE
8
Layer 1
62
7
70
0
10
0.000000
20
0.000000
66
1
0
VERTEX
8
Layer 1
10
35.831886
20
204.739693
70
0
0
VERTEX
8
Layer 1
10
35.831886
20
210.415467
70
0
0
VERTEX
8
Layer 1
10
36.359229
20
210.415467
70
0
0
VERTEX
8
Layer 1
10
38.160008
20
205.751411
70
0
0
VERTEX
8
Layer 1
10
38.066258
20
205.649848
70
0
0
VERTEX
8
Layer 1
10
38.066258
20
210.415467
70
0
0
VERTEX
8
Layer 1
10
38.620945
20
210.415467
70
0
0
VERTEX
8
Layer 1
10
38.620945
20
204.739693
70
0
0
VERTEX
8
Layer 1
10
38.085790
20
204.739693
70
0
0
VERTEX
8
Layer 1
10
36.292823
20
209.403750
70
0
0
VERTEX
8
Layer 1
10
36.386573
20
209.505312
70
0
0
VERTEX
8
Layer 1
10
36.386573
20
204.739693
70
0
0
VERTEX
8
Layer 1
10
35.831886
20
204.739693
70
0
0
SEQEND
8
Layer 1
0
POLYLINE
8
Layer 1
62
7
70
0
10
0.000000
20
0.000000
66
1
0
VERTEX
8
Layer 1
10
40.421723
20
204.735793
70
0
0
VERTEX
8
Layer 1
10
40.421723
20
209.950630
70
0
0
VERTEX
8
Layer 1
10
40.984223
20
209.950630
70
0
0
VERTEX
8
Layer 1
10
40.984223
20
204.735793
70
0
0
VERTEX
8
Layer 1
10
40.421723
20
204.735793
70
0
0
SEQEND
8
Layer 1
0
POLYLINE
8
Layer 1
62
7
70
0
10
0.000000
20
0.000000
66
1
0
VERTEX
8
Layer 1
10
39.324069
20
209.892036
70
0
0
VERTEX
8
Layer 1
10
39.324069
20
210.415473
70
0
0
VERTEX
8
Layer 1
10
42.081878
20
210.415473
70
0
0
VERTEX
8
Layer 1
10
42.081878
20
209.892036
70
0
0
VERTEX
8
Layer 1
10
39.324069
20
209.892036
70
0
0
SEQEND
8
Layer 1
0
POLYLINE
8
Layer 1
62
7
70
0
10
0.000000
20
0.000000
66
1
0
VERTEX
8
Layer 1
10
42.976408
20
207.138134
70
0
0
VERTEX
8
Layer 1
10
42.976408
20
207.661570
70
0
0
VERTEX
8
Layer 1
10
44.027187
20
207.661570
70
0
0
VERTEX
8
Layer 1
10
44.620937
20
207.872508
70
0
0
VERTEX
8
Layer 1
10
44.835780
20
208.466257
70
0
0
VERTEX
8
Layer 1
10
44.835780
20
209.052180
70
0
0
VERTEX
8
Layer 1
10
44.620937
20
209.673273
70
0
0
VERTEX
8
Layer 1
10
44.027187
20
209.895929
70
0
0
VERTEX
8
Layer 1
10
42.976408
20
209.895929
70
0
0
VERTEX
8
Layer 1
10
42.976408
20
210.419365
70
0
0
VERTEX
8
Layer 1
10
43.988125
20
210.419365
70
0
0
VERTEX
8
Layer 1
10
44.749843
20
210.267022
70
0
0
VERTEX
8
Layer 1
10
45.230311
20
209.829522
70
0
0
VERTEX
8
Layer 1
10
45.398280
20
209.130305
70
0
0
VERTEX
8
Layer 1
10
45.398280
20
208.466243
70
0
0
VERTEX
8
Layer 1
10
45.230311
20
207.747494
70
0
0
VERTEX
8
Layer 1
10
44.749843
20
207.294369
70
0
0
VERTEX
8
Layer 1
10
43.988125
20
207.138120
70
0
0
VERTEX
8
Layer 1
10
42.976408
20
207.138134
70
0
0
SEQEND
8
Layer 1
0
POLYLINE
8
Layer 1
62
7
70
0
10
0.000000
20
0.000000
66
1
0
VERTEX
8
Layer 1
10
42.628752
20
204.735793
70
0
0
VERTEX
8
Layer 1
10
42.628752
20
210.419379
70
0
0
VERTEX
8
Layer 1
10
43.191251
20
210.419379
70
0
0
VERTEX
8
Layer 1
10
43.191251
20
204.735793
70
0
0
VERTEX
8
Layer 1
10
42.628752
20
204.735793
70
0
0
SEQEND
8
Layer 1
0
POLYLINE
8
Layer 1
62
7
70
0
10
0.000000
20
0.000000
66
1
0
VERTEX
8
Layer 1
10
44.906093
20
204.735793
70
0
0
VERTEX
8
Layer 1
10
44.152187
20
207.313915
70
0
0
VERTEX
8
Layer 1
10
44.652187
20
207.493602
70
0
0
VERTEX
8
Layer 1
10
45.558436
20
204.735793
70
0
0
VERTEX
8
Layer 1
10
44.906093
20
204.735793
70
0
0
SEQEND
8
Layer 1
0
POLYLINE
8
Layer 1
62
7
70
0
10
0.000000
20
0.000000
66
1
0
VERTEX
8
Layer 1
10
47.495934
20
204.677203
70
0
0
VERTEX
8
Layer 1
10
46.734216
20
204.845172
70
0
0
VERTEX
8
Layer 1
10
46.249841
20
205.329546
70
0
0
VERTEX
8
Layer 1
10
46.085779
20
206.106889
70
0
0
VERTEX
8
Layer 1
10
46.085779
20
209.044385
70
0
0
VERTEX
8
Layer 1
10
46.249841
20
209.817822
70
0
0
VERTEX
8
Layer 1
10
46.734216
20
210.306102
70
0
0
VERTEX
8
Layer 1
10
47.495934
20
210.474071
70
0
0
VERTEX
8
Layer 1
10
48.257651
20
210.306102
70
0
0
VERTEX
8
Layer 1
10
48.738120
20
209.817822
70
0
0
VERTEX
8
Layer 1
10
48.906088
20
209.044385
70
0
0
VERTEX
8
Layer 1
10
48.906088
20
206.106889
70
0
0
VERTEX
8
Layer 1
10
48.738120
20
205.329546
70
0
0
VERTEX
8
Layer 1
10
48.257651
20
204.845172
70
0
0
VERTEX
8
Layer 1
10
47.495934
20
204.677203
70
0
0
VERTEX
8
Layer 1
10
47.495934
20
204.677203
70
0
0
SEQEND
8
Layer 1
0
POLYLINE
8
Layer 1
62
7
70
0
10
0.000000
20
0.000000
66
1
0
VERTEX
8
Layer 1
10
47.495934
20
205.227984
70
0
0
VERTEX
8
Layer 1
10
48.120933
20
205.450640
70
0
0
VERTEX
8
Layer 1
10
48.343589
20
206.079545
70
0
0
VERTEX
8
Layer 1
10
48.343589
20
209.071729
70
0
0
VERTEX
8
Layer 1
10
48.120933
20
209.700634
70
0
0
VERTEX
8
Layer 1
10
47.495934
20
209.923290
70
0
0
VERTEX
8
Layer 1
10
46.870934
20
209.700634
70
0
0
VERTEX
8
Layer 1
10
46.648278
20
209.071729
70
0
0
VERTEX
8
Layer 1
10
46.648278
20
206.079545
70
0
0
VERTEX
8
Layer 1
10
46.870934
20
205.450640
70
0
0
VERTEX
8
Layer 1
10
47.495934
20
205.227984
70
0
0
VERTEX
8
Layer 1
10
47.495934
20
205.227984
70
0
0
SEQEND
8
Layer 1
0
POLYLINE
8
Layer 1
62
7
70
0
10
0.000000
20
0.000000
66
1
0
VERTEX
8
Layer 1
10
49.609213
20
204.735797
70
0
0
VERTEX
8
Layer 1
10
49.609213
20
210.415477
70
0
0
VERTEX
8
Layer 1
10
50.171712
20
210.415477
70
0
0
VERTEX
8
Layer 1
10
50.171712
20
204.735797
70
0
0
VERTEX
8
Layer 1
10
49.609213
20
204.735797
70
0
0
SEQEND
8
Layer 1
0
POLYLINE
8
Layer 1
62
7
70
0
10
0.000000
20
0.000000
66
1
0
VERTEX
8
Layer 1
10
50.007650
20
204.735797
70
0
0
VERTEX
8
Layer 1
10
50.007650
20
205.259234
70
0
0
VERTEX
8
Layer 1
10
51.968585
20
205.259234
70
0
0
VERTEX
8
Layer 1
10
51.968585
20
204.735797
70
0
0
VERTEX
8
Layer 1
10
50.007650
20
204.735797
70
0
0
SEQEND
8
Layer 1
0
POLYLINE
8
Layer 1
62
7
70
0
10
0.000000
20
0.000000
66
1
0
VERTEX
8
Layer 1
10
52.554522
20
204.735797
70
0
0
VERTEX
8
Layer 1
10
52.554522
20
210.415477
70
0
0
VERTEX
8
Layer 1
10
53.117021
20
210.415477
70
0
0
VERTEX
8
Layer 1
10
53.117021
20
204.735797
70
0
0
VERTEX
8
Layer 1
10
52.554522
20
204.735797
70
0
0
SEQEND
8
Layer 1
0
POLYLINE
8
Layer 1
62
7
70
0
10
0.000000
20
0.000000
66
1
0
VERTEX
8
Layer 1
10
52.952959
20
204.735797
70
0
0
VERTEX
8
Layer 1
10
52.952959
20
205.259234
70
0
0
VERTEX
8
Layer 1
10
54.913894
20
205.259234
70
0
0
VERTEX
8
Layer 1
10
54.913894
20
204.735797
70
0
0
VERTEX
8
Layer 1
10
52.952959
20
204.735797
70
0
0
SEQEND
8
Layer 1
0
POLYLINE
8
Layer 1
62
7
70
0
10
0.000000
20
0.000000
66
1
0
VERTEX
8
Layer 1
10
55.499830
20
204.735797
70
0
0
VERTEX
8
Layer 1
10
55.499830
20
210.415477
70
0
0
VERTEX
8
Layer 1
10
56.062330
20
210.415477
70
0
0
VERTEX
8
Layer 1
10
56.062330
20
204.735797
70
0
0
VERTEX
8
Layer 1
10
55.499830
20
204.735797
70
0
0
SEQEND
8
Layer 1
0
POLYLINE
8
Layer 1
62
7
70
0
10
0.000000
20
0.000000
66
1
0
VERTEX
8
Layer 1
10
55.886548
20
204.735797
70
0
0
VERTEX
8
Layer 1
10
55.886548
20
205.259234
70
0
0
VERTEX
8
Layer 1
10
57.937327
20
205.259234
70
0
0
VERTEX
8
Layer 1
10
57.937327
20
204.735797
70
0
0
VERTEX
8
Layer 1
10
55.886548
20
204.735797
70
0
0
SEQEND
8
Layer 1
0
POLYLINE
8
Layer 1
62
7
70
0
10
0.000000
20
0.000000
66
1
0
VERTEX
8
Layer 1
10
55.886548
20
207.294387
70
0
0
VERTEX
8
Layer 1
10
55.886548
20
207.817824
70
0
0
VERTEX
8
Layer 1
10
57.742015
20
207.817824
70
0
0
VERTEX
8
Layer 1
10
57.742015
20
207.294387
70
0
0
VERTEX
8
Layer 1
10
55.886548
20
207.294387
70
0
0
SEQEND
8
Layer 1
0
POLYLINE
8
Layer 1
62
7
70
0
10
0.000000
20
0.000000
66
1
0
VERTEX
8
Layer 1
10
55.886548
20
209.892040
70
0
0
VERTEX
8
Layer 1
10
55.886548
20
210.415477
70
0
0
VERTEX
8
Layer 1
10
57.937327
20
210.415477
70
0
0
VERTEX
8
Layer 1
10
57.937327
20
209.892040
70
0
0
VERTEX
8
Layer 1
10
55.886548
20
209.892040
70
0
0
SEQEND
8
Layer 1
0
POLYLINE
8
Layer 1
62
7
70
0
10
0.000000
20
0.000000
66
1
0
VERTEX
8
Layer 1
10
58.870920
20
207.138138
70
0
0
VERTEX
8
Layer 1
10
58.870920
20
207.661574
70
0
0
VERTEX
8
Layer 1
10
59.921700
20
207.661574
70
0
0
VERTEX
8
Layer 1
10
60.515449
20
207.872512
70
0
0
VERTEX
8
Layer 1
10
60.730292
20
208.466261
70
0
0
VERTEX
8
Layer 1
10
60.730292
20
209.052180
70
0
0
VERTEX
8
Layer 1
10
60.515449
20
209.673273
70
0
0
VERTEX
8
Layer 1
10
59.921700
20
209.895929
70
0
0
VERTEX
8
Layer 1
10
58.870920
20
209.895929
70
0
0
VERTEX
8
Layer 1
10
58.870920
20
210.419365
70
0
0
VERTEX
8
Layer 1
10
59.882637
20
210.419365
70
0
0
VERTEX
8
Layer 1
10
60.644355
20
210.267022
70
0
0
VERTEX
8
Layer 1
10
61.124823
20
209.829522
70
0
0
VERTEX
8
Layer 1
10
61.292792
20
209.130305
70
0
0
VERTEX
8
Layer 1
10
61.292792
20
208.466243
70
0
0
VERTEX
8
Layer 1
10
61.124823
20
207.747494
70
0
0
VERTEX
8
Layer 1
10
60.644355
20
207.294369
70
0
0
VERTEX
8
Layer 1
10
59.882637
20
207.138120
70
0
0
VERTEX
8
Layer 1
10
58.870920
20
207.138138
70
0
0
SEQEND
8
Layer 1
0
POLYLINE
8
Layer 1
62
7
70
0
10
0.000000
20
0.000000
66
1
0
VERTEX
8
Layer 1
10
58.523264
20
204.735797
70
0
0
VERTEX
8
Layer 1
10
58.523264
20
210.419383
70
0
0
VERTEX
8
Layer 1
10
59.085763
20
210.419383
70
0
0
VERTEX
8
Layer 1
10
59.085763
20
204.735797
70
0
0
VERTEX
8
Layer 1
10
58.523264
20
204.735797
70
0
0
SEQEND
8
Layer 1
0
POLYLINE
8
Layer 1
62
7
70
0
10
0.000000
20
0.000000
66
1
0
VERTEX
8
Layer 1
10
60.800605
20
204.735797
70
0
0
VERTEX
8
Layer 1
10
60.046700
20
207.313919
70
0
0
VERTEX
8
Layer 1
10
60.546699
20
207.493606
70
0
0
VERTEX
8
Layer 1
10
61.452948
20
204.735797
70
0
0
VERTEX
8
Layer 1
10
60.800605
20
204.735797
70
0
0
SEQEND
8
Layer 1
0
POLYLINE
8
Layer 1
62
7
70
0
10
0.000000
20
0.000000
66
1
0
VERTEX
8
Layer 1
10
5.915005
20
147.544580
70
0
0
VERTEX
8
Layer 1
10
5.915005
20
153.224260
70
0
0
VERTEX
8
Layer 1
10
6.477504
20
153.224260
70
0
0
VERTEX
8
Layer 1
10
6.477504
20
147.544580
70
0
0
VERTEX
8
Layer 1
10
5.915005
20
147.544580
70
0
0
SEQEND
8
Layer 1
0
POLYLINE
8
Layer 1
62
7
70
0
10
0.000000
20
0.000000
66
1
0
VERTEX
8
Layer 1
10
6.301723
20
147.544580
70
0
0
VERTEX
8
Layer 1
10
6.301723
20
148.068020
70
0
0
VERTEX
8
Layer 1
10
8.352502
20
148.068020
70
0
0
VERTEX
8
Layer 1
10
8.352502
20
147.544580
70
0
0
VERTEX
8
Layer 1
10
6.301723
20
147.544580
70
0
0
SEQEND
8
Layer 1
0
POLYLINE
8
Layer 1
62
7
70
0
10
0.000000
20
0.000000
66
1
0
VERTEX
8
Layer 1
10
6.301723
20
150.103170
70
0
0
VERTEX
8
Layer 1
10
6.301723
20
150.626610
70
0
0
VERTEX
8
Layer 1
10
8.157189
20
150.626610
70
0
0
VERTEX
8
Layer 1
10
8.157189
20
150.103170
70
0
0
VERTEX
8
Layer 1
10
6.301723
20
150.103170
70
0
0
SEQEND
8
Layer 1
0
POLYLINE
8
Layer 1
62
7
70
0
10
0.000000
20
0.000000
66
1
0
VERTEX
8
Layer 1
10
6.301723
20
152.700820
70
0
0
VERTEX
8
Layer 1
10
6.301723
20
153.224260
70
0
0
VERTEX
8
Layer 1
10
8.352502
20
153.224260
70
0
0
VERTEX
8
Layer 1
10
8.352502
20
152.700820
70
0
0
VERTEX
8
Layer 1
10
6.301723
20
152.700820
70
0
0
SEQEND
8
Layer 1
0
POLYLINE
8
Layer 1
62
7
70
0
10
0.000000
20
0.000000
66
1
0
VERTEX
8
Layer 1
10
10.309530
20
153.224260
70
0
0
VERTEX
8
Layer 1
10
10.309530
20
147.544580
70
0
0
VERTEX
8
Layer 1
10
9.747031
20
147.544580
70
0
0
VERTEX
8
Layer 1
10
9.747031
20
152.747700
70
0
0
VERTEX
8
Layer 1
10
8.704064
20
152.095360
70
0
0
VERTEX
8
Layer 1
10
8.704064
20
152.685200
70
0
0
VERTEX
8
Layer 1
10
9.512656
20
153.224260
70
0
0
VERTEX
8
Layer 1
10
10.309530
20
153.224260
70
0
0
SEQEND
8
Layer 1
0
POLYLINE
8
Layer 1
62
7
70
0
10
0.000000
20
0.000000
66
1
0
VERTEX
8
Layer 1
10
5.915005
20
137.399070
70
0
0
VERTEX
8
Layer 1
10
5.915005
20
143.078750
70
0
0
VERTEX
8
Layer 1
10
6.477504
20
143.078750
70
0
0
VERTEX
8
Layer 1
10
6.477504
20
137.399070
70
0
0
VERTEX
8
Layer 1
10
5.915005
20
137.399070
70
0
0
SEQEND
8
Layer 1
0
POLYLINE
8
Layer 1
62
7
70
0
10
0.000000
20
0.000000
66
1
0
VERTEX
8
Layer 1
10
6.313442
20
137.399070
70
0
0
VERTEX
8
Layer 1
10
6.313442
20
137.922500
70
0
0
VERTEX
8
Layer 1
10
8.274377
20
137.922500
70
0
0
VERTEX
8
Layer 1
10
8.274377
20
137.399070
70
0
0
VERTEX
8
Layer 1
10
6.313442
20
137.399070
70
0
0
SEQEND
8
Layer 1
0
POLYLINE
8
Layer 1
62
7
70
0
10
0.000000
20
0.000000
66
1
0
VERTEX
8
Layer 1
10
10.016562
20
137.340470
70
0
0
VERTEX
8
Layer 1
10
9.305626
20
137.477190
70
0
0
VERTEX
8
Layer 1
10
8.856407
20
137.871720
70
0
0
VERTEX
8
Layer 1
10
8.704064
20
138.500630
70
0
0
VERTEX
8
Layer 1
10
8.704064
20
138.973280
70
0
0
VERTEX
8
Layer 1
10
9.282188
20
138.973280
70
0
0
VERTEX
8
Layer 1
10
9.282188
20
138.539690
70
0
0
VERTEX
8
Layer 1
10
9.473594
20
138.043600
70
0
0
VERTEX
8
Layer 1
10
10.016562
20
137.871720
70
0
0
VERTEX
8
Layer 1
10
10.543905
20
138.063130
70
0
0
VERTEX
8
Layer 1
10
10.731405
20
138.598280
70
0
0
VERTEX
8
Layer 1
10
10.731405
20
139.395160
70
0
0
VERTEX
8
Layer 1
10
10.563437
20
139.906870
70
0
0
VERTEX
8
Layer 1
10
10.094687
20
140.090470
70
0
0
VERTEX
8
Layer 1
10
9.692344
20
140.090470
70
0
0
VERTEX
8
Layer 1
10
9.692344
20
140.613900
70
0
0
VERTEX
8
Layer 1
10
10.094687
20
140.613900
70
0
0
VERTEX
8
Layer 1
10
10.493124
20
140.762340
70
0
0
VERTEX
8
Layer 1
10
10.637655
20
141.180310
70
0
0
VERTEX
8
Layer 1
10
10.637655
20
141.981090
70
0
0
VERTEX
8
Layer 1
10
10.473593
20
142.442030
70
0
0
VERTEX
8
Layer 1
10
10.012656
20
142.606090
70
0
0
VERTEX
8
Layer 1
10
9.540000
20
142.442030
70
0
0
VERTEX
8
Layer 1
10
9.372032
20
141.977180
70
0
0
VERTEX
8
Layer 1
10
9.372032
20
141.504530
70
0
0
VERTEX
8
Layer 1
10
8.797814
20
141.504530
70
0
0
VERTEX
8
Layer 1
10
8.797814
20
141.977180
70
0
0
VERTEX
8
Layer 1
10
8.879845
20
142.468392
70
0
0
VERTEX
8
Layer 1
10
9.125938
20
142.832650
70
0
0
VERTEX
8
Layer 1
10
9.521446
20
143.061167
70
0
0
VERTEX
8
Layer 1
10
10.051718
20
143.137340
70
0
0
VERTEX
8
Layer 1
10
10.537070
20
143.061167
70
0
0
VERTEX
8
Layer 1
10
10.899374
20
142.832650
70
0
0
VERTEX
8
Layer 1
10
11.124959
20
142.465462
70
0
0
VERTEX
8
Layer 1
10
11.200154
20
141.973280
70
0
0
VERTEX
8
Layer 1
10
11.200154
20
141.176400
70
0
0
VERTEX
8
Layer 1
10
11.071248
20
140.758440
70
0
0
VERTEX
8
Layer 1
10
10.707968
20
140.363910
70
0
0
VERTEX
8
Layer 1
10
11.137655
20
139.992810
70
0
0
VERTEX
8
Layer 1
10
11.293904
20
139.391250
70
0
0
VERTEX
8
Layer 1
10
11.293904
20
138.594380
70
0
0
VERTEX
8
Layer 1
10
11.209920
20
138.064105
70
0
0
VERTEX
8
Layer 1
10
10.957967
20
137.668600
70
0
0
VERTEX
8
Layer 1
10
10.556600
20
137.422502
70
0
0
VERTEX
8
Layer 1
10
10.016562
20
137.340470
70
0
0
VERTEX
8
Layer 1
10
10.016562
20
137.340470
70
0
0
SEQEND
8
Layer 1
0
POLYLINE
8
Layer 1
62
7
70
0
10
0.000000
20
0.000000
66
1
0
VERTEX
8
Layer 1
10
5.915005
20
127.253550
70
0
0
VERTEX
8
Layer 1
10
5.915005
20
132.933230
70
0
0
VERTEX
8
Layer 1
10
6.477504
20
132.933230
70
0
0
VERTEX
8
Layer 1
10
6.477504
20
127.253550
70
0
0
VERTEX
8
Layer 1
10
5.915005
20
127.253550
70
0
0
SEQEND
8
Layer 1
0
POLYLINE
8
Layer 1
62
7
70
0
10
0.000000
20
0.000000
66
1
0
VERTEX
8
Layer 1
10
6.313442
20
127.253550
70
0
0
VERTEX
8
Layer 1
10
6.313442
20
127.776990
70
0
0
VERTEX
8
Layer 1
10
8.274377
20
127.776990
70
0
0
VERTEX
8
Layer 1
10
8.274377
20
127.253550
70
0
0
VERTEX
8
Layer 1
10
6.313442
20
127.253550
70
0
0
SEQEND
8
Layer 1
0
POLYLINE
8
Layer 1
62
7
70
0
10
0.000000
20
0.000000
66
1
0
VERTEX
8
Layer 1
10
8.813439
20
127.253550
70
0
0
VERTEX
8
Layer 1
10
8.813439
20
127.710580
70
0
0
VERTEX
8
Layer 1
10
10.258749
20
130.151980
70
0
0
VERTEX
8
Layer 1
10
10.633749
20
130.948860
70
0
0
VERTEX
8
Layer 1
10
10.766561
20
131.628550
70
0
0
VERTEX
8
Layer 1
10
10.766561
20
131.636550
70
0
0
VERTEX
8
Layer 1
10
10.598593
20
132.249830
70
0
0
VERTEX
8
Layer 1
10
10.118125
20
132.468580
70
0
0
VERTEX
8
Layer 1
10
9.802695
20
132.396315
70
0
0
VERTEX
8
Layer 1
10
9.567344
20
132.179520
70
0
0
VERTEX
8
Layer 1
10
9.372032
20
131.370920
70
0
0
VERTEX
8
Layer 1
10
9.372032
20
131.366920
70
0
0
VERTEX
8
Layer 1
10
8.782189
20
131.366920
70
0
0
VERTEX
8
Layer 1
10
8.782189
20
131.370920
70
0
0
VERTEX
8
Layer 1
10
8.866173
20
132.056467
70
0
0
VERTEX
8
Layer 1
10
9.118126
20
132.566230
70
0
0
VERTEX
8
Layer 1
10
9.526329
20
132.885565
70
0
0
VERTEX
8
Layer 1
10
10.071250
20
132.992010
70
0
0
VERTEX
8
Layer 1
10
10.618124
20
132.903145
70
0
0
VERTEX
8
Layer 1
10
11.024373
20
132.636550
70
0
0
VERTEX
8
Layer 1
10
11.276327
20
132.206862
70
0
0
VERTEX
8
Layer 1
10
11.360311
20
131.628740
70
0
0
VERTEX
8
Layer 1
10
11.360311
20
131.624740
70
0
0
VERTEX
8
Layer 1
10
11.223592
20
130.820050
70
0
0
VERTEX
8
Layer 1
10
10.821249
20
129.929430
70
0
0
VERTEX
8
Layer 1
10
9.512657
20
127.777090
70
0
0
VERTEX
8
Layer 1
10
11.352498
20
127.777090
70
0
0
VERTEX
8
Layer 1
10
11.352498
20
127.253650
70
0
0
VERTEX
8
Layer 1
10
8.813439
20
127.253550
70
0
0
SEQEND
8
Layer 1
0
POLYLINE
8
Layer 1
62
7
70
0
10
0.000000
20
0.000000
66
1
0
VERTEX
8
Layer 1
10
5.915005
20
117.108040
70
0
0
VERTEX
8
Layer 1
10
5.915005
20
122.787720
70
0
0
VERTEX
8
Layer 1
10
6.477504
20
122.787720
70
0
0
VERTEX
8
Layer 1
10
6.477504
20
117.108040
70
0
0
VERTEX
8
Layer 1
10
5.915005
20
117.108040
70
0
0
SEQEND
8
Layer 1
0
POLYLINE
8
Layer 1
62
7
70
0
10
0.000000
20
0.000000
66
1
0
VERTEX
8
Layer 1
10
6.313442
20
117.108040
70
0
0
VERTEX
8
Layer 1
10
6.313442
20
117.631470
70
0
0
VERTEX
8
Layer 1
10
8.274377
20
117.631470
70
0
0
VERTEX
8
Layer 1
10
8.274377
20
117.108040
70
0
0
VERTEX
8
Layer 1
10
6.313442
20
117.108040
70
0
0
SEQEND
8
Layer 1
0
POLYLINE
8
Layer 1
62
7
70
0
10
0.000000
20
0.000000
66
1
0
VERTEX
8
Layer 1
10
10.231406
20
122.787720
70
0
0
VERTEX
8
Layer 1
10
10.231406
20
117.108040
70
0
0
VERTEX
8
Layer 1
10
9.668906
20
117.108040
70
0
0
VERTEX
8
Layer 1
10
9.668906
20
122.311150
70
0
0
VERTEX
8
Layer 1
10
8.625939
20
121.658810
70
0
0
VERTEX
8
Layer 1
10
8.625939
20
122.248650
70
0
0
VERTEX
8
Layer 1
10
9.434532
20
122.787720
70
0
0
VERTEX
8
Layer 1
10
10.231406
20
122.787720
70
0
0
SEQEND
8
Layer 1
0
POLYLINE
8
Layer 1
62
7
70
0
10
0.000000
20
0.000000
66
1
0
VERTEX
8
Layer 1
10
6.441050
20
189.027130
70
0
0
VERTEX
8
Layer 1
10
6.441050
20
189.550570
70
0
0
VERTEX
8
Layer 1
10
7.651986
20
189.550570
70
0
0
VERTEX
8
Layer 1
10
8.058236
20
189.722450
70
0
0
VERTEX
8
Layer 1
10
8.202767
20
190.202910
70
0
0
VERTEX
8
Layer 1
10
8.202767
20
191.308380
70
0
0
VERTEX
8
Layer 1
10
8.058236
20
191.804480
70
0
0
VERTEX
8
Layer 1
10
7.651986
20
191.980260
70
0
0
VERTEX
8
Layer 1
10
6.441050
20
191.980260
70
0
0
VERTEX
8
Layer 1
10
6.441050
20
192.503690
70
0
0
VERTEX
8
Layer 1
10
7.624642
20
192.503690
70
0
0
VERTEX
8
Layer 1
10
8.241829
20
192.363070
70
0
0
VERTEX
8
Layer 1
10
8.628547
20
191.956820
70
0
0
VERTEX
8
Layer 1
10
8.765266
20
191.308380
70
0
0
VERTEX
8
Layer 1
10
8.765266
20
190.195100
70
0
0
VERTEX
8
Layer 1
10
8.628547
20
189.562290
70
0
0
VERTEX
8
Layer 1
10
8.237923
20
189.163850
70
0
0
VERTEX
8
Layer 1
10
7.624642
20
189.027130
70
0
0
VERTEX
8
Layer 1
10
6.441050
20
189.027130
70
0
0
SEQEND
8
Layer 1
0
POLYLINE
8
Layer 1
62
7
70
0
10
0.000000
20
0.000000
66
1
0
VERTEX
8
Layer 1
10
6.030894
20
186.824010
70
0
0
VERTEX
8
Layer 1
10
6.030894
20
192.503690
70
0
0
VERTEX
8
Layer 1
10
6.593394
20
192.503690
70
0
0
VERTEX
8
Layer 1
10
6.593394
20
186.824010
70
0
0
VERTEX
8
Layer 1
10
6.030894
20
186.824010
70
0
0
SEQEND
8
Layer 1
0
POLYLINE
8
Layer 1
62
7
70
0
10
0.000000
20
0.000000
66
1
0
VERTEX
8
Layer 1
10
10.300420
20
186.765410
70
0
0
VERTEX
8
Layer 1
10
9.808233
20
186.842557
70
0
0
VERTEX
8
Layer 1
10
9.441046
20
187.074000
70
0
0
VERTEX
8
Layer 1
10
9.212531
20
187.446075
70
0
0
VERTEX
8
Layer 1
10
9.136359
20
187.945100
70
0
0
VERTEX
8
Layer 1
10
9.136359
20
189.788840
70
0
0
VERTEX
8
Layer 1
10
9.212531
20
190.280052
70
0
0
VERTEX
8
Layer 1
10
9.441046
20
190.644310
70
0
0
VERTEX
8
Layer 1
10
9.808233
20
190.872827
70
0
0
VERTEX
8
Layer 1
10
10.300420
20
190.949000
70
0
0
VERTEX
8
Layer 1
10
10.792607
20
190.872827
70
0
0
VERTEX
8
Layer 1
10
11.159794
20
190.644310
70
0
0
VERTEX
8
Layer 1
10
11.388309
20
190.280052
70
0
0
VERTEX
8
Layer 1
10
11.464481
20
189.788840
70
0
0
VERTEX
8
Layer 1
10
11.464481
20
187.933380
70
0
0
VERTEX
8
Layer 1
10
11.388309
20
187.440215
70
0
0
VERTEX
8
Layer 1
10
11.159794
20
187.070100
70
0
0
VERTEX
8
Layer 1
10
10.792607
20
186.841582
70
0
0
VERTEX
8
Layer 1
10
10.300420
20
186.765410
70
0
0
VERTEX
8
Layer 1
10
10.300420
20
186.765410
70
0
0
SEQEND
8
Layer 1
0
POLYLINE
8
Layer 1
62
7
70
0
10
0.000000
20
0.000000
66
1
0
VERTEX
8
Layer 1
10
10.296520
20
187.288850
70
0
0
VERTEX
8
Layer 1
10
10.741832
20
187.456810
70
0
0
VERTEX
8
Layer 1
10
10.901988
20
187.933380
70
0
0
VERTEX
8
Layer 1
10
10.901988
20
189.788840
70
0
0
VERTEX
8
Layer 1
10
10.741832
20
190.257590
70
0
0
VERTEX
8
Layer 1
10
10.296520
20
190.425560
70
0
0
VERTEX
8
Layer 1
10
9.855114
20
190.257590
70
0
0
VERTEX
8
Layer 1
10
9.698864
20
189.788840
70
0
0
VERTEX
8
Layer 1
10
9.698864
20
187.933380
70
0
0
VERTEX
8
Layer 1
10
9.855114
20
187.456810
70
0
0
VERTEX
8
Layer 1
10
10.296520
20
187.288850
70
0
0
VERTEX
8
Layer 1
10
10.296520
20
187.288850
70
0
0
SEQEND
8
Layer 1
0
POLYLINE
8
Layer 1
62
7
70
0
10
0.000000
20
0.000000
66
1
0
VERTEX
8
Layer 1
10
12.206674
20
186.824000
70
0
0
VERTEX
8
Layer 1
10
12.206674
20
192.503680
70
0
0
VERTEX
8
Layer 1
10
12.769173
20
192.503680
70
0
0
VERTEX
8
Layer 1
10
12.769173
20
186.824000
70
0
0
VERTEX
8
Layer 1
10
12.206674
20
186.824000
70
0
0
SEQEND
8
Layer 1
0
POLYLINE
8
Layer 1
62
7
70
0
10
0.000000
20
0.000000
66
1
0
VERTEX
8
Layer 1
10
12.593392
20
186.824000
70
0
0
VERTEX
8
Layer 1
10
12.593392
20
187.347440
70
0
0
VERTEX
8
Layer 1
10
14.644171
20
187.347440
70
0
0
VERTEX
8
Layer 1
10
14.644171
20
186.824000
70
0
0
VERTEX
8
Layer 1
10
12.593392
20
186.824000
70
0
0
SEQEND
8
Layer 1
0
POLYLINE
8
Layer 1
62
7
70
0
10
0.000000
20
0.000000
66
1
0
VERTEX
8
Layer 1
10
12.593392
20
189.382590
70
0
0
VERTEX
8
Layer 1
10
12.593392
20
189.906030
70
0
0
VERTEX
8
Layer 1
10
14.448859
20
189.906030
70
0
0
VERTEX
8
Layer 1
10
14.448859
20
189.382590
70
0
0
VERTEX
8
Layer 1
10
12.593392
20
189.382590
70
0
0
SEQEND
8
Layer 1
0
POLYLINE
8
Layer 1
62
7
70
0
10
0.000000
20
0.000000
66
1
0
VERTEX
8
Layer 1
10
12.593392
20
191.980250
70
0
0
VERTEX
8
Layer 1
10
12.593392
20
192.503680
70
0
0
VERTEX
8
Layer 1
10
14.644171
20
192.503680
70
0
0
VERTEX
8
Layer 1
10
14.644171
20
191.980250
70
0
0
VERTEX
8
Layer 1
10
12.593392
20
191.980250
70
0
0
SEQEND
8
Layer 1
0
POLYLINE
8
Layer 1
62
7
70
0
10
0.000000
20
0.000000
66
1
0
VERTEX
8
Layer 1
10
17.484011
20
192.503680
70
0
0
VERTEX
8
Layer 1
10
17.484011
20
186.824000
70
0
0
VERTEX
8
Layer 1
10
16.921512
20
186.824000
70
0
0
VERTEX
8
Layer 1
10
16.921512
20
192.503680
70
0
0
VERTEX
8
Layer 1
10
17.484011
20
192.503680
70
0
0
SEQEND
8
Layer 1
0
POLYLINE
8
Layer 1
62
7
70
0
10
0.000000
20
0.000000
66
1
0
VERTEX
8
Layer 1
10
18.347291
20
186.827910
70
0
0
VERTEX
8
Layer 1
10
18.347291
20
192.503680
70
0
0
VERTEX
8
Layer 1
10
18.874634
20
192.503680
70
0
0
VERTEX
8
Layer 1
10
20.675413
20
187.839630
70
0
0
VERTEX
8
Layer 1
10
20.581663
20
187.738060
70
0
0
VERTEX
8
Layer 1
10
20.581663
20
192.503680
70
0
0
VERTEX
8
Layer 1
10
21.136350
20
192.503680
70
0
0
VERTEX
8
Layer 1
10
21.136350
20
186.827910
70
0
0
VERTEX
8
Layer 1
10
20.601195
20
186.827910
70
0
0
VERTEX
8
Layer 1
10
18.808228
20
191.491970
70
0
0
VERTEX
8
Layer 1
10
18.901978
20
191.593530
70
0
0
VERTEX
8
Layer 1
10
18.901978
20
186.827910
70
0
0
VERTEX
8
Layer 1
10
18.347291
20
186.827910
70
0
0
SEQEND
8
Layer 1
0
POLYLINE
8
Layer 1
62
7
70
0
10
0.000000
20
0.000000
66
1
0
VERTEX
8
Layer 1
10
22.624629
20
186.765410
70
0
0
VERTEX
8
Layer 1
10
21.972286
20
186.917750
70
0
0
VERTEX
8
Layer 1
10
21.487912
20
187.347440
70
0
0
VERTEX
8
Layer 1
10
21.866818
20
187.699000
70
0
0
VERTEX
8
Layer 1
10
22.226192
20
187.402130
70
0
0
VERTEX
8
Layer 1
10
22.663692
20
187.296660
70
0
0
VERTEX
8
Layer 1
10
23.155879
20
187.491970
70
0
0
VERTEX
8
Layer 1
10
23.327753
20
188.046660
70
0
0
VERTEX
8
Layer 1
10
23.327753
20
192.503680
70
0
0
VERTEX
8
Layer 1
10
23.890253
20
192.503680
70
0
0
VERTEX
8
Layer 1
10
23.890253
20
188.042750
70
0
0
VERTEX
8
Layer 1
10
23.807245
20
187.501737
70
0
0
VERTEX
8
Layer 1
10
23.558222
20
187.097440
70
0
0
VERTEX
8
Layer 1
10
23.160761
20
186.848417
70
0
0
VERTEX
8
Layer 1
10
22.624629
20
186.765410
70
0
0
VERTEX
8
Layer 1
10
22.624629
20
186.765410
70
0
0
SEQEND
8
Layer 1
0
POLYLINE
8
Layer 1
62
7
70
0
10
0.000000
20
0.000000
66
1
0
VERTEX
8
Layer 1
10
24.671502
20
186.824010
70
0
0
VERTEX
8
Layer 1
10
24.671502
20
192.503690
70
0
0
VERTEX
8
Layer 1
10
25.234002
20
192.503690
70
0
0
VERTEX
8
Layer 1
10
25.234002
20
186.824010
70
0
0
VERTEX
8
Layer 1
10
24.671502
20
186.824010
70
0
0
SEQEND
8
Layer 1
0
POLYLINE
8
Layer 1
62
7
70
0
10
0.000000
20
0.000000
66
1
0
VERTEX
8
Layer 1
10
25.058221
20
186.824010
70
0
0
VERTEX
8
Layer 1
10
25.058221
20
187.347450
70
0
0
VERTEX
8
Layer 1
10
27.108999
20
187.347450
70
0
0
VERTEX
8
Layer 1
10
27.108999
20
186.824010
70
0
0
VERTEX
8
Layer 1
10
25.058221
20
186.824010
70
0
0
SEQEND
8
Layer 1
0
POLYLINE
8
Layer 1
62
7
70
0
10
0.000000
20
0.000000
66
1
0
VERTEX
8
Layer 1
10
25.058221
20
189.382600
70
0
0
VERTEX
8
Layer 1
10
25.058221
20
189.906040
70
0
0
VERTEX
8
Layer 1
10
26.913687
20
189.906040
70
0
0
VERTEX
8
Layer 1
10
26.913687
20
189.382600
70
0
0
VERTEX
8
Layer 1
10
25.058221
20
189.382600
70
0
0
SEQEND
8
Layer 1
0
POLYLINE
8
Layer 1
62
7
70
0
10
0.000000
20
0.000000
66
1
0
VERTEX
8
Layer 1
10
25.058221
20
191.980260
70
0
0
VERTEX
8
Layer 1
10
25.058221
20
192.503690
70
0
0
VERTEX
8
Layer 1
10
27.108999
20
192.503690
70
0
0
VERTEX
8
Layer 1
10
27.108999
20
191.980260
70
0
0
VERTEX
8
Layer 1
10
25.058221
20
191.980260
70
0
0
SEQEND
8
Layer 1
0
POLYLINE
8
Layer 1
62
7
70
0
10
0.000000
20
0.000000
66
1
0
VERTEX
8
Layer 1
10
29.015247
20
186.765420
70
0
0
VERTEX
8
Layer 1
10
28.300404
20
186.937290
70
0
0
VERTEX
8
Layer 1
10
27.851186
20
187.433390
70
0
0
VERTEX
8
Layer 1
10
27.694936
20
188.218540
70
0
0
VERTEX
8
Layer 1
10
27.694936
20
191.105260
70
0
0
VERTEX
8
Layer 1
10
27.851186
20
191.894320
70
0
0
VERTEX
8
Layer 1
10
28.300404
20
192.390410
70
0
0
VERTEX
8
Layer 1
10
29.015247
20
192.562290
70
0
0
VERTEX
8
Layer 1
10
29.730090
20
192.390410
70
0
0
VERTEX
8
Layer 1
10
30.179308
20
191.894320
70
0
0
VERTEX
8
Layer 1
10
30.335558
20
191.109160
70
0
0
VERTEX
8
Layer 1
10
30.335558
20
190.902130
70
0
0
VERTEX
8
Layer 1
10
29.773058
20
190.902130
70
0
0
VERTEX
8
Layer 1
10
29.773058
20
191.109160
70
0
0
VERTEX
8
Layer 1
10
29.683218
20
191.601350
70
0
0
VERTEX
8
Layer 1
10
29.425406
20
191.909940
70
0
0
VERTEX
8
Layer 1
10
29.015250
20
192.019320
70
0
0
VERTEX
8
Layer 1
10
28.456657
20
191.781040
70
0
0
VERTEX
8
Layer 1
10
28.257438
20
191.105260
70
0
0
VERTEX
8
Layer 1
10
28.257438
20
188.218540
70
0
0
VERTEX
8
Layer 1
10
28.456657
20
187.546670
70
0
0
VERTEX
8
Layer 1
10
29.015250
20
187.308390
70
0
0
VERTEX
8
Layer 1
10
29.573843
20
187.546670
70
0
0
VERTEX
8
Layer 1
10
29.773061
20
188.218540
70
0
0
VERTEX
8
Layer 1
10
29.773061
20
188.425570
70
0
0
VERTEX
8
Layer 1
10
30.335561
20
188.425570
70
0
0
VERTEX
8
Layer 1
10
30.335561
20
188.218540
70
0
0
VERTEX
8
Layer 1
10
30.179311
20
187.433390
70
0
0
VERTEX
8
Layer 1
10
29.730093
20
186.937290
70
0
0
VERTEX
8
Layer 1
10
29.015250
20
186.765420
70
0
0
VERTEX
8
Layer 1
10
29.015247
20
186.765420
70
0
0
SEQEND
8
Layer 1
0
POLYLINE
8
Layer 1
62
7
70
0
10
0.000000
20
0.000000
66
1
0
VERTEX
8
Layer 1
10
31.745711
20
186.824020
70
0
0
VERTEX
8
Layer 1
10
31.745711
20
192.038860
70
0
0
VERTEX
8
Layer 1
10
32.308210
20
192.038860
70
0
0
VERTEX
8
Layer 1
10
32.308210
20
186.824020
70
0
0
VERTEX
8
Layer 1
10
31.745711
20
186.824020
70
0
0
SEQEND
8
Layer 1
0
POLYLINE
8
Layer 1
62
7
70
0
10
0.000000
20
0.000000
66
1
0
VERTEX
8
Layer 1
10
30.648056
20
191.980270
70
0
0
VERTEX
8
Layer 1
10
30.648056
20
192.503700
70
0
0
VERTEX
8
Layer 1
10
33.405865
20
192.503700
70
0
0
VERTEX
8
Layer 1
10
33.405865
20
191.980270
70
0
0
VERTEX
8
Layer 1
10
30.648056
20
191.980270
70
0
0
SEQEND
8
Layer 1
0
POLYLINE
8
Layer 1
62
7
70
0
10
0.000000
20
0.000000
66
1
0
VERTEX
8
Layer 1
10
35.206645
20
186.765430
70
0
0
VERTEX
8
Layer 1
10
34.444928
20
186.933400
70
0
0
VERTEX
8
Layer 1
10
33.960553
20
187.417770
70
0
0
VERTEX
8
Layer 1
10
33.796491
20
188.195110
70
0
0
VERTEX
8
Layer 1
10
33.796491
20
191.132610
70
0
0
VERTEX
8
Layer 1
10
33.960553
20
191.906050
70
0
0
VERTEX
8
Layer 1
10
34.444928
20
192.394330
70
0
0
VERTEX
8
Layer 1
10
35.206645
20
192.562300
70
0
0
VERTEX
8
Layer 1
10
35.968363
20
192.394330
70
0
0
VERTEX
8
Layer 1
10
36.448831
20
191.906050
70
0
0
VERTEX
8
Layer 1
10
36.616800
20
191.132610
70
0
0
VERTEX
8
Layer 1
10
36.616800
20
188.195110
70
0
0
VERTEX
8
Layer 1
10
36.448831
20
187.417770
70
0
0
VERTEX
8
Layer 1
10
35.968363
20
186.933400
70
0
0
VERTEX
8
Layer 1
10
35.206645
20
186.765430
70
0
0
VERTEX
8
Layer 1
10
35.206645
20
186.765430
70
0
0
SEQEND
8
Layer 1
0
POLYLINE
8
Layer 1
62
7
70
0
10
0.000000
20
0.000000
66
1
0
VERTEX
8
Layer 1
10
35.206645
20
187.316210
70
0
0
VERTEX
8
Layer 1
10
35.831645
20
187.538870
70
0
0
VERTEX
8
Layer 1
10
36.054301
20
188.167770
70
0
0
VERTEX
8
Layer 1
10
36.054301
20
191.159950
70
0
0
VERTEX
8
Layer 1
10
35.831645
20
191.788860
70
0
0
VERTEX
8
Layer 1
10
35.206645
20
192.011520
70
0
0
VERTEX
8
Layer 1
10
34.581646
20
191.788860
70
0
0
VERTEX
8
Layer 1
10
34.358990
20
191.159950
70
0
0
VERTEX
8
Layer 1
10
34.358990
20
188.167770
70
0
0
VERTEX
8
Layer 1
10
34.581646
20
187.538870
70
0
0
VERTEX
8
Layer 1
10
35.206645
20
187.316210
70
0
0
VERTEX
8
Layer 1
10
35.206645
20
187.316210
70
0
0
SEQEND
8
Layer 1
0
POLYLINE
8
Layer 1
62
7
70
0
10
0.000000
20
0.000000
66
1
0
VERTEX
8
Layer 1
10
37.667579
20
189.226360
70
0
0
VERTEX
8
Layer 1
10
37.667579
20
189.749800
70
0
0
VERTEX
8
Layer 1
10
38.718358
20
189.749800
70
0
0
VERTEX
8
Layer 1
10
39.312108
20
189.960740
70
0
0
VERTEX
8
Layer 1
10
39.526951
20
190.554490
70
0
0
VERTEX
8
Layer 1
10
39.526951
20
191.140420
70
0
0
VERTEX
8
Layer 1
10
39.312108
20
191.761520
70
0
0
VERTEX
8
Layer 1
10
38.718358
20
191.984170
70
0
0
VERTEX
8
Layer 1
10
37.667579
20
191.984170
70
0
0
VERTEX
8
Layer 1
10
37.667579
20
192.507610
70
0
0
VERTEX
8
Layer 1
10
38.679296
20
192.507610
70
0
0
VERTEX
8
Layer 1
10
39.441014
20
192.355270
70
0
0
VERTEX
8
Layer 1
10
39.921482
20
191.917770
70
0
0
VERTEX
8
Layer 1
10
40.089450
20
191.218550
70
0
0
VERTEX
8
Layer 1
10
40.089450
20
190.554490
70
0
0
VERTEX
8
Layer 1
10
39.921482
20
189.835740
70
0
0
VERTEX
8
Layer 1
10
39.441014
20
189.382610
70
0
0
VERTEX
8
Layer 1
10
38.679296
20
189.226360
70
0
0
VERTEX
8
Layer 1
10
37.667579
20
189.226360
70
0
0
SEQEND
8
Layer 1
0
POLYLINE
8
Layer 1
62
7
70
0
10
0.000000
20
0.000000
66
1
0
VERTEX
8
Layer 1
10
37.319923
20
186.824020
70
0
0
VERTEX
8
Layer 1
10
37.319923
20
192.507610
70
0
0
VERTEX
8
Layer 1
10
37.882422
20
192.507610
70
0
0
VERTEX
8
Layer 1
10
37.882422
20
186.824020
70
0
0
VERTEX
8
Layer 1
10
37.319923
20
186.824020
70
0
0
SEQEND
8
Layer 1
0
POLYLINE
8
Layer 1
62
7
70
0
10
0.000000
20
0.000000
66
1
0
VERTEX
8
Layer 1
10
39.597264
20
186.824020
70
0
0
VERTEX
8
Layer 1
10
38.843358
20
189.402140
70
0
0
VERTEX
8
Layer 1
10
39.343358
20
189.581830
70
0
0
VERTEX
8
Layer 1
10
40.249607
20
186.824020
70
0
0
VERTEX
8
Layer 1
10
39.597264
20
186.824020
70
0
0
SEQEND
8
Layer 1
0
POLYLINE
8
Layer 1
62
7
70
0
10
0.000000
20
0.000000
66
1
0
VERTEX
8
Layer 1
10
7.374643
20
180.219900
70
0
0
VERTEX
8
Layer 1
10
6.605112
20
180.364430
70
0
0
VERTEX
8
Layer 1
10
6.144175
20
180.809740
70
0
0
VERTEX
8
Layer 1
10
5.991832
20
181.551930
70
0
0
VERTEX
8
Layer 1
10
5.991832
20
181.833180
70
0
0
VERTEX
8
Layer 1
10
6.546519
20
181.833180
70
0
0
VERTEX
8
Layer 1
10
6.546519
20
181.551930
70
0
0
VERTEX
8
Layer 1
10
6.753550
20
180.938650
70
0
0
VERTEX
8
Layer 1
10
7.374643
20
180.735520
70
0
0
VERTEX
8
Layer 1
10
7.980111
20
180.938650
70
0
0
VERTEX
8
Layer 1
10
8.183235
20
181.551930
70
0
0
VERTEX
8
Layer 1
10
8.183235
20
181.887870
70
0
0
VERTEX
8
Layer 1
10
8.046517
20
182.383960
70
0
0
VERTEX
8
Layer 1
10
7.691048
20
182.715990
70
0
0
VERTEX
8
Layer 1
10
7.226205
20
182.977710
70
0
0
VERTEX
8
Layer 1
10
6.784800
20
183.204270
70
0
0
VERTEX
8
Layer 1
10
6.390269
20
183.485520
70
0
0
VERTEX
8
Layer 1
10
6.101207
20
183.872240
70
0
0
VERTEX
8
Layer 1
10
5.995738
20
184.426930
70
0
0
VERTEX
8
Layer 1
10
5.995738
20
184.704270
70
0
0
VERTEX
8
Layer 1
10
6.081675
20
185.280437
70
0
0
VERTEX
8
Layer 1
10
6.339488
20
185.688640
70
0
0
VERTEX
8
Layer 1
10
6.769175
20
185.934737
70
0
0
VERTEX
8
Layer 1
10
7.370736
20
186.016770
70
0
0
VERTEX
8
Layer 1
10
7.957650
20
185.933763
70
0
0
VERTEX
8
Layer 1
10
8.374641
20
185.684740
70
0
0
VERTEX
8
Layer 1
10
8.623664
20
185.269700
70
0
0
VERTEX
8
Layer 1
10
8.706672
20
184.688640
70
0
0
VERTEX
8
Layer 1
10
8.706672
20
184.391770
70
0
0
VERTEX
8
Layer 1
10
8.151985
20
184.391770
70
0
0
VERTEX
8
Layer 1
10
8.151985
20
184.688640
70
0
0
VERTEX
8
Layer 1
10
7.956673
20
185.298020
70
0
0
VERTEX
8
Layer 1
10
7.370736
20
185.501140
70
0
0
VERTEX
8
Layer 1
10
6.753550
20
185.305830
70
0
0
VERTEX
8
Layer 1
10
6.550425
20
184.727710
70
0
0
VERTEX
8
Layer 1
10
6.550425
20
184.450360
70
0
0
VERTEX
8
Layer 1
10
6.710581
20
183.958180
70
0
0
VERTEX
8
Layer 1
10
7.120737
20
183.630050
70
0
0
VERTEX
8
Layer 1
10
7.640267
20
183.364430
70
0
0
VERTEX
8
Layer 1
10
8.042611
20
183.141770
70
0
0
VERTEX
8
Layer 1
10
8.394173
20
182.856620
70
0
0
VERTEX
8
Layer 1
10
8.644172
20
182.462080
70
0
0
VERTEX
8
Layer 1
10
8.737922
20
181.911300
70
0
0
VERTEX
8
Layer 1
10
8.737922
20
181.551930
70
0
0
VERTEX
8
Layer 1
10
8.652961
20
180.967945
70
0
0
VERTEX
8
Layer 1
10
8.398079
20
180.551930
70
0
0
VERTEX
8
Layer 1
10
7.972298
20
180.302907
70
0
0
VERTEX
8
Layer 1
10
7.374643
20
180.219900
70
0
0
VERTEX
8
Layer 1
10
7.374643
20
180.219900
70
0
0
SEQEND
8
Layer 1
0
POLYLINE
8
Layer 1
62
7
70
0
10
0.000000
20
0.000000
66
1
0
VERTEX
8
Layer 1
10
10.573857
20
180.219900
70
0
0
VERTEX
8
Layer 1
10
10.007452
20
180.302908
70
0
0
VERTEX
8
Layer 1
10
9.605109
20
180.551930
70
0
0
VERTEX
8
Layer 1
10
9.364875
20
180.967945
70
0
0
VERTEX
8
Layer 1
10
9.284797
20
181.551930
70
0
0
VERTEX
8
Layer 1
10
9.284797
20
185.958170
70
0
0
VERTEX
8
Layer 1
10
9.847296
20
185.958170
70
0
0
VERTEX
8
Layer 1
10
9.847296
20
181.524590
70
0
0
VERTEX
8
Layer 1
10
10.026983
20
180.958180
70
0
0
VERTEX
8
Layer 1
10
10.573857
20
180.770680
70
0
0
VERTEX
8
Layer 1
10
11.124638
20
180.958180
70
0
0
VERTEX
8
Layer 1
10
11.308231
20
181.524590
70
0
0
VERTEX
8
Layer 1
10
11.308231
20
185.958170
70
0
0
VERTEX
8
Layer 1
10
11.870731
20
185.958170
70
0
0
VERTEX
8
Layer 1
10
11.870731
20
181.551930
70
0
0
VERTEX
8
Layer 1
10
11.789676
20
180.967945
70
0
0
VERTEX
8
Layer 1
10
11.546512
20
180.551930
70
0
0
VERTEX
8
Layer 1
10
11.143192
20
180.302908
70
0
0
VERTEX
8
Layer 1
10
10.573857
20
180.219900
70
0
0
VERTEX
8
Layer 1
10
10.573857
20
180.219900
70
0
0
SEQEND
8
Layer 1
0
POLYLINE
8
Layer 1
62
7
70
0
10
0.000000
20
0.000000
66
1
0
VERTEX
8
Layer 1
10
12.882448
20
182.680830
70
0
0
VERTEX
8
Layer 1
10
12.882448
20
183.204270
70
0
0
VERTEX
8
Layer 1
10
13.933228
20
183.204270
70
0
0
VERTEX
8
Layer 1
10
14.526977
20
183.415210
70
0
0
VERTEX
8
Layer 1
10
14.741821
20
184.008960
70
0
0
VERTEX
8
Layer 1
10
14.741821
20
184.594890
70
0
0
VERTEX
8
Layer 1
10
14.526977
20
185.215990
70
0
0
VERTEX
8
Layer 1
10
13.933228
20
185.438640
70
0
0
VERTEX
8
Layer 1
10
12.882448
20
185.438640
70
0
0
VERTEX
8
Layer 1
10
12.882448
20
185.962080
70
0
0
VERTEX
8
Layer 1
10
13.894166
20
185.962080
70
0
0
VERTEX
8
Layer 1
10
14.655884
20
185.809740
70
0
0
VERTEX
8
Layer 1
10
15.136352
20
185.372240
70
0
0
VERTEX
8
Layer 1
10
15.304320
20
184.673020
70
0
0
VERTEX
8
Layer 1
10
15.304320
20
184.008960
70
0
0
VERTEX
8
Layer 1
10
15.136352
20
183.290210
70
0
0
VERTEX
8
Layer 1
10
14.655884
20
182.837080
70
0
0
VERTEX
8
Layer 1
10
13.894166
20
182.680830
70
0
0
VERTEX
8
Layer 1
10
12.882448
20
182.680830
70
0
0
SEQEND
8
Layer 1
0
POLYLINE
8
Layer 1
62
7
70
0
10
0.000000
20
0.000000
66
1
0
VERTEX
8
Layer 1
10
12.534792
20
180.278490
70
0
0
VERTEX
8
Layer 1
10
12.534792
20
185.962080
70
0
0
VERTEX
8
Layer 1
10
13.097292
20
185.962080
70
0
0
VERTEX
8
Layer 1
10
13.097292
20
180.278490
70
0
0
VERTEX
8
Layer 1
10
12.534792
20
180.278490
70
0
0
SEQEND
8
Layer 1
0
POLYLINE
8
Layer 1
62
7
70
0
10
0.000000
20
0.000000
66
1
0
VERTEX
8
Layer 1
10
14.812133
20
180.278490
70
0
0
VERTEX
8
Layer 1
10
14.058228
20
182.856620
70
0
0
VERTEX
8
Layer 1
10
14.558227
20
183.036300
70
0
0
VERTEX
8
Layer 1
10
15.464476
20
180.278490
70
0
0
VERTEX
8
Layer 1
10
14.812133
20
180.278490
70
0
0
SEQEND
8
Layer 1
0
POLYLINE
8
Layer 1
62
7
70
0
10
0.000000
20
0.000000
66
1
0
VERTEX
8
Layer 1
10
17.359005
20
183.337080
70
0
0
VERTEX
8
Layer 1
10
18.741816
20
183.337080
70
0
0
VERTEX
8
Layer 1
10
18.741816
20
181.680840
70
0
0
VERTEX
8
Layer 1
10
18.581660
20
180.887870
70
0
0
VERTEX
8
Layer 1
10
18.116817
20
180.391770
70
0
0
VERTEX
8
Layer 1
10
17.378536
20
180.219900
70
0
0
VERTEX
8
Layer 1
10
16.624631
20
180.380060
70
0
0
VERTEX
8
Layer 1
10
16.151975
20
180.848810
70
0
0
VERTEX
8
Layer 1
10
15.991819
20
181.594900
70
0
0
VERTEX
8
Layer 1
10
15.991819
20
184.559740
70
0
0
VERTEX
8
Layer 1
10
16.151975
20
185.348800
70
0
0
VERTEX
8
Layer 1
10
16.616819
20
185.844890
70
0
0
VERTEX
8
Layer 1
10
17.355099
20
186.016770
70
0
0
VERTEX
8
Layer 1
10
18.077754
20
185.848800
70
0
0
VERTEX
8
Layer 1
10
18.534785
20
185.368330
70
0
0
VERTEX
8
Layer 1
10
18.694941
20
184.602710
70
0
0
VERTEX
8
Layer 1
10
18.694941
20
184.329270
70
0
0
VERTEX
8
Layer 1
10
18.085567
20
184.329270
70
0
0
VERTEX
8
Layer 1
10
18.085567
20
184.602710
70
0
0
VERTEX
8
Layer 1
10
17.894161
20
185.247240
70
0
0
VERTEX
8
Layer 1
10
17.355099
20
185.473800
70
0
0
VERTEX
8
Layer 1
10
16.765256
20
185.235520
70
0
0
VERTEX
8
Layer 1
10
16.554319
20
184.559740
70
0
0
VERTEX
8
Layer 1
10
16.554319
20
181.594900
70
0
0
VERTEX
8
Layer 1
10
16.769162
20
180.981620
70
0
0
VERTEX
8
Layer 1
10
17.378536
20
180.762870
70
0
0
VERTEX
8
Layer 1
10
17.968379
20
180.997240
70
0
0
VERTEX
8
Layer 1
10
18.179317
20
181.665210
70
0
0
VERTEX
8
Layer 1
10
18.179317
20
182.813650
70
0
0
VERTEX
8
Layer 1
10
17.359005
20
182.813650
70
0
0
VERTEX
8
Layer 1
10
17.359005
20
183.337080
70
0
0
SEQEND
8
Layer 1
0
POLYLINE
8
Layer 1
62
7
70
0
10
0.000000
20
0.000000
66
1
0
VERTEX
8
Layer 1
10
19.444940
20
180.278490
70
0
0
VERTEX
8
Layer 1
10
19.444940
20
185.958170
70
0
0
VERTEX
8
Layer 1
10
20.007439
20
185.958170
70
0
0
VERTEX
8
Layer 1
10
20.007439
20
180.278490
70
0
0
VERTEX
8
Layer 1
10
19.444940
20
180.278490
70
0
0
SEQEND
8
Layer 1
0
POLYLINE
8
Layer 1
62
7
70
0
10
0.000000
20
0.000000
66
1
0
VERTEX
8
Layer 1
10
19.831658
20
180.278490
70
0
0
VERTEX
8
Layer 1
10
19.831658
20
180.801930
70
0
0
VERTEX
8
Layer 1
10
21.882437
20
180.801930
70
0
0
VERTEX
8
Layer 1
10
21.882437
20
180.278490
70
0
0
VERTEX
8
Layer 1
10
19.831658
20
180.278490
70
0
0
SEQEND
8
Layer 1
0
POLYLINE
8
Layer 1
62
7
70
0
10
0.000000
20
0.000000
66
1
0
VERTEX
8
Layer 1
10
19.831658
20
182.837080
70
0
0
VERTEX
8
Layer 1
10
19.831658
20
183.360520
70
0
0
VERTEX
8
Layer 1
10
21.687124
20
183.360520
70
0
0
VERTEX
8
Layer 1
10
21.687124
20
182.837080
70
0
0
VERTEX
8
Layer 1
10
19.831658
20
182.837080
70
0
0
SEQEND
8
Layer 1
0
POLYLINE
8
Layer 1
62
7
70
0
10
0.000000
20
0.000000
66
1
0
VERTEX
8
Layer 1
10
19.831658
20
185.434740
70
0
0
VERTEX
8
Layer 1
10
19.831658
20
185.958170
70
0
0
VERTEX
8
Layer 1
10
21.882437
20
185.958170
70
0
0
VERTEX
8
Layer 1
10
21.882437
20
185.434740
70
0
0
VERTEX
8
Layer 1
10
19.831658
20
185.434740
70
0
0
SEQEND
8
Layer 1
0
POLYLINE
8
Layer 1
62
7
70
0
10
0.000000
20
0.000000
66
1
0
VERTEX
8
Layer 1
10
25.421495
20
180.219900
70
0
0
VERTEX
8
Layer 1
10
24.651964
20
180.364430
70
0
0
VERTEX
8
Layer 1
10
24.191027
20
180.809740
70
0
0
VERTEX
8
Layer 1
10
24.038684
20
181.551930
70
0
0
VERTEX
8
Layer 1
10
24.038684
20
181.833180
70
0
0
VERTEX
8
Layer 1
10
24.593371
20
181.833180
70
0
0
VERTEX
8
Layer 1
10
24.593371
20
181.551930
70
0
0
VERTEX
8
Layer 1
10
24.800402
20
180.938650
70
0
0
VERTEX
8
Layer 1
10
25.421495
20
180.735520
70
0
0
VERTEX
8
Layer 1
10
26.026963
20
180.938650
70
0
0
VERTEX
8
Layer 1
10
26.230087
20
181.551930
70
0
0
VERTEX
8
Layer 1
10
26.230087
20
181.887870
70
0
0
VERTEX
8
Layer 1
10
26.093369
20
182.383960
70
0
0
VERTEX
8
Layer 1
10
25.737901
20
182.715990
70
0
0
VERTEX
8
Layer 1
10
25.273057
20
182.977710
70
0
0
VERTEX
8
Layer 1
10
24.831652
20
183.204270
70
0
0
VERTEX
8
Layer 1
10
24.437121
20
183.485520
70
0
0
VERTEX
8
Layer 1
10
24.148059
20
183.872240
70
0
0
VERTEX
8
Layer 1
10
24.042590
20
184.426930
70
0
0
VERTEX
8
Layer 1
10
24.042590
20
184.704270
70
0
0
VERTEX
8
Layer 1
10
24.128527
20
185.280438
70
0
0
VERTEX
8
Layer 1
10
24.386340
20
185.688640
70
0
0
VERTEX
8
Layer 1
10
24.816026
20
185.934737
70
0
0
VERTEX
8
Layer 1
10
25.417588
20
186.016770
70
0
0
VERTEX
8
Layer 1
10
26.004502
20
185.933763
70
0
0
VERTEX
8
Layer 1
10
26.421493
20
185.684740
70
0
0
VERTEX
8
Layer 1
10
26.670516
20
185.269700
70
0
0
VERTEX
8
Layer 1
10
26.753524
20
184.688640
70
0
0
VERTEX
8
Layer 1
10
26.753524
20
184.391770
70
0
0
VERTEX
8
Layer 1
10
26.198837
20
184.391770
70
0
0
VERTEX
8
Layer 1
10
26.198837
20
184.688640
70
0
0
VERTEX
8
Layer 1
10
26.003525
20
185.298020
70
0
0
VERTEX
8
Layer 1
10
25.417588
20
185.501140
70
0
0
VERTEX
8
Layer 1
10
24.800402
20
185.305830
70
0
0
VERTEX
8
Layer 1
10
24.597277
20
184.727710
70
0
0
VERTEX
8
Layer 1
10
24.597277
20
184.450360
70
0
0
VERTEX
8
Layer 1
10
24.757433
20
183.958180
70
0
0
VERTEX
8
Layer 1
10
25.167589
20
183.630050
70
0
0
VERTEX
8
Layer 1
10
25.687119
20
183.364430
70
0
0
VERTEX
8
Layer 1
10
26.089463
20
183.141770
70
0
0
VERTEX
8
Layer 1
10
26.441025
20
182.856620
70
0
0
VERTEX
8
Layer 1
10
26.691024
20
182.462080
70
0
0
VERTEX
8
Layer 1
10
26.784774
20
181.911300
70
0
0
VERTEX
8
Layer 1
10
26.784774
20
181.551930
70
0
0
VERTEX
8
Layer 1
10
26.699813
20
180.967945
70
0
0
VERTEX
8
Layer 1
10
26.444931
20
180.551930
70
0
0
VERTEX
8
Layer 1
10
26.019150
20
180.302907
70
0
0
VERTEX
8
Layer 1
10
25.421495
20
180.219900
70
0
0
VERTEX
8
Layer 1
10
25.421495
20
180.219900
70
0
0
SEQEND
8
Layer 1
0
POLYLINE
8
Layer 1
62
7
70
0
10
0.000000
20
0.000000
66
1
0
VERTEX
8
Layer 1
10
28.620710
20
180.219900
70
0
0
VERTEX
8
Layer 1
10
28.054304
20
180.302908
70
0
0
VERTEX
8
Layer 1
10
27.651961
20
180.551930
70
0
0
VERTEX
8
Layer 1
10
27.411727
20
180.967945
70
0
0
VERTEX
8
Layer 1
10
27.331649
20
181.551930
70
0
0
VERTEX
8
Layer 1
10
27.331649
20
185.958170
70
0
0
VERTEX
8
Layer 1
10
27.894148
20
185.958170
70
0
0
VERTEX
8
Layer 1
10
27.894148
20
181.524590
70
0
0
VERTEX
8
Layer 1
10
28.073835
20
180.958180
70
0
0
VERTEX
8
Layer 1
10
28.620710
20
180.770680
70
0
0
VERTEX
8
Layer 1
10
29.171490
20
180.958180
70
0
0
VERTEX
8
Layer 1
10
29.355084
20
181.524590
70
0
0
VERTEX
8
Layer 1
10
29.355084
20
185.958170
70
0
0
VERTEX
8
Layer 1
10
29.917583
20
185.958170
70
0
0
VERTEX
8
Layer 1
10
29.917583
20
181.551930
70
0
0
VERTEX
8
Layer 1
10
29.836528
20
180.967945
70
0
0
VERTEX
8
Layer 1
10
29.593365
20
180.551930
70
0
0
VERTEX
8
Layer 1
10
29.190045
20
180.302908
70
0
0
VERTEX
8
Layer 1
10
28.620710
20
180.219900
70
0
0
VERTEX
8
Layer 1
10
28.620710
20
180.219900
70
0
0
SEQEND
8
Layer 1
0
POLYLINE
8
Layer 1
62
7
70
0
10
0.000000
20
0.000000
66
1
0
VERTEX
8
Layer 1
10
30.991801
20
182.481620
70
0
0
VERTEX
8
Layer 1
10
30.991801
20
183.005050
70
0
0
VERTEX
8
Layer 1
10
32.202737
20
183.005050
70
0
0
VERTEX
8
Layer 1
10
32.608986
20
183.176930
70
0
0
VERTEX
8
Layer 1
10
32.753517
20
183.657400
70
0
0
VERTEX
8
Layer 1
10
32.753517
20
184.762860
70
0
0
VERTEX
8
Layer 1
10
32.608986
20
185.258960
70
0
0
VERTEX
8
Layer 1
10
32.202737
20
185.434740
70
0
0
VERTEX
8
Layer 1
10
30.991801
20
185.434740
70
0
0
VERTEX
8
Layer 1
10
30.991801
20
185.958170
70
0
0
VERTEX
8
Layer 1
10
32.175393
20
185.958170
70
0
0
VERTEX
8
Layer 1
10
32.792580
20
185.817550
70
0
0
VERTEX
8
Layer 1
10
33.179298
20
185.411300
70
0
0
VERTEX
8
Layer 1
10
33.316017
20
184.762860
70
0
0
VERTEX
8
Layer 1
10
33.316017
20
183.649580
70
0
0
VERTEX
8
Layer 1
10
33.179298
20
183.016770
70
0
0
VERTEX
8
Layer 1
10
32.788673
20
182.618330
70
0
0
VERTEX
8
Layer 1
10
32.175393
20
182.481620
70
0
0
VERTEX
8
Layer 1
10
30.991801
20
182.481620
70
0
0
SEQEND
8
Layer 1
0
POLYLINE
8
Layer 1
62
7
70
0
10
0.000000
20
0.000000
66
1
0
VERTEX
8
Layer 1
10
30.581645
20
180.278490
70
0
0
VERTEX
8
Layer 1
10
30.581645
20
185.958170
70
0
0
VERTEX
8
Layer 1
10
31.144144
20
185.958170
70
0
0
VERTEX
8
Layer 1
10
31.144144
20
180.278490
70
0
0
VERTEX
8
Layer 1
10
30.581645
20
180.278490
70
0
0
SEQEND
8
Layer 1
0
POLYLINE
8
Layer 1
62
7
70
0
10
0.000000
20
0.000000
66
1
0
VERTEX
8
Layer 1
10
34.409766
20
182.481620
70
0
0
VERTEX
8
Layer 1
10
34.409766
20
183.005050
70
0
0
VERTEX
8
Layer 1
10
35.620702
20
183.005050
70
0
0
VERTEX
8
Layer 1
10
36.026951
20
183.176930
70
0
0
VERTEX
8
Layer 1
10
36.171482
20
183.657400
70
0
0
VERTEX
8
Layer 1
10
36.171482
20
184.762860
70
0
0
VERTEX
8
Layer 1
10
36.026951
20
185.258960
70
0
0
VERTEX
8
Layer 1
10
35.620702
20
185.434740
70
0
0
VERTEX
8
Layer 1
10
34.409766
20
185.434740
70
0
0
VERTEX
8
Layer 1
10
34.409766
20
185.958170
70
0
0
VERTEX
8
Layer 1
10
35.593358
20
185.958170
70
0
0
VERTEX
8
Layer 1
10
36.210545
20
185.817550
70
0
0
VERTEX
8
Layer 1
10
36.597263
20
185.411300
70
0
0
VERTEX
8
Layer 1
10
36.733982
20
184.762860
70
0
0
VERTEX
8
Layer 1
10
36.733982
20
183.649580
70
0
0
VERTEX
8
Layer 1
10
36.597263
20
183.016770
70
0
0
VERTEX
8
Layer 1
10
36.206638
20
182.618330
70
0
0
VERTEX
8
Layer 1
10
35.593358
20
182.481620
70
0
0
VERTEX
8
Layer 1
10
34.409766
20
182.481620
70
0
0
SEQEND
8
Layer 1
0
POLYLINE
8
Layer 1
62
7
70
0
10
0.000000
20
0.000000
66
1
0
VERTEX
8
Layer 1
10
33.999610
20
180.278490
70
0
0
VERTEX
8
Layer 1
10
33.999610
20
185.958170
70
0
0
VERTEX
8
Layer 1
10
34.562109
20
185.958170
70
0
0
VERTEX
8
Layer 1
10
34.562109
20
180.278490
70
0
0
VERTEX
8
Layer 1
10
33.999610
20
180.278490
70
0
0
SEQEND
8
Layer 1
0
POLYLINE
8
Layer 1
62
7
70
0
10
0.000000
20
0.000000
66
1
0
VERTEX
8
Layer 1
10
37.765229
20
182.680830
70
0
0
VERTEX
8
Layer 1
10
37.765229
20
183.204270
70
0
0
VERTEX
8
Layer 1
10
38.816009
20
183.204270
70
0
0
VERTEX
8
Layer 1
10
39.409758
20
183.415210
70
0
0
VERTEX
8
Layer 1
10
39.624601
20
184.008960
70
0
0
VERTEX
8
Layer 1
10
39.624601
20
184.594890
70
0
0
VERTEX
8
Layer 1
10
39.409758
20
185.215990
70
0
0
VERTEX
8
Layer 1
10
38.816009
20
185.438640
70
0
0
VERTEX
8
Layer 1
10
37.765229
20
185.438640
70
0
0
VERTEX
8
Layer 1
10
37.765229
20
185.962080
70
0
0
VERTEX
8
Layer 1
10
38.776946
20
185.962080
70
0
0
VERTEX
8
Layer 1
10
39.538664
20
185.809740
70
0
0
VERTEX
8
Layer 1
10
40.019132
20
185.372240
70
0
0
VERTEX
8
Layer 1
10
40.187101
20
184.673020
70
0
0
VERTEX
8
Layer 1
10
40.187101
20
184.008960
70
0
0
VERTEX
8
Layer 1
10
40.019132
20
183.290210
70
0
0
VERTEX
8
Layer 1
10
39.538664
20
182.837080
70
0
0
VERTEX
8
Layer 1
10
38.776946
20
182.680830
70
0
0
VERTEX
8
Layer 1
10
37.765229
20
182.680830
70
0
0
SEQEND
8
Layer 1
0
POLYLINE
8
Layer 1
62
7
70
0
10
0.000000
20
0.000000
66
1
0
VERTEX
8
Layer 1
10
37.417573
20
180.278490
70
0
0
VERTEX
8
Layer 1
10
37.417573
20
185.962080
70
0
0
VERTEX
8
Layer 1
10
37.980072
20
185.962080
70
0
0
VERTEX
8
Layer 1
10
37.980072
20
180.278490
70
0
0
VERTEX
8
Layer 1
10
37.417573
20
180.278490
70
0
0
SEQEND
8
Layer 1
0
POLYLINE
8
Layer 1
62
7
70
0
10
0.000000
20
0.000000
66
1
0
VERTEX
8
Layer 1
10
39.694914
20
180.278490
70
0
0
VERTEX
8
Layer 1
10
38.941009
20
182.856620
70
0
0
VERTEX
8
Layer 1
10
39.441008
20
183.036300
70
0
0
VERTEX
8
Layer 1
10
40.347257
20
180.278490
70
0
0
VERTEX
8
Layer 1
10
39.694914
20
180.278490
70
0
0
SEQEND
8
Layer 1
0
POLYLINE
8
Layer 1
62
7
70
0
10
0.000000
20
0.000000
66
1
0
VERTEX
8
Layer 1
10
41.030852
20
180.278490
70
0
0
VERTEX
8
Layer 1
10
41.030852
20
185.958170
70
0
0
VERTEX
8
Layer 1
10
41.593352
20
185.958170
70
0
0
VERTEX
8
Layer 1
10
41.593352
20
180.278490
70
0
0
VERTEX
8
Layer 1
10
41.030852
20
180.278490
70
0
0
SEQEND
8
Layer 1
0
POLYLINE
8
Layer 1
62
7
70
0
10
0.000000
20
0.000000
66
1
0
VERTEX
8
Layer 1
10
41.417571
20
180.278490
70
0
0
VERTEX
8
Layer 1
10
41.417571
20
180.801930
70
0
0
VERTEX
8
Layer 1
10
43.468349
20
180.801930
70
0
0
VERTEX
8
Layer 1
10
43.468349
20
180.278490
70
0
0
VERTEX
8
Layer 1
10
41.417571
20
180.278490
70
0
0
SEQEND
8
Layer 1
0
POLYLINE
8
Layer 1
62
7
70
0
10
0.000000
20
0.000000
66
1
0
VERTEX
8
Layer 1
10
41.417571
20
182.837080
70
0
0
VERTEX
8
Layer 1
10
41.417571
20
183.360520
70
0
0
VERTEX
8
Layer 1
10
43.273037
20
183.360520
70
0
0
VERTEX
8
Layer 1
10
43.273037
20
182.837080
70
0
0
VERTEX
8
Layer 1
10
41.417571
20
182.837080
70
0
0
SEQEND
8
Layer 1
0
POLYLINE
8
Layer 1
62
7
70
0
10
0.000000
20
0.000000
66
1
0
VERTEX
8
Layer 1
10
41.417571
20
185.434740
70
0
0
VERTEX
8
Layer 1
10
41.417571
20
185.958170
70
0
0
VERTEX
8
Layer 1
10
43.468349
20
185.958170
70
0
0
VERTEX
8
Layer 1
10
43.468349
20
185.434740
70
0
0
VERTEX
8
Layer 1
10
41.417571
20
185.434740
70
0
0
SEQEND
8
Layer 1
0
POLYLINE
8
Layer 1
62
7
70
0
10
0.000000
20
0.000000
66
1
0
VERTEX
8
Layer 1
10
45.398034
20
180.219900
70
0
0
VERTEX
8
Layer 1
10
44.628504
20
180.364430
70
0
0
VERTEX
8
Layer 1
10
44.167567
20
180.809740
70
0
0
VERTEX
8
Layer 1
10
44.015224
20
181.551930
70
0
0
VERTEX
8
Layer 1
10
44.015224
20
181.833180
70
0
0
VERTEX
8
Layer 1
10
44.569910
20
181.833180
70
0
0
VERTEX
8
Layer 1
10
44.569910
20
181.551930
70
0
0
VERTEX
8
Layer 1
10
44.776941
20
180.938650
70
0
0
VERTEX
8
Layer 1
10
45.398034
20
180.735520
70
0
0
VERTEX
8
Layer 1
10
46.003502
20
180.938650
70
0
0
VERTEX
8
Layer 1
10
46.206627
20
181.551930
70
0
0
VERTEX
8
Layer 1
10
46.206627
20
181.887870
70
0
0
VERTEX
8
Layer 1
10
46.069908
20
182.383960
70
0
0
VERTEX
8
Layer 1
10
45.714440
20
182.715990
70
0
0
VERTEX
8
Layer 1
10
45.249597
20
182.977710
70
0
0
VERTEX
8
Layer 1
10
44.808191
20
183.204270
70
0
0
VERTEX
8
Layer 1
10
44.413661
20
183.485520
70
0
0
VERTEX
8
Layer 1
10
44.124598
20
183.872240
70
0
0
VERTEX
8
Layer 1
10
44.019130
20
184.426930
70
0
0
VERTEX
8
Layer 1
10
44.019130
20
184.704270
70
0
0
VERTEX
8
Layer 1
10
44.105067
20
185.280438
70
0
0
VERTEX
8
Layer 1
10
44.362879
20
185.688640
70
0
0
VERTEX
8
Layer 1
10
44.792566
20
185.934737
70
0
0
VERTEX
8
Layer 1
10
45.394128
20
186.016770
70
0
0
VERTEX
8
Layer 1
10
45.981041
20
185.933763
70
0
0
VERTEX
8
Layer 1
10
46.398033
20
185.684740
70
0
0
VERTEX
8
Layer 1
10
46.647056
20
185.269700
70
0
0
VERTEX
8
Layer 1
10
46.730064
20
184.688640
70
0
0
VERTEX
8
Layer 1
10
46.730064
20
184.391770
70
0
0
VERTEX
8
Layer 1
10
46.175377
20
184.391770
70
0
0
VERTEX
8
Layer 1
10
46.175377
20
184.688640
70
0
0
VERTEX
8
Layer 1
10
45.980065
20
185.298020
70
0
0
VERTEX
8
Layer 1
10
45.394128
20
185.501140
70
0
0
VERTEX
8
Layer 1
10
44.776941
20
185.305830
70
0
0
VERTEX
8
Layer 1
10
44.573817
20
184.727710
70
0
0
VERTEX
8
Layer 1
10
44.573817
20
184.450360
70
0
0
VERTEX
8
Layer 1
10
44.733973
20
183.958180
70
0
0
VERTEX
8
Layer 1
10
45.144128
20
183.630050
70
0
0
VERTEX
8
Layer 1
10
45.663659
20
183.364430
70
0
0
VERTEX
8
Layer 1
10
46.066002
20
183.141770
70
0
0
VERTEX
8
Layer 1
10
46.417564
20
182.856620
70
0
0
VERTEX
8
Layer 1
10
46.667564
20
182.462080
70
0
0
VERTEX
8
Layer 1
10
46.761314
20
181.911300
70
0
0
VERTEX
8
Layer 1
10
46.761314
20
181.551930
70
0
0
VERTEX
8
Layer 1
10
46.676353
20
180.967945
70
0
0
VERTEX
8
Layer 1
10
46.421471
20
180.551930
70
0
0
VERTEX
8
Layer 1
10
45.995690
20
180.302907
70
0
0
VERTEX
8
Layer 1
10
45.398034
20
180.219900
70
0
0
VERTEX
8
Layer 1
10
45.398034
20
180.219900
70
0
0
SEQEND
8
Layer 1
0
POLYLINE
8
Layer 1
62
7
70
0
10
0.000000
20
0.000000
66
1
0
VERTEX
8
Layer 1
10
48.690995
20
180.219900
70
0
0
VERTEX
8
Layer 1
10
47.921465
20
180.364430
70
0
0
VERTEX
8
Layer 1
10
47.460528
20
180.809740
70
0
0
VERTEX
8
Layer 1
10
47.308185
20
181.551930
70
0
0
VERTEX
8
Layer 1
10
47.308185
20
181.833180
70
0
0
VERTEX
8
Layer 1
10
47.862871
20
181.833180
70
0
0
VERTEX
8
Layer 1
10
47.862871
20
181.551930
70
0
0
VERTEX
8
Layer 1
10
48.069902
20
180.938650
70
0
0
VERTEX
8
Layer 1
10
48.690995
20
180.735520
70
0
0
VERTEX
8
Layer 1
10
49.296463
20
180.938650
70
0
0
VERTEX
8
Layer 1
10
49.499588
20
181.551930
70
0
0
VERTEX
8
Layer 1
10
49.499588
20
181.887870
70
0
0
VERTEX
8
Layer 1
10
49.362870
20
182.383960
70
0
0
VERTEX
8
Layer 1
10
49.007401
20
182.715990
70
0
0
VERTEX
8
Layer 1
10
48.542558
20
182.977710
70
0
0
VERTEX
8
Layer 1
10
48.101152
20
183.204270
70
0
0
VERTEX
8
Layer 1
10
47.706622
20
183.485520
70
0
0
VERTEX
8
Layer 1
10
47.417560
20
183.872240
70
0
0
VERTEX
8
Layer 1
10
47.312091
20
184.426930
70
0
0
VERTEX
8
Layer 1
10
47.312091
20
184.704270
70
0
0
VERTEX
8
Layer 1
10
47.398028
20
185.280438
70
0
0
VERTEX
8
Layer 1
10
47.655840
20
185.688640
70
0
0
VERTEX
8
Layer 1
10
48.085527
20
185.934737
70
0
0
VERTEX
8
Layer 1
10
48.687089
20
186.016770
70
0
0
VERTEX
8
Layer 1
10
49.274002
20
185.933763
70
0
0
VERTEX
8
Layer 1
10
49.690994
20
185.684740
70
0
0
VERTEX
8
Layer 1
10
49.940017
20
185.269700
70
0
0
VERTEX
8
Layer 1
10
50.023025
20
184.688640
70
0
0
VERTEX
8
Layer 1
10
50.023025
20
184.391770
70
0
0
VERTEX
8
Layer 1
10
49.468338
20
184.391770
70
0
0
VERTEX
8
Layer 1
10
49.468338
20
184.688640
70
0
0
VERTEX
8
Layer 1
10
49.273026
20
185.298020
70
0
0
VERTEX
8
Layer 1
10
48.687089
20
185.501140
70
0
0
VERTEX
8
Layer 1
10
48.069902
20
185.305830
70
0
0
VERTEX
8
Layer 1
10
47.866778
20
184.727710
70
0
0
VERTEX
8
Layer 1
10
47.866778
20
184.450360
70
0
0
VERTEX
8
Layer 1
10
48.026934
20
183.958180
70
0
0
VERTEX
8
Layer 1
10
48.437089
20
183.630050
70
0
0
VERTEX
8
Layer 1
10
48.956620
20
183.364430
70
0
0
VERTEX
8
Layer 1
10
49.358963
20
183.141770
70
0
0
VERTEX
8
Layer 1
10
49.710525
20
182.856620
70
0
0
VERTEX
8
Layer 1
10
49.960525
20
182.462080
70
0
0
VERTEX
8
Layer 1
10
50.054275
20
181.911300
70
0
0
VERTEX
8
Layer 1
10
50.054275
20
181.551930
70
0
0
VERTEX
8
Layer 1
10
49.969314
20
180.967945
70
0
0
VERTEX
8
Layer 1
10
49.714432
20
180.551930
70
0
0
VERTEX
8
Layer 1
10
49.288651
20
180.302907
70
0
0
VERTEX
8
Layer 1
10
48.690995
20
180.219900
70
0
0
VERTEX
8
Layer 1
10
48.690995
20
180.219900
70
0
0
SEQEND
8
Layer 1
0
POLYLINE
8
Layer 1
62
7
70
0
10
0.000000
20
0.000000
66
1
0
VERTEX
8
Layer 1
10
52.050367
20
180.219900
70
0
0
VERTEX
8
Layer 1
10
51.288649
20
180.387870
70
0
0
VERTEX
8
Layer 1
10
50.804274
20
180.872240
70
0
0
VERTEX
8
Layer 1
10
50.640212
20
181.649590
70
0
0
VERTEX
8
Layer 1
10
50.640212
20
184.587080
70
0
0
VERTEX
8
Layer 1
10
50.804274
20
185.360520
70
0
0
VERTEX
8
Layer 1
10
51.288649
20
185.848800
70
0
0
VERTEX
8
Layer 1
10
52.050367
20
186.016770
70
0
0
VERTEX
8
Layer 1
10
52.812084
20
185.848800
70
0
0
VERTEX
8
Layer 1
10
53.292552
20
185.360520
70
0
0
VERTEX
8
Layer 1
10
53.460521
20
184.587080
70
0
0
VERTEX
8
Layer 1
10
53.460521
20
181.649590
70
0
0
VERTEX
8
Layer 1
10
53.292552
20
180.872240
70
0
0
VERTEX
8
Layer 1
10
52.812084
20
180.387870
70
0
0
VERTEX
8
Layer 1
10
52.050367
20
180.219900
70
0
0
VERTEX
8
Layer 1
10
52.050367
20
180.219900
70
0
0
SEQEND
8
Layer 1
0
POLYLINE
8
Layer 1
62
7
70
0
10
0.000000
20
0.000000
66
1
0
VERTEX
8
Layer 1
10
52.050367
20
180.770680
70
0
0
VERTEX
8
Layer 1
10
52.675366
20
180.993340
70
0
0
VERTEX
8
Layer 1
10
52.898022
20
181.622240
70
0
0
VERTEX
8
Layer 1
10
52.898022
20
184.614430
70
0
0
VERTEX
8
Layer 1
10
52.675366
20
185.243330
70
0
0
VERTEX
8
Layer 1
10
52.050367
20
185.465990
70
0
0
VERTEX
8
Layer 1
10
51.425367
20
185.243330
70
0
0
VERTEX
8
Layer 1
10
51.202711
20
184.614430
70
0
0
VERTEX
8
Layer 1
10
51.202711
20
181.622240
70
0
0
VERTEX
8
Layer 1
10
51.425367
20
180.993340
70
0
0
VERTEX
8
Layer 1
10
52.050367
20
180.770680
70
0
0
VERTEX
8
Layer 1
10
52.050367
20
180.770680
70
0
0
SEQEND
8
Layer 1
0
POLYLINE
8
Layer 1
62
7
70
0
10
0.000000
20
0.000000
66
1
0
VERTEX
8
Layer 1
10
54.511302
20
182.680830
70
0
0
VERTEX
8
Layer 1
10
54.511302
20
183.204270
70
0
0
VERTEX
8
Layer 1
10
55.562081
20
183.204270
70
0
0
VERTEX
8
Layer 1
10
56.155831
20
183.415210
70
0
0
VERTEX
8
Layer 1
10
56.370674
20
184.008960
70
0
0
VERTEX
8
Layer 1
10
56.370674
20
184.594890
70
0
0
VERTEX
8
Layer 1
10
56.155831
20
185.215990
70
0
0
VERTEX
8
Layer 1
10
55.562081
20
185.438640
70
0
0
VERTEX
8
Layer 1
10
54.511302
20
185.438640
70
0
0
VERTEX
8
Layer 1
10
54.511302
20
185.962080
70
0
0
VERTEX
8
Layer 1
10
55.523019
20
185.962080
70
0
0
VERTEX
8
Layer 1
10
56.284737
20
185.809740
70
0
0
VERTEX
8
Layer 1
10
56.765205
20
185.372240
70
0
0
VERTEX
8
Layer 1
10
56.933174
20
184.673020
70
0
0
VERTEX
8
Layer 1
10
56.933174
20
184.008960
70
0
0
VERTEX
8
Layer 1
10
56.765205
20
183.290210
70
0
0
VERTEX
8
Layer 1
10
56.284737
20
182.837080
70
0
0
VERTEX
8
Layer 1
10
55.523019
20
182.680830
70
0
0
VERTEX
8
Layer 1
10
54.511302
20
182.680830
70
0
0
SEQEND
8
Layer 1
0
POLYLINE
8
Layer 1
62
7
70
0
10
0.000000
20
0.000000
66
1
0
VERTEX
8
Layer 1
10
54.163646
20
180.278490
70
0
0
VERTEX
8
Layer 1
10
54.163646
20
185.962080
70
0
0
VERTEX
8
Layer 1
10
54.726145
20
185.962080
70
0
0
VERTEX
8
Layer 1
10
54.726145
20
180.278490
70
0
0
VERTEX
8
Layer 1
10
54.163646
20
180.278490
70
0
0
SEQEND
8
Layer 1
0
POLYLINE
8
Layer 1
62
7
70
0
10
0.000000
20
0.000000
66
1
0
VERTEX
8
Layer 1
10
56.440987
20
180.278490
70
0
0
VERTEX
8
Layer 1
10
55.687081
20
182.856620
70
0
0
VERTEX
8
Layer 1
10
56.187081
20
183.036300
70
0
0
VERTEX
8
Layer 1
10
57.093330
20
180.278490
70
0
0
VERTEX
8
Layer 1
10
56.440987
20
180.278490
70
0
0
SEQEND
8
Layer 1
 0 
ENDSEC
 0 
EOF