<svg xmlns="http://www.w3.org/2000/svg" width="100.00000009237361mm" height="109.9404579911063mm" viewBox="0 0 100.00000009237361 109.9404579911063">
<path d="M 9.23733487923073e-08 51.276310167476105 L 9.23733487923073e-08 64.3587968341428 L 9.23733487923073e-08 64.35879676887627 L 9.23733487923073e-08 51.27631010220961Z" fill="#3E5B05" />
<path d="M 100.00000009237326 46.89631005863191 L 100.00000009237361 109.94045792583775 L 100.00000009237361 109.94045799110428 L 100.00000009237326 46.896310123898395Z" fill="#3E5B05" />
<path d="M 9.23733487923073e-08 109.94045799110629 L 22.221962703975287 109.94045799110444 L 22.221962703975287 109.94045792583793 L 9.23733487923073e-08 109.94045792583978Z" fill="#3E5B05" />
<path d="M 100.00000009237326 46.896310123898395 L 100.00000009237361 109.94045799110428 L 73.14929826510313 109.94045799110155 L 73.14929826510998 88.11775131285064 L 80.88610993730408 88.11775131285522 L 80.88610993729687 63.044147432399626 L 73.18423064974591 63.04414736713031 L 73.18423056317339 58.66414718649816 L 60.78558301850232 58.66414718649816 L 60.78558310507511 63.04414736713031 L 48.38693556039656 63.04414736713227 L 48.38693558551032 58.66414738305062 L 35.30444915729166 58.66414723302675 L 35.30444913217789 63.04414721710841 L 22.221962703969332 63.04414743239929 L 22.221962703974295 78.67625128535497 L 17.841962053876586 78.67625128535451 L 17.841962053879385 94.30835463823612 L 22.221962703983046 94.3083546382331 L 22.221962703975287 109.94045799110444 L 9.23733487923073e-08 109.94045799110629 L 0.0 102.23857879598852 L 4.380000650099422 102.23857879598852 L 4.380000650099422 89.83993125130995 L 0.0 89.83993125130995 L 9.23733487923073e-08 77.4412835008094 L 4.380000742472771 77.4412835008094 L 4.380000742472771 64.3587968341428 L 9.23733487923073e-08 64.3587968341428 L 9.23733487923073e-08 51.276310167476105 L 16.666666759040016 51.27631016747608 L 16.666666759040016 46.89631016747608 L 33.333333425706684 46.89631016747608 L 33.333333425706684 51.27631016747602 L 50.00000009237335 51.27631016747604 L 50.00000009237335 46.89631016747611 L 66.66666675904001 46.89631016747611 L 66.66666675904001 51.27631016747604 L 83.33333342570658 51.276310123898355 L 83.33333342570658 46.896310123898395Z" fill="#3E5B05" />
<path d="M 100.00000009237326 46.896310123898395 L 83.33333342570658 46.896310123898395 L 83.33333342570658 46.89631005863191 L 100.00000009237326 46.89631005863191Z" fill="#3E5B05" />
<path d="M 66.66666675904001 46.896310102209604 L 66.66666675904001 46.89631016747611 L 50.00000009237335 46.89631016747611 L 50.00000009237335 46.896310102209604Z" fill="#3E5B05" />
<path d="M 33.333333425706684 46.89631016747608 L 16.666666759040016 46.89631016747608 L 16.666666759040016 46.896310102209576 L 33.333333425706684 46.896310102209604Z" fill="#3E5B05" />
<path d="M 9.23733487923073e-08 51.27631010220961 L 16.666666759040016 51.27631010220961 L 16.666666759040016 51.27631016747608 L 9.23733487923073e-08 51.276310167476105Z" fill="#3E5B05" />
<path d="M 16.666666759040016 46.896310102209576 L 16.666666759040016 46.89631016747608 L 16.666666759040016 51.27631016747608 L 16.666666759040016 51.27631010220961Z" fill="#3E5B05" />
<path d="M 50.00000009237335 51.27631016747604 L 33.333333425706684 51.27631016747602 L 33.333333425706684 51.276310102209564 L 50.00000009237335 51.276310102209564Z" fill="#3E5B05" />
<path d="M 33.333333425706684 46.89631016747608 L 33.333333425706684 46.896310102209604 L 33.333333425706684 51.276310102209564 L 33.333333425706684 51.27631016747602Z" fill="#3E5B05" />
<path d="M 50.00000009237335 46.896310102209604 L 50.00000009237335 46.89631016747611 L 50.00000009237335 51.27631016747604 L 50.00000009237335 51.276310102209564Z" fill="#3E5B05" />
<path d="M 83.33333342570658 51.27631005863185 L 83.33333342570658 51.276310123898355 L 66.66666675904001 51.27631016747604 L 66.66666675904001 51.276310102209564Z" fill="#3E5B05" />
<path d="M 83.33333342570658 46.89631005863191 L 83.33333342570658 46.896310123898395 L 83.33333342570658 51.276310123898355 L 83.33333342570658 51.27631005863185Z" fill="#3E5B05" />
<path d="M 66.66666675904001 46.89631016747611 L 66.66666675904001 46.896310102209604 L 66.66666675904001 51.276310102209564 L 66.66666675904001 51.27631016747604Z" fill="#3E5B05" />
<path d="M 4.380000742472771 64.3587968341428 L 4.380000742472771 77.4412835008094 L 4.380000742472771 77.44128343554291 L 4.380000742472771 64.35879676887627Z" fill="#3E5B05" />
<path d="M 9.23733487923073e-08 64.35879676887627 L 9.23733487923073e-08 64.3587968341428 L 4.380000742472771 64.3587968341428 L 4.380000742472771 64.35879676887627Z" fill="#3E5B05" />
<path d="M 9.23733487923073e-08 77.4412835008094 L 0.0 89.83993125130995 L 9.237831193331658e-08 89.83993121867688 L 9.23733487923073e-08 77.44128343554291Z" fill="#3E5B05" />
<path d="M 9.23733487923073e-08 77.4412835008094 L 9.23733487923073e-08 77.44128343554291 L 4.380000742472771 77.44128343554291 L 4.380000742472771 77.4412835008094Z" fill="#3E5B05" />
<path d="M 9.23733487923073e-08 109.94045792583978 L 22.221962703975287 109.94045792583793 L 22.221962703975557 94.30835457296656 L 17.841962053871896 94.30835457296959 L 17.841962053871622 78.67625122008815 L 22.221962703969332 78.67625122008859 L 22.221962703969332 63.044147367132766 L 35.30444913217789 63.04414721710947 L 35.30444915729166 58.66414723302781 L 48.38693558551032 58.66414723302781 L 48.38693556039656 63.04414721710947 L 60.78558310507511 63.044147367131366 L 60.78558301850232 58.66414718649922 L 73.18423056317339 58.66414669636911 L 73.18423064974591 63.04414687700125 L 80.88610993729651 63.04414736713311 L 80.88610993730408 88.11775124758879 L 73.14929826510998 88.11775124758421 L 73.14929826510276 109.94045792583505 L 100.00000009237361 109.94045792583775 L 100.00000009237326 46.89631005863191 L 83.33333342570658 46.89631005863191 L 83.33333342570658 51.27631005863185 L 66.66666675904001 51.276310102209564 L 66.66666675904001 46.896310102209604 L 50.00000009237335 46.896310102209604 L 50.00000009237335 51.276310102209564 L 33.333333425706684 51.276310102209564 L 33.333333425706684 46.896310102209604 L 16.666666759040016 46.896310102209576 L 16.666666759040016 51.27631010220961 L 9.23733487923073e-08 51.27631010220961 L 9.23733487923073e-08 64.35879676887627 L 4.380000742472771 64.35879676887627 L 4.380000742472771 77.44128343554291 L 9.23733487923073e-08 77.44128343554291 L 9.237831193331658e-08 89.83993121867688 L 4.380000742477734 89.83993121867698 L 4.380000742477734 102.23857876335553 L 9.237831193331658e-08 102.23857876335553Z" fill="#3E5B05" />
<path d="M 9.237831193331658e-08 102.23857876335553 L 4.380000742477734 102.23857876335553 L 4.380000650099422 102.23857879598852 L 0.0 102.23857879598852Z" fill="#3E5B05" />
<path d="M 4.380000742477734 102.23857876335553 L 4.380000742477734 89.83993121867698 L 4.380000650099422 89.83993125130995 L 4.380000650099422 102.23857879598852Z" fill="#3E5B05" />
<path d="M 4.380000742477734 89.83993121867698 L 9.237831193331658e-08 89.83993121867688 L 0.0 89.83993125130995 L 4.380000650099422 89.83993125130995Z" fill="#3E5B05" />
<path d="M 9.237831193331658e-08 102.23857876335553 L 0.0 102.23857879598852 L 9.23733487923073e-08 109.94045799110629 L 9.23733487923073e-08 109.94045792583978Z" fill="#3E5B05" />
<path d="M 17.841962053871622 78.67625122008815 L 17.841962053871896 94.30835457296959 L 17.841962053879385 94.30835463823612 L 17.841962053876586 78.67625128535451Z" fill="#3E5B05" />
<path d="M 22.221962703969332 63.044147367132766 L 22.221962703969332 78.67625122008859 L 22.221962703974295 78.67625128535497 L 22.221962703969332 63.04414743239929Z" fill="#3E5B05" />
<path d="M 17.841962053871622 78.67625122008815 L 17.841962053876586 78.67625128535451 L 22.221962703974295 78.67625128535497 L 22.221962703969332 78.67625122008859Z" fill="#3E5B05" />
<path d="M 22.221962703975287 109.94045799110444 L 22.221962703983046 94.3083546382331 L 22.221962703975557 94.30835457296656 L 22.221962703975287 109.94045792583793Z" fill="#3E5B05" />
<path d="M 17.841962053879385 94.30835463823612 L 17.841962053871896 94.30835457296959 L 22.221962703975557 94.30835457296656 L 22.221962703983046 94.3083546382331Z" fill="#3E5B05" />
<path d="M 22.221962703969332 63.04414743239929 L 35.30444913217789 63.04414721710841 L 35.30444913217789 63.04414721710947 L 22.221962703969332 63.044147367132766Z" fill="#3E5B05" />
<path d="M 100.00000009237361 109.94045792583775 L 73.14929826510276 109.94045792583505 L 73.14929826510313 109.94045799110155 L 100.00000009237361 109.94045799110428Z" fill="#3E5B05" />
<path d="M 73.14929826510276 109.94045792583505 L 73.14929826510998 88.11775124758421 L 73.14929826510998 88.11775131285064 L 73.14929826510313 109.94045799110155Z" fill="#3E5B05" />
<path d="M 80.88610993729687 63.044147432399626 L 80.88610993730408 88.11775131285522 L 80.88610993730408 88.11775124758879 L 80.88610993729651 63.04414736713311Z" fill="#3E5B05" />
<path d="M 73.14929826510998 88.11775131285064 L 73.14929826510998 88.11775124758421 L 80.88610993730408 88.11775124758879 L 80.88610993730408 88.11775131285522Z" fill="#3E5B05" />
<path d="M 48.38693556039656 63.04414736713227 L 60.78558310507511 63.04414736713031 L 60.78558310507511 63.044147367131366 L 48.38693556039656 63.04414721710947Z" fill="#3E5B05" />
<path d="M 80.88610993729651 63.04414736713311 L 73.18423064974591 63.04414687700125 L 73.18423064974591 63.04414736713031 L 80.88610993729687 63.044147432399626Z" fill="#3E5B05" />
<path d="M 60.78558301850232 58.66414718649816 L 73.18423056317339 58.66414718649816 L 73.18423056317339 58.66414669636911 L 60.78558301850232 58.66414718649922Z" fill="#3E5B05" />
<path d="M 73.18423064974591 63.04414736713031 L 73.18423064974591 63.04414687700125 L 73.18423056317339 58.66414669636911 L 73.18423056317339 58.66414718649816Z" fill="#3E5B05" />
<path d="M 60.78558310507511 63.044147367131366 L 60.78558310507511 63.04414736713031 L 60.78558301850232 58.66414718649816 L 60.78558301850232 58.66414718649922Z" fill="#3E5B05" />
<path d="M 35.30444915729166 58.66414723302675 L 48.38693558551032 58.66414738305062 L 48.38693558551032 58.66414723302781 L 35.30444915729166 58.66414723302781Z" fill="#3E5B05" />
<path d="M 48.38693556039656 63.04414736713227 L 48.38693556039656 63.04414721710947 L 48.38693558551032 58.66414723302781 L 48.38693558551032 58.66414738305062Z" fill="#3E5B05" />
<path d="M 35.30444913217789 63.04414721710947 L 35.30444913217789 63.04414721710841 L 35.30444915729166 58.66414723302675 L 35.30444915729166 58.66414723302781Z" fill="#3E5B05" />
<path d="M 22.22196270398145 109.94045792584201 L 73.14929826511019 109.9404579258341 L 73.14929826510273 109.94045792583505 L 22.22196270397408 109.94045792584305Z" fill="#3E5B05" />
<path d="M 80.8861099373117 88.11775124758485 L 80.88610993730741 63.04414687699903 L 80.88610993729993 63.04414687700001 L 80.88610993730406 88.1177512475858Z" fill="#3E5B05" />
<path d="M 22.221962703976633 78.67625122008741 L 22.221962703974175 63.04414721711046 L 35.304449132185354 63.04414721710841 L 35.30444913218467 58.66414721710863 L 48.38693556039585 58.664147217106574 L 48.38693556039654 63.04414736713227 L 60.78558310507509 63.04414736713032 L 60.7855831050744 58.66414694143408 L 73.18423064975286 58.664146941432136 L 73.18423064975337 63.04414687700024 L 80.88610993730741 63.04414687699903 L 80.8861099373117 88.11775124758485 L 73.14929826510676 88.11775124758607 L 73.14929826511019 109.9404579258341 L 22.22196270398145 109.94045792584201 L 22.221962703979177 94.30835457296472 L 17.841962053879755 94.3083545729654 L 17.841962053877214 78.67625122008809Z" fill="#3E5B05" />
<path d="M 17.841962053877214 78.67625122008809 L 17.841962053879755 94.3083545729654 L 17.84196205387229 94.30835457296641 L 17.841962053869835 78.67625122008913Z" fill="#3E5B05" />
<path d="M 22.221962703974175 63.04414721711046 L 22.221962703976633 78.67625122008741 L 22.221962703969258 78.67625122008845 L 22.221962703966803 63.0441472171115Z" fill="#3E5B05" />
<path d="M 17.841962053877214 78.67625122008809 L 17.841962053869835 78.67625122008913 L 22.221962703969258 78.67625122008845 L 22.221962703976633 78.67625122008741Z" fill="#3E5B05" />
<path d="M 22.22196270397408 109.94045792584305 L 22.221962703971712 94.30835457296571 L 22.221962703979177 94.30835457296472 L 22.22196270398145 109.94045792584201Z" fill="#3E5B05" />
<path d="M 17.84196205387229 94.30835457296641 L 17.841962053879755 94.3083545729654 L 22.221962703979177 94.30835457296472 L 22.221962703971712 94.30835457296571Z" fill="#3E5B05" />
<path d="M 48.38693556039585 58.664147217106574 L 35.30444913218467 58.66414721710863 L 35.3044491321773 58.66414721710962 L 48.38693556038847 58.66414721710753Z" fill="#3E5B05" />
<path d="M 48.38693556039585 58.664147217106574 L 48.38693556038847 58.66414721710753 L 48.38693556038907 63.044147367133185 L 48.38693556039654 63.04414736713227Z" fill="#3E5B05" />
<path d="M 22.221962703966803 63.0441472171115 L 35.30444913217789 63.04414721710945 L 35.304449132185354 63.04414721710841 L 22.221962703974175 63.04414721711046Z" fill="#3E5B05" />
<path d="M 35.3044491321773 58.66414721710962 L 35.30444913218467 58.66414721710863 L 35.304449132185354 63.04414721710841 L 35.30444913217789 63.04414721710945Z" fill="#3E5B05" />
<path d="M 22.22196270397408 109.94045792584305 L 73.14929826510273 109.94045792583505 L 73.1492982650993 88.11775124758701 L 80.88610993730406 88.1177512475858 L 80.88610993729993 63.04414687700001 L 73.18423064974591 63.04414687700123 L 73.18423064974522 58.664146941433174 L 60.785583105067026 58.66414694143511 L 60.78558310506762 63.04414736713126 L 48.38693556038907 63.044147367133185 L 48.38693556038847 58.66414721710753 L 35.3044491321773 58.66414721710962 L 35.30444913217789 63.04414721710945 L 22.221962703966803 63.0441472171115 L 22.221962703969258 78.67625122008845 L 17.841962053869835 78.67625122008913 L 17.84196205387229 94.30835457296641 L 22.221962703971712 94.30835457296571Z" fill="#3E5B05" />
<path d="M 80.88610993730406 88.1177512475858 L 73.1492982650993 88.11775124758701 L 73.14929826510676 88.11775124758607 L 80.8861099373117 88.11775124758485Z" fill="#3E5B05" />
<path d="M 73.1492982650993 88.11775124758701 L 73.14929826510273 109.94045792583505 L 73.14929826511019 109.9404579258341 L 73.14929826510676 88.11775124758607Z" fill="#3E5B05" />
<path d="M 73.18423064975286 58.664146941432136 L 60.7855831050744 58.66414694143408 L 60.785583105067026 58.66414694143511 L 73.18423064974522 58.664146941433174Z" fill="#3E5B05" />
<path d="M 80.88610993730741 63.04414687699903 L 73.18423064975337 63.04414687700024 L 73.18423064974591 63.04414687700123 L 80.88610993729993 63.04414687700001Z" fill="#3E5B05" />
<path d="M 73.18423064975286 58.664146941432136 L 73.18423064974522 58.664146941433174 L 73.18423064974591 63.04414687700123 L 73.18423064975337 63.04414687700024Z" fill="#3E5B05" />
<path d="M 48.38693556038907 63.044147367133185 L 60.78558310506762 63.04414736713126 L 60.78558310507509 63.04414736713032 L 48.38693556039654 63.04414736713227Z" fill="#3E5B05" />
<path d="M 60.785583105067026 58.66414694143511 L 60.7855831050744 58.66414694143408 L 60.78558310507509 63.04414736713032 L 60.78558310506762 63.04414736713126Z" fill="#3E5B05" />
<path d="M 100.00000009237326 0.0 L 100.00000009237326 46.89631005863191 L 83.33333342570658 46.89631005863191 L 83.33333342570658 51.276310058631786 L 66.66666675903993 51.276310058631765 L 66.66666675903993 46.89631005863194 L 50.000000092373256 46.89631005863187 L 50.000000092373256 51.276310058631786 L 33.33333342570659 51.27631007664027 L 33.33333342570659 46.89631005863194 L 16.666666759039924 46.89631005863187 L 16.666666759039924 51.276310058631786 L 9.237325855337984e-08 51.276310058631715 L 9.237325855337984e-08 31.26420670575461 L 4.380000092373219 31.26420670575461 L 4.380000092373219 15.632103352877305 L 9.237325855337984e-08 15.632103352877305 L 9.237325855337984e-08 0.0ZM 22.050000092373388 11.513155029315902 L 11.950000092373338 11.513155029315902 L 11.950000092373338 39.76315502931588 L 22.050000092373388 39.76315502931588ZM 44.050000092373345 11.513155029315902 L 33.9500000923733 11.513155029315902 L 33.9500000923733 39.76315502931588 L 44.050000092373345 39.76315502931588ZM 55.95000009237326 11.513155029315902 L 55.95000009237326 39.76315502931588 L 66.05000009237331 39.76315502931588 L 66.05000009237331 11.513155029315902ZM 88.05000009237327 11.513155029315902 L 77.9500000923734 11.513155029315902 L 77.9500000923734 39.76315502931588 L 88.05000009237327 39.76315502931588Z" fill="#3E5B05" />
<path d="M 66.66666675903993 51.276310058631765 L 83.33333342570658 51.276310058631786 L 83.33333342570658 46.89631005863191 L 100.00000009237326 46.89631005863191 L 100.00000009237326 0.0 L 9.237325855337984e-08 0.0 L 9.237325855337984e-08 15.632103352877305 L 4.380000092373219 15.632103352877305 L 4.380000092373219 31.26420670575461 L 9.237325855337984e-08 31.26420670575461 L 9.237325855337984e-08 51.276310058631715 L 16.666666759039924 51.276310058631786 L 16.666666759039924 46.89631005863187 L 33.33333342570659 46.89631005863194 L 33.33333342570659 51.27631007664027 L 50.000000092373256 51.276310058631786 L 50.000000092373256 46.89631005863187 L 66.66666675903993 46.89631005863194ZM 11.950000092373338 11.513155029315902 L 22.050000092373388 11.513155029315902 L 22.050000092373388 39.76315502931588 L 11.950000092373338 39.76315502931588ZM 33.9500000923733 11.513155029315902 L 44.050000092373345 11.513155029315902 L 44.050000092373345 39.76315502931588 L 33.9500000923733 39.76315502931588ZM 55.95000009237326 39.76315502931588 L 55.95000009237326 11.513155029315902 L 66.05000009237331 11.513155029315902 L 66.05000009237331 39.76315502931588ZM 77.9500000923734 11.513155029315902 L 88.05000009237327 11.513155029315902 L 88.05000009237327 39.76315502931588 L 77.9500000923734 39.76315502931588Z" fill="#3E5B05" />
<path d="M 100.00000009237326 46.89631005863191 L 100.00000009237326 0.0 L 100.00000009237326 0.0 L 100.00000009237326 46.89631005863191Z" fill="#3E5B05" />
<path d="M 9.237325855337984e-08 51.276310058631715 L 16.666666759039924 51.276310058631786 L 16.666666759039924 51.276310058631786 L 9.237325855337984e-08 51.276310058631715Z" fill="#3E5B05" />
<path d="M 100.00000009237326 0.0 L 9.237325855337984e-08 0.0 L 9.237325855337984e-08 0.0 L 100.00000009237326 0.0Z" fill="#3E5B05" />
<path d="M 9.237325855337984e-08 0.0 L 9.237325855337984e-08 15.632103352877305 L 9.237325855337984e-08 15.632103352877305 L 9.237325855337984e-08 0.0Z" fill="#3E5B05" />
<path d="M 9.237325855337984e-08 51.276310058631715 L 9.237325855337984e-08 31.26420670575461 L 9.237325855337984e-08 31.26420670575461 L 9.237325855337984e-08 51.276310058631715Z" fill="#3E5B05" />
<path d="M 4.380000092373219 31.26420670575461 L 4.380000092373219 15.632103352877305 L 4.380000092373219 15.632103352877305 L 4.380000092373219 31.26420670575461Z" fill="#3E5B05" />
<path d="M 9.237325855337984e-08 15.632103352877305 L 9.237325855337984e-08 15.632103352877305 L 4.380000092373219 15.632103352877305 L 4.380000092373219 15.632103352877305Z" fill="#3E5B05" />
<path d="M 9.237325855337984e-08 31.26420670575461 L 9.237325855337984e-08 31.26420670575461 L 4.380000092373219 31.26420670575461 L 4.380000092373219 31.26420670575461Z" fill="#3E5B05" />
<path d="M 33.33333342570659 46.89631005863194 L 16.666666759039924 46.89631005863187 L 16.666666759039924 46.89631005863187 L 33.33333342570659 46.89631005863194Z" fill="#3E5B05" />
<path d="M 16.666666759039924 51.276310058631786 L 16.666666759039924 51.276310058631786 L 16.666666759039924 46.89631005863187 L 16.666666759039924 46.89631005863187Z" fill="#3E5B05" />
<path d="M 50.000000092373256 51.276310058631786 L 33.33333342570659 51.27631007664027 L 33.33333342570659 51.27631007664027 L 50.000000092373256 51.276310058631786Z" fill="#3E5B05" />
<path d="M 33.33333342570659 46.89631005863194 L 33.33333342570659 46.89631005863194 L 33.33333342570659 51.27631007664027 L 33.33333342570659 51.27631007664027Z" fill="#3E5B05" />
<path d="M 66.66666675903993 46.89631005863194 L 50.000000092373256 46.89631005863187 L 50.000000092373256 46.89631005863187 L 66.66666675903993 46.89631005863194Z" fill="#3E5B05" />
<path d="M 50.000000092373256 51.276310058631786 L 50.000000092373256 51.276310058631786 L 50.000000092373256 46.89631005863187 L 50.000000092373256 46.89631005863187Z" fill="#3E5B05" />
<path d="M 83.33333342570658 51.276310058631786 L 66.66666675903993 51.276310058631765 L 66.66666675903993 51.276310058631765 L 83.33333342570658 51.276310058631786Z" fill="#3E5B05" />
<path d="M 66.66666675903993 46.89631005863194 L 66.66666675903993 46.89631005863194 L 66.66666675903993 51.276310058631765 L 66.66666675903993 51.276310058631765Z" fill="#3E5B05" />
<path d="M 100.00000009237326 46.89631005863191 L 83.33333342570658 46.89631005863191 L 83.33333342570658 46.89631005863191 L 100.00000009237326 46.89631005863191Z" fill="#3E5B05" />
<path d="M 83.33333342570658 51.276310058631786 L 83.33333342570658 51.276310058631786 L 83.33333342570658 46.89631005863191 L 83.33333342570658 46.89631005863191Z" fill="#3E5B05" />
<path d="M 22.050000092373388 11.513155029315902 L 11.950000092373338 11.513155029315902 L 11.950000092373338 11.513155029315902 L 22.050000092373388 11.513155029315902Z" fill="#3E5B05" />
<path d="M 11.950000092373338 11.513155029315902 L 11.950000092373338 39.76315502931588 L 11.950000092373338 39.76315502931588 L 11.950000092373338 11.513155029315902Z" fill="#3E5B05" />
<path d="M 11.950000092373338 39.76315502931588 L 22.050000092373388 39.76315502931588 L 22.050000092373388 39.76315502931588 L 11.950000092373338 39.76315502931588Z" fill="#3E5B05" />
<path d="M 22.050000092373388 39.76315502931588 L 22.050000092373388 11.513155029315902 L 22.050000092373388 11.513155029315902 L 22.050000092373388 39.76315502931588Z" fill="#3E5B05" />
<path d="M 44.050000092373345 11.513155029315902 L 33.9500000923733 11.513155029315902 L 33.9500000923733 11.513155029315902 L 44.050000092373345 11.513155029315902Z" fill="#3E5B05" />
<path d="M 33.9500000923733 11.513155029315902 L 33.9500000923733 39.76315502931588 L 33.9500000923733 39.76315502931588 L 33.9500000923733 11.513155029315902Z" fill="#3E5B05" />
<path d="M 33.9500000923733 39.76315502931588 L 44.050000092373345 39.76315502931588 L 44.050000092373345 39.76315502931588 L 33.9500000923733 39.76315502931588Z" fill="#3E5B05" />
<path d="M 44.050000092373345 39.76315502931588 L 44.050000092373345 11.513155029315902 L 44.050000092373345 11.513155029315902 L 44.050000092373345 39.76315502931588Z" fill="#3E5B05" />
<path d="M 55.95000009237326 11.513155029315902 L 55.95000009237326 39.76315502931588 L 55.95000009237326 39.76315502931588 L 55.95000009237326 11.513155029315902Z" fill="#3E5B05" />
<path d="M 55.95000009237326 39.76315502931588 L 66.05000009237331 39.76315502931588 L 66.05000009237331 39.76315502931588 L 55.95000009237326 39.76315502931588Z" fill="#3E5B05" />
<path d="M 66.05000009237331 39.76315502931588 L 66.05000009237331 11.513155029315902 L 66.05000009237331 11.513155029315902 L 66.05000009237331 39.76315502931588Z" fill="#3E5B05" />
<path d="M 66.05000009237331 11.513155029315902 L 55.95000009237326 11.513155029315902 L 55.95000009237326 11.513155029315902 L 66.05000009237331 11.513155029315902Z" fill="#3E5B05" />
<path d="M 88.05000009237327 11.513155029315902 L 77.9500000923734 11.513155029315902 L 77.9500000923734 11.513155029315902 L 88.05000009237327 11.513155029315902Z" fill="#3E5B05" />
<path d="M 77.9500000923734 11.513155029315902 L 77.9500000923734 39.76315502931588 L 77.9500000923734 39.76315502931588 L 77.9500000923734 11.513155029315902Z" fill="#3E5B05" />
<path d="M 77.9500000923734 39.76315502931588 L 88.05000009237327 39.76315502931588 L 88.05000009237327 39.76315502931588 L 77.9500000923734 39.76315502931588Z" fill="#3E5B05" />
<path d="M 88.05000009237327 39.76315502931588 L 88.05000009237327 11.513155029315902 L 88.05000009237327 11.513155029315902 L 88.05000009237327 39.76315502931588Z" fill="#3E5B05" />
</svg>
