<svg xmlns="http://www.w3.org/2000/svg" width="166.30650564997447mm" height="94.04020495636917mm" viewBox="0 0 166.30650564997447 94.04020495636917">
<path d="M 110.87100280264382 2.478184142251649e-06 L 89.74154055120403 2.4781809951690547e-06 L 89.74154059590772 2.4781831270637152e-06 L 110.87100284734753 2.47818627414631e-06Z" fill="#CAA671" />
<path d="M 89.74154055120403 2.4781809951690547e-06 L 110.87100280264382 2.478184142251649e-06 L 110.8710028026282 94.0402024781842 L 89.74153931168634 94.0402024781814 L 89.74153939351393 79.04020206617878 L 76.70367819333056 79.04020206617612 L 76.70367811150298 94.04020247817876 L 55.435502802626466 94.04020247817614 L 55.435502802642084 2.478176088427375e-06 L 76.70367951283087 2.4781787166361367e-06 L 76.70367945112044 15.000002066179375 L 89.74154048949369 15.000002066182025ZM 70.45859457257944 14.500001876005111 L 70.37340281320569 13.852960597188499 L 70.12364898558404 13.250035895875083 L 69.72638148615283 12.732309292712781 L 69.20862863476096 12.335065323518632 L 68.60544734215559 12.085187282668942 L 67.95833167921852 12.000001838749423 L 67.31121601374288 12.085187263384206 L 66.70820020892191 12.334938310661553 L 66.19037879532253 12.732234859440238 L 65.79304044654224 13.250001806485857 L 65.543263114416 13.85295419000802 L 65.45806871135434 14.500001801495111 L 65.54326309513367 15.147049415520872 L 65.79304040929107 15.75000180648601 L 66.19037874264147 16.26776876537339 L 66.70820014440051 16.665065329583857 L 67.31121594177938 16.914816394830208 L 67.95833160471636 17.00000183874973 L 68.60544727019173 16.914816414114224 L 69.20862857024281 16.6649383912399 L 69.72634157195363 16.267694433426055 L 70.12363315616645 15.749976961912187 L 70.37340279392379 15.147043152283146ZM 70.45859360345754 79.54020187600236 L 70.37339952500069 78.89315658088675 L 70.12363222429424 78.29022678011287 L 69.72634065551038 77.77250929675792 L 69.2086276656387 77.37526532351588 L 68.6054463730334 77.12538728266618 L 67.95833071009635 77.04020183874667 L 67.31121504462097 77.12538726338217 L 66.70819923979964 77.37513831065844 L 66.19037782620026 77.77243485943713 L 65.7930394774199 78.29020180648274 L 65.54326214529465 78.89315419000526 L 65.45806774223217 79.54020180149237 L 65.54326212601157 80.18724941551811 L 65.793039440169 80.7902018064829 L 66.1903777735193 81.30796876537028 L 66.70819917527834 81.70526532958074 L 67.31121497265721 81.95501639482745 L 67.9583306355941 82.04020183874697 L 68.60544630106955 81.95501641411147 L 69.20868652631938 81.70517241862989 L 69.72634060283164 81.30789443342293 L 70.12363218704454 80.79017696190907 L 70.3734018248017 80.18724315228003ZM 99.64092799660591 12.664938844695278 L 100.1586808598368 12.267694890930859 L 100.5559483746968 11.749968299607138 L 100.80569990120306 11.14704762203563 L 100.89089399894254 10.500002329459768 L 100.80569992048588 9.852957034344515 L 100.55594841194713 9.250036349330822 L 100.15864105099567 8.732309750216402 L 99.64092806112396 8.335065776974371 L 99.0377467685185 8.08518773612467 L 98.39063110558152 8.000002292204789 L 97.74351544010615 8.085187716840656 L 97.14049963528483 8.33493876411621 L 96.62267822168545 8.732235312894533 L 96.22533987290524 9.250002259941583 L 95.97556254077911 9.852954643462676 L 95.89036813771709 10.500002254949766 L 95.97556252149703 11.147049868975527 L 96.22533983565371 11.750002259941738 L 96.62267816900457 12.267769218828045 L 97.14049957076342 12.665065783038512 L 97.74351536814248 12.914816848285575 L 98.39063103107945 13.000002292205457 L 99.037746696555 12.914816867570673ZM 100.89089294041042 81.54020232945673 L 100.8056988619535 80.89315703434148 L 100.55593156124732 80.29022723356796 L 100.15863999246409 79.77250975021445 L 99.6409859277927 79.37523174958108 L 99.03774570998621 79.12538773612164 L 98.39063004704923 79.04020229220211 L 97.74351438157387 79.12538771683725 L 97.14049857675253 79.37513876411317 L 96.62267716315314 79.77243531289149 L 96.22533881437276 80.29020225993818 L 95.97556148224761 80.89315464345964 L 95.8903670791847 81.54020225494637 L 95.97556146296446 82.18724986897249 L 96.22533877712196 82.79020225993834 L 96.6226771104721 83.30796921882465 L 97.14049851223113 83.70526578303547 L 97.74351430961 83.95501684828254 L 98.39062997254706 84.04020229220242 L 99.03774563802253 83.95501686756728 L 99.64092693807487 83.70513884469116 L 100.1586798013057 83.30789489092673 L 100.5559315239976 82.79017741536272 L 100.80570116175504 82.18724360573403Z" fill="#CAA671" />
<path d="M 70.37339952500069 78.89315658088675 L 70.45859360345754 79.54020187600236 L 70.45859364816141 79.54020187600449 L 70.37339956970449 78.89315658088888Z" fill="#CAA671" />
<path d="M 68.60544630106955 81.95501641411147 L 67.9583306355941 82.04020183874697 L 67.95833068029796 82.0402018387491 L 68.60544634577334 81.9550164141136Z" fill="#CAA671" />
<path d="M 65.45806774223217 79.54020180149237 L 65.54326214529465 78.89315419000526 L 65.54326218999852 78.8931541900074 L 65.45806778693606 79.54020180149449Z" fill="#CAA671" />
<path d="M 67.31121504462097 77.12538726338217 L 67.95833071009635 77.04020183874667 L 67.95833075480022 77.0402018387488 L 67.31121508932485 77.12538726338394Z" fill="#CAA671" />
<path d="M 68.6054463730334 77.12538728266618 L 69.2086276656387 77.37526532351588 L 69.20862771034248 77.37526532351801 L 68.60544641773718 77.12538728266831Z" fill="#CAA671" />
<path d="M 70.12363222429424 78.29022678011287 L 70.37339952500069 78.89315658088675 L 70.37339956970449 78.89315658088888 L 70.12363226899804 78.290226780115Z" fill="#CAA671" />
<path d="M 100.1586808598368 12.267694890930859 L 99.64092799660591 12.664938844695278 L 99.64092804130941 12.66493884469741 L 100.15868090454032 12.26769489093299Z" fill="#CAA671" />
<path d="M 99.037746696555 12.914816867570673 L 98.39063103107945 13.000002292205457 L 98.39063107578298 13.000002292207588 L 99.03774674125852 12.914816867572805Z" fill="#CAA671" />
<path d="M 98.39063103107945 13.000002292205457 L 97.74351536814248 12.914816848285575 L 97.743515412846 12.914816848287709 L 98.39063107578298 13.000002292207588Z" fill="#CAA671" />
<path d="M 70.37340279392379 15.147043152283146 L 70.12363315616645 15.749976961912187 L 70.12363320087033 15.74997696191432 L 70.37340283862767 15.147043152285278Z" fill="#CAA671" />
<path d="M 65.54326309513367 15.147049415520872 L 65.45806871135434 14.500001801495111 L 65.45806875605814 14.500001801497243 L 65.54326313983735 15.147049415523004Z" fill="#CAA671" />
<path d="M 65.543263114416 13.85295419000802 L 65.79304044654224 13.250001806485857 L 65.79304049124593 13.250001806487989 L 65.5432631591197 13.852954190010152Z" fill="#CAA671" />
<path d="M 69.72634060283164 81.30789443342293 L 69.20868652631938 81.70517241862989 L 69.20868657102326 81.70517241863202 L 69.72634064753534 81.30789443342506Z" fill="#CAA671" />
<path d="M 67.31121497265721 81.95501639482745 L 66.70819917527834 81.70526532958074 L 66.70819921998212 81.70526532958287 L 67.311215017361 81.95501639482923Z" fill="#CAA671" />
<path d="M 66.70819917527834 81.70526532958074 L 66.1903777735193 81.30796876537028 L 66.19037781822317 81.30796876537241 L 66.70819921998212 81.70526532958287Z" fill="#CAA671" />
<path d="M 66.1903777735193 81.30796876537028 L 65.793039440169 80.7902018064829 L 65.79303948487286 80.79020180648503 L 66.19037781822317 81.30796876537241Z" fill="#CAA671" />
<path d="M 65.793039440169 80.7902018064829 L 65.54326212601157 80.18724941551811 L 65.54326217071545 80.18724941552024 L 65.79303948487286 80.79020180648503Z" fill="#CAA671" />
<path d="M 66.19037782620026 77.77243485943713 L 66.70819923979964 77.37513831065844 L 66.70819928450352 77.37513831066057 L 66.19037787090404 77.77243485943926Z" fill="#CAA671" />
<path d="M 65.79304040929107 15.75000180648601 L 65.54326309513367 15.147049415520872 L 65.54326313983735 15.147049415523004 L 65.79304045399476 15.750001806488141Z" fill="#CAA671" />
<path d="M 70.37340281320569 13.852960597188499 L 70.45859457257944 14.500001876005111 L 70.45859461728332 14.500001876007243 L 70.37340285790947 13.85296059719063Z" fill="#CAA671" />
<path d="M 68.60544727019173 16.914816414114224 L 67.95833160471636 17.00000183874973 L 67.95833164942015 17.00000183875186 L 68.60544731489561 16.914816414116356Z" fill="#CAA671" />
<path d="M 65.45806871135434 14.500001801495111 L 65.543263114416 13.85295419000802 L 65.5432631591197 13.852954190010152 L 65.45806875605814 14.500001801497243Z" fill="#CAA671" />
<path d="M 70.45859360345754 79.54020187600236 L 70.3734018248017 80.18724315228003 L 70.37340186950559 80.18724315228216 L 70.45859364816141 79.54020187600449Z" fill="#CAA671" />
<path d="M 70.3734018248017 80.18724315228003 L 70.12363218704454 80.79017696190907 L 70.12363223174823 80.7901769619112 L 70.37340186950559 80.18724315228216Z" fill="#CAA671" />
<path d="M 65.54326214529465 78.89315419000526 L 65.7930394774199 78.29020180648274 L 65.79303952212376 78.29020180648487 L 65.54326218999852 78.8931541900074Z" fill="#CAA671" />
<path d="M 65.7930394774199 78.29020180648274 L 66.19037782620026 77.77243485943713 L 66.19037787090404 77.77243485943926 L 65.79303952212376 78.29020180648487Z" fill="#CAA671" />
<path d="M 65.79304044654224 13.250001806485857 L 66.19037879532253 12.732234859440238 L 66.1903788400264 12.73223485944237 L 65.79304049124593 13.250001806487989Z" fill="#CAA671" />
<path d="M 69.72638148615283 12.732309292712781 L 70.12364898558404 13.250035895875083 L 70.12364903028792 13.250035895877215 L 69.72638153085651 12.732309292714552Z" fill="#CAA671" />
<path d="M 66.70819923979964 77.37513831065844 L 67.31121504462097 77.12538726338217 L 67.31121508932485 77.12538726338394 L 66.70819928450352 77.37513831066057Z" fill="#CAA671" />
<path d="M 69.20862857024281 16.6649383912399 L 68.60544727019173 16.914816414114224 L 68.60544731489561 16.914816414116356 L 69.20862861494668 16.664938391242032Z" fill="#CAA671" />
<path d="M 67.9583306355941 82.04020183874697 L 67.31121497265721 81.95501639482745 L 67.311215017361 81.95501639482923 L 67.95833068029796 82.0402018387491Z" fill="#CAA671" />
<path d="M 65.54326212601157 80.18724941551811 L 65.45806774223217 79.54020180149237 L 65.45806778693606 79.54020180149449 L 65.54326217071545 80.18724941552024Z" fill="#CAA671" />
<path d="M 69.2086276656387 77.37526532351588 L 69.72634065551038 77.77250929675792 L 69.72634070021427 77.77250929676005 L 69.20862771034248 77.37526532351801Z" fill="#CAA671" />
<path d="M 67.95833071009635 77.04020183874667 L 68.6054463730334 77.12538728266618 L 68.60544641773718 77.12538728266831 L 67.95833075480022 77.0402018387488Z" fill="#CAA671" />
<path d="M 69.72634065551038 77.77250929675792 L 70.12363222429424 78.29022678011287 L 70.12363226899804 78.290226780115 L 69.72634070021427 77.77250929676005Z" fill="#CAA671" />
<path d="M 99.64092799660591 12.664938844695278 L 99.037746696555 12.914816867570673 L 99.03774674125852 12.914816867572805 L 99.64092804130941 12.66493884469741Z" fill="#CAA671" />
<path d="M 70.45859457257944 14.500001876005111 L 70.37340279392379 15.147043152283146 L 70.37340283862767 15.147043152285278 L 70.45859461728332 14.500001876007243Z" fill="#CAA671" />
<path d="M 66.19037879532253 12.732234859440238 L 66.70820020892191 12.334938310661553 L 66.70820025362569 12.334938310663684 L 66.1903788400264 12.73223485944237Z" fill="#CAA671" />
<path d="M 69.20862863476096 12.335065323518632 L 69.72638148615283 12.732309292712781 L 69.72638153085651 12.732309292714552 L 69.20862867946465 12.335065323520764Z" fill="#CAA671" />
<path d="M 70.12363315616645 15.749976961912187 L 69.72634157195363 16.267694433426055 L 69.72634161665742 16.267694433428186 L 70.12363320087033 15.74997696191432Z" fill="#CAA671" />
<path d="M 66.70820014440051 16.665065329583857 L 66.19037874264147 16.26776876537339 L 66.19037878734517 16.26776876537552 L 66.70820018910437 16.66506532958599Z" fill="#CAA671" />
<path d="M 66.70820020892191 12.334938310661553 L 67.31121601374288 12.085187263384206 L 67.31121605844676 12.085187263386338 L 66.70820025362569 12.334938310663684Z" fill="#CAA671" />
<path d="M 67.95833167921852 12.000001838749423 L 68.60544734215559 12.085187282668942 L 68.60544738685937 12.085187282671074 L 67.9583317239224 12.000001838751555Z" fill="#CAA671" />
<path d="M 67.95833160471636 17.00000183874973 L 67.31121594177938 16.914816394830208 L 67.31121598648326 16.914816394832343 L 67.95833164942015 17.00000183875186Z" fill="#CAA671" />
<path d="M 66.19037874264147 16.26776876537339 L 65.79304040929107 15.75000180648601 L 65.79304045399476 15.750001806488141 L 66.19037878734517 16.26776876537552Z" fill="#CAA671" />
<path d="M 68.60544734215559 12.085187282668942 L 69.20862863476096 12.335065323518632 L 69.20862867946465 12.335065323520764 L 68.60544738685937 12.085187282671074Z" fill="#CAA671" />
<path d="M 70.12363218704454 80.79017696190907 L 69.72634060283164 81.30789443342293 L 69.72634064753534 81.30789443342506 L 70.12363223174823 80.7901769619112Z" fill="#CAA671" />
<path d="M 69.20868652631938 81.70517241862989 L 68.60544630106955 81.95501641411147 L 68.60544634577334 81.9550164141136 L 69.20868657102326 81.70517241863202Z" fill="#CAA671" />
<path d="M 67.31121594177938 16.914816394830208 L 66.70820014440051 16.665065329583857 L 66.70820018910437 16.66506532958599 L 67.31121598648326 16.914816394832343Z" fill="#CAA671" />
<path d="M 67.31121601374288 12.085187263384206 L 67.95833167921852 12.000001838749423 L 67.9583317239224 12.000001838751555 L 67.31121605844676 12.085187263386338Z" fill="#CAA671" />
<path d="M 69.72634157195363 16.267694433426055 L 69.20862857024281 16.6649383912399 L 69.20862861494668 16.664938391242032 L 69.72634161665742 16.267694433428186Z" fill="#CAA671" />
<path d="M 70.12364898558404 13.250035895875083 L 70.37340281320569 13.852960597188499 L 70.37340285790947 13.85296059719063 L 70.12364903028792 13.250035895877215Z" fill="#CAA671" />
<path d="M 96.62267816900457 12.267769218828045 L 96.22533983565371 11.750002259941738 L 96.22533988035741 11.75000225994387 L 96.62267821370827 12.267769218830178Z" fill="#CAA671" />
<path d="M 100.8056988619535 80.89315703434148 L 100.89089294041042 81.54020232945673 L 100.89089298511412 81.54020232945885 L 100.8056989066572 80.8931570343436Z" fill="#CAA671" />
<path d="M 100.15864105099567 8.732309750216402 L 100.55594841194713 9.250036349330822 L 100.55594845665064 9.250036349332953 L 100.15864109569935 8.732309750218533Z" fill="#CAA671" />
<path d="M 96.62267822168545 8.732235312894533 L 97.14049963528483 8.33493876411621 L 97.14049967998851 8.334938764118341 L 96.62267826638895 8.732235312896664Z" fill="#CAA671" />
<path d="M 99.0377467685185 8.08518773612467 L 99.64092806112396 8.335065776974371 L 99.64092810582767 8.335065776976503 L 99.03774681322218 8.085187736126802Z" fill="#CAA671" />
<path d="M 100.89089294041042 81.54020232945673 L 100.80570116175504 82.18724360573403 L 100.80570120645855 82.1872436057358 L 100.89089298511412 81.54020232945885Z" fill="#CAA671" />
<path d="M 100.80570116175504 82.18724360573403 L 100.5559315239976 82.79017741536272 L 100.55593156870113 82.79017741536485 L 100.80570120645855 82.1872436057358Z" fill="#CAA671" />
<path d="M 100.5559315239976 82.79017741536272 L 100.1586798013057 83.30789489092673 L 100.15867984600919 83.30789489092886 L 100.55593156870113 82.79017741536485Z" fill="#CAA671" />
<path d="M 100.1586798013057 83.30789489092673 L 99.64092693807487 83.70513884469116 L 99.6409269827784 83.70513884469328 L 100.15867984600919 83.30789489092886Z" fill="#CAA671" />
<path d="M 100.5559483746968 11.749968299607138 L 100.1586808598368 12.267694890930859 L 100.15868090454032 12.26769489093299 L 100.55594841940048 11.74996829960927Z" fill="#CAA671" />
<path d="M 99.64092693807487 83.70513884469116 L 99.03774563802253 83.95501686756728 L 99.03774568272604 83.95501686756941 L 99.6409269827784 83.70513884469328Z" fill="#CAA671" />
<path d="M 99.03774563802253 83.95501686756728 L 98.39062997254706 84.04020229220242 L 98.39063001725076 84.04020229220455 L 99.03774568272604 83.95501686756941Z" fill="#CAA671" />
<path d="M 96.22533987290524 9.250002259941583 L 96.62267822168545 8.732235312894533 L 96.62267826638895 8.732235312896664 L 96.22533991760895 9.250002259943717Z" fill="#CAA671" />
<path d="M 98.39062997254706 84.04020229220242 L 97.74351430961 83.95501684828254 L 97.74351435431352 83.95501684828467 L 98.39063001725076 84.04020229220455Z" fill="#CAA671" />
<path d="M 96.22533983565371 11.750002259941738 L 95.97556252149703 11.147049868975527 L 95.97556256620074 11.147049868977659 L 96.22533988035741 11.75000225994387Z" fill="#CAA671" />
<path d="M 97.74351544010615 8.085187716840656 L 98.39063110558152 8.000002292204789 L 98.39063115028505 8.00000229220692 L 97.74351548480983 8.085187716842787Z" fill="#CAA671" />
<path d="M 97.74351536814248 12.914816848285575 L 97.14049957076342 12.665065783038512 L 97.14049961546694 12.665065783040644 L 97.743515412846 12.914816848287709Z" fill="#CAA671" />
<path d="M 95.89036813771709 10.500002254949766 L 95.97556254077911 9.852954643462676 L 95.9755625854828 9.852954643464809 L 95.8903681824206 10.500002254951537Z" fill="#CAA671" />
<path d="M 95.97556254077911 9.852954643462676 L 96.22533987290524 9.250002259941583 L 96.22533991760895 9.250002259943717 L 95.9755625854828 9.852954643464809Z" fill="#CAA671" />
<path d="M 95.97556252149703 11.147049868975527 L 95.89036813771709 10.500002254949766 L 95.8903681824206 10.500002254951537 L 95.97556256620074 11.147049868977659Z" fill="#CAA671" />
<path d="M 98.39063110558152 8.000002292204789 L 99.0377467685185 8.08518773612467 L 99.03774681322218 8.085187736126802 L 98.39063115028505 8.00000229220692Z" fill="#CAA671" />
<path d="M 99.64092806112396 8.335065776974371 L 100.15864105099567 8.732309750216402 L 100.15864109569935 8.732309750218533 L 99.64092810582767 8.335065776976503Z" fill="#CAA671" />
<path d="M 100.55594841194713 9.250036349330822 L 100.80569992048588 9.852957034344515 L 100.80569996518958 9.852957034346646 L 100.55594845665064 9.250036349332953Z" fill="#CAA671" />
<path d="M 97.14049963528483 8.33493876411621 L 97.74351544010615 8.085187716840656 L 97.74351548480983 8.085187716842787 L 97.14049967998851 8.334938764118341Z" fill="#CAA671" />
<path d="M 100.80569992048588 9.852957034344515 L 100.89089399894254 10.500002329459768 L 100.89089404364606 10.50000232946154 L 100.80569996518958 9.852957034346646Z" fill="#CAA671" />
<path d="M 97.14049957076342 12.665065783038512 L 96.62267816900457 12.267769218828045 L 96.62267821370827 12.267769218830178 L 97.14049961546694 12.665065783040644Z" fill="#CAA671" />
<path d="M 100.89089399894254 10.500002329459768 L 100.80569990120306 11.14704762203563 L 100.80569994590657 11.147047622037762 L 100.89089404364606 10.50000232946154Z" fill="#CAA671" />
<path d="M 100.80569990120306 11.14704762203563 L 100.5559483746968 11.749968299607138 L 100.55594841940048 11.74996829960927 L 100.80569994590657 11.147047622037762Z" fill="#CAA671" />
<path d="M 100.55593156124732 80.29022723356796 L 100.8056988619535 80.89315703434148 L 100.8056989066572 80.8931570343436 L 100.555931605951 80.29022723357009Z" fill="#CAA671" />
<path d="M 96.22533877712196 82.79020225993834 L 95.97556146296446 82.18724986897249 L 95.97556150766806 82.1872498689746 L 96.22533882182547 82.79020225994047Z" fill="#CAA671" />
<path d="M 95.97556148224761 80.89315464345964 L 96.22533881437276 80.29020225993818 L 96.22533885907629 80.29020225994032 L 95.97556152695114 80.89315464346177Z" fill="#CAA671" />
<path d="M 97.74351430961 83.95501684828254 L 97.14049851223113 83.70526578303547 L 97.14049855693465 83.70526578303759 L 97.74351435431352 83.95501684828467Z" fill="#CAA671" />
<path d="M 96.22533881437276 80.29020225993818 L 96.62267716315314 79.77243531289149 L 96.62267720785667 79.77243531289362 L 96.22533885907629 80.29020225994032Z" fill="#CAA671" />
<path d="M 96.62267716315314 79.77243531289149 L 97.14049857675253 79.37513876411317 L 97.14049862145623 79.3751387641153 L 96.62267720785667 79.77243531289362Z" fill="#CAA671" />
<path d="M 95.8903670791847 81.54020225494637 L 95.97556148224761 80.89315464345964 L 95.97556152695114 80.89315464346177 L 95.8903671238884 81.5402022549485Z" fill="#CAA671" />
<path d="M 97.74351438157387 79.12538771683725 L 98.39063004704923 79.04020229220211 L 98.39063009175293 79.04020229220424 L 97.74351442627756 79.12538771683938Z" fill="#CAA671" />
<path d="M 98.39063004704923 79.04020229220211 L 99.03774570998621 79.12538773612164 L 99.0377457546899 79.12538773612377 L 98.39063009175293 79.04020229220424Z" fill="#CAA671" />
<path d="M 99.03774570998621 79.12538773612164 L 99.6409859277927 79.37523174958108 L 99.64098597249621 79.37523174958321 L 99.0377457546899 79.12538773612377Z" fill="#CAA671" />
<path d="M 97.14049851223113 83.70526578303547 L 96.6226771104721 83.30796921882465 L 96.6226771551758 83.30796921882678 L 97.14049855693465 83.70526578303759Z" fill="#CAA671" />
<path d="M 99.6409859277927 79.37523174958108 L 100.15863999246409 79.77250975021445 L 100.15864003716779 79.77250975021659 L 99.64098597249621 79.37523174958321Z" fill="#CAA671" />
<path d="M 95.97556146296446 82.18724986897249 L 95.8903670791847 81.54020225494637 L 95.8903671238884 81.5402022549485 L 95.97556150766806 82.1872498689746Z" fill="#CAA671" />
<path d="M 100.15863999246409 79.77250975021445 L 100.55593156124732 80.29022723356796 L 100.555931605951 80.29022723357009 L 100.15864003716779 79.77250975021659Z" fill="#CAA671" />
<path d="M 96.6226771104721 83.30796921882465 L 96.22533877712196 82.79020225993834 L 96.22533882182547 82.79020225994047 L 96.6226771551758 83.30796921882678Z" fill="#CAA671" />
<path d="M 97.14049857675253 79.37513876411317 L 97.74351438157387 79.12538771683725 L 97.74351442627756 79.12538771683938 L 97.14049862145623 79.3751387641153Z" fill="#CAA671" />
<path d="M 89.74154055120403 2.4781809951690547e-06 L 89.74154048949369 15.000002066182025 L 89.74154053419738 15.000002066184157 L 89.74154059590772 2.4781831270637152e-06Z" fill="#CAA671" />
<path d="M 89.74154048949369 15.000002066182025 L 76.70367945112044 15.000002066179375 L 76.70367949582413 15.000002066181507 L 89.74154053419738 15.000002066184157Z" fill="#CAA671" />
<path d="M 76.70367945112044 15.000002066179375 L 76.70367951283087 2.4781787166361367e-06 L 76.70367955753457 2.478180487575088e-06 L 76.70367949582413 15.000002066181507Z" fill="#CAA671" />
<path d="M 55.435502802642084 2.478176088427375e-06 L 55.435502802626466 94.04020247817614 L 55.43550284733034 94.04020247817827 L 55.43550284734595 2.4781782203220356e-06Z" fill="#CAA671" />
<path d="M 55.435502802626466 94.04020247817614 L 76.70367811150298 94.04020247817876 L 76.70367815620668 94.04020247818089 L 55.43550284733034 94.04020247817827Z" fill="#CAA671" />
<path d="M 89.74153931168634 94.0402024781814 L 110.8710028026282 94.0402024781842 L 110.8710028473319 94.04020247818633 L 89.74153935639004 94.04020247818352Z" fill="#CAA671" />
<path d="M 76.70367951283087 2.4781787166361367e-06 L 55.435502802642084 2.478176088427375e-06 L 55.43550284734595 2.4781782203220356e-06 L 76.70367955753457 2.478180487575088e-06Z" fill="#CAA671" />
<path d="M 89.74153939351393 79.04020206617878 L 89.74153931168634 94.0402024781814 L 89.74153935639004 94.04020247818352 L 89.74153943821763 79.0402020661809Z" fill="#CAA671" />
<path d="M 76.70367811150298 94.04020247817876 L 76.70367819333056 79.04020206617612 L 76.70367823803426 79.04020206617825 L 76.70367815620668 94.04020247818089Z" fill="#CAA671" />
<path d="M 76.70367819333056 79.04020206617612 L 89.74153939351393 79.04020206617878 L 89.74153943821763 79.0402020661809 L 76.70367823803426 79.04020206617825Z" fill="#CAA671" />
<path d="M 110.8710028026282 94.0402024781842 L 110.87100280264382 2.478184142251649e-06 L 110.87100284734753 2.47818627414631e-06 L 110.8710028473319 94.04020247818633Z" fill="#CAA671" />
<path d="M 110.87100284734753 2.47818627414631e-06 L 89.74154059590772 2.4781831270637152e-06 L 89.74154053419738 15.000002066184157 L 76.70367949582413 15.000002066181507 L 76.70367955753457 2.478180487575088e-06 L 55.43550284734595 2.4781782203220356e-06 L 55.43550284733034 94.04020247817827 L 76.70367815620668 94.04020247818089 L 76.70367823803426 79.04020206617825 L 89.74153943821763 79.0402020661809 L 89.74153935639004 94.04020247818352 L 110.8710028473319 94.04020247818633ZM 70.37340285790947 13.85296059719063 L 70.45859461728332 14.500001876007243 L 70.37340283862767 15.147043152285278 L 70.12363320087033 15.74997696191432 L 69.72634161665742 16.267694433428186 L 69.20862861494668 16.664938391242032 L 68.60544731489561 16.914816414116356 L 67.95833164942015 17.00000183875186 L 67.31121598648326 16.914816394832343 L 66.70820018910437 16.66506532958599 L 66.19037878734517 16.26776876537552 L 65.79304045399476 15.750001806488141 L 65.54326313983735 15.147049415523004 L 65.45806875605814 14.500001801497243 L 65.5432631591197 13.852954190010152 L 65.79304049124593 13.250001806487989 L 66.1903788400264 12.73223485944237 L 66.70820025362569 12.334938310663684 L 67.31121605844676 12.085187263386338 L 67.9583317239224 12.000001838751555 L 68.60544738685937 12.085187282671074 L 69.20862867946465 12.335065323520764 L 69.72638153085651 12.732309292714552 L 70.12364903028792 13.250035895877215ZM 70.37339956970449 78.89315658088888 L 70.45859364816141 79.54020187600449 L 70.37340186950559 80.18724315228216 L 70.12363223174823 80.7901769619112 L 69.72634064753534 81.30789443342506 L 69.20868657102326 81.70517241863202 L 68.60544634577334 81.9550164141136 L 67.95833068029796 82.0402018387491 L 67.311215017361 81.95501639482923 L 66.70819921998212 81.70526532958287 L 66.19037781822317 81.30796876537241 L 65.79303948487286 80.79020180648503 L 65.54326217071545 80.18724941552024 L 65.45806778693606 79.54020180149449 L 65.54326218999852 78.8931541900074 L 65.79303952212376 78.29020180648487 L 66.19037787090404 77.77243485943926 L 66.70819928450352 77.37513831066057 L 67.31121508932485 77.12538726338394 L 67.95833075480022 77.0402018387488 L 68.60544641773718 77.12538728266831 L 69.20862771034248 77.37526532351801 L 69.72634070021427 77.77250929676005 L 70.12363226899804 78.290226780115ZM 100.15868090454032 12.26769489093299 L 99.64092804130941 12.66493884469741 L 99.03774674125852 12.914816867572805 L 98.39063107578298 13.000002292207588 L 97.743515412846 12.914816848287709 L 97.14049961546694 12.665065783040644 L 96.62267821370827 12.267769218830178 L 96.22533988035741 11.75000225994387 L 95.97556256620074 11.147049868977659 L 95.8903681824206 10.500002254951537 L 95.9755625854828 9.852954643464809 L 96.22533991760895 9.250002259943717 L 96.62267826638895 8.732235312896664 L 97.14049967998851 8.334938764118341 L 97.74351548480983 8.085187716842787 L 98.39063115028505 8.00000229220692 L 99.03774681322218 8.085187736126802 L 99.64092810582767 8.335065776976503 L 100.15864109569935 8.732309750218533 L 100.55594845665064 9.250036349332953 L 100.80569996518958 9.852957034346646 L 100.89089404364606 10.50000232946154 L 100.80569994590657 11.147047622037762 L 100.55594841940048 11.74996829960927ZM 100.8056989066572 80.8931570343436 L 100.89089298511412 81.54020232945885 L 100.80570120645855 82.1872436057358 L 100.55593156870113 82.79017741536485 L 100.15867984600919 83.30789489092886 L 99.6409269827784 83.70513884469328 L 99.03774568272604 83.95501686756941 L 98.39063001725076 84.04020229220455 L 97.74351435431352 83.95501684828467 L 97.14049855693465 83.70526578303759 L 96.6226771551758 83.30796921882678 L 96.22533882182547 82.79020225994047 L 95.97556150766806 82.1872498689746 L 95.8903671238884 81.5402022549485 L 95.97556152695114 80.89315464346177 L 96.22533885907629 80.29020225994032 L 96.62267720785667 79.77243531289362 L 97.14049862145623 79.3751387641153 L 97.74351442627756 79.12538771683938 L 98.39063009175293 79.04020229220424 L 99.0377457546899 79.12538773612377 L 99.64098597249621 79.37523174958321 L 100.15864003716779 79.77250975021659 L 100.555931605951 80.29022723357009Z" fill="#CAA671" />
<path d="M 166.30650420394284 94.04020247819467 L 110.87100420394138 94.04020247818661 L 110.87100420395707 2.478186556142958e-06 L 166.30650420395844 2.4781946099672325e-06ZM 139.42176202393392 92.22406490710695 L 139.73242219926587 91.98568697783924 L 139.970800137792 91.67502680961178 L 140.1206507769398 91.3132553794981 L 140.17176204329138 90.9250268126062 L 140.17176210289685 86.92502681260603 L 140.1206508481156 86.5367982441905 L 139.97080021974955 86.1750268096116 L 139.73242229048194 85.86436663427982 L 139.4217621222543 85.6259886957536 L 139.05999069214116 85.47613805660578 L 138.671762125249 85.42502679025432 L 138.28353355683365 85.4761380450355 L 137.92176212225428 85.62598867340155 L 137.61110194692233 85.86436660266888 L 137.3727240083962 86.1750267708967 L 137.2228733692484 86.53679820101001 L 137.17176210289682 86.92502676790228 L 137.17176204329135 90.92502676790208 L 137.2228732980726 91.31325533631761 L 137.37272392643865 91.67502677089654 L 137.61110185570627 91.98568694622865 L 137.92176202393392 92.22406488475453 L 138.28353345404713 92.3739155239027 L 138.6717620209394 92.42502679025417 L 139.05999058935473 92.37391553547297ZM 138.2592021114189 2.3570329087173527 L 137.8974306768398 2.506883537083397 L 137.58677050150777 2.7452614663507298 L 137.34839256298181 3.055921634578548 L 137.1985419238339 3.4176930646911403 L 137.14743065748243 3.805921631583404 L 137.14743059787688 7.805921631583577 L 137.19854185265814 8.194150199998735 L 137.34839248102426 8.55592163457838 L 137.5867704102918 8.866581809910505 L 137.8974305785195 9.104959748436736 L 138.25920200863257 9.25481038758455 L 138.64743057552474 9.305921653936016 L 139.03565914394017 9.254810399154106 L 139.39743057851942 9.104959770788073 L 139.70809075385148 8.866581841520729 L 139.94646869237752 8.55592167329291 L 140.09631933152534 8.194150243180317 L 140.14743059787682 7.805921676288055 L 140.1474306574823 3.8059216762878814 L 140.09631940270108 3.417693107872723 L 139.94646877433505 3.0559216732930783 L 139.70809084506746 2.745261497960952 L 139.45243628885257 2.51777681415084 L 139.3974306768398 2.5068835594347334 L 139.03565924672642 2.357032920286908 L 138.6240158453991 2.2958022121030854Z" fill="#FFFFFF" />
<path d="M 137.17176210289682 86.92502676790228 L 137.2228733692484 86.53679820101001 L 137.22287341395207 86.53679820101215 L 137.1717621476005 86.92502676790441Z" fill="#FFFFFF" />
<path d="M 140.1206507769398 91.3132553794981 L 139.970800137792 91.67502680961178 L 139.9708001824957 91.67502680961391 L 140.12065082164352 91.31325537950023Z" fill="#FFFFFF" />
<path d="M 140.09631940270108 3.417693107872723 L 140.1474306574823 3.8059216762878814 L 140.14743070218597 3.805921676290013 L 140.0963194474048 3.4176931078748547Z" fill="#FFFFFF" />
<path d="M 140.09631933152534 8.194150243180317 L 139.94646869237752 8.55592167329291 L 139.94646873708115 8.555921673295042 L 140.09631937622905 8.194150243182088Z" fill="#FFFFFF" />
<path d="M 140.1474306574823 3.8059216762878814 L 140.14743059787682 7.805921676288055 L 140.1474306425806 7.805921676290186 L 140.14743070218597 3.805921676290013Z" fill="#FFFFFF" />
<path d="M 139.39743057851942 9.104959770788073 L 139.03565914394017 9.254810399154106 L 139.03565918864385 9.254810399156238 L 139.39743062322313 9.104959770790204Z" fill="#FFFFFF" />
<path d="M 139.03565914394017 9.254810399154106 L 138.64743057552474 9.305921653936016 L 138.64743062022845 9.305921653938148 L 139.03565918864385 9.254810399156238Z" fill="#FFFFFF" />
<path d="M 138.6717620209394 92.42502679025417 L 138.28353345404713 92.3739155239027 L 138.2835334987508 92.37391552390447 L 138.6717620656431 92.4250267902563Z" fill="#FFFFFF" />
<path d="M 138.28353355683365 85.4761380450355 L 138.671762125249 85.42502679025432 L 138.6717621699527 85.42502679025645 L 138.28353360153724 85.47613804503727Z" fill="#FFFFFF" />
<path d="M 137.2228733692484 86.53679820101001 L 137.3727240083962 86.1750267708967 L 137.37272405309992 86.17502677089882 L 137.22287341395207 86.53679820101215Z" fill="#FFFFFF" />
<path d="M 138.28353345404713 92.3739155239027 L 137.92176202393392 92.22406488475453 L 137.9217620686376 92.22406488475666 L 138.2835334987508 92.37391552390447Z" fill="#FFFFFF" />
<path d="M 137.61110185570627 91.98568694622865 L 137.37272392643865 91.67502677089654 L 137.37272397114236 91.67502677089867 L 137.61110190040995 91.98568694623079Z" fill="#FFFFFF" />
<path d="M 137.92176202393392 92.22406488475453 L 137.61110185570627 91.98568694622865 L 137.61110190040995 91.98568694623079 L 137.9217620686376 92.22406488475666Z" fill="#FFFFFF" />
<path d="M 137.37272392643865 91.67502677089654 L 137.2228732980726 91.31325533631761 L 137.22287334277632 91.31325533631974 L 137.37272397114236 91.67502677089867Z" fill="#FFFFFF" />
<path d="M 137.2228732980726 91.31325533631761 L 137.17176204329135 90.92502676790208 L 137.17176208799512 90.92502676790421 L 137.22287334277632 91.31325533631974Z" fill="#FFFFFF" />
<path d="M 139.4217621222543 85.6259886957536 L 139.73242229048194 85.86436663427982 L 139.73242233518565 85.86436663428196 L 139.42176216695802 85.62598869575572Z" fill="#FFFFFF" />
<path d="M 139.73242229048194 85.86436663427982 L 139.97080021974955 86.1750268096116 L 139.97080026445326 86.17502680961373 L 139.73242233518565 85.86436663428196Z" fill="#FFFFFF" />
<path d="M 139.97080021974955 86.1750268096116 L 140.1206508481156 86.5367982441905 L 140.12065089281927 86.53679824419264 L 139.97080026445326 86.17502680961373Z" fill="#FFFFFF" />
<path d="M 140.1206508481156 86.5367982441905 L 140.17176210289685 86.92502681260603 L 140.17176214760056 86.92502681260817 L 140.12065089281927 86.53679824419264Z" fill="#FFFFFF" />
<path d="M 140.17176210289685 86.92502681260603 L 140.17176204329138 90.9250268126062 L 140.17176208799506 90.92502681260834 L 140.17176214760056 86.92502681260817Z" fill="#FFFFFF" />
<path d="M 139.05999069214116 85.47613805660578 L 139.4217621222543 85.6259886957536 L 139.42176216695802 85.62598869575572 L 139.05999073684475 85.47613805660791Z" fill="#FFFFFF" />
<path d="M 137.8974306768398 2.506883537083397 L 138.2592021114189 2.3570329087173527 L 138.2592021561226 2.3570329087194843 L 137.89743072154351 2.506883537085529Z" fill="#FFFFFF" />
<path d="M 137.3727240083962 86.1750267708967 L 137.61110194692233 85.86436660266888 L 137.61110199162604 85.86436660267101 L 137.37272405309992 86.17502677089882Z" fill="#FFFFFF" />
<path d="M 137.61110194692233 85.86436660266888 L 137.92176212225428 85.62598867340155 L 137.921762166958 85.62598867340331 L 137.61110199162604 85.86436660267101Z" fill="#FFFFFF" />
<path d="M 137.17176204329135 90.92502676790208 L 137.17176210289682 86.92502676790228 L 137.1717621476005 86.92502676790441 L 137.17176208799512 90.92502676790421Z" fill="#FFFFFF" />
<path d="M 138.671762125249 85.42502679025432 L 139.05999069214116 85.47613805660578 L 139.05999073684475 85.47613805660791 L 138.6717621699527 85.42502679025645Z" fill="#FFFFFF" />
<path d="M 140.17176204329138 90.9250268126062 L 140.1206507769398 91.3132553794981 L 140.12065082164352 91.31325537950023 L 140.17176208799506 90.92502681260834Z" fill="#FFFFFF" />
<path d="M 138.2592021114189 2.3570329087173527 L 138.6240158453991 2.2958022121030854 L 138.62401589010278 2.295802212105217 L 138.2592021561226 2.3570329087194843Z" fill="#FFFFFF" />
<path d="M 138.6240158453991 2.2958022121030854 L 139.03565924672642 2.357032920286908 L 139.0356592914302 2.35703292028904 L 138.62401589010278 2.295802212105217Z" fill="#FFFFFF" />
<path d="M 139.03565924672642 2.357032920286908 L 139.3974306768398 2.5068835594347334 L 139.39743072154343 2.5068835594368655 L 139.0356592914302 2.35703292028904Z" fill="#FFFFFF" />
<path d="M 139.94646877433505 3.0559216732930783 L 140.09631940270108 3.417693107872723 L 140.0963194474048 3.4176931078748547 L 139.94646881903867 3.05592167329521Z" fill="#FFFFFF" />
<path d="M 139.05999058935473 92.37391553547297 L 138.6717620209394 92.42502679025417 L 138.6717620656431 92.4250267902563 L 139.05999063405844 92.3739155354751Z" fill="#FFFFFF" />
<path d="M 137.92176212225428 85.62598867340155 L 138.28353355683365 85.4761380450355 L 138.28353360153724 85.47613804503727 L 137.921762166958 85.62598867340331Z" fill="#FFFFFF" />
<path d="M 140.14743059787682 7.805921676288055 L 140.09631933152534 8.194150243180317 L 140.09631937622905 8.194150243182088 L 140.1474306425806 7.805921676290186Z" fill="#FFFFFF" />
<path d="M 139.94646869237752 8.55592167329291 L 139.70809075385148 8.866581841520729 L 139.70809079855508 8.86658184152286 L 139.94646873708115 8.555921673295042Z" fill="#FFFFFF" />
<path d="M 139.70809075385148 8.866581841520729 L 139.39743057851942 9.104959770788073 L 139.39743062322313 9.104959770790204 L 139.70809079855508 8.86658184152286Z" fill="#FFFFFF" />
<path d="M 139.3974306768398 2.5068835594347334 L 139.45243628885257 2.51777681415084 L 139.45243633355625 2.517776814152972 L 139.39743072154343 2.5068835594368655Z" fill="#FFFFFF" />
<path d="M 139.45243628885257 2.51777681415084 L 139.70809084506746 2.745261497960952 L 139.70809088977106 2.7452614979630843 L 139.45243633355625 2.517776814152972Z" fill="#FFFFFF" />
<path d="M 139.70809084506746 2.745261497960952 L 139.94646877433505 3.0559216732930783 L 139.94646881903867 3.05592167329521 L 139.70809088977106 2.7452614979630843Z" fill="#FFFFFF" />
<path d="M 139.970800137792 91.67502680961178 L 139.73242219926587 91.98568697783924 L 139.73242224396955 91.98568697784137 L 139.9708001824957 91.67502680961391Z" fill="#FFFFFF" />
<path d="M 137.14743059787688 7.805921631583577 L 137.14743065748243 3.805921631583404 L 137.14743070218603 3.8059216315855355 L 137.14743064258056 7.805921631585709Z" fill="#FFFFFF" />
<path d="M 137.1985419238339 3.4176930646911403 L 137.34839256298181 3.055921634578548 L 137.3483926076854 3.0559216345806797 L 137.1985419685376 3.417693064693272Z" fill="#FFFFFF" />
<path d="M 137.19854185265814 8.194150199998735 L 137.14743059787688 7.805921631583577 L 137.14743064258056 7.805921631585709 L 137.19854189736185 8.194150200000866Z" fill="#FFFFFF" />
<path d="M 137.34839248102426 8.55592163457838 L 137.19854185265814 8.194150199998735 L 137.19854189736185 8.194150200000866 L 137.3483925257279 8.555921634580512Z" fill="#FFFFFF" />
<path d="M 137.8974305785195 9.104959748436736 L 137.5867704102918 8.866581809910505 L 137.5867704549954 8.866581809912638 L 137.89743062322313 9.104959748438867Z" fill="#FFFFFF" />
<path d="M 137.34839256298181 3.055921634578548 L 137.58677050150777 2.7452614663507298 L 137.58677054621137 2.745261466352862 L 137.3483926076854 3.0559216345806797Z" fill="#FFFFFF" />
<path d="M 137.5867704102918 8.866581809910505 L 137.34839248102426 8.55592163457838 L 137.3483925257279 8.555921634580512 L 137.5867704549954 8.866581809912638Z" fill="#FFFFFF" />
<path d="M 138.25920200863257 9.25481038758455 L 137.8974305785195 9.104959748436736 L 137.89743062322313 9.104959748438867 L 138.25920205333625 9.254810387586682Z" fill="#FFFFFF" />
<path d="M 137.14743065748243 3.805921631583404 L 137.1985419238339 3.4176930646911403 L 137.1985419685376 3.417693064693272 L 137.14743070218603 3.8059216315855355Z" fill="#FFFFFF" />
<path d="M 138.64743057552474 9.305921653936016 L 138.25920200863257 9.25481038758455 L 138.25920205333625 9.254810387586682 L 138.64743062022845 9.305921653938148Z" fill="#FFFFFF" />
<path d="M 137.58677050150777 2.7452614663507298 L 137.8974306768398 2.506883537083397 L 137.89743072154351 2.506883537085529 L 137.58677054621137 2.745261466352862Z" fill="#FFFFFF" />
<path d="M 110.87100420394138 94.04020247818661 L 166.30650420394284 94.04020247819467 L 166.30650424864652 94.0402024781968 L 110.87100424864498 94.04020247818875Z" fill="#FFFFFF" />
<path d="M 110.87100424864498 94.04020247818875 L 166.30650424864652 94.0402024781968 L 166.30650424866215 2.478196741861893e-06 L 110.8710042486607 2.478188688037619e-06ZM 139.73242224396955 91.98568697784137 L 139.42176206863763 92.22406490710907 L 139.05999063405844 92.3739155354751 L 138.6717620656431 92.4250267902563 L 138.2835334987508 92.37391552390447 L 137.9217620686376 92.22406488475666 L 137.61110190040995 91.98568694623079 L 137.37272397114236 91.67502677089867 L 137.22287334277632 91.31325533631974 L 137.17176208799512 90.92502676790421 L 137.1717621476005 86.92502676790441 L 137.22287341395207 86.53679820101215 L 137.37272405309992 86.17502677089882 L 137.61110199162604 85.86436660267101 L 137.921762166958 85.62598867340331 L 138.28353360153724 85.47613804503727 L 138.6717621699527 85.42502679025645 L 139.05999073684475 85.47613805660791 L 139.42176216695802 85.62598869575572 L 139.73242233518565 85.86436663428196 L 139.97080026445326 86.17502680961373 L 140.12065089281927 86.53679824419264 L 140.17176214760056 86.92502681260817 L 140.17176208799506 90.92502681260834 L 140.12065082164352 91.31325537950023 L 139.9708001824957 91.67502680961391ZM 137.89743072154351 2.506883537085529 L 138.2592021561226 2.3570329087194843 L 138.62401589010278 2.295802212105217 L 139.0356592914302 2.35703292028904 L 139.39743072154343 2.5068835594368655 L 139.45243633355625 2.517776814152972 L 139.70809088977106 2.7452614979630843 L 139.94646881903867 3.05592167329521 L 140.0963194474048 3.4176931078748547 L 140.14743070218597 3.805921676290013 L 140.1474306425806 7.805921676290186 L 140.09631937622905 8.194150243182088 L 139.94646873708115 8.555921673295042 L 139.70809079855508 8.86658184152286 L 139.39743062322313 9.104959770790204 L 139.03565918864385 9.254810399156238 L 138.64743062022845 9.305921653938148 L 138.25920205333625 9.254810387586682 L 137.89743062322313 9.104959748438867 L 137.5867704549954 8.866581809912638 L 137.3483925257279 8.555921634580512 L 137.19854189736185 8.194150200000866 L 137.14743064258056 7.805921631585709 L 137.14743070218603 3.8059216315855355 L 137.1985419685376 3.417693064693272 L 137.3483926076854 3.0559216345806797 L 137.58677054621137 2.745261466352862Z" fill="#FFFFFF" />
<path d="M 166.30650420394284 94.04020247819467 L 166.30650420395844 2.4781946099672325e-06 L 166.30650424866215 2.478196741861893e-06 L 166.30650424864652 94.0402024781968Z" fill="#FFFFFF" />
<path d="M 166.30650420395844 2.4781946099672325e-06 L 110.87100420395707 2.478186556142958e-06 L 110.8710042486607 2.478188688037619e-06 L 166.30650424866215 2.478196741861893e-06Z" fill="#FFFFFF" />
<path d="M 110.87100420395707 2.478186556142958e-06 L 110.87100420394138 94.04020247818661 L 110.87100424864498 94.04020247818875 L 110.8710042486607 2.478188688037619e-06Z" fill="#FFFFFF" />
<path d="M 139.73242219926587 91.98568697783924 L 139.42176202393392 92.22406490710695 L 139.42176206863763 92.22406490710907 L 139.73242224396955 91.98568697784137Z" fill="#FFFFFF" />
<path d="M 139.42176202393392 92.22406490710695 L 139.05999058935473 92.37391553547297 L 139.05999063405844 92.3739155354751 L 139.42176206863763 92.22406490710907Z" fill="#FFFFFF" />
<path d="M 55.43550144603342 2.4781797769435343e-06 L 55.435501401329454 2.4781776450488733e-06 L 1.4013277126732008e-06 2.4781706740917286e-06 L 1.446031858918324e-06 2.4781738888535187e-06Z" fill="#CAA671" />
<path d="M 1.4013277126732008e-06 2.4781706740917286e-06 L 55.435501401329454 2.4781776450488733e-06 L 55.43550140131383 94.0402024781777 L 1.4013120924972999e-06 94.04020247817073Z" fill="#CAA671" />
<path d="M 1.4013277126732008e-06 2.4781706740917286e-06 L 1.4013120924972999e-06 94.04020247817073 L 1.446016238742423e-06 94.04020247817394 L 1.446031858918324e-06 2.4781738888535187e-06Z" fill="#CAA671" />
<path d="M 1.4013120924972999e-06 94.04020247817073 L 55.43550140131383 94.0402024781777 L 55.4355014460178 94.04020247817984 L 1.446016238742423e-06 94.04020247817394Z" fill="#CAA671" />
<path d="M 55.43550140131383 94.0402024781777 L 55.435501401329454 2.4781776450488733e-06 L 55.43550144603342 2.4781797769435343e-06 L 55.4355014460178 94.04020247817984Z" fill="#CAA671" />
<path d="M 55.4355014460178 94.04020247817984 L 55.43550144603342 2.4781797769435343e-06 L 1.446031858918324e-06 2.4781738888535187e-06 L 1.446016238742423e-06 94.04020247817394Z" fill="#CAA671" />
</svg>
