%TF.GenerationSoftware,KiCad,Pcbnew,10.0.2*%
%TF.CreationDate,2026-05-23T17:02:48-05:00*%
%TF.ProjectId,door-sensor,646f6f72-2d73-4656-9e73-6f722e6b6963,rev?*%
%TF.SameCoordinates,Original*%
%TF.FileFunction,Copper,L1,Top*%
%TF.FilePolarity,Positive*%
%FSLAX46Y46*%
G04 Gerber Fmt 4.6, Leading zero omitted, Abs format (unit mm)*
G04 Created by KiCad (PCBNEW 10.0.2) date 2026-05-23 17:02:48*
%MOMM*%
%LPD*%
G01*
G04 APERTURE LIST*
G04 Aperture macros list*
%AMRoundRect*
0 Rectangle with rounded corners*
0 $1 Rounding radius*
0 $2 $3 $4 $5 $6 $7 $8 $9 X,Y pos of 4 corners*
0 Add a 4 corners polygon primitive as box body*
4,1,4,$2,$3,$4,$5,$6,$7,$8,$9,$2,$3,0*
0 Add four circle primitives for the rounded corners*
1,1,$1+$1,$2,$3*
1,1,$1+$1,$4,$5*
1,1,$1+$1,$6,$7*
1,1,$1+$1,$8,$9*
0 Add four rect primitives between the rounded corners*
20,1,$1+$1,$2,$3,$4,$5,0*
20,1,$1+$1,$4,$5,$6,$7,0*
20,1,$1+$1,$6,$7,$8,$9,0*
20,1,$1+$1,$8,$9,$2,$3,0*%
G04 Aperture macros list end*
%TA.AperFunction,ComponentPad*%
%ADD10R,1.500000X1.500000*%
%TD*%
%TA.AperFunction,ComponentPad*%
%ADD11C,1.500000*%
%TD*%
%TA.AperFunction,ComponentPad*%
%ADD12C,2.300000*%
%TD*%
%TA.AperFunction,ComponentPad*%
%ADD13RoundRect,0.250000X-1.000000X1.000000X-1.000000X-1.000000X1.000000X-1.000000X1.000000X1.000000X0*%
%TD*%
%TA.AperFunction,ComponentPad*%
%ADD14C,2.500000*%
%TD*%
%TA.AperFunction,ComponentPad*%
%ADD15RoundRect,0.357144X-1.642856X-1.642856X1.642856X-1.642856X1.642856X1.642856X-1.642856X1.642856X0*%
%TD*%
%TA.AperFunction,ComponentPad*%
%ADD16R,1.700000X1.700000*%
%TD*%
%TA.AperFunction,ComponentPad*%
%ADD17C,1.700000*%
%TD*%
%TA.AperFunction,ViaPad*%
%ADD18C,0.600000*%
%TD*%
%TA.AperFunction,Conductor*%
%ADD19C,0.400000*%
%TD*%
%TA.AperFunction,Profile*%
%ADD20C,0.200000*%
%TD*%
G04 APERTURE END LIST*
D10*
%TO.P,J2,1*%
%TO.N,/SENSE*%
X174650400Y-59055000D03*
D11*
%TO.P,J2,2*%
%TO.N,unconnected-(J2-Pad2)*%
X176430399Y-58039000D03*
%TO.P,J2,3*%
%TO.N,unconnected-(J2-Pad3)*%
X174650400Y-57023000D03*
%TO.P,J2,4*%
%TO.N,/5V*%
X176430399Y-56007000D03*
%TO.P,J2,5*%
X174650400Y-54990999D03*
%TO.P,J2,6*%
%TO.N,unconnected-(J2-Pad6)*%
X176430401Y-53975001D03*
%TO.P,J2,7*%
%TO.N,/GND*%
X174650400Y-52959000D03*
%TO.P,J2,8*%
X176430402Y-51942999D03*
D12*
%TO.P,J2,SH*%
%TO.N,unconnected-(J2-PadSH)*%
X175540400Y-63625000D03*
%TO.N,unconnected-(J2-PadSH)_1*%
X175540400Y-47365000D03*
%TD*%
D13*
%TO.P,J3,1,Pin_1_1*%
%TO.N,/5V*%
X172237400Y-68529200D03*
D14*
%TO.P,J3,2,Pin_2_2*%
%TO.N,/GND*%
X172237399Y-73609200D03*
%TO.P,J3,3,Pin_3_3*%
%TO.N,/OUT*%
X172237400Y-78689200D03*
%TD*%
D15*
%TO.P,SHIELD,1,Pin_1*%
%TO.N,unconnected-(J2-PadSH)*%
X179857400Y-67259200D03*
%TD*%
D16*
%TO.P,HALL_MODULE_PT1,1,5V_1*%
%TO.N,/5V*%
X158267400Y-77419200D03*
D17*
%TO.P,HALL_MODULE_PT1,2,GND_2*%
%TO.N,/GND*%
X155727400Y-77419200D03*
%TO.P,HALL_MODULE_PT1,3,D0_3*%
%TO.N,/SENSE*%
X153187400Y-77419200D03*
%TO.P,HALL_MODULE_PT1,4,A0_4*%
%TO.N,unconnected-(HALL_MODULE_PT1-A0-Pad4)*%
X150647400Y-77419200D03*
%TD*%
D16*
%TO.P,HALL_MODULE_PT2,1,Pin_1_1*%
%TO.N,/5V*%
X151942800Y-50749200D03*
D17*
%TO.P,HALL_MODULE_PT2,2,Pin_2_2*%
%TO.N,/GND*%
X154482800Y-50749200D03*
%TO.P,HALL_MODULE_PT2,3,Pin_3_3*%
%TO.N,/OUT*%
X157022800Y-50749200D03*
%TD*%
D18*
%TO.N,/SENSE*%
X151253900Y-61171600D03*
%TD*%
%TO.N,/5V*%
D19*
X156616400Y-54991000D02*
X175414400Y-54991000D01*
X152374600Y-50749200D02*
X156616400Y-54991000D01*
X175414400Y-54991000D02*
X176430400Y-56007000D01*
%TO.N,unconnected-(J2-PadSH)*%
X176223200Y-63625000D02*
X179857400Y-67259200D01*
%TO.N,/SENSE*%
X153370500Y-59055000D02*
X174650400Y-59055000D01*
X151253900Y-61171600D02*
X153370500Y-59055000D01*
%TO.N,/GND*%
X159537400Y-73609200D02*
X155727400Y-77419200D01*
X172237400Y-73609200D02*
X159537400Y-73609200D01*
X175532200Y-51943000D02*
X174650400Y-52824800D01*
X176430400Y-51943000D02*
X175532200Y-51943000D01*
X156558400Y-52824800D02*
X174650400Y-52824800D01*
X154482800Y-50749200D02*
X156558400Y-52824800D01*
%TD*%
D20*
X133146800Y-45110400D02*
X183146800Y-45110400D01*
X183146800Y-83110400D01*
X133146800Y-83110400D01*
X133146800Y-45110400D01*
M02*
