%TF.GenerationSoftware,KiCad,Pcbnew,10.0.2*%
%TF.CreationDate,2026-05-23T17:02:48-05:00*%
%TF.ProjectId,door-sensor,646f6f72-2d73-4656-9e73-6f722e6b6963,rev?*%
%TF.SameCoordinates,Original*%
%TF.FileFunction,Legend,Bot*%
%TF.FilePolarity,Positive*%
%FSLAX46Y46*%
G04 Gerber Fmt 4.6, Leading zero omitted, Abs format (unit mm)*
G04 Created by KiCad (PCBNEW 10.0.2) date 2026-05-23 17:02:48*
%MOMM*%
%LPD*%
G01*
G04 APERTURE LIST*
%ADD10C,0.000000*%
%ADD11C,0.200000*%
%ADD12C,0.187500*%
%ADD13C,0.120000*%
%TA.AperFunction,Profile*%
%ADD14C,0.200000*%
%TD*%
G04 APERTURE END LIST*
D10*
G36*
X146758583Y-77583044D02*
G01*
X146755966Y-77596199D01*
X146737363Y-77614802D01*
X146711053Y-77614802D01*
X146692450Y-77596199D01*
X146689833Y-77583044D01*
X146689833Y-77429140D01*
X146687199Y-77430457D01*
X146685539Y-77430911D01*
X146684982Y-77431469D01*
X146679581Y-77432543D01*
X146674263Y-77434000D01*
X146673514Y-77433750D01*
X146671827Y-77434086D01*
X146567065Y-77434086D01*
X146565376Y-77433750D01*
X146564629Y-77433999D01*
X146559317Y-77432544D01*
X146553910Y-77431469D01*
X146553352Y-77430911D01*
X146551692Y-77430457D01*
X146499311Y-77404267D01*
X146494954Y-77400886D01*
X146490377Y-77397827D01*
X146464187Y-77371636D01*
X146461126Y-77367056D01*
X146457748Y-77362703D01*
X146431557Y-77310322D01*
X146431102Y-77308661D01*
X146430545Y-77308104D01*
X146429469Y-77302699D01*
X146428015Y-77297386D01*
X146428264Y-77296638D01*
X146427928Y-77294949D01*
X146427928Y-77145923D01*
X146496678Y-77145923D01*
X146496678Y-77286833D01*
X146516746Y-77326969D01*
X146535046Y-77345269D01*
X146575180Y-77365336D01*
X146663712Y-77365336D01*
X146689833Y-77352275D01*
X146689833Y-77080481D01*
X146663712Y-77067420D01*
X146575180Y-77067420D01*
X146535047Y-77087487D01*
X146516744Y-77105790D01*
X146496678Y-77145923D01*
X146427928Y-77145923D01*
X146427928Y-77137807D01*
X146428264Y-77136118D01*
X146428015Y-77135370D01*
X146429469Y-77130057D01*
X146430545Y-77124652D01*
X146431102Y-77124095D01*
X146431557Y-77122434D01*
X146457748Y-77070053D01*
X146461126Y-77065700D01*
X146464187Y-77061119D01*
X146490377Y-77034929D01*
X146494957Y-77031869D01*
X146499311Y-77028490D01*
X146551692Y-77002299D01*
X146553352Y-77001845D01*
X146553910Y-77001287D01*
X146559314Y-77000212D01*
X146564628Y-76998757D01*
X146565375Y-76999007D01*
X146567065Y-76998670D01*
X146671827Y-76998670D01*
X146673516Y-76999007D01*
X146674264Y-76998757D01*
X146679577Y-77000212D01*
X146684982Y-77001287D01*
X146685539Y-77001845D01*
X146687200Y-77002299D01*
X146702427Y-77009913D01*
X146711053Y-77001287D01*
X146737363Y-77001287D01*
X146755966Y-77019890D01*
X146758583Y-77033045D01*
X146758583Y-77080481D01*
X146758583Y-77583044D01*
G37*
G36*
X144569526Y-76794960D02*
G01*
X144579001Y-76804454D01*
X145050430Y-77511595D01*
X145055549Y-77523992D01*
X145050390Y-77549790D01*
X145028499Y-77564384D01*
X145002701Y-77559225D01*
X144993226Y-77549731D01*
X144521798Y-76842589D01*
X144516678Y-76830192D01*
X144521837Y-76804394D01*
X144543729Y-76789800D01*
X144569526Y-76794960D01*
G37*
G36*
X145145716Y-76794960D02*
G01*
X145155191Y-76804454D01*
X145626620Y-77511595D01*
X145631739Y-77523992D01*
X145626580Y-77549790D01*
X145604689Y-77564384D01*
X145578891Y-77559225D01*
X145569416Y-77549731D01*
X145097988Y-76842589D01*
X145092868Y-76830192D01*
X145098027Y-76804394D01*
X145119919Y-76789800D01*
X145145716Y-76794960D01*
G37*
G36*
X138109233Y-76999007D02*
G01*
X138109980Y-76998757D01*
X138115294Y-77000212D01*
X138120698Y-77001287D01*
X138121256Y-77001845D01*
X138122916Y-77002299D01*
X138175297Y-77028490D01*
X138180704Y-77032687D01*
X138182446Y-77033267D01*
X138183953Y-77035208D01*
X138185893Y-77036714D01*
X138186474Y-77038457D01*
X138190670Y-77043863D01*
X138216861Y-77096244D01*
X138217316Y-77097905D01*
X138217873Y-77098462D01*
X138218949Y-77103867D01*
X138220403Y-77109180D01*
X138220154Y-77109928D01*
X138220490Y-77111617D01*
X138220490Y-77137807D01*
X138220154Y-77139497D01*
X138220403Y-77140244D01*
X138218949Y-77145558D01*
X138217873Y-77150962D01*
X138217316Y-77151519D01*
X138216861Y-77153180D01*
X138190670Y-77205560D01*
X138186474Y-77210966D01*
X138185893Y-77212709D01*
X138183953Y-77214215D01*
X138182446Y-77216156D01*
X138180704Y-77216736D01*
X138175297Y-77220933D01*
X138122916Y-77247124D01*
X138121256Y-77247578D01*
X138120698Y-77248136D01*
X138115294Y-77249211D01*
X138109980Y-77250666D01*
X138109233Y-77250416D01*
X138107543Y-77250753D01*
X138037087Y-77250753D01*
X138002213Y-77268189D01*
X137984775Y-77303064D01*
X137984775Y-77313024D01*
X138002213Y-77347899D01*
X138037087Y-77365336D01*
X138125619Y-77365336D01*
X138170742Y-77342775D01*
X138183679Y-77339233D01*
X138208637Y-77347552D01*
X138220403Y-77371085D01*
X138212084Y-77396043D01*
X138201488Y-77404267D01*
X138149106Y-77430457D01*
X138147447Y-77430911D01*
X138146889Y-77431469D01*
X138141489Y-77432543D01*
X138136170Y-77434000D01*
X138135422Y-77433750D01*
X138133734Y-77434086D01*
X138028972Y-77434086D01*
X138027284Y-77433750D01*
X138026536Y-77433999D01*
X138021225Y-77432544D01*
X138015817Y-77431469D01*
X138015260Y-77430911D01*
X138013599Y-77430457D01*
X137961218Y-77404267D01*
X137955812Y-77400070D01*
X137954069Y-77399490D01*
X137952563Y-77397549D01*
X137950622Y-77396043D01*
X137950042Y-77394300D01*
X137945845Y-77388894D01*
X137919654Y-77336513D01*
X137919200Y-77334852D01*
X137918642Y-77334295D01*
X137917567Y-77328890D01*
X137916112Y-77323577D01*
X137916362Y-77322829D01*
X137916025Y-77321140D01*
X137916025Y-77294949D01*
X137916362Y-77293259D01*
X137916112Y-77292512D01*
X137917567Y-77287198D01*
X137918642Y-77281794D01*
X137919200Y-77281236D01*
X137919654Y-77279576D01*
X137945845Y-77227195D01*
X137950042Y-77221788D01*
X137950622Y-77220046D01*
X137952563Y-77218539D01*
X137954069Y-77216599D01*
X137955812Y-77216018D01*
X137961218Y-77211822D01*
X138013599Y-77185632D01*
X138015260Y-77185177D01*
X138015817Y-77184620D01*
X138021225Y-77183544D01*
X138026536Y-77182090D01*
X138027284Y-77182338D01*
X138028972Y-77182003D01*
X138099428Y-77182003D01*
X138134303Y-77164565D01*
X138151740Y-77129692D01*
X138151740Y-77119733D01*
X138134303Y-77084858D01*
X138099428Y-77067420D01*
X138037087Y-77067420D01*
X137991964Y-77089982D01*
X137979028Y-77093524D01*
X137954069Y-77085205D01*
X137942303Y-77061673D01*
X137950622Y-77036714D01*
X137961218Y-77028490D01*
X138013599Y-77002299D01*
X138015260Y-77001845D01*
X138015817Y-77001287D01*
X138021222Y-77000212D01*
X138026535Y-76998757D01*
X138027283Y-76999007D01*
X138028972Y-76998670D01*
X138107543Y-76998670D01*
X138109233Y-76999007D01*
G37*
G36*
X138453587Y-77019890D02*
G01*
X138456204Y-77033045D01*
X138456204Y-77333092D01*
X138468382Y-77345269D01*
X138508515Y-77365336D01*
X138570857Y-77365336D01*
X138605732Y-77347899D01*
X138623168Y-77313025D01*
X138623168Y-77033045D01*
X138625785Y-77019890D01*
X138644388Y-77001287D01*
X138670698Y-77001287D01*
X138689301Y-77019890D01*
X138691918Y-77033045D01*
X138691918Y-77321140D01*
X138691583Y-77322828D01*
X138691831Y-77323576D01*
X138690377Y-77328887D01*
X138689301Y-77334295D01*
X138688744Y-77334852D01*
X138688289Y-77336513D01*
X138662099Y-77388894D01*
X138657903Y-77394300D01*
X138657322Y-77396043D01*
X138655382Y-77397549D01*
X138653875Y-77399490D01*
X138652133Y-77400070D01*
X138646726Y-77404267D01*
X138594344Y-77430457D01*
X138592685Y-77430911D01*
X138592127Y-77431469D01*
X138586727Y-77432543D01*
X138581408Y-77434000D01*
X138580660Y-77433750D01*
X138578972Y-77434086D01*
X138500400Y-77434086D01*
X138498712Y-77433750D01*
X138497964Y-77433999D01*
X138492653Y-77432544D01*
X138487245Y-77431469D01*
X138486688Y-77430911D01*
X138485027Y-77430457D01*
X138452340Y-77414113D01*
X138434984Y-77431469D01*
X138408674Y-77431469D01*
X138390071Y-77412866D01*
X138387454Y-77399711D01*
X138387454Y-77033045D01*
X138390071Y-77019890D01*
X138408674Y-77001287D01*
X138434984Y-77001287D01*
X138453587Y-77019890D01*
G37*
G36*
X139451443Y-77321140D02*
G01*
X139451107Y-77322829D01*
X139451356Y-77323577D01*
X139449902Y-77328890D01*
X139448826Y-77334295D01*
X139448269Y-77334852D01*
X139447814Y-77336513D01*
X139421623Y-77388894D01*
X139417427Y-77394300D01*
X139416846Y-77396043D01*
X139414906Y-77397549D01*
X139413399Y-77399490D01*
X139411657Y-77400070D01*
X139406250Y-77404267D01*
X139353868Y-77430457D01*
X139352209Y-77430911D01*
X139351651Y-77431469D01*
X139346251Y-77432543D01*
X139340932Y-77434000D01*
X139340184Y-77433750D01*
X139338496Y-77434086D01*
X139233734Y-77434086D01*
X139232046Y-77433750D01*
X139231298Y-77433999D01*
X139225987Y-77432544D01*
X139220579Y-77431469D01*
X139220022Y-77430911D01*
X139218361Y-77430457D01*
X139165980Y-77404267D01*
X139155384Y-77396043D01*
X139147064Y-77371085D01*
X139158830Y-77347552D01*
X139183789Y-77339232D01*
X139196725Y-77342775D01*
X139241849Y-77365336D01*
X139330381Y-77365336D01*
X139365256Y-77347899D01*
X139382693Y-77313024D01*
X139382693Y-77244558D01*
X139148421Y-77197704D01*
X139143730Y-77195755D01*
X139142008Y-77195755D01*
X139140785Y-77194531D01*
X139136035Y-77192558D01*
X139130484Y-77184230D01*
X139123405Y-77177152D01*
X139122402Y-77172107D01*
X139121442Y-77170668D01*
X139121780Y-77168980D01*
X139120788Y-77163997D01*
X139120788Y-77119732D01*
X139189538Y-77119732D01*
X139189538Y-77135816D01*
X139382693Y-77174447D01*
X139382693Y-77119733D01*
X139365256Y-77084858D01*
X139330381Y-77067420D01*
X139241849Y-77067420D01*
X139206975Y-77084858D01*
X139189538Y-77119732D01*
X139120788Y-77119732D01*
X139120788Y-77111617D01*
X139121124Y-77109930D01*
X139120874Y-77109181D01*
X139122331Y-77103863D01*
X139123405Y-77098462D01*
X139123963Y-77097905D01*
X139124417Y-77096245D01*
X139150607Y-77043863D01*
X139154804Y-77038457D01*
X139155384Y-77036714D01*
X139157325Y-77035208D01*
X139158831Y-77033267D01*
X139160574Y-77032687D01*
X139165980Y-77028490D01*
X139218361Y-77002299D01*
X139220022Y-77001845D01*
X139220579Y-77001287D01*
X139225984Y-77000212D01*
X139231297Y-76998757D01*
X139232045Y-76999007D01*
X139233734Y-76998670D01*
X139338496Y-76998670D01*
X139340186Y-76999007D01*
X139340933Y-76998757D01*
X139346247Y-77000212D01*
X139351651Y-77001287D01*
X139352209Y-77001845D01*
X139353869Y-77002299D01*
X139406250Y-77028490D01*
X139411657Y-77032687D01*
X139413399Y-77033267D01*
X139414906Y-77035208D01*
X139416846Y-77036714D01*
X139417427Y-77038457D01*
X139421623Y-77043863D01*
X139447814Y-77096244D01*
X139448269Y-77097905D01*
X139448826Y-77098462D01*
X139449902Y-77103867D01*
X139451356Y-77109180D01*
X139451107Y-77109928D01*
X139451443Y-77111617D01*
X139451443Y-77119733D01*
X139451443Y-77321140D01*
G37*
G36*
X139785424Y-76999007D02*
G01*
X139786171Y-76998757D01*
X139791485Y-77000212D01*
X139796889Y-77001287D01*
X139797447Y-77001845D01*
X139799107Y-77002299D01*
X139851488Y-77028490D01*
X139856895Y-77032687D01*
X139858637Y-77033267D01*
X139860144Y-77035208D01*
X139862084Y-77036714D01*
X139862665Y-77038457D01*
X139866861Y-77043863D01*
X139893052Y-77096244D01*
X139893507Y-77097905D01*
X139894064Y-77098462D01*
X139895140Y-77103867D01*
X139896594Y-77109180D01*
X139896345Y-77109928D01*
X139896681Y-77111617D01*
X139896681Y-77137807D01*
X139896345Y-77139497D01*
X139896594Y-77140244D01*
X139895140Y-77145558D01*
X139894064Y-77150962D01*
X139893507Y-77151519D01*
X139893052Y-77153180D01*
X139866861Y-77205560D01*
X139862665Y-77210966D01*
X139862084Y-77212709D01*
X139860144Y-77214215D01*
X139858637Y-77216156D01*
X139856895Y-77216736D01*
X139851488Y-77220933D01*
X139799107Y-77247124D01*
X139797447Y-77247578D01*
X139796889Y-77248136D01*
X139791485Y-77249211D01*
X139786171Y-77250666D01*
X139785424Y-77250416D01*
X139783734Y-77250753D01*
X139713278Y-77250753D01*
X139678404Y-77268189D01*
X139660966Y-77303064D01*
X139660966Y-77313024D01*
X139678404Y-77347899D01*
X139713278Y-77365336D01*
X139801810Y-77365336D01*
X139846933Y-77342775D01*
X139859870Y-77339233D01*
X139884828Y-77347552D01*
X139896594Y-77371085D01*
X139888275Y-77396043D01*
X139877679Y-77404267D01*
X139825297Y-77430457D01*
X139823638Y-77430911D01*
X139823080Y-77431469D01*
X139817680Y-77432543D01*
X139812361Y-77434000D01*
X139811613Y-77433750D01*
X139809925Y-77434086D01*
X139705163Y-77434086D01*
X139703475Y-77433750D01*
X139702727Y-77433999D01*
X139697416Y-77432544D01*
X139692008Y-77431469D01*
X139691451Y-77430911D01*
X139689790Y-77430457D01*
X139637409Y-77404267D01*
X139632003Y-77400070D01*
X139630260Y-77399490D01*
X139628754Y-77397549D01*
X139626813Y-77396043D01*
X139626233Y-77394300D01*
X139622036Y-77388894D01*
X139595845Y-77336513D01*
X139595391Y-77334852D01*
X139594833Y-77334295D01*
X139593758Y-77328890D01*
X139592303Y-77323577D01*
X139592553Y-77322829D01*
X139592216Y-77321140D01*
X139592216Y-77294949D01*
X139592553Y-77293259D01*
X139592303Y-77292512D01*
X139593758Y-77287198D01*
X139594833Y-77281794D01*
X139595391Y-77281236D01*
X139595845Y-77279576D01*
X139622036Y-77227195D01*
X139626233Y-77221788D01*
X139626813Y-77220046D01*
X139628754Y-77218539D01*
X139630260Y-77216599D01*
X139632003Y-77216018D01*
X139637409Y-77211822D01*
X139689790Y-77185632D01*
X139691451Y-77185177D01*
X139692008Y-77184620D01*
X139697416Y-77183544D01*
X139702727Y-77182090D01*
X139703475Y-77182338D01*
X139705163Y-77182003D01*
X139775619Y-77182003D01*
X139810494Y-77164565D01*
X139827931Y-77129692D01*
X139827931Y-77119733D01*
X139810494Y-77084858D01*
X139775619Y-77067420D01*
X139713278Y-77067420D01*
X139668155Y-77089982D01*
X139655219Y-77093524D01*
X139630260Y-77085205D01*
X139618494Y-77061673D01*
X139626813Y-77036714D01*
X139637409Y-77028490D01*
X139689790Y-77002299D01*
X139691451Y-77001845D01*
X139692008Y-77001287D01*
X139697413Y-77000212D01*
X139702726Y-76998757D01*
X139703474Y-76999007D01*
X139705163Y-76998670D01*
X139783734Y-76998670D01*
X139785424Y-76999007D01*
G37*
G36*
X140129778Y-77019890D02*
G01*
X140132395Y-77033045D01*
X140132395Y-77333092D01*
X140144573Y-77345269D01*
X140184706Y-77365336D01*
X140247048Y-77365336D01*
X140281923Y-77347899D01*
X140299359Y-77313025D01*
X140299359Y-77033045D01*
X140301976Y-77019890D01*
X140320579Y-77001287D01*
X140346889Y-77001287D01*
X140365492Y-77019890D01*
X140368109Y-77033045D01*
X140368109Y-77321140D01*
X140367774Y-77322828D01*
X140368022Y-77323576D01*
X140366568Y-77328887D01*
X140365492Y-77334295D01*
X140364935Y-77334852D01*
X140364480Y-77336513D01*
X140338290Y-77388894D01*
X140334094Y-77394300D01*
X140333513Y-77396043D01*
X140331573Y-77397549D01*
X140330066Y-77399490D01*
X140328324Y-77400070D01*
X140322917Y-77404267D01*
X140270535Y-77430457D01*
X140268876Y-77430911D01*
X140268318Y-77431469D01*
X140262918Y-77432543D01*
X140257599Y-77434000D01*
X140256851Y-77433750D01*
X140255163Y-77434086D01*
X140176591Y-77434086D01*
X140174903Y-77433750D01*
X140174155Y-77433999D01*
X140168844Y-77432544D01*
X140163436Y-77431469D01*
X140162879Y-77430911D01*
X140161218Y-77430457D01*
X140128531Y-77414113D01*
X140111175Y-77431469D01*
X140084865Y-77431469D01*
X140066262Y-77412866D01*
X140063645Y-77399711D01*
X140063645Y-77033045D01*
X140066262Y-77019890D01*
X140084865Y-77001287D01*
X140111175Y-77001287D01*
X140129778Y-77019890D01*
G37*
G36*
X140891919Y-77294949D02*
G01*
X140891583Y-77296638D01*
X140891832Y-77297386D01*
X140890378Y-77302699D01*
X140889302Y-77308104D01*
X140888745Y-77308661D01*
X140888290Y-77310322D01*
X140862099Y-77362703D01*
X140858721Y-77367056D01*
X140855660Y-77371636D01*
X140829470Y-77397827D01*
X140824893Y-77400886D01*
X140820536Y-77404267D01*
X140768154Y-77430457D01*
X140766495Y-77430911D01*
X140765937Y-77431469D01*
X140760537Y-77432543D01*
X140755218Y-77434000D01*
X140754470Y-77433750D01*
X140752782Y-77434086D01*
X140674210Y-77434086D01*
X140672522Y-77433750D01*
X140671774Y-77433999D01*
X140666463Y-77432544D01*
X140661055Y-77431469D01*
X140660498Y-77430911D01*
X140658837Y-77430457D01*
X140606456Y-77404267D01*
X140602100Y-77400886D01*
X140597522Y-77397827D01*
X140571332Y-77371636D01*
X140568272Y-77367056D01*
X140564893Y-77362703D01*
X140538702Y-77310322D01*
X140538248Y-77308661D01*
X140537690Y-77308104D01*
X140536615Y-77302699D01*
X140535160Y-77297386D01*
X140535410Y-77296638D01*
X140535073Y-77294949D01*
X140535073Y-77145923D01*
X140603823Y-77145923D01*
X140603823Y-77286833D01*
X140623892Y-77326969D01*
X140642192Y-77345269D01*
X140682325Y-77365336D01*
X140744667Y-77365336D01*
X140784802Y-77345269D01*
X140803101Y-77326969D01*
X140823169Y-77286833D01*
X140823169Y-77145923D01*
X140803103Y-77105790D01*
X140784800Y-77087487D01*
X140744667Y-77067420D01*
X140682325Y-77067420D01*
X140642193Y-77087487D01*
X140623890Y-77105790D01*
X140603823Y-77145923D01*
X140535073Y-77145923D01*
X140535073Y-77137807D01*
X140535410Y-77136118D01*
X140535160Y-77135370D01*
X140536615Y-77130057D01*
X140537690Y-77124652D01*
X140538248Y-77124095D01*
X140538702Y-77122434D01*
X140564893Y-77070053D01*
X140568272Y-77065700D01*
X140571332Y-77061119D01*
X140597522Y-77034929D01*
X140602103Y-77031869D01*
X140606456Y-77028490D01*
X140658837Y-77002299D01*
X140660498Y-77001845D01*
X140661055Y-77001287D01*
X140666460Y-77000212D01*
X140671773Y-76998757D01*
X140672521Y-76999007D01*
X140674210Y-76998670D01*
X140752782Y-76998670D01*
X140754472Y-76999007D01*
X140755219Y-76998757D01*
X140760533Y-77000212D01*
X140765937Y-77001287D01*
X140766495Y-77001845D01*
X140768155Y-77002299D01*
X140820536Y-77028490D01*
X140824890Y-77031869D01*
X140829470Y-77034929D01*
X140855660Y-77061119D01*
X140858721Y-77065700D01*
X140862099Y-77070053D01*
X140888290Y-77122434D01*
X140888745Y-77124095D01*
X140889302Y-77124652D01*
X140890378Y-77130057D01*
X140891832Y-77135370D01*
X140891583Y-77136118D01*
X140891919Y-77137807D01*
X140891919Y-77145923D01*
X140891919Y-77294949D01*
G37*
G36*
X141887157Y-77321140D02*
G01*
X141886821Y-77322829D01*
X141887070Y-77323577D01*
X141885616Y-77328890D01*
X141884540Y-77334295D01*
X141883983Y-77334852D01*
X141883528Y-77336513D01*
X141857337Y-77388894D01*
X141853141Y-77394300D01*
X141852560Y-77396043D01*
X141850620Y-77397549D01*
X141849113Y-77399490D01*
X141847371Y-77400070D01*
X141841964Y-77404267D01*
X141789582Y-77430457D01*
X141787923Y-77430911D01*
X141787365Y-77431469D01*
X141781965Y-77432543D01*
X141776646Y-77434000D01*
X141775898Y-77433750D01*
X141774210Y-77434086D01*
X141643258Y-77434086D01*
X141641570Y-77433750D01*
X141640822Y-77433999D01*
X141635511Y-77432544D01*
X141630103Y-77431469D01*
X141629546Y-77430911D01*
X141627885Y-77430457D01*
X141612658Y-77422843D01*
X141604032Y-77431469D01*
X141577722Y-77431469D01*
X141559119Y-77412866D01*
X141556502Y-77399711D01*
X141556502Y-77219616D01*
X141625252Y-77219616D01*
X141625252Y-77352276D01*
X141651373Y-77365336D01*
X141766095Y-77365336D01*
X141800970Y-77347899D01*
X141818407Y-77313024D01*
X141818407Y-77276874D01*
X141800970Y-77241999D01*
X141766095Y-77224562D01*
X141643258Y-77224562D01*
X141641570Y-77224226D01*
X141640822Y-77224475D01*
X141635511Y-77223020D01*
X141630103Y-77221945D01*
X141629546Y-77221387D01*
X141627885Y-77220933D01*
X141625252Y-77219616D01*
X141556502Y-77219616D01*
X141556502Y-77111617D01*
X141556838Y-77109930D01*
X141556588Y-77109181D01*
X141558045Y-77103863D01*
X141559119Y-77098462D01*
X141559677Y-77097905D01*
X141560131Y-77096245D01*
X141586321Y-77043863D01*
X141590518Y-77038457D01*
X141591098Y-77036714D01*
X141593039Y-77035208D01*
X141594545Y-77033267D01*
X141596288Y-77032687D01*
X141601694Y-77028490D01*
X141654075Y-77002299D01*
X141655736Y-77001845D01*
X141656293Y-77001287D01*
X141661698Y-77000212D01*
X141667011Y-76998757D01*
X141667759Y-76999007D01*
X141669448Y-76998670D01*
X141774210Y-76998670D01*
X141775900Y-76999007D01*
X141776647Y-76998757D01*
X141781961Y-77000212D01*
X141787365Y-77001287D01*
X141787923Y-77001845D01*
X141789583Y-77002299D01*
X141841964Y-77028490D01*
X141852560Y-77036714D01*
X141860879Y-77061673D01*
X141849113Y-77085205D01*
X141824154Y-77093524D01*
X141811218Y-77089982D01*
X141766095Y-77067420D01*
X141677563Y-77067420D01*
X141642689Y-77084858D01*
X141625252Y-77119732D01*
X141625252Y-77142753D01*
X141651373Y-77155812D01*
X141774210Y-77155812D01*
X141775900Y-77156148D01*
X141776647Y-77155899D01*
X141781961Y-77157353D01*
X141787365Y-77158429D01*
X141787923Y-77158986D01*
X141789583Y-77159441D01*
X141841964Y-77185632D01*
X141847371Y-77189828D01*
X141849113Y-77190409D01*
X141850620Y-77192349D01*
X141852560Y-77193856D01*
X141853141Y-77195598D01*
X141857337Y-77201005D01*
X141883528Y-77253386D01*
X141883983Y-77255046D01*
X141884540Y-77255604D01*
X141885616Y-77261008D01*
X141887070Y-77266322D01*
X141886821Y-77267069D01*
X141887157Y-77268759D01*
X141887157Y-77276874D01*
X141887157Y-77321140D01*
G37*
G36*
X142646681Y-77294949D02*
G01*
X142646345Y-77296638D01*
X142646594Y-77297386D01*
X142645140Y-77302699D01*
X142644064Y-77308104D01*
X142643507Y-77308661D01*
X142643052Y-77310322D01*
X142616861Y-77362703D01*
X142613483Y-77367056D01*
X142610422Y-77371636D01*
X142584232Y-77397827D01*
X142579655Y-77400886D01*
X142575298Y-77404267D01*
X142522916Y-77430457D01*
X142521257Y-77430911D01*
X142520699Y-77431469D01*
X142515299Y-77432543D01*
X142509980Y-77434000D01*
X142509232Y-77433750D01*
X142507544Y-77434086D01*
X142402782Y-77434086D01*
X142401094Y-77433750D01*
X142400346Y-77433999D01*
X142395035Y-77432544D01*
X142389627Y-77431469D01*
X142389070Y-77430911D01*
X142387409Y-77430457D01*
X142372182Y-77422843D01*
X142363556Y-77431469D01*
X142337246Y-77431469D01*
X142318643Y-77412866D01*
X142316026Y-77399711D01*
X142316026Y-77080481D01*
X142384776Y-77080481D01*
X142384776Y-77352276D01*
X142410897Y-77365336D01*
X142499429Y-77365336D01*
X142539564Y-77345269D01*
X142557863Y-77326969D01*
X142577931Y-77286833D01*
X142577931Y-77145923D01*
X142557865Y-77105790D01*
X142539562Y-77087487D01*
X142499429Y-77067420D01*
X142410897Y-77067420D01*
X142384776Y-77080481D01*
X142316026Y-77080481D01*
X142316026Y-76849712D01*
X142318643Y-76836557D01*
X142337246Y-76817954D01*
X142363556Y-76817954D01*
X142382159Y-76836557D01*
X142384776Y-76849712D01*
X142384776Y-77003616D01*
X142387409Y-77002299D01*
X142389070Y-77001845D01*
X142389627Y-77001287D01*
X142395032Y-77000212D01*
X142400345Y-76998757D01*
X142401093Y-76999007D01*
X142402782Y-76998670D01*
X142507544Y-76998670D01*
X142509234Y-76999007D01*
X142509981Y-76998757D01*
X142515295Y-77000212D01*
X142520699Y-77001287D01*
X142521257Y-77001845D01*
X142522917Y-77002299D01*
X142575298Y-77028490D01*
X142579652Y-77031869D01*
X142584232Y-77034929D01*
X142610422Y-77061119D01*
X142613483Y-77065700D01*
X142616861Y-77070053D01*
X142643052Y-77122434D01*
X142643507Y-77124095D01*
X142644064Y-77124652D01*
X142645140Y-77130057D01*
X142646594Y-77135370D01*
X142646345Y-77136118D01*
X142646681Y-77137807D01*
X142646681Y-77145923D01*
X142646681Y-77294949D01*
G37*
G36*
X143144299Y-77321140D02*
G01*
X143143962Y-77322829D01*
X143144212Y-77323577D01*
X143142757Y-77328890D01*
X143141682Y-77334295D01*
X143141124Y-77334852D01*
X143140670Y-77336513D01*
X143114479Y-77388894D01*
X143110282Y-77394300D01*
X143109702Y-77396043D01*
X143107761Y-77397549D01*
X143106255Y-77399490D01*
X143104512Y-77400070D01*
X143099106Y-77404267D01*
X143046724Y-77430457D01*
X143045064Y-77430911D01*
X143044507Y-77431469D01*
X143039106Y-77432543D01*
X143033788Y-77434000D01*
X143033039Y-77433750D01*
X143031352Y-77434086D01*
X142900401Y-77434086D01*
X142898713Y-77433750D01*
X142897965Y-77433999D01*
X142892654Y-77432544D01*
X142887246Y-77431469D01*
X142886689Y-77430911D01*
X142885028Y-77430457D01*
X142869801Y-77422843D01*
X142861175Y-77431469D01*
X142834865Y-77431469D01*
X142816262Y-77412866D01*
X142813645Y-77399711D01*
X142813645Y-77219616D01*
X142882395Y-77219616D01*
X142882395Y-77352276D01*
X142908516Y-77365336D01*
X143023237Y-77365336D01*
X143058111Y-77347899D01*
X143075549Y-77313024D01*
X143075549Y-77276874D01*
X143058111Y-77241999D01*
X143023237Y-77224562D01*
X142900401Y-77224562D01*
X142898713Y-77224226D01*
X142897965Y-77224475D01*
X142892654Y-77223020D01*
X142887246Y-77221945D01*
X142886689Y-77221387D01*
X142885028Y-77220933D01*
X142882395Y-77219616D01*
X142813645Y-77219616D01*
X142813645Y-77111617D01*
X142813981Y-77109930D01*
X142813731Y-77109181D01*
X142815188Y-77103863D01*
X142816262Y-77098462D01*
X142816820Y-77097905D01*
X142817274Y-77096245D01*
X142843464Y-77043863D01*
X142847661Y-77038457D01*
X142848241Y-77036714D01*
X142850182Y-77035208D01*
X142851688Y-77033267D01*
X142853431Y-77032687D01*
X142858837Y-77028490D01*
X142911217Y-77002299D01*
X142912878Y-77001845D01*
X142913435Y-77001287D01*
X142918839Y-77000212D01*
X142924153Y-76998757D01*
X142924900Y-76999007D01*
X142926590Y-76998670D01*
X143031352Y-76998670D01*
X143033041Y-76999007D01*
X143033789Y-76998757D01*
X143039102Y-77000212D01*
X143044507Y-77001287D01*
X143045064Y-77001845D01*
X143046725Y-77002299D01*
X143099106Y-77028490D01*
X143109702Y-77036714D01*
X143118021Y-77061673D01*
X143106255Y-77085205D01*
X143081296Y-77093524D01*
X143068360Y-77089982D01*
X143023237Y-77067420D01*
X142934705Y-77067420D01*
X142899832Y-77084858D01*
X142882395Y-77119732D01*
X142882395Y-77142753D01*
X142908516Y-77155812D01*
X143031352Y-77155812D01*
X143033041Y-77156148D01*
X143033789Y-77155899D01*
X143039102Y-77157353D01*
X143044507Y-77158429D01*
X143045064Y-77158986D01*
X143046725Y-77159441D01*
X143099106Y-77185632D01*
X143104512Y-77189828D01*
X143106255Y-77190409D01*
X143107761Y-77192349D01*
X143109702Y-77193856D01*
X143110282Y-77195598D01*
X143114479Y-77201005D01*
X143140670Y-77253386D01*
X143141124Y-77255046D01*
X143141682Y-77255604D01*
X143142757Y-77261008D01*
X143144212Y-77266322D01*
X143143962Y-77267069D01*
X143144299Y-77268759D01*
X143144299Y-77276874D01*
X143144299Y-77321140D01*
G37*
G36*
X144427632Y-77321140D02*
G01*
X144427295Y-77322829D01*
X144427545Y-77323577D01*
X144426090Y-77328890D01*
X144425015Y-77334295D01*
X144424457Y-77334852D01*
X144424003Y-77336513D01*
X144397812Y-77388894D01*
X144393615Y-77394300D01*
X144393035Y-77396043D01*
X144391094Y-77397549D01*
X144389588Y-77399490D01*
X144387845Y-77400070D01*
X144382439Y-77404267D01*
X144330057Y-77430457D01*
X144328397Y-77430911D01*
X144327840Y-77431469D01*
X144322439Y-77432543D01*
X144317121Y-77434000D01*
X144316372Y-77433750D01*
X144314685Y-77434086D01*
X144183733Y-77434086D01*
X144182044Y-77433750D01*
X144181297Y-77433999D01*
X144175985Y-77432544D01*
X144170578Y-77431469D01*
X144170020Y-77430911D01*
X144168360Y-77430457D01*
X144153132Y-77422843D01*
X144144507Y-77431469D01*
X144118197Y-77431469D01*
X144099594Y-77412866D01*
X144096977Y-77399711D01*
X144096977Y-77219616D01*
X144165727Y-77219616D01*
X144165727Y-77352276D01*
X144191848Y-77365336D01*
X144306570Y-77365336D01*
X144341444Y-77347899D01*
X144358882Y-77313024D01*
X144358882Y-77276874D01*
X144341444Y-77241999D01*
X144306570Y-77224562D01*
X144183733Y-77224562D01*
X144182044Y-77224226D01*
X144181297Y-77224475D01*
X144175985Y-77223020D01*
X144170578Y-77221945D01*
X144170020Y-77221387D01*
X144168360Y-77220933D01*
X144165727Y-77219616D01*
X144096977Y-77219616D01*
X144096977Y-77111617D01*
X144097312Y-77109930D01*
X144097063Y-77109181D01*
X144098519Y-77103863D01*
X144099594Y-77098462D01*
X144100151Y-77097905D01*
X144100606Y-77096245D01*
X144126796Y-77043863D01*
X144130992Y-77038457D01*
X144131573Y-77036714D01*
X144133513Y-77035208D01*
X144135020Y-77033267D01*
X144136762Y-77032687D01*
X144142169Y-77028490D01*
X144194550Y-77002299D01*
X144196210Y-77001845D01*
X144196768Y-77001287D01*
X144202172Y-77000212D01*
X144207486Y-76998757D01*
X144208233Y-76999007D01*
X144209923Y-76998670D01*
X144314685Y-76998670D01*
X144316374Y-76999007D01*
X144317122Y-76998757D01*
X144322435Y-77000212D01*
X144327840Y-77001287D01*
X144328397Y-77001845D01*
X144330058Y-77002299D01*
X144382439Y-77028490D01*
X144393035Y-77036714D01*
X144401354Y-77061673D01*
X144389588Y-77085205D01*
X144364629Y-77093524D01*
X144351693Y-77089982D01*
X144306570Y-77067420D01*
X144218038Y-77067420D01*
X144183163Y-77084858D01*
X144165727Y-77119732D01*
X144165727Y-77142753D01*
X144191848Y-77155812D01*
X144314685Y-77155812D01*
X144316374Y-77156148D01*
X144317122Y-77155899D01*
X144322435Y-77157353D01*
X144327840Y-77158429D01*
X144328397Y-77158986D01*
X144330058Y-77159441D01*
X144382439Y-77185632D01*
X144387845Y-77189828D01*
X144389588Y-77190409D01*
X144391094Y-77192349D01*
X144393035Y-77193856D01*
X144393615Y-77195598D01*
X144397812Y-77201005D01*
X144424003Y-77253386D01*
X144424457Y-77255046D01*
X144425015Y-77255604D01*
X144426090Y-77261008D01*
X144427545Y-77266322D01*
X144427295Y-77267069D01*
X144427632Y-77268759D01*
X144427632Y-77276874D01*
X144427632Y-77321140D01*
G37*
G36*
X146175897Y-76999007D02*
G01*
X146176645Y-76998757D01*
X146181958Y-77000212D01*
X146187363Y-77001287D01*
X146187920Y-77001845D01*
X146189581Y-77002299D01*
X146241962Y-77028490D01*
X146247368Y-77032687D01*
X146249111Y-77033267D01*
X146250617Y-77035208D01*
X146252558Y-77036714D01*
X146253138Y-77038457D01*
X146257335Y-77043863D01*
X146283526Y-77096244D01*
X146283980Y-77097905D01*
X146284538Y-77098462D01*
X146285613Y-77103867D01*
X146287068Y-77109180D01*
X146286818Y-77109928D01*
X146287155Y-77111617D01*
X146287155Y-77137807D01*
X146286818Y-77139497D01*
X146287068Y-77140244D01*
X146285613Y-77145558D01*
X146284538Y-77150962D01*
X146283980Y-77151519D01*
X146283526Y-77153180D01*
X146257335Y-77205560D01*
X146253138Y-77210966D01*
X146252558Y-77212709D01*
X146250617Y-77214215D01*
X146249111Y-77216156D01*
X146247368Y-77216736D01*
X146241962Y-77220933D01*
X146189581Y-77247124D01*
X146187920Y-77247578D01*
X146187363Y-77248136D01*
X146181958Y-77249211D01*
X146176645Y-77250666D01*
X146175897Y-77250416D01*
X146174208Y-77250753D01*
X146103752Y-77250753D01*
X146068877Y-77268189D01*
X146051440Y-77303064D01*
X146051440Y-77313024D01*
X146068877Y-77347899D01*
X146103752Y-77365336D01*
X146192284Y-77365336D01*
X146237407Y-77342775D01*
X146250344Y-77339233D01*
X146275302Y-77347552D01*
X146287068Y-77371085D01*
X146278749Y-77396043D01*
X146268153Y-77404267D01*
X146215771Y-77430457D01*
X146214111Y-77430911D01*
X146213554Y-77431469D01*
X146208153Y-77432543D01*
X146202835Y-77434000D01*
X146202086Y-77433750D01*
X146200399Y-77434086D01*
X146095637Y-77434086D01*
X146093948Y-77433750D01*
X146093201Y-77433999D01*
X146087889Y-77432544D01*
X146082482Y-77431469D01*
X146081924Y-77430911D01*
X146080264Y-77430457D01*
X146027883Y-77404267D01*
X146022476Y-77400070D01*
X146020734Y-77399490D01*
X146019227Y-77397549D01*
X146017287Y-77396043D01*
X146016706Y-77394300D01*
X146012510Y-77388894D01*
X145986319Y-77336513D01*
X145985864Y-77334852D01*
X145985307Y-77334295D01*
X145984231Y-77328890D01*
X145982777Y-77323577D01*
X145983026Y-77322829D01*
X145982690Y-77321140D01*
X145982690Y-77294949D01*
X145983026Y-77293259D01*
X145982777Y-77292512D01*
X145984231Y-77287198D01*
X145985307Y-77281794D01*
X145985864Y-77281236D01*
X145986319Y-77279576D01*
X146012510Y-77227195D01*
X146016706Y-77221788D01*
X146017287Y-77220046D01*
X146019227Y-77218539D01*
X146020734Y-77216599D01*
X146022476Y-77216018D01*
X146027883Y-77211822D01*
X146080264Y-77185632D01*
X146081924Y-77185177D01*
X146082482Y-77184620D01*
X146087889Y-77183544D01*
X146093201Y-77182090D01*
X146093948Y-77182338D01*
X146095637Y-77182003D01*
X146166093Y-77182003D01*
X146200967Y-77164565D01*
X146218405Y-77129692D01*
X146218405Y-77119733D01*
X146200967Y-77084858D01*
X146166093Y-77067420D01*
X146103752Y-77067420D01*
X146058629Y-77089982D01*
X146045693Y-77093524D01*
X146020734Y-77085205D01*
X146008968Y-77061673D01*
X146017287Y-77036714D01*
X146027883Y-77028490D01*
X146080264Y-77002299D01*
X146081924Y-77001845D01*
X146082482Y-77001287D01*
X146087886Y-77000212D01*
X146093200Y-76998757D01*
X146093947Y-76999007D01*
X146095637Y-76998670D01*
X146174208Y-76998670D01*
X146175897Y-76999007D01*
G37*
G36*
X147070252Y-76836557D02*
G01*
X147072869Y-76849712D01*
X147072869Y-76998670D01*
X147117066Y-76998670D01*
X147130221Y-77001287D01*
X147148824Y-77019890D01*
X147148824Y-77046200D01*
X147130221Y-77064803D01*
X147117066Y-77067420D01*
X147072869Y-77067420D01*
X147072869Y-77321140D01*
X147072533Y-77322828D01*
X147072782Y-77323576D01*
X147071327Y-77328887D01*
X147070252Y-77334295D01*
X147069694Y-77334852D01*
X147069240Y-77336513D01*
X147043050Y-77388894D01*
X147038853Y-77394300D01*
X147038273Y-77396043D01*
X147036332Y-77397549D01*
X147034826Y-77399490D01*
X147033083Y-77400070D01*
X147027677Y-77404267D01*
X146975295Y-77430457D01*
X146973635Y-77430911D01*
X146973078Y-77431469D01*
X146967677Y-77432543D01*
X146962359Y-77434000D01*
X146961610Y-77433750D01*
X146959923Y-77434086D01*
X146907542Y-77434086D01*
X146894387Y-77431469D01*
X146875784Y-77412866D01*
X146875784Y-77386556D01*
X146894387Y-77367953D01*
X146907542Y-77365336D01*
X146951808Y-77365336D01*
X146986682Y-77347899D01*
X147004119Y-77313025D01*
X147004119Y-77067420D01*
X146907542Y-77067420D01*
X146894387Y-77064803D01*
X146875784Y-77046200D01*
X146875784Y-77019890D01*
X146894387Y-77001287D01*
X146907542Y-76998670D01*
X147004119Y-76998670D01*
X147004119Y-76849712D01*
X147006736Y-76836557D01*
X147025339Y-76817954D01*
X147051649Y-76817954D01*
X147070252Y-76836557D01*
G37*
G36*
X147384538Y-76836557D02*
G01*
X147387155Y-76849712D01*
X147387155Y-76998670D01*
X147431352Y-76998670D01*
X147444507Y-77001287D01*
X147463110Y-77019890D01*
X147463110Y-77046200D01*
X147444507Y-77064803D01*
X147431352Y-77067420D01*
X147387155Y-77067420D01*
X147387155Y-77321140D01*
X147386819Y-77322828D01*
X147387068Y-77323576D01*
X147385613Y-77328887D01*
X147384538Y-77334295D01*
X147383980Y-77334852D01*
X147383526Y-77336513D01*
X147357336Y-77388894D01*
X147353139Y-77394300D01*
X147352559Y-77396043D01*
X147350618Y-77397549D01*
X147349112Y-77399490D01*
X147347369Y-77400070D01*
X147341963Y-77404267D01*
X147289581Y-77430457D01*
X147287921Y-77430911D01*
X147287364Y-77431469D01*
X147281963Y-77432543D01*
X147276645Y-77434000D01*
X147275896Y-77433750D01*
X147274209Y-77434086D01*
X147221828Y-77434086D01*
X147208673Y-77431469D01*
X147190070Y-77412866D01*
X147190070Y-77386556D01*
X147208673Y-77367953D01*
X147221828Y-77365336D01*
X147266094Y-77365336D01*
X147300968Y-77347899D01*
X147318405Y-77313025D01*
X147318405Y-77067420D01*
X147221828Y-77067420D01*
X147208673Y-77064803D01*
X147190070Y-77046200D01*
X147190070Y-77019890D01*
X147208673Y-77001287D01*
X147221828Y-76998670D01*
X147318405Y-76998670D01*
X147318405Y-76849712D01*
X147321022Y-76836557D01*
X147339625Y-76817954D01*
X147365935Y-76817954D01*
X147384538Y-76836557D01*
G37*
G36*
X143560729Y-76836557D02*
G01*
X143563346Y-76849712D01*
X143563346Y-77399711D01*
X143560729Y-77412866D01*
X143542126Y-77431469D01*
X143515816Y-77431469D01*
X143497213Y-77412866D01*
X143494596Y-77399711D01*
X143494596Y-77256807D01*
X143480308Y-77242520D01*
X143346947Y-77420336D01*
X143336960Y-77429290D01*
X143310916Y-77433010D01*
X143289868Y-77417224D01*
X143286148Y-77391180D01*
X143291947Y-77379086D01*
X143431201Y-77193413D01*
X143295140Y-77057352D01*
X143287689Y-77046199D01*
X143287689Y-77019891D01*
X143306293Y-77001287D01*
X143332601Y-77001287D01*
X143343754Y-77008738D01*
X143494596Y-77159579D01*
X143494596Y-76849712D01*
X143497213Y-76836557D01*
X143515816Y-76817954D01*
X143542126Y-76817954D01*
X143560729Y-76836557D01*
G37*
G36*
X138943755Y-77323023D02*
G01*
X138969946Y-77349214D01*
X138977395Y-77360363D01*
X138977398Y-77360367D01*
X138977397Y-77386676D01*
X138969945Y-77397828D01*
X138943754Y-77424018D01*
X138932602Y-77431470D01*
X138906293Y-77431469D01*
X138906291Y-77431466D01*
X138895141Y-77424018D01*
X138868951Y-77397828D01*
X138861503Y-77386678D01*
X138861500Y-77386676D01*
X138861499Y-77360367D01*
X138868951Y-77349215D01*
X138895141Y-77323024D01*
X138906290Y-77315574D01*
X138906293Y-77315571D01*
X138932602Y-77315571D01*
X138943755Y-77323023D01*
G37*
G36*
X145805658Y-77323023D02*
G01*
X145831849Y-77349214D01*
X145839297Y-77360363D01*
X145839301Y-77360367D01*
X145839300Y-77386676D01*
X145831848Y-77397828D01*
X145805657Y-77424018D01*
X145794505Y-77431470D01*
X145768196Y-77431469D01*
X145768193Y-77431466D01*
X145757044Y-77424018D01*
X145730854Y-77397828D01*
X145723405Y-77386678D01*
X145723403Y-77386676D01*
X145723402Y-77360367D01*
X145730854Y-77349215D01*
X145757044Y-77323024D01*
X145768192Y-77315574D01*
X145768196Y-77315571D01*
X145794505Y-77315571D01*
X145805658Y-77323023D01*
G37*
G36*
X141360730Y-76836557D02*
G01*
X141363347Y-76849712D01*
X141363347Y-77399711D01*
X141360730Y-77412866D01*
X141342127Y-77431469D01*
X141315817Y-77431469D01*
X141297214Y-77412866D01*
X141294597Y-77399711D01*
X141294597Y-77099665D01*
X141282419Y-77087487D01*
X141242286Y-77067420D01*
X141179944Y-77067420D01*
X141145070Y-77084858D01*
X141127633Y-77119732D01*
X141127633Y-77399711D01*
X141125016Y-77412866D01*
X141106413Y-77431469D01*
X141080103Y-77431469D01*
X141061500Y-77412866D01*
X141058883Y-77399711D01*
X141058883Y-77111617D01*
X141059219Y-77109930D01*
X141058969Y-77109181D01*
X141060426Y-77103863D01*
X141061500Y-77098462D01*
X141062058Y-77097905D01*
X141062512Y-77096245D01*
X141088702Y-77043863D01*
X141092899Y-77038457D01*
X141093479Y-77036714D01*
X141095420Y-77035208D01*
X141096926Y-77033267D01*
X141098669Y-77032687D01*
X141104075Y-77028490D01*
X141156456Y-77002299D01*
X141158117Y-77001845D01*
X141158674Y-77001287D01*
X141164079Y-77000212D01*
X141169392Y-76998757D01*
X141170140Y-76999007D01*
X141171829Y-76998670D01*
X141250401Y-76998670D01*
X141252091Y-76999007D01*
X141252838Y-76998757D01*
X141258152Y-77000212D01*
X141263556Y-77001287D01*
X141264114Y-77001845D01*
X141265774Y-77002299D01*
X141294597Y-77016711D01*
X141294597Y-76849712D01*
X141297214Y-76836557D01*
X141315817Y-76817954D01*
X141342127Y-76817954D01*
X141360730Y-76836557D01*
G37*
G36*
X142120254Y-77019890D02*
G01*
X142122871Y-77033045D01*
X142122871Y-77399711D01*
X142120254Y-77412866D01*
X142101651Y-77431469D01*
X142075341Y-77431469D01*
X142056738Y-77412866D01*
X142054121Y-77399711D01*
X142054121Y-77033045D01*
X142056738Y-77019890D01*
X142075341Y-77001287D01*
X142101651Y-77001287D01*
X142120254Y-77019890D01*
G37*
G36*
X143766374Y-76999007D02*
G01*
X143767122Y-76998757D01*
X143772435Y-77000212D01*
X143777840Y-77001287D01*
X143778397Y-77001845D01*
X143780058Y-77002299D01*
X143832439Y-77028490D01*
X143835504Y-77030870D01*
X143837689Y-77019890D01*
X143856292Y-77001287D01*
X143882602Y-77001287D01*
X143901205Y-77019890D01*
X143903822Y-77033045D01*
X143903822Y-77399711D01*
X143901205Y-77412866D01*
X143882602Y-77431469D01*
X143856292Y-77431469D01*
X143837689Y-77412866D01*
X143835072Y-77399711D01*
X143835072Y-77145922D01*
X143815005Y-77105789D01*
X143796705Y-77087489D01*
X143756570Y-77067420D01*
X143712304Y-77067420D01*
X143699149Y-77064803D01*
X143680546Y-77046200D01*
X143680546Y-77019890D01*
X143699149Y-77001287D01*
X143712304Y-76998670D01*
X143764685Y-76998670D01*
X143766374Y-76999007D01*
G37*
G36*
X147882157Y-76836557D02*
G01*
X147884774Y-76849712D01*
X147884774Y-77399711D01*
X147882157Y-77412866D01*
X147863554Y-77431469D01*
X147837244Y-77431469D01*
X147818641Y-77412866D01*
X147816024Y-77399711D01*
X147816024Y-77099665D01*
X147803845Y-77087487D01*
X147763713Y-77067420D01*
X147701371Y-77067420D01*
X147666496Y-77084858D01*
X147649060Y-77119732D01*
X147649060Y-77399711D01*
X147646443Y-77412866D01*
X147627840Y-77431469D01*
X147601530Y-77431469D01*
X147582927Y-77412866D01*
X147580310Y-77399711D01*
X147580310Y-77111617D01*
X147580645Y-77109930D01*
X147580396Y-77109181D01*
X147581852Y-77103863D01*
X147582927Y-77098462D01*
X147583484Y-77097905D01*
X147583939Y-77096245D01*
X147610129Y-77043863D01*
X147614325Y-77038457D01*
X147614906Y-77036714D01*
X147616846Y-77035208D01*
X147618353Y-77033267D01*
X147620095Y-77032687D01*
X147625502Y-77028490D01*
X147677883Y-77002299D01*
X147679543Y-77001845D01*
X147680101Y-77001287D01*
X147685505Y-77000212D01*
X147690819Y-76998757D01*
X147691566Y-76999007D01*
X147693256Y-76998670D01*
X147771828Y-76998670D01*
X147773517Y-76999007D01*
X147774265Y-76998757D01*
X147779578Y-77000212D01*
X147784983Y-77001287D01*
X147785540Y-77001845D01*
X147787201Y-77002299D01*
X147816024Y-77016711D01*
X147816024Y-76849712D01*
X147818641Y-76836557D01*
X147837244Y-76817954D01*
X147863554Y-76817954D01*
X147882157Y-76836557D01*
G37*
G36*
X145805657Y-77034929D02*
G01*
X145831848Y-77061119D01*
X145839300Y-77072271D01*
X145839301Y-77098580D01*
X145839297Y-77098584D01*
X145831849Y-77109733D01*
X145805658Y-77135924D01*
X145794505Y-77143376D01*
X145768196Y-77143376D01*
X145768192Y-77143373D01*
X145757044Y-77135923D01*
X145730854Y-77109732D01*
X145723402Y-77098580D01*
X145723403Y-77072271D01*
X145723405Y-77072269D01*
X145730854Y-77061119D01*
X145757044Y-77034929D01*
X145768193Y-77027481D01*
X145768196Y-77027478D01*
X145794505Y-77027477D01*
X145805657Y-77034929D01*
G37*
G36*
X142112802Y-76825405D02*
G01*
X142138993Y-76851595D01*
X142146445Y-76862747D01*
X142146446Y-76889056D01*
X142146443Y-76889060D01*
X142138994Y-76900209D01*
X142112803Y-76926400D01*
X142101650Y-76933852D01*
X142075341Y-76933852D01*
X142075338Y-76933849D01*
X142064189Y-76926399D01*
X142037999Y-76900208D01*
X142030547Y-76889056D01*
X142030548Y-76862747D01*
X142030551Y-76862745D01*
X142037999Y-76851595D01*
X142064189Y-76825405D01*
X142075339Y-76817957D01*
X142075341Y-76817954D01*
X142101650Y-76817953D01*
X142112802Y-76825405D01*
G37*
G36*
X140700400Y-73389800D02*
G01*
X140300400Y-73389800D01*
X140300400Y-72989800D01*
X140700400Y-72989800D01*
X140700400Y-73389800D01*
G37*
G36*
X141500400Y-73389800D02*
G01*
X141900400Y-73389800D01*
X141900400Y-73789800D01*
X142300400Y-73789800D01*
X142300400Y-73389800D01*
X142300400Y-72989800D01*
X142700400Y-72989800D01*
X142700400Y-73389800D01*
X143100400Y-73389800D01*
X143100400Y-72989800D01*
X142700400Y-72989800D01*
X142700400Y-72589800D01*
X143500400Y-72589800D01*
X143500400Y-72989800D01*
X144300400Y-72989800D01*
X144300400Y-73389800D01*
X143900400Y-73389800D01*
X143900400Y-73789800D01*
X143500400Y-73789800D01*
X143500400Y-73389800D01*
X143100400Y-73389800D01*
X143100400Y-73789800D01*
X143100400Y-74189800D01*
X142700400Y-74189800D01*
X142700400Y-73789800D01*
X142300400Y-73789800D01*
X142300400Y-74189800D01*
X141500400Y-74189800D01*
X141500400Y-74589800D01*
X141100400Y-74589800D01*
X141100400Y-74989800D01*
X141100400Y-75389800D01*
X140700400Y-75389800D01*
X140700400Y-75789800D01*
X140300400Y-75789800D01*
X140300400Y-75389800D01*
X139500400Y-75389800D01*
X139500400Y-74989800D01*
X139100400Y-74989800D01*
X139100400Y-75389800D01*
X138300400Y-75389800D01*
X138300400Y-75789800D01*
X137900400Y-75789800D01*
X137900400Y-75389800D01*
X137900400Y-74989800D01*
X137900400Y-74589800D01*
X137900400Y-73789800D01*
X138300400Y-73789800D01*
X138300400Y-73389800D01*
X138700400Y-73389800D01*
X138700400Y-73789800D01*
X138700400Y-74589800D01*
X139900400Y-74589800D01*
X139900400Y-74989800D01*
X140700400Y-74989800D01*
X140700400Y-74589800D01*
X140300400Y-74589800D01*
X140300400Y-74189800D01*
X139500400Y-74189800D01*
X139500400Y-73789800D01*
X139500400Y-72589800D01*
X139900400Y-72589800D01*
X139900400Y-73789800D01*
X141100400Y-73789800D01*
X141100400Y-73389800D01*
X141100400Y-72589800D01*
X139900400Y-72589800D01*
X139500400Y-72589800D01*
X139500400Y-72189800D01*
X139900400Y-72189800D01*
X139900400Y-71789800D01*
X140300400Y-71789800D01*
X140300400Y-72189800D01*
X140700400Y-72189800D01*
X140700400Y-71789800D01*
X141500400Y-71789800D01*
X141500400Y-72189800D01*
X141500400Y-72589800D01*
X141500400Y-73389800D01*
G37*
G36*
X139500400Y-75789800D02*
G01*
X139100400Y-75789800D01*
X139100400Y-75389800D01*
X139500400Y-75389800D01*
X139500400Y-75789800D01*
G37*
G36*
X141500400Y-75789800D02*
G01*
X141100400Y-75789800D01*
X141100400Y-75389800D01*
X141500400Y-75389800D01*
X141500400Y-75789800D01*
G37*
G36*
X143100400Y-74989800D02*
G01*
X142300400Y-74989800D01*
X142300400Y-75389800D01*
X143100400Y-75389800D01*
X143100400Y-75789800D01*
X141900400Y-75789800D01*
X141900400Y-75389800D01*
X141900400Y-74989800D01*
X141900400Y-74589800D01*
X143100400Y-74589800D01*
X143100400Y-74989800D01*
G37*
G36*
X144700400Y-75389800D02*
G01*
X144700400Y-75789800D01*
X143900400Y-75789800D01*
X143900400Y-75389800D01*
X143500400Y-75389800D01*
X143500400Y-74989800D01*
X144700400Y-74989800D01*
X144700400Y-75389800D01*
G37*
G36*
X147100400Y-74989800D02*
G01*
X145900400Y-74989800D01*
X145900400Y-73789800D01*
X147100400Y-73789800D01*
X147100400Y-74989800D01*
G37*
G36*
X147900400Y-75389800D02*
G01*
X147900400Y-75789800D01*
X145100400Y-75789800D01*
X145100400Y-75389800D01*
X145100400Y-73389800D01*
X145500400Y-73389800D01*
X145500400Y-75389800D01*
X147500400Y-75389800D01*
X147500400Y-73389800D01*
X145500400Y-73389800D01*
X145100400Y-73389800D01*
X145100400Y-72989800D01*
X147900400Y-72989800D01*
X147900400Y-73389800D01*
X147900400Y-75389800D01*
G37*
G36*
X143900400Y-74589800D02*
G01*
X143500400Y-74589800D01*
X143500400Y-74189800D01*
X143900400Y-74189800D01*
X143900400Y-74589800D01*
G37*
G36*
X144700400Y-74589800D02*
G01*
X144300400Y-74589800D01*
X144300400Y-73789800D01*
X144700400Y-73789800D01*
X144700400Y-74589800D01*
G37*
G36*
X138300400Y-73389800D02*
G01*
X137900400Y-73389800D01*
X137900400Y-72989800D01*
X138300400Y-72989800D01*
X138300400Y-73389800D01*
G37*
G36*
X138700400Y-71389800D02*
G01*
X139500400Y-71389800D01*
X139500400Y-70989800D01*
X139900400Y-70989800D01*
X139900400Y-71389800D01*
X139900400Y-71789800D01*
X139500400Y-71789800D01*
X139500400Y-72189800D01*
X139100400Y-72189800D01*
X139100400Y-72989800D01*
X138300400Y-72989800D01*
X138300400Y-72189800D01*
X138700400Y-72189800D01*
X138700400Y-71789800D01*
X138300400Y-71789800D01*
X138300400Y-72189800D01*
X137900400Y-72189800D01*
X137900400Y-71789800D01*
X137900400Y-71389800D01*
X138300400Y-71389800D01*
X138300400Y-70989800D01*
X138700400Y-70989800D01*
X138700400Y-71389800D01*
G37*
G36*
X142300400Y-72989800D02*
G01*
X141900400Y-72989800D01*
X141900400Y-72589800D01*
X142300400Y-72589800D01*
X142300400Y-72989800D01*
G37*
G36*
X144700400Y-72989800D02*
G01*
X144300400Y-72989800D01*
X144300400Y-72589800D01*
X144700400Y-72589800D01*
X144700400Y-72989800D01*
G37*
G36*
X142700400Y-72589800D02*
G01*
X142300400Y-72589800D01*
X142300400Y-72189800D01*
X142700400Y-72189800D01*
X142700400Y-72589800D01*
G37*
G36*
X143900400Y-72589800D02*
G01*
X143500400Y-72589800D01*
X143500400Y-72189800D01*
X143900400Y-72189800D01*
X143900400Y-72589800D01*
G37*
G36*
X145900400Y-72189800D02*
G01*
X146300400Y-72189800D01*
X146300400Y-72589800D01*
X145100400Y-72589800D01*
X145100400Y-72189800D01*
X145500400Y-72189800D01*
X145500400Y-71789800D01*
X145900400Y-71789800D01*
X145900400Y-72189800D01*
G37*
G36*
X147100400Y-72589800D02*
G01*
X146700400Y-72589800D01*
X146700400Y-72189800D01*
X147100400Y-72189800D01*
X147100400Y-72589800D01*
G37*
G36*
X147900400Y-71389800D02*
G01*
X147900400Y-71789800D01*
X147900400Y-72589800D01*
X147500400Y-72589800D01*
X147500400Y-71789800D01*
X146300400Y-71789800D01*
X146300400Y-71389800D01*
X147500400Y-71389800D01*
X147500400Y-70989800D01*
X147900400Y-70989800D01*
X147900400Y-71389800D01*
G37*
G36*
X142300400Y-69389800D02*
G01*
X142300400Y-69789800D01*
X141900400Y-69789800D01*
X141900400Y-70189800D01*
X141500400Y-70189800D01*
X141500400Y-70589800D01*
X141900400Y-70589800D01*
X141900400Y-70189800D01*
X142300400Y-70189800D01*
X142300400Y-70589800D01*
X142300400Y-71389800D01*
X142300400Y-71789800D01*
X142300400Y-72189800D01*
X141900400Y-72189800D01*
X141900400Y-71789800D01*
X141500400Y-71789800D01*
X141500400Y-71389800D01*
X141100400Y-71389800D01*
X141100400Y-70589800D01*
X140700400Y-70589800D01*
X140700400Y-70189800D01*
X139500400Y-70189800D01*
X139500400Y-70589800D01*
X138300400Y-70589800D01*
X138300400Y-70989800D01*
X137900400Y-70989800D01*
X137900400Y-70589800D01*
X137900400Y-70189800D01*
X137900400Y-69789800D01*
X138300400Y-69789800D01*
X138300400Y-70189800D01*
X139100400Y-70189800D01*
X139100400Y-69789800D01*
X138300400Y-69789800D01*
X138300400Y-69389800D01*
X140300400Y-69389800D01*
X140300400Y-69789800D01*
X140700400Y-69789800D01*
X140700400Y-69389800D01*
X141100400Y-69389800D01*
X141100400Y-69789800D01*
X141500400Y-69789800D01*
X141500400Y-69389800D01*
X141900400Y-69389800D01*
X141900400Y-68989800D01*
X142300400Y-68989800D01*
X142300400Y-69389800D01*
G37*
G36*
X143500400Y-71789800D02*
G01*
X143500400Y-72189800D01*
X143100400Y-72189800D01*
X143100400Y-71789800D01*
X142700400Y-71789800D01*
X142700400Y-71389800D01*
X143500400Y-71389800D01*
X143500400Y-71789800D01*
G37*
G36*
X146700400Y-69389800D02*
G01*
X146300400Y-69389800D01*
X146300400Y-69789800D01*
X146300400Y-70189800D01*
X145100400Y-70189800D01*
X145100400Y-70589800D01*
X145500400Y-70589800D01*
X145500400Y-70989800D01*
X144300400Y-70989800D01*
X144300400Y-71389800D01*
X144700400Y-71389800D01*
X144700400Y-71789800D01*
X144300400Y-71789800D01*
X144300400Y-72189800D01*
X143900400Y-72189800D01*
X143900400Y-71789800D01*
X143900400Y-71389800D01*
X143900400Y-70989800D01*
X143900400Y-70589800D01*
X143500400Y-70589800D01*
X143500400Y-70989800D01*
X142700400Y-70989800D01*
X142700400Y-70589800D01*
X142700400Y-70189800D01*
X143100400Y-70189800D01*
X143100400Y-69789800D01*
X143900400Y-69789800D01*
X143900400Y-70189800D01*
X144300400Y-70189800D01*
X144300400Y-69789800D01*
X144700400Y-69789800D01*
X144700400Y-69389800D01*
X145100400Y-69389800D01*
X145100400Y-69789800D01*
X145500400Y-69789800D01*
X145500400Y-69389800D01*
X145900400Y-69389800D01*
X145900400Y-68989800D01*
X146700400Y-68989800D01*
X146700400Y-69389800D01*
G37*
G36*
X145100400Y-72189800D02*
G01*
X144700400Y-72189800D01*
X144700400Y-71789800D01*
X145100400Y-71789800D01*
X145100400Y-72189800D01*
G37*
G36*
X145500400Y-71789800D02*
G01*
X145100400Y-71789800D01*
X145100400Y-71389800D01*
X145500400Y-71389800D01*
X145500400Y-71789800D01*
G37*
G36*
X146300400Y-71389800D02*
G01*
X145500400Y-71389800D01*
X145500400Y-70989800D01*
X146300400Y-70989800D01*
X146300400Y-71389800D01*
G37*
G36*
X140700400Y-70989800D02*
G01*
X139900400Y-70989800D01*
X139900400Y-70589800D01*
X140700400Y-70589800D01*
X140700400Y-70989800D01*
G37*
G36*
X147500400Y-70189800D02*
G01*
X147500400Y-70589800D01*
X147500400Y-70989800D01*
X147100400Y-70989800D01*
X147100400Y-70589800D01*
X146300400Y-70589800D01*
X146300400Y-70189800D01*
X147100400Y-70189800D01*
X147100400Y-69789800D01*
X147500400Y-69789800D01*
X147500400Y-70189800D01*
G37*
G36*
X143100400Y-69789800D02*
G01*
X142700400Y-69789800D01*
X142700400Y-69389800D01*
X143100400Y-69389800D01*
X143100400Y-69789800D01*
G37*
G36*
X143900400Y-68589800D02*
G01*
X143900400Y-68989800D01*
X144300400Y-68989800D01*
X144300400Y-69389800D01*
X144300400Y-69789800D01*
X143900400Y-69789800D01*
X143900400Y-69389800D01*
X143100400Y-69389800D01*
X143100400Y-68989800D01*
X143100400Y-68589800D01*
X143500400Y-68589800D01*
X143500400Y-67789800D01*
X143900400Y-67789800D01*
X143900400Y-68589800D01*
G37*
G36*
X138300400Y-69389800D02*
G01*
X137900400Y-69389800D01*
X137900400Y-68989800D01*
X138300400Y-68989800D01*
X138300400Y-69389800D01*
G37*
G36*
X140700400Y-69389800D02*
G01*
X140300400Y-69389800D01*
X140300400Y-68989800D01*
X140700400Y-68989800D01*
X140700400Y-69389800D01*
G37*
G36*
X141500400Y-69389800D02*
G01*
X141100400Y-69389800D01*
X141100400Y-68989800D01*
X141500400Y-68989800D01*
X141500400Y-69389800D01*
G37*
G36*
X145500400Y-69389800D02*
G01*
X145100400Y-69389800D01*
X145100400Y-68989800D01*
X145500400Y-68989800D01*
X145500400Y-69389800D01*
G37*
G36*
X147900400Y-69389800D02*
G01*
X147100400Y-69389800D01*
X147100400Y-68989800D01*
X147900400Y-68989800D01*
X147900400Y-69389800D01*
G37*
G36*
X142700400Y-68989800D02*
G01*
X142300400Y-68989800D01*
X142300400Y-68589800D01*
X142700400Y-68589800D01*
X142700400Y-68989800D01*
G37*
G36*
X144700400Y-68989800D02*
G01*
X144300400Y-68989800D01*
X144300400Y-68189800D01*
X144700400Y-68189800D01*
X144700400Y-68989800D01*
G37*
G36*
X139900400Y-67789800D02*
G01*
X138700400Y-67789800D01*
X138700400Y-66589800D01*
X139900400Y-66589800D01*
X139900400Y-67789800D01*
G37*
G36*
X140700400Y-68189800D02*
G01*
X140700400Y-68589800D01*
X137900400Y-68589800D01*
X137900400Y-68189800D01*
X137900400Y-66189800D01*
X138300400Y-66189800D01*
X138300400Y-68189800D01*
X140300400Y-68189800D01*
X140300400Y-66189800D01*
X138300400Y-66189800D01*
X137900400Y-66189800D01*
X137900400Y-65789800D01*
X140700400Y-65789800D01*
X140700400Y-66189800D01*
X140700400Y-68189800D01*
G37*
G36*
X141900400Y-67389800D02*
G01*
X141500400Y-67389800D01*
X141500400Y-68589800D01*
X141100400Y-68589800D01*
X141100400Y-67389800D01*
X141100400Y-66989800D01*
X141900400Y-66989800D01*
X141900400Y-67389800D01*
G37*
G36*
X142300400Y-68589800D02*
G01*
X141900400Y-68589800D01*
X141900400Y-68189800D01*
X142300400Y-68189800D01*
X142300400Y-68589800D01*
G37*
G36*
X143100400Y-68189800D02*
G01*
X143100400Y-68589800D01*
X142700400Y-68589800D01*
X142700400Y-68189800D01*
X142300400Y-68189800D01*
X142300400Y-67789800D01*
X143100400Y-67789800D01*
X143100400Y-68189800D01*
G37*
G36*
X147100400Y-67789800D02*
G01*
X145900400Y-67789800D01*
X145900400Y-66589800D01*
X147100400Y-66589800D01*
X147100400Y-67789800D01*
G37*
G36*
X147900400Y-68189800D02*
G01*
X147900400Y-68589800D01*
X145100400Y-68589800D01*
X145100400Y-68189800D01*
X145100400Y-66189800D01*
X145500400Y-66189800D01*
X145500400Y-68189800D01*
X147500400Y-68189800D01*
X147500400Y-66189800D01*
X145500400Y-66189800D01*
X145100400Y-66189800D01*
X145100400Y-65789800D01*
X147900400Y-65789800D01*
X147900400Y-66189800D01*
X147900400Y-68189800D01*
G37*
G36*
X143500400Y-67789800D02*
G01*
X143100400Y-67789800D01*
X143100400Y-67389800D01*
X143500400Y-67389800D01*
X143500400Y-67789800D01*
G37*
G36*
X144300400Y-67789800D02*
G01*
X143900400Y-67789800D01*
X143900400Y-67389800D01*
X144300400Y-67389800D01*
X144300400Y-67789800D01*
G37*
G36*
X143500400Y-66189800D02*
G01*
X142700400Y-66189800D01*
X142700400Y-66589800D01*
X143100400Y-66589800D01*
X143100400Y-66989800D01*
X143100400Y-67389800D01*
X142300400Y-67389800D01*
X142300400Y-66989800D01*
X141900400Y-66989800D01*
X141900400Y-66589800D01*
X142300400Y-66589800D01*
X142300400Y-66189800D01*
X142300400Y-65789800D01*
X143500400Y-65789800D01*
X143500400Y-66189800D01*
G37*
G36*
X144300400Y-66589800D02*
G01*
X143900400Y-66589800D01*
X143900400Y-66989800D01*
X143500400Y-66989800D01*
X143500400Y-66589800D01*
X143500400Y-66189800D01*
X144300400Y-66189800D01*
X144300400Y-66589800D01*
G37*
G36*
X141500400Y-66589800D02*
G01*
X141100400Y-66589800D01*
X141100400Y-66189800D01*
X141500400Y-66189800D01*
X141500400Y-66589800D01*
G37*
G36*
X144700400Y-66189800D02*
G01*
X144300400Y-66189800D01*
X144300400Y-65789800D01*
X144700400Y-65789800D01*
X144700400Y-66189800D01*
G37*
D11*
X148463000Y-46939200D02*
X161493200Y-46939200D01*
X161493200Y-78939200D01*
X148463000Y-78939200D01*
X148463000Y-46939200D01*
X156556717Y-54301358D02*
X156556717Y-54936358D01*
X155286717Y-55571358D01*
X153381717Y-55571358D01*
X152111717Y-54936358D01*
X152111717Y-54301358D01*
X156556717Y-54301358D01*
X151493263Y-53151980D02*
X151017073Y-53151980D01*
X151017073Y-53151980D02*
X150969454Y-52675790D01*
X150969454Y-52675790D02*
X151017073Y-52723409D01*
X151017073Y-52723409D02*
X151112311Y-52771028D01*
X151112311Y-52771028D02*
X151350406Y-52771028D01*
X151350406Y-52771028D02*
X151445644Y-52723409D01*
X151445644Y-52723409D02*
X151493263Y-52675790D01*
X151493263Y-52675790D02*
X151540882Y-52580552D01*
X151540882Y-52580552D02*
X151540882Y-52342457D01*
X151540882Y-52342457D02*
X151493263Y-52247219D01*
X151493263Y-52247219D02*
X151445644Y-52199600D01*
X151445644Y-52199600D02*
X151350406Y-52151980D01*
X151350406Y-52151980D02*
X151112311Y-52151980D01*
X151112311Y-52151980D02*
X151017073Y-52199600D01*
X151017073Y-52199600D02*
X150969454Y-52247219D01*
X151826597Y-53151980D02*
X152159930Y-52151980D01*
X152159930Y-52151980D02*
X152493263Y-53151980D01*
X154112311Y-53104361D02*
X154017073Y-53151980D01*
X154017073Y-53151980D02*
X153874216Y-53151980D01*
X153874216Y-53151980D02*
X153731359Y-53104361D01*
X153731359Y-53104361D02*
X153636121Y-53009123D01*
X153636121Y-53009123D02*
X153588502Y-52913885D01*
X153588502Y-52913885D02*
X153540883Y-52723409D01*
X153540883Y-52723409D02*
X153540883Y-52580552D01*
X153540883Y-52580552D02*
X153588502Y-52390076D01*
X153588502Y-52390076D02*
X153636121Y-52294838D01*
X153636121Y-52294838D02*
X153731359Y-52199600D01*
X153731359Y-52199600D02*
X153874216Y-52151980D01*
X153874216Y-52151980D02*
X153969454Y-52151980D01*
X153969454Y-52151980D02*
X154112311Y-52199600D01*
X154112311Y-52199600D02*
X154159930Y-52247219D01*
X154159930Y-52247219D02*
X154159930Y-52580552D01*
X154159930Y-52580552D02*
X153969454Y-52580552D01*
X154588502Y-52151980D02*
X154588502Y-53151980D01*
X154588502Y-53151980D02*
X155159930Y-52151980D01*
X155159930Y-52151980D02*
X155159930Y-53151980D01*
X155636121Y-52151980D02*
X155636121Y-53151980D01*
X155636121Y-53151980D02*
X155874216Y-53151980D01*
X155874216Y-53151980D02*
X156017073Y-53104361D01*
X156017073Y-53104361D02*
X156112311Y-53009123D01*
X156112311Y-53009123D02*
X156159930Y-52913885D01*
X156159930Y-52913885D02*
X156207549Y-52723409D01*
X156207549Y-52723409D02*
X156207549Y-52580552D01*
X156207549Y-52580552D02*
X156159930Y-52390076D01*
X156159930Y-52390076D02*
X156112311Y-52294838D01*
X156112311Y-52294838D02*
X156017073Y-52199600D01*
X156017073Y-52199600D02*
X155874216Y-52151980D01*
X155874216Y-52151980D02*
X155636121Y-52151980D01*
X157398026Y-52151980D02*
X157398026Y-53151980D01*
X157398026Y-53151980D02*
X157636121Y-53151980D01*
X157636121Y-53151980D02*
X157778978Y-53104361D01*
X157778978Y-53104361D02*
X157874216Y-53009123D01*
X157874216Y-53009123D02*
X157921835Y-52913885D01*
X157921835Y-52913885D02*
X157969454Y-52723409D01*
X157969454Y-52723409D02*
X157969454Y-52580552D01*
X157969454Y-52580552D02*
X157921835Y-52390076D01*
X157921835Y-52390076D02*
X157874216Y-52294838D01*
X157874216Y-52294838D02*
X157778978Y-52199600D01*
X157778978Y-52199600D02*
X157636121Y-52151980D01*
X157636121Y-52151980D02*
X157398026Y-52151980D01*
X152838237Y-57194181D02*
X153457284Y-57194181D01*
X153457284Y-57194181D02*
X153123951Y-56813229D01*
X153123951Y-56813229D02*
X153266808Y-56813229D01*
X153266808Y-56813229D02*
X153362046Y-56765610D01*
X153362046Y-56765610D02*
X153409665Y-56717991D01*
X153409665Y-56717991D02*
X153457284Y-56622753D01*
X153457284Y-56622753D02*
X153457284Y-56384658D01*
X153457284Y-56384658D02*
X153409665Y-56289420D01*
X153409665Y-56289420D02*
X153362046Y-56241801D01*
X153362046Y-56241801D02*
X153266808Y-56194181D01*
X153266808Y-56194181D02*
X152981094Y-56194181D01*
X152981094Y-56194181D02*
X152885856Y-56241801D01*
X152885856Y-56241801D02*
X152838237Y-56289420D01*
X154409665Y-56194181D02*
X153838237Y-56194181D01*
X154123951Y-56194181D02*
X154123951Y-57194181D01*
X154123951Y-57194181D02*
X154028713Y-57051324D01*
X154028713Y-57051324D02*
X153933475Y-56956086D01*
X153933475Y-56956086D02*
X153838237Y-56908467D01*
X155266808Y-56860848D02*
X155266808Y-56194181D01*
X155028713Y-57241801D02*
X154790618Y-56527515D01*
X154790618Y-56527515D02*
X155409665Y-56527515D01*
X156219189Y-56860848D02*
X156219189Y-56194181D01*
X155981094Y-57241801D02*
X155742999Y-56527515D01*
X155742999Y-56527515D02*
X156362046Y-56527515D01*
X151054117Y-79225483D02*
X151054117Y-79701673D01*
X151482688Y-79130245D02*
X149982688Y-79463578D01*
X149982688Y-79463578D02*
X151482688Y-79796911D01*
X149982688Y-80320721D02*
X149982688Y-80415959D01*
X149982688Y-80415959D02*
X150054117Y-80511197D01*
X150054117Y-80511197D02*
X150125545Y-80558816D01*
X150125545Y-80558816D02*
X150268402Y-80606435D01*
X150268402Y-80606435D02*
X150554117Y-80654054D01*
X150554117Y-80654054D02*
X150911260Y-80654054D01*
X150911260Y-80654054D02*
X151196974Y-80606435D01*
X151196974Y-80606435D02*
X151339831Y-80558816D01*
X151339831Y-80558816D02*
X151411260Y-80511197D01*
X151411260Y-80511197D02*
X151482688Y-80415959D01*
X151482688Y-80415959D02*
X151482688Y-80320721D01*
X151482688Y-80320721D02*
X151411260Y-80225483D01*
X151411260Y-80225483D02*
X151339831Y-80177864D01*
X151339831Y-80177864D02*
X151196974Y-80130245D01*
X151196974Y-80130245D02*
X150911260Y-80082626D01*
X150911260Y-80082626D02*
X150554117Y-80082626D01*
X150554117Y-80082626D02*
X150268402Y-80130245D01*
X150268402Y-80130245D02*
X150125545Y-80177864D01*
X150125545Y-80177864D02*
X150054117Y-80225483D01*
X150054117Y-80225483D02*
X149982688Y-80320721D01*
X153897604Y-79273102D02*
X152397604Y-79273102D01*
X152397604Y-79273102D02*
X152397604Y-79511197D01*
X152397604Y-79511197D02*
X152469033Y-79654054D01*
X152469033Y-79654054D02*
X152611890Y-79749292D01*
X152611890Y-79749292D02*
X152754747Y-79796911D01*
X152754747Y-79796911D02*
X153040461Y-79844530D01*
X153040461Y-79844530D02*
X153254747Y-79844530D01*
X153254747Y-79844530D02*
X153540461Y-79796911D01*
X153540461Y-79796911D02*
X153683318Y-79749292D01*
X153683318Y-79749292D02*
X153826176Y-79654054D01*
X153826176Y-79654054D02*
X153897604Y-79511197D01*
X153897604Y-79511197D02*
X153897604Y-79273102D01*
X152397604Y-80463578D02*
X152397604Y-80558816D01*
X152397604Y-80558816D02*
X152469033Y-80654054D01*
X152469033Y-80654054D02*
X152540461Y-80701673D01*
X152540461Y-80701673D02*
X152683318Y-80749292D01*
X152683318Y-80749292D02*
X152969033Y-80796911D01*
X152969033Y-80796911D02*
X153326176Y-80796911D01*
X153326176Y-80796911D02*
X153611890Y-80749292D01*
X153611890Y-80749292D02*
X153754747Y-80701673D01*
X153754747Y-80701673D02*
X153826176Y-80654054D01*
X153826176Y-80654054D02*
X153897604Y-80558816D01*
X153897604Y-80558816D02*
X153897604Y-80463578D01*
X153897604Y-80463578D02*
X153826176Y-80368340D01*
X153826176Y-80368340D02*
X153754747Y-80320721D01*
X153754747Y-80320721D02*
X153611890Y-80273102D01*
X153611890Y-80273102D02*
X153326176Y-80225483D01*
X153326176Y-80225483D02*
X152969033Y-80225483D01*
X152969033Y-80225483D02*
X152683318Y-80273102D01*
X152683318Y-80273102D02*
X152540461Y-80320721D01*
X152540461Y-80320721D02*
X152469033Y-80368340D01*
X152469033Y-80368340D02*
X152397604Y-80463578D01*
X154883949Y-79796911D02*
X154812520Y-79701673D01*
X154812520Y-79701673D02*
X154812520Y-79558816D01*
X154812520Y-79558816D02*
X154883949Y-79415959D01*
X154883949Y-79415959D02*
X155026806Y-79320721D01*
X155026806Y-79320721D02*
X155169663Y-79273102D01*
X155169663Y-79273102D02*
X155455377Y-79225483D01*
X155455377Y-79225483D02*
X155669663Y-79225483D01*
X155669663Y-79225483D02*
X155955377Y-79273102D01*
X155955377Y-79273102D02*
X156098234Y-79320721D01*
X156098234Y-79320721D02*
X156241092Y-79415959D01*
X156241092Y-79415959D02*
X156312520Y-79558816D01*
X156312520Y-79558816D02*
X156312520Y-79654054D01*
X156312520Y-79654054D02*
X156241092Y-79796911D01*
X156241092Y-79796911D02*
X156169663Y-79844530D01*
X156169663Y-79844530D02*
X155669663Y-79844530D01*
X155669663Y-79844530D02*
X155669663Y-79654054D01*
X156312520Y-80273102D02*
X154812520Y-80273102D01*
X154812520Y-80273102D02*
X156312520Y-80844530D01*
X156312520Y-80844530D02*
X154812520Y-80844530D01*
X156312520Y-81320721D02*
X154812520Y-81320721D01*
X154812520Y-81320721D02*
X154812520Y-81558816D01*
X154812520Y-81558816D02*
X154883949Y-81701673D01*
X154883949Y-81701673D02*
X155026806Y-81796911D01*
X155026806Y-81796911D02*
X155169663Y-81844530D01*
X155169663Y-81844530D02*
X155455377Y-81892149D01*
X155455377Y-81892149D02*
X155669663Y-81892149D01*
X155669663Y-81892149D02*
X155955377Y-81844530D01*
X155955377Y-81844530D02*
X156098234Y-81796911D01*
X156098234Y-81796911D02*
X156241092Y-81701673D01*
X156241092Y-81701673D02*
X156312520Y-81558816D01*
X156312520Y-81558816D02*
X156312520Y-81320721D01*
X157227436Y-79749292D02*
X157227436Y-79273102D01*
X157227436Y-79273102D02*
X157941722Y-79225483D01*
X157941722Y-79225483D02*
X157870293Y-79273102D01*
X157870293Y-79273102D02*
X157798865Y-79368340D01*
X157798865Y-79368340D02*
X157798865Y-79606435D01*
X157798865Y-79606435D02*
X157870293Y-79701673D01*
X157870293Y-79701673D02*
X157941722Y-79749292D01*
X157941722Y-79749292D02*
X158084579Y-79796911D01*
X158084579Y-79796911D02*
X158441722Y-79796911D01*
X158441722Y-79796911D02*
X158584579Y-79749292D01*
X158584579Y-79749292D02*
X158656008Y-79701673D01*
X158656008Y-79701673D02*
X158727436Y-79606435D01*
X158727436Y-79606435D02*
X158727436Y-79368340D01*
X158727436Y-79368340D02*
X158656008Y-79273102D01*
X158656008Y-79273102D02*
X158584579Y-79225483D01*
X157227436Y-80082626D02*
X158727436Y-80415959D01*
X158727436Y-80415959D02*
X157227436Y-80749292D01*
X159593980Y-75017526D02*
X160593980Y-75017526D01*
X160593980Y-75017526D02*
X160593980Y-74636574D01*
X160593980Y-74636574D02*
X160546361Y-74541336D01*
X160546361Y-74541336D02*
X160498742Y-74493717D01*
X160498742Y-74493717D02*
X160403504Y-74446098D01*
X160403504Y-74446098D02*
X160260647Y-74446098D01*
X160260647Y-74446098D02*
X160165409Y-74493717D01*
X160165409Y-74493717D02*
X160117790Y-74541336D01*
X160117790Y-74541336D02*
X160070171Y-74636574D01*
X160070171Y-74636574D02*
X160070171Y-75017526D01*
X159593980Y-73874669D02*
X159641600Y-73969907D01*
X159641600Y-73969907D02*
X159736838Y-74017526D01*
X159736838Y-74017526D02*
X160593980Y-74017526D01*
X159593980Y-73065145D02*
X160117790Y-73065145D01*
X160117790Y-73065145D02*
X160213028Y-73112764D01*
X160213028Y-73112764D02*
X160260647Y-73208002D01*
X160260647Y-73208002D02*
X160260647Y-73398478D01*
X160260647Y-73398478D02*
X160213028Y-73493716D01*
X159641600Y-73065145D02*
X159593980Y-73160383D01*
X159593980Y-73160383D02*
X159593980Y-73398478D01*
X159593980Y-73398478D02*
X159641600Y-73493716D01*
X159641600Y-73493716D02*
X159736838Y-73541335D01*
X159736838Y-73541335D02*
X159832076Y-73541335D01*
X159832076Y-73541335D02*
X159927314Y-73493716D01*
X159927314Y-73493716D02*
X159974933Y-73398478D01*
X159974933Y-73398478D02*
X159974933Y-73160383D01*
X159974933Y-73160383D02*
X160022552Y-73065145D01*
X159641600Y-72160383D02*
X159593980Y-72255621D01*
X159593980Y-72255621D02*
X159593980Y-72446097D01*
X159593980Y-72446097D02*
X159641600Y-72541335D01*
X159641600Y-72541335D02*
X159689219Y-72588954D01*
X159689219Y-72588954D02*
X159784457Y-72636573D01*
X159784457Y-72636573D02*
X160070171Y-72636573D01*
X160070171Y-72636573D02*
X160165409Y-72588954D01*
X160165409Y-72588954D02*
X160213028Y-72541335D01*
X160213028Y-72541335D02*
X160260647Y-72446097D01*
X160260647Y-72446097D02*
X160260647Y-72255621D01*
X160260647Y-72255621D02*
X160213028Y-72160383D01*
X159641600Y-71350859D02*
X159593980Y-71446097D01*
X159593980Y-71446097D02*
X159593980Y-71636573D01*
X159593980Y-71636573D02*
X159641600Y-71731811D01*
X159641600Y-71731811D02*
X159736838Y-71779430D01*
X159736838Y-71779430D02*
X160117790Y-71779430D01*
X160117790Y-71779430D02*
X160213028Y-71731811D01*
X160213028Y-71731811D02*
X160260647Y-71636573D01*
X160260647Y-71636573D02*
X160260647Y-71446097D01*
X160260647Y-71446097D02*
X160213028Y-71350859D01*
X160213028Y-71350859D02*
X160117790Y-71303240D01*
X160117790Y-71303240D02*
X160022552Y-71303240D01*
X160022552Y-71303240D02*
X159927314Y-71779430D01*
X160260647Y-70255620D02*
X160260647Y-69874668D01*
X160593980Y-70112763D02*
X159736838Y-70112763D01*
X159736838Y-70112763D02*
X159641600Y-70065144D01*
X159641600Y-70065144D02*
X159593980Y-69969906D01*
X159593980Y-69969906D02*
X159593980Y-69874668D01*
X159593980Y-69541334D02*
X160593980Y-69541334D01*
X159593980Y-69112763D02*
X160117790Y-69112763D01*
X160117790Y-69112763D02*
X160213028Y-69160382D01*
X160213028Y-69160382D02*
X160260647Y-69255620D01*
X160260647Y-69255620D02*
X160260647Y-69398477D01*
X160260647Y-69398477D02*
X160213028Y-69493715D01*
X160213028Y-69493715D02*
X160165409Y-69541334D01*
X159641600Y-68255620D02*
X159593980Y-68350858D01*
X159593980Y-68350858D02*
X159593980Y-68541334D01*
X159593980Y-68541334D02*
X159641600Y-68636572D01*
X159641600Y-68636572D02*
X159736838Y-68684191D01*
X159736838Y-68684191D02*
X160117790Y-68684191D01*
X160117790Y-68684191D02*
X160213028Y-68636572D01*
X160213028Y-68636572D02*
X160260647Y-68541334D01*
X160260647Y-68541334D02*
X160260647Y-68350858D01*
X160260647Y-68350858D02*
X160213028Y-68255620D01*
X160213028Y-68255620D02*
X160117790Y-68208001D01*
X160117790Y-68208001D02*
X160022552Y-68208001D01*
X160022552Y-68208001D02*
X159927314Y-68684191D01*
X159593980Y-67017524D02*
X160593980Y-67017524D01*
X160117790Y-67017524D02*
X160117790Y-66446096D01*
X159593980Y-66446096D02*
X160593980Y-66446096D01*
X159593980Y-65541334D02*
X160117790Y-65541334D01*
X160117790Y-65541334D02*
X160213028Y-65588953D01*
X160213028Y-65588953D02*
X160260647Y-65684191D01*
X160260647Y-65684191D02*
X160260647Y-65874667D01*
X160260647Y-65874667D02*
X160213028Y-65969905D01*
X159641600Y-65541334D02*
X159593980Y-65636572D01*
X159593980Y-65636572D02*
X159593980Y-65874667D01*
X159593980Y-65874667D02*
X159641600Y-65969905D01*
X159641600Y-65969905D02*
X159736838Y-66017524D01*
X159736838Y-66017524D02*
X159832076Y-66017524D01*
X159832076Y-66017524D02*
X159927314Y-65969905D01*
X159927314Y-65969905D02*
X159974933Y-65874667D01*
X159974933Y-65874667D02*
X159974933Y-65636572D01*
X159974933Y-65636572D02*
X160022552Y-65541334D01*
X159593980Y-64922286D02*
X159641600Y-65017524D01*
X159641600Y-65017524D02*
X159736838Y-65065143D01*
X159736838Y-65065143D02*
X160593980Y-65065143D01*
X159593980Y-64398476D02*
X159641600Y-64493714D01*
X159641600Y-64493714D02*
X159736838Y-64541333D01*
X159736838Y-64541333D02*
X160593980Y-64541333D01*
X159593980Y-63255618D02*
X160260647Y-63255618D01*
X160165409Y-63255618D02*
X160213028Y-63207999D01*
X160213028Y-63207999D02*
X160260647Y-63112761D01*
X160260647Y-63112761D02*
X160260647Y-62969904D01*
X160260647Y-62969904D02*
X160213028Y-62874666D01*
X160213028Y-62874666D02*
X160117790Y-62827047D01*
X160117790Y-62827047D02*
X159593980Y-62827047D01*
X160117790Y-62827047D02*
X160213028Y-62779428D01*
X160213028Y-62779428D02*
X160260647Y-62684190D01*
X160260647Y-62684190D02*
X160260647Y-62541333D01*
X160260647Y-62541333D02*
X160213028Y-62446094D01*
X160213028Y-62446094D02*
X160117790Y-62398475D01*
X160117790Y-62398475D02*
X159593980Y-62398475D01*
X159593980Y-61779428D02*
X159641600Y-61874666D01*
X159641600Y-61874666D02*
X159689219Y-61922285D01*
X159689219Y-61922285D02*
X159784457Y-61969904D01*
X159784457Y-61969904D02*
X160070171Y-61969904D01*
X160070171Y-61969904D02*
X160165409Y-61922285D01*
X160165409Y-61922285D02*
X160213028Y-61874666D01*
X160213028Y-61874666D02*
X160260647Y-61779428D01*
X160260647Y-61779428D02*
X160260647Y-61636571D01*
X160260647Y-61636571D02*
X160213028Y-61541333D01*
X160213028Y-61541333D02*
X160165409Y-61493714D01*
X160165409Y-61493714D02*
X160070171Y-61446095D01*
X160070171Y-61446095D02*
X159784457Y-61446095D01*
X159784457Y-61446095D02*
X159689219Y-61493714D01*
X159689219Y-61493714D02*
X159641600Y-61541333D01*
X159641600Y-61541333D02*
X159593980Y-61636571D01*
X159593980Y-61636571D02*
X159593980Y-61779428D01*
X159593980Y-60588952D02*
X160593980Y-60588952D01*
X159641600Y-60588952D02*
X159593980Y-60684190D01*
X159593980Y-60684190D02*
X159593980Y-60874666D01*
X159593980Y-60874666D02*
X159641600Y-60969904D01*
X159641600Y-60969904D02*
X159689219Y-61017523D01*
X159689219Y-61017523D02*
X159784457Y-61065142D01*
X159784457Y-61065142D02*
X160070171Y-61065142D01*
X160070171Y-61065142D02*
X160165409Y-61017523D01*
X160165409Y-61017523D02*
X160213028Y-60969904D01*
X160213028Y-60969904D02*
X160260647Y-60874666D01*
X160260647Y-60874666D02*
X160260647Y-60684190D01*
X160260647Y-60684190D02*
X160213028Y-60588952D01*
X160260647Y-59684190D02*
X159593980Y-59684190D01*
X160260647Y-60112761D02*
X159736838Y-60112761D01*
X159736838Y-60112761D02*
X159641600Y-60065142D01*
X159641600Y-60065142D02*
X159593980Y-59969904D01*
X159593980Y-59969904D02*
X159593980Y-59827047D01*
X159593980Y-59827047D02*
X159641600Y-59731809D01*
X159641600Y-59731809D02*
X159689219Y-59684190D01*
X159593980Y-59065142D02*
X159641600Y-59160380D01*
X159641600Y-59160380D02*
X159736838Y-59207999D01*
X159736838Y-59207999D02*
X160593980Y-59207999D01*
X159641600Y-58303237D02*
X159593980Y-58398475D01*
X159593980Y-58398475D02*
X159593980Y-58588951D01*
X159593980Y-58588951D02*
X159641600Y-58684189D01*
X159641600Y-58684189D02*
X159736838Y-58731808D01*
X159736838Y-58731808D02*
X160117790Y-58731808D01*
X160117790Y-58731808D02*
X160213028Y-58684189D01*
X160213028Y-58684189D02*
X160260647Y-58588951D01*
X160260647Y-58588951D02*
X160260647Y-58398475D01*
X160260647Y-58398475D02*
X160213028Y-58303237D01*
X160213028Y-58303237D02*
X160117790Y-58255618D01*
X160117790Y-58255618D02*
X160022552Y-58255618D01*
X160022552Y-58255618D02*
X159927314Y-58731808D01*
X160260647Y-57207998D02*
X160260647Y-56827046D01*
X160593980Y-57065141D02*
X159736838Y-57065141D01*
X159736838Y-57065141D02*
X159641600Y-57017522D01*
X159641600Y-57017522D02*
X159593980Y-56922284D01*
X159593980Y-56922284D02*
X159593980Y-56827046D01*
X159593980Y-56350855D02*
X159641600Y-56446093D01*
X159641600Y-56446093D02*
X159689219Y-56493712D01*
X159689219Y-56493712D02*
X159784457Y-56541331D01*
X159784457Y-56541331D02*
X160070171Y-56541331D01*
X160070171Y-56541331D02*
X160165409Y-56493712D01*
X160165409Y-56493712D02*
X160213028Y-56446093D01*
X160213028Y-56446093D02*
X160260647Y-56350855D01*
X160260647Y-56350855D02*
X160260647Y-56207998D01*
X160260647Y-56207998D02*
X160213028Y-56112760D01*
X160213028Y-56112760D02*
X160165409Y-56065141D01*
X160165409Y-56065141D02*
X160070171Y-56017522D01*
X160070171Y-56017522D02*
X159784457Y-56017522D01*
X159784457Y-56017522D02*
X159689219Y-56065141D01*
X159689219Y-56065141D02*
X159641600Y-56112760D01*
X159641600Y-56112760D02*
X159593980Y-56207998D01*
X159593980Y-56207998D02*
X159593980Y-56350855D01*
X160260647Y-55588950D02*
X159260647Y-55588950D01*
X160213028Y-55588950D02*
X160260647Y-55493712D01*
X160260647Y-55493712D02*
X160260647Y-55303236D01*
X160260647Y-55303236D02*
X160213028Y-55207998D01*
X160213028Y-55207998D02*
X160165409Y-55160379D01*
X160165409Y-55160379D02*
X160070171Y-55112760D01*
X160070171Y-55112760D02*
X159784457Y-55112760D01*
X159784457Y-55112760D02*
X159689219Y-55160379D01*
X159689219Y-55160379D02*
X159641600Y-55207998D01*
X159641600Y-55207998D02*
X159593980Y-55303236D01*
X159593980Y-55303236D02*
X159593980Y-55493712D01*
X159593980Y-55493712D02*
X159641600Y-55588950D01*
X159641600Y-54731807D02*
X159593980Y-54636569D01*
X159593980Y-54636569D02*
X159593980Y-54446093D01*
X159593980Y-54446093D02*
X159641600Y-54350855D01*
X159641600Y-54350855D02*
X159736838Y-54303236D01*
X159736838Y-54303236D02*
X159784457Y-54303236D01*
X159784457Y-54303236D02*
X159879695Y-54350855D01*
X159879695Y-54350855D02*
X159927314Y-54446093D01*
X159927314Y-54446093D02*
X159927314Y-54588950D01*
X159927314Y-54588950D02*
X159974933Y-54684188D01*
X159974933Y-54684188D02*
X160070171Y-54731807D01*
X160070171Y-54731807D02*
X160117790Y-54731807D01*
X160117790Y-54731807D02*
X160213028Y-54684188D01*
X160213028Y-54684188D02*
X160260647Y-54588950D01*
X160260647Y-54588950D02*
X160260647Y-54446093D01*
X160260647Y-54446093D02*
X160213028Y-54350855D01*
X159593980Y-53874664D02*
X160260647Y-53874664D01*
X160593980Y-53874664D02*
X160546361Y-53922283D01*
X160546361Y-53922283D02*
X160498742Y-53874664D01*
X160498742Y-53874664D02*
X160546361Y-53827045D01*
X160546361Y-53827045D02*
X160593980Y-53874664D01*
X160593980Y-53874664D02*
X160498742Y-53874664D01*
X159593980Y-52969903D02*
X160593980Y-52969903D01*
X159641600Y-52969903D02*
X159593980Y-53065141D01*
X159593980Y-53065141D02*
X159593980Y-53255617D01*
X159593980Y-53255617D02*
X159641600Y-53350855D01*
X159641600Y-53350855D02*
X159689219Y-53398474D01*
X159689219Y-53398474D02*
X159784457Y-53446093D01*
X159784457Y-53446093D02*
X160070171Y-53446093D01*
X160070171Y-53446093D02*
X160165409Y-53398474D01*
X160165409Y-53398474D02*
X160213028Y-53350855D01*
X160213028Y-53350855D02*
X160260647Y-53255617D01*
X160260647Y-53255617D02*
X160260647Y-53065141D01*
X160260647Y-53065141D02*
X160213028Y-52969903D01*
X159641600Y-52112760D02*
X159593980Y-52207998D01*
X159593980Y-52207998D02*
X159593980Y-52398474D01*
X159593980Y-52398474D02*
X159641600Y-52493712D01*
X159641600Y-52493712D02*
X159736838Y-52541331D01*
X159736838Y-52541331D02*
X160117790Y-52541331D01*
X160117790Y-52541331D02*
X160213028Y-52493712D01*
X160213028Y-52493712D02*
X160260647Y-52398474D01*
X160260647Y-52398474D02*
X160260647Y-52207998D01*
X160260647Y-52207998D02*
X160213028Y-52112760D01*
X160213028Y-52112760D02*
X160117790Y-52065141D01*
X160117790Y-52065141D02*
X160022552Y-52065141D01*
X160022552Y-52065141D02*
X159927314Y-52541331D01*
X159593980Y-50446093D02*
X160593980Y-50446093D01*
X159641600Y-50446093D02*
X159593980Y-50541331D01*
X159593980Y-50541331D02*
X159593980Y-50731807D01*
X159593980Y-50731807D02*
X159641600Y-50827045D01*
X159641600Y-50827045D02*
X159689219Y-50874664D01*
X159689219Y-50874664D02*
X159784457Y-50922283D01*
X159784457Y-50922283D02*
X160070171Y-50922283D01*
X160070171Y-50922283D02*
X160165409Y-50874664D01*
X160165409Y-50874664D02*
X160213028Y-50827045D01*
X160213028Y-50827045D02*
X160260647Y-50731807D01*
X160260647Y-50731807D02*
X160260647Y-50541331D01*
X160260647Y-50541331D02*
X160213028Y-50446093D01*
X159593980Y-49827045D02*
X159641600Y-49922283D01*
X159641600Y-49922283D02*
X159689219Y-49969902D01*
X159689219Y-49969902D02*
X159784457Y-50017521D01*
X159784457Y-50017521D02*
X160070171Y-50017521D01*
X160070171Y-50017521D02*
X160165409Y-49969902D01*
X160165409Y-49969902D02*
X160213028Y-49922283D01*
X160213028Y-49922283D02*
X160260647Y-49827045D01*
X160260647Y-49827045D02*
X160260647Y-49684188D01*
X160260647Y-49684188D02*
X160213028Y-49588950D01*
X160213028Y-49588950D02*
X160165409Y-49541331D01*
X160165409Y-49541331D02*
X160070171Y-49493712D01*
X160070171Y-49493712D02*
X159784457Y-49493712D01*
X159784457Y-49493712D02*
X159689219Y-49541331D01*
X159689219Y-49541331D02*
X159641600Y-49588950D01*
X159641600Y-49588950D02*
X159593980Y-49684188D01*
X159593980Y-49684188D02*
X159593980Y-49827045D01*
X160260647Y-49160378D02*
X159593980Y-48969902D01*
X159593980Y-48969902D02*
X160070171Y-48779426D01*
X160070171Y-48779426D02*
X159593980Y-48588950D01*
X159593980Y-48588950D02*
X160260647Y-48398474D01*
X160260647Y-48017521D02*
X159593980Y-48017521D01*
X160165409Y-48017521D02*
X160213028Y-47969902D01*
X160213028Y-47969902D02*
X160260647Y-47874664D01*
X160260647Y-47874664D02*
X160260647Y-47731807D01*
X160260647Y-47731807D02*
X160213028Y-47636569D01*
X160213028Y-47636569D02*
X160117790Y-47588950D01*
X160117790Y-47588950D02*
X159593980Y-47588950D01*
D12*
X136524521Y-75690716D02*
X136524521Y-75119287D01*
X135524521Y-75601430D02*
X136810235Y-75440716D01*
X136810235Y-75440716D02*
X136953092Y-75351430D01*
X136953092Y-75351430D02*
X137024521Y-75199645D01*
X137024521Y-75199645D02*
X137024521Y-75056787D01*
X135524521Y-74530002D02*
X135595950Y-74663930D01*
X135595950Y-74663930D02*
X135667378Y-74726430D01*
X135667378Y-74726430D02*
X135810235Y-74780002D01*
X135810235Y-74780002D02*
X136238807Y-74726430D01*
X136238807Y-74726430D02*
X136381664Y-74637144D01*
X136381664Y-74637144D02*
X136453092Y-74556787D01*
X136453092Y-74556787D02*
X136524521Y-74405002D01*
X136524521Y-74405002D02*
X136524521Y-74190716D01*
X136524521Y-74190716D02*
X136453092Y-74056787D01*
X136453092Y-74056787D02*
X136381664Y-73994287D01*
X136381664Y-73994287D02*
X136238807Y-73940716D01*
X136238807Y-73940716D02*
X135810235Y-73994287D01*
X135810235Y-73994287D02*
X135667378Y-74083573D01*
X135667378Y-74083573D02*
X135595950Y-74163930D01*
X135595950Y-74163930D02*
X135524521Y-74315716D01*
X135524521Y-74315716D02*
X135524521Y-74530002D01*
X135524521Y-73387144D02*
X136524521Y-73262144D01*
X136238807Y-73297859D02*
X136381664Y-73208573D01*
X136381664Y-73208573D02*
X136453092Y-73128216D01*
X136453092Y-73128216D02*
X136524521Y-72976430D01*
X136524521Y-72976430D02*
X136524521Y-72833573D01*
X135524521Y-70601431D02*
X135524521Y-71315716D01*
X135524521Y-71315716D02*
X137024521Y-71128216D01*
X135524521Y-70101430D02*
X136524521Y-69976430D01*
X137024521Y-69913930D02*
X136953092Y-69994287D01*
X136953092Y-69994287D02*
X136881664Y-69931787D01*
X136881664Y-69931787D02*
X136953092Y-69851430D01*
X136953092Y-69851430D02*
X137024521Y-69913930D01*
X137024521Y-69913930D02*
X136881664Y-69931787D01*
X136524521Y-69262144D02*
X135524521Y-69387144D01*
X136381664Y-69280001D02*
X136453092Y-69199644D01*
X136453092Y-69199644D02*
X136524521Y-69047859D01*
X136524521Y-69047859D02*
X136524521Y-68833573D01*
X136524521Y-68833573D02*
X136453092Y-68699644D01*
X136453092Y-68699644D02*
X136310235Y-68646073D01*
X136310235Y-68646073D02*
X135524521Y-68744287D01*
X135524521Y-67387144D02*
X137024521Y-67199644D01*
X135595950Y-67378216D02*
X135524521Y-67530001D01*
X135524521Y-67530001D02*
X135524521Y-67815716D01*
X135524521Y-67815716D02*
X135595950Y-67949644D01*
X135595950Y-67949644D02*
X135667378Y-68012144D01*
X135667378Y-68012144D02*
X135810235Y-68065716D01*
X135810235Y-68065716D02*
X136238807Y-68012144D01*
X136238807Y-68012144D02*
X136381664Y-67922858D01*
X136381664Y-67922858D02*
X136453092Y-67842501D01*
X136453092Y-67842501D02*
X136524521Y-67690716D01*
X136524521Y-67690716D02*
X136524521Y-67405001D01*
X136524521Y-67405001D02*
X136453092Y-67271073D01*
X135524521Y-66030001D02*
X136310235Y-65931787D01*
X136310235Y-65931787D02*
X136453092Y-65985358D01*
X136453092Y-65985358D02*
X136524521Y-66119287D01*
X136524521Y-66119287D02*
X136524521Y-66405001D01*
X136524521Y-66405001D02*
X136453092Y-66556787D01*
X135595950Y-66021073D02*
X135524521Y-66172858D01*
X135524521Y-66172858D02*
X135524521Y-66530001D01*
X135524521Y-66530001D02*
X135595950Y-66663930D01*
X135595950Y-66663930D02*
X135738807Y-66717501D01*
X135738807Y-66717501D02*
X135881664Y-66699644D01*
X135881664Y-66699644D02*
X136024521Y-66610358D01*
X136024521Y-66610358D02*
X136095950Y-66458573D01*
X136095950Y-66458573D02*
X136095950Y-66101430D01*
X136095950Y-66101430D02*
X136167378Y-65949644D01*
%TO.C,HALL_MODULE_PT1*%
D13*
X149267400Y-78799200D02*
X149267400Y-76039200D01*
X156997400Y-76039200D02*
X149267400Y-76039200D01*
X156997400Y-78799200D02*
X149267400Y-78799200D01*
X156997400Y-78799200D02*
X156997400Y-76039200D01*
X158267400Y-78799200D02*
X159647400Y-78799200D01*
X159647400Y-78799200D02*
X159647400Y-77419200D01*
%TO.C,HALL_MODULE_PT2*%
X150562800Y-49369200D02*
X150562800Y-50749200D01*
X151942800Y-49369200D02*
X150562800Y-49369200D01*
X153212800Y-49369200D02*
X153212800Y-52129200D01*
X153212800Y-49369200D02*
X158402800Y-49369200D01*
X153212800Y-52129200D02*
X158402800Y-52129200D01*
X158402800Y-49369200D02*
X158402800Y-52129200D01*
%TD*%
D14*
X133146800Y-45110400D02*
X183146800Y-45110400D01*
X183146800Y-83110400D01*
X133146800Y-83110400D01*
X133146800Y-45110400D01*
M02*
