%TF.GenerationSoftware,KiCad,Pcbnew,10.0.2*%
%TF.CreationDate,2026-05-26T14:34:51-05:00*%
%TF.ProjectId,env-sensor-head,656e762d-7365-46e7-936f-722d68656164,rev?*%
%TF.SameCoordinates,Original*%
%TF.FileFunction,Legend,Top*%
%TF.FilePolarity,Positive*%
%FSLAX46Y46*%
G04 Gerber Fmt 4.6, Leading zero omitted, Abs format (unit mm)*
G04 Created by KiCad (PCBNEW 10.0.2) date 2026-05-26 14:34:51*
%MOMM*%
%LPD*%
G01*
G04 APERTURE LIST*
%ADD10C,0.187500*%
%ADD11C,0.200000*%
%ADD12C,0.125000*%
%ADD13C,0.150000*%
%ADD14C,0.062500*%
%ADD15C,0.120000*%
%TA.AperFunction,Profile*%
%ADD16C,0.200000*%
%TD*%
G04 APERTURE END LIST*
D10*
X75591683Y-77521278D02*
X76163112Y-77521278D01*
X75680969Y-78521278D02*
X75841683Y-77235564D01*
X75841683Y-77235564D02*
X75930969Y-77092707D01*
X75930969Y-77092707D02*
X76082755Y-77021278D01*
X76082755Y-77021278D02*
X76225612Y-77021278D01*
X76752398Y-78521278D02*
X76618469Y-78449850D01*
X76618469Y-78449850D02*
X76555969Y-78378421D01*
X76555969Y-78378421D02*
X76502398Y-78235564D01*
X76502398Y-78235564D02*
X76555969Y-77806992D01*
X76555969Y-77806992D02*
X76645255Y-77664135D01*
X76645255Y-77664135D02*
X76725612Y-77592707D01*
X76725612Y-77592707D02*
X76877398Y-77521278D01*
X76877398Y-77521278D02*
X77091683Y-77521278D01*
X77091683Y-77521278D02*
X77225612Y-77592707D01*
X77225612Y-77592707D02*
X77288112Y-77664135D01*
X77288112Y-77664135D02*
X77341683Y-77806992D01*
X77341683Y-77806992D02*
X77288112Y-78235564D01*
X77288112Y-78235564D02*
X77198826Y-78378421D01*
X77198826Y-78378421D02*
X77118469Y-78449850D01*
X77118469Y-78449850D02*
X76966683Y-78521278D01*
X76966683Y-78521278D02*
X76752398Y-78521278D01*
X77895255Y-78521278D02*
X78020255Y-77521278D01*
X77984541Y-77806992D02*
X78073826Y-77664135D01*
X78073826Y-77664135D02*
X78154183Y-77592707D01*
X78154183Y-77592707D02*
X78305969Y-77521278D01*
X78305969Y-77521278D02*
X78448826Y-77521278D01*
X80680969Y-78521278D02*
X79966683Y-78521278D01*
X79966683Y-78521278D02*
X80154183Y-77021278D01*
X81180969Y-78521278D02*
X81305969Y-77521278D01*
X81368469Y-77021278D02*
X81288112Y-77092707D01*
X81288112Y-77092707D02*
X81350612Y-77164135D01*
X81350612Y-77164135D02*
X81430969Y-77092707D01*
X81430969Y-77092707D02*
X81368469Y-77021278D01*
X81368469Y-77021278D02*
X81350612Y-77164135D01*
X82020255Y-77521278D02*
X81895255Y-78521278D01*
X82002398Y-77664135D02*
X82082755Y-77592707D01*
X82082755Y-77592707D02*
X82234541Y-77521278D01*
X82234541Y-77521278D02*
X82448826Y-77521278D01*
X82448826Y-77521278D02*
X82582755Y-77592707D01*
X82582755Y-77592707D02*
X82636326Y-77735564D01*
X82636326Y-77735564D02*
X82538112Y-78521278D01*
X83895255Y-78521278D02*
X84082755Y-77021278D01*
X83904184Y-78449850D02*
X83752398Y-78521278D01*
X83752398Y-78521278D02*
X83466684Y-78521278D01*
X83466684Y-78521278D02*
X83332755Y-78449850D01*
X83332755Y-78449850D02*
X83270255Y-78378421D01*
X83270255Y-78378421D02*
X83216684Y-78235564D01*
X83216684Y-78235564D02*
X83270255Y-77806992D01*
X83270255Y-77806992D02*
X83359541Y-77664135D01*
X83359541Y-77664135D02*
X83439898Y-77592707D01*
X83439898Y-77592707D02*
X83591684Y-77521278D01*
X83591684Y-77521278D02*
X83877398Y-77521278D01*
X83877398Y-77521278D02*
X84011326Y-77592707D01*
X85252398Y-78521278D02*
X85350612Y-77735564D01*
X85350612Y-77735564D02*
X85297041Y-77592707D01*
X85297041Y-77592707D02*
X85163112Y-77521278D01*
X85163112Y-77521278D02*
X84877398Y-77521278D01*
X84877398Y-77521278D02*
X84725612Y-77592707D01*
X85261327Y-78449850D02*
X85109541Y-78521278D01*
X85109541Y-78521278D02*
X84752398Y-78521278D01*
X84752398Y-78521278D02*
X84618469Y-78449850D01*
X84618469Y-78449850D02*
X84564898Y-78306992D01*
X84564898Y-78306992D02*
X84582755Y-78164135D01*
X84582755Y-78164135D02*
X84672041Y-78021278D01*
X84672041Y-78021278D02*
X84823827Y-77949850D01*
X84823827Y-77949850D02*
X85180969Y-77949850D01*
X85180969Y-77949850D02*
X85332755Y-77878421D01*
D11*
X96831860Y-81717667D02*
X96879479Y-81676000D01*
X96879479Y-81676000D02*
X97022336Y-81598619D01*
X97022336Y-81598619D02*
X97117574Y-81562905D01*
X97117574Y-81562905D02*
X97260432Y-81533143D01*
X97260432Y-81533143D02*
X97498527Y-81515286D01*
X97498527Y-81515286D02*
X97689003Y-81539095D01*
X97689003Y-81539095D02*
X97927098Y-81616476D01*
X97927098Y-81616476D02*
X98069955Y-81681952D01*
X98069955Y-81681952D02*
X98165193Y-81741476D01*
X98165193Y-81741476D02*
X98308051Y-81854571D01*
X98308051Y-81854571D02*
X98355670Y-81908143D01*
X97308051Y-82729572D02*
X97260432Y-82676000D01*
X97260432Y-82676000D02*
X97212812Y-82527191D01*
X97212812Y-82527191D02*
X97212812Y-82431953D01*
X97212812Y-82431953D02*
X97260432Y-82295048D01*
X97260432Y-82295048D02*
X97355670Y-82211715D01*
X97355670Y-82211715D02*
X97450908Y-82176000D01*
X97450908Y-82176000D02*
X97641384Y-82152191D01*
X97641384Y-82152191D02*
X97784241Y-82170048D01*
X97784241Y-82170048D02*
X97974717Y-82241476D01*
X97974717Y-82241476D02*
X98069955Y-82301000D01*
X98069955Y-82301000D02*
X98165193Y-82408143D01*
X98165193Y-82408143D02*
X98212812Y-82556953D01*
X98212812Y-82556953D02*
X98212812Y-82652191D01*
X98212812Y-82652191D02*
X98165193Y-82789096D01*
X98165193Y-82789096D02*
X98117574Y-82830762D01*
X96831860Y-83003381D02*
X96879479Y-83056953D01*
X96879479Y-83056953D02*
X97022336Y-83170048D01*
X97022336Y-83170048D02*
X97117574Y-83229572D01*
X97117574Y-83229572D02*
X97260432Y-83295048D01*
X97260432Y-83295048D02*
X97498527Y-83372429D01*
X97498527Y-83372429D02*
X97689003Y-83396238D01*
X97689003Y-83396238D02*
X97927098Y-83378381D01*
X97927098Y-83378381D02*
X98069955Y-83348619D01*
X98069955Y-83348619D02*
X98165193Y-83312905D01*
X98165193Y-83312905D02*
X98308051Y-83235524D01*
X98308051Y-83235524D02*
X98355670Y-83193857D01*
X98117574Y-84640287D02*
X98165193Y-84693858D01*
X98165193Y-84693858D02*
X98212812Y-84795048D01*
X98212812Y-84795048D02*
X98212812Y-85033144D01*
X98212812Y-85033144D02*
X98165193Y-85122429D01*
X98165193Y-85122429D02*
X98117574Y-85164096D01*
X98117574Y-85164096D02*
X98022336Y-85199810D01*
X98022336Y-85199810D02*
X97927098Y-85187906D01*
X97927098Y-85187906D02*
X97784241Y-85122429D01*
X97784241Y-85122429D02*
X97212812Y-84479572D01*
X97212812Y-84479572D02*
X97212812Y-85098620D01*
X98212812Y-85842668D02*
X98212812Y-85937906D01*
X98212812Y-85937906D02*
X98165193Y-86027191D01*
X98165193Y-86027191D02*
X98117574Y-86068858D01*
X98117574Y-86068858D02*
X98022336Y-86104572D01*
X98022336Y-86104572D02*
X97831860Y-86128382D01*
X97831860Y-86128382D02*
X97593765Y-86098620D01*
X97593765Y-86098620D02*
X97403289Y-86027191D01*
X97403289Y-86027191D02*
X97308051Y-85967668D01*
X97308051Y-85967668D02*
X97260432Y-85914096D01*
X97260432Y-85914096D02*
X97212812Y-85812906D01*
X97212812Y-85812906D02*
X97212812Y-85717668D01*
X97212812Y-85717668D02*
X97260432Y-85628382D01*
X97260432Y-85628382D02*
X97308051Y-85586715D01*
X97308051Y-85586715D02*
X97403289Y-85551001D01*
X97403289Y-85551001D02*
X97593765Y-85527191D01*
X97593765Y-85527191D02*
X97831860Y-85556953D01*
X97831860Y-85556953D02*
X98022336Y-85628382D01*
X98022336Y-85628382D02*
X98117574Y-85687906D01*
X98117574Y-85687906D02*
X98165193Y-85741477D01*
X98165193Y-85741477D02*
X98212812Y-85842668D01*
X98117574Y-86545049D02*
X98165193Y-86598620D01*
X98165193Y-86598620D02*
X98212812Y-86699810D01*
X98212812Y-86699810D02*
X98212812Y-86937906D01*
X98212812Y-86937906D02*
X98165193Y-87027191D01*
X98165193Y-87027191D02*
X98117574Y-87068858D01*
X98117574Y-87068858D02*
X98022336Y-87104572D01*
X98022336Y-87104572D02*
X97927098Y-87092668D01*
X97927098Y-87092668D02*
X97784241Y-87027191D01*
X97784241Y-87027191D02*
X97212812Y-86384334D01*
X97212812Y-86384334D02*
X97212812Y-87003382D01*
X98212812Y-87985525D02*
X98212812Y-87795049D01*
X98212812Y-87795049D02*
X98165193Y-87693858D01*
X98165193Y-87693858D02*
X98117574Y-87640287D01*
X98117574Y-87640287D02*
X97974717Y-87527191D01*
X97974717Y-87527191D02*
X97784241Y-87455763D01*
X97784241Y-87455763D02*
X97403289Y-87408144D01*
X97403289Y-87408144D02*
X97308051Y-87443858D01*
X97308051Y-87443858D02*
X97260432Y-87485525D01*
X97260432Y-87485525D02*
X97212812Y-87574811D01*
X97212812Y-87574811D02*
X97212812Y-87765287D01*
X97212812Y-87765287D02*
X97260432Y-87866477D01*
X97260432Y-87866477D02*
X97308051Y-87920049D01*
X97308051Y-87920049D02*
X97403289Y-87979572D01*
X97403289Y-87979572D02*
X97641384Y-88009334D01*
X97641384Y-88009334D02*
X97736622Y-87973620D01*
X97736622Y-87973620D02*
X97784241Y-87931953D01*
X97784241Y-87931953D02*
X97831860Y-87842668D01*
X97831860Y-87842668D02*
X97831860Y-87652191D01*
X97831860Y-87652191D02*
X97784241Y-87551001D01*
X97784241Y-87551001D02*
X97736622Y-87497430D01*
X97736622Y-87497430D02*
X97641384Y-87437906D01*
X95888583Y-81467667D02*
X95888583Y-81943857D01*
X95602868Y-81336714D02*
X96602868Y-81795048D01*
X96602868Y-81795048D02*
X95602868Y-82003381D01*
X95602868Y-82908143D02*
X96079059Y-82634333D01*
X95602868Y-82336714D02*
X96602868Y-82461714D01*
X96602868Y-82461714D02*
X96602868Y-82842667D01*
X96602868Y-82842667D02*
X96555249Y-82931952D01*
X96555249Y-82931952D02*
X96507630Y-82973619D01*
X96507630Y-82973619D02*
X96412392Y-83009333D01*
X96412392Y-83009333D02*
X96269535Y-82991476D01*
X96269535Y-82991476D02*
X96174297Y-82931952D01*
X96174297Y-82931952D02*
X96126678Y-82878381D01*
X96126678Y-82878381D02*
X96079059Y-82777191D01*
X96079059Y-82777191D02*
X96079059Y-82396238D01*
X95602868Y-83336714D02*
X96602868Y-83461714D01*
X95602868Y-83908143D02*
X96174297Y-83551000D01*
X96602868Y-84033143D02*
X96031440Y-83390286D01*
X95888583Y-84324810D02*
X95888583Y-84801000D01*
X95602868Y-84193857D02*
X96602868Y-84652191D01*
X96602868Y-84652191D02*
X95602868Y-84860524D01*
X95602868Y-85193857D02*
X96602868Y-85318857D01*
X96602868Y-85318857D02*
X96602868Y-85556953D01*
X96602868Y-85556953D02*
X96555249Y-85693857D01*
X96555249Y-85693857D02*
X96460011Y-85777191D01*
X96460011Y-85777191D02*
X96364773Y-85812905D01*
X96364773Y-85812905D02*
X96174297Y-85836715D01*
X96174297Y-85836715D02*
X96031440Y-85818857D01*
X96031440Y-85818857D02*
X95840964Y-85747429D01*
X95840964Y-85747429D02*
X95745726Y-85687905D01*
X95745726Y-85687905D02*
X95650488Y-85580762D01*
X95650488Y-85580762D02*
X95602868Y-85431953D01*
X95602868Y-85431953D02*
X95602868Y-85193857D01*
X95602868Y-86193857D02*
X96602868Y-86318857D01*
X95888583Y-86658143D02*
X95888583Y-87134333D01*
X95602868Y-86527190D02*
X96602868Y-86985524D01*
X96602868Y-86985524D02*
X95602868Y-87193857D01*
X95602868Y-88289095D02*
X96602868Y-88414095D01*
X96126678Y-88354572D02*
X96126678Y-88926000D01*
X95602868Y-88860524D02*
X96602868Y-88985524D01*
X96602868Y-89652191D02*
X96602868Y-89842667D01*
X96602868Y-89842667D02*
X96555249Y-89931952D01*
X96555249Y-89931952D02*
X96460011Y-90015286D01*
X96460011Y-90015286D02*
X96269535Y-90039095D01*
X96269535Y-90039095D02*
X95936202Y-89997429D01*
X95936202Y-89997429D02*
X95745726Y-89926000D01*
X95745726Y-89926000D02*
X95650488Y-89818857D01*
X95650488Y-89818857D02*
X95602868Y-89717667D01*
X95602868Y-89717667D02*
X95602868Y-89527191D01*
X95602868Y-89527191D02*
X95650488Y-89437905D01*
X95650488Y-89437905D02*
X95745726Y-89354572D01*
X95745726Y-89354572D02*
X95936202Y-89330762D01*
X95936202Y-89330762D02*
X96269535Y-89372429D01*
X96269535Y-89372429D02*
X96460011Y-89443857D01*
X96460011Y-89443857D02*
X96555249Y-89551000D01*
X96555249Y-89551000D02*
X96602868Y-89652191D01*
X96602868Y-90509333D02*
X95793345Y-90408143D01*
X95793345Y-90408143D02*
X95698107Y-90443857D01*
X95698107Y-90443857D02*
X95650488Y-90485524D01*
X95650488Y-90485524D02*
X95602868Y-90574810D01*
X95602868Y-90574810D02*
X95602868Y-90765286D01*
X95602868Y-90765286D02*
X95650488Y-90866476D01*
X95650488Y-90866476D02*
X95698107Y-90920048D01*
X95698107Y-90920048D02*
X95793345Y-90979571D01*
X95793345Y-90979571D02*
X96602868Y-91080762D01*
X95650488Y-91390286D02*
X95602868Y-91527190D01*
X95602868Y-91527190D02*
X95602868Y-91765286D01*
X95602868Y-91765286D02*
X95650488Y-91866476D01*
X95650488Y-91866476D02*
X95698107Y-91920048D01*
X95698107Y-91920048D02*
X95793345Y-91979571D01*
X95793345Y-91979571D02*
X95888583Y-91991476D01*
X95888583Y-91991476D02*
X95983821Y-91955762D01*
X95983821Y-91955762D02*
X96031440Y-91914095D01*
X96031440Y-91914095D02*
X96079059Y-91824810D01*
X96079059Y-91824810D02*
X96126678Y-91640286D01*
X96126678Y-91640286D02*
X96174297Y-91551000D01*
X96174297Y-91551000D02*
X96221916Y-91509333D01*
X96221916Y-91509333D02*
X96317154Y-91473619D01*
X96317154Y-91473619D02*
X96412392Y-91485524D01*
X96412392Y-91485524D02*
X96507630Y-91545048D01*
X96507630Y-91545048D02*
X96555249Y-91598619D01*
X96555249Y-91598619D02*
X96602868Y-91699810D01*
X96602868Y-91699810D02*
X96602868Y-91937905D01*
X96602868Y-91937905D02*
X96555249Y-92074810D01*
X96126678Y-92449810D02*
X96126678Y-92783143D01*
X95602868Y-92860524D02*
X95602868Y-92384333D01*
X95602868Y-92384333D02*
X96602868Y-92509333D01*
X96602868Y-92509333D02*
X96602868Y-92985524D01*
X94516734Y-81545048D02*
X94516734Y-81878381D01*
X93992924Y-81955762D02*
X93992924Y-81479571D01*
X93992924Y-81479571D02*
X94992924Y-81604571D01*
X94992924Y-81604571D02*
X94992924Y-82080762D01*
X94659591Y-82467667D02*
X93992924Y-82384333D01*
X94564353Y-82455762D02*
X94611972Y-82509333D01*
X94611972Y-82509333D02*
X94659591Y-82610524D01*
X94659591Y-82610524D02*
X94659591Y-82753381D01*
X94659591Y-82753381D02*
X94611972Y-82842667D01*
X94611972Y-82842667D02*
X94516734Y-82878381D01*
X94516734Y-82878381D02*
X93992924Y-82812905D01*
X94659591Y-83277191D02*
X93992924Y-83431953D01*
X93992924Y-83431953D02*
X94659591Y-83753381D01*
X94040544Y-84771239D02*
X93992924Y-84908143D01*
X93992924Y-84908143D02*
X93992924Y-85146239D01*
X93992924Y-85146239D02*
X94040544Y-85247429D01*
X94040544Y-85247429D02*
X94088163Y-85301001D01*
X94088163Y-85301001D02*
X94183401Y-85360524D01*
X94183401Y-85360524D02*
X94278639Y-85372429D01*
X94278639Y-85372429D02*
X94373877Y-85336715D01*
X94373877Y-85336715D02*
X94421496Y-85295048D01*
X94421496Y-85295048D02*
X94469115Y-85205763D01*
X94469115Y-85205763D02*
X94516734Y-85021239D01*
X94516734Y-85021239D02*
X94564353Y-84931953D01*
X94564353Y-84931953D02*
X94611972Y-84890286D01*
X94611972Y-84890286D02*
X94707210Y-84854572D01*
X94707210Y-84854572D02*
X94802448Y-84866477D01*
X94802448Y-84866477D02*
X94897686Y-84926001D01*
X94897686Y-84926001D02*
X94945305Y-84979572D01*
X94945305Y-84979572D02*
X94992924Y-85080763D01*
X94992924Y-85080763D02*
X94992924Y-85318858D01*
X94992924Y-85318858D02*
X94945305Y-85455763D01*
X94040544Y-86152191D02*
X93992924Y-86051001D01*
X93992924Y-86051001D02*
X93992924Y-85860524D01*
X93992924Y-85860524D02*
X94040544Y-85771239D01*
X94040544Y-85771239D02*
X94135782Y-85735524D01*
X94135782Y-85735524D02*
X94516734Y-85783144D01*
X94516734Y-85783144D02*
X94611972Y-85842667D01*
X94611972Y-85842667D02*
X94659591Y-85943858D01*
X94659591Y-85943858D02*
X94659591Y-86134334D01*
X94659591Y-86134334D02*
X94611972Y-86223620D01*
X94611972Y-86223620D02*
X94516734Y-86259334D01*
X94516734Y-86259334D02*
X94421496Y-86247429D01*
X94421496Y-86247429D02*
X94326258Y-85759334D01*
X94659591Y-86705763D02*
X93992924Y-86622429D01*
X94564353Y-86693858D02*
X94611972Y-86747429D01*
X94611972Y-86747429D02*
X94659591Y-86848620D01*
X94659591Y-86848620D02*
X94659591Y-86991477D01*
X94659591Y-86991477D02*
X94611972Y-87080763D01*
X94611972Y-87080763D02*
X94516734Y-87116477D01*
X94516734Y-87116477D02*
X93992924Y-87051001D01*
X94040544Y-87485525D02*
X93992924Y-87574810D01*
X93992924Y-87574810D02*
X93992924Y-87765287D01*
X93992924Y-87765287D02*
X94040544Y-87866477D01*
X94040544Y-87866477D02*
X94135782Y-87926001D01*
X94135782Y-87926001D02*
X94183401Y-87931953D01*
X94183401Y-87931953D02*
X94278639Y-87896239D01*
X94278639Y-87896239D02*
X94326258Y-87806953D01*
X94326258Y-87806953D02*
X94326258Y-87664096D01*
X94326258Y-87664096D02*
X94373877Y-87574810D01*
X94373877Y-87574810D02*
X94469115Y-87539096D01*
X94469115Y-87539096D02*
X94516734Y-87545049D01*
X94516734Y-87545049D02*
X94611972Y-87604572D01*
X94611972Y-87604572D02*
X94659591Y-87705763D01*
X94659591Y-87705763D02*
X94659591Y-87848620D01*
X94659591Y-87848620D02*
X94611972Y-87937906D01*
X93992924Y-88479573D02*
X94040544Y-88390287D01*
X94040544Y-88390287D02*
X94088163Y-88348620D01*
X94088163Y-88348620D02*
X94183401Y-88312906D01*
X94183401Y-88312906D02*
X94469115Y-88348620D01*
X94469115Y-88348620D02*
X94564353Y-88408144D01*
X94564353Y-88408144D02*
X94611972Y-88461715D01*
X94611972Y-88461715D02*
X94659591Y-88562906D01*
X94659591Y-88562906D02*
X94659591Y-88705763D01*
X94659591Y-88705763D02*
X94611972Y-88795049D01*
X94611972Y-88795049D02*
X94564353Y-88836715D01*
X94564353Y-88836715D02*
X94469115Y-88872430D01*
X94469115Y-88872430D02*
X94183401Y-88836715D01*
X94183401Y-88836715D02*
X94088163Y-88777192D01*
X94088163Y-88777192D02*
X94040544Y-88723620D01*
X94040544Y-88723620D02*
X93992924Y-88622430D01*
X93992924Y-88622430D02*
X93992924Y-88479573D01*
X93992924Y-89241477D02*
X94659591Y-89324811D01*
X94469115Y-89301001D02*
X94564353Y-89360525D01*
X94564353Y-89360525D02*
X94611972Y-89414096D01*
X94611972Y-89414096D02*
X94659591Y-89515287D01*
X94659591Y-89515287D02*
X94659591Y-89610525D01*
X93992924Y-90622430D02*
X94992924Y-90747430D01*
X94516734Y-90687907D02*
X94516734Y-91259335D01*
X93992924Y-91193859D02*
X94992924Y-91318859D01*
X94040544Y-92056954D02*
X93992924Y-91955764D01*
X93992924Y-91955764D02*
X93992924Y-91765287D01*
X93992924Y-91765287D02*
X94040544Y-91676002D01*
X94040544Y-91676002D02*
X94135782Y-91640287D01*
X94135782Y-91640287D02*
X94516734Y-91687907D01*
X94516734Y-91687907D02*
X94611972Y-91747430D01*
X94611972Y-91747430D02*
X94659591Y-91848621D01*
X94659591Y-91848621D02*
X94659591Y-92039097D01*
X94659591Y-92039097D02*
X94611972Y-92128383D01*
X94611972Y-92128383D02*
X94516734Y-92164097D01*
X94516734Y-92164097D02*
X94421496Y-92152192D01*
X94421496Y-92152192D02*
X94326258Y-91664097D01*
X93992924Y-92955764D02*
X94516734Y-93021240D01*
X94516734Y-93021240D02*
X94611972Y-92985526D01*
X94611972Y-92985526D02*
X94659591Y-92896240D01*
X94659591Y-92896240D02*
X94659591Y-92705764D01*
X94659591Y-92705764D02*
X94611972Y-92604573D01*
X94040544Y-92961716D02*
X93992924Y-92860526D01*
X93992924Y-92860526D02*
X93992924Y-92622430D01*
X93992924Y-92622430D02*
X94040544Y-92533145D01*
X94040544Y-92533145D02*
X94135782Y-92497430D01*
X94135782Y-92497430D02*
X94231020Y-92509335D01*
X94231020Y-92509335D02*
X94326258Y-92568859D01*
X94326258Y-92568859D02*
X94373877Y-92670050D01*
X94373877Y-92670050D02*
X94373877Y-92908145D01*
X94373877Y-92908145D02*
X94421496Y-93009335D01*
X93992924Y-93860526D02*
X94992924Y-93985526D01*
X94040544Y-93866478D02*
X93992924Y-93765288D01*
X93992924Y-93765288D02*
X93992924Y-93574812D01*
X93992924Y-93574812D02*
X94040544Y-93485526D01*
X94040544Y-93485526D02*
X94088163Y-93443859D01*
X94088163Y-93443859D02*
X94183401Y-93408145D01*
X94183401Y-93408145D02*
X94469115Y-93443859D01*
X94469115Y-93443859D02*
X94564353Y-93503383D01*
X94564353Y-93503383D02*
X94611972Y-93556954D01*
X94611972Y-93556954D02*
X94659591Y-93658145D01*
X94659591Y-93658145D02*
X94659591Y-93848621D01*
X94659591Y-93848621D02*
X94611972Y-93937907D01*
X92382980Y-81479571D02*
X93049647Y-81562905D01*
X92859171Y-81539095D02*
X92954409Y-81598619D01*
X92954409Y-81598619D02*
X93002028Y-81652190D01*
X93002028Y-81652190D02*
X93049647Y-81753381D01*
X93049647Y-81753381D02*
X93049647Y-81848619D01*
X92430600Y-82485524D02*
X92382980Y-82384334D01*
X92382980Y-82384334D02*
X92382980Y-82193857D01*
X92382980Y-82193857D02*
X92430600Y-82104572D01*
X92430600Y-82104572D02*
X92525838Y-82068857D01*
X92525838Y-82068857D02*
X92906790Y-82116477D01*
X92906790Y-82116477D02*
X93002028Y-82176000D01*
X93002028Y-82176000D02*
X93049647Y-82277191D01*
X93049647Y-82277191D02*
X93049647Y-82467667D01*
X93049647Y-82467667D02*
X93002028Y-82556953D01*
X93002028Y-82556953D02*
X92906790Y-82592667D01*
X92906790Y-82592667D02*
X92811552Y-82580762D01*
X92811552Y-82580762D02*
X92716314Y-82092667D01*
X93049647Y-82943858D02*
X92382980Y-83098620D01*
X92382980Y-83098620D02*
X93049647Y-83420048D01*
X92382980Y-85003382D02*
X92382980Y-84431953D01*
X92382980Y-84717668D02*
X93382980Y-84842668D01*
X93382980Y-84842668D02*
X93240123Y-84729572D01*
X93240123Y-84729572D02*
X93144885Y-84622430D01*
X93144885Y-84622430D02*
X93097266Y-84521239D01*
X92478219Y-85443858D02*
X92430600Y-85485525D01*
X92430600Y-85485525D02*
X92382980Y-85431953D01*
X92382980Y-85431953D02*
X92430600Y-85390287D01*
X92430600Y-85390287D02*
X92478219Y-85443858D01*
X92478219Y-85443858D02*
X92382980Y-85431953D01*
X93049647Y-86420048D02*
X92382980Y-86336715D01*
X93430600Y-86229572D02*
X92716314Y-85902191D01*
X92716314Y-85902191D02*
X92716314Y-86521239D01*
X92478219Y-86872429D02*
X92430600Y-86914096D01*
X92430600Y-86914096D02*
X92382980Y-86860524D01*
X92382980Y-86860524D02*
X92430600Y-86818858D01*
X92430600Y-86818858D02*
X92478219Y-86872429D01*
X92478219Y-86872429D02*
X92382980Y-86860524D01*
X92382980Y-87860524D02*
X92382980Y-87289095D01*
X92382980Y-87574810D02*
X93382980Y-87699810D01*
X93382980Y-87699810D02*
X93240123Y-87586714D01*
X93240123Y-87586714D02*
X93144885Y-87479572D01*
X93144885Y-87479572D02*
X93097266Y-87378381D01*
D12*
X76656119Y-87532857D02*
X76179928Y-87832857D01*
X76656119Y-88047143D02*
X75656119Y-88047143D01*
X75656119Y-88047143D02*
X75656119Y-87704286D01*
X75656119Y-87704286D02*
X75703738Y-87618571D01*
X75703738Y-87618571D02*
X75751357Y-87575714D01*
X75751357Y-87575714D02*
X75846595Y-87532857D01*
X75846595Y-87532857D02*
X75989452Y-87532857D01*
X75989452Y-87532857D02*
X76084690Y-87575714D01*
X76084690Y-87575714D02*
X76132309Y-87618571D01*
X76132309Y-87618571D02*
X76179928Y-87704286D01*
X76179928Y-87704286D02*
X76179928Y-88047143D01*
X75989452Y-86761429D02*
X76656119Y-86761429D01*
X75608500Y-86975714D02*
X76322785Y-87190000D01*
X76322785Y-87190000D02*
X76322785Y-86632857D01*
X76275166Y-86290000D02*
X76275166Y-85604286D01*
X76656119Y-84704285D02*
X76656119Y-85218571D01*
X76656119Y-84961428D02*
X75656119Y-84961428D01*
X75656119Y-84961428D02*
X75798976Y-85047142D01*
X75798976Y-85047142D02*
X75894214Y-85132857D01*
X75894214Y-85132857D02*
X75941833Y-85218571D01*
X75656119Y-84147142D02*
X75656119Y-84061428D01*
X75656119Y-84061428D02*
X75703738Y-83975714D01*
X75703738Y-83975714D02*
X75751357Y-83932857D01*
X75751357Y-83932857D02*
X75846595Y-83889999D01*
X75846595Y-83889999D02*
X76037071Y-83847142D01*
X76037071Y-83847142D02*
X76275166Y-83847142D01*
X76275166Y-83847142D02*
X76465642Y-83889999D01*
X76465642Y-83889999D02*
X76560880Y-83932857D01*
X76560880Y-83932857D02*
X76608500Y-83975714D01*
X76608500Y-83975714D02*
X76656119Y-84061428D01*
X76656119Y-84061428D02*
X76656119Y-84147142D01*
X76656119Y-84147142D02*
X76608500Y-84232857D01*
X76608500Y-84232857D02*
X76560880Y-84275714D01*
X76560880Y-84275714D02*
X76465642Y-84318571D01*
X76465642Y-84318571D02*
X76275166Y-84361428D01*
X76275166Y-84361428D02*
X76037071Y-84361428D01*
X76037071Y-84361428D02*
X75846595Y-84318571D01*
X75846595Y-84318571D02*
X75751357Y-84275714D01*
X75751357Y-84275714D02*
X75703738Y-84232857D01*
X75703738Y-84232857D02*
X75656119Y-84147142D01*
X76656119Y-83461428D02*
X75656119Y-83461428D01*
X76656119Y-82947142D02*
X76084690Y-83332856D01*
X75656119Y-82947142D02*
X76227547Y-83461428D01*
X76656119Y-82089999D02*
X76656119Y-82604285D01*
X76656119Y-82347142D02*
X75656119Y-82347142D01*
X75656119Y-82347142D02*
X75798976Y-82432856D01*
X75798976Y-82432856D02*
X75894214Y-82518571D01*
X75894214Y-82518571D02*
X75941833Y-82604285D01*
D13*
X79194819Y-87328095D02*
X78718628Y-87661428D01*
X79194819Y-87899523D02*
X78194819Y-87899523D01*
X78194819Y-87899523D02*
X78194819Y-87518571D01*
X78194819Y-87518571D02*
X78242438Y-87423333D01*
X78242438Y-87423333D02*
X78290057Y-87375714D01*
X78290057Y-87375714D02*
X78385295Y-87328095D01*
X78385295Y-87328095D02*
X78528152Y-87328095D01*
X78528152Y-87328095D02*
X78623390Y-87375714D01*
X78623390Y-87375714D02*
X78671009Y-87423333D01*
X78671009Y-87423333D02*
X78718628Y-87518571D01*
X78718628Y-87518571D02*
X78718628Y-87899523D01*
X78194819Y-86994761D02*
X78194819Y-86375714D01*
X78194819Y-86375714D02*
X78575771Y-86709047D01*
X78575771Y-86709047D02*
X78575771Y-86566190D01*
X78575771Y-86566190D02*
X78623390Y-86470952D01*
X78623390Y-86470952D02*
X78671009Y-86423333D01*
X78671009Y-86423333D02*
X78766247Y-86375714D01*
X78766247Y-86375714D02*
X79004342Y-86375714D01*
X79004342Y-86375714D02*
X79099580Y-86423333D01*
X79099580Y-86423333D02*
X79147200Y-86470952D01*
X79147200Y-86470952D02*
X79194819Y-86566190D01*
X79194819Y-86566190D02*
X79194819Y-86851904D01*
X79194819Y-86851904D02*
X79147200Y-86947142D01*
X79147200Y-86947142D02*
X79099580Y-86994761D01*
X78813866Y-85947142D02*
X78813866Y-85185238D01*
X78290057Y-84756666D02*
X78242438Y-84709047D01*
X78242438Y-84709047D02*
X78194819Y-84613809D01*
X78194819Y-84613809D02*
X78194819Y-84375714D01*
X78194819Y-84375714D02*
X78242438Y-84280476D01*
X78242438Y-84280476D02*
X78290057Y-84232857D01*
X78290057Y-84232857D02*
X78385295Y-84185238D01*
X78385295Y-84185238D02*
X78480533Y-84185238D01*
X78480533Y-84185238D02*
X78623390Y-84232857D01*
X78623390Y-84232857D02*
X79194819Y-84804285D01*
X79194819Y-84804285D02*
X79194819Y-84185238D01*
X79194819Y-83756666D02*
X78194819Y-83756666D01*
X79194819Y-83185238D02*
X78623390Y-83613809D01*
X78194819Y-83185238D02*
X78766247Y-83756666D01*
X79194819Y-82232857D02*
X79194819Y-82804285D01*
X79194819Y-82518571D02*
X78194819Y-82518571D01*
X78194819Y-82518571D02*
X78337676Y-82613809D01*
X78337676Y-82613809D02*
X78432914Y-82709047D01*
X78432914Y-82709047D02*
X78480533Y-82804285D01*
X70095371Y-86717128D02*
X70095371Y-85717128D01*
X70095371Y-85717128D02*
X70476323Y-85717128D01*
X70476323Y-85717128D02*
X70571561Y-85764747D01*
X70571561Y-85764747D02*
X70619180Y-85812366D01*
X70619180Y-85812366D02*
X70666799Y-85907604D01*
X70666799Y-85907604D02*
X70666799Y-86050461D01*
X70666799Y-86050461D02*
X70619180Y-86145699D01*
X70619180Y-86145699D02*
X70571561Y-86193318D01*
X70571561Y-86193318D02*
X70476323Y-86240937D01*
X70476323Y-86240937D02*
X70095371Y-86240937D01*
X71095371Y-86717128D02*
X71095371Y-85717128D01*
X71523942Y-86717128D02*
X71523942Y-86193318D01*
X71523942Y-86193318D02*
X71476323Y-86098080D01*
X71476323Y-86098080D02*
X71381085Y-86050461D01*
X71381085Y-86050461D02*
X71238228Y-86050461D01*
X71238228Y-86050461D02*
X71142990Y-86098080D01*
X71142990Y-86098080D02*
X71095371Y-86145699D01*
X72142990Y-86717128D02*
X72047752Y-86669509D01*
X72047752Y-86669509D02*
X72000133Y-86621889D01*
X72000133Y-86621889D02*
X71952514Y-86526651D01*
X71952514Y-86526651D02*
X71952514Y-86240937D01*
X71952514Y-86240937D02*
X72000133Y-86145699D01*
X72000133Y-86145699D02*
X72047752Y-86098080D01*
X72047752Y-86098080D02*
X72142990Y-86050461D01*
X72142990Y-86050461D02*
X72285847Y-86050461D01*
X72285847Y-86050461D02*
X72381085Y-86098080D01*
X72381085Y-86098080D02*
X72428704Y-86145699D01*
X72428704Y-86145699D02*
X72476323Y-86240937D01*
X72476323Y-86240937D02*
X72476323Y-86526651D01*
X72476323Y-86526651D02*
X72428704Y-86621889D01*
X72428704Y-86621889D02*
X72381085Y-86669509D01*
X72381085Y-86669509D02*
X72285847Y-86717128D01*
X72285847Y-86717128D02*
X72142990Y-86717128D01*
X72762038Y-86050461D02*
X73142990Y-86050461D01*
X72904895Y-85717128D02*
X72904895Y-86574270D01*
X72904895Y-86574270D02*
X72952514Y-86669509D01*
X72952514Y-86669509D02*
X73047752Y-86717128D01*
X73047752Y-86717128D02*
X73142990Y-86717128D01*
X73619181Y-86717128D02*
X73523943Y-86669509D01*
X73523943Y-86669509D02*
X73476324Y-86621889D01*
X73476324Y-86621889D02*
X73428705Y-86526651D01*
X73428705Y-86526651D02*
X73428705Y-86240937D01*
X73428705Y-86240937D02*
X73476324Y-86145699D01*
X73476324Y-86145699D02*
X73523943Y-86098080D01*
X73523943Y-86098080D02*
X73619181Y-86050461D01*
X73619181Y-86050461D02*
X73762038Y-86050461D01*
X73762038Y-86050461D02*
X73857276Y-86098080D01*
X73857276Y-86098080D02*
X73904895Y-86145699D01*
X73904895Y-86145699D02*
X73952514Y-86240937D01*
X73952514Y-86240937D02*
X73952514Y-86526651D01*
X73952514Y-86526651D02*
X73904895Y-86621889D01*
X73904895Y-86621889D02*
X73857276Y-86669509D01*
X73857276Y-86669509D02*
X73762038Y-86717128D01*
X73762038Y-86717128D02*
X73619181Y-86717128D01*
X74904895Y-86717128D02*
X74333467Y-86717128D01*
X74619181Y-86717128D02*
X74619181Y-85717128D01*
X74619181Y-85717128D02*
X74523943Y-85859985D01*
X74523943Y-85859985D02*
X74428705Y-85955223D01*
X74428705Y-85955223D02*
X74333467Y-86002842D01*
X81734819Y-87328095D02*
X81258628Y-87661428D01*
X81734819Y-87899523D02*
X80734819Y-87899523D01*
X80734819Y-87899523D02*
X80734819Y-87518571D01*
X80734819Y-87518571D02*
X80782438Y-87423333D01*
X80782438Y-87423333D02*
X80830057Y-87375714D01*
X80830057Y-87375714D02*
X80925295Y-87328095D01*
X80925295Y-87328095D02*
X81068152Y-87328095D01*
X81068152Y-87328095D02*
X81163390Y-87375714D01*
X81163390Y-87375714D02*
X81211009Y-87423333D01*
X81211009Y-87423333D02*
X81258628Y-87518571D01*
X81258628Y-87518571D02*
X81258628Y-87899523D01*
X80830057Y-86947142D02*
X80782438Y-86899523D01*
X80782438Y-86899523D02*
X80734819Y-86804285D01*
X80734819Y-86804285D02*
X80734819Y-86566190D01*
X80734819Y-86566190D02*
X80782438Y-86470952D01*
X80782438Y-86470952D02*
X80830057Y-86423333D01*
X80830057Y-86423333D02*
X80925295Y-86375714D01*
X80925295Y-86375714D02*
X81020533Y-86375714D01*
X81020533Y-86375714D02*
X81163390Y-86423333D01*
X81163390Y-86423333D02*
X81734819Y-86994761D01*
X81734819Y-86994761D02*
X81734819Y-86375714D01*
X81353866Y-85947142D02*
X81353866Y-85185238D01*
X80830057Y-84756666D02*
X80782438Y-84709047D01*
X80782438Y-84709047D02*
X80734819Y-84613809D01*
X80734819Y-84613809D02*
X80734819Y-84375714D01*
X80734819Y-84375714D02*
X80782438Y-84280476D01*
X80782438Y-84280476D02*
X80830057Y-84232857D01*
X80830057Y-84232857D02*
X80925295Y-84185238D01*
X80925295Y-84185238D02*
X81020533Y-84185238D01*
X81020533Y-84185238D02*
X81163390Y-84232857D01*
X81163390Y-84232857D02*
X81734819Y-84804285D01*
X81734819Y-84804285D02*
X81734819Y-84185238D01*
X81734819Y-83756666D02*
X80734819Y-83756666D01*
X81734819Y-83185238D02*
X81163390Y-83613809D01*
X80734819Y-83185238D02*
X81306247Y-83756666D01*
X81734819Y-82232857D02*
X81734819Y-82804285D01*
X81734819Y-82518571D02*
X80734819Y-82518571D01*
X80734819Y-82518571D02*
X80877676Y-82613809D01*
X80877676Y-82613809D02*
X80972914Y-82709047D01*
X80972914Y-82709047D02*
X81020533Y-82804285D01*
X84274819Y-87175131D02*
X83798628Y-87508464D01*
X84274819Y-87746559D02*
X83274819Y-87746559D01*
X83274819Y-87746559D02*
X83274819Y-87365607D01*
X83274819Y-87365607D02*
X83322438Y-87270369D01*
X83322438Y-87270369D02*
X83370057Y-87222750D01*
X83370057Y-87222750D02*
X83465295Y-87175131D01*
X83465295Y-87175131D02*
X83608152Y-87175131D01*
X83608152Y-87175131D02*
X83703390Y-87222750D01*
X83703390Y-87222750D02*
X83751009Y-87270369D01*
X83751009Y-87270369D02*
X83798628Y-87365607D01*
X83798628Y-87365607D02*
X83798628Y-87746559D01*
X84274819Y-86222750D02*
X84274819Y-86794178D01*
X84274819Y-86508464D02*
X83274819Y-86508464D01*
X83274819Y-86508464D02*
X83417676Y-86603702D01*
X83417676Y-86603702D02*
X83512914Y-86698940D01*
X83512914Y-86698940D02*
X83560533Y-86794178D01*
X83893866Y-85794178D02*
X83893866Y-85032274D01*
X83370057Y-84603702D02*
X83322438Y-84556083D01*
X83322438Y-84556083D02*
X83274819Y-84460845D01*
X83274819Y-84460845D02*
X83274819Y-84222750D01*
X83274819Y-84222750D02*
X83322438Y-84127512D01*
X83322438Y-84127512D02*
X83370057Y-84079893D01*
X83370057Y-84079893D02*
X83465295Y-84032274D01*
X83465295Y-84032274D02*
X83560533Y-84032274D01*
X83560533Y-84032274D02*
X83703390Y-84079893D01*
X83703390Y-84079893D02*
X84274819Y-84651321D01*
X84274819Y-84651321D02*
X84274819Y-84032274D01*
X84274819Y-83603702D02*
X83274819Y-83603702D01*
X84274819Y-83032274D02*
X83703390Y-83460845D01*
X83274819Y-83032274D02*
X83846247Y-83603702D01*
X84274819Y-82079893D02*
X84274819Y-82651321D01*
X84274819Y-82365607D02*
X83274819Y-82365607D01*
X83274819Y-82365607D02*
X83417676Y-82460845D01*
X83417676Y-82460845D02*
X83512914Y-82556083D01*
X83512914Y-82556083D02*
X83560533Y-82651321D01*
D14*
X75960286Y-93065714D02*
X76388858Y-93065714D01*
X76174572Y-93815714D02*
X76174572Y-93065714D01*
X76746001Y-93815714D02*
X76674572Y-93780000D01*
X76674572Y-93780000D02*
X76638858Y-93744285D01*
X76638858Y-93744285D02*
X76603144Y-93672857D01*
X76603144Y-93672857D02*
X76603144Y-93458571D01*
X76603144Y-93458571D02*
X76638858Y-93387142D01*
X76638858Y-93387142D02*
X76674572Y-93351428D01*
X76674572Y-93351428D02*
X76746001Y-93315714D01*
X76746001Y-93315714D02*
X76853144Y-93315714D01*
X76853144Y-93315714D02*
X76924572Y-93351428D01*
X76924572Y-93351428D02*
X76960287Y-93387142D01*
X76960287Y-93387142D02*
X76996001Y-93458571D01*
X76996001Y-93458571D02*
X76996001Y-93672857D01*
X76996001Y-93672857D02*
X76960287Y-93744285D01*
X76960287Y-93744285D02*
X76924572Y-93780000D01*
X76924572Y-93780000D02*
X76853144Y-93815714D01*
X76853144Y-93815714D02*
X76746001Y-93815714D01*
X77317429Y-93422857D02*
X77567429Y-93422857D01*
X77674572Y-93815714D02*
X77317429Y-93815714D01*
X77317429Y-93815714D02*
X77317429Y-93065714D01*
X77317429Y-93065714D02*
X77674572Y-93065714D01*
X77996000Y-93815714D02*
X77996000Y-93065714D01*
X77996000Y-93065714D02*
X78424571Y-93815714D01*
X78424571Y-93815714D02*
X78424571Y-93065714D01*
X78674571Y-93065714D02*
X78924571Y-93815714D01*
X78924571Y-93815714D02*
X79174571Y-93065714D01*
X79424571Y-93815714D02*
X79424571Y-93065714D01*
X79424571Y-93065714D02*
X79674571Y-93601428D01*
X79674571Y-93601428D02*
X79924571Y-93065714D01*
X79924571Y-93065714D02*
X79924571Y-93815714D01*
X80710285Y-93744285D02*
X80674571Y-93780000D01*
X80674571Y-93780000D02*
X80567428Y-93815714D01*
X80567428Y-93815714D02*
X80496000Y-93815714D01*
X80496000Y-93815714D02*
X80388857Y-93780000D01*
X80388857Y-93780000D02*
X80317428Y-93708571D01*
X80317428Y-93708571D02*
X80281714Y-93637142D01*
X80281714Y-93637142D02*
X80246000Y-93494285D01*
X80246000Y-93494285D02*
X80246000Y-93387142D01*
X80246000Y-93387142D02*
X80281714Y-93244285D01*
X80281714Y-93244285D02*
X80317428Y-93172857D01*
X80317428Y-93172857D02*
X80388857Y-93101428D01*
X80388857Y-93101428D02*
X80496000Y-93065714D01*
X80496000Y-93065714D02*
X80567428Y-93065714D01*
X80567428Y-93065714D02*
X80674571Y-93101428D01*
X80674571Y-93101428D02*
X80710285Y-93137142D01*
X81031714Y-93065714D02*
X81031714Y-93672857D01*
X81031714Y-93672857D02*
X81067428Y-93744285D01*
X81067428Y-93744285D02*
X81103143Y-93780000D01*
X81103143Y-93780000D02*
X81174571Y-93815714D01*
X81174571Y-93815714D02*
X81317428Y-93815714D01*
X81317428Y-93815714D02*
X81388857Y-93780000D01*
X81388857Y-93780000D02*
X81424571Y-93744285D01*
X81424571Y-93744285D02*
X81460285Y-93672857D01*
X81460285Y-93672857D02*
X81460285Y-93065714D01*
X82210285Y-93815714D02*
X81781714Y-93815714D01*
X81995999Y-93815714D02*
X81995999Y-93065714D01*
X81995999Y-93065714D02*
X81924571Y-93172857D01*
X81924571Y-93172857D02*
X81853142Y-93244285D01*
X81853142Y-93244285D02*
X81781714Y-93280000D01*
%TO.C,R4-10K1*%
D15*
X74820000Y-90170000D02*
X74820000Y-79900000D01*
X77580000Y-79900000D02*
X74820000Y-79900000D01*
X77580000Y-88900000D02*
X77580000Y-79900000D01*
X77580000Y-88900000D02*
X77580000Y-90280000D01*
X77580000Y-90280000D02*
X74820000Y-90280000D01*
X77580000Y-90280000D02*
X76200000Y-90280000D01*
%TO.C,R3-2K1*%
X77360000Y-90170000D02*
X77360000Y-79900000D01*
X80120000Y-79900000D02*
X77360000Y-79900000D01*
X80120000Y-88900000D02*
X80120000Y-79900000D01*
X80120000Y-88900000D02*
X80120000Y-90280000D01*
X80120000Y-90280000D02*
X77360000Y-90280000D01*
X80120000Y-90280000D02*
X78740000Y-90280000D01*
%TO.C,Photo1*%
X69740000Y-82440000D02*
X69740000Y-85200000D01*
X72390000Y-82440000D02*
X69740000Y-82440000D01*
X72390000Y-82440000D02*
X72390000Y-85200000D01*
X72390000Y-85200000D02*
X69740000Y-85200000D01*
X73660000Y-82440000D02*
X75040000Y-82440000D01*
X75040000Y-82440000D02*
X75040000Y-83820000D01*
%TO.C,R2-2K1*%
X79900000Y-90170000D02*
X79900000Y-79900000D01*
X82660000Y-79900000D02*
X79900000Y-79900000D01*
X82660000Y-88900000D02*
X82660000Y-79900000D01*
X82660000Y-88900000D02*
X82660000Y-90280000D01*
X82660000Y-90280000D02*
X79900000Y-90280000D01*
X82660000Y-90280000D02*
X81280000Y-90280000D01*
%TO.C,R1-2K1*%
X82440000Y-88900000D02*
X82440000Y-79900000D01*
X85200000Y-79900000D02*
X82440000Y-79900000D01*
X85200000Y-88900000D02*
X85200000Y-79900000D01*
X85200000Y-88900000D02*
X85200000Y-90280000D01*
X85200000Y-90280000D02*
X82440000Y-90280000D01*
X85200000Y-90280000D02*
X83820000Y-90280000D01*
%TO.C,ToENVMCU1*%
X72280000Y-92820000D02*
X72280000Y-91440000D01*
X73660000Y-92820000D02*
X72280000Y-92820000D01*
X74930000Y-90060000D02*
X85200000Y-90060000D01*
X74930000Y-92820000D02*
X74930000Y-90060000D01*
X74930000Y-92820000D02*
X85200000Y-92820000D01*
X85200000Y-92820000D02*
X85200000Y-90060000D01*
%TD*%
D16*
X58580000Y-76200000D02*
X98580000Y-76200000D01*
X98580000Y-94454000D01*
X58580000Y-94454000D01*
X58580000Y-76200000D01*
M02*
