%TF.GenerationSoftware,KiCad,Pcbnew,10.0.2*%
%TF.CreationDate,2026-05-26T14:34:51-05:00*%
%TF.ProjectId,env-sensor-head,656e762d-7365-46e7-936f-722d68656164,rev?*%
%TF.SameCoordinates,Original*%
%TF.FileFunction,Copper,L2,Bot*%
%TF.FilePolarity,Positive*%
%FSLAX46Y46*%
G04 Gerber Fmt 4.6, Leading zero omitted, Abs format (unit mm)*
G04 Created by KiCad (PCBNEW 10.0.2) date 2026-05-26 14:34:51*
%MOMM*%
%LPD*%
G01*
G04 APERTURE LIST*
%TA.AperFunction,ComponentPad*%
%ADD10R,1.700000X1.700000*%
%TD*%
%TA.AperFunction,ComponentPad*%
%ADD11C,1.700000*%
%TD*%
%TA.AperFunction,Conductor*%
%ADD12C,0.400000*%
%TD*%
%TA.AperFunction,Profile*%
%ADD13C,0.200000*%
%TD*%
G04 APERTURE END LIST*
D10*
%TO.P,R4-10K1,1,Pin_1*%
%TO.N,/ILL*%
X76200000Y-88900000D03*
D11*
%TO.P,R4-10K1,4,Pin_4*%
%TO.N,/GND*%
X76200000Y-81280000D03*
%TD*%
D10*
%TO.P,R3-2K1,1,Pin_1*%
%TO.N,Net-(R2-2K1-Pin_1)*%
X78740000Y-88900000D03*
D11*
%TO.P,R3-2K1,4,Pin_4*%
%TO.N,Net-(Photo1-Pin_2)*%
X78740000Y-81280000D03*
%TD*%
D10*
%TO.P,Photo1,1,Pin_1*%
%TO.N,/ILL*%
X73660000Y-83820000D03*
D11*
%TO.P,Photo1,2,Pin_2*%
%TO.N,Net-(Photo1-Pin_2)*%
X71120000Y-83820000D03*
%TD*%
D10*
%TO.P,R2-2K1,1,Pin_1*%
%TO.N,Net-(R2-2K1-Pin_1)*%
X81280000Y-88900000D03*
D11*
%TO.P,R2-2K1,4,Pin_4*%
%TO.N,Net-(R1-2K1-Pin_4)*%
X81280000Y-81280000D03*
%TD*%
D10*
%TO.P,R1-2K1,1,Pin_1*%
%TO.N,/3V3*%
X83820000Y-88900000D03*
D11*
%TO.P,R1-2K1,4,Pin_4*%
%TO.N,Net-(R1-2K1-Pin_4)*%
X83820000Y-81280000D03*
%TD*%
D10*
%TO.P,ToENVMCU1,1,Pin_1*%
%TO.N,/ILL*%
X73660000Y-91440000D03*
D11*
%TO.P,ToENVMCU1,2,Pin_2*%
%TO.N,/3V3*%
X76200000Y-91440000D03*
%TO.P,ToENVMCU1,3,Pin_3*%
%TO.N,/SDA*%
X78740000Y-91440000D03*
%TO.P,ToENVMCU1,4,Pin_4*%
%TO.N,/GND*%
X81280000Y-91440000D03*
%TO.P,ToENVMCU1,5,Pin_5*%
%TO.N,/SCL*%
X83820000Y-91440000D03*
%TD*%
%TO.N,/GND*%
D12*
X80028300Y-85108300D02*
X76200000Y-81280000D01*
X81280000Y-91440000D02*
X80028300Y-90188300D01*
X80028300Y-90188300D02*
X80028300Y-85108300D01*
%TO.N,Net-(Photo1-Pin_2)*%
X74965000Y-79975000D02*
X77435000Y-79975000D01*
X71120000Y-83820000D02*
X74965000Y-79975000D01*
X77435000Y-79975000D02*
X78740000Y-81280000D01*
%TO.N,/ILL*%
X76200000Y-88900000D02*
X76200000Y-87649800D01*
X76200000Y-87649800D02*
X76200000Y-87611700D01*
X73660000Y-90188300D02*
X73661500Y-90188300D01*
X73661500Y-90188300D02*
X76200000Y-87649800D01*
X76200000Y-87611700D02*
X73660000Y-85071700D01*
X73660000Y-91440000D02*
X73660000Y-90188300D01*
X73660000Y-83820000D02*
X73660000Y-85071700D01*
%TD*%
D13*
X58580000Y-76200000D02*
X98580000Y-76200000D01*
X98580000Y-94454000D01*
X58580000Y-94454000D01*
X58580000Y-76200000D01*
M02*
