%TF.GenerationSoftware,KiCad,Pcbnew,10.0.0*%
%TF.CreationDate,2026-04-13T15:31:41-05:00*%
%TF.ProjectId,env-sensor-mcu,656e762d-7365-46e7-936f-722d6d63752e,rev?*%
%TF.SameCoordinates,Original*%
%TF.FileFunction,Copper,L2,Bot*%
%TF.FilePolarity,Positive*%
%FSLAX46Y46*%
G04 Gerber Fmt 4.6, Leading zero omitted, Abs format (unit mm)*
G04 Created by KiCad (PCBNEW 10.0.0) date 2026-04-13 15:31:41*
%MOMM*%
%LPD*%
G01*
G04 APERTURE LIST*
%TA.AperFunction,ComponentPad*%
%ADD10R,1.700000X1.700000*%
%TD*%
%TA.AperFunction,ComponentPad*%
%ADD11C,1.700000*%
%TD*%
%TA.AperFunction,ComponentPad*%
%ADD12R,1.500000X1.500000*%
%TD*%
%TA.AperFunction,ComponentPad*%
%ADD13C,1.500000*%
%TD*%
%TA.AperFunction,ComponentPad*%
%ADD14C,3.000000*%
%TD*%
%TA.AperFunction,ComponentPad*%
%ADD15R,4.000000X4.000000*%
%TD*%
%TA.AperFunction,ViaPad*%
%ADD16C,0.600000*%
%TD*%
%TA.AperFunction,Conductor*%
%ADD17C,0.400000*%
%TD*%
%TA.AperFunction,Profile*%
%ADD18C,0.200000*%
%TD*%
G04 APERTURE END LIST*
D10*
%TO.P,J2,1,GPIO40_1*%
%TO.N,unconnected-(J2-GPIO40-Pad1)*%
X86368800Y-116822500D03*
D11*
%TO.P,J2,2,GPIO39_2*%
%TO.N,unconnected-(J2-GPIO39-Pad2)*%
X88908800Y-116822500D03*
%TO.P,J2,3,GPIO38_3*%
%TO.N,unconnected-(J2-GPIO38-Pad3)*%
X86368800Y-119362500D03*
%TO.P,J2,4,GPIO37_4*%
%TO.N,unconnected-(J2-GPIO37-Pad4)*%
X88908801Y-119362498D03*
%TO.P,J2,5,GPIO36_5*%
%TO.N,unconnected-(J2-GPIO36-Pad5)*%
X86368801Y-121902500D03*
%TO.P,J2,6,GPIO35_6*%
%TO.N,unconnected-(J2-GPIO35-Pad6)*%
X88908801Y-121902499D03*
%TO.P,J2,7,GPIO34_7*%
%TO.N,unconnected-(J2-GPIO34-Pad7)*%
X86368800Y-124442500D03*
%TO.P,J2,8,GPIO33_8*%
%TO.N,unconnected-(J2-GPIO33-Pad8)*%
X88908800Y-124442500D03*
%TO.P,J2,9,GPIO21_9*%
%TO.N,/SDA*%
X86368802Y-126982500D03*
%TO.P,J2,10,GPIO18_10*%
%TO.N,/SCL*%
X88908800Y-126982499D03*
%TO.P,J2,11,GPIO17_11*%
%TO.N,unconnected-(J2-GPIO17-Pad11)*%
X86368799Y-129522498D03*
%TO.P,J2,12,GPIO16_12*%
%TO.N,unconnected-(J2-GPIO16-Pad12)*%
X88908801Y-129522501D03*
%TO.P,J2,13,GND_13*%
%TO.N,unconnected-(J2-GND-Pad13)*%
X86368801Y-132062500D03*
%TO.P,J2,14,GND_14*%
%TO.N,/GND*%
X88908801Y-132062500D03*
%TO.P,J2,15,GPIO15_15*%
%TO.N,unconnected-(J2-GPIO15-Pad15)*%
X86368801Y-134602500D03*
%TO.P,J2,16,VBUS_16*%
%TO.N,/5V*%
X88908801Y-134602500D03*
%TD*%
D12*
%TO.P,FromMCU1,1,NC_1*%
%TO.N,unconnected-(FromMCU1-NC-Pad1)*%
X54610000Y-121920000D03*
D13*
%TO.P,FromMCU1,2,NC_2*%
%TO.N,unconnected-(FromMCU1-NC-Pad2)*%
X57150000Y-123190000D03*
%TO.P,FromMCU1,3,NC_3*%
%TO.N,unconnected-(FromMCU1-NC-Pad3)*%
X54610000Y-124460000D03*
%TO.P,FromMCU1,4,5V_4*%
%TO.N,/5V*%
X57150000Y-125730000D03*
%TO.P,FromMCU1,5,5V_5*%
X54610000Y-127000000D03*
%TO.P,FromMCU1,6,12V_6*%
%TO.N,unconnected-(FromMCU1-12V-Pad6)*%
X57150000Y-128270000D03*
%TO.P,FromMCU1,7,GND_7*%
%TO.N,/GND*%
X54610000Y-129540000D03*
%TO.P,FromMCU1,8,GND_8*%
X57150000Y-130810000D03*
D14*
%TO.P,FromMCU1,SH*%
%TO.N,unconnected-(FromMCU1-PadSH)*%
X45210000Y-118595000D03*
X45210000Y-134135000D03*
%TD*%
D10*
%TO.P,J1,1,EN_1*%
%TO.N,unconnected-(J1-EN-Pad1)*%
X66048800Y-116822500D03*
D11*
%TO.P,J1,2,GPIO1_2*%
%TO.N,unconnected-(J1-GPIO1-Pad2)*%
X68588800Y-116822500D03*
%TO.P,J1,3,GPIO3_3*%
%TO.N,unconnected-(J1-GPIO3-Pad3)*%
X66048800Y-119362500D03*
%TO.P,J1,4,GPIO2_4*%
%TO.N,/ILL*%
X68588801Y-119362498D03*
%TO.P,J1,5,GPIO5_5*%
%TO.N,unconnected-(J1-GPIO5-Pad5)*%
X66048804Y-121902500D03*
%TO.P,J1,6,GPIO4_6*%
%TO.N,unconnected-(J1-GPIO4-Pad6)*%
X68588801Y-121902500D03*
%TO.P,J1,7,GPIO7_7*%
%TO.N,unconnected-(J1-GPIO7-Pad7)*%
X66048800Y-124442500D03*
%TO.P,J1,8,GPIO6_8*%
%TO.N,unconnected-(J1-GPIO6-Pad8)*%
X68588801Y-124442501D03*
%TO.P,J1,9,GPIO9_9*%
%TO.N,unconnected-(J1-GPIO9-Pad9)*%
X66048802Y-126982500D03*
%TO.P,J1,10,GPIO8_10*%
%TO.N,unconnected-(J1-GPIO8-Pad10)*%
X68588801Y-126982501D03*
%TO.P,J1,11,GPIO11_11*%
%TO.N,unconnected-(J1-GPIO11-Pad11)*%
X66048798Y-129522501D03*
%TO.P,J1,12,GPIO10_12*%
%TO.N,unconnected-(J1-GPIO10-Pad12)*%
X68588801Y-129522502D03*
%TO.P,J1,13,GPIO12_13*%
%TO.N,unconnected-(J1-GPIO12-Pad13)*%
X66048801Y-132062500D03*
%TO.P,J1,14,GPIO13_14*%
%TO.N,unconnected-(J1-GPIO13-Pad14)*%
X68588801Y-132062500D03*
%TO.P,J1,15,3V3_15*%
%TO.N,/3V3*%
X66048800Y-134602500D03*
%TO.P,J1,16,GPIO14_16*%
%TO.N,unconnected-(J1-GPIO14-Pad16)*%
X68588801Y-134602500D03*
%TD*%
D10*
%TO.P,ToENVSenseHead1,1,Pin_1_1*%
%TO.N,/ILL*%
X82550000Y-132080000D03*
D11*
%TO.P,ToENVSenseHead1,2,Pin_2_2*%
%TO.N,/3V3*%
X80010000Y-132080000D03*
%TO.P,ToENVSenseHead1,3,Pin_3_3*%
%TO.N,/SDA*%
X77469999Y-132080001D03*
%TO.P,ToENVSenseHead1,4,Pin_4_4*%
%TO.N,/GND*%
X74930000Y-132080000D03*
%TO.P,ToENVSenseHead1,5,Pin_5_5*%
%TO.N,/SCL*%
X72390000Y-132080000D03*
%TD*%
D15*
%TO.P,J3,1,Pin_1*%
%TO.N,unconnected-(FromMCU1-PadSH)*%
X58547000Y-112318800D03*
%TD*%
D16*
%TO.N,/SCL*%
X74463900Y-127056900D03*
%TD*%
%TO.N,/SDA*%
D17*
X77470000Y-132080000D02*
X82567500Y-126982500D01*
X82567500Y-126982500D02*
X86368800Y-126982500D01*
%TO.N,/ILL*%
X78174700Y-134620000D02*
X80010000Y-134620000D01*
X76200000Y-132645300D02*
X78174700Y-134620000D01*
X76200000Y-126973700D02*
X76200000Y-132645300D01*
X80010000Y-134620000D02*
X82550000Y-132080000D01*
X68588800Y-119362500D02*
X76200000Y-126973700D01*
%TO.N,unconnected-(FromMCU1-PadSH)*%
X45210000Y-118595000D02*
X45210000Y-134135000D01*
%TO.N,/SCL*%
X72390000Y-132080000D02*
X72390000Y-129130800D01*
X72390000Y-129130800D02*
X74463900Y-127056900D01*
%TD*%
D18*
X40640000Y-109220000D02*
X93980000Y-109220000D01*
X93980000Y-142240000D01*
X40640000Y-142240000D01*
X40640000Y-109220000D01*
M02*
