%TF.GenerationSoftware,KiCad,Pcbnew,10.0.2*%
%TF.CreationDate,2026-05-26T14:34:51-05:00*%
%TF.ProjectId,env-sensor-head,656e762d-7365-46e7-936f-722d68656164,rev?*%
%TF.SameCoordinates,Original*%
%TF.FileFunction,Legend,Bot*%
%TF.FilePolarity,Positive*%
%FSLAX46Y46*%
G04 Gerber Fmt 4.6, Leading zero omitted, Abs format (unit mm)*
G04 Created by KiCad (PCBNEW 10.0.2) date 2026-05-26 14:34:51*
%MOMM*%
%LPD*%
G01*
G04 APERTURE LIST*
%ADD10C,0.000000*%
%ADD11C,0.140000*%
%TA.AperFunction,Profile*%
%ADD12C,0.200000*%
%TD*%
G04 APERTURE END LIST*
D10*
G36*
X90138000Y-89471600D02*
G01*
X88938000Y-89471600D01*
X88938000Y-88271600D01*
X90138000Y-88271600D01*
X90138000Y-89471600D01*
G37*
G36*
X90938000Y-90271600D02*
G01*
X90538000Y-90271600D01*
X88538000Y-90271600D01*
X88138000Y-90271600D01*
X88138000Y-89871600D01*
X88538000Y-89871600D01*
X90538000Y-89871600D01*
X90538000Y-87871600D01*
X88538000Y-87871600D01*
X88538000Y-89871600D01*
X88138000Y-89871600D01*
X88138000Y-87471600D01*
X88538000Y-87471600D01*
X90538000Y-87471600D01*
X90938000Y-87471600D01*
X90938000Y-90271600D01*
G37*
G36*
X92538000Y-89871600D02*
G01*
X92938000Y-89871600D01*
X92938000Y-90271600D01*
X92538000Y-90271600D01*
X92138000Y-90271600D01*
X91338000Y-90271600D01*
X91338000Y-89871600D01*
X92138000Y-89871600D01*
X92138000Y-88671600D01*
X92538000Y-88671600D01*
X92538000Y-89871600D01*
G37*
G36*
X94938000Y-90271600D02*
G01*
X94538000Y-90271600D01*
X94538000Y-89471600D01*
X94938000Y-89471600D01*
X94938000Y-90271600D01*
G37*
G36*
X97338000Y-89471600D02*
G01*
X96138000Y-89471600D01*
X96138000Y-88271600D01*
X97338000Y-88271600D01*
X97338000Y-89471600D01*
G37*
G36*
X98138000Y-90271600D02*
G01*
X97738000Y-90271600D01*
X95738000Y-90271600D01*
X95338000Y-90271600D01*
X95338000Y-89871600D01*
X95738000Y-89871600D01*
X97738000Y-89871600D01*
X97738000Y-87871600D01*
X95738000Y-87871600D01*
X95738000Y-89871600D01*
X95338000Y-89871600D01*
X95338000Y-87471600D01*
X95738000Y-87471600D01*
X97738000Y-87471600D01*
X98138000Y-87471600D01*
X98138000Y-90271600D01*
G37*
G36*
X86817872Y-89951847D02*
G01*
X86818620Y-89951597D01*
X86823939Y-89953054D01*
X86829339Y-89954128D01*
X86829897Y-89954686D01*
X86831556Y-89955140D01*
X86883938Y-89981330D01*
X86889345Y-89985527D01*
X86891087Y-89986107D01*
X86892594Y-89988048D01*
X86894534Y-89989554D01*
X86895115Y-89991297D01*
X86899311Y-89996703D01*
X86925502Y-90049084D01*
X86925957Y-90050745D01*
X86926514Y-90051302D01*
X86927590Y-90056707D01*
X86929044Y-90062020D01*
X86928795Y-90062768D01*
X86929131Y-90064457D01*
X86929131Y-90143029D01*
X86928795Y-90144719D01*
X86929044Y-90145466D01*
X86927590Y-90150780D01*
X86926514Y-90156184D01*
X86925957Y-90156742D01*
X86925502Y-90158402D01*
X86911091Y-90187225D01*
X87078089Y-90187225D01*
X87091244Y-90189842D01*
X87109847Y-90208445D01*
X87109847Y-90234755D01*
X87091244Y-90253358D01*
X87078089Y-90255975D01*
X86528089Y-90255975D01*
X86514934Y-90253358D01*
X86496331Y-90234755D01*
X86496331Y-90208445D01*
X86514934Y-90189842D01*
X86528089Y-90187225D01*
X86828136Y-90187225D01*
X86840315Y-90175047D01*
X86860381Y-90134914D01*
X86860381Y-90072572D01*
X86842944Y-90037698D01*
X86808070Y-90020261D01*
X86528089Y-90020261D01*
X86514934Y-90017644D01*
X86496331Y-89999041D01*
X86496331Y-89972731D01*
X86514934Y-89954128D01*
X86528089Y-89951511D01*
X86816184Y-89951511D01*
X86817872Y-89951847D01*
G37*
G36*
X93738000Y-89471600D02*
G01*
X94138000Y-89471600D01*
X94138000Y-89871600D01*
X93738000Y-89871600D01*
X93338000Y-89871600D01*
X92938000Y-89871600D01*
X92938000Y-89471600D01*
X93338000Y-89471600D01*
X93338000Y-88671600D01*
X93738000Y-88671600D01*
X93738000Y-89471600D01*
G37*
G36*
X86559847Y-89579874D02*
G01*
X86562464Y-89593029D01*
X86562464Y-89637295D01*
X86579901Y-89672170D01*
X86614775Y-89689606D01*
X86860381Y-89689606D01*
X86860381Y-89593029D01*
X86862998Y-89579874D01*
X86881601Y-89561271D01*
X86907911Y-89561271D01*
X86926514Y-89579874D01*
X86929131Y-89593029D01*
X86929131Y-89689606D01*
X87078089Y-89689606D01*
X87091244Y-89692223D01*
X87109847Y-89710826D01*
X87109847Y-89737136D01*
X87091244Y-89755739D01*
X87078089Y-89758356D01*
X86929131Y-89758356D01*
X86929131Y-89802553D01*
X86926514Y-89815708D01*
X86907911Y-89834311D01*
X86881601Y-89834311D01*
X86862998Y-89815708D01*
X86860381Y-89802553D01*
X86860381Y-89758356D01*
X86606660Y-89758356D01*
X86604972Y-89758021D01*
X86604224Y-89758269D01*
X86598913Y-89756815D01*
X86593505Y-89755739D01*
X86592948Y-89755182D01*
X86591287Y-89754727D01*
X86538906Y-89728537D01*
X86533500Y-89724341D01*
X86531757Y-89723760D01*
X86530251Y-89721820D01*
X86528310Y-89720313D01*
X86527730Y-89718571D01*
X86523533Y-89713164D01*
X86497343Y-89660782D01*
X86496889Y-89659123D01*
X86496331Y-89658565D01*
X86495257Y-89653165D01*
X86493800Y-89647846D01*
X86494050Y-89647098D01*
X86493714Y-89645410D01*
X86493714Y-89593029D01*
X86496331Y-89579874D01*
X86514934Y-89561271D01*
X86541244Y-89561271D01*
X86559847Y-89579874D01*
G37*
G36*
X86559847Y-89265588D02*
G01*
X86562464Y-89278743D01*
X86562464Y-89323009D01*
X86579901Y-89357884D01*
X86614775Y-89375320D01*
X86860381Y-89375320D01*
X86860381Y-89278743D01*
X86862998Y-89265588D01*
X86881601Y-89246985D01*
X86907911Y-89246985D01*
X86926514Y-89265588D01*
X86929131Y-89278743D01*
X86929131Y-89375320D01*
X87078089Y-89375320D01*
X87091244Y-89377937D01*
X87109847Y-89396540D01*
X87109847Y-89422850D01*
X87091244Y-89441453D01*
X87078089Y-89444070D01*
X86929131Y-89444070D01*
X86929131Y-89488267D01*
X86926514Y-89501422D01*
X86907911Y-89520025D01*
X86881601Y-89520025D01*
X86862998Y-89501422D01*
X86860381Y-89488267D01*
X86860381Y-89444070D01*
X86606660Y-89444070D01*
X86604972Y-89443735D01*
X86604224Y-89443983D01*
X86598913Y-89442529D01*
X86593505Y-89441453D01*
X86592948Y-89440896D01*
X86591287Y-89440441D01*
X86538906Y-89414251D01*
X86533500Y-89410055D01*
X86531757Y-89409474D01*
X86530251Y-89407534D01*
X86528310Y-89406027D01*
X86527730Y-89404285D01*
X86523533Y-89398878D01*
X86497343Y-89346496D01*
X86496889Y-89344837D01*
X86496331Y-89344279D01*
X86495257Y-89338879D01*
X86493800Y-89333560D01*
X86494050Y-89332812D01*
X86493714Y-89331124D01*
X86493714Y-89278743D01*
X86496331Y-89265588D01*
X86514934Y-89246985D01*
X86541244Y-89246985D01*
X86559847Y-89265588D01*
G37*
G36*
X91738000Y-89471600D02*
G01*
X91338000Y-89471600D01*
X91338000Y-89071600D01*
X91738000Y-89071600D01*
X91738000Y-89471600D01*
G37*
G36*
X86791684Y-88799466D02*
G01*
X86792431Y-88799216D01*
X86797745Y-88800671D01*
X86803149Y-88801746D01*
X86803707Y-88802304D01*
X86805367Y-88802758D01*
X86857748Y-88828949D01*
X86862102Y-88832328D01*
X86866682Y-88835388D01*
X86892872Y-88861578D01*
X86895933Y-88866159D01*
X86899311Y-88870512D01*
X86925502Y-88922893D01*
X86925957Y-88924554D01*
X86926514Y-88925111D01*
X86927590Y-88930516D01*
X86929044Y-88935829D01*
X86928795Y-88936577D01*
X86929131Y-88938266D01*
X86929131Y-89043028D01*
X86928795Y-89044718D01*
X86929044Y-89045465D01*
X86927590Y-89050779D01*
X86926514Y-89056183D01*
X86925957Y-89056741D01*
X86925502Y-89058401D01*
X86917889Y-89073629D01*
X86926514Y-89082254D01*
X86926514Y-89108564D01*
X86907911Y-89127167D01*
X86894756Y-89129784D01*
X86847321Y-89129784D01*
X86344756Y-89129784D01*
X86331601Y-89127167D01*
X86312998Y-89108564D01*
X86312998Y-89082254D01*
X86331601Y-89063651D01*
X86344756Y-89061034D01*
X86498660Y-89061034D01*
X86497343Y-89058400D01*
X86496889Y-89056741D01*
X86496331Y-89056183D01*
X86495257Y-89050783D01*
X86493800Y-89045464D01*
X86494050Y-89044716D01*
X86493714Y-89043028D01*
X86493714Y-88946381D01*
X86562464Y-88946381D01*
X86562464Y-89034913D01*
X86575525Y-89061034D01*
X86847321Y-89061034D01*
X86860381Y-89034913D01*
X86860381Y-88946381D01*
X86840315Y-88906249D01*
X86822012Y-88887946D01*
X86781879Y-88867879D01*
X86640967Y-88867879D01*
X86600831Y-88887948D01*
X86582531Y-88906248D01*
X86562464Y-88946381D01*
X86493714Y-88946381D01*
X86493714Y-88938266D01*
X86494050Y-88936578D01*
X86493801Y-88935830D01*
X86495256Y-88930519D01*
X86496331Y-88925111D01*
X86496889Y-88924554D01*
X86497343Y-88922893D01*
X86523533Y-88870512D01*
X86526914Y-88866156D01*
X86529973Y-88861578D01*
X86556164Y-88835388D01*
X86560744Y-88832328D01*
X86565097Y-88828949D01*
X86617478Y-88802758D01*
X86619139Y-88802304D01*
X86619696Y-88801746D01*
X86625101Y-88800671D01*
X86630414Y-88799216D01*
X86631162Y-88799466D01*
X86632851Y-88799129D01*
X86789994Y-88799129D01*
X86791684Y-88799466D01*
G37*
G36*
X93738000Y-85471600D02*
G01*
X94138000Y-85471600D01*
X94138000Y-86271600D01*
X93738000Y-86271600D01*
X93738000Y-86671600D01*
X94138000Y-86671600D01*
X94138000Y-87071600D01*
X94538000Y-87071600D01*
X94538000Y-87471600D01*
X94138000Y-87471600D01*
X94138000Y-87871600D01*
X94538000Y-87871600D01*
X94538000Y-88271600D01*
X94938000Y-88271600D01*
X94938000Y-89071600D01*
X94538000Y-89071600D01*
X94538000Y-88671600D01*
X94138000Y-88671600D01*
X93738000Y-88671600D01*
X93738000Y-87471600D01*
X93338000Y-87471600D01*
X93338000Y-87871600D01*
X92938000Y-87871600D01*
X92938000Y-86671600D01*
X92538000Y-86671600D01*
X92538000Y-87071600D01*
X92138000Y-87071600D01*
X92138000Y-86671600D01*
X91738000Y-86671600D01*
X91738000Y-86271600D01*
X92138000Y-86271600D01*
X92538000Y-86271600D01*
X92938000Y-86271600D01*
X93338000Y-86271600D01*
X93338000Y-85871600D01*
X92938000Y-85871600D01*
X92938000Y-85071600D01*
X93338000Y-85071600D01*
X93738000Y-85071600D01*
X93738000Y-85471600D01*
G37*
G36*
X91738000Y-87871600D02*
G01*
X92138000Y-87871600D01*
X92138000Y-88271600D01*
X91738000Y-88271600D01*
X91738000Y-88671600D01*
X91338000Y-88671600D01*
X91338000Y-87471600D01*
X91738000Y-87471600D01*
X91738000Y-87871600D01*
G37*
G36*
X92938000Y-88671600D02*
G01*
X92538000Y-88671600D01*
X92538000Y-87871600D01*
X92938000Y-87871600D01*
X92938000Y-88671600D01*
G37*
G36*
X86634541Y-88354228D02*
G01*
X86635288Y-88353978D01*
X86640602Y-88355433D01*
X86646006Y-88356508D01*
X86646564Y-88357066D01*
X86648224Y-88357520D01*
X86700605Y-88383711D01*
X86706012Y-88387908D01*
X86707754Y-88388488D01*
X86709261Y-88390429D01*
X86711201Y-88391935D01*
X86711782Y-88393678D01*
X86715978Y-88399084D01*
X86742168Y-88451465D01*
X86742623Y-88453126D01*
X86743180Y-88453683D01*
X86744256Y-88459091D01*
X86745710Y-88464402D01*
X86745462Y-88465150D01*
X86745797Y-88466838D01*
X86745797Y-88537294D01*
X86763235Y-88572169D01*
X86798110Y-88589606D01*
X86808069Y-88589606D01*
X86842944Y-88572169D01*
X86860381Y-88537294D01*
X86860381Y-88474953D01*
X86837819Y-88429830D01*
X86834277Y-88416894D01*
X86842596Y-88391935D01*
X86866128Y-88380169D01*
X86891087Y-88388488D01*
X86899311Y-88399084D01*
X86925502Y-88451465D01*
X86925957Y-88453126D01*
X86926514Y-88453683D01*
X86927590Y-88459088D01*
X86929044Y-88464401D01*
X86928795Y-88465149D01*
X86929131Y-88466838D01*
X86929131Y-88545409D01*
X86928795Y-88547099D01*
X86929044Y-88547846D01*
X86927590Y-88553160D01*
X86926514Y-88558564D01*
X86925957Y-88559122D01*
X86925502Y-88560782D01*
X86899311Y-88613163D01*
X86895115Y-88618570D01*
X86894534Y-88620312D01*
X86892594Y-88621819D01*
X86891087Y-88623759D01*
X86889345Y-88624340D01*
X86883938Y-88628536D01*
X86831557Y-88654727D01*
X86829897Y-88655182D01*
X86829339Y-88655739D01*
X86823935Y-88656815D01*
X86818621Y-88658269D01*
X86817874Y-88658020D01*
X86816184Y-88658356D01*
X86789994Y-88658356D01*
X86788305Y-88658020D01*
X86787557Y-88658269D01*
X86782244Y-88656815D01*
X86776839Y-88655739D01*
X86776282Y-88655182D01*
X86774621Y-88654727D01*
X86722240Y-88628536D01*
X86716834Y-88624340D01*
X86715091Y-88623759D01*
X86713585Y-88621819D01*
X86711644Y-88620312D01*
X86711064Y-88618570D01*
X86706867Y-88613163D01*
X86680676Y-88560782D01*
X86680222Y-88559122D01*
X86679664Y-88558564D01*
X86678589Y-88553160D01*
X86677134Y-88547846D01*
X86677384Y-88547099D01*
X86677047Y-88545409D01*
X86677047Y-88474953D01*
X86659611Y-88440079D01*
X86624736Y-88422641D01*
X86614776Y-88422641D01*
X86579901Y-88440079D01*
X86562464Y-88474953D01*
X86562464Y-88563485D01*
X86585025Y-88608608D01*
X86588567Y-88621545D01*
X86580248Y-88646503D01*
X86556715Y-88658269D01*
X86531757Y-88649950D01*
X86523533Y-88639354D01*
X86497343Y-88586972D01*
X86496889Y-88585313D01*
X86496331Y-88584755D01*
X86495257Y-88579355D01*
X86493800Y-88574036D01*
X86494050Y-88573288D01*
X86493714Y-88571600D01*
X86493714Y-88466838D01*
X86494050Y-88465150D01*
X86493801Y-88464402D01*
X86495256Y-88459091D01*
X86496331Y-88453683D01*
X86496889Y-88453126D01*
X86497343Y-88451465D01*
X86523533Y-88399084D01*
X86527730Y-88393678D01*
X86528310Y-88391935D01*
X86530251Y-88390429D01*
X86531757Y-88388488D01*
X86533500Y-88387908D01*
X86538906Y-88383711D01*
X86591287Y-88357520D01*
X86592948Y-88357066D01*
X86593505Y-88356508D01*
X86598910Y-88355433D01*
X86604223Y-88353978D01*
X86604971Y-88354228D01*
X86606660Y-88353891D01*
X86632851Y-88353891D01*
X86634541Y-88354228D01*
G37*
G36*
X86578585Y-88102055D02*
G01*
X86604776Y-88128245D01*
X86612226Y-88139394D01*
X86612229Y-88139397D01*
X86612229Y-88165706D01*
X86604777Y-88176859D01*
X86578586Y-88203050D01*
X86567437Y-88210499D01*
X86567433Y-88210502D01*
X86541124Y-88210501D01*
X86529972Y-88203049D01*
X86503782Y-88176858D01*
X86496330Y-88165706D01*
X86496331Y-88139397D01*
X86496334Y-88139395D01*
X86503782Y-88128245D01*
X86529972Y-88102055D01*
X86541122Y-88094607D01*
X86541124Y-88094604D01*
X86567433Y-88094603D01*
X86578585Y-88102055D01*
G37*
G36*
X86855530Y-88094604D02*
G01*
X86855533Y-88094607D01*
X86866682Y-88102055D01*
X86892872Y-88128245D01*
X86900321Y-88139395D01*
X86900323Y-88139397D01*
X86900324Y-88165706D01*
X86892872Y-88176858D01*
X86866682Y-88203049D01*
X86855530Y-88210501D01*
X86829221Y-88210502D01*
X86829218Y-88210499D01*
X86818068Y-88203050D01*
X86791877Y-88176859D01*
X86784425Y-88165706D01*
X86784425Y-88139397D01*
X86784429Y-88139394D01*
X86791878Y-88128245D01*
X86818069Y-88102055D01*
X86829221Y-88094603D01*
X86855530Y-88094604D01*
G37*
G36*
X87123406Y-87469228D02*
G01*
X87138000Y-87491120D01*
X87132840Y-87516917D01*
X87123346Y-87526392D01*
X86416205Y-87997821D01*
X86403808Y-88002940D01*
X86378010Y-87997781D01*
X86363416Y-87975890D01*
X86368575Y-87950092D01*
X86378069Y-87940617D01*
X87085211Y-87469189D01*
X87097608Y-87464069D01*
X87123406Y-87469228D01*
G37*
G36*
X92538000Y-87871600D02*
G01*
X92138000Y-87871600D01*
X92138000Y-87471600D01*
X92538000Y-87471600D01*
X92538000Y-87871600D01*
G37*
G36*
X94938000Y-87871600D02*
G01*
X94538000Y-87871600D01*
X94538000Y-87471600D01*
X94938000Y-87471600D01*
X94938000Y-87871600D01*
G37*
G36*
X92138000Y-87471600D02*
G01*
X91738000Y-87471600D01*
X91738000Y-87071600D01*
X92138000Y-87071600D01*
X92138000Y-87471600D01*
G37*
G36*
X87123406Y-86893038D02*
G01*
X87138000Y-86914930D01*
X87132840Y-86940727D01*
X87123346Y-86950202D01*
X86416205Y-87421631D01*
X86403808Y-87426750D01*
X86378010Y-87421591D01*
X86363416Y-87399700D01*
X86368575Y-87373902D01*
X86378069Y-87364427D01*
X87085211Y-86892999D01*
X87097608Y-86887879D01*
X87123406Y-86893038D01*
G37*
G36*
X88938000Y-87071600D02*
G01*
X88538000Y-87071600D01*
X88138000Y-87071600D01*
X88138000Y-86271600D01*
X88538000Y-86271600D01*
X88538000Y-85871600D01*
X88938000Y-85871600D01*
X88938000Y-87071600D01*
G37*
G36*
X90138000Y-87071600D02*
G01*
X89338000Y-87071600D01*
X89338000Y-86671600D01*
X90138000Y-86671600D01*
X90138000Y-87071600D01*
G37*
G36*
X91338000Y-87071600D02*
G01*
X90938000Y-87071600D01*
X90938000Y-86671600D01*
X91338000Y-86671600D01*
X91338000Y-87071600D01*
G37*
G36*
X95738000Y-87071600D02*
G01*
X94938000Y-87071600D01*
X94938000Y-86671600D01*
X95738000Y-86671600D01*
X95738000Y-87071600D01*
G37*
G36*
X98138000Y-87071600D02*
G01*
X97738000Y-87071600D01*
X97738000Y-86671600D01*
X98138000Y-86671600D01*
X98138000Y-87071600D01*
G37*
G36*
X86817872Y-86468514D02*
G01*
X86818620Y-86468264D01*
X86823939Y-86469721D01*
X86829339Y-86470795D01*
X86829897Y-86471353D01*
X86831556Y-86471807D01*
X86883938Y-86497997D01*
X86889345Y-86502194D01*
X86891087Y-86502774D01*
X86892594Y-86504715D01*
X86894534Y-86506221D01*
X86895115Y-86507964D01*
X86899311Y-86513370D01*
X86925502Y-86565751D01*
X86925957Y-86567412D01*
X86926514Y-86567969D01*
X86927590Y-86573374D01*
X86929044Y-86578687D01*
X86928795Y-86579435D01*
X86929131Y-86581124D01*
X86929131Y-86685886D01*
X86928795Y-86687576D01*
X86929044Y-86688323D01*
X86927590Y-86693637D01*
X86926514Y-86699041D01*
X86925957Y-86699599D01*
X86925502Y-86701259D01*
X86899311Y-86753640D01*
X86891087Y-86764236D01*
X86866128Y-86772555D01*
X86842596Y-86760789D01*
X86834277Y-86735830D01*
X86837819Y-86722894D01*
X86860381Y-86677771D01*
X86860381Y-86589239D01*
X86842944Y-86554365D01*
X86808070Y-86536928D01*
X86785048Y-86536928D01*
X86771988Y-86563049D01*
X86771988Y-86685886D01*
X86771652Y-86687576D01*
X86771901Y-86688323D01*
X86770447Y-86693637D01*
X86769371Y-86699041D01*
X86768814Y-86699599D01*
X86768359Y-86701259D01*
X86742168Y-86753640D01*
X86737972Y-86759047D01*
X86737391Y-86760789D01*
X86735451Y-86762296D01*
X86733944Y-86764236D01*
X86732202Y-86764817D01*
X86726795Y-86769013D01*
X86674414Y-86795204D01*
X86672754Y-86795659D01*
X86672196Y-86796216D01*
X86666792Y-86797292D01*
X86661478Y-86798746D01*
X86660731Y-86798497D01*
X86659041Y-86798833D01*
X86650926Y-86798833D01*
X86606660Y-86798833D01*
X86604971Y-86798497D01*
X86604223Y-86798746D01*
X86598910Y-86797292D01*
X86593505Y-86796216D01*
X86592948Y-86795659D01*
X86591287Y-86795204D01*
X86538906Y-86769013D01*
X86533500Y-86764817D01*
X86531757Y-86764236D01*
X86530251Y-86762296D01*
X86528310Y-86760789D01*
X86527730Y-86759047D01*
X86523533Y-86753640D01*
X86497343Y-86701258D01*
X86496889Y-86699599D01*
X86496331Y-86699041D01*
X86495257Y-86693641D01*
X86493800Y-86688322D01*
X86494050Y-86687574D01*
X86493714Y-86685886D01*
X86493714Y-86563049D01*
X86562464Y-86563049D01*
X86562464Y-86677771D01*
X86579901Y-86712646D01*
X86614776Y-86730083D01*
X86650926Y-86730083D01*
X86685801Y-86712646D01*
X86703238Y-86677771D01*
X86703238Y-86554934D01*
X86703574Y-86553246D01*
X86703325Y-86552498D01*
X86704780Y-86547187D01*
X86705855Y-86541779D01*
X86706413Y-86541222D01*
X86706867Y-86539561D01*
X86708184Y-86536928D01*
X86575524Y-86536928D01*
X86562464Y-86563049D01*
X86493714Y-86563049D01*
X86493714Y-86554934D01*
X86494050Y-86553246D01*
X86493801Y-86552498D01*
X86495256Y-86547187D01*
X86496331Y-86541779D01*
X86496889Y-86541222D01*
X86497343Y-86539561D01*
X86504957Y-86524334D01*
X86496331Y-86515708D01*
X86496331Y-86489398D01*
X86514934Y-86470795D01*
X86528089Y-86468178D01*
X86816184Y-86468178D01*
X86817872Y-86468514D01*
G37*
G36*
X91338000Y-85871600D02*
G01*
X90938000Y-85871600D01*
X90938000Y-86671600D01*
X90538000Y-86671600D01*
X90538000Y-86271600D01*
X90138000Y-86271600D01*
X90138000Y-85871600D01*
X90538000Y-85871600D01*
X90538000Y-85471600D01*
X90938000Y-85471600D01*
X90938000Y-85071600D01*
X91338000Y-85071600D01*
X91338000Y-85871600D01*
G37*
G36*
X95338000Y-85871600D02*
G01*
X96138000Y-85871600D01*
X96138000Y-86271600D01*
X95338000Y-86271600D01*
X94938000Y-86271600D01*
X94938000Y-86671600D01*
X94538000Y-86671600D01*
X94138000Y-86671600D01*
X94138000Y-86271600D01*
X94538000Y-86271600D01*
X94538000Y-85471600D01*
X94938000Y-85471600D01*
X95338000Y-85471600D01*
X95338000Y-85871600D01*
G37*
G36*
X96538000Y-86671600D02*
G01*
X96138000Y-86671600D01*
X96138000Y-86271600D01*
X96538000Y-86271600D01*
X96538000Y-86671600D01*
G37*
G36*
X97738000Y-86671600D02*
G01*
X97338000Y-86671600D01*
X97338000Y-86271600D01*
X96938000Y-86271600D01*
X96938000Y-85871600D01*
X97338000Y-85871600D01*
X97738000Y-85871600D01*
X97738000Y-86671600D01*
G37*
G36*
X86926514Y-86070350D02*
G01*
X86929131Y-86083505D01*
X86929131Y-86135886D01*
X86928795Y-86137576D01*
X86929044Y-86138323D01*
X86927590Y-86143637D01*
X86926514Y-86149041D01*
X86925957Y-86149599D01*
X86925502Y-86151259D01*
X86899311Y-86203640D01*
X86896932Y-86206706D01*
X86907911Y-86208890D01*
X86926514Y-86227493D01*
X86926514Y-86253803D01*
X86907911Y-86272406D01*
X86894756Y-86275023D01*
X86528089Y-86275023D01*
X86514934Y-86272406D01*
X86496331Y-86253803D01*
X86496331Y-86227493D01*
X86514934Y-86208890D01*
X86528089Y-86206273D01*
X86781880Y-86206273D01*
X86822013Y-86186207D01*
X86840313Y-86167907D01*
X86860381Y-86127771D01*
X86860381Y-86083505D01*
X86862998Y-86070350D01*
X86881601Y-86051747D01*
X86907911Y-86051747D01*
X86926514Y-86070350D01*
G37*
G36*
X89738000Y-86271600D02*
G01*
X89338000Y-86271600D01*
X89338000Y-85871600D01*
X89738000Y-85871600D01*
X89738000Y-86271600D01*
G37*
G36*
X91738000Y-86271600D02*
G01*
X91338000Y-86271600D01*
X91338000Y-85871600D01*
X91738000Y-85871600D01*
X91738000Y-86271600D01*
G37*
G36*
X86548714Y-85663148D02*
G01*
X86734388Y-85802403D01*
X86870449Y-85666341D01*
X86881602Y-85658889D01*
X86907911Y-85658889D01*
X86926515Y-85677493D01*
X86926515Y-85703802D01*
X86919063Y-85714955D01*
X86768221Y-85865797D01*
X87078089Y-85865797D01*
X87091244Y-85868414D01*
X87109847Y-85887017D01*
X87109847Y-85913327D01*
X87091244Y-85931930D01*
X87078089Y-85934547D01*
X86528089Y-85934547D01*
X86514934Y-85931930D01*
X86496331Y-85913327D01*
X86496331Y-85887017D01*
X86514934Y-85868414D01*
X86528089Y-85865797D01*
X86670993Y-85865797D01*
X86685280Y-85851510D01*
X86507464Y-85718148D01*
X86498510Y-85708161D01*
X86494790Y-85682117D01*
X86510576Y-85661069D01*
X86536620Y-85657349D01*
X86548714Y-85663148D01*
G37*
G36*
X92538000Y-85871600D02*
G01*
X92138000Y-85871600D01*
X91738000Y-85871600D01*
X91738000Y-85471600D01*
X92138000Y-85471600D01*
X92138000Y-85071600D01*
X92538000Y-85071600D01*
X92538000Y-85871600D01*
G37*
G36*
X96538000Y-85871600D02*
G01*
X96138000Y-85871600D01*
X96138000Y-85471600D01*
X96538000Y-85471600D01*
X96538000Y-85871600D01*
G37*
G36*
X97338000Y-84671600D02*
G01*
X97738000Y-84671600D01*
X98138000Y-84671600D01*
X98138000Y-85871600D01*
X97738000Y-85871600D01*
X97738000Y-85071600D01*
X97338000Y-85071600D01*
X97338000Y-85471600D01*
X96938000Y-85471600D01*
X96538000Y-85471600D01*
X96538000Y-84671600D01*
X96938000Y-84671600D01*
X96938000Y-84271600D01*
X97338000Y-84271600D01*
X97338000Y-84671600D01*
G37*
G36*
X86817872Y-85185181D02*
G01*
X86818620Y-85184931D01*
X86823939Y-85186388D01*
X86829339Y-85187462D01*
X86829897Y-85188020D01*
X86831556Y-85188474D01*
X86883938Y-85214664D01*
X86889345Y-85218861D01*
X86891087Y-85219441D01*
X86892594Y-85221382D01*
X86894534Y-85222888D01*
X86895115Y-85224631D01*
X86899311Y-85230037D01*
X86925502Y-85282418D01*
X86925957Y-85284079D01*
X86926514Y-85284636D01*
X86927590Y-85290041D01*
X86929044Y-85295354D01*
X86928795Y-85296102D01*
X86929131Y-85297791D01*
X86929131Y-85402553D01*
X86928795Y-85404243D01*
X86929044Y-85404990D01*
X86927590Y-85410304D01*
X86926514Y-85415708D01*
X86925957Y-85416266D01*
X86925502Y-85417926D01*
X86899311Y-85470307D01*
X86891087Y-85480903D01*
X86866128Y-85489222D01*
X86842596Y-85477456D01*
X86834277Y-85452497D01*
X86837819Y-85439561D01*
X86860381Y-85394438D01*
X86860381Y-85305906D01*
X86842944Y-85271032D01*
X86808070Y-85253595D01*
X86785048Y-85253595D01*
X86771988Y-85279716D01*
X86771988Y-85402553D01*
X86771652Y-85404243D01*
X86771901Y-85404990D01*
X86770447Y-85410304D01*
X86769371Y-85415708D01*
X86768814Y-85416266D01*
X86768359Y-85417926D01*
X86742168Y-85470307D01*
X86737972Y-85475714D01*
X86737391Y-85477456D01*
X86735451Y-85478963D01*
X86733944Y-85480903D01*
X86732202Y-85481484D01*
X86726795Y-85485680D01*
X86674414Y-85511871D01*
X86672754Y-85512326D01*
X86672196Y-85512883D01*
X86666792Y-85513959D01*
X86661478Y-85515413D01*
X86660731Y-85515164D01*
X86659041Y-85515500D01*
X86650926Y-85515500D01*
X86606660Y-85515500D01*
X86604971Y-85515164D01*
X86604223Y-85515413D01*
X86598910Y-85513959D01*
X86593505Y-85512883D01*
X86592948Y-85512326D01*
X86591287Y-85511871D01*
X86538906Y-85485680D01*
X86533500Y-85481484D01*
X86531757Y-85480903D01*
X86530251Y-85478963D01*
X86528310Y-85477456D01*
X86527730Y-85475714D01*
X86523533Y-85470307D01*
X86497343Y-85417925D01*
X86496889Y-85416266D01*
X86496331Y-85415708D01*
X86495257Y-85410308D01*
X86493800Y-85404989D01*
X86494050Y-85404241D01*
X86493714Y-85402553D01*
X86493714Y-85279716D01*
X86562464Y-85279716D01*
X86562464Y-85394438D01*
X86579901Y-85429313D01*
X86614776Y-85446750D01*
X86650926Y-85446750D01*
X86685801Y-85429313D01*
X86703238Y-85394438D01*
X86703238Y-85271601D01*
X86703574Y-85269913D01*
X86703325Y-85269165D01*
X86704780Y-85263854D01*
X86705855Y-85258446D01*
X86706413Y-85257889D01*
X86706867Y-85256228D01*
X86708184Y-85253595D01*
X86575524Y-85253595D01*
X86562464Y-85279716D01*
X86493714Y-85279716D01*
X86493714Y-85271601D01*
X86494050Y-85269913D01*
X86493801Y-85269165D01*
X86495256Y-85263854D01*
X86496331Y-85258446D01*
X86496889Y-85257889D01*
X86497343Y-85256228D01*
X86504957Y-85241001D01*
X86496331Y-85232375D01*
X86496331Y-85206065D01*
X86514934Y-85187462D01*
X86528089Y-85184845D01*
X86816184Y-85184845D01*
X86817872Y-85185181D01*
G37*
G36*
X89338000Y-85471600D02*
G01*
X88938000Y-85471600D01*
X88938000Y-84671600D01*
X88538000Y-84671600D01*
X88538000Y-85471600D01*
X88138000Y-85471600D01*
X88138000Y-84271600D01*
X88538000Y-84271600D01*
X88938000Y-84271600D01*
X89338000Y-84271600D01*
X89338000Y-85471600D01*
G37*
G36*
X90938000Y-85071600D02*
G01*
X90538000Y-85071600D01*
X90538000Y-85471600D01*
X90138000Y-85471600D01*
X89738000Y-85471600D01*
X89738000Y-85071600D01*
X90138000Y-85071600D01*
X90138000Y-84671600D01*
X90538000Y-84671600D01*
X90938000Y-84671600D01*
X90938000Y-85071600D01*
G37*
G36*
X94538000Y-85471600D02*
G01*
X94138000Y-85471600D01*
X94138000Y-85071600D01*
X94538000Y-85071600D01*
X94538000Y-85471600D01*
G37*
G36*
X96138000Y-85471600D02*
G01*
X95738000Y-85471600D01*
X95338000Y-85471600D01*
X95338000Y-85071600D01*
X95738000Y-85071600D01*
X95738000Y-84671600D01*
X96138000Y-84671600D01*
X96138000Y-85471600D01*
G37*
G36*
X91738000Y-85071600D02*
G01*
X91338000Y-85071600D01*
X91338000Y-84671600D01*
X91738000Y-84671600D01*
X91738000Y-85071600D01*
G37*
G36*
X95338000Y-85071600D02*
G01*
X94938000Y-85071600D01*
X94938000Y-84671600D01*
X95338000Y-84671600D01*
X95338000Y-85071600D01*
G37*
G36*
X87091244Y-84689843D02*
G01*
X87109847Y-84708446D01*
X87109847Y-84734756D01*
X87091244Y-84753359D01*
X87078089Y-84755976D01*
X86924186Y-84755976D01*
X86925502Y-84758609D01*
X86925957Y-84760270D01*
X86926514Y-84760827D01*
X86927590Y-84766232D01*
X86929044Y-84771545D01*
X86928795Y-84772293D01*
X86929131Y-84773982D01*
X86929131Y-84878744D01*
X86928795Y-84880434D01*
X86929044Y-84881181D01*
X86927590Y-84886495D01*
X86926514Y-84891899D01*
X86925957Y-84892457D01*
X86925502Y-84894117D01*
X86899311Y-84946498D01*
X86895933Y-84950852D01*
X86892872Y-84955432D01*
X86866682Y-84981622D01*
X86862102Y-84984683D01*
X86857748Y-84988061D01*
X86805367Y-85014252D01*
X86803707Y-85014707D01*
X86803149Y-85015264D01*
X86797745Y-85016340D01*
X86792431Y-85017794D01*
X86791684Y-85017545D01*
X86789994Y-85017881D01*
X86781879Y-85017881D01*
X86632851Y-85017881D01*
X86631162Y-85017545D01*
X86630414Y-85017794D01*
X86625101Y-85016340D01*
X86619696Y-85015264D01*
X86619139Y-85014707D01*
X86617478Y-85014252D01*
X86565097Y-84988061D01*
X86560744Y-84984683D01*
X86556164Y-84981622D01*
X86529973Y-84955432D01*
X86526914Y-84950855D01*
X86523533Y-84946498D01*
X86497343Y-84894116D01*
X86496889Y-84892457D01*
X86496331Y-84891899D01*
X86495257Y-84886499D01*
X86493800Y-84881180D01*
X86494050Y-84880432D01*
X86493714Y-84878744D01*
X86493714Y-84782097D01*
X86562464Y-84782097D01*
X86562464Y-84870629D01*
X86582531Y-84910764D01*
X86600831Y-84929063D01*
X86640967Y-84949131D01*
X86781879Y-84949131D01*
X86822012Y-84929065D01*
X86840315Y-84910762D01*
X86860381Y-84870629D01*
X86860381Y-84782097D01*
X86847321Y-84755976D01*
X86575524Y-84755976D01*
X86562464Y-84782097D01*
X86493714Y-84782097D01*
X86493714Y-84773982D01*
X86494050Y-84772294D01*
X86493801Y-84771546D01*
X86495256Y-84766235D01*
X86496331Y-84760827D01*
X86496889Y-84760270D01*
X86497343Y-84758609D01*
X86504957Y-84743382D01*
X86496331Y-84734756D01*
X86496331Y-84708446D01*
X86514934Y-84689843D01*
X86528089Y-84687226D01*
X87078089Y-84687226D01*
X87091244Y-84689843D01*
G37*
G36*
X90938000Y-83071600D02*
G01*
X90538000Y-83071600D01*
X90538000Y-82671600D01*
X90938000Y-82671600D01*
X90938000Y-83071600D01*
G37*
G36*
X90138000Y-80671600D02*
G01*
X90538000Y-80671600D01*
X90538000Y-81071600D01*
X90138000Y-81071600D01*
X89338000Y-81071600D01*
X89338000Y-82271600D01*
X88938000Y-82271600D01*
X88938000Y-83071600D01*
X89338000Y-83071600D01*
X89338000Y-82671600D01*
X89738000Y-82671600D01*
X89738000Y-81871600D01*
X90138000Y-81871600D01*
X91338000Y-81871600D01*
X91738000Y-81871600D01*
X91738000Y-82271600D01*
X92138000Y-82271600D01*
X92138000Y-82671600D01*
X91738000Y-82671600D01*
X91738000Y-83071600D01*
X92138000Y-83071600D01*
X92138000Y-83871600D01*
X91738000Y-83871600D01*
X91338000Y-83871600D01*
X90538000Y-83871600D01*
X90538000Y-84271600D01*
X90138000Y-84271600D01*
X90138000Y-84671600D01*
X89738000Y-84671600D01*
X89738000Y-83871600D01*
X89338000Y-83871600D01*
X89338000Y-83471600D01*
X90138000Y-83471600D01*
X90538000Y-83471600D01*
X91338000Y-83471600D01*
X91338000Y-82271600D01*
X90138000Y-82271600D01*
X90138000Y-83471600D01*
X89338000Y-83471600D01*
X88938000Y-83471600D01*
X88538000Y-83471600D01*
X88538000Y-83071600D01*
X88138000Y-83071600D01*
X88138000Y-82671600D01*
X88538000Y-82671600D01*
X88538000Y-81871600D01*
X88938000Y-81871600D01*
X88938000Y-81471600D01*
X88538000Y-81471600D01*
X88538000Y-80671600D01*
X88138000Y-80671600D01*
X88138000Y-80271600D01*
X88538000Y-80271600D01*
X88938000Y-80271600D01*
X89338000Y-80271600D01*
X90138000Y-80271600D01*
X90138000Y-80671600D01*
G37*
G36*
X91338000Y-84671600D02*
G01*
X90938000Y-84671600D01*
X90938000Y-84271600D01*
X91338000Y-84271600D01*
X91338000Y-84671600D01*
G37*
G36*
X92538000Y-80671600D02*
G01*
X92938000Y-80671600D01*
X92938000Y-80271600D01*
X93338000Y-80271600D01*
X93738000Y-80271600D01*
X94138000Y-80271600D01*
X94138000Y-80671600D01*
X93738000Y-80671600D01*
X93738000Y-81471600D01*
X94138000Y-81471600D01*
X94138000Y-80671600D01*
X94538000Y-80671600D01*
X94538000Y-82671600D01*
X94138000Y-82671600D01*
X94138000Y-83071600D01*
X94538000Y-83071600D01*
X94538000Y-83471600D01*
X94138000Y-83471600D01*
X94138000Y-83871600D01*
X94538000Y-83871600D01*
X94538000Y-84271600D01*
X94938000Y-84271600D01*
X94938000Y-84671600D01*
X94538000Y-84671600D01*
X94138000Y-84671600D01*
X94138000Y-84271600D01*
X93738000Y-84271600D01*
X93738000Y-84671600D01*
X93338000Y-84671600D01*
X92538000Y-84671600D01*
X92138000Y-84671600D01*
X91738000Y-84671600D01*
X91738000Y-84271600D01*
X92138000Y-84271600D01*
X93338000Y-84271600D01*
X93738000Y-84271600D01*
X93738000Y-83871600D01*
X93338000Y-83871600D01*
X93338000Y-84271600D01*
X92138000Y-84271600D01*
X92138000Y-83871600D01*
X92538000Y-83871600D01*
X92538000Y-83471600D01*
X93338000Y-83471600D01*
X93338000Y-83071600D01*
X93738000Y-83071600D01*
X93738000Y-81871600D01*
X93338000Y-81871600D01*
X93338000Y-80671600D01*
X92938000Y-80671600D01*
X92938000Y-81071600D01*
X92538000Y-81071600D01*
X92538000Y-81871600D01*
X92938000Y-81871600D01*
X92938000Y-82271600D01*
X92538000Y-82271600D01*
X92138000Y-82271600D01*
X92138000Y-81871600D01*
X91738000Y-81871600D01*
X91738000Y-81471600D01*
X90938000Y-81471600D01*
X90938000Y-80671600D01*
X91738000Y-80671600D01*
X91738000Y-81071600D01*
X92138000Y-81071600D01*
X92138000Y-80671600D01*
X91738000Y-80671600D01*
X91738000Y-80271600D01*
X92138000Y-80271600D01*
X92538000Y-80271600D01*
X92538000Y-80671600D01*
G37*
G36*
X95738000Y-84671600D02*
G01*
X95338000Y-84671600D01*
X95338000Y-84271600D01*
X95738000Y-84271600D01*
X95738000Y-84671600D01*
G37*
G36*
X87065054Y-84401748D02*
G01*
X87065057Y-84401751D01*
X87076206Y-84409199D01*
X87102396Y-84435389D01*
X87109845Y-84446539D01*
X87109847Y-84446541D01*
X87109848Y-84472850D01*
X87102396Y-84484002D01*
X87076206Y-84510193D01*
X87065054Y-84517645D01*
X87038745Y-84517646D01*
X87038742Y-84517643D01*
X87027592Y-84510194D01*
X87001401Y-84484003D01*
X86993949Y-84472850D01*
X86993949Y-84446541D01*
X86993953Y-84446538D01*
X87001402Y-84435389D01*
X87027593Y-84409199D01*
X87038745Y-84401747D01*
X87065054Y-84401748D01*
G37*
G36*
X86907911Y-84427938D02*
G01*
X86926514Y-84446541D01*
X86926514Y-84472851D01*
X86907911Y-84491454D01*
X86894756Y-84494071D01*
X86528089Y-84494071D01*
X86514934Y-84491454D01*
X86496331Y-84472851D01*
X86496331Y-84446541D01*
X86514934Y-84427938D01*
X86528089Y-84425321D01*
X86894756Y-84425321D01*
X86907911Y-84427938D01*
G37*
G36*
X96938000Y-84271600D02*
G01*
X96538000Y-84271600D01*
X96538000Y-83871600D01*
X95338000Y-83871600D01*
X95338000Y-83471600D01*
X96538000Y-83471600D01*
X96938000Y-83471600D01*
X96938000Y-84271600D01*
G37*
G36*
X86817872Y-83928038D02*
G01*
X86818620Y-83927788D01*
X86823939Y-83929245D01*
X86829339Y-83930319D01*
X86829897Y-83930877D01*
X86831556Y-83931331D01*
X86883938Y-83957521D01*
X86889345Y-83961718D01*
X86891087Y-83962298D01*
X86892594Y-83964239D01*
X86894534Y-83965745D01*
X86895115Y-83967488D01*
X86899311Y-83972894D01*
X86925502Y-84025275D01*
X86925957Y-84026936D01*
X86926514Y-84027493D01*
X86927590Y-84032898D01*
X86929044Y-84038211D01*
X86928795Y-84038959D01*
X86929131Y-84040648D01*
X86929131Y-84145410D01*
X86928795Y-84147100D01*
X86929044Y-84147847D01*
X86927590Y-84153161D01*
X86926514Y-84158565D01*
X86925957Y-84159123D01*
X86925502Y-84160783D01*
X86899311Y-84213164D01*
X86891087Y-84223760D01*
X86866128Y-84232079D01*
X86842596Y-84220313D01*
X86834277Y-84195354D01*
X86837819Y-84182418D01*
X86860381Y-84137295D01*
X86860381Y-84048763D01*
X86842944Y-84013889D01*
X86808070Y-83996452D01*
X86785048Y-83996452D01*
X86771988Y-84022573D01*
X86771988Y-84145410D01*
X86771652Y-84147100D01*
X86771901Y-84147847D01*
X86770447Y-84153161D01*
X86769371Y-84158565D01*
X86768814Y-84159123D01*
X86768359Y-84160783D01*
X86742168Y-84213164D01*
X86737972Y-84218571D01*
X86737391Y-84220313D01*
X86735451Y-84221820D01*
X86733944Y-84223760D01*
X86732202Y-84224341D01*
X86726795Y-84228537D01*
X86674414Y-84254728D01*
X86672754Y-84255183D01*
X86672196Y-84255740D01*
X86666792Y-84256816D01*
X86661478Y-84258270D01*
X86660731Y-84258021D01*
X86659041Y-84258357D01*
X86650926Y-84258357D01*
X86606660Y-84258357D01*
X86604971Y-84258021D01*
X86604223Y-84258270D01*
X86598910Y-84256816D01*
X86593505Y-84255740D01*
X86592948Y-84255183D01*
X86591287Y-84254728D01*
X86538906Y-84228537D01*
X86533500Y-84224341D01*
X86531757Y-84223760D01*
X86530251Y-84221820D01*
X86528310Y-84220313D01*
X86527730Y-84218571D01*
X86523533Y-84213164D01*
X86497343Y-84160782D01*
X86496889Y-84159123D01*
X86496331Y-84158565D01*
X86495257Y-84153165D01*
X86493800Y-84147846D01*
X86494050Y-84147098D01*
X86493714Y-84145410D01*
X86493714Y-84022573D01*
X86562464Y-84022573D01*
X86562464Y-84137295D01*
X86579901Y-84172170D01*
X86614776Y-84189607D01*
X86650926Y-84189607D01*
X86685801Y-84172170D01*
X86703238Y-84137295D01*
X86703238Y-84014458D01*
X86703574Y-84012770D01*
X86703325Y-84012022D01*
X86704780Y-84006711D01*
X86705855Y-84001303D01*
X86706413Y-84000746D01*
X86706867Y-83999085D01*
X86708184Y-83996452D01*
X86575524Y-83996452D01*
X86562464Y-84022573D01*
X86493714Y-84022573D01*
X86493714Y-84014458D01*
X86494050Y-84012770D01*
X86493801Y-84012022D01*
X86495256Y-84006711D01*
X86496331Y-84001303D01*
X86496889Y-84000746D01*
X86497343Y-83999085D01*
X86504957Y-83983858D01*
X86496331Y-83975232D01*
X86496331Y-83948922D01*
X86514934Y-83930319D01*
X86528089Y-83927702D01*
X86816184Y-83927702D01*
X86817872Y-83928038D01*
G37*
G36*
X88538000Y-83871600D02*
G01*
X88138000Y-83871600D01*
X88138000Y-83471600D01*
X88538000Y-83471600D01*
X88538000Y-83871600D01*
G37*
G36*
X94938000Y-83871600D02*
G01*
X94538000Y-83871600D01*
X94538000Y-83471600D01*
X94938000Y-83471600D01*
X94938000Y-83871600D01*
G37*
G36*
X97738000Y-83871600D02*
G01*
X97338000Y-83871600D01*
X97338000Y-83471600D01*
X97738000Y-83471600D01*
X97738000Y-83871600D01*
G37*
G36*
X86817872Y-83430419D02*
G01*
X86818620Y-83430169D01*
X86823939Y-83431626D01*
X86829339Y-83432700D01*
X86829897Y-83433258D01*
X86831556Y-83433712D01*
X86883938Y-83459902D01*
X86889345Y-83464099D01*
X86891087Y-83464679D01*
X86892594Y-83466620D01*
X86894534Y-83468126D01*
X86895115Y-83469869D01*
X86899311Y-83475275D01*
X86925502Y-83527656D01*
X86925957Y-83529317D01*
X86926514Y-83529874D01*
X86927590Y-83535279D01*
X86929044Y-83540592D01*
X86928795Y-83541340D01*
X86929131Y-83543029D01*
X86929131Y-83621601D01*
X86928795Y-83623291D01*
X86929044Y-83624038D01*
X86927590Y-83629352D01*
X86926514Y-83634756D01*
X86925957Y-83635314D01*
X86925502Y-83636974D01*
X86911091Y-83665797D01*
X87078089Y-83665797D01*
X87091244Y-83668414D01*
X87109847Y-83687017D01*
X87109847Y-83713327D01*
X87091244Y-83731930D01*
X87078089Y-83734547D01*
X86528089Y-83734547D01*
X86514934Y-83731930D01*
X86496331Y-83713327D01*
X86496331Y-83687017D01*
X86514934Y-83668414D01*
X86528089Y-83665797D01*
X86828136Y-83665797D01*
X86840315Y-83653619D01*
X86860381Y-83613486D01*
X86860381Y-83551144D01*
X86842944Y-83516270D01*
X86808070Y-83498833D01*
X86528089Y-83498833D01*
X86514934Y-83496216D01*
X86496331Y-83477613D01*
X86496331Y-83451303D01*
X86514934Y-83432700D01*
X86528089Y-83430083D01*
X86816184Y-83430083D01*
X86817872Y-83430419D01*
G37*
G36*
X86791684Y-82906610D02*
G01*
X86792431Y-82906360D01*
X86797745Y-82907815D01*
X86803149Y-82908890D01*
X86803707Y-82909448D01*
X86805367Y-82909902D01*
X86857748Y-82936093D01*
X86862102Y-82939472D01*
X86866682Y-82942532D01*
X86892872Y-82968722D01*
X86895933Y-82973303D01*
X86899311Y-82977656D01*
X86925502Y-83030037D01*
X86925957Y-83031698D01*
X86926514Y-83032255D01*
X86927590Y-83037660D01*
X86929044Y-83042973D01*
X86928795Y-83043721D01*
X86929131Y-83045410D01*
X86929131Y-83123982D01*
X86928795Y-83125672D01*
X86929044Y-83126419D01*
X86927590Y-83131733D01*
X86926514Y-83137137D01*
X86925957Y-83137695D01*
X86925502Y-83139355D01*
X86899311Y-83191736D01*
X86895933Y-83196090D01*
X86892872Y-83200670D01*
X86866682Y-83226860D01*
X86862102Y-83229921D01*
X86857748Y-83233299D01*
X86805367Y-83259490D01*
X86803707Y-83259945D01*
X86803149Y-83260502D01*
X86797745Y-83261578D01*
X86792431Y-83263032D01*
X86791684Y-83262783D01*
X86789994Y-83263119D01*
X86781879Y-83263119D01*
X86632851Y-83263119D01*
X86631162Y-83262783D01*
X86630414Y-83263032D01*
X86625101Y-83261578D01*
X86619696Y-83260502D01*
X86619139Y-83259945D01*
X86617478Y-83259490D01*
X86565097Y-83233299D01*
X86560744Y-83229921D01*
X86556164Y-83226860D01*
X86529973Y-83200670D01*
X86526914Y-83196093D01*
X86523533Y-83191736D01*
X86497343Y-83139354D01*
X86496889Y-83137695D01*
X86496331Y-83137137D01*
X86495257Y-83131737D01*
X86493800Y-83126418D01*
X86494050Y-83125670D01*
X86493714Y-83123982D01*
X86493714Y-83053525D01*
X86562464Y-83053525D01*
X86562464Y-83115867D01*
X86582531Y-83156002D01*
X86600831Y-83174301D01*
X86640967Y-83194369D01*
X86781879Y-83194369D01*
X86822012Y-83174303D01*
X86840315Y-83156000D01*
X86860381Y-83115867D01*
X86860381Y-83053525D01*
X86840315Y-83013393D01*
X86822012Y-82995090D01*
X86781879Y-82975023D01*
X86640967Y-82975023D01*
X86600831Y-82995092D01*
X86582531Y-83013392D01*
X86562464Y-83053525D01*
X86493714Y-83053525D01*
X86493714Y-83045410D01*
X86494050Y-83043722D01*
X86493801Y-83042974D01*
X86495256Y-83037663D01*
X86496331Y-83032255D01*
X86496889Y-83031698D01*
X86497343Y-83030037D01*
X86523533Y-82977656D01*
X86526914Y-82973300D01*
X86529973Y-82968722D01*
X86556164Y-82942532D01*
X86560744Y-82939472D01*
X86565097Y-82936093D01*
X86617478Y-82909902D01*
X86619139Y-82909448D01*
X86619696Y-82908890D01*
X86625101Y-82907815D01*
X86630414Y-82906360D01*
X86631162Y-82906610D01*
X86632851Y-82906273D01*
X86789994Y-82906273D01*
X86791684Y-82906610D01*
G37*
G36*
X93338000Y-83071600D02*
G01*
X92938000Y-83071600D01*
X92938000Y-82271600D01*
X93338000Y-82271600D01*
X93338000Y-83071600D01*
G37*
G36*
X94938000Y-83071600D02*
G01*
X94538000Y-83071600D01*
X94538000Y-82671600D01*
X94938000Y-82671600D01*
X94938000Y-83071600D01*
G37*
G36*
X97338000Y-82271600D02*
G01*
X96138000Y-82271600D01*
X96138000Y-81071600D01*
X97338000Y-81071600D01*
X97338000Y-82271600D01*
G37*
G36*
X98138000Y-83071600D02*
G01*
X97738000Y-83071600D01*
X95738000Y-83071600D01*
X95338000Y-83071600D01*
X95338000Y-82671600D01*
X95738000Y-82671600D01*
X97738000Y-82671600D01*
X97738000Y-80671600D01*
X95738000Y-80671600D01*
X95738000Y-82671600D01*
X95338000Y-82671600D01*
X95338000Y-80271600D01*
X95738000Y-80271600D01*
X97738000Y-80271600D01*
X98138000Y-80271600D01*
X98138000Y-83071600D01*
G37*
G36*
X86907911Y-82437462D02*
G01*
X86926514Y-82456065D01*
X86926514Y-82482375D01*
X86907911Y-82500978D01*
X86894756Y-82503595D01*
X86594708Y-82503595D01*
X86582531Y-82515773D01*
X86562464Y-82555906D01*
X86562464Y-82618248D01*
X86579901Y-82653123D01*
X86614775Y-82670559D01*
X86894756Y-82670559D01*
X86907911Y-82673176D01*
X86926514Y-82691779D01*
X86926514Y-82718089D01*
X86907911Y-82736692D01*
X86894756Y-82739309D01*
X86606660Y-82739309D01*
X86604972Y-82738974D01*
X86604224Y-82739222D01*
X86598913Y-82737768D01*
X86593505Y-82736692D01*
X86592948Y-82736135D01*
X86591287Y-82735680D01*
X86538906Y-82709490D01*
X86533500Y-82705294D01*
X86531757Y-82704713D01*
X86530251Y-82702773D01*
X86528310Y-82701266D01*
X86527730Y-82699524D01*
X86523533Y-82694117D01*
X86497343Y-82641735D01*
X86496889Y-82640076D01*
X86496331Y-82639518D01*
X86495257Y-82634118D01*
X86493800Y-82628799D01*
X86494050Y-82628051D01*
X86493714Y-82626363D01*
X86493714Y-82547791D01*
X86494050Y-82546103D01*
X86493801Y-82545355D01*
X86495256Y-82540044D01*
X86496331Y-82534636D01*
X86496889Y-82534079D01*
X86497343Y-82532418D01*
X86513687Y-82499731D01*
X86496331Y-82482375D01*
X86496331Y-82456065D01*
X86514934Y-82437462D01*
X86528089Y-82434845D01*
X86894756Y-82434845D01*
X86907911Y-82437462D01*
G37*
G36*
X86634541Y-81963753D02*
G01*
X86635288Y-81963503D01*
X86640602Y-81964958D01*
X86646006Y-81966033D01*
X86646564Y-81966591D01*
X86648224Y-81967045D01*
X86700605Y-81993236D01*
X86706012Y-81997433D01*
X86707754Y-81998013D01*
X86709261Y-81999954D01*
X86711201Y-82001460D01*
X86711782Y-82003203D01*
X86715978Y-82008609D01*
X86742168Y-82060990D01*
X86742623Y-82062651D01*
X86743180Y-82063208D01*
X86744256Y-82068616D01*
X86745710Y-82073927D01*
X86745462Y-82074675D01*
X86745797Y-82076363D01*
X86745797Y-82146819D01*
X86763235Y-82181694D01*
X86798110Y-82199131D01*
X86808069Y-82199131D01*
X86842944Y-82181694D01*
X86860381Y-82146819D01*
X86860381Y-82084478D01*
X86837819Y-82039355D01*
X86834277Y-82026419D01*
X86842596Y-82001460D01*
X86866128Y-81989694D01*
X86891087Y-81998013D01*
X86899311Y-82008609D01*
X86925502Y-82060990D01*
X86925957Y-82062651D01*
X86926514Y-82063208D01*
X86927590Y-82068613D01*
X86929044Y-82073926D01*
X86928795Y-82074674D01*
X86929131Y-82076363D01*
X86929131Y-82154934D01*
X86928795Y-82156624D01*
X86929044Y-82157371D01*
X86927590Y-82162685D01*
X86926514Y-82168089D01*
X86925957Y-82168647D01*
X86925502Y-82170307D01*
X86899311Y-82222688D01*
X86895115Y-82228095D01*
X86894534Y-82229837D01*
X86892594Y-82231344D01*
X86891087Y-82233284D01*
X86889345Y-82233865D01*
X86883938Y-82238061D01*
X86831557Y-82264252D01*
X86829897Y-82264707D01*
X86829339Y-82265264D01*
X86823935Y-82266340D01*
X86818621Y-82267794D01*
X86817874Y-82267545D01*
X86816184Y-82267881D01*
X86789994Y-82267881D01*
X86788305Y-82267545D01*
X86787557Y-82267794D01*
X86782244Y-82266340D01*
X86776839Y-82265264D01*
X86776282Y-82264707D01*
X86774621Y-82264252D01*
X86722240Y-82238061D01*
X86716834Y-82233865D01*
X86715091Y-82233284D01*
X86713585Y-82231344D01*
X86711644Y-82229837D01*
X86711064Y-82228095D01*
X86706867Y-82222688D01*
X86680676Y-82170307D01*
X86680222Y-82168647D01*
X86679664Y-82168089D01*
X86678589Y-82162685D01*
X86677134Y-82157371D01*
X86677384Y-82156624D01*
X86677047Y-82154934D01*
X86677047Y-82084478D01*
X86659611Y-82049604D01*
X86624736Y-82032166D01*
X86614776Y-82032166D01*
X86579901Y-82049604D01*
X86562464Y-82084478D01*
X86562464Y-82173010D01*
X86585025Y-82218133D01*
X86588567Y-82231070D01*
X86580248Y-82256028D01*
X86556715Y-82267794D01*
X86531757Y-82259475D01*
X86523533Y-82248879D01*
X86497343Y-82196497D01*
X86496889Y-82194838D01*
X86496331Y-82194280D01*
X86495257Y-82188880D01*
X86493800Y-82183561D01*
X86494050Y-82182813D01*
X86493714Y-82181125D01*
X86493714Y-82076363D01*
X86494050Y-82074675D01*
X86493801Y-82073927D01*
X86495256Y-82068616D01*
X86496331Y-82063208D01*
X86496889Y-82062651D01*
X86497343Y-82060990D01*
X86523533Y-82008609D01*
X86527730Y-82003203D01*
X86528310Y-82001460D01*
X86530251Y-81999954D01*
X86531757Y-81998013D01*
X86533500Y-81997433D01*
X86538906Y-81993236D01*
X86591287Y-81967045D01*
X86592948Y-81966591D01*
X86593505Y-81966033D01*
X86598910Y-81964958D01*
X86604223Y-81963503D01*
X86604971Y-81963753D01*
X86606660Y-81963416D01*
X86632851Y-81963416D01*
X86634541Y-81963753D01*
G37*
G36*
X88538000Y-81871600D02*
G01*
X88138000Y-81871600D01*
X88138000Y-81471600D01*
X88538000Y-81471600D01*
X88538000Y-81871600D01*
G37*
G36*
X86817872Y-81492324D02*
G01*
X86818620Y-81492074D01*
X86823939Y-81493531D01*
X86829339Y-81494605D01*
X86829897Y-81495163D01*
X86831556Y-81495617D01*
X86883938Y-81521807D01*
X86889345Y-81526004D01*
X86891087Y-81526584D01*
X86892594Y-81528525D01*
X86894534Y-81530031D01*
X86895115Y-81531774D01*
X86899311Y-81537180D01*
X86925502Y-81589561D01*
X86925957Y-81591222D01*
X86926514Y-81591779D01*
X86927590Y-81597184D01*
X86929044Y-81602497D01*
X86928795Y-81603245D01*
X86929131Y-81604934D01*
X86929131Y-81709696D01*
X86928795Y-81711386D01*
X86929044Y-81712133D01*
X86927590Y-81717447D01*
X86926514Y-81722851D01*
X86925957Y-81723409D01*
X86925502Y-81725069D01*
X86899311Y-81777450D01*
X86895115Y-81782857D01*
X86894534Y-81784599D01*
X86892594Y-81786106D01*
X86891087Y-81788046D01*
X86889345Y-81788627D01*
X86883938Y-81792823D01*
X86831557Y-81819014D01*
X86829897Y-81819469D01*
X86829339Y-81820026D01*
X86823935Y-81821102D01*
X86818621Y-81822556D01*
X86817874Y-81822307D01*
X86816184Y-81822643D01*
X86808069Y-81822643D01*
X86606660Y-81822643D01*
X86604971Y-81822307D01*
X86604223Y-81822556D01*
X86598910Y-81821102D01*
X86593505Y-81820026D01*
X86592948Y-81819469D01*
X86591287Y-81819014D01*
X86538906Y-81792823D01*
X86533500Y-81788627D01*
X86531757Y-81788046D01*
X86530251Y-81786106D01*
X86528310Y-81784599D01*
X86527730Y-81782857D01*
X86523533Y-81777450D01*
X86497343Y-81725068D01*
X86496889Y-81723409D01*
X86496331Y-81722851D01*
X86495257Y-81717451D01*
X86493800Y-81712132D01*
X86494050Y-81711384D01*
X86493714Y-81709696D01*
X86493714Y-81604934D01*
X86494050Y-81603246D01*
X86493801Y-81602498D01*
X86495256Y-81597187D01*
X86496331Y-81591779D01*
X86496889Y-81591222D01*
X86497343Y-81589561D01*
X86523533Y-81537180D01*
X86531757Y-81526584D01*
X86556715Y-81518264D01*
X86580248Y-81530030D01*
X86588568Y-81554989D01*
X86585025Y-81567925D01*
X86562464Y-81613049D01*
X86562464Y-81701581D01*
X86579901Y-81736456D01*
X86614776Y-81753893D01*
X86683242Y-81753893D01*
X86753353Y-81753893D01*
X86808069Y-81753893D01*
X86842944Y-81736456D01*
X86860381Y-81701581D01*
X86860381Y-81613049D01*
X86842944Y-81578175D01*
X86808070Y-81560738D01*
X86791985Y-81560738D01*
X86753353Y-81753893D01*
X86683242Y-81753893D01*
X86730096Y-81519621D01*
X86732045Y-81514930D01*
X86732045Y-81513208D01*
X86733269Y-81511985D01*
X86735242Y-81507235D01*
X86743570Y-81501684D01*
X86750648Y-81494605D01*
X86755693Y-81493602D01*
X86757132Y-81492642D01*
X86758820Y-81492980D01*
X86763803Y-81491988D01*
X86816184Y-81491988D01*
X86817872Y-81492324D01*
G37*
G36*
X86578585Y-81240151D02*
G01*
X86604776Y-81266341D01*
X86612226Y-81277490D01*
X86612229Y-81277493D01*
X86612229Y-81303802D01*
X86604777Y-81314955D01*
X86578586Y-81341146D01*
X86567437Y-81348595D01*
X86567433Y-81348598D01*
X86541124Y-81348597D01*
X86529972Y-81341145D01*
X86503782Y-81314954D01*
X86496330Y-81303802D01*
X86496331Y-81277493D01*
X86496334Y-81277491D01*
X86503782Y-81266341D01*
X86529972Y-81240151D01*
X86541122Y-81232703D01*
X86541124Y-81232700D01*
X86567433Y-81232699D01*
X86578585Y-81240151D01*
G37*
G36*
X86907911Y-80761271D02*
G01*
X86926514Y-80779874D01*
X86926514Y-80806184D01*
X86907911Y-80824787D01*
X86894756Y-80827404D01*
X86594708Y-80827404D01*
X86582531Y-80839582D01*
X86562464Y-80879715D01*
X86562464Y-80942057D01*
X86579901Y-80976932D01*
X86614775Y-80994368D01*
X86894756Y-80994368D01*
X86907911Y-80996985D01*
X86926514Y-81015588D01*
X86926514Y-81041898D01*
X86907911Y-81060501D01*
X86894756Y-81063118D01*
X86606660Y-81063118D01*
X86604972Y-81062783D01*
X86604224Y-81063031D01*
X86598913Y-81061577D01*
X86593505Y-81060501D01*
X86592948Y-81059944D01*
X86591287Y-81059489D01*
X86538906Y-81033299D01*
X86533500Y-81029103D01*
X86531757Y-81028522D01*
X86530251Y-81026582D01*
X86528310Y-81025075D01*
X86527730Y-81023333D01*
X86523533Y-81017926D01*
X86497343Y-80965544D01*
X86496889Y-80963885D01*
X86496331Y-80963327D01*
X86495257Y-80957927D01*
X86493800Y-80952608D01*
X86494050Y-80951860D01*
X86493714Y-80950172D01*
X86493714Y-80871600D01*
X86494050Y-80869912D01*
X86493801Y-80869164D01*
X86495256Y-80863853D01*
X86496331Y-80858445D01*
X86496889Y-80857888D01*
X86497343Y-80856227D01*
X86513687Y-80823540D01*
X86496331Y-80806184D01*
X86496331Y-80779874D01*
X86514934Y-80761271D01*
X86528089Y-80758654D01*
X86894756Y-80758654D01*
X86907911Y-80761271D01*
G37*
G36*
X90938000Y-80671600D02*
G01*
X90538000Y-80671600D01*
X90538000Y-80271600D01*
X90938000Y-80271600D01*
X90938000Y-80671600D01*
G37*
G36*
X94938000Y-80671600D02*
G01*
X94538000Y-80671600D01*
X94538000Y-80271600D01*
X94938000Y-80271600D01*
X94938000Y-80671600D01*
G37*
G36*
X86634541Y-80287562D02*
G01*
X86635288Y-80287312D01*
X86640602Y-80288767D01*
X86646006Y-80289842D01*
X86646564Y-80290400D01*
X86648224Y-80290854D01*
X86700605Y-80317045D01*
X86706012Y-80321242D01*
X86707754Y-80321822D01*
X86709261Y-80323763D01*
X86711201Y-80325269D01*
X86711782Y-80327012D01*
X86715978Y-80332418D01*
X86742168Y-80384799D01*
X86742623Y-80386460D01*
X86743180Y-80387017D01*
X86744256Y-80392425D01*
X86745710Y-80397736D01*
X86745462Y-80398484D01*
X86745797Y-80400172D01*
X86745797Y-80470628D01*
X86763235Y-80505503D01*
X86798110Y-80522940D01*
X86808069Y-80522940D01*
X86842944Y-80505503D01*
X86860381Y-80470628D01*
X86860381Y-80408287D01*
X86837819Y-80363164D01*
X86834277Y-80350228D01*
X86842596Y-80325269D01*
X86866128Y-80313503D01*
X86891087Y-80321822D01*
X86899311Y-80332418D01*
X86925502Y-80384799D01*
X86925957Y-80386460D01*
X86926514Y-80387017D01*
X86927590Y-80392422D01*
X86929044Y-80397735D01*
X86928795Y-80398483D01*
X86929131Y-80400172D01*
X86929131Y-80478743D01*
X86928795Y-80480433D01*
X86929044Y-80481180D01*
X86927590Y-80486494D01*
X86926514Y-80491898D01*
X86925957Y-80492456D01*
X86925502Y-80494116D01*
X86899311Y-80546497D01*
X86895115Y-80551904D01*
X86894534Y-80553646D01*
X86892594Y-80555153D01*
X86891087Y-80557093D01*
X86889345Y-80557674D01*
X86883938Y-80561870D01*
X86831557Y-80588061D01*
X86829897Y-80588516D01*
X86829339Y-80589073D01*
X86823935Y-80590149D01*
X86818621Y-80591603D01*
X86817874Y-80591354D01*
X86816184Y-80591690D01*
X86789994Y-80591690D01*
X86788305Y-80591354D01*
X86787557Y-80591603D01*
X86782244Y-80590149D01*
X86776839Y-80589073D01*
X86776282Y-80588516D01*
X86774621Y-80588061D01*
X86722240Y-80561870D01*
X86716834Y-80557674D01*
X86715091Y-80557093D01*
X86713585Y-80555153D01*
X86711644Y-80553646D01*
X86711064Y-80551904D01*
X86706867Y-80546497D01*
X86680676Y-80494116D01*
X86680222Y-80492456D01*
X86679664Y-80491898D01*
X86678589Y-80486494D01*
X86677134Y-80481180D01*
X86677384Y-80480433D01*
X86677047Y-80478743D01*
X86677047Y-80408287D01*
X86659611Y-80373413D01*
X86624736Y-80355975D01*
X86614776Y-80355975D01*
X86579901Y-80373413D01*
X86562464Y-80408287D01*
X86562464Y-80496819D01*
X86585025Y-80541942D01*
X86588567Y-80554879D01*
X86580248Y-80579837D01*
X86556715Y-80591603D01*
X86531757Y-80583284D01*
X86523533Y-80572688D01*
X86497343Y-80520306D01*
X86496889Y-80518647D01*
X86496331Y-80518089D01*
X86495257Y-80512689D01*
X86493800Y-80507370D01*
X86494050Y-80506622D01*
X86493714Y-80504934D01*
X86493714Y-80400172D01*
X86494050Y-80398484D01*
X86493801Y-80397736D01*
X86495256Y-80392425D01*
X86496331Y-80387017D01*
X86496889Y-80386460D01*
X86497343Y-80384799D01*
X86523533Y-80332418D01*
X86527730Y-80327012D01*
X86528310Y-80325269D01*
X86530251Y-80323763D01*
X86531757Y-80321822D01*
X86533500Y-80321242D01*
X86538906Y-80317045D01*
X86591287Y-80290854D01*
X86592948Y-80290400D01*
X86593505Y-80289842D01*
X86598910Y-80288767D01*
X86604223Y-80287312D01*
X86604971Y-80287562D01*
X86606660Y-80287225D01*
X86632851Y-80287225D01*
X86634541Y-80287562D01*
G37*
D11*
X84483561Y-93726720D02*
X84383561Y-93760053D01*
X84383561Y-93760053D02*
X84216895Y-93760053D01*
X84216895Y-93760053D02*
X84150228Y-93726720D01*
X84150228Y-93726720D02*
X84116895Y-93693386D01*
X84116895Y-93693386D02*
X84083561Y-93626720D01*
X84083561Y-93626720D02*
X84083561Y-93560053D01*
X84083561Y-93560053D02*
X84116895Y-93493386D01*
X84116895Y-93493386D02*
X84150228Y-93460053D01*
X84150228Y-93460053D02*
X84216895Y-93426720D01*
X84216895Y-93426720D02*
X84350228Y-93393386D01*
X84350228Y-93393386D02*
X84416895Y-93360053D01*
X84416895Y-93360053D02*
X84450228Y-93326720D01*
X84450228Y-93326720D02*
X84483561Y-93260053D01*
X84483561Y-93260053D02*
X84483561Y-93193386D01*
X84483561Y-93193386D02*
X84450228Y-93126720D01*
X84450228Y-93126720D02*
X84416895Y-93093386D01*
X84416895Y-93093386D02*
X84350228Y-93060053D01*
X84350228Y-93060053D02*
X84183561Y-93060053D01*
X84183561Y-93060053D02*
X84083561Y-93093386D01*
X83383561Y-93693386D02*
X83416894Y-93726720D01*
X83416894Y-93726720D02*
X83516894Y-93760053D01*
X83516894Y-93760053D02*
X83583561Y-93760053D01*
X83583561Y-93760053D02*
X83683561Y-93726720D01*
X83683561Y-93726720D02*
X83750228Y-93660053D01*
X83750228Y-93660053D02*
X83783561Y-93593386D01*
X83783561Y-93593386D02*
X83816894Y-93460053D01*
X83816894Y-93460053D02*
X83816894Y-93360053D01*
X83816894Y-93360053D02*
X83783561Y-93226720D01*
X83783561Y-93226720D02*
X83750228Y-93160053D01*
X83750228Y-93160053D02*
X83683561Y-93093386D01*
X83683561Y-93093386D02*
X83583561Y-93060053D01*
X83583561Y-93060053D02*
X83516894Y-93060053D01*
X83516894Y-93060053D02*
X83416894Y-93093386D01*
X83416894Y-93093386D02*
X83383561Y-93126720D01*
X82750228Y-93760053D02*
X83083561Y-93760053D01*
X83083561Y-93760053D02*
X83083561Y-93060053D01*
X81616894Y-93093386D02*
X81683561Y-93060053D01*
X81683561Y-93060053D02*
X81783561Y-93060053D01*
X81783561Y-93060053D02*
X81883561Y-93093386D01*
X81883561Y-93093386D02*
X81950228Y-93160053D01*
X81950228Y-93160053D02*
X81983561Y-93226720D01*
X81983561Y-93226720D02*
X82016894Y-93360053D01*
X82016894Y-93360053D02*
X82016894Y-93460053D01*
X82016894Y-93460053D02*
X81983561Y-93593386D01*
X81983561Y-93593386D02*
X81950228Y-93660053D01*
X81950228Y-93660053D02*
X81883561Y-93726720D01*
X81883561Y-93726720D02*
X81783561Y-93760053D01*
X81783561Y-93760053D02*
X81716894Y-93760053D01*
X81716894Y-93760053D02*
X81616894Y-93726720D01*
X81616894Y-93726720D02*
X81583561Y-93693386D01*
X81583561Y-93693386D02*
X81583561Y-93460053D01*
X81583561Y-93460053D02*
X81716894Y-93460053D01*
X81283561Y-93760053D02*
X81283561Y-93060053D01*
X81283561Y-93060053D02*
X80883561Y-93760053D01*
X80883561Y-93760053D02*
X80883561Y-93060053D01*
X80550228Y-93760053D02*
X80550228Y-93060053D01*
X80550228Y-93060053D02*
X80383561Y-93060053D01*
X80383561Y-93060053D02*
X80283561Y-93093386D01*
X80283561Y-93093386D02*
X80216895Y-93160053D01*
X80216895Y-93160053D02*
X80183561Y-93226720D01*
X80183561Y-93226720D02*
X80150228Y-93360053D01*
X80150228Y-93360053D02*
X80150228Y-93460053D01*
X80150228Y-93460053D02*
X80183561Y-93593386D01*
X80183561Y-93593386D02*
X80216895Y-93660053D01*
X80216895Y-93660053D02*
X80283561Y-93726720D01*
X80283561Y-93726720D02*
X80383561Y-93760053D01*
X80383561Y-93760053D02*
X80550228Y-93760053D01*
X79350228Y-93726720D02*
X79250228Y-93760053D01*
X79250228Y-93760053D02*
X79083562Y-93760053D01*
X79083562Y-93760053D02*
X79016895Y-93726720D01*
X79016895Y-93726720D02*
X78983562Y-93693386D01*
X78983562Y-93693386D02*
X78950228Y-93626720D01*
X78950228Y-93626720D02*
X78950228Y-93560053D01*
X78950228Y-93560053D02*
X78983562Y-93493386D01*
X78983562Y-93493386D02*
X79016895Y-93460053D01*
X79016895Y-93460053D02*
X79083562Y-93426720D01*
X79083562Y-93426720D02*
X79216895Y-93393386D01*
X79216895Y-93393386D02*
X79283562Y-93360053D01*
X79283562Y-93360053D02*
X79316895Y-93326720D01*
X79316895Y-93326720D02*
X79350228Y-93260053D01*
X79350228Y-93260053D02*
X79350228Y-93193386D01*
X79350228Y-93193386D02*
X79316895Y-93126720D01*
X79316895Y-93126720D02*
X79283562Y-93093386D01*
X79283562Y-93093386D02*
X79216895Y-93060053D01*
X79216895Y-93060053D02*
X79050228Y-93060053D01*
X79050228Y-93060053D02*
X78950228Y-93093386D01*
X78650228Y-93760053D02*
X78650228Y-93060053D01*
X78650228Y-93060053D02*
X78483561Y-93060053D01*
X78483561Y-93060053D02*
X78383561Y-93093386D01*
X78383561Y-93093386D02*
X78316895Y-93160053D01*
X78316895Y-93160053D02*
X78283561Y-93226720D01*
X78283561Y-93226720D02*
X78250228Y-93360053D01*
X78250228Y-93360053D02*
X78250228Y-93460053D01*
X78250228Y-93460053D02*
X78283561Y-93593386D01*
X78283561Y-93593386D02*
X78316895Y-93660053D01*
X78316895Y-93660053D02*
X78383561Y-93726720D01*
X78383561Y-93726720D02*
X78483561Y-93760053D01*
X78483561Y-93760053D02*
X78650228Y-93760053D01*
X77983561Y-93560053D02*
X77650228Y-93560053D01*
X78050228Y-93760053D02*
X77816895Y-93060053D01*
X77816895Y-93060053D02*
X77583561Y-93760053D01*
X76883562Y-93060053D02*
X76450228Y-93060053D01*
X76450228Y-93060053D02*
X76683562Y-93326720D01*
X76683562Y-93326720D02*
X76583562Y-93326720D01*
X76583562Y-93326720D02*
X76516895Y-93360053D01*
X76516895Y-93360053D02*
X76483562Y-93393386D01*
X76483562Y-93393386D02*
X76450228Y-93460053D01*
X76450228Y-93460053D02*
X76450228Y-93626720D01*
X76450228Y-93626720D02*
X76483562Y-93693386D01*
X76483562Y-93693386D02*
X76516895Y-93726720D01*
X76516895Y-93726720D02*
X76583562Y-93760053D01*
X76583562Y-93760053D02*
X76783562Y-93760053D01*
X76783562Y-93760053D02*
X76850228Y-93726720D01*
X76850228Y-93726720D02*
X76883562Y-93693386D01*
X76250228Y-93060053D02*
X76016895Y-93760053D01*
X76016895Y-93760053D02*
X75783561Y-93060053D01*
X75616895Y-93060053D02*
X75183561Y-93060053D01*
X75183561Y-93060053D02*
X75416895Y-93326720D01*
X75416895Y-93326720D02*
X75316895Y-93326720D01*
X75316895Y-93326720D02*
X75250228Y-93360053D01*
X75250228Y-93360053D02*
X75216895Y-93393386D01*
X75216895Y-93393386D02*
X75183561Y-93460053D01*
X75183561Y-93460053D02*
X75183561Y-93626720D01*
X75183561Y-93626720D02*
X75216895Y-93693386D01*
X75216895Y-93693386D02*
X75250228Y-93726720D01*
X75250228Y-93726720D02*
X75316895Y-93760053D01*
X75316895Y-93760053D02*
X75516895Y-93760053D01*
X75516895Y-93760053D02*
X75583561Y-93726720D01*
X75583561Y-93726720D02*
X75616895Y-93693386D01*
X74350228Y-93760053D02*
X74350228Y-93060053D01*
X73683562Y-93760053D02*
X74016895Y-93760053D01*
X74016895Y-93760053D02*
X74016895Y-93060053D01*
X73116895Y-93760053D02*
X73450228Y-93760053D01*
X73450228Y-93760053D02*
X73450228Y-93060053D01*
D12*
X58580000Y-76200000D02*
X98580000Y-76200000D01*
X98580000Y-94454000D01*
X58580000Y-94454000D01*
X58580000Y-76200000D01*
M02*
