M48
; DRILL file KiCad 10.0.0 date 2026-04-13T15:31:54
; FORMAT={-:-/ absolute / metric / decimal}
; #@! TF.CreationDate,2026-04-13T15:31:54-05:00
; #@! TF.GenerationSoftware,Kicad,Pcbnew,10.0.0
; #@! TF.FileFunction,Plated,1,2,PTH
FMAT,2
METRIC
; #@! TA.AperFunction,Plated,PTH,ViaDrill
T1C0.300
; #@! TA.AperFunction,Plated,PTH,ComponentDrill
T2C0.900
; #@! TA.AperFunction,Plated,PTH,ComponentDrill
T3C1.000
; #@! TA.AperFunction,Plated,PTH,ComponentDrill
T4C1.600
; #@! TA.AperFunction,Plated,PTH,ComponentDrill
T5C2.500
%
G90
G05
T1
X74.464Y-127.057
T2
X54.61Y-121.92
X54.61Y-124.46
X54.61Y-127.0
X54.61Y-129.54
X57.15Y-123.19
X57.15Y-125.73
X57.15Y-128.27
X57.15Y-130.81
T3
X66.049Y-129.523
X66.049Y-116.822
X66.049Y-119.362
X66.049Y-124.442
X66.049Y-134.602
X66.049Y-132.062
X66.049Y-126.982
X66.049Y-121.902
X68.589Y-116.822
X68.589Y-119.362
X68.589Y-121.902
X68.589Y-124.443
X68.589Y-126.983
X68.589Y-129.523
X68.589Y-132.062
X68.589Y-134.602
X72.39Y-132.08
X74.93Y-132.08
X77.47Y-132.08
X80.01Y-132.08
X82.55Y-132.08
X86.369Y-129.522
X86.369Y-116.822
X86.369Y-119.362
X86.369Y-124.442
X86.369Y-121.902
X86.369Y-132.062
X86.369Y-134.602
X86.369Y-126.982
X88.909Y-116.822
X88.909Y-124.442
X88.909Y-126.982
X88.909Y-119.362
X88.909Y-121.902
X88.909Y-129.523
X88.909Y-132.062
X88.909Y-134.602
T4
X45.21Y-118.595
X45.21Y-134.135
T5
X58.547Y-112.319
M30
