%TF.GenerationSoftware,KiCad,Pcbnew,10.0.0*%
%TF.CreationDate,2026-04-13T15:31:41-05:00*%
%TF.ProjectId,env-sensor-mcu,656e762d-7365-46e7-936f-722d6d63752e,rev?*%
%TF.SameCoordinates,Original*%
%TF.FileFunction,Soldermask,Bot*%
%TF.FilePolarity,Negative*%
%FSLAX46Y46*%
G04 Gerber Fmt 4.6, Leading zero omitted, Abs format (unit mm)*
G04 Created by KiCad (PCBNEW 10.0.0) date 2026-04-13 15:31:41*
%MOMM*%
%LPD*%
G01*
G04 APERTURE LIST*
%ADD10C,2.000000*%
%ADD11R,1.700000X1.700000*%
%ADD12C,1.700000*%
%ADD13C,3.250000*%
%ADD14R,1.500000X1.500000*%
%ADD15C,1.500000*%
%ADD16C,3.000000*%
%ADD17R,4.000000X4.000000*%
%TA.AperFunction,Profile*%
%ADD18C,0.200000*%
%TD*%
G04 APERTURE END LIST*
D10*
%TO.C,mounting_hole_2d*%
X43180000Y-139700000D03*
%TD*%
D11*
%TO.C,J2*%
X86368800Y-116822500D03*
D12*
X88908800Y-116822500D03*
X86368800Y-119362500D03*
X88908801Y-119362498D03*
X86368801Y-121902500D03*
X88908801Y-121902499D03*
X86368800Y-124442500D03*
X88908800Y-124442500D03*
X86368802Y-126982500D03*
X88908800Y-126982499D03*
X86368799Y-129522498D03*
X88908801Y-129522501D03*
X86368801Y-132062500D03*
X88908801Y-132062500D03*
X86368801Y-134602500D03*
X88908801Y-134602500D03*
%TD*%
D10*
%TO.C,mounting_hole_2a*%
X91440000Y-111760000D03*
%TD*%
%TO.C,mounting_hole_2b*%
X43180000Y-111760000D03*
%TD*%
D13*
%TO.C,FromMCU1*%
X48260000Y-120650000D03*
X48260000Y-132080000D03*
D14*
X54610000Y-121920000D03*
D15*
X57150000Y-123190000D03*
X54610000Y-124460000D03*
X57150000Y-125730000D03*
X54610000Y-127000000D03*
X57150000Y-128270000D03*
X54610000Y-129540000D03*
X57150000Y-130810000D03*
D16*
X45210000Y-118595000D03*
X45210000Y-134135000D03*
%TD*%
D11*
%TO.C,J1*%
X66048800Y-116822500D03*
D12*
X68588800Y-116822500D03*
X66048800Y-119362500D03*
X68588801Y-119362498D03*
X66048804Y-121902500D03*
X68588801Y-121902500D03*
X66048800Y-124442500D03*
X68588801Y-124442501D03*
X66048802Y-126982500D03*
X68588801Y-126982501D03*
X66048798Y-129522501D03*
X68588801Y-129522502D03*
X66048801Y-132062500D03*
X68588801Y-132062500D03*
X66048800Y-134602500D03*
X68588801Y-134602500D03*
%TD*%
D11*
%TO.C,ToENVSenseHead1*%
X82550000Y-132080000D03*
D12*
X80010000Y-132080000D03*
X77469999Y-132080001D03*
X74930000Y-132080000D03*
X72390000Y-132080000D03*
%TD*%
D17*
%TO.C,J3*%
X58547000Y-112318800D03*
%TD*%
D10*
%TO.C,mounting_hole_2c*%
X91440000Y-139700000D03*
%TD*%
D18*
X40640000Y-109220000D02*
X93980000Y-109220000D01*
X93980000Y-142240000D01*
X40640000Y-142240000D01*
X40640000Y-109220000D01*
M02*
