%TF.GenerationSoftware,KiCad,Pcbnew,10.0.0*%
%TF.CreationDate,2026-04-13T15:31:41-05:00*%
%TF.ProjectId,env-sensor-mcu,656e762d-7365-46e7-936f-722d6d63752e,rev?*%
%TF.SameCoordinates,Original*%
%TF.FileFunction,Legend,Top*%
%TF.FilePolarity,Positive*%
%FSLAX46Y46*%
G04 Gerber Fmt 4.6, Leading zero omitted, Abs format (unit mm)*
G04 Created by KiCad (PCBNEW 10.0.0) date 2026-04-13 15:31:41*
%MOMM*%
%LPD*%
G01*
G04 APERTURE LIST*
%ADD10C,0.200000*%
%ADD11C,0.150000*%
%ADD12C,0.300000*%
%ADD13C,0.120000*%
%TA.AperFunction,Profile*%
%ADD14C,0.200000*%
%TD*%
G04 APERTURE END LIST*
D10*
X90167134Y-142230294D02*
X64767133Y-142230296D01*
X64767130Y-107940296D01*
X90167132Y-107940296D01*
X90167134Y-142230294D01*
X86357133Y-115560296D02*
X68577131Y-115560292D01*
X68577130Y-107940298D01*
X86357132Y-107940293D01*
X86357133Y-115560296D01*
X81277129Y-137150298D02*
X81277133Y-142230294D01*
X73657134Y-142230296D01*
X73657135Y-137150293D01*
X81277129Y-137150298D01*
D11*
X72921910Y-123228400D02*
X73064767Y-123276019D01*
X73064767Y-123276019D02*
X73302862Y-123276019D01*
X73302862Y-123276019D02*
X73398100Y-123228400D01*
X73398100Y-123228400D02*
X73445719Y-123180780D01*
X73445719Y-123180780D02*
X73493338Y-123085542D01*
X73493338Y-123085542D02*
X73493338Y-122990304D01*
X73493338Y-122990304D02*
X73445719Y-122895066D01*
X73445719Y-122895066D02*
X73398100Y-122847447D01*
X73398100Y-122847447D02*
X73302862Y-122799828D01*
X73302862Y-122799828D02*
X73112386Y-122752209D01*
X73112386Y-122752209D02*
X73017148Y-122704590D01*
X73017148Y-122704590D02*
X72969529Y-122656971D01*
X72969529Y-122656971D02*
X72921910Y-122561733D01*
X72921910Y-122561733D02*
X72921910Y-122466495D01*
X72921910Y-122466495D02*
X72969529Y-122371257D01*
X72969529Y-122371257D02*
X73017148Y-122323638D01*
X73017148Y-122323638D02*
X73112386Y-122276019D01*
X73112386Y-122276019D02*
X73350481Y-122276019D01*
X73350481Y-122276019D02*
X73493338Y-122323638D01*
X73874291Y-122371257D02*
X73921910Y-122323638D01*
X73921910Y-122323638D02*
X74017148Y-122276019D01*
X74017148Y-122276019D02*
X74255243Y-122276019D01*
X74255243Y-122276019D02*
X74350481Y-122323638D01*
X74350481Y-122323638D02*
X74398100Y-122371257D01*
X74398100Y-122371257D02*
X74445719Y-122466495D01*
X74445719Y-122466495D02*
X74445719Y-122561733D01*
X74445719Y-122561733D02*
X74398100Y-122704590D01*
X74398100Y-122704590D02*
X73826672Y-123276019D01*
X73826672Y-123276019D02*
X74445719Y-123276019D01*
X75636196Y-123276019D02*
X75636196Y-122276019D01*
X75636196Y-122276019D02*
X75969529Y-122990304D01*
X75969529Y-122990304D02*
X76302862Y-122276019D01*
X76302862Y-122276019D02*
X76302862Y-123276019D01*
X76779053Y-123276019D02*
X76779053Y-122609352D01*
X76779053Y-122276019D02*
X76731434Y-122323638D01*
X76731434Y-122323638D02*
X76779053Y-122371257D01*
X76779053Y-122371257D02*
X76826672Y-122323638D01*
X76826672Y-122323638D02*
X76779053Y-122276019D01*
X76779053Y-122276019D02*
X76779053Y-122371257D01*
X77255243Y-122609352D02*
X77255243Y-123276019D01*
X77255243Y-122704590D02*
X77302862Y-122656971D01*
X77302862Y-122656971D02*
X77398100Y-122609352D01*
X77398100Y-122609352D02*
X77540957Y-122609352D01*
X77540957Y-122609352D02*
X77636195Y-122656971D01*
X77636195Y-122656971D02*
X77683814Y-122752209D01*
X77683814Y-122752209D02*
X77683814Y-123276019D01*
X78160005Y-123276019D02*
X78160005Y-122609352D01*
X78160005Y-122276019D02*
X78112386Y-122323638D01*
X78112386Y-122323638D02*
X78160005Y-122371257D01*
X78160005Y-122371257D02*
X78207624Y-122323638D01*
X78207624Y-122323638D02*
X78160005Y-122276019D01*
X78160005Y-122276019D02*
X78160005Y-122371257D01*
X79398100Y-123276019D02*
X79398100Y-122276019D01*
X79398100Y-122276019D02*
X79731433Y-122990304D01*
X79731433Y-122990304D02*
X80064766Y-122276019D01*
X80064766Y-122276019D02*
X80064766Y-123276019D01*
X81112385Y-123180780D02*
X81064766Y-123228400D01*
X81064766Y-123228400D02*
X80921909Y-123276019D01*
X80921909Y-123276019D02*
X80826671Y-123276019D01*
X80826671Y-123276019D02*
X80683814Y-123228400D01*
X80683814Y-123228400D02*
X80588576Y-123133161D01*
X80588576Y-123133161D02*
X80540957Y-123037923D01*
X80540957Y-123037923D02*
X80493338Y-122847447D01*
X80493338Y-122847447D02*
X80493338Y-122704590D01*
X80493338Y-122704590D02*
X80540957Y-122514114D01*
X80540957Y-122514114D02*
X80588576Y-122418876D01*
X80588576Y-122418876D02*
X80683814Y-122323638D01*
X80683814Y-122323638D02*
X80826671Y-122276019D01*
X80826671Y-122276019D02*
X80921909Y-122276019D01*
X80921909Y-122276019D02*
X81064766Y-122323638D01*
X81064766Y-122323638D02*
X81112385Y-122371257D01*
X81540957Y-122276019D02*
X81540957Y-123085542D01*
X81540957Y-123085542D02*
X81588576Y-123180780D01*
X81588576Y-123180780D02*
X81636195Y-123228400D01*
X81636195Y-123228400D02*
X81731433Y-123276019D01*
X81731433Y-123276019D02*
X81921909Y-123276019D01*
X81921909Y-123276019D02*
X82017147Y-123228400D01*
X82017147Y-123228400D02*
X82064766Y-123180780D01*
X82064766Y-123180780D02*
X82112385Y-123085542D01*
X82112385Y-123085542D02*
X82112385Y-122276019D01*
D12*
X70261653Y-111330828D02*
X70618796Y-112830828D01*
X70618796Y-112830828D02*
X70904510Y-111759400D01*
X70904510Y-111759400D02*
X71190225Y-112830828D01*
X71190225Y-112830828D02*
X71547368Y-111330828D01*
X72118796Y-112830828D02*
X72118796Y-111830828D01*
X72118796Y-111330828D02*
X72047368Y-111402257D01*
X72047368Y-111402257D02*
X72118796Y-111473685D01*
X72118796Y-111473685D02*
X72190225Y-111402257D01*
X72190225Y-111402257D02*
X72118796Y-111330828D01*
X72118796Y-111330828D02*
X72118796Y-111473685D01*
X73333082Y-112045114D02*
X72833082Y-112045114D01*
X72833082Y-112830828D02*
X72833082Y-111330828D01*
X72833082Y-111330828D02*
X73547368Y-111330828D01*
X74118796Y-112830828D02*
X74118796Y-111830828D01*
X74118796Y-111330828D02*
X74047368Y-111402257D01*
X74047368Y-111402257D02*
X74118796Y-111473685D01*
X74118796Y-111473685D02*
X74190225Y-111402257D01*
X74190225Y-111402257D02*
X74118796Y-111330828D01*
X74118796Y-111330828D02*
X74118796Y-111473685D01*
X75904511Y-112402257D02*
X76618797Y-112402257D01*
X75761654Y-112830828D02*
X76261654Y-111330828D01*
X76261654Y-111330828D02*
X76761654Y-112830828D01*
X77261653Y-111830828D02*
X77261653Y-112830828D01*
X77261653Y-111973685D02*
X77333082Y-111902257D01*
X77333082Y-111902257D02*
X77475939Y-111830828D01*
X77475939Y-111830828D02*
X77690225Y-111830828D01*
X77690225Y-111830828D02*
X77833082Y-111902257D01*
X77833082Y-111902257D02*
X77904511Y-112045114D01*
X77904511Y-112045114D02*
X77904511Y-112830828D01*
X78404511Y-111830828D02*
X78975939Y-111830828D01*
X78618796Y-111330828D02*
X78618796Y-112616542D01*
X78618796Y-112616542D02*
X78690225Y-112759400D01*
X78690225Y-112759400D02*
X78833082Y-112830828D01*
X78833082Y-112830828D02*
X78975939Y-112830828D01*
X80047368Y-112759400D02*
X79904511Y-112830828D01*
X79904511Y-112830828D02*
X79618797Y-112830828D01*
X79618797Y-112830828D02*
X79475939Y-112759400D01*
X79475939Y-112759400D02*
X79404511Y-112616542D01*
X79404511Y-112616542D02*
X79404511Y-112045114D01*
X79404511Y-112045114D02*
X79475939Y-111902257D01*
X79475939Y-111902257D02*
X79618797Y-111830828D01*
X79618797Y-111830828D02*
X79904511Y-111830828D01*
X79904511Y-111830828D02*
X80047368Y-111902257D01*
X80047368Y-111902257D02*
X80118797Y-112045114D01*
X80118797Y-112045114D02*
X80118797Y-112187971D01*
X80118797Y-112187971D02*
X79404511Y-112330828D01*
X80761653Y-111830828D02*
X80761653Y-112830828D01*
X80761653Y-111973685D02*
X80833082Y-111902257D01*
X80833082Y-111902257D02*
X80975939Y-111830828D01*
X80975939Y-111830828D02*
X81190225Y-111830828D01*
X81190225Y-111830828D02*
X81333082Y-111902257D01*
X81333082Y-111902257D02*
X81404511Y-112045114D01*
X81404511Y-112045114D02*
X81404511Y-112830828D01*
X82118796Y-111830828D02*
X82118796Y-112830828D01*
X82118796Y-111973685D02*
X82190225Y-111902257D01*
X82190225Y-111902257D02*
X82333082Y-111830828D01*
X82333082Y-111830828D02*
X82547368Y-111830828D01*
X82547368Y-111830828D02*
X82690225Y-111902257D01*
X82690225Y-111902257D02*
X82761654Y-112045114D01*
X82761654Y-112045114D02*
X82761654Y-112830828D01*
X84118797Y-112830828D02*
X84118797Y-112045114D01*
X84118797Y-112045114D02*
X84047368Y-111902257D01*
X84047368Y-111902257D02*
X83904511Y-111830828D01*
X83904511Y-111830828D02*
X83618797Y-111830828D01*
X83618797Y-111830828D02*
X83475939Y-111902257D01*
X84118797Y-112759400D02*
X83975939Y-112830828D01*
X83975939Y-112830828D02*
X83618797Y-112830828D01*
X83618797Y-112830828D02*
X83475939Y-112759400D01*
X83475939Y-112759400D02*
X83404511Y-112616542D01*
X83404511Y-112616542D02*
X83404511Y-112473685D01*
X83404511Y-112473685D02*
X83475939Y-112330828D01*
X83475939Y-112330828D02*
X83618797Y-112259400D01*
X83618797Y-112259400D02*
X83975939Y-112259400D01*
X83975939Y-112259400D02*
X84118797Y-112187971D01*
D11*
X87305466Y-113507319D02*
X87305466Y-114221604D01*
X87305466Y-114221604D02*
X87257847Y-114364461D01*
X87257847Y-114364461D02*
X87162609Y-114459700D01*
X87162609Y-114459700D02*
X87019752Y-114507319D01*
X87019752Y-114507319D02*
X86924514Y-114507319D01*
X87734038Y-113602557D02*
X87781657Y-113554938D01*
X87781657Y-113554938D02*
X87876895Y-113507319D01*
X87876895Y-113507319D02*
X88114990Y-113507319D01*
X88114990Y-113507319D02*
X88210228Y-113554938D01*
X88210228Y-113554938D02*
X88257847Y-113602557D01*
X88257847Y-113602557D02*
X88305466Y-113697795D01*
X88305466Y-113697795D02*
X88305466Y-113793033D01*
X88305466Y-113793033D02*
X88257847Y-113935890D01*
X88257847Y-113935890D02*
X87686419Y-114507319D01*
X87686419Y-114507319D02*
X88305466Y-114507319D01*
X59881009Y-129722142D02*
X59881009Y-130055475D01*
X60404819Y-130055475D02*
X59404819Y-130055475D01*
X59404819Y-130055475D02*
X59404819Y-129579285D01*
X60404819Y-129198332D02*
X59738152Y-129198332D01*
X59928628Y-129198332D02*
X59833390Y-129150713D01*
X59833390Y-129150713D02*
X59785771Y-129103094D01*
X59785771Y-129103094D02*
X59738152Y-129007856D01*
X59738152Y-129007856D02*
X59738152Y-128912618D01*
X60404819Y-128436427D02*
X60357200Y-128531665D01*
X60357200Y-128531665D02*
X60309580Y-128579284D01*
X60309580Y-128579284D02*
X60214342Y-128626903D01*
X60214342Y-128626903D02*
X59928628Y-128626903D01*
X59928628Y-128626903D02*
X59833390Y-128579284D01*
X59833390Y-128579284D02*
X59785771Y-128531665D01*
X59785771Y-128531665D02*
X59738152Y-128436427D01*
X59738152Y-128436427D02*
X59738152Y-128293570D01*
X59738152Y-128293570D02*
X59785771Y-128198332D01*
X59785771Y-128198332D02*
X59833390Y-128150713D01*
X59833390Y-128150713D02*
X59928628Y-128103094D01*
X59928628Y-128103094D02*
X60214342Y-128103094D01*
X60214342Y-128103094D02*
X60309580Y-128150713D01*
X60309580Y-128150713D02*
X60357200Y-128198332D01*
X60357200Y-128198332D02*
X60404819Y-128293570D01*
X60404819Y-128293570D02*
X60404819Y-128436427D01*
X60404819Y-127674522D02*
X59738152Y-127674522D01*
X59833390Y-127674522D02*
X59785771Y-127626903D01*
X59785771Y-127626903D02*
X59738152Y-127531665D01*
X59738152Y-127531665D02*
X59738152Y-127388808D01*
X59738152Y-127388808D02*
X59785771Y-127293570D01*
X59785771Y-127293570D02*
X59881009Y-127245951D01*
X59881009Y-127245951D02*
X60404819Y-127245951D01*
X59881009Y-127245951D02*
X59785771Y-127198332D01*
X59785771Y-127198332D02*
X59738152Y-127103094D01*
X59738152Y-127103094D02*
X59738152Y-126960237D01*
X59738152Y-126960237D02*
X59785771Y-126864998D01*
X59785771Y-126864998D02*
X59881009Y-126817379D01*
X59881009Y-126817379D02*
X60404819Y-126817379D01*
X60404819Y-126341189D02*
X59404819Y-126341189D01*
X59404819Y-126341189D02*
X60119104Y-126007856D01*
X60119104Y-126007856D02*
X59404819Y-125674523D01*
X59404819Y-125674523D02*
X60404819Y-125674523D01*
X60309580Y-124626904D02*
X60357200Y-124674523D01*
X60357200Y-124674523D02*
X60404819Y-124817380D01*
X60404819Y-124817380D02*
X60404819Y-124912618D01*
X60404819Y-124912618D02*
X60357200Y-125055475D01*
X60357200Y-125055475D02*
X60261961Y-125150713D01*
X60261961Y-125150713D02*
X60166723Y-125198332D01*
X60166723Y-125198332D02*
X59976247Y-125245951D01*
X59976247Y-125245951D02*
X59833390Y-125245951D01*
X59833390Y-125245951D02*
X59642914Y-125198332D01*
X59642914Y-125198332D02*
X59547676Y-125150713D01*
X59547676Y-125150713D02*
X59452438Y-125055475D01*
X59452438Y-125055475D02*
X59404819Y-124912618D01*
X59404819Y-124912618D02*
X59404819Y-124817380D01*
X59404819Y-124817380D02*
X59452438Y-124674523D01*
X59452438Y-124674523D02*
X59500057Y-124626904D01*
X59404819Y-124198332D02*
X60214342Y-124198332D01*
X60214342Y-124198332D02*
X60309580Y-124150713D01*
X60309580Y-124150713D02*
X60357200Y-124103094D01*
X60357200Y-124103094D02*
X60404819Y-124007856D01*
X60404819Y-124007856D02*
X60404819Y-123817380D01*
X60404819Y-123817380D02*
X60357200Y-123722142D01*
X60357200Y-123722142D02*
X60309580Y-123674523D01*
X60309580Y-123674523D02*
X60214342Y-123626904D01*
X60214342Y-123626904D02*
X59404819Y-123626904D01*
X60404819Y-122626904D02*
X60404819Y-123198332D01*
X60404819Y-122912618D02*
X59404819Y-122912618D01*
X59404819Y-122912618D02*
X59547676Y-123007856D01*
X59547676Y-123007856D02*
X59642914Y-123103094D01*
X59642914Y-123103094D02*
X59690533Y-123198332D01*
X66985466Y-113507319D02*
X66985466Y-114221604D01*
X66985466Y-114221604D02*
X66937847Y-114364461D01*
X66937847Y-114364461D02*
X66842609Y-114459700D01*
X66842609Y-114459700D02*
X66699752Y-114507319D01*
X66699752Y-114507319D02*
X66604514Y-114507319D01*
X67985466Y-114507319D02*
X67414038Y-114507319D01*
X67699752Y-114507319D02*
X67699752Y-113507319D01*
X67699752Y-113507319D02*
X67604514Y-113650176D01*
X67604514Y-113650176D02*
X67509276Y-113745414D01*
X67509276Y-113745414D02*
X67414038Y-113793033D01*
X55563333Y-140424820D02*
X56134761Y-140424820D01*
X55849047Y-141424820D02*
X55849047Y-140424820D01*
X56610952Y-141424820D02*
X56515714Y-141377201D01*
X56515714Y-141377201D02*
X56468095Y-141329581D01*
X56468095Y-141329581D02*
X56420476Y-141234343D01*
X56420476Y-141234343D02*
X56420476Y-140948629D01*
X56420476Y-140948629D02*
X56468095Y-140853391D01*
X56468095Y-140853391D02*
X56515714Y-140805772D01*
X56515714Y-140805772D02*
X56610952Y-140758153D01*
X56610952Y-140758153D02*
X56753809Y-140758153D01*
X56753809Y-140758153D02*
X56849047Y-140805772D01*
X56849047Y-140805772D02*
X56896666Y-140853391D01*
X56896666Y-140853391D02*
X56944285Y-140948629D01*
X56944285Y-140948629D02*
X56944285Y-141234343D01*
X56944285Y-141234343D02*
X56896666Y-141329581D01*
X56896666Y-141329581D02*
X56849047Y-141377201D01*
X56849047Y-141377201D02*
X56753809Y-141424820D01*
X56753809Y-141424820D02*
X56610952Y-141424820D01*
X57372857Y-140901010D02*
X57706190Y-140901010D01*
X57849047Y-141424820D02*
X57372857Y-141424820D01*
X57372857Y-141424820D02*
X57372857Y-140424820D01*
X57372857Y-140424820D02*
X57849047Y-140424820D01*
X58277619Y-141424820D02*
X58277619Y-140424820D01*
X58277619Y-140424820D02*
X58849047Y-141424820D01*
X58849047Y-141424820D02*
X58849047Y-140424820D01*
X59182381Y-140424820D02*
X59515714Y-141424820D01*
X59515714Y-141424820D02*
X59849047Y-140424820D01*
X60134762Y-141377201D02*
X60277619Y-141424820D01*
X60277619Y-141424820D02*
X60515714Y-141424820D01*
X60515714Y-141424820D02*
X60610952Y-141377201D01*
X60610952Y-141377201D02*
X60658571Y-141329581D01*
X60658571Y-141329581D02*
X60706190Y-141234343D01*
X60706190Y-141234343D02*
X60706190Y-141139105D01*
X60706190Y-141139105D02*
X60658571Y-141043867D01*
X60658571Y-141043867D02*
X60610952Y-140996248D01*
X60610952Y-140996248D02*
X60515714Y-140948629D01*
X60515714Y-140948629D02*
X60325238Y-140901010D01*
X60325238Y-140901010D02*
X60230000Y-140853391D01*
X60230000Y-140853391D02*
X60182381Y-140805772D01*
X60182381Y-140805772D02*
X60134762Y-140710534D01*
X60134762Y-140710534D02*
X60134762Y-140615296D01*
X60134762Y-140615296D02*
X60182381Y-140520058D01*
X60182381Y-140520058D02*
X60230000Y-140472439D01*
X60230000Y-140472439D02*
X60325238Y-140424820D01*
X60325238Y-140424820D02*
X60563333Y-140424820D01*
X60563333Y-140424820D02*
X60706190Y-140472439D01*
X61515714Y-141377201D02*
X61420476Y-141424820D01*
X61420476Y-141424820D02*
X61230000Y-141424820D01*
X61230000Y-141424820D02*
X61134762Y-141377201D01*
X61134762Y-141377201D02*
X61087143Y-141281962D01*
X61087143Y-141281962D02*
X61087143Y-140901010D01*
X61087143Y-140901010D02*
X61134762Y-140805772D01*
X61134762Y-140805772D02*
X61230000Y-140758153D01*
X61230000Y-140758153D02*
X61420476Y-140758153D01*
X61420476Y-140758153D02*
X61515714Y-140805772D01*
X61515714Y-140805772D02*
X61563333Y-140901010D01*
X61563333Y-140901010D02*
X61563333Y-140996248D01*
X61563333Y-140996248D02*
X61087143Y-141091486D01*
X61991905Y-140758153D02*
X61991905Y-141424820D01*
X61991905Y-140853391D02*
X62039524Y-140805772D01*
X62039524Y-140805772D02*
X62134762Y-140758153D01*
X62134762Y-140758153D02*
X62277619Y-140758153D01*
X62277619Y-140758153D02*
X62372857Y-140805772D01*
X62372857Y-140805772D02*
X62420476Y-140901010D01*
X62420476Y-140901010D02*
X62420476Y-141424820D01*
X62849048Y-141377201D02*
X62944286Y-141424820D01*
X62944286Y-141424820D02*
X63134762Y-141424820D01*
X63134762Y-141424820D02*
X63230000Y-141377201D01*
X63230000Y-141377201D02*
X63277619Y-141281962D01*
X63277619Y-141281962D02*
X63277619Y-141234343D01*
X63277619Y-141234343D02*
X63230000Y-141139105D01*
X63230000Y-141139105D02*
X63134762Y-141091486D01*
X63134762Y-141091486D02*
X62991905Y-141091486D01*
X62991905Y-141091486D02*
X62896667Y-141043867D01*
X62896667Y-141043867D02*
X62849048Y-140948629D01*
X62849048Y-140948629D02*
X62849048Y-140901010D01*
X62849048Y-140901010D02*
X62896667Y-140805772D01*
X62896667Y-140805772D02*
X62991905Y-140758153D01*
X62991905Y-140758153D02*
X63134762Y-140758153D01*
X63134762Y-140758153D02*
X63230000Y-140805772D01*
X64087143Y-141377201D02*
X63991905Y-141424820D01*
X63991905Y-141424820D02*
X63801429Y-141424820D01*
X63801429Y-141424820D02*
X63706191Y-141377201D01*
X63706191Y-141377201D02*
X63658572Y-141281962D01*
X63658572Y-141281962D02*
X63658572Y-140901010D01*
X63658572Y-140901010D02*
X63706191Y-140805772D01*
X63706191Y-140805772D02*
X63801429Y-140758153D01*
X63801429Y-140758153D02*
X63991905Y-140758153D01*
X63991905Y-140758153D02*
X64087143Y-140805772D01*
X64087143Y-140805772D02*
X64134762Y-140901010D01*
X64134762Y-140901010D02*
X64134762Y-140996248D01*
X64134762Y-140996248D02*
X63658572Y-141091486D01*
X64563334Y-141424820D02*
X64563334Y-140424820D01*
X64563334Y-140901010D02*
X65134762Y-140901010D01*
X65134762Y-141424820D02*
X65134762Y-140424820D01*
X65991905Y-141377201D02*
X65896667Y-141424820D01*
X65896667Y-141424820D02*
X65706191Y-141424820D01*
X65706191Y-141424820D02*
X65610953Y-141377201D01*
X65610953Y-141377201D02*
X65563334Y-141281962D01*
X65563334Y-141281962D02*
X65563334Y-140901010D01*
X65563334Y-140901010D02*
X65610953Y-140805772D01*
X65610953Y-140805772D02*
X65706191Y-140758153D01*
X65706191Y-140758153D02*
X65896667Y-140758153D01*
X65896667Y-140758153D02*
X65991905Y-140805772D01*
X65991905Y-140805772D02*
X66039524Y-140901010D01*
X66039524Y-140901010D02*
X66039524Y-140996248D01*
X66039524Y-140996248D02*
X65563334Y-141091486D01*
X66896667Y-141424820D02*
X66896667Y-140901010D01*
X66896667Y-140901010D02*
X66849048Y-140805772D01*
X66849048Y-140805772D02*
X66753810Y-140758153D01*
X66753810Y-140758153D02*
X66563334Y-140758153D01*
X66563334Y-140758153D02*
X66468096Y-140805772D01*
X66896667Y-141377201D02*
X66801429Y-141424820D01*
X66801429Y-141424820D02*
X66563334Y-141424820D01*
X66563334Y-141424820D02*
X66468096Y-141377201D01*
X66468096Y-141377201D02*
X66420477Y-141281962D01*
X66420477Y-141281962D02*
X66420477Y-141186724D01*
X66420477Y-141186724D02*
X66468096Y-141091486D01*
X66468096Y-141091486D02*
X66563334Y-141043867D01*
X66563334Y-141043867D02*
X66801429Y-141043867D01*
X66801429Y-141043867D02*
X66896667Y-140996248D01*
X67801429Y-141424820D02*
X67801429Y-140424820D01*
X67801429Y-141377201D02*
X67706191Y-141424820D01*
X67706191Y-141424820D02*
X67515715Y-141424820D01*
X67515715Y-141424820D02*
X67420477Y-141377201D01*
X67420477Y-141377201D02*
X67372858Y-141329581D01*
X67372858Y-141329581D02*
X67325239Y-141234343D01*
X67325239Y-141234343D02*
X67325239Y-140948629D01*
X67325239Y-140948629D02*
X67372858Y-140853391D01*
X67372858Y-140853391D02*
X67420477Y-140805772D01*
X67420477Y-140805772D02*
X67515715Y-140758153D01*
X67515715Y-140758153D02*
X67706191Y-140758153D01*
X67706191Y-140758153D02*
X67801429Y-140805772D01*
X68801429Y-141424820D02*
X68230001Y-141424820D01*
X68515715Y-141424820D02*
X68515715Y-140424820D01*
X68515715Y-140424820D02*
X68420477Y-140567677D01*
X68420477Y-140567677D02*
X68325239Y-140662915D01*
X68325239Y-140662915D02*
X68230001Y-140710534D01*
%TO.C,J2*%
D13*
X85038798Y-118092502D02*
X85038801Y-135932498D01*
X85038800Y-115492499D02*
X85038800Y-116822500D01*
X86368800Y-115492500D02*
X85038800Y-115492499D01*
X87638800Y-115492499D02*
X87638800Y-118092500D01*
X87638800Y-118092500D02*
X85038798Y-118092502D01*
X90238800Y-115492500D02*
X87638800Y-115492499D01*
X90238800Y-115492500D02*
X90238800Y-135932499D01*
X90238800Y-135932499D02*
X85038801Y-135932498D01*
%TO.C,FromMCU1*%
X40020000Y-134375000D02*
X40020000Y-118355000D01*
X43460000Y-118355000D02*
X40020000Y-118355000D01*
X43460000Y-134375000D02*
X40020000Y-134375000D01*
X54102000Y-117479000D02*
X54610000Y-117987000D01*
X54610000Y-117987000D02*
X55118000Y-117479000D01*
X55118000Y-117479000D02*
X54102000Y-117479000D01*
X58890000Y-118355000D02*
X46960000Y-118355000D01*
X58890000Y-134375000D02*
X46960000Y-134375000D01*
X58890000Y-134375000D02*
X58890000Y-118355000D01*
%TO.C,J1*%
X64718800Y-115492499D02*
X64718800Y-116822500D01*
X64718800Y-118092500D02*
X64718800Y-135932500D01*
X66048800Y-115492500D02*
X64718800Y-115492499D01*
X67318799Y-115492500D02*
X67318800Y-118092500D01*
X67318800Y-118092500D02*
X64718800Y-118092500D01*
X69918800Y-115492500D02*
X67318799Y-115492500D01*
X69918800Y-115492500D02*
X69918800Y-135932501D01*
X69918800Y-135932501D02*
X64718800Y-135932500D01*
%TO.C,ToENVSenseHead1*%
X71009999Y-136230001D02*
X83930000Y-136230000D01*
X71010000Y-133469998D02*
X71009999Y-136230001D01*
X71960000Y-133157358D02*
X71960000Y-133470000D01*
X71960000Y-142230000D02*
X71959999Y-136230001D01*
X72819999Y-142230001D02*
X71960000Y-142230000D01*
X72820000Y-133157358D02*
X72820000Y-133469999D01*
X72820000Y-136230000D02*
X72819999Y-142230001D01*
X73660001Y-133469999D02*
X73660001Y-136230001D01*
X74500001Y-133157358D02*
X74500000Y-133470000D01*
X74500002Y-142230001D02*
X74500000Y-136230001D01*
X75360000Y-133157358D02*
X75360000Y-133469999D01*
X75360000Y-136230000D02*
X75360000Y-142229999D01*
X75360000Y-142229999D02*
X74500002Y-142230001D01*
X76200001Y-133469999D02*
X76200000Y-136230000D01*
X77039999Y-133157359D02*
X77040001Y-133469999D01*
X77040000Y-142230000D02*
X77039999Y-136230001D01*
X77899999Y-136229999D02*
X77900001Y-142229999D01*
X77900000Y-133157358D02*
X77900000Y-133470000D01*
X77900001Y-142229999D02*
X77040000Y-142230000D01*
X78740000Y-133469999D02*
X78740000Y-136230000D01*
X79580000Y-133157358D02*
X79579999Y-133469998D01*
X79580000Y-142230000D02*
X79580000Y-136230000D01*
X80439999Y-136229999D02*
X80440000Y-142230000D01*
X80440000Y-133157358D02*
X80439999Y-133470002D01*
X80440000Y-142230000D02*
X79580000Y-142230000D01*
X81280000Y-133470000D02*
X81279999Y-136229999D01*
X82120001Y-133239999D02*
X82120000Y-133470000D01*
X82550001Y-130809999D02*
X83820000Y-130810000D01*
X82980000Y-133240000D02*
X82980000Y-133470000D01*
X83820000Y-130810000D02*
X83820001Y-132080001D01*
X83930000Y-133470000D02*
X71010000Y-133469998D01*
X83930000Y-136230000D02*
X83930000Y-133470000D01*
X82980000Y-142230000D02*
X82120001Y-142229999D01*
X82120000Y-136230000D01*
X82980000Y-136230000D01*
X82980000Y-142230000D01*
G36*
X82980000Y-142230000D02*
G01*
X82120001Y-142229999D01*
X82120000Y-136230000D01*
X82980000Y-136230000D01*
X82980000Y-142230000D01*
G37*
%TD*%
D14*
X40640000Y-109220000D02*
X93980000Y-109220000D01*
X93980000Y-142240000D01*
X40640000Y-142240000D01*
X40640000Y-109220000D01*
M02*
